<svg width="2357" height="513" xmlns="http://www.w3.org/2000/svg" xmlns:xlink="http://www.w3.org/1999/xlink" overflow="hidden"><defs><clipPath id="clip0"><rect x="1946" y="712" width="2357" height="513"/></clipPath></defs><g clip-path="url(#clip0)" transform="translate(-1946 -712)"><path d="M1.53248-4.92325 636.917 192.856 633.852 202.702-1.53248 4.92325ZM638.123 171.63 660 205.441 622.798 220.863Z" transform="matrix(1 0 0 -1 2567 1169.44)"/><path d="M5.08-0.883475 49.1918 252.76 39.0319 254.527-5.08 0.883475ZM68.6283 244.146 48.5292 279.044 17.8284 252.981Z" transform="matrix(1 0 0 -1 2567 1169.04)"/><path d="M2622.56 811.82C2624.29 811.82 2625.65 812.401 2626.65 813.563 2627.65 814.725 2628.15 816.292 2628.15 818.264 2628.15 820.399 2627.73 823.06 2626.9 826.248L2625.11 833.259C2624.65 835.043 2624.32 836.434 2624.12 837.434 2623.92 838.433 2623.77 839.298 2623.67 840.028 2623.58 840.757 2623.53 841.365 2623.53 841.851 2623.53 843.716 2623.84 845.06 2624.46 845.884 2625.09 846.708 2626.1 847.12 2627.5 847.12 2628.64 847.12 2629.86 846.667 2631.17 845.762 2632.48 844.857 2633.87 843.493 2635.35 841.669 2636.82 839.845 2638 838.075 2638.89 836.36 2639.78 834.644 2640.51 832.53 2641.08 830.017L2644.93 812.469 2651.94 812.469 2646.03 838.163C2645.43 840.757 2645.13 842.756 2645.13 844.161 2645.13 845.242 2645.31 846.026 2645.66 846.512 2646.01 846.998 2646.57 847.241 2647.32 847.241 2648.13 847.241 2649 846.91 2649.92 846.248 2650.83 845.587 2652.13 844.323 2653.81 842.459L2656.12 844.729C2653.66 847.349 2651.56 849.2 2649.83 850.281 2648.11 851.362 2646.27 851.902 2644.32 851.902 2642.65 851.902 2641.31 851.348 2640.31 850.24 2639.31 849.133 2638.81 847.66 2638.81 845.823 2638.81 844.364 2639.14 842.77 2639.78 841.041L2639.3 840.879C2636.62 844.634 2634.09 847.404 2631.7 849.187 2629.31 850.97 2626.86 851.862 2624.34 851.862 2621.83 851.862 2619.9 851.139 2618.55 849.693 2617.2 848.248 2616.52 846.242 2616.52 843.675 2616.52 841.973 2616.91 839.555 2617.7 836.421L2620.33 825.802C2621.06 822.857 2621.43 820.777 2621.43 819.561 2621.43 818.48 2621.25 817.697 2620.9 817.211 2620.55 816.724 2619.99 816.481 2619.24 816.481 2618.4 816.481 2617.51 816.826 2616.58 817.515 2615.65 818.204 2614.37 819.453 2612.75 821.263L2610.44 818.994C2612.74 816.67 2614.47 815.076 2615.63 814.212 2616.79 813.347 2617.91 812.732 2618.97 812.368 2620.04 812.003 2621.24 811.82 2622.56 811.82Z" fill-rule="evenodd"/><text fill="#000000" fill-opacity="0" font-family="Arial,Arial_MSFontService,sans-serif" font-size="40.0815" x="2610.44" y="846.892">𝑢</text><path d="M2647.02 785.924 2657.19 794.718 2657.19 797.798 2637.82 797.798 2626.63 797.798 2613.5 797.798 2613.5 793.988 2626.63 793.988 2637.82 793.988 2651.36 793.988 2644.87 788.355Z" fill-rule="evenodd"/><path d="M2688.06 833.259 2737.99 833.259 2737.99 838.65 2688.06 838.65ZM2688.06 816.441 2737.99 816.441 2737.99 821.831 2688.06 821.831Z" fill-rule="evenodd"/><text fill="#000000" fill-opacity="0" font-family="Arial,Arial_MSFontService,sans-serif" font-size="22.209" x="2688.06" y="835.873">=</text><path d="M2798.63 792.692 2799.72 795.812C2793.4 797.893 2788.72 801.952 2785.68 807.991 2782.64 814.029 2781.12 821.615 2781.12 830.747 2781.12 840.203 2782.64 847.998 2785.68 854.131 2788.72 860.264 2793.36 864.371 2799.6 866.451L2798.63 869.572C2790.71 867.492 2784.65 863.013 2780.43 856.137 2776.22 849.261 2774.11 840.933 2774.11 831.152 2774.11 821.398 2776.22 813.07 2780.45 806.167 2784.68 799.264 2790.74 794.772 2798.63 792.692Z" fill-rule="evenodd"/><text fill="#000000" fill-opacity="0" font-family="Arial,Arial_MSFontService,sans-serif" font-size="76.8804" x="2774.11" y="859.962">(</text><path d="M2817.2 811.82C2818.04 811.82 2818.77 811.915 2819.41 812.104 2820.04 812.293 2820.6 812.584 2821.09 812.976 2821.58 813.367 2822.01 813.874 2822.39 814.495 2822.76 815.117 2823.13 815.961 2823.48 817.028 2823.83 818.095 2824.16 819.419 2824.47 821 2824.78 822.581 2825.06 824.222 2825.3 825.924L2825.71 825.924C2828.3 822.277 2830.27 819.609 2831.61 817.92 2832.94 816.231 2834.07 814.975 2834.99 814.151 2835.91 813.327 2836.79 812.746 2837.65 812.408 2838.5 812.07 2839.62 811.902 2841.03 811.902 2842.3 811.902 2843.34 812.064 2844.15 812.388L2842.53 819.723 2839.69 819.723C2839.53 818.589 2839.06 818.021 2838.27 818.021 2838.03 818.021 2837.77 818.062 2837.5 818.143 2837.23 818.224 2836.9 818.399 2836.51 818.67 2836.12 818.94 2835.54 819.467 2834.79 820.25 2834.03 821.034 2833.18 821.993 2832.23 823.128 2831.29 824.262 2830.32 825.451 2829.32 826.694L2826.56 830.139C2827.05 832.733 2827.51 834.975 2827.94 836.866 2828.37 838.758 2828.76 840.331 2829.09 841.588 2829.43 842.844 2829.73 843.837 2829.99 844.567 2830.24 845.296 2830.52 845.843 2830.82 846.208 2831.11 846.573 2831.42 846.829 2831.73 846.978 2832.04 847.127 2832.4 847.201 2832.8 847.201 2833.53 847.201 2834.24 846.917 2834.93 846.35 2835.62 845.782 2836.61 844.499 2837.91 842.5L2840.54 844.242C2838.65 847.052 2836.94 849.031 2835.42 850.18 2833.89 851.328 2832.07 851.902 2829.97 851.902 2828.8 851.902 2827.82 851.693 2827.01 851.274 2826.2 850.855 2825.49 850.186 2824.9 849.268 2824.3 848.349 2823.78 846.917 2823.32 844.972 2822.48 841.514 2821.97 838.866 2821.78 837.029L2821.37 837.029C2818.51 841.054 2816.38 843.945 2814.99 845.701 2813.6 847.458 2812.45 848.754 2811.55 849.592 2810.64 850.43 2809.76 851.017 2808.91 851.355 2808.06 851.693 2806.93 851.862 2805.53 851.862 2804.26 851.862 2803.22 851.699 2802.41 851.375L2804.03 844.04 2806.86 844.04C2807.03 845.174 2807.5 845.742 2808.28 845.742 2808.66 845.742 2809.06 845.641 2809.48 845.438 2809.9 845.235 2810.5 844.749 2811.28 843.979 2812.07 843.209 2813.15 842 2814.52 840.352 2815.9 838.704 2817.9 836.231 2820.52 832.935 2820.12 830.801 2819.7 828.747 2819.27 826.775 2818.83 824.803 2818.39 822.966 2817.93 821.263 2817.47 819.561 2817.09 818.447 2816.79 817.92 2816.5 817.393 2816.18 817.028 2815.84 816.826 2815.5 816.623 2815.08 816.522 2814.56 816.522 2814 816.522 2813.48 816.65 2813.02 816.907 2812.57 817.163 2812.07 817.609 2811.53 818.244 2810.98 818.879 2810.27 819.872 2809.38 821.223L2806.74 819.48C2808.45 816.913 2810.08 814.995 2811.65 813.725 2813.21 812.455 2815.06 811.82 2817.2 811.82Z" fill-rule="evenodd"/><text fill="#000000" fill-opacity="0" font-family="Arial,Arial_MSFontService,sans-serif" font-size="40.0815" x="2802.41" y="846.892">𝑥</text><path d="M2862.71 829.734 2864.52 829.734C2864.48 830.826 2864.45 831.804 2864.43 832.668 2864.41 833.532 2864.4 834.371 2864.39 835.185 2864.38 835.999 2864.37 836.803 2864.37 837.597L2864.37 860.234C2864.37 860.85 2864.39 861.381 2864.43 861.828 2864.47 862.274 2864.54 862.652 2864.63 862.959 2864.72 863.267 2864.84 863.53 2864.98 863.749 2865.13 863.967 2865.31 864.156 2865.51 864.315 2865.74 864.553 2866.06 864.737 2866.46 864.866 2866.86 864.995 2867.36 865.104 2867.98 865.193 2868.59 865.283 2869.33 865.352 2870.2 865.402 2871.06 865.451 2872.1 865.486 2873.31 865.506L2873.31 868.097 2849.69 868.097 2849.69 865.506C2850.86 865.466 2851.85 865.422 2852.67 865.372 2853.48 865.322 2854.18 865.253 2854.75 865.164 2855.33 865.074 2855.79 864.975 2856.14 864.866 2856.49 864.756 2856.79 864.622 2857.05 864.464 2857.32 864.285 2857.56 864.091 2857.76 863.883 2857.96 863.674 2858.12 863.411 2858.24 863.093 2858.36 862.776 2858.45 862.389 2858.52 861.932 2858.59 861.475 2858.63 860.909 2858.63 860.234L2858.63 838.878C2858.63 838.104 2858.48 837.558 2858.18 837.24 2857.88 836.922 2857.45 836.763 2856.9 836.763 2856.28 836.763 2855.37 837.081 2854.16 837.716 2852.95 838.352 2851.38 839.295 2849.45 840.546 2849.19 840.089 2848.96 839.633 2848.74 839.176 2848.52 838.719 2848.29 838.253 2848.05 837.776 2850.51 836.426 2852.95 835.081 2855.36 833.74 2857.78 832.4 2860.22 831.064 2862.71 829.734Z" fill-rule="evenodd"/><text fill="#000000" fill-opacity="0" font-family="Arial,Arial_MSFontService,sans-serif" font-size="38.3633" x="2848.05" y="863.302">1</text><path d="M2886.39 841.851 2893.49 841.851C2893.86 843.743 2894.05 845.607 2894.05 847.444 2894.05 849.335 2893.73 851.064 2893.08 852.632 2892.43 854.199 2891.4 855.759 2889.98 857.312 2888.56 858.866 2886.61 860.575 2884.12 862.439L2881.94 859.967C2883.31 858.67 2884.31 857.502 2884.94 856.461 2885.56 855.421 2886 854.239 2886.27 852.915 2886.54 851.591 2886.68 849.93 2886.68 847.93 2886.68 845.877 2886.58 843.851 2886.39 841.851Z" fill-rule="evenodd"/><text fill="#000000" fill-opacity="0" font-family="Arial,Arial_MSFontService,sans-serif" font-size="20.5879" x="2881.94" y="859.866">,</text><path d="M2925.28 811.861C2926.38 811.861 2927.33 812.01 2928.11 812.307 2928.65 812.523 2929.19 812.881 2929.73 813.381 2930.27 813.881 2930.75 814.576 2931.17 815.468 2931.59 816.36 2931.96 817.359 2932.27 818.467 2932.58 819.575 2932.92 821.169 2933.3 823.249 2933.95 826.735 2934.58 830.402 2935.18 834.252 2935.79 838.102 2936.31 841.676 2936.74 844.972 2939.37 841.189 2941.59 837.488 2943.41 833.867 2945.23 830.247 2946.55 827.099 2947.34 824.424 2948.14 821.75 2948.54 819.575 2948.54 817.9 2948.54 816.63 2948.27 815.765 2947.73 815.306 2947.19 814.847 2946.27 814.576 2944.97 814.495L2945.38 812.509 2956.04 812.509 2957.13 814.536C2955.08 820.156 2952.29 826.167 2948.78 832.57 2945.32 838.839 2941.36 845.08 2936.91 851.294 2932.64 857.211 2929.08 861.494 2926.25 864.141 2924.28 865.952 2922.37 867.248 2920.53 868.032 2919.07 868.626 2917.52 868.924 2915.87 868.924 2915.31 868.924 2914.65 868.876 2913.91 868.782 2913.16 868.687 2912.59 868.559 2912.18 868.397L2913.93 860.534 2917.13 860.534C2917.13 862.264 2917.72 863.128 2918.91 863.128 2920.48 863.128 2922.3 862.149 2924.38 860.19 2926.46 858.231 2928.91 855.279 2931.72 851.335 2930.94 846.606 2929.87 840.906 2928.52 834.232 2927.09 827.099 2926.14 822.682 2925.68 820.98 2925.11 818.926 2924.52 817.616 2923.9 817.049 2923.52 816.697 2923.05 816.522 2922.48 816.522 2921.61 816.522 2920.8 816.873 2920.05 817.575 2919.29 818.278 2918.36 819.494 2917.25 821.223L2914.62 819.48C2916.48 816.697 2918.22 814.732 2919.84 813.583 2921.47 812.435 2923.28 811.861 2925.28 811.861Z" fill-rule="evenodd"/><text fill="#000000" fill-opacity="0" font-family="Arial,Arial_MSFontService,sans-serif" font-size="57.0625" x="2912.18" y="861.791">𝑦</text><path d="M2974.01 829.734 2975.83 829.734C2975.79 830.826 2975.76 831.804 2975.74 832.668 2975.72 833.532 2975.71 834.371 2975.7 835.185 2975.69 835.999 2975.68 836.803 2975.68 837.597L2975.68 860.234C2975.68 860.85 2975.7 861.381 2975.74 861.828 2975.78 862.274 2975.84 862.652 2975.93 862.959 2976.02 863.267 2976.14 863.53 2976.29 863.749 2976.44 863.967 2976.61 864.156 2976.81 864.315 2977.05 864.553 2977.37 864.737 2977.77 864.866 2978.16 864.995 2978.67 865.104 2979.28 865.193 2979.9 865.283 2980.64 865.352 2981.5 865.402 2982.37 865.451 2983.4 865.486 2984.62 865.506L2984.62 868.097 2961 868.097 2961 865.506C2962.17 865.466 2963.16 865.422 2963.97 865.372 2964.79 865.322 2965.48 865.253 2966.06 865.164 2966.64 865.074 2967.1 864.975 2967.44 864.866 2967.79 864.756 2968.09 864.622 2968.35 864.464 2968.63 864.285 2968.87 864.091 2969.07 863.883 2969.27 863.674 2969.43 863.411 2969.54 863.093 2969.66 862.776 2969.76 862.389 2969.83 861.932 2969.9 861.475 2969.93 860.909 2969.93 860.234L2969.93 838.878C2969.93 838.104 2969.78 837.558 2969.48 837.24 2969.19 836.922 2968.76 836.763 2968.2 836.763 2967.59 836.763 2966.68 837.081 2965.46 837.716 2964.25 838.352 2962.68 839.295 2960.76 840.546 2960.5 840.089 2960.26 839.633 2960.04 839.176 2959.82 838.719 2959.6 838.253 2959.36 837.776 2961.82 836.426 2964.26 835.081 2966.67 833.74 2969.08 832.4 2971.53 831.064 2974.01 829.734Z" fill-rule="evenodd"/><text fill="#000000" fill-opacity="0" font-family="Arial,Arial_MSFontService,sans-serif" font-size="38.3633" x="2959.36" y="863.302">1</text><path d="M2994.9 792.692C3002.79 794.772 3008.85 799.264 3013.08 806.167 3017.31 813.07 3019.42 821.398 3019.42 831.152 3019.42 840.933 3017.32 849.261 3013.1 856.137 3008.89 863.013 3002.82 867.492 2994.9 869.572L2993.93 866.451C3000.17 864.371 3004.81 860.264 3007.85 854.131 3010.89 847.998 3012.41 840.203 3012.41 830.747 3012.41 821.615 3010.9 814.029 3007.87 807.991 3004.85 801.952 3000.16 797.893 2993.81 795.812Z" fill-rule="evenodd"/><text fill="#000000" fill-opacity="0" font-family="Arial,Arial_MSFontService,sans-serif" font-size="76.8804" x="2993.81" y="859.962">)</text><path d="M3289.73 938.548C3291.67 938.548 3293.08 939.055 3293.94 940.068 3294.81 941.081 3295.24 942.439 3295.24 944.141 3295.24 945.438 3295.01 946.924 3294.55 948.599 3294.09 950.274 3293.44 952.044 3292.61 953.908 3291.77 955.772 3290.77 957.684 3289.61 959.643 3288.45 961.601 3287.16 963.506 3285.76 965.357 3284.35 967.208 3282.85 968.95 3281.26 970.585 3279.66 972.22 3278.01 973.645 3276.29 974.861 3274.58 976.076 3272.84 977.042 3271.07 977.758 3269.3 978.474 3267.53 978.832 3265.78 978.832 3264.99 978.832 3264.34 978.636 3263.81 978.245 3263.28 977.853 3262.86 977.299 3262.54 976.583 3262.21 975.867 3261.98 975.023 3261.85 974.05 3261.71 973.077 3261.64 972.01 3261.64 970.848 3261.64 969.308 3261.74 967.66 3261.93 965.904 3262.12 964.148 3262.36 962.378 3262.66 960.595L3264.36 949.369C3264.47 948.721 3264.55 948.106 3264.62 947.525 3264.69 946.944 3264.72 946.519 3264.72 946.248 3264.72 945.411 3264.59 944.722 3264.32 944.181 3264.05 943.641 3263.59 943.371 3262.94 943.371 3262.43 943.371 3261.87 943.526 3261.28 943.837 3260.68 944.148 3260.08 944.546 3259.48 945.033 3258.87 945.519 3258.28 946.039 3257.71 946.593 3257.15 947.147 3256.62 947.667 3256.13 948.153L3254.19 945.884C3255.02 945.019 3255.92 944.161 3256.86 943.31 3257.81 942.459 3258.81 941.689 3259.86 941 3260.91 940.311 3262.02 939.757 3263.18 939.338 3264.35 938.92 3265.53 938.71 3266.75 938.71 3267.78 938.71 3268.61 938.879 3269.26 939.217 3269.91 939.555 3270.42 940 3270.78 940.554 3271.15 941.108 3271.4 941.716 3271.53 942.378 3271.67 943.04 3271.73 943.695 3271.73 944.344 3271.73 944.722 3271.72 945.087 3271.69 945.438 3271.67 945.789 3271.63 946.113 3271.57 946.41L3269.3 961.081C3269.06 962.621 3268.86 964.128 3268.7 965.6 3268.53 967.073 3268.45 968.376 3268.45 969.511 3268.45 970.646 3268.52 971.564 3268.65 972.267 3268.79 972.969 3269.05 973.321 3269.42 973.321 3270.32 973.321 3271.44 972.963 3272.79 972.247 3274.14 971.531 3275.56 970.544 3277.04 969.288 3278.53 968.032 3280.02 966.546 3281.5 964.83 3282.99 963.115 3284.33 961.257 3285.51 959.258 3286.7 957.258 3287.67 955.151 3288.41 952.935 3289.15 950.72 3289.53 948.491 3289.53 946.248 3289.53 945.276 3289.32 944.526 3288.9 943.999 3288.48 943.472 3287.82 943.209 3286.93 943.209 3285.8 943.209 3284.75 943.648 3283.79 944.526 3282.83 945.404 3281.84 946.559 3280.81 947.991L3278.5 945.924C3279.15 944.951 3279.91 944.019 3280.79 943.128 3281.67 942.236 3282.6 941.453 3283.59 940.777 3284.58 940.102 3285.6 939.561 3286.65 939.156 3287.7 938.751 3288.73 938.548 3289.73 938.548Z" fill-rule="evenodd"/><text fill="#000000" fill-opacity="0" font-family="Arial,Arial_MSFontService,sans-serif" font-size="40.2842" x="3254.19" y="973.797">𝑣</text><path d="M3285.74 912.79 3295.91 921.585 3295.91 924.665 3265.35 924.665 3265.35 920.855 3290.07 920.855 3283.59 915.222Z" fill-rule="evenodd"/><text fill="#000000" fill-opacity="0" font-family="Arial,Arial_MSFontService,sans-serif" font-size="11.8745" x="3265.35" y="923.181">റ</text><path d="M3327.4 960.149 3377.33 960.149 3377.33 965.539 3327.4 965.539ZM3327.4 943.33 3377.33 943.33 3377.33 948.721 3327.4 948.721Z" fill-rule="evenodd"/><text fill="#000000" fill-opacity="0" font-family="Arial,Arial_MSFontService,sans-serif" font-size="22.209" x="3327.4" y="962.763">=</text><path d="M3437.97 919.581 3439.06 922.702C3432.74 924.782 3428.06 928.842 3425.02 934.88 3421.98 940.919 3420.46 948.504 3420.46 957.637 3420.46 967.093 3421.98 974.888 3425.02 981.021 3428.06 987.154 3432.7 991.261 3438.94 993.341L3437.97 996.462C3430.05 994.381 3423.98 989.903 3419.77 983.027 3415.55 976.151 3413.45 967.822 3413.45 958.042 3413.45 948.288 3415.56 939.96 3419.79 933.057 3424.02 926.154 3430.08 921.662 3437.97 919.581Z" fill-rule="evenodd"/><text fill="#000000" fill-opacity="0" font-family="Arial,Arial_MSFontService,sans-serif" font-size="76.8804" x="3413.45" y="986.852">(</text><path d="M3456.54 938.71C3457.37 938.71 3458.11 938.805 3458.74 938.994 3459.38 939.183 3459.94 939.474 3460.43 939.865 3460.91 940.257 3461.34 940.764 3461.72 941.385 3462.1 942.006 3462.47 942.851 3462.82 943.918 3463.17 944.985 3463.5 946.309 3463.81 947.89 3464.12 949.47 3464.4 951.112 3464.64 952.814L3465.05 952.814C3467.64 949.166 3469.61 946.498 3470.94 944.81 3472.28 943.121 3473.41 941.865 3474.33 941.041 3475.25 940.217 3476.13 939.636 3476.98 939.298 3477.83 938.96 3478.96 938.791 3480.37 938.791 3481.64 938.791 3482.68 938.953 3483.49 939.278L3481.86 946.613 3479.03 946.613C3478.87 945.478 3478.39 944.911 3477.61 944.911 3477.37 944.911 3477.11 944.951 3476.84 945.033 3476.57 945.114 3476.24 945.289 3475.85 945.559 3475.45 945.83 3474.88 946.356 3474.12 947.14 3473.37 947.923 3472.52 948.883 3471.57 950.017 3470.63 951.152 3469.65 952.341 3468.65 953.584L3465.9 957.029C3466.38 959.622 3466.84 961.865 3467.27 963.756 3467.71 965.647 3468.09 967.221 3468.43 968.478 3468.77 969.734 3469.06 970.727 3469.32 971.456 3469.58 972.186 3469.86 972.733 3470.15 973.098 3470.45 973.462 3470.75 973.719 3471.06 973.868 3471.38 974.016 3471.73 974.091 3472.14 974.091 3472.87 974.091 3473.58 973.807 3474.27 973.24 3474.95 972.672 3475.95 971.389 3477.24 969.389L3479.88 971.132C3477.99 973.942 3476.28 975.921 3474.75 977.069 3473.23 978.218 3471.41 978.792 3469.3 978.792 3468.14 978.792 3467.15 978.582 3466.34 978.164 3465.53 977.745 3464.83 977.076 3464.24 976.158 3463.64 975.239 3463.11 973.807 3462.65 971.862 3461.82 968.403 3461.3 965.755 3461.11 963.918L3460.71 963.918C3457.85 967.944 3455.72 970.835 3454.33 972.591 3452.94 974.347 3451.79 975.644 3450.88 976.482 3449.98 977.319 3449.1 977.907 3448.25 978.245 3447.4 978.582 3446.27 978.751 3444.86 978.751 3443.59 978.751 3442.55 978.589 3441.74 978.265L3443.36 970.93 3446.2 970.93C3446.36 972.064 3446.84 972.632 3447.62 972.632 3448 972.632 3448.4 972.53 3448.81 972.328 3449.23 972.125 3449.83 971.639 3450.62 970.869 3451.4 970.099 3452.48 968.89 3453.86 967.242 3455.24 965.593 3457.24 963.121 3459.86 959.825 3459.45 957.691 3459.03 955.637 3458.6 953.665 3458.17 951.693 3457.72 949.855 3457.26 948.153 3456.81 946.451 3456.43 945.336 3456.13 944.81 3455.83 944.283 3455.52 943.918 3455.18 943.715 3454.84 943.513 3454.41 943.411 3453.9 943.411 3453.33 943.411 3452.82 943.54 3452.36 943.796 3451.9 944.053 3451.4 944.499 3450.86 945.134 3450.32 945.769 3449.6 946.762 3448.71 948.113L3446.08 946.37C3447.78 943.803 3449.42 941.885 3450.98 940.615 3452.55 939.345 3454.4 938.71 3456.54 938.71Z" fill-rule="evenodd"/><text fill="#000000" fill-opacity="0" font-family="Arial,Arial_MSFontService,sans-serif" font-size="40.0815" x="3441.74" y="973.782">𝑥</text><path d="M3501.62 956.415C3503.69 956.415 3505.45 956.649 3506.91 957.115 3508.37 957.582 3509.55 958.212 3510.47 959.007 3511.38 959.801 3512.04 960.754 3512.45 961.866 3512.85 962.978 3513.06 964.179 3513.06 965.47 3513.06 966.244 3513 966.964 3512.89 967.629 3512.79 968.295 3512.6 968.95 3512.33 969.595 3512.06 970.241 3511.71 970.891 3511.27 971.546 3510.83 972.201 3510.29 972.896 3509.63 973.631 3509.14 974.267 3508.49 975.001 3507.7 975.835 3506.9 976.669 3506.03 977.563 3505.09 978.516 3504.15 979.469 3503.16 980.462 3502.13 981.494 3501.09 982.527 3500.09 983.55 3499.12 984.562 3498.15 985.575 3497.25 986.558 3496.44 987.511 3495.62 988.464 3494.96 989.338 3494.44 990.132L3505.46 990.132C3506.4 990.132 3507.14 990.097 3507.7 990.028 3508.25 989.958 3508.71 989.805 3509.08 989.566 3509.45 989.328 3509.76 988.966 3510.02 988.479 3510.28 987.993 3510.58 987.322 3510.91 986.469L3513.68 986.469C3513.58 987.878 3513.49 989.298 3513.4 990.728 3513.31 992.158 3513.22 993.577 3513.12 994.987L3487.89 994.987 3487.89 993.438C3488.37 992.366 3488.92 991.309 3489.56 990.266 3490.19 989.224 3490.91 988.166 3491.7 987.094 3492.5 986.022 3493.4 984.915 3494.41 983.773 3495.43 982.631 3496.55 981.445 3497.78 980.214 3499.65 978.347 3501.16 976.754 3502.34 975.433 3503.51 974.113 3504.43 972.936 3505.11 971.904 3505.78 970.871 3506.24 969.918 3506.49 969.044 3506.74 968.171 3506.86 967.237 3506.86 966.244 3506.86 965.232 3506.72 964.298 3506.43 963.445 3506.14 962.591 3505.73 961.866 3505.2 961.27 3504.66 960.675 3503.98 960.208 3503.16 959.87 3502.33 959.533 3501.38 959.364 3500.31 959.364 3498.46 959.364 3496.92 959.865 3495.66 960.868 3494.41 961.871 3493.44 963.326 3492.75 965.232L3488.84 965.232 3488.84 959.424C3491.39 958.371 3493.72 957.607 3495.86 957.13 3497.99 956.654 3499.91 956.415 3501.62 956.415Z" fill-rule="evenodd"/><text fill="#000000" fill-opacity="0" font-family="Arial,Arial_MSFontService,sans-serif" font-size="38.5718" x="3487.89" y="990.166">2</text><path d="M3527.63 968.741 3534.72 968.741C3535.1 970.632 3535.29 972.497 3535.29 974.334 3535.29 976.225 3534.97 977.954 3534.32 979.521 3533.67 981.088 3532.64 982.649 3531.22 984.202 3529.8 985.756 3527.85 987.465 3525.36 989.329L3523.17 986.857C3524.55 985.56 3525.55 984.391 3526.17 983.351 3526.79 982.311 3527.24 981.129 3527.51 979.805 3527.78 978.481 3527.92 976.819 3527.92 974.82 3527.92 972.767 3527.82 970.74 3527.63 968.741Z" fill-rule="evenodd"/><text fill="#000000" fill-opacity="0" font-family="Arial,Arial_MSFontService,sans-serif" font-size="20.5879" x="3523.17" y="986.755">,</text><path d="M3566.51 938.751C3567.62 938.751 3568.57 938.899 3569.35 939.197 3569.89 939.413 3570.43 939.771 3570.97 940.271 3571.51 940.77 3571.99 941.466 3572.41 942.358 3572.83 943.249 3573.19 944.249 3573.5 945.357 3573.82 946.464 3574.16 948.059 3574.54 950.139 3575.19 953.624 3575.81 957.292 3576.42 961.142 3577.03 964.992 3577.55 968.565 3577.98 971.862 3580.6 968.079 3582.83 964.378 3584.65 960.757 3586.47 957.137 3587.78 953.989 3588.58 951.314 3589.38 948.639 3589.78 946.464 3589.78 944.789 3589.78 943.52 3589.51 942.655 3588.97 942.196 3588.43 941.736 3587.51 941.466 3586.21 941.385L3586.61 939.399 3597.27 939.399 3598.37 941.426C3596.31 947.045 3593.53 953.057 3590.02 959.46 3586.56 965.729 3582.6 971.97 3578.14 978.184 3573.88 984.101 3570.32 988.383 3567.49 991.031 3565.51 992.841 3563.61 994.138 3561.77 994.922 3560.31 995.516 3558.76 995.813 3557.11 995.813 3556.54 995.813 3555.89 995.766 3555.15 995.671 3554.4 995.577 3553.83 995.449 3553.42 995.286L3555.17 987.424 3558.37 987.424C3558.37 989.153 3558.96 990.018 3560.15 990.018 3561.72 990.018 3563.54 989.038 3565.62 987.08 3567.7 985.121 3570.15 982.169 3572.96 978.224 3572.17 973.496 3571.11 967.795 3569.76 961.122 3568.32 953.989 3567.38 949.572 3566.92 947.869 3566.35 945.816 3565.76 944.506 3565.14 943.938 3564.76 943.587 3564.28 943.411 3563.72 943.411 3562.85 943.411 3562.04 943.763 3561.29 944.465 3560.53 945.168 3559.6 946.383 3558.49 948.113L3555.85 946.37C3557.72 943.587 3559.46 941.621 3561.08 940.473 3562.7 939.325 3564.51 938.751 3566.51 938.751Z" fill-rule="evenodd"/><text fill="#000000" fill-opacity="0" font-family="Arial,Arial_MSFontService,sans-serif" font-size="57.0625" x="3553.42" y="988.68">𝑦</text><path d="M3614.83 956.415C3616.89 956.415 3618.66 956.649 3620.12 957.115 3621.58 957.582 3622.76 958.212 3623.68 959.007 3624.59 959.801 3625.25 960.754 3625.66 961.866 3626.06 962.978 3626.27 964.179 3626.27 965.47 3626.27 966.244 3626.21 966.964 3626.1 967.629 3625.99 968.295 3625.81 968.95 3625.54 969.595 3625.27 970.241 3624.92 970.891 3624.48 971.546 3624.04 972.201 3623.5 972.896 3622.84 973.631 3622.35 974.267 3621.7 975.001 3620.91 975.835 3620.11 976.669 3619.24 977.563 3618.3 978.516 3617.36 979.469 3616.37 980.462 3615.34 981.494 3614.3 982.527 3613.3 983.55 3612.33 984.562 3611.35 985.575 3610.46 986.558 3609.65 987.511 3608.83 988.464 3608.17 989.338 3607.65 990.132L3618.67 990.132C3619.6 990.132 3620.35 990.097 3620.91 990.028 3621.46 989.958 3621.92 989.805 3622.29 989.566 3622.66 989.328 3622.97 988.966 3623.23 988.479 3623.49 987.993 3623.78 987.322 3624.12 986.469L3626.89 986.469C3626.79 987.878 3626.7 989.298 3626.61 990.728 3626.52 992.158 3626.43 993.577 3626.33 994.987L3601.1 994.987 3601.1 993.438C3601.57 992.366 3602.13 991.309 3602.77 990.266 3603.4 989.224 3604.12 988.166 3604.91 987.094 3605.71 986.022 3606.61 984.915 3607.62 983.773 3608.63 982.631 3609.76 981.445 3610.99 980.214 3612.85 978.347 3614.37 976.754 3615.54 975.433 3616.72 974.113 3617.64 972.936 3618.31 971.904 3618.99 970.871 3619.45 969.918 3619.7 969.044 3619.95 968.171 3620.07 967.237 3620.07 966.244 3620.07 965.232 3619.93 964.298 3619.64 963.445 3619.35 962.591 3618.94 961.866 3618.4 961.27 3617.87 960.675 3617.19 960.208 3616.36 959.87 3615.54 959.533 3614.59 959.364 3613.52 959.364 3611.67 959.364 3610.12 959.865 3608.87 960.868 3607.62 961.871 3606.65 963.326 3605.95 965.232L3602.05 965.232 3602.05 959.424C3604.59 958.371 3606.93 957.607 3609.07 957.13 3611.2 956.654 3613.12 956.415 3614.83 956.415Z" fill-rule="evenodd"/><text fill="#000000" fill-opacity="0" font-family="Arial,Arial_MSFontService,sans-serif" font-size="38.5718" x="3601.1" y="990.166">2</text><path d="M3638.04 919.581C3645.93 921.662 3651.99 926.154 3656.22 933.057 3660.45 939.96 3662.56 948.288 3662.56 958.042 3662.56 967.822 3660.46 976.151 3656.24 983.027 3652.03 989.903 3645.96 994.381 3638.04 996.462L3637.07 993.341C3643.31 991.261 3647.95 987.154 3650.99 981.021 3654.03 974.888 3655.55 967.093 3655.55 957.637 3655.55 948.504 3654.04 940.919 3651.01 934.88 3647.99 928.842 3643.3 924.782 3636.95 922.702Z" fill-rule="evenodd"/><text fill="#000000" fill-opacity="0" font-family="Arial,Arial_MSFontService,sans-serif" font-size="76.8804" x="3636.95" y="986.852">)</text><path d="M2634.85 1079.91C2633.59 1085.77 2632.95 1090.7 2632.95 1094.7 2632.95 1097.73 2633.41 1099.95 2634.33 1101.37 2635.25 1102.79 2636.73 1103.5 2638.79 1103.5 2641.81 1103.5 2644.68 1101.46 2647.4 1097.4 2650.11 1093.33 2652.42 1087.5 2654.31 1079.91ZM2651.47 1052.59C2648.31 1052.59 2645.39 1054.59 2642.7 1058.59 2640.01 1062.59 2637.72 1068.32 2635.83 1075.78L2655.24 1075.78C2656.51 1070.08 2657.15 1065.17 2657.15 1061.06 2657.15 1058.23 2656.69 1056.11 2655.77 1054.7 2654.85 1053.3 2653.42 1052.59 2651.47 1052.59ZM2651.96 1049.31C2659.79 1049.31 2663.71 1054.28 2663.71 1064.23 2663.71 1067.04 2663.39 1070.39 2662.76 1074.3 2662.12 1078.2 2661.12 1082.18 2659.74 1086.23 2658.36 1090.29 2656.62 1093.87 2654.51 1096.99 2652.4 1100.11 2649.97 1102.52 2647.22 1104.23 2644.46 1105.93 2641.49 1106.78 2638.3 1106.78 2634.27 1106.78 2631.28 1105.55 2629.3 1103.09 2627.33 1100.63 2626.34 1096.95 2626.34 1092.03 2626.34 1089.35 2626.64 1086.06 2627.24 1082.14 2627.83 1078.22 2628.81 1074.22 2630.17 1070.12 2631.54 1066.03 2633.29 1062.4 2635.44 1059.22 2637.59 1056.05 2640.06 1053.6 2642.86 1051.89 2645.66 1050.17 2648.69 1049.31 2651.96 1049.31Z" fill-rule="evenodd"/><text fill="#000000" fill-opacity="0" font-family="Arial,Arial_MSFontService,sans-serif" font-size="57.4678" x="2626.34" y="1099.6">𝜃</text><path d="M2586.56 1115.86 2596.62 1116.36 2606.06 1117.94 2614.57 1120.36 2622.15 1123.66 2629.37 1130.6 2627.78 1132.25 2620.71 1125.45 2621.04 1125.68 2613.73 1122.49 2613.87 1122.54 2605.5 1120.16 2605.62 1120.19 2596.31 1118.63 2596.44 1118.64 2586.44 1118.14ZM2633.82 1122.62 2636 1143 2618.39 1132.52Z"/><rect x="1948.5" y="714.5" width="2352" height="508" stroke="#000000" stroke-width="4.58333" stroke-miterlimit="8" fill="none"/></g></svg>