<svg width="1167" height="420" xmlns="http://www.w3.org/2000/svg" xmlns:xlink="http://www.w3.org/1999/xlink" overflow="hidden"><defs><clipPath id="clip0"><rect x="2350" y="755" width="1167" height="420"/></clipPath></defs><g clip-path="url(#clip0)" transform="translate(-2350 -755)"><path d="M1.53248-4.92325 636.917 192.856 633.852 202.702-1.53248 4.92325ZM638.123 171.63 660 205.441 622.798 220.863Z" transform="matrix(1 0 0 -1 2374 1169.44)"/><path d="M5.08-0.883475 49.1918 252.76 39.0319 254.527-5.08 0.883475ZM68.6283 244.146 48.5292 279.044 17.8284 252.981Z" transform="matrix(1 0 0 -1 2374 1169.04)"/><path d="M2429.36 808.818C2431.09 808.818 2432.46 809.399 2433.46 810.561 2434.46 811.723 2434.96 813.29 2434.96 815.262 2434.96 817.397 2434.54 820.058 2433.7 823.246L2431.92 830.257C2431.46 832.041 2431.13 833.432 2430.93 834.432 2430.72 835.431 2430.57 836.296 2430.48 837.025 2430.39 837.755 2430.34 838.363 2430.34 838.849 2430.34 840.713 2430.65 842.058 2431.27 842.882 2431.89 843.706 2432.9 844.118 2434.31 844.118 2435.44 844.118 2436.67 843.665 2437.98 842.76 2439.29 841.855 2440.68 840.491 2442.15 838.667 2443.62 836.843 2444.81 835.073 2445.7 833.358 2446.59 831.642 2447.32 829.528 2447.89 827.015L2451.74 809.467 2458.75 809.467 2452.83 835.161C2452.24 837.755 2451.94 839.754 2451.94 841.159 2451.94 842.24 2452.11 843.023 2452.47 843.51 2452.82 843.996 2453.37 844.239 2454.13 844.239 2454.94 844.239 2455.8 843.908 2456.72 843.246 2457.64 842.584 2458.94 841.321 2460.61 839.457L2462.92 841.727C2460.46 844.347 2458.37 846.198 2456.64 847.279 2454.91 848.36 2453.07 848.9 2451.13 848.9 2449.45 848.9 2448.12 848.346 2447.12 847.238 2446.12 846.131 2445.62 844.658 2445.62 842.821 2445.62 841.362 2445.94 839.768 2446.59 838.039L2446.1 837.877C2443.43 841.632 2440.9 844.401 2438.5 846.185 2436.11 847.968 2433.66 848.859 2431.15 848.859 2428.64 848.859 2426.7 848.137 2425.35 846.691 2424 845.246 2423.33 843.24 2423.33 840.673 2423.33 838.971 2423.72 836.553 2424.5 833.419L2427.14 822.8C2427.87 819.855 2428.23 817.775 2428.23 816.559 2428.23 815.478 2428.05 814.695 2427.7 814.209 2427.35 813.722 2426.8 813.479 2426.04 813.479 2425.2 813.479 2424.32 813.824 2423.39 814.513 2422.46 815.201 2421.18 816.451 2419.56 818.261L2417.25 815.992C2419.54 813.668 2421.27 812.074 2422.43 811.21 2423.6 810.345 2424.71 809.73 2425.78 809.366 2426.85 809.001 2428.04 808.818 2429.36 808.818Z" fill-rule="evenodd"/><text fill="#000000" fill-opacity="0" font-family="Arial,Arial_MSFontService,sans-serif" font-size="40.0815" x="2417.25" y="843.89">𝑢</text><path d="M2453.82 782.921 2464 791.716 2464 794.796 2444.62 794.796 2433.44 794.796 2420.31 794.796 2420.31 790.986 2433.44 790.986 2444.62 790.986 2458.16 790.986 2451.68 785.353Z" fill-rule="evenodd"/><path d="M2494.87 830.257 2544.8 830.257 2544.8 835.648 2494.87 835.648ZM2494.87 813.439 2544.8 813.439 2544.8 818.829 2494.87 818.829Z" fill-rule="evenodd"/><text fill="#000000" fill-opacity="0" font-family="Arial,Arial_MSFontService,sans-serif" font-size="22.209" x="2494.87" y="832.871">=</text><path d="M2605.43 789.69 2606.53 792.81C2600.21 794.891 2595.53 798.95 2592.49 804.989 2589.45 811.027 2587.93 818.613 2587.93 827.745 2587.93 837.201 2589.45 844.996 2592.49 851.129 2595.53 857.262 2600.17 861.369 2606.41 863.449L2605.43 866.57C2597.52 864.49 2591.45 860.011 2587.24 853.135 2583.02 846.259 2580.92 837.931 2580.92 828.15 2580.92 818.396 2583.03 810.068 2587.26 803.165 2591.49 796.262 2597.55 791.77 2605.43 789.69Z" fill-rule="evenodd"/><text fill="#000000" fill-opacity="0" font-family="Arial,Arial_MSFontService,sans-serif" font-size="76.8804" x="2580.92" y="856.96">(</text><path d="M2624 808.818C2624.84 808.818 2625.58 808.913 2626.21 809.102 2626.85 809.291 2627.41 809.582 2627.89 809.973 2628.38 810.365 2628.81 810.872 2629.19 811.493 2629.57 812.115 2629.93 812.959 2630.29 814.026 2630.64 815.093 2630.97 816.417 2631.28 817.998 2631.59 819.578 2631.87 821.22 2632.11 822.922L2632.51 822.922C2635.11 819.274 2637.07 816.606 2638.41 814.918 2639.75 813.229 2640.88 811.973 2641.8 811.149 2642.71 810.325 2643.6 809.744 2644.45 809.406 2645.3 809.068 2646.43 808.899 2647.83 808.899 2649.1 808.899 2650.14 809.062 2650.95 809.386L2649.33 816.721 2646.5 816.721C2646.33 815.586 2645.86 815.019 2645.08 815.019 2644.83 815.019 2644.58 815.06 2644.31 815.141 2644.04 815.222 2643.71 815.397 2643.32 815.668 2642.92 815.938 2642.35 816.465 2641.59 817.248 2640.84 818.032 2639.99 818.991 2639.04 820.126 2638.09 821.26 2637.12 822.449 2636.12 823.692L2633.37 827.137C2633.85 829.731 2634.31 831.973 2634.74 833.864 2635.18 835.756 2635.56 837.329 2635.9 838.586 2636.24 839.842 2636.53 840.835 2636.79 841.565 2637.05 842.294 2637.32 842.841 2637.62 843.206 2637.92 843.571 2638.22 843.827 2638.53 843.976 2638.84 844.125 2639.2 844.199 2639.61 844.199 2640.34 844.199 2641.05 843.915 2641.73 843.348 2642.42 842.78 2643.42 841.497 2644.71 839.498L2647.35 841.24C2645.46 844.05 2643.75 846.029 2642.22 847.178 2640.69 848.326 2638.88 848.9 2636.77 848.9 2635.61 848.9 2634.62 848.691 2633.81 848.272 2633 847.853 2632.3 847.184 2631.7 846.266 2631.11 845.347 2630.58 843.915 2630.12 841.97 2629.29 838.511 2628.77 835.864 2628.58 834.026L2628.18 834.026C2625.31 838.052 2623.19 840.943 2621.8 842.699 2620.4 844.455 2619.26 845.752 2618.35 846.59 2617.45 847.427 2616.57 848.015 2615.72 848.353 2614.86 848.691 2613.74 848.859 2612.33 848.859 2611.06 848.859 2610.02 848.697 2609.21 848.373L2610.83 841.038 2613.67 841.038C2613.83 842.172 2614.3 842.74 2615.09 842.74 2615.47 842.74 2615.86 842.638 2616.28 842.436 2616.7 842.233 2617.3 841.747 2618.09 840.977 2618.87 840.207 2619.95 838.998 2621.33 837.35 2622.71 835.702 2624.71 833.229 2627.33 829.933 2626.92 827.799 2626.5 825.745 2626.07 823.773 2625.64 821.801 2625.19 819.963 2624.73 818.261 2624.27 816.559 2623.9 815.445 2623.6 814.918 2623.3 814.391 2622.98 814.026 2622.65 813.824 2622.31 813.621 2621.88 813.52 2621.37 813.52 2620.8 813.52 2620.29 813.648 2619.83 813.905 2619.37 814.161 2618.87 814.607 2618.33 815.242 2617.79 815.877 2617.07 816.87 2616.18 818.221L2613.55 816.478C2615.25 813.911 2616.88 811.993 2618.45 810.723 2620.02 809.453 2621.87 808.818 2624 808.818Z" fill-rule="evenodd"/><text fill="#000000" fill-opacity="0" font-family="Arial,Arial_MSFontService,sans-serif" font-size="40.0815" x="2609.21" y="843.89">𝑥</text><path d="M2669.51 826.732 2671.33 826.732C2671.29 827.824 2671.26 828.802 2671.24 829.666 2671.22 830.53 2671.2 831.369 2671.19 832.183 2671.18 832.997 2671.18 833.801 2671.18 834.595L2671.18 857.232C2671.18 857.848 2671.2 858.379 2671.24 858.826 2671.28 859.272 2671.34 859.65 2671.43 859.957 2671.52 860.265 2671.64 860.528 2671.79 860.747 2671.94 860.965 2672.11 861.154 2672.31 861.313 2672.55 861.551 2672.87 861.734 2673.26 861.864 2673.66 861.993 2674.17 862.102 2674.78 862.191 2675.4 862.281 2676.14 862.35 2677 862.4 2677.87 862.449 2678.9 862.484 2680.11 862.504L2680.11 865.095 2656.49 865.095 2656.49 862.504C2657.67 862.464 2658.66 862.42 2659.47 862.37 2660.29 862.32 2660.98 862.251 2661.56 862.161 2662.13 862.072 2662.6 861.973 2662.94 861.864 2663.29 861.754 2663.59 861.62 2663.85 861.461 2664.13 861.283 2664.37 861.089 2664.57 860.881 2664.77 860.672 2664.92 860.409 2665.04 860.091 2665.16 859.774 2665.26 859.386 2665.33 858.93 2665.4 858.473 2665.43 857.907 2665.43 857.232L2665.43 835.876C2665.43 835.102 2665.28 834.556 2664.98 834.238 2664.69 833.92 2664.26 833.761 2663.7 833.761 2663.09 833.761 2662.17 834.079 2660.96 834.714 2659.75 835.35 2658.18 836.293 2656.26 837.544 2656 837.087 2655.76 836.631 2655.54 836.174 2655.32 835.717 2655.09 835.251 2654.86 834.774 2657.32 833.424 2659.76 832.078 2662.17 830.738 2664.58 829.398 2667.03 828.062 2669.51 826.732Z" fill-rule="evenodd"/><text fill="#000000" fill-opacity="0" font-family="Arial,Arial_MSFontService,sans-serif" font-size="38.3633" x="2654.86" y="860.3">1</text><path d="M2693.2 838.849 2700.29 838.849C2700.67 840.74 2700.86 842.605 2700.86 844.442 2700.86 846.333 2700.53 848.062 2699.89 849.629 2699.24 851.197 2698.2 852.757 2696.79 854.31 2695.37 855.864 2693.42 857.573 2690.93 859.437L2688.74 856.965C2690.12 855.668 2691.12 854.5 2691.74 853.459 2692.36 852.419 2692.81 851.237 2693.08 849.913 2693.35 848.589 2693.48 846.928 2693.48 844.928 2693.48 842.875 2693.39 840.849 2693.2 838.849Z" fill-rule="evenodd"/><text fill="#000000" fill-opacity="0" font-family="Arial,Arial_MSFontService,sans-serif" font-size="20.5879" x="2688.74" y="856.864">,</text><path d="M2732.08 808.859C2733.19 808.859 2734.13 809.008 2734.92 809.305 2735.46 809.521 2736 809.879 2736.54 810.379 2737.08 810.879 2737.56 811.574 2737.98 812.466 2738.4 813.357 2738.76 814.357 2739.07 815.465 2739.38 816.573 2739.73 818.167 2740.1 820.247 2740.75 823.732 2741.38 827.4 2741.99 831.25 2742.6 835.1 2743.12 838.674 2743.55 841.97 2746.17 838.187 2748.39 834.486 2750.22 830.865 2752.04 827.245 2753.35 824.097 2754.15 821.422 2754.94 818.748 2755.34 816.573 2755.34 814.898 2755.34 813.628 2755.07 812.763 2754.53 812.304 2753.99 811.844 2753.07 811.574 2751.78 811.493L2752.18 809.507 2762.84 809.507 2763.93 811.534C2761.88 817.154 2759.1 823.165 2755.59 829.568 2752.13 835.837 2748.17 842.078 2743.71 848.292 2739.44 854.209 2735.89 858.491 2733.05 861.139 2731.08 862.949 2729.18 864.246 2727.34 865.03 2725.88 865.624 2724.33 865.921 2722.68 865.921 2722.11 865.921 2721.46 865.874 2720.71 865.78 2719.97 865.685 2719.4 865.557 2718.99 865.395L2720.73 857.532 2723.93 857.532C2723.93 859.261 2724.53 860.126 2725.72 860.126 2727.28 860.126 2729.11 859.147 2731.19 857.188 2733.27 855.229 2735.71 852.277 2738.52 848.333 2737.74 843.604 2736.67 837.904 2735.32 831.23 2733.89 824.097 2732.94 819.68 2732.49 817.978 2731.92 815.924 2731.32 814.614 2730.7 814.046 2730.32 813.695 2729.85 813.52 2729.28 813.52 2728.42 813.52 2727.61 813.871 2726.85 814.573 2726.1 815.276 2725.16 816.492 2724.06 818.221L2721.42 816.478C2723.29 813.695 2725.03 811.73 2726.65 810.581 2728.27 809.433 2730.08 808.859 2732.08 808.859Z" fill-rule="evenodd"/><text fill="#000000" fill-opacity="0" font-family="Arial,Arial_MSFontService,sans-serif" font-size="57.0625" x="2718.99" y="858.789">𝑦</text><path d="M2780.82 826.732 2782.63 826.732C2782.59 827.824 2782.56 828.802 2782.54 829.666 2782.52 830.53 2782.51 831.369 2782.5 832.183 2782.49 832.997 2782.49 833.801 2782.49 834.595L2782.49 857.232C2782.49 857.848 2782.5 858.379 2782.54 858.826 2782.58 859.272 2782.65 859.65 2782.74 859.957 2782.83 860.265 2782.95 860.528 2783.1 860.747 2783.24 860.965 2783.42 861.154 2783.62 861.313 2783.86 861.551 2784.17 861.734 2784.57 861.864 2784.97 861.993 2785.47 862.102 2786.09 862.191 2786.7 862.281 2787.44 862.35 2788.31 862.4 2789.17 862.449 2790.21 862.484 2791.42 862.504L2791.42 865.095 2767.8 865.095 2767.8 862.504C2768.97 862.464 2769.97 862.42 2770.78 862.37 2771.59 862.32 2772.29 862.251 2772.86 862.161 2773.44 862.072 2773.9 861.973 2774.25 861.864 2774.6 861.754 2774.9 861.62 2775.16 861.461 2775.44 861.283 2775.67 861.089 2775.87 860.881 2776.07 860.672 2776.23 860.409 2776.35 860.091 2776.47 859.774 2776.56 859.386 2776.63 858.93 2776.7 858.473 2776.74 857.907 2776.74 857.232L2776.74 835.876C2776.74 835.102 2776.59 834.556 2776.29 834.238 2775.99 833.92 2775.56 833.761 2775.01 833.761 2774.39 833.761 2773.48 834.079 2772.27 834.714 2771.06 835.35 2769.49 836.293 2767.56 837.544 2767.3 837.087 2767.07 836.631 2766.85 836.174 2766.63 835.717 2766.4 835.251 2766.16 834.774 2768.62 833.424 2771.06 832.078 2773.48 830.738 2775.89 829.398 2778.33 828.062 2780.82 826.732Z" fill-rule="evenodd"/><text fill="#000000" fill-opacity="0" font-family="Arial,Arial_MSFontService,sans-serif" font-size="38.3633" x="2766.16" y="860.3">1</text><path d="M2801.71 789.69C2809.6 791.77 2815.66 796.262 2819.89 803.165 2824.11 810.068 2826.23 818.396 2826.23 828.15 2826.23 837.931 2824.12 846.259 2819.91 853.135 2815.69 860.011 2809.63 864.49 2801.71 866.57L2800.74 863.449C2806.98 861.369 2811.62 857.262 2814.66 851.129 2817.7 844.996 2819.22 837.201 2819.22 827.745 2819.22 818.613 2817.7 811.027 2814.68 804.989 2811.65 798.95 2806.96 794.891 2800.61 792.81Z" fill-rule="evenodd"/><text fill="#000000" fill-opacity="0" font-family="Arial,Arial_MSFontService,sans-serif" font-size="76.8804" x="2800.61" y="856.96">)</text><path d="M3096.53 935.546C3098.48 935.546 3099.88 936.053 3100.75 937.066 3101.61 938.079 3102.05 939.437 3102.05 941.139 3102.05 942.436 3101.82 943.922 3101.36 945.597 3100.9 947.272 3100.25 949.042 3099.41 950.906 3098.57 952.77 3097.57 954.682 3096.41 956.641 3095.25 958.599 3093.97 960.504 3092.56 962.355 3091.16 964.206 3089.66 965.948 3088.06 967.583 3086.47 969.218 3084.81 970.643 3083.1 971.859 3081.38 973.074 3079.64 974.04 3077.87 974.756 3076.1 975.472 3074.34 975.83 3072.58 975.83 3071.8 975.83 3071.14 975.634 3070.62 975.243 3070.09 974.851 3069.66 974.297 3069.34 973.581 3069.02 972.865 3068.79 972.021 3068.65 971.048 3068.52 970.075 3068.45 969.008 3068.45 967.846 3068.45 966.306 3068.54 964.658 3068.73 962.902 3068.92 961.146 3069.16 959.376 3069.46 957.593L3071.16 946.367C3071.27 945.718 3071.36 945.104 3071.43 944.523 3071.49 943.942 3071.53 943.516 3071.53 943.246 3071.53 942.409 3071.39 941.72 3071.12 941.179 3070.85 940.639 3070.39 940.369 3069.75 940.369 3069.23 940.369 3068.68 940.524 3068.08 940.835 3067.49 941.146 3066.89 941.544 3066.28 942.03 3065.67 942.517 3065.08 943.037 3064.52 943.591 3063.95 944.145 3063.42 944.665 3062.94 945.151L3060.99 942.882C3061.83 942.017 3062.72 941.159 3063.67 940.308 3064.61 939.457 3065.61 938.687 3066.67 937.998 3067.72 937.309 3068.83 936.755 3069.99 936.336 3071.15 935.918 3072.34 935.708 3073.55 935.708 3074.58 935.708 3075.42 935.877 3076.07 936.215 3076.72 936.552 3077.22 936.998 3077.59 937.552 3077.95 938.106 3078.2 938.714 3078.34 939.376 3078.47 940.038 3078.54 940.693 3078.54 941.341 3078.54 941.72 3078.53 942.084 3078.5 942.436 3078.47 942.787 3078.43 943.111 3078.38 943.408L3076.11 958.079C3075.86 959.619 3075.66 961.126 3075.5 962.598 3075.34 964.071 3075.26 965.374 3075.26 966.509 3075.26 967.644 3075.32 968.562 3075.46 969.265 3075.59 969.967 3075.85 970.319 3076.23 970.319 3077.12 970.319 3078.24 969.961 3079.59 969.245 3080.94 968.529 3082.36 967.542 3083.85 966.286 3085.33 965.03 3086.82 963.544 3088.31 961.828 3089.79 960.112 3091.13 958.255 3092.32 956.256 3093.51 954.256 3094.47 952.149 3095.22 949.933 3095.96 947.718 3096.33 945.489 3096.33 943.246 3096.33 942.274 3096.12 941.524 3095.7 940.997 3095.28 940.47 3094.63 940.207 3093.74 940.207 3092.6 940.207 3091.56 940.646 3090.6 941.524 3089.64 942.402 3088.64 943.557 3087.62 944.989L3085.31 942.922C3085.96 941.949 3086.72 941.017 3087.6 940.126 3088.48 939.234 3089.41 938.451 3090.39 937.775 3091.38 937.1 3092.4 936.559 3093.45 936.154 3094.51 935.749 3095.53 935.546 3096.53 935.546Z" fill-rule="evenodd"/><text fill="#000000" fill-opacity="0" font-family="Arial,Arial_MSFontService,sans-serif" font-size="40.2842" x="3060.99" y="970.795">𝑣</text><path d="M3092.54 909.788 3102.71 918.583 3102.71 921.663 3072.16 921.663 3072.16 917.853 3096.88 917.853 3090.39 912.22Z" fill-rule="evenodd"/><text fill="#000000" fill-opacity="0" font-family="Arial,Arial_MSFontService,sans-serif" font-size="11.8745" x="3072.16" y="920.178">റ</text><path d="M3134.2 957.147 3184.13 957.147 3184.13 962.537 3134.2 962.537ZM3134.2 940.328 3184.13 940.328 3184.13 945.718 3134.2 945.718Z" fill-rule="evenodd"/><text fill="#000000" fill-opacity="0" font-family="Arial,Arial_MSFontService,sans-serif" font-size="22.209" x="3134.2" y="959.761">=</text><path d="M3244.77 916.579 3245.86 919.7C3239.54 921.78 3234.86 925.84 3231.82 931.878 3228.78 937.917 3227.26 945.502 3227.26 954.634 3227.26 964.091 3228.78 971.886 3231.82 978.019 3234.86 984.152 3239.5 988.259 3245.74 990.339L3244.77 993.46C3236.85 991.379 3230.79 986.901 3226.57 980.025 3222.36 973.149 3220.25 964.82 3220.25 955.04 3220.25 945.286 3222.37 936.958 3226.59 930.055 3230.82 923.151 3236.88 918.66 3244.77 916.579Z" fill-rule="evenodd"/><text fill="#000000" fill-opacity="0" font-family="Arial,Arial_MSFontService,sans-serif" font-size="76.8804" x="3220.25" y="983.85">(</text><path d="M3263.34 935.708C3264.18 935.708 3264.91 935.803 3265.55 935.992 3266.18 936.181 3266.74 936.471 3267.23 936.863 3267.72 937.255 3268.15 937.762 3268.53 938.383 3268.91 939.004 3269.27 939.849 3269.62 940.916 3269.97 941.983 3270.3 943.307 3270.61 944.888 3270.93 946.468 3271.2 948.11 3271.45 949.812L3271.85 949.812C3274.44 946.164 3276.41 943.496 3277.75 941.808 3279.08 940.119 3280.21 938.863 3281.13 938.039 3282.05 937.214 3282.94 936.634 3283.79 936.296 3284.64 935.958 3285.77 935.789 3287.17 935.789 3288.44 935.789 3289.48 935.951 3290.29 936.276L3288.67 943.611 3285.83 943.611C3285.67 942.476 3285.2 941.909 3284.41 941.909 3284.17 941.909 3283.91 941.949 3283.64 942.03 3283.37 942.112 3283.04 942.287 3282.65 942.557 3282.26 942.828 3281.69 943.354 3280.93 944.138 3280.17 944.921 3279.32 945.881 3278.38 947.015 3277.43 948.15 3276.46 949.339 3275.46 950.582L3272.7 954.027C3273.19 956.62 3273.65 958.863 3274.08 960.754 3274.51 962.645 3274.9 964.219 3275.23 965.476 3275.57 966.732 3275.87 967.725 3276.13 968.454 3276.38 969.184 3276.66 969.731 3276.96 970.096 3277.25 970.46 3277.56 970.717 3277.87 970.866 3278.18 971.014 3278.54 971.089 3278.94 971.089 3279.67 971.089 3280.38 970.805 3281.07 970.237 3281.76 969.67 3282.75 968.387 3284.05 966.387L3286.68 968.13C3284.79 970.94 3283.08 972.919 3281.56 974.067 3280.03 975.216 3278.21 975.79 3276.11 975.79 3274.94 975.79 3273.96 975.58 3273.15 975.162 3272.34 974.743 3271.63 974.074 3271.04 973.155 3270.45 972.237 3269.92 970.805 3269.46 968.86 3268.62 965.401 3268.11 962.753 3267.92 960.916L3267.51 960.916C3264.65 964.942 3262.52 967.833 3261.13 969.589 3259.74 971.345 3258.59 972.642 3257.69 973.48 3256.78 974.317 3255.9 974.905 3255.05 975.243 3254.2 975.58 3253.07 975.749 3251.67 975.749 3250.4 975.749 3249.36 975.587 3248.55 975.263L3250.17 967.927 3253.01 967.927C3253.17 969.062 3253.64 969.63 3254.42 969.63 3254.8 969.63 3255.2 969.528 3255.62 969.326 3256.04 969.123 3256.64 968.637 3257.42 967.867 3258.21 967.097 3259.29 965.888 3260.67 964.239 3262.04 962.591 3264.04 960.119 3266.66 956.823 3266.26 954.688 3265.84 952.635 3265.41 950.663 3264.97 948.69 3264.53 946.853 3264.07 945.151 3263.61 943.449 3263.23 942.334 3262.93 941.808 3262.64 941.281 3262.32 940.916 3261.98 940.713 3261.64 940.511 3261.22 940.409 3260.71 940.409 3260.14 940.409 3259.62 940.538 3259.17 940.794 3258.71 941.051 3258.21 941.497 3257.67 942.132 3257.13 942.767 3256.41 943.76 3255.52 945.111L3252.88 943.368C3254.59 940.801 3256.22 938.883 3257.79 937.613 3259.35 936.343 3261.21 935.708 3263.34 935.708Z" fill-rule="evenodd"/><text fill="#000000" fill-opacity="0" font-family="Arial,Arial_MSFontService,sans-serif" font-size="40.0815" x="3248.55" y="970.78">𝑥</text><path d="M3308.43 953.413C3310.49 953.413 3312.25 953.647 3313.71 954.113 3315.17 954.58 3316.36 955.21 3317.27 956.005 3318.19 956.799 3318.85 957.752 3319.25 958.864 3319.66 959.976 3319.86 961.177 3319.86 962.468 3319.86 963.242 3319.81 963.962 3319.7 964.627 3319.59 965.293 3319.4 965.948 3319.13 966.593 3318.87 967.239 3318.51 967.889 3318.08 968.544 3317.64 969.199 3317.09 969.894 3316.44 970.629 3315.94 971.265 3315.3 971.999 3314.5 972.833 3313.71 973.667 3312.84 974.561 3311.9 975.514 3310.95 976.467 3309.96 977.46 3308.93 978.492 3307.9 979.525 3306.9 980.548 3305.92 981.56 3304.95 982.573 3304.06 983.556 3303.24 984.509 3302.43 985.462 3301.76 986.336 3301.25 987.13L3312.27 987.13C3313.2 987.13 3313.95 987.095 3314.5 987.026 3315.06 986.956 3315.52 986.802 3315.89 986.564 3316.25 986.326 3316.57 985.964 3316.83 985.477 3317.08 984.99 3317.38 984.32 3317.72 983.466L3320.49 983.466C3320.39 984.876 3320.3 986.296 3320.21 987.726 3320.12 989.155 3320.02 990.575 3319.92 991.985L3294.7 991.985 3294.7 990.436C3295.17 989.364 3295.73 988.307 3296.36 987.264 3297 986.222 3297.71 985.164 3298.51 984.092 3299.3 983.02 3300.21 981.913 3301.22 980.771 3302.23 979.629 3303.35 978.443 3304.58 977.212 3306.45 975.345 3307.97 973.752 3309.14 972.431 3310.31 971.111 3311.24 969.934 3311.91 968.902 3312.59 967.869 3313.05 966.916 3313.3 966.042 3313.54 965.168 3313.67 964.235 3313.67 963.242 3313.67 962.23 3313.52 961.296 3313.24 960.443 3312.95 959.589 3312.54 958.864 3312 958.268 3311.46 957.673 3310.78 957.206 3309.96 956.868 3309.14 956.531 3308.19 956.362 3307.12 956.362 3305.27 956.362 3303.72 956.863 3302.47 957.866 3301.22 958.869 3300.25 960.323 3299.55 962.23L3295.65 962.23 3295.65 956.422C3298.19 955.369 3300.53 954.605 3302.66 954.128 3304.8 953.652 3306.72 953.413 3308.43 953.413Z" fill-rule="evenodd"/><text fill="#000000" fill-opacity="0" font-family="Arial,Arial_MSFontService,sans-serif" font-size="38.5718" x="3294.7" y="987.164">2</text><path d="M3334.44 965.739 3341.53 965.739C3341.91 967.63 3342.1 969.495 3342.1 971.332 3342.1 973.223 3341.77 974.952 3341.12 976.519 3340.48 978.086 3339.44 979.647 3338.02 981.2 3336.61 982.754 3334.65 984.463 3332.17 986.327L3329.98 983.855C3331.36 982.558 3332.36 981.389 3332.98 980.349 3333.6 979.309 3334.05 978.127 3334.32 976.803 3334.59 975.479 3334.72 973.817 3334.72 971.818 3334.72 969.765 3334.63 967.738 3334.44 965.739Z" fill-rule="evenodd"/><text fill="#000000" fill-opacity="0" font-family="Arial,Arial_MSFontService,sans-serif" font-size="20.5879" x="3329.98" y="983.753">,</text><path d="M3373.32 935.749C3374.43 935.749 3375.37 935.897 3376.16 936.195 3376.7 936.411 3377.24 936.769 3377.78 937.268 3378.32 937.768 3378.8 938.464 3379.22 939.356 3379.63 940.247 3380 941.247 3380.31 942.355 3380.62 943.462 3380.96 945.057 3381.34 947.137 3381.99 950.622 3382.62 954.29 3383.23 958.14 3383.84 961.99 3384.36 965.563 3384.79 968.86 3387.41 965.077 3389.63 961.375 3391.45 957.755 3393.28 954.135 3394.59 950.987 3395.39 948.312 3396.18 945.637 3396.58 943.462 3396.58 941.787 3396.58 940.517 3396.31 939.653 3395.77 939.194 3395.23 938.734 3394.31 938.464 3393.01 938.383L3393.42 936.397 3404.08 936.397 3405.17 938.424C3403.12 944.043 3400.34 950.055 3396.82 956.458 3393.37 962.726 3389.41 968.968 3384.95 975.182 3380.68 981.099 3377.13 985.381 3374.29 988.029 3372.32 989.839 3370.41 991.136 3368.58 991.92 3367.12 992.514 3365.56 992.811 3363.92 992.811 3363.35 992.811 3362.69 992.764 3361.95 992.669 3361.21 992.575 3360.63 992.446 3360.23 992.284L3361.97 984.422 3365.17 984.422C3365.17 986.151 3365.77 987.016 3366.96 987.016 3368.52 987.016 3370.35 986.036 3372.43 984.078 3374.51 982.119 3376.95 979.167 3379.76 975.222 3378.98 970.494 3377.91 964.793 3376.56 958.12 3375.13 950.987 3374.18 946.57 3373.72 944.867 3373.16 942.814 3372.56 941.504 3371.94 940.936 3371.56 940.585 3371.09 940.409 3370.52 940.409 3369.66 940.409 3368.85 940.761 3368.09 941.463 3367.33 942.166 3366.4 943.381 3365.29 945.111L3362.66 943.368C3364.52 940.585 3366.27 938.619 3367.89 937.471 3369.51 936.323 3371.32 935.749 3373.32 935.749Z" fill-rule="evenodd"/><text fill="#000000" fill-opacity="0" font-family="Arial,Arial_MSFontService,sans-serif" font-size="57.0625" x="3360.23" y="985.678">𝑦</text><path d="M3421.63 953.413C3423.7 953.413 3425.46 953.647 3426.92 954.113 3428.38 954.58 3429.57 955.21 3430.48 956.005 3431.39 956.799 3432.05 957.752 3432.46 958.864 3432.87 959.976 3433.07 961.177 3433.07 962.468 3433.07 963.242 3433.02 963.962 3432.91 964.627 3432.8 965.293 3432.61 965.948 3432.34 966.593 3432.07 967.239 3431.72 967.889 3431.28 968.544 3430.85 969.199 3430.3 969.894 3429.65 970.629 3429.15 971.265 3428.5 971.999 3427.71 972.833 3426.92 973.667 3426.05 974.561 3425.1 975.514 3424.16 976.467 3423.17 977.46 3422.14 978.492 3421.11 979.525 3420.11 980.548 3419.13 981.56 3418.16 982.573 3417.27 983.556 3416.45 984.509 3415.64 985.462 3414.97 986.336 3414.46 987.13L3425.48 987.13C3426.41 987.13 3427.15 987.095 3427.71 987.026 3428.27 986.956 3428.73 986.802 3429.1 986.564 3429.46 986.326 3429.78 985.964 3430.03 985.477 3430.29 984.99 3430.59 984.32 3430.93 983.466L3433.7 983.466C3433.6 984.876 3433.5 986.296 3433.41 987.726 3433.32 989.155 3433.23 990.575 3433.13 991.985L3407.9 991.985 3407.9 990.436C3408.38 989.364 3408.94 988.307 3409.57 987.264 3410.21 986.222 3410.92 985.164 3411.72 984.092 3412.51 983.02 3413.41 981.913 3414.43 980.771 3415.44 979.629 3416.56 978.443 3417.79 977.212 3419.66 975.345 3421.18 973.752 3422.35 972.431 3423.52 971.111 3424.44 969.934 3425.12 968.902 3425.79 967.869 3426.26 966.916 3426.5 966.042 3426.75 965.168 3426.88 964.235 3426.88 963.242 3426.88 962.23 3426.73 961.296 3426.44 960.443 3426.16 959.589 3425.74 958.864 3425.21 958.268 3424.67 957.673 3423.99 957.206 3423.17 956.868 3422.34 956.531 3421.4 956.362 3420.32 956.362 3418.48 956.362 3416.93 956.863 3415.68 957.866 3414.43 958.869 3413.45 960.323 3412.76 962.23L3408.86 962.23 3408.86 956.422C3411.4 955.369 3413.74 954.605 3415.87 954.128 3418.01 953.652 3419.93 953.413 3421.63 953.413Z" fill-rule="evenodd"/><text fill="#000000" fill-opacity="0" font-family="Arial,Arial_MSFontService,sans-serif" font-size="38.5718" x="3407.9" y="987.164">2</text><path d="M3444.85 916.579C3452.74 918.66 3458.8 923.151 3463.03 930.055 3467.25 936.958 3469.37 945.286 3469.37 955.04 3469.37 964.82 3467.26 973.149 3463.05 980.025 3458.83 986.901 3452.77 991.379 3444.85 993.46L3443.88 990.339C3450.12 988.259 3454.76 984.152 3457.8 978.019 3460.84 971.886 3462.36 964.091 3462.36 954.634 3462.36 945.502 3460.84 937.917 3457.82 931.878 3454.79 925.84 3450.1 921.78 3443.76 919.7Z" fill-rule="evenodd"/><text fill="#000000" fill-opacity="0" font-family="Arial,Arial_MSFontService,sans-serif" font-size="76.8804" x="3443.76" y="983.85">)</text><path d="M2441.66 1076.91C2440.39 1082.77 2439.76 1087.7 2439.76 1091.7 2439.76 1094.73 2440.21 1096.95 2441.13 1098.37 2442.05 1099.79 2443.54 1100.49 2445.59 1100.49 2448.62 1100.49 2451.49 1098.46 2454.2 1094.4 2456.92 1090.33 2459.22 1084.5 2461.11 1076.91ZM2458.28 1049.59C2455.11 1049.59 2452.19 1051.59 2449.5 1055.59 2446.81 1059.59 2444.52 1065.32 2442.63 1072.77L2462.05 1072.77C2463.31 1067.07 2463.95 1062.17 2463.95 1058.06 2463.95 1055.23 2463.49 1053.1 2462.57 1051.7 2461.65 1050.3 2460.22 1049.59 2458.28 1049.59ZM2458.76 1046.31C2466.6 1046.31 2470.52 1051.28 2470.52 1061.22 2470.52 1064.03 2470.2 1067.39 2469.56 1071.3 2468.93 1075.2 2467.92 1079.18 2466.54 1083.23 2465.17 1087.28 2463.42 1090.87 2461.32 1093.99 2459.21 1097.11 2456.78 1099.52 2454.02 1101.22 2451.26 1102.93 2448.29 1103.78 2445.1 1103.78 2441.08 1103.78 2438.08 1102.55 2436.11 1100.09 2434.14 1097.63 2433.15 1093.94 2433.15 1089.03 2433.15 1086.35 2433.45 1083.05 2434.04 1079.14 2434.64 1075.22 2435.61 1071.21 2436.98 1067.12 2438.34 1063.03 2440.1 1059.39 2442.25 1056.22 2444.4 1053.04 2446.87 1050.6 2449.66 1048.88 2452.46 1047.17 2455.49 1046.31 2458.76 1046.31Z" fill-rule="evenodd"/><text fill="#000000" fill-opacity="0" font-family="Arial,Arial_MSFontService,sans-serif" font-size="57.4678" x="2433.15" y="1096.59">𝜃</text><path d="M2393.56 1115.86 2403.62 1116.36 2413.06 1117.94 2421.57 1120.36 2429.15 1123.66 2436.37 1130.6 2434.78 1132.25 2427.71 1125.45 2428.04 1125.68 2420.73 1122.49 2420.88 1122.54 2412.5 1120.16 2412.62 1120.19 2403.31 1118.63 2403.44 1118.64 2393.44 1118.14ZM2440.82 1122.62 2443 1143 2425.39 1132.52Z"/></g></svg>