<svg width="1466" height="673" xmlns="http://www.w3.org/2000/svg" xmlns:xlink="http://www.w3.org/1999/xlink" overflow="hidden"><defs><clipPath id="clip0"><rect x="2180" y="626" width="1466" height="673"/></clipPath></defs><g clip-path="url(#clip0)" transform="translate(-2180 -626)"><path d="M1.53248-4.92325 636.917 192.856 633.852 202.702-1.53248 4.92325ZM638.123 171.63 660 205.441 622.798 220.863Z" transform="matrix(1 0 0 -1 2374 1169.44)"/><path d="M5.08-0.883475 49.1918 252.76 39.0319 254.527-5.08 0.883475ZM68.6283 244.146 48.5292 279.044 17.8284 252.981Z" transform="matrix(1 0 0 -1 2374 1169.04)"/><path d="M2429.36 811.82C2431.09 811.82 2432.46 812.401 2433.46 813.563 2434.46 814.725 2434.96 816.292 2434.96 818.264 2434.96 820.399 2434.54 823.06 2433.7 826.248L2431.92 833.259C2431.46 835.043 2431.13 836.434 2430.93 837.434 2430.72 838.433 2430.57 839.298 2430.48 840.028 2430.39 840.757 2430.34 841.365 2430.34 841.851 2430.34 843.716 2430.65 845.06 2431.27 845.884 2431.89 846.708 2432.9 847.12 2434.31 847.12 2435.44 847.12 2436.67 846.667 2437.98 845.762 2439.29 844.857 2440.68 843.493 2442.15 841.669 2443.62 839.845 2444.81 838.075 2445.7 836.36 2446.59 834.644 2447.32 832.53 2447.89 830.017L2451.74 812.469 2458.75 812.469 2452.83 838.163C2452.24 840.757 2451.94 842.756 2451.94 844.161 2451.94 845.242 2452.11 846.026 2452.47 846.512 2452.82 846.998 2453.37 847.241 2454.13 847.241 2454.94 847.241 2455.8 846.91 2456.72 846.248 2457.64 845.587 2458.94 844.323 2460.61 842.459L2462.92 844.729C2460.46 847.349 2458.37 849.2 2456.64 850.281 2454.91 851.362 2453.07 851.902 2451.13 851.902 2449.45 851.902 2448.12 851.348 2447.12 850.24 2446.12 849.133 2445.62 847.66 2445.62 845.823 2445.62 844.364 2445.94 842.77 2446.59 841.041L2446.1 840.879C2443.43 844.634 2440.9 847.404 2438.5 849.187 2436.11 850.97 2433.66 851.862 2431.15 851.862 2428.64 851.862 2426.7 851.139 2425.35 849.693 2424 848.248 2423.33 846.242 2423.33 843.675 2423.33 841.973 2423.72 839.555 2424.5 836.421L2427.14 825.802C2427.87 822.857 2428.23 820.777 2428.23 819.561 2428.23 818.48 2428.05 817.697 2427.7 817.211 2427.35 816.724 2426.8 816.481 2426.04 816.481 2425.2 816.481 2424.32 816.826 2423.39 817.515 2422.46 818.204 2421.18 819.453 2419.56 821.263L2417.25 818.994C2419.54 816.67 2421.27 815.076 2422.43 814.212 2423.6 813.347 2424.71 812.732 2425.78 812.368 2426.85 812.003 2428.04 811.82 2429.36 811.82Z" fill-rule="evenodd"/><text fill="#000000" fill-opacity="0" font-family="Arial,Arial_MSFontService,sans-serif" font-size="40.0815" x="2417.25" y="846.892">𝑢</text><path d="M2453.82 785.924 2464 794.718 2464 797.798 2444.62 797.798 2433.44 797.798 2420.31 797.798 2420.31 793.988 2433.44 793.988 2444.62 793.988 2458.16 793.988 2451.68 788.355Z" fill-rule="evenodd"/><path d="M2494.87 833.259 2544.8 833.259 2544.8 838.65 2494.87 838.65ZM2494.87 816.441 2544.8 816.441 2544.8 821.831 2494.87 821.831Z" fill-rule="evenodd"/><text fill="#000000" fill-opacity="0" font-family="Arial,Arial_MSFontService,sans-serif" font-size="22.209" x="2494.87" y="835.873">=</text><path d="M2605.43 792.692 2606.53 795.812C2600.21 797.893 2595.53 801.952 2592.49 807.991 2589.45 814.029 2587.93 821.615 2587.93 830.747 2587.93 840.203 2589.45 847.998 2592.49 854.131 2595.53 860.264 2600.17 864.371 2606.41 866.451L2605.43 869.572C2597.52 867.492 2591.45 863.013 2587.24 856.137 2583.02 849.261 2580.92 840.933 2580.92 831.152 2580.92 821.398 2583.03 813.07 2587.26 806.167 2591.49 799.264 2597.55 794.772 2605.43 792.692Z" fill-rule="evenodd"/><text fill="#000000" fill-opacity="0" font-family="Arial,Arial_MSFontService,sans-serif" font-size="76.8804" x="2580.92" y="859.962">(</text><path d="M2624 811.82C2624.84 811.82 2625.58 811.915 2626.21 812.104 2626.85 812.293 2627.41 812.584 2627.89 812.976 2628.38 813.367 2628.81 813.874 2629.19 814.495 2629.57 815.117 2629.93 815.961 2630.29 817.028 2630.64 818.095 2630.97 819.419 2631.28 821 2631.59 822.581 2631.87 824.222 2632.11 825.924L2632.51 825.924C2635.11 822.277 2637.07 819.609 2638.41 817.92 2639.75 816.231 2640.88 814.975 2641.8 814.151 2642.71 813.327 2643.6 812.746 2644.45 812.408 2645.3 812.07 2646.43 811.902 2647.83 811.902 2649.1 811.902 2650.14 812.064 2650.95 812.388L2649.33 819.723 2646.5 819.723C2646.33 818.589 2645.86 818.021 2645.08 818.021 2644.83 818.021 2644.58 818.062 2644.31 818.143 2644.04 818.224 2643.71 818.399 2643.32 818.67 2642.92 818.94 2642.35 819.467 2641.59 820.25 2640.84 821.034 2639.99 821.993 2639.04 823.128 2638.09 824.262 2637.12 825.451 2636.12 826.694L2633.37 830.139C2633.85 832.733 2634.31 834.975 2634.74 836.866 2635.18 838.758 2635.56 840.331 2635.9 841.588 2636.24 842.844 2636.53 843.837 2636.79 844.567 2637.05 845.296 2637.32 845.843 2637.62 846.208 2637.92 846.573 2638.22 846.829 2638.53 846.978 2638.84 847.127 2639.2 847.201 2639.61 847.201 2640.34 847.201 2641.05 846.917 2641.73 846.35 2642.42 845.782 2643.42 844.499 2644.71 842.5L2647.35 844.242C2645.46 847.052 2643.75 849.031 2642.22 850.18 2640.69 851.328 2638.88 851.902 2636.77 851.902 2635.61 851.902 2634.62 851.693 2633.81 851.274 2633 850.855 2632.3 850.186 2631.7 849.268 2631.11 848.349 2630.58 846.917 2630.12 844.972 2629.29 841.514 2628.77 838.866 2628.58 837.029L2628.18 837.029C2625.31 841.054 2623.19 843.945 2621.8 845.701 2620.4 847.458 2619.26 848.754 2618.35 849.592 2617.45 850.43 2616.57 851.017 2615.72 851.355 2614.86 851.693 2613.74 851.862 2612.33 851.862 2611.06 851.862 2610.02 851.699 2609.21 851.375L2610.83 844.04 2613.67 844.04C2613.83 845.174 2614.3 845.742 2615.09 845.742 2615.47 845.742 2615.86 845.641 2616.28 845.438 2616.7 845.235 2617.3 844.749 2618.09 843.979 2618.87 843.209 2619.95 842 2621.33 840.352 2622.71 838.704 2624.71 836.231 2627.33 832.935 2626.92 830.801 2626.5 828.747 2626.07 826.775 2625.64 824.803 2625.19 822.966 2624.73 821.263 2624.27 819.561 2623.9 818.447 2623.6 817.92 2623.3 817.393 2622.98 817.028 2622.65 816.826 2622.31 816.623 2621.88 816.522 2621.37 816.522 2620.8 816.522 2620.29 816.65 2619.83 816.907 2619.37 817.163 2618.87 817.609 2618.33 818.244 2617.79 818.879 2617.07 819.872 2616.18 821.223L2613.55 819.48C2615.25 816.913 2616.88 814.995 2618.45 813.725 2620.02 812.455 2621.87 811.82 2624 811.82Z" fill-rule="evenodd"/><text fill="#000000" fill-opacity="0" font-family="Arial,Arial_MSFontService,sans-serif" font-size="40.0815" x="2609.21" y="846.892">𝑥</text><path d="M2669.51 829.734 2671.33 829.734C2671.29 830.826 2671.26 831.804 2671.24 832.668 2671.22 833.532 2671.2 834.371 2671.19 835.185 2671.18 835.999 2671.18 836.803 2671.18 837.597L2671.18 860.234C2671.18 860.85 2671.2 861.381 2671.24 861.828 2671.28 862.274 2671.34 862.652 2671.43 862.959 2671.52 863.267 2671.64 863.53 2671.79 863.749 2671.94 863.967 2672.11 864.156 2672.31 864.315 2672.55 864.553 2672.87 864.737 2673.26 864.866 2673.66 864.995 2674.17 865.104 2674.78 865.193 2675.4 865.283 2676.14 865.352 2677 865.402 2677.87 865.451 2678.9 865.486 2680.11 865.506L2680.11 868.097 2656.49 868.097 2656.49 865.506C2657.67 865.466 2658.66 865.422 2659.47 865.372 2660.29 865.322 2660.98 865.253 2661.56 865.164 2662.13 865.074 2662.6 864.975 2662.94 864.866 2663.29 864.756 2663.59 864.622 2663.85 864.464 2664.13 864.285 2664.37 864.091 2664.57 863.883 2664.77 863.674 2664.92 863.411 2665.04 863.093 2665.16 862.776 2665.26 862.389 2665.33 861.932 2665.4 861.475 2665.43 860.909 2665.43 860.234L2665.43 838.878C2665.43 838.104 2665.28 837.558 2664.98 837.24 2664.69 836.922 2664.26 836.763 2663.7 836.763 2663.09 836.763 2662.17 837.081 2660.96 837.716 2659.75 838.352 2658.18 839.295 2656.26 840.546 2656 840.089 2655.76 839.633 2655.54 839.176 2655.32 838.719 2655.09 838.253 2654.86 837.776 2657.32 836.426 2659.76 835.081 2662.17 833.74 2664.58 832.4 2667.03 831.064 2669.51 829.734Z" fill-rule="evenodd"/><text fill="#000000" fill-opacity="0" font-family="Arial,Arial_MSFontService,sans-serif" font-size="38.3633" x="2654.86" y="863.302">1</text><path d="M2693.2 841.851 2700.29 841.851C2700.67 843.743 2700.86 845.607 2700.86 847.444 2700.86 849.335 2700.53 851.064 2699.89 852.632 2699.24 854.199 2698.2 855.759 2696.79 857.312 2695.37 858.866 2693.42 860.575 2690.93 862.439L2688.74 859.967C2690.12 858.67 2691.12 857.502 2691.74 856.461 2692.36 855.421 2692.81 854.239 2693.08 852.915 2693.35 851.591 2693.48 849.93 2693.48 847.93 2693.48 845.877 2693.39 843.851 2693.2 841.851Z" fill-rule="evenodd"/><text fill="#000000" fill-opacity="0" font-family="Arial,Arial_MSFontService,sans-serif" font-size="20.5879" x="2688.74" y="859.866">,</text><path d="M2732.08 811.861C2733.19 811.861 2734.13 812.01 2734.92 812.307 2735.46 812.523 2736 812.881 2736.54 813.381 2737.08 813.881 2737.56 814.576 2737.98 815.468 2738.4 816.36 2738.76 817.359 2739.07 818.467 2739.38 819.575 2739.73 821.169 2740.1 823.249 2740.75 826.735 2741.38 830.402 2741.99 834.252 2742.6 838.102 2743.12 841.676 2743.55 844.972 2746.17 841.189 2748.39 837.488 2750.22 833.867 2752.04 830.247 2753.35 827.099 2754.15 824.424 2754.94 821.75 2755.34 819.575 2755.34 817.9 2755.34 816.63 2755.07 815.765 2754.53 815.306 2753.99 814.847 2753.07 814.576 2751.78 814.495L2752.18 812.509 2762.84 812.509 2763.93 814.536C2761.88 820.156 2759.1 826.167 2755.59 832.57 2752.13 838.839 2748.17 845.08 2743.71 851.294 2739.44 857.211 2735.89 861.494 2733.05 864.141 2731.08 865.952 2729.18 867.248 2727.34 868.032 2725.88 868.626 2724.33 868.924 2722.68 868.924 2722.11 868.924 2721.46 868.876 2720.71 868.782 2719.97 868.687 2719.4 868.559 2718.99 868.397L2720.73 860.534 2723.93 860.534C2723.93 862.264 2724.53 863.128 2725.72 863.128 2727.28 863.128 2729.11 862.149 2731.19 860.19 2733.27 858.231 2735.71 855.279 2738.52 851.335 2737.74 846.606 2736.67 840.906 2735.32 834.232 2733.89 827.099 2732.94 822.682 2732.49 820.98 2731.92 818.926 2731.32 817.616 2730.7 817.049 2730.32 816.697 2729.85 816.522 2729.28 816.522 2728.42 816.522 2727.61 816.873 2726.85 817.575 2726.1 818.278 2725.16 819.494 2724.06 821.223L2721.42 819.48C2723.29 816.697 2725.03 814.732 2726.65 813.583 2728.27 812.435 2730.08 811.861 2732.08 811.861Z" fill-rule="evenodd"/><text fill="#000000" fill-opacity="0" font-family="Arial,Arial_MSFontService,sans-serif" font-size="57.0625" x="2718.99" y="861.791">𝑦</text><path d="M2780.82 829.734 2782.63 829.734C2782.59 830.826 2782.56 831.804 2782.54 832.668 2782.52 833.532 2782.51 834.371 2782.5 835.185 2782.49 835.999 2782.49 836.803 2782.49 837.597L2782.49 860.234C2782.49 860.85 2782.5 861.381 2782.54 861.828 2782.58 862.274 2782.65 862.652 2782.74 862.959 2782.83 863.267 2782.95 863.53 2783.1 863.749 2783.24 863.967 2783.42 864.156 2783.62 864.315 2783.86 864.553 2784.17 864.737 2784.57 864.866 2784.97 864.995 2785.47 865.104 2786.09 865.193 2786.7 865.283 2787.44 865.352 2788.31 865.402 2789.17 865.451 2790.21 865.486 2791.42 865.506L2791.42 868.097 2767.8 868.097 2767.8 865.506C2768.97 865.466 2769.97 865.422 2770.78 865.372 2771.59 865.322 2772.29 865.253 2772.86 865.164 2773.44 865.074 2773.9 864.975 2774.25 864.866 2774.6 864.756 2774.9 864.622 2775.16 864.464 2775.44 864.285 2775.67 864.091 2775.87 863.883 2776.07 863.674 2776.23 863.411 2776.35 863.093 2776.47 862.776 2776.56 862.389 2776.63 861.932 2776.7 861.475 2776.74 860.909 2776.74 860.234L2776.74 838.878C2776.74 838.104 2776.59 837.558 2776.29 837.24 2775.99 836.922 2775.56 836.763 2775.01 836.763 2774.39 836.763 2773.48 837.081 2772.27 837.716 2771.06 838.352 2769.49 839.295 2767.56 840.546 2767.3 840.089 2767.07 839.633 2766.85 839.176 2766.63 838.719 2766.4 838.253 2766.16 837.776 2768.62 836.426 2771.06 835.081 2773.48 833.74 2775.89 832.4 2778.33 831.064 2780.82 829.734Z" fill-rule="evenodd"/><text fill="#000000" fill-opacity="0" font-family="Arial,Arial_MSFontService,sans-serif" font-size="38.3633" x="2766.16" y="863.302">1</text><path d="M2801.71 792.692C2809.6 794.772 2815.66 799.264 2819.89 806.167 2824.11 813.07 2826.23 821.398 2826.23 831.152 2826.23 840.933 2824.12 849.261 2819.91 856.137 2815.69 863.013 2809.63 867.492 2801.71 869.572L2800.74 866.451C2806.98 864.371 2811.62 860.264 2814.66 854.131 2817.7 847.998 2819.22 840.203 2819.22 830.747 2819.22 821.615 2817.7 814.029 2814.68 807.991 2811.65 801.952 2806.96 797.893 2800.61 795.812Z" fill-rule="evenodd"/><text fill="#000000" fill-opacity="0" font-family="Arial,Arial_MSFontService,sans-serif" font-size="76.8804" x="2800.61" y="859.962">)</text><path d="M3096.53 938.548C3098.48 938.548 3099.88 939.055 3100.75 940.068 3101.61 941.081 3102.05 942.439 3102.05 944.141 3102.05 945.438 3101.82 946.924 3101.36 948.599 3100.9 950.274 3100.25 952.044 3099.41 953.908 3098.57 955.772 3097.57 957.684 3096.41 959.643 3095.25 961.601 3093.97 963.506 3092.56 965.357 3091.16 967.208 3089.66 968.95 3088.06 970.585 3086.47 972.22 3084.81 973.645 3083.1 974.861 3081.38 976.076 3079.64 977.042 3077.87 977.758 3076.1 978.474 3074.34 978.832 3072.58 978.832 3071.8 978.832 3071.14 978.636 3070.62 978.245 3070.09 977.853 3069.66 977.299 3069.34 976.583 3069.02 975.867 3068.79 975.023 3068.65 974.05 3068.52 973.077 3068.45 972.01 3068.45 970.848 3068.45 969.308 3068.54 967.66 3068.73 965.904 3068.92 964.148 3069.16 962.378 3069.46 960.595L3071.16 949.369C3071.27 948.721 3071.36 948.106 3071.43 947.525 3071.49 946.944 3071.53 946.519 3071.53 946.248 3071.53 945.411 3071.39 944.722 3071.12 944.181 3070.85 943.641 3070.39 943.371 3069.75 943.371 3069.23 943.371 3068.68 943.526 3068.08 943.837 3067.49 944.148 3066.89 944.546 3066.28 945.033 3065.67 945.519 3065.08 946.039 3064.52 946.593 3063.95 947.147 3063.42 947.667 3062.94 948.153L3060.99 945.884C3061.83 945.019 3062.72 944.161 3063.67 943.31 3064.61 942.459 3065.61 941.689 3066.67 941 3067.72 940.311 3068.83 939.757 3069.99 939.338 3071.15 938.92 3072.34 938.71 3073.55 938.71 3074.58 938.71 3075.42 938.879 3076.07 939.217 3076.72 939.555 3077.22 940 3077.59 940.554 3077.95 941.108 3078.2 941.716 3078.34 942.378 3078.47 943.04 3078.54 943.695 3078.54 944.344 3078.54 944.722 3078.53 945.087 3078.5 945.438 3078.47 945.789 3078.43 946.113 3078.38 946.41L3076.11 961.081C3075.86 962.621 3075.66 964.128 3075.5 965.6 3075.34 967.073 3075.26 968.376 3075.26 969.511 3075.26 970.646 3075.32 971.564 3075.46 972.267 3075.59 972.969 3075.85 973.321 3076.23 973.321 3077.12 973.321 3078.24 972.963 3079.59 972.247 3080.94 971.531 3082.36 970.544 3083.85 969.288 3085.33 968.032 3086.82 966.546 3088.31 964.83 3089.79 963.115 3091.13 961.257 3092.32 959.258 3093.51 957.258 3094.47 955.151 3095.22 952.935 3095.96 950.72 3096.33 948.491 3096.33 946.248 3096.33 945.276 3096.12 944.526 3095.7 943.999 3095.28 943.472 3094.63 943.209 3093.74 943.209 3092.6 943.209 3091.56 943.648 3090.6 944.526 3089.64 945.404 3088.64 946.559 3087.62 947.991L3085.31 945.924C3085.96 944.951 3086.72 944.019 3087.6 943.128 3088.48 942.236 3089.41 941.453 3090.39 940.777 3091.38 940.102 3092.4 939.561 3093.45 939.156 3094.51 938.751 3095.53 938.548 3096.53 938.548Z" fill-rule="evenodd"/><text fill="#000000" fill-opacity="0" font-family="Arial,Arial_MSFontService,sans-serif" font-size="40.2842" x="3060.99" y="973.797">𝑣</text><path d="M3092.54 912.79 3102.71 921.585 3102.71 924.665 3072.16 924.665 3072.16 920.855 3096.88 920.855 3090.39 915.222Z" fill-rule="evenodd"/><text fill="#000000" fill-opacity="0" font-family="Arial,Arial_MSFontService,sans-serif" font-size="11.8745" x="3072.16" y="923.181">റ</text><path d="M3134.2 960.149 3184.13 960.149 3184.13 965.539 3134.2 965.539ZM3134.2 943.33 3184.13 943.33 3184.13 948.721 3134.2 948.721Z" fill-rule="evenodd"/><text fill="#000000" fill-opacity="0" font-family="Arial,Arial_MSFontService,sans-serif" font-size="22.209" x="3134.2" y="962.763">=</text><path d="M3244.77 919.581 3245.86 922.702C3239.54 924.782 3234.86 928.842 3231.82 934.88 3228.78 940.919 3227.26 948.504 3227.26 957.637 3227.26 967.093 3228.78 974.888 3231.82 981.021 3234.86 987.154 3239.5 991.261 3245.74 993.341L3244.77 996.462C3236.85 994.381 3230.79 989.903 3226.57 983.027 3222.36 976.151 3220.25 967.822 3220.25 958.042 3220.25 948.288 3222.37 939.96 3226.59 933.057 3230.82 926.154 3236.88 921.662 3244.77 919.581Z" fill-rule="evenodd"/><text fill="#000000" fill-opacity="0" font-family="Arial,Arial_MSFontService,sans-serif" font-size="76.8804" x="3220.25" y="986.852">(</text><path d="M3263.34 938.71C3264.18 938.71 3264.91 938.805 3265.55 938.994 3266.18 939.183 3266.74 939.474 3267.23 939.865 3267.72 940.257 3268.15 940.764 3268.53 941.385 3268.91 942.006 3269.27 942.851 3269.62 943.918 3269.97 944.985 3270.3 946.309 3270.61 947.89 3270.93 949.47 3271.2 951.112 3271.45 952.814L3271.85 952.814C3274.44 949.166 3276.41 946.498 3277.75 944.81 3279.08 943.121 3280.21 941.865 3281.13 941.041 3282.05 940.217 3282.94 939.636 3283.79 939.298 3284.64 938.96 3285.77 938.791 3287.17 938.791 3288.44 938.791 3289.48 938.953 3290.29 939.278L3288.67 946.613 3285.83 946.613C3285.67 945.478 3285.2 944.911 3284.41 944.911 3284.17 944.911 3283.91 944.951 3283.64 945.033 3283.37 945.114 3283.04 945.289 3282.65 945.559 3282.26 945.83 3281.69 946.356 3280.93 947.14 3280.17 947.923 3279.32 948.883 3278.38 950.017 3277.43 951.152 3276.46 952.341 3275.46 953.584L3272.7 957.029C3273.19 959.622 3273.65 961.865 3274.08 963.756 3274.51 965.647 3274.9 967.221 3275.23 968.478 3275.57 969.734 3275.87 970.727 3276.13 971.456 3276.38 972.186 3276.66 972.733 3276.96 973.098 3277.25 973.462 3277.56 973.719 3277.87 973.868 3278.18 974.016 3278.54 974.091 3278.94 974.091 3279.67 974.091 3280.38 973.807 3281.07 973.24 3281.76 972.672 3282.75 971.389 3284.05 969.389L3286.68 971.132C3284.79 973.942 3283.08 975.921 3281.56 977.069 3280.03 978.218 3278.21 978.792 3276.11 978.792 3274.94 978.792 3273.96 978.582 3273.15 978.164 3272.34 977.745 3271.63 977.076 3271.04 976.158 3270.45 975.239 3269.92 973.807 3269.46 971.862 3268.62 968.403 3268.11 965.755 3267.92 963.918L3267.51 963.918C3264.65 967.944 3262.52 970.835 3261.13 972.591 3259.74 974.347 3258.59 975.644 3257.69 976.482 3256.78 977.319 3255.9 977.907 3255.05 978.245 3254.2 978.582 3253.07 978.751 3251.67 978.751 3250.4 978.751 3249.36 978.589 3248.55 978.265L3250.17 970.93 3253.01 970.93C3253.17 972.064 3253.64 972.632 3254.42 972.632 3254.8 972.632 3255.2 972.53 3255.62 972.328 3256.04 972.125 3256.64 971.639 3257.42 970.869 3258.21 970.099 3259.29 968.89 3260.67 967.242 3262.04 965.593 3264.04 963.121 3266.66 959.825 3266.26 957.691 3265.84 955.637 3265.41 953.665 3264.97 951.693 3264.53 949.855 3264.07 948.153 3263.61 946.451 3263.23 945.336 3262.93 944.81 3262.64 944.283 3262.32 943.918 3261.98 943.715 3261.64 943.513 3261.22 943.411 3260.71 943.411 3260.14 943.411 3259.62 943.54 3259.17 943.796 3258.71 944.053 3258.21 944.499 3257.67 945.134 3257.13 945.769 3256.41 946.762 3255.52 948.113L3252.88 946.37C3254.59 943.803 3256.22 941.885 3257.79 940.615 3259.35 939.345 3261.21 938.71 3263.34 938.71Z" fill-rule="evenodd"/><text fill="#000000" fill-opacity="0" font-family="Arial,Arial_MSFontService,sans-serif" font-size="40.0815" x="3248.55" y="973.782">𝑥</text><path d="M3308.43 956.415C3310.49 956.415 3312.25 956.649 3313.71 957.115 3315.17 957.582 3316.36 958.212 3317.27 959.007 3318.19 959.801 3318.85 960.754 3319.25 961.866 3319.66 962.978 3319.86 964.179 3319.86 965.47 3319.86 966.244 3319.81 966.964 3319.7 967.629 3319.59 968.295 3319.4 968.95 3319.13 969.595 3318.87 970.241 3318.51 970.891 3318.08 971.546 3317.64 972.201 3317.09 972.896 3316.44 973.631 3315.94 974.267 3315.3 975.001 3314.5 975.835 3313.71 976.669 3312.84 977.563 3311.9 978.516 3310.95 979.469 3309.96 980.462 3308.93 981.494 3307.9 982.527 3306.9 983.55 3305.92 984.562 3304.95 985.575 3304.06 986.558 3303.24 987.511 3302.43 988.464 3301.76 989.338 3301.25 990.132L3312.27 990.132C3313.2 990.132 3313.95 990.097 3314.5 990.028 3315.06 989.958 3315.52 989.805 3315.89 989.566 3316.25 989.328 3316.57 988.966 3316.83 988.479 3317.08 987.993 3317.38 987.322 3317.72 986.469L3320.49 986.469C3320.39 987.878 3320.3 989.298 3320.21 990.728 3320.12 992.158 3320.02 993.577 3319.92 994.987L3294.7 994.987 3294.7 993.438C3295.17 992.366 3295.73 991.309 3296.36 990.266 3297 989.224 3297.71 988.166 3298.51 987.094 3299.3 986.022 3300.21 984.915 3301.22 983.773 3302.23 982.631 3303.35 981.445 3304.58 980.214 3306.45 978.347 3307.97 976.754 3309.14 975.433 3310.31 974.113 3311.24 972.936 3311.91 971.904 3312.59 970.871 3313.05 969.918 3313.3 969.044 3313.54 968.171 3313.67 967.237 3313.67 966.244 3313.67 965.232 3313.52 964.298 3313.24 963.445 3312.95 962.591 3312.54 961.866 3312 961.27 3311.46 960.675 3310.78 960.208 3309.96 959.87 3309.14 959.533 3308.19 959.364 3307.12 959.364 3305.27 959.364 3303.72 959.865 3302.47 960.868 3301.22 961.871 3300.25 963.326 3299.55 965.232L3295.65 965.232 3295.65 959.424C3298.19 958.371 3300.53 957.607 3302.66 957.13 3304.8 956.654 3306.72 956.415 3308.43 956.415Z" fill-rule="evenodd"/><text fill="#000000" fill-opacity="0" font-family="Arial,Arial_MSFontService,sans-serif" font-size="38.5718" x="3294.7" y="990.166">2</text><path d="M3334.44 968.741 3341.53 968.741C3341.91 970.632 3342.1 972.497 3342.1 974.334 3342.1 976.225 3341.77 977.954 3341.12 979.521 3340.48 981.088 3339.44 982.649 3338.02 984.202 3336.61 985.756 3334.65 987.465 3332.17 989.329L3329.98 986.857C3331.36 985.56 3332.36 984.391 3332.98 983.351 3333.6 982.311 3334.05 981.129 3334.32 979.805 3334.59 978.481 3334.72 976.819 3334.72 974.82 3334.72 972.767 3334.63 970.74 3334.44 968.741Z" fill-rule="evenodd"/><text fill="#000000" fill-opacity="0" font-family="Arial,Arial_MSFontService,sans-serif" font-size="20.5879" x="3329.98" y="986.755">,</text><path d="M3373.32 938.751C3374.43 938.751 3375.37 938.899 3376.16 939.197 3376.7 939.413 3377.24 939.771 3377.78 940.271 3378.32 940.77 3378.8 941.466 3379.22 942.358 3379.63 943.249 3380 944.249 3380.31 945.357 3380.62 946.464 3380.96 948.059 3381.34 950.139 3381.99 953.624 3382.62 957.292 3383.23 961.142 3383.84 964.992 3384.36 968.565 3384.79 971.862 3387.41 968.079 3389.63 964.378 3391.45 960.757 3393.28 957.137 3394.59 953.989 3395.39 951.314 3396.18 948.639 3396.58 946.464 3396.58 944.789 3396.58 943.52 3396.31 942.655 3395.77 942.196 3395.23 941.736 3394.31 941.466 3393.01 941.385L3393.42 939.399 3404.08 939.399 3405.17 941.426C3403.12 947.045 3400.34 953.057 3396.82 959.46 3393.37 965.729 3389.41 971.97 3384.95 978.184 3380.68 984.101 3377.13 988.383 3374.29 991.031 3372.32 992.841 3370.41 994.138 3368.58 994.922 3367.12 995.516 3365.56 995.813 3363.92 995.813 3363.35 995.813 3362.69 995.766 3361.95 995.671 3361.21 995.577 3360.63 995.449 3360.23 995.286L3361.97 987.424 3365.17 987.424C3365.17 989.153 3365.77 990.018 3366.96 990.018 3368.52 990.018 3370.35 989.038 3372.43 987.08 3374.51 985.121 3376.95 982.169 3379.76 978.224 3378.98 973.496 3377.91 967.795 3376.56 961.122 3375.13 953.989 3374.18 949.572 3373.72 947.869 3373.16 945.816 3372.56 944.506 3371.94 943.938 3371.56 943.587 3371.09 943.411 3370.52 943.411 3369.66 943.411 3368.85 943.763 3368.09 944.465 3367.33 945.168 3366.4 946.383 3365.29 948.113L3362.66 946.37C3364.52 943.587 3366.27 941.621 3367.89 940.473 3369.51 939.325 3371.32 938.751 3373.32 938.751Z" fill-rule="evenodd"/><text fill="#000000" fill-opacity="0" font-family="Arial,Arial_MSFontService,sans-serif" font-size="57.0625" x="3360.23" y="988.68">𝑦</text><path d="M3421.63 956.415C3423.7 956.415 3425.46 956.649 3426.92 957.115 3428.38 957.582 3429.57 958.212 3430.48 959.007 3431.39 959.801 3432.05 960.754 3432.46 961.866 3432.87 962.978 3433.07 964.179 3433.07 965.47 3433.07 966.244 3433.02 966.964 3432.91 967.629 3432.8 968.295 3432.61 968.95 3432.34 969.595 3432.07 970.241 3431.72 970.891 3431.28 971.546 3430.85 972.201 3430.3 972.896 3429.65 973.631 3429.15 974.267 3428.5 975.001 3427.71 975.835 3426.92 976.669 3426.05 977.563 3425.1 978.516 3424.16 979.469 3423.17 980.462 3422.14 981.494 3421.11 982.527 3420.11 983.55 3419.13 984.562 3418.16 985.575 3417.27 986.558 3416.45 987.511 3415.64 988.464 3414.97 989.338 3414.46 990.132L3425.48 990.132C3426.41 990.132 3427.15 990.097 3427.71 990.028 3428.27 989.958 3428.73 989.805 3429.1 989.566 3429.46 989.328 3429.78 988.966 3430.03 988.479 3430.29 987.993 3430.59 987.322 3430.93 986.469L3433.7 986.469C3433.6 987.878 3433.5 989.298 3433.41 990.728 3433.32 992.158 3433.23 993.577 3433.13 994.987L3407.9 994.987 3407.9 993.438C3408.38 992.366 3408.94 991.309 3409.57 990.266 3410.21 989.224 3410.92 988.166 3411.72 987.094 3412.51 986.022 3413.41 984.915 3414.43 983.773 3415.44 982.631 3416.56 981.445 3417.79 980.214 3419.66 978.347 3421.18 976.754 3422.35 975.433 3423.52 974.113 3424.44 972.936 3425.12 971.904 3425.79 970.871 3426.26 969.918 3426.5 969.044 3426.75 968.171 3426.88 967.237 3426.88 966.244 3426.88 965.232 3426.73 964.298 3426.44 963.445 3426.16 962.591 3425.74 961.866 3425.21 961.27 3424.67 960.675 3423.99 960.208 3423.17 959.87 3422.34 959.533 3421.4 959.364 3420.32 959.364 3418.48 959.364 3416.93 959.865 3415.68 960.868 3414.43 961.871 3413.45 963.326 3412.76 965.232L3408.86 965.232 3408.86 959.424C3411.4 958.371 3413.74 957.607 3415.87 957.13 3418.01 956.654 3419.93 956.415 3421.63 956.415Z" fill-rule="evenodd"/><text fill="#000000" fill-opacity="0" font-family="Arial,Arial_MSFontService,sans-serif" font-size="38.5718" x="3407.9" y="990.166">2</text><path d="M3444.85 919.581C3452.74 921.662 3458.8 926.154 3463.03 933.057 3467.25 939.96 3469.37 948.288 3469.37 958.042 3469.37 967.822 3467.26 976.151 3463.05 983.027 3458.83 989.903 3452.77 994.381 3444.85 996.462L3443.88 993.341C3450.12 991.261 3454.76 987.154 3457.8 981.021 3460.84 974.888 3462.36 967.093 3462.36 957.637 3462.36 948.504 3460.84 940.919 3457.82 934.88 3454.79 928.842 3450.1 924.782 3443.76 922.702Z" fill-rule="evenodd"/><text fill="#000000" fill-opacity="0" font-family="Arial,Arial_MSFontService,sans-serif" font-size="76.8804" x="3443.76" y="986.852">)</text><path d="M2441.66 1079.91C2440.39 1085.77 2439.76 1090.7 2439.76 1094.7 2439.76 1097.73 2440.21 1099.95 2441.13 1101.37 2442.05 1102.79 2443.54 1103.5 2445.59 1103.5 2448.62 1103.5 2451.49 1101.46 2454.2 1097.4 2456.92 1093.33 2459.22 1087.5 2461.11 1079.91ZM2458.28 1052.59C2455.11 1052.59 2452.19 1054.59 2449.5 1058.59 2446.81 1062.59 2444.52 1068.32 2442.63 1075.78L2462.05 1075.78C2463.31 1070.08 2463.95 1065.17 2463.95 1061.06 2463.95 1058.23 2463.49 1056.11 2462.57 1054.7 2461.65 1053.3 2460.22 1052.59 2458.28 1052.59ZM2458.76 1049.31C2466.6 1049.31 2470.52 1054.28 2470.52 1064.23 2470.52 1067.04 2470.2 1070.39 2469.56 1074.3 2468.93 1078.2 2467.92 1082.18 2466.54 1086.23 2465.17 1090.29 2463.42 1093.87 2461.32 1096.99 2459.21 1100.11 2456.78 1102.52 2454.02 1104.23 2451.26 1105.93 2448.29 1106.78 2445.1 1106.78 2441.08 1106.78 2438.08 1105.55 2436.11 1103.09 2434.14 1100.63 2433.15 1096.95 2433.15 1092.03 2433.15 1089.35 2433.45 1086.06 2434.04 1082.14 2434.64 1078.22 2435.61 1074.22 2436.98 1070.12 2438.34 1066.03 2440.1 1062.4 2442.25 1059.22 2444.4 1056.05 2446.87 1053.6 2449.66 1051.89 2452.46 1050.17 2455.49 1049.31 2458.76 1049.31Z" fill-rule="evenodd"/><text fill="#000000" fill-opacity="0" font-family="Arial,Arial_MSFontService,sans-serif" font-size="57.4678" x="2433.15" y="1099.6">𝜃</text><path d="M2393.56 1115.86 2403.62 1116.36 2413.06 1117.94 2421.57 1120.36 2429.15 1123.66 2436.37 1130.6 2434.78 1132.25 2427.71 1125.45 2428.04 1125.68 2420.73 1122.49 2420.88 1122.54 2412.5 1120.16 2412.62 1120.19 2403.31 1118.63 2403.44 1118.64 2393.44 1118.14ZM2440.82 1122.62 2443 1143 2425.39 1132.52Z"/><rect x="2182.5" y="628.5" width="1461" height="668" stroke="#000000" stroke-width="4.58333" stroke-miterlimit="8" fill="none"/></g></svg>