<svg width="2078" height="1828" xmlns="http://www.w3.org/2000/svg" xmlns:xlink="http://www.w3.org/1999/xlink" overflow="hidden"><defs><clipPath id="clip0"><rect x="227" y="93" width="2078" height="1828"/></clipPath></defs><g clip-path="url(#clip0)" transform="translate(-227 -93)"><text font-family="Microsoft JhengHei,Microsoft JhengHei_MSFontService,sans-serif" font-weight="400" font-size="46" transform="matrix(1 0 0 1 259.875 151)">當<tspan font-family="Calibri,Calibri_MSFontService,sans-serif" font-size="46" x="45.8333" y="0">insert</tspan><tspan font-size="46" x="152.396" y="0">會產生合併，其合併的情況發生在樹之節點數為相同之情況</tspan><tspan font-size="46" x="1344.06" y="0">，</tspan><tspan font-size="46" x="0" y="97">將其中第</tspan></text><text font-family="Cambria Math,Cambria Math_MSFontService,sans-serif" font-weight="400" font-size="46" transform="translate(443.208 248)"> 𝑖<tspan font-size="46" x="26.0792" y="0"> </tspan></text><text font-family="Microsoft JhengHei,Microsoft JhengHei_MSFontService,sans-serif" font-weight="400" font-size="46" transform="matrix(1 0 0 1 479.6 248)">個的<tspan font-family="Calibri,Calibri_MSFontService,sans-serif" font-size="46" x="91.6667" y="0">heap</tspan><tspan font-size="46" x="184.479" y="0">表示成</tspan></text><text font-family="Cambria Math,Cambria Math_MSFontService,sans-serif" font-weight="400" font-size="46" transform="translate(801.579 248)"> ℎ<tspan font-size="34" x="35.5208" y="10">𝑖</tspan></text><text font-family="Microsoft JhengHei,Microsoft JhengHei_MSFontService,sans-serif" font-weight="400" font-size="46" transform="matrix(1 0 0 1 851.606 248)">，其</text><text font-family="Cambria Math,Cambria Math_MSFontService,sans-serif" font-weight="400" font-size="46" transform="translate(943.273 248)"> ℎ<tspan font-size="34" x="35.5208" y="10">𝑖</tspan><tspan font-size="46" x="50.0271" y="0"> </tspan></text><text font-family="Microsoft JhengHei,Microsoft JhengHei_MSFontService,sans-serif" font-weight="400" font-size="46" transform="matrix(1 0 0 1 1003.61 248)">節點數為</text><text font-family="Cambria Math,Cambria Math_MSFontService,sans-serif" font-weight="400" font-size="46" transform="translate(1186.95 248)"> 2<tspan font-size="34" x="35.5209" y="-16">𝑖</tspan></text><text font-family="Microsoft JhengHei,Microsoft JhengHei_MSFontService,sans-serif" font-weight="400" font-size="46" transform="matrix(1 0 0 1 1236.97 248)">，即</text><text font-family="Cambria Math,Cambria Math_MSFontService,sans-serif" font-weight="400" font-size="46" transform="translate(1328.64 248)"> </text><path d="M1398.72 214.3 1402.18 214.3 1402.18 256.099 1398.72 256.099ZM1344.5 214.3 1347.96 214.3 1347.96 256.099 1344.5 256.099Z" fill-rule="evenodd"/><text font-family="Cambria Math,Cambria Math_MSFontService,sans-serif" font-weight="400" font-size="46" transform="translate(1353.46 248)">ℎ<tspan font-size="34" x="25.2084" y="10">𝑖</tspan><tspan font-size="46" x="66.9625" y="0">=</tspan><tspan font-size="46" x="114.079" y="0">2</tspan><tspan font-size="34" x="139.287" y="-16">𝑖</tspan></text><text font-family="Microsoft JhengHei,Microsoft JhengHei_MSFontService,sans-serif" font-weight="400" font-size="46" transform="matrix(1 0 0 1 1507.25 248)">，<tspan font-size="46" x="-1247.38" y="95">可將</tspan><tspan font-family="Calibri,Calibri_MSFontService,sans-serif" font-size="46" x="-1155.71" y="95">binomial heap</tspan>表示成一有序集合：</text><text font-family="Cambria Math,Cambria Math_MSFontService,sans-serif" font-weight="400" font-size="46" transform="translate(1028.73 343)">𝐵<tspan font-size="46" x="44.3438" y="0">=</tspan></text><path d="M1421.24 308.885C1425.61 310.038 1428.97 312.527 1431.31 316.353 1433.66 320.179 1434.83 324.795 1434.83 330.2 1434.83 335.621 1433.66 340.237 1431.32 344.048 1428.99 347.859 1425.63 350.34 1421.24 351.493L1420.7 349.764C1424.16 348.611 1426.73 346.335 1428.42 342.936 1430.1 339.537 1430.94 335.217 1430.94 329.976 1430.94 324.915 1430.1 320.711 1428.43 317.364 1426.75 314.017 1424.15 311.768 1420.63 310.615ZM1137.82 308.885 1138.43 310.615C1134.92 311.768 1132.33 314.017 1130.65 317.364 1128.96 320.711 1128.12 324.915 1128.12 329.976 1128.12 335.217 1128.96 339.537 1130.65 342.936 1132.33 346.335 1134.9 348.611 1138.36 349.764L1137.82 351.493C1133.43 350.34 1130.07 347.859 1127.74 344.048 1125.4 340.237 1124.23 335.621 1124.23 330.2 1124.23 324.795 1125.4 320.179 1127.75 316.353 1130.09 312.527 1133.45 310.038 1137.82 308.885Z" fill-rule="evenodd"/><text font-family="Cambria Math,Cambria Math_MSFontService,sans-serif" font-weight="400" font-size="46" transform="translate(1139.21 343)">ℎ<tspan font-size="34" x="25.2084" y="10">0</tspan><tspan font-size="46" x="46.5896" y="0">,</tspan><tspan font-size="46" x="63.3876" y="0">ℎ</tspan><tspan font-size="34" x="87.5417" y="10">1</tspan><tspan font-size="46" x="108.923" y="0">,</tspan><tspan font-size="46" x="125.721" y="0">ℎ</tspan><tspan font-size="34" x="150.929" y="10">2</tspan><tspan font-size="46" x="172.31" y="0">,</tspan><tspan font-size="46" x="189.108" y="0">…</tspan><tspan font-size="46" x="231.115" y="0">ℎ</tspan><tspan font-size="34" x="256.323" y="10">𝑛</tspan><tspan font-size="46" x="299.59" y="0">,</tspan></text><path d="M1522.54 309.291 1526 309.291 1526 351.091 1522.54 351.091ZM1476.43 309.291 1479.89 309.291 1479.89 351.091 1476.43 351.091Z" fill-rule="evenodd"/><text font-family="Cambria Math,Cambria Math_MSFontService,sans-serif" font-weight="400" font-size="46" transform="translate(1485.39 343)">𝐵<tspan font-size="46" x="58.85" y="0">=</tspan><tspan font-size="46" x="105.967" y="0">𝑛</tspan></text><text font-family="Microsoft JhengHei,Microsoft JhengHei_MSFontService,sans-serif" font-weight="400" font-size="46" transform="matrix(1 0 0 1 259.875 438)">另定義位元序列</text><text font-family="Cambria Math,Cambria Math_MSFontService,sans-serif" font-weight="400" font-size="46" transform="translate(580.708 438)"> 𝐵<tspan font-size="34" x="38.6604" y="10">𝑏</tspan></text><text font-family="Microsoft JhengHei,Microsoft JhengHei_MSFontService,sans-serif" font-weight="400" font-size="46" transform="matrix(1 0 0 1 642.217 438)">，若</text><text font-family="Cambria Math,Cambria Math_MSFontService,sans-serif" font-weight="400" font-size="46" transform="translate(733.883 438)"> </text><path d="M803.964 404.306 807.423 404.306 807.423 446.106 803.964 446.106ZM749.744 404.306 753.203 404.306 753.203 446.106 749.744 446.106Z" fill-rule="evenodd"/><text font-family="Cambria Math,Cambria Math_MSFontService,sans-serif" font-weight="400" font-size="46" transform="translate(758.702 438)">ℎ<tspan font-size="34" x="25.2084" y="10">𝑖</tspan><tspan font-size="46" x="66.9625" y="0">&gt;</tspan><tspan font-size="46" x="114.079" y="0">0</tspan></text><text font-family="Microsoft JhengHei,Microsoft JhengHei_MSFontService,sans-serif" font-weight="400" font-size="46" transform="matrix(1 0 0 1 897.99 438)">，則對應的</text><text font-family="Cambria Math,Cambria Math_MSFontService,sans-serif" font-weight="400" font-size="46" transform="translate(1127.16 438)"> 𝐵<tspan font-size="34" x="38.6604" y="10">𝑏</tspan><tspan font-size="46" x="61.5083" y="0"> </tspan></text><text font-family="Microsoft JhengHei,Microsoft JhengHei_MSFontService,sans-serif" font-weight="400" font-size="46" transform="matrix(1 0 0 1 1198.98 438)">序列值為<tspan font-family="Calibri,Calibri_MSFontService,sans-serif" font-size="46" x="183.333" y="0">1</tspan><tspan font-size="46" x="206.823" y="0">，</tspan><tspan font-size="46" x="-939.102" y="96">即</tspan></text><text font-family="Cambria Math,Cambria Math_MSFontService,sans-serif" font-weight="400" font-size="46" transform="translate(305.708 534)"> 𝐵<tspan font-size="34" x="38.6604" y="10">𝑏</tspan><tspan font-size="46" x="61.5083" y="0">=</tspan></text><path d="M486.912 500.314 490.371 500.314 490.371 542.114 486.912 542.114ZM431.965 499.908 432.572 501.637C429.068 502.79 426.473 505.04 424.789 508.387 423.104 511.734 422.262 515.938 422.262 520.999 422.262 526.24 423.104 530.56 424.789 533.959 426.473 537.358 429.045 539.634 432.504 540.787L431.965 542.516C427.578 541.363 424.216 538.881 421.88 535.071 419.544 531.26 418.376 526.644 418.376 521.223 418.376 515.818 419.548 511.202 421.891 507.376 424.235 503.55 427.593 501.061 431.965 499.908Z" fill-rule="evenodd"/><text font-family="Cambria Math,Cambria Math_MSFontService,sans-serif" font-weight="400" font-size="46" transform="translate(433.354 534)">𝑏<tspan font-size="34" x="23.1917" y="10">𝑖</tspan><tspan font-size="46" x="37.6979" y="0"> </tspan><tspan font-size="46" x="68.8875" y="0"> </tspan>  𝑏<tspan font-size="34" x="123.017" y="10">𝑖</tspan><tspan font-size="46" x="143.894" y="0">=</tspan><tspan font-size="46" x="191.01" y="0">(</tspan></text><path d="M703.039 500.314 706.498 500.314 706.498 542.114 703.039 542.114ZM648.819 500.314 652.278 500.314 652.278 542.114 648.819 542.114Z" fill-rule="evenodd"/><text font-family="Cambria Math,Cambria Math_MSFontService,sans-serif" font-weight="400" font-size="46" transform="translate(657.777 534)">ℎ<tspan font-size="34" x="25.2084" y="10">𝑖</tspan><tspan font-size="46" x="66.9625" y="0">&gt;</tspan><tspan font-size="46" x="114.079" y="0">0</tspan><tspan font-size="46" x="139.288" y="0">)</tspan> )<tspan font-size="46" x="200.154" y="0">=</tspan><tspan font-size="46" x="247.271" y="0">(</tspan></text><path d="M990.598 500.314 994.057 500.314 994.057 542.114 990.598 542.114ZM929.502 500.314 932.961 500.314 932.961 542.114 929.502 542.114Z" fill-rule="evenodd"/><text font-family="Cambria Math,Cambria Math_MSFontService,sans-serif" font-weight="400" font-size="46" transform="translate(938.46 534)">ℎ<tspan font-size="34" x="25.2083" y="10">0</tspan><tspan font-size="46" x="73.8375" y="0">&gt;</tspan><tspan font-size="46" x="120.954" y="0">0</tspan><tspan font-size="46" x="146.163" y="0">,</tspan></text><path d="M1167.01 500.314 1170.47 500.314 1170.47 542.114 1167.01 542.114ZM1106.97 500.314 1110.43 500.314 1110.43 542.114 1106.97 542.114Z" fill-rule="evenodd"/><text font-family="Cambria Math,Cambria Math_MSFontService,sans-serif" font-weight="400" font-size="46" transform="translate(1115.93 534)">ℎ<tspan font-size="34" x="24.1542" y="10">1</tspan><tspan font-size="46" x="72.7833" y="0">&gt;</tspan><tspan font-size="46" x="119.9" y="0">0</tspan><tspan font-size="46" x="145.108" y="0">,</tspan></text><path d="M1344.48 500.314 1347.94 500.314 1347.94 542.114 1344.48 542.114ZM1283.38 500.314 1286.84 500.314 1286.84 542.114 1283.38 542.114Z" fill-rule="evenodd"/><text font-family="Cambria Math,Cambria Math_MSFontService,sans-serif" font-weight="400" font-size="46" transform="translate(1292.34 534)">ℎ<tspan font-size="34" x="25.2084" y="10">2</tspan><tspan font-size="46" x="73.8375" y="0">&gt;</tspan><tspan font-size="46" x="120.954" y="0">0</tspan><tspan font-size="46" x="146.163" y="0">,</tspan><tspan font-size="46" x="162.96" y="0">…</tspan></text><path d="M1566.81 500.314 1570.27 500.314 1570.27 542.114 1566.81 542.114ZM1502.85 500.314 1506.31 500.314 1506.31 542.114 1502.85 542.114Z" fill-rule="evenodd"/><text font-family="Cambria Math,Cambria Math_MSFontService,sans-serif" font-weight="400" font-size="46" transform="translate(1511.81 534)">ℎ<tspan font-size="34" x="25.2083" y="10">𝑛</tspan><tspan font-size="46" x="76.702" y="0">&gt;</tspan><tspan font-size="46" x="123.819" y="0">0</tspan><tspan font-size="46" x="149.027" y="0">)</tspan></text><text font-family="Microsoft JhengHei,Microsoft JhengHei_MSFontService,sans-serif" font-weight="400" font-size="46" transform="matrix(1 0 0 1 259.875 728)">當<tspan font-family="Calibri,Calibri_MSFontService,sans-serif" font-size="46" x="45.8333" y="0">insert</tspan><tspan font-size="46" x="152.396" y="0">時，在</tspan></text><text font-family="Cambria Math,Cambria Math_MSFontService,sans-serif" font-weight="400" font-size="46" transform="translate(549.771 728)"> 𝐵<tspan font-size="34" x="38.6604" y="10">𝑏</tspan><tspan font-size="46" x="61.5083" y="0"> </tspan></text><text font-family="Microsoft JhengHei,Microsoft JhengHei_MSFontService,sans-serif" font-weight="400" font-size="46" transform="matrix(1 0 0 1 621.592 728)">中滿足</text><text font-family="Cambria Math,Cambria Math_MSFontService,sans-serif" font-weight="400" font-size="46" transform="translate(759.092 728)"> </text><path d="M1.16797 2.67285 14.5771-31.917 18.0361-31.917 29.3789 2.67285 25.291 2.67285 16.082-27.1103 5.00879 2.67285Z" transform="matrix(1 0 0 1 769.404 730)"/><text font-family="Cambria Math,Cambria Math_MSFontService,sans-serif" font-weight="400" font-size="46" transform="translate(863.66 728)">𝑏<tspan font-size="34" x="23.1917" y="10">𝑖</tspan><tspan font-size="46" x="50.4396" y="0">=</tspan><tspan font-size="46" x="97.5562" y="0">1</tspan><tspan font-size="34" x="-63.7771" y="-18">𝑘</tspan><tspan font-size="34" x="-63.7771" y="12">𝑖</tspan><tspan font-size="34" x="-51.1729" y="12">=</tspan><tspan font-size="34" x="-27.1104" y="12">0</tspan><tspan font-size="46" x="122.765" y="0"> </tspan></text><text font-family="Microsoft JhengHei,Microsoft JhengHei_MSFontService,sans-serif" font-weight="400" font-size="46" transform="matrix(1 0 0 1 996.737 728)">的最大</text><text font-family="Cambria Math,Cambria Math_MSFontService,sans-serif" font-weight="400" font-size="46" transform="translate(1134.24 728)"> 𝑘<tspan font-size="46" x="36.8729" y="0"> </tspan></text><text font-family="Microsoft JhengHei,Microsoft JhengHei_MSFontService,sans-serif" font-weight="400" font-size="46" transform="matrix(1 0 0 1 1181.42 728)">值，其前</text><text font-family="Cambria Math,Cambria Math_MSFontService,sans-serif" font-weight="400" font-size="46" transform="translate(1364.76 728)"> 𝑘<tspan font-size="46" x="47.0479" y="0">+</tspan><tspan font-size="46" x="91.5979" y="0">1</tspan><tspan font-size="46" x="116.806" y="0"> </tspan></text><text font-family="Microsoft JhengHei,Microsoft JhengHei_MSFontService,sans-serif" font-weight="400" font-size="46" transform="matrix(1 0 0 1 1491.88 728)">項都會被<tspan font-family="Calibri,Calibri_MSFontService,sans-serif" font-size="46" x="183.333" y="0">merge</tspan><tspan font-size="46" x="302.637" y="0">，</tspan><tspan font-size="46" x="-1232" y="96">而每做一次</tspan><tspan font-family="Calibri,Calibri_MSFontService,sans-serif" font-size="46" x="-1002.83" y="96">merge</tspan><tspan font-size="46" x="-883.529" y="96">，會比較兩樹根的最大值，並決定以誰作為樹根，此</tspan><tspan font-family="Calibri,Calibri_MSFontService,sans-serif" font-size="46" x="170.637" y="96">merge</tspan><tspan font-size="46" x="289.942" y="96">操作為</tspan></text><text font-family="Cambria Math,Cambria Math_MSFontService,sans-serif" font-weight="400" font-size="46" transform="translate(1919.32 824)"> 𝑂<tspan font-size="46" x="42.3728" y="0">(</tspan>1<tspan font-size="46" x="86.4874" y="0">)</tspan></text><text font-family="Microsoft JhengHei,Microsoft JhengHei_MSFontService,sans-serif" font-weight="400" font-size="46" transform="matrix(1 0 0 1 2024.71 824)">，<tspan font-size="46" x="-1764.84" y="98">在</tspan></text><text font-family="Cambria Math,Cambria Math_MSFontService,sans-serif" font-weight="400" font-size="46" transform="translate(305.708 922)"> 𝐵<tspan font-size="46" x="41.9146" y="0"> </tspan></text><text font-family="Microsoft JhengHei,Microsoft JhengHei_MSFontService,sans-serif" font-weight="400" font-size="46" transform="matrix(1 0 0 1 357.935 922)">的總長度為</text><text font-family="Cambria Math,Cambria Math_MSFontService,sans-serif" font-weight="400" font-size="46" transform="translate(587.102 922)"> 𝑛<tspan font-size="46" x="37.4459" y="0"> </tspan></text><text font-family="Microsoft JhengHei,Microsoft JhengHei_MSFontService,sans-serif" font-weight="400" font-size="46" transform="matrix(1 0 0 1 634.86 922)">的情況下，亦即<tspan font-family="Calibri,Calibri_MSFontService,sans-serif" font-size="46" x="320.833" y="0">insert</tspan><tspan font-size="46" x="427.396" y="0">次數</tspan><tspan font-family="Calibri,Calibri_MSFontService,sans-serif" font-size="46" x="519.062" y="0">(</tspan>總節點數<tspan font-family="Calibri,Calibri_MSFontService,sans-serif" font-size="46" x="716.146" y="0">)</tspan></text><text font-family="Cambria Math,Cambria Math_MSFontService,sans-serif" font-weight="400" font-size="46" transform="translate(1364.76 922)">=</text><path d="M7.88379-29.8057 18.8223-13.207 18.8223-11.5 6.55859 5.3457 21.3379 5.3457C22.2663 5.3457 22.9663 5.28581 23.438 5.16602 23.9097 5.04622 24.314 4.86279 24.6509 4.61572 24.9878 4.36865 25.2948 4.02425 25.5718 3.58252 25.8488 3.14079 26.1146 2.5306 26.3691 1.75195 26.6237 0.973307 26.8633-0.0449219 27.0879-1.30273L29.7158-1.30273 29.0645 9.6582 0.583984 9.6582 0.583984 8.40039 14.4648-10.6689 1.4375-30.8613 1.4375-32.1416 29.1768-32.1416 29.1768-22.1465 26.751-22.1465C26.3766-23.569 26.021-24.7295 25.6841-25.6279 25.3472-26.5264 25.0028-27.2376 24.6509-27.7617 24.299-28.2858 23.9396-28.6864 23.5728-28.9634 23.2059-29.2404 22.7829-29.45 22.3037-29.5923 21.8245-29.7345 21.1881-29.8057 20.3945-29.8057Z" transform="matrix(1 0 0 1 1411.87 920)"/><path d="M1560.26 888.316 1563.72 888.316 1563.72 930.116 1560.26 930.116ZM1506.04 888.316 1509.5 888.316 1509.5 930.116 1506.04 930.116Z" fill-rule="evenodd"/><text font-family="Cambria Math,Cambria Math_MSFontService,sans-serif" font-weight="400" font-size="46" transform="translate(1515 922)">ℎ<tspan font-size="34" x="25.2084" y="10">𝑖</tspan><tspan font-size="34" x="-70.652" y="-18">𝑛</tspan><tspan font-size="34" x="-70.652" y="12">𝑖</tspan><tspan font-size="34" x="-58.0479" y="12">=</tspan><tspan font-size="34" x="-33.9854" y="12">0</tspan><tspan font-size="46" x="66.9625" y="0">=</tspan></text><path d="M7.88379-29.8057 18.8223-13.207 18.8223-11.5 6.55859 5.3457 21.3379 5.3457C22.2663 5.3457 22.9663 5.28581 23.438 5.16602 23.9097 5.04622 24.314 4.86279 24.6509 4.61572 24.9878 4.36865 25.2948 4.02425 25.5718 3.58252 25.8488 3.14079 26.1146 2.5306 26.3691 1.75195 26.6237 0.973307 26.8633-0.0449219 27.0879-1.30273L29.7158-1.30273 29.0645 9.6582 0.583984 9.6582 0.583984 8.40039 14.4648-10.6689 1.4375-30.8613 1.4375-32.1416 29.1768-32.1416 29.1768-22.1465 26.751-22.1465C26.3766-23.569 26.021-24.7295 25.6841-25.6279 25.3472-26.5264 25.0028-27.2376 24.6509-27.7617 24.299-28.2858 23.9396-28.6864 23.5728-28.9634 23.2059-29.2404 22.7829-29.45 22.3037-29.5923 21.8245-29.7345 21.1881-29.8057 20.3945-29.8057Z" transform="matrix(1 0 0 1 1629.08 920)"/><text font-family="Cambria Math,Cambria Math_MSFontService,sans-serif" font-weight="400" font-size="46" transform="translate(1725.33 922)">2<tspan font-size="34" x="25.2084" y="-16">𝑖</tspan><tspan font-size="34" x="-63.7771" y="-18">𝑛</tspan><tspan font-size="34" x="-63.7771" y="12">𝑖</tspan><tspan font-size="34" x="-51.173" y="12">=</tspan><tspan font-size="34" x="-27.1105" y="12">0</tspan><tspan font-size="46" x="52.4563" y="0">=</tspan><tspan font-size="46" x="99.5729" y="0">2</tspan><tspan font-size="34" x="124.781" y="-16">𝑛</tspan><tspan font-size="46" x="159.202" y="0">−</tspan><tspan font-size="46" x="203.752" y="0">1</tspan></text><text font-family="Microsoft JhengHei,Microsoft JhengHei_MSFontService,sans-serif" font-weight="400" font-size="46" transform="matrix(1 0 0 1 1954.29 922)">，<tspan font-size="46" x="-1694.41" y="95">此</tspan><tspan font-family="Calibri,Calibri_MSFontService,sans-serif" font-size="46" x="-1648.58" y="95">merge</tspan>全部項數的過程，可視為一排列組合數量的問題：<tspan font-size="46" x="-1694.41" y="194">若</tspan></text><text font-family="Cambria Math,Cambria Math_MSFontService,sans-serif" font-weight="400" font-size="46" transform="translate(305.708 1116)"> </text><path d="M1.16797 2.67285 14.5771-31.917 18.0361-31.917 29.3789 2.67285 25.291 2.67285 16.082-27.1103 5.00879 2.67285Z" transform="matrix(1 0 0 1 316.021 1118)"/><text font-family="Cambria Math,Cambria Math_MSFontService,sans-serif" font-weight="400" font-size="46" transform="translate(410.277 1116)">𝑏<tspan font-size="34" x="23.1917" y="10">𝑖</tspan><tspan font-size="46" x="50.4396" y="0">=</tspan><tspan font-size="46" x="97.5562" y="0">1</tspan><tspan font-size="34" x="-63.7771" y="-18">𝑘</tspan><tspan font-size="34" x="-63.7771" y="12">𝑖</tspan><tspan font-size="34" x="-51.1729" y="12">=</tspan><tspan font-size="34" x="-27.1104" y="12">0</tspan><tspan font-size="46" x="130.396" y="0">,</tspan><tspan font-size="46" x="162.479" y="0">𝑏</tspan><tspan font-size="34" x="185.671" y="10">𝑘</tspan><tspan font-size="34" x="206.708" y="10">+</tspan><tspan font-size="34" x="230.771" y="10">1</tspan><tspan font-size="46" x="264.894" y="0">=</tspan></text><text font-family="Microsoft JhengHei,Microsoft JhengHei_MSFontService,sans-serif" font-weight="400" font-size="46" transform="matrix(1 0 0 1 721.004 1116)">0<tspan font-size="46" x="26.3541" y="0">時發生</tspan><tspan font-family="Calibri,Calibri_MSFontService,sans-serif" font-size="46" x="163.854" y="0">insert</tspan><tspan font-size="46" x="270.417" y="0">，則共會需要進行</tspan></text><text font-family="Cambria Math,Cambria Math_MSFontService,sans-serif" font-weight="400" font-size="46" transform="translate(1358.09 1116)"> 𝑘<tspan font-size="46" x="36.8729" y="0"> </tspan></text><text font-family="Microsoft JhengHei,Microsoft JhengHei_MSFontService,sans-serif" font-weight="400" font-size="46" transform="matrix(1 0 0 1 1405.27 1116)">次合併，已知</text><text font-family="Cambria Math,Cambria Math_MSFontService,sans-serif" font-weight="400" font-size="46" transform="translate(1680.27 1116)"> 𝑘<tspan font-size="46" x="49.6146" y="0">≥</tspan><tspan font-size="46" x="96.7313" y="0">0</tspan></text><text font-family="Microsoft JhengHei,Microsoft JhengHei_MSFontService,sans-serif" font-weight="400" font-size="46" transform="matrix(1 0 0 1 1802.21 1116)">，<tspan font-size="46" x="-1542.34" y="96">當</tspan></text><text font-family="Cambria Math,Cambria Math_MSFontService,sans-serif" font-weight="400" font-size="46" transform="translate(305.708 1212)"> 𝑛<tspan font-size="46" x="50.1875" y="0">=</tspan><tspan font-size="46" x="97.3042" y="0">1</tspan><tspan font-size="46" x="135.254" y="0">⟹</tspan></text><path d="M7.88379-29.8057 18.8223-13.207 18.8223-11.5 6.55859 5.3457 21.3379 5.3457C22.2663 5.3457 22.9663 5.28581 23.438 5.16602 23.9097 5.04622 24.314 4.86279 24.6509 4.61572 24.9878 4.36865 25.2948 4.02425 25.5718 3.58252 25.8488 3.14079 26.1146 2.5306 26.3691 1.75195 26.6237 0.973307 26.8633-0.0449219 27.0879-1.30273L29.7158-1.30273 29.0645 9.6582 0.583984 9.6582 0.583984 8.40039 14.4648-10.6689 1.4375-30.8613 1.4375-32.1416 29.1768-32.1416 29.1768-22.1465 26.751-22.1465C26.3766-23.569 26.021-24.7295 25.6841-25.6279 25.3472-26.5264 25.0028-27.2376 24.6509-27.7617 24.299-28.2858 23.9396-28.6864 23.5728-28.9634 23.2059-29.2404 22.7829-29.45 22.3037-29.5923 21.8245-29.7345 21.1881-29.8057 20.3945-29.8057Z" transform="matrix(1 0 0 1 507.558 1210)"/><path d="M586.073 1178.29 589.532 1178.29 589.532 1220.09 586.073 1220.09ZM545.579 1178.29 549.038 1178.29 549.038 1220.09 545.579 1220.09Z" fill-rule="evenodd"/><text font-family="Cambria Math,Cambria Math_MSFontService,sans-serif" font-weight="400" font-size="46" transform="translate(554.537 1212)">ℎ<tspan font-size="46" x="53.2354" y="0">=</tspan><tspan font-size="46" x="100.352" y="0">1</tspan><tspan font-size="46" x="125.56" y="0"> </tspan></text><text font-family="Microsoft JhengHei,Microsoft JhengHei_MSFontService,sans-serif" font-weight="400" font-size="46" transform="matrix(1 0 0 1 690.41 1212)">時，共會產生<tspan font-family="Calibri,Calibri_MSFontService,sans-serif" font-size="46" x="275" y="0">1</tspan><tspan font-size="46" x="298.49" y="0">次合併</tspan><tspan font-size="46" x="-430.535" y="95">當</tspan></text><text font-family="Cambria Math,Cambria Math_MSFontService,sans-serif" font-weight="400" font-size="46" transform="translate(305.708 1307)"> 𝑛<tspan font-size="46" x="50.1875" y="0">=</tspan><tspan font-size="46" x="97.3042" y="0">2</tspan><tspan font-size="46" x="135.254" y="0">⟹</tspan></text><path d="M7.88379-29.8057 18.8223-13.207 18.8223-11.5 6.55859 5.3457 21.3379 5.3457C22.2663 5.3457 22.9663 5.28581 23.438 5.16602 23.9097 5.04622 24.314 4.86279 24.6509 4.61572 24.9878 4.36865 25.2948 4.02425 25.5718 3.58252 25.8488 3.14079 26.1146 2.5306 26.3691 1.75195 26.6237 0.973307 26.8633-0.0449219 27.0879-1.30273L29.7158-1.30273 29.0645 9.6582 0.583984 9.6582 0.583984 8.40039 14.4648-10.6689 1.4375-30.8613 1.4375-32.1416 29.1768-32.1416 29.1768-22.1465 26.751-22.1465C26.3766-23.569 26.021-24.7295 25.6841-25.6279 25.3472-26.5264 25.0028-27.2376 24.6509-27.7617 24.299-28.2858 23.9396-28.6864 23.5728-28.9634 23.2059-29.2404 22.7829-29.45 22.3037-29.5923 21.8245-29.7345 21.1881-29.8057 20.3945-29.8057Z" transform="matrix(1 0 0 1 507.558 1305)"/><path d="M586.073 1273.31 589.532 1273.31 589.532 1315.11 586.073 1315.11ZM545.579 1273.31 549.038 1273.31 549.038 1315.11 545.579 1315.11Z" fill-rule="evenodd"/><text font-family="Cambria Math,Cambria Math_MSFontService,sans-serif" font-weight="400" font-size="46" transform="translate(554.537 1307)">ℎ<tspan font-size="46" x="53.2354" y="0">=</tspan><tspan font-size="46" x="100.352" y="0">3</tspan><tspan font-size="46" x="125.56" y="0"> </tspan></text><text font-family="Microsoft JhengHei,Microsoft JhengHei_MSFontService,sans-serif" font-weight="400" font-size="46" transform="matrix(1 0 0 1 690.41 1307)">時，共會產生<tspan font-family="Calibri,Calibri_MSFontService,sans-serif" font-size="46" x="275" y="0">3</tspan><tspan font-size="46" x="298.49" y="0">次合併：</tspan><tspan font-size="46" x="481.823" y="0">11</tspan><tspan font-size="46" x="534.531" y="0">, 0</tspan>1</text><path d="M1171.88 1317.32 1224.88 1317.32 1224.88 1318.32 1171.88 1318.32Z" fill-rule="evenodd"/><path d="M1272.88 1317.32 1299.87 1317.32 1299.87 1318.32 1272.88 1318.32Z" fill-rule="evenodd"/><text font-family="Microsoft JhengHei,Microsoft JhengHei_MSFontService,sans-serif" font-weight="400" font-size="46" transform="matrix(1 0 0 1 259.875 1403)">當</text><text font-family="Cambria Math,Cambria Math_MSFontService,sans-serif" font-weight="400" font-size="46" transform="translate(305.708 1403)"> 𝑛<tspan font-size="46" x="50.1875" y="0">=</tspan><tspan font-size="46" x="97.3042" y="0">3</tspan><tspan font-size="46" x="135.254" y="0">⟹</tspan></text><path d="M7.88379-29.8057 18.8223-13.207 18.8223-11.5 6.55859 5.3457 21.3379 5.3457C22.2663 5.3457 22.9663 5.28581 23.438 5.16602 23.9097 5.04622 24.314 4.86279 24.6509 4.61572 24.9878 4.36865 25.2948 4.02425 25.5718 3.58252 25.8488 3.14079 26.1146 2.5306 26.3691 1.75195 26.6237 0.973307 26.8633-0.0449219 27.0879-1.30273L29.7158-1.30273 29.0645 9.6582 0.583984 9.6582 0.583984 8.40039 14.4648-10.6689 1.4375-30.8613 1.4375-32.1416 29.1768-32.1416 29.1768-22.1465 26.751-22.1465C26.3766-23.569 26.021-24.7295 25.6841-25.6279 25.3472-26.5264 25.0028-27.2376 24.6509-27.7617 24.299-28.2858 23.9396-28.6864 23.5728-28.9634 23.2059-29.2404 22.7829-29.45 22.3037-29.5923 21.8245-29.7345 21.1881-29.8057 20.3945-29.8057Z" transform="matrix(1 0 0 1 507.558 1401)"/><path d="M586.073 1369.31 589.532 1369.31 589.532 1411.11 586.073 1411.11ZM545.579 1369.31 549.038 1369.31 549.038 1411.11 545.579 1411.11Z" fill-rule="evenodd"/><text font-family="Cambria Math,Cambria Math_MSFontService,sans-serif" font-weight="400" font-size="46" transform="translate(554.537 1403)">ℎ<tspan font-size="46" x="53.2354" y="0">=</tspan><tspan font-size="46" x="100.352" y="0">7</tspan><tspan font-size="46" x="125.56" y="0"> </tspan></text><text font-family="Microsoft JhengHei,Microsoft JhengHei_MSFontService,sans-serif" font-weight="400" font-size="46" transform="matrix(1 0 0 1 690.41 1403)">時，共會產生<tspan font-family="Calibri,Calibri_MSFontService,sans-serif" font-size="46" x="275" y="0">7</tspan><tspan font-size="46" x="298.49" y="0">次合併：</tspan><tspan font-size="46" x="481.823" y="0">00</tspan><tspan font-size="46" x="534.531" y="0">1</tspan><tspan font-size="46" x="560.885" y="0">, 0</tspan>11<tspan font-size="46" x="661.719" y="0">, </tspan><tspan font-size="46" x="683.49" y="0">111</tspan>, 10<tspan font-size="46" x="837.031" y="0">1</tspan></text><path d="M1224.88 1413.32 1250.88 1413.32 1250.88 1414.32 1224.88 1414.32Z" fill-rule="evenodd"/><path d="M1299.87 1413.32 1351.87 1413.32 1351.87 1414.32 1299.87 1414.32Z" fill-rule="evenodd"/><path d="M1373.87 1413.32 1452.87 1413.32 1452.87 1414.32 1373.87 1414.32Z" fill-rule="evenodd"/><path d="M1527.87 1413.32 1553.87 1413.32 1553.87 1414.32 1527.87 1414.32Z" fill-rule="evenodd"/><text font-family="Microsoft JhengHei,Microsoft JhengHei_MSFontService,sans-serif" font-weight="400" font-size="46" transform="matrix(1 0 0 1 259.875 1498)">當</text><text font-family="Cambria Math,Cambria Math_MSFontService,sans-serif" font-weight="400" font-size="46" transform="translate(305.708 1498)"> 𝑛<tspan font-size="46" x="50.1875" y="0">=</tspan><tspan font-size="46" x="97.3042" y="0">4</tspan><tspan font-size="46" x="135.254" y="0">⟹</tspan></text><path d="M7.88379-29.8057 18.8223-13.207 18.8223-11.5 6.55859 5.3457 21.3379 5.3457C22.2663 5.3457 22.9663 5.28581 23.438 5.16602 23.9097 5.04622 24.314 4.86279 24.6509 4.61572 24.9878 4.36865 25.2948 4.02425 25.5718 3.58252 25.8488 3.14079 26.1146 2.5306 26.3691 1.75195 26.6237 0.973307 26.8633-0.0449219 27.0879-1.30273L29.7158-1.30273 29.0645 9.6582 0.583984 9.6582 0.583984 8.40039 14.4648-10.6689 1.4375-30.8613 1.4375-32.1416 29.1768-32.1416 29.1768-22.1465 26.751-22.1465C26.3766-23.569 26.021-24.7295 25.6841-25.6279 25.3472-26.5264 25.0028-27.2376 24.6509-27.7617 24.299-28.2858 23.9396-28.6864 23.5728-28.9634 23.2059-29.2404 22.7829-29.45 22.3037-29.5923 21.8245-29.7345 21.1881-29.8057 20.3945-29.8057Z" transform="matrix(1 0 0 1 507.558 1496)"/><path d="M586.073 1464.29 589.532 1464.29 589.532 1506.09 586.073 1506.09ZM545.579 1464.29 549.038 1464.29 549.038 1506.09 545.579 1506.09Z" fill-rule="evenodd"/><text font-family="Cambria Math,Cambria Math_MSFontService,sans-serif" font-weight="400" font-size="46" transform="translate(554.537 1498)">ℎ<tspan font-size="46" x="53.2354" y="0">=</tspan><tspan font-size="46" x="100.352" y="0">15</tspan><tspan font-size="46" x="150.769" y="0"> </tspan></text><text font-family="Microsoft JhengHei,Microsoft JhengHei_MSFontService,sans-serif" font-weight="400" font-size="46" transform="matrix(1 0 0 1 715.619 1498)">時，共會產生<tspan font-family="Calibri,Calibri_MSFontService,sans-serif" font-size="46" x="275" y="0">15</tspan><tspan font-size="46" x="321.979" y="0">次合併：</tspan><tspan font-size="46" x="505.312" y="0">000</tspan>1<tspan font-size="46" x="610.729" y="0">, 100</tspan><tspan font-size="46" x="711.562" y="0">1</tspan><tspan font-size="46" x="737.917" y="0">, 010</tspan>1<tspan font-size="46" x="865.104" y="0">, 110</tspan><tspan font-size="46" x="965.938" y="0">1</tspan><tspan font-size="46" x="992.292" y="0">, 00</tspan><tspan font-size="46" x="1066.77" y="0">11</tspan><tspan font-size="46" x="1119.48" y="0">, 10</tspan><tspan font-size="46" x="1193.96" y="0">11</tspan><tspan font-size="46" x="1246.67" y="0">, 0</tspan>111, <tspan font-size="46" x="1395.63" y="0">1111</tspan></text><path d="M1299.87 1508.32 1325.87 1508.32 1325.87 1509.32 1299.87 1509.32Z" fill-rule="evenodd"/><path d="M1426.87 1508.32 1453.87 1508.32 1453.87 1509.32 1426.87 1509.32Z" fill-rule="evenodd"/><path d="M1553.87 1508.32 1580.87 1508.32 1580.87 1509.32 1553.87 1509.32Z" fill-rule="evenodd"/><path d="M1681.87 1508.32 1707.87 1508.32 1707.87 1509.32 1681.87 1509.32Z" fill-rule="evenodd"/><path d="M1782.87 1508.32 1834.87 1508.32 1834.87 1509.32 1782.87 1509.32Z" fill-rule="evenodd"/><path d="M1909.87 1508.32 1961.87 1508.32 1961.87 1509.32 1909.87 1509.32Z" fill-rule="evenodd"/><path d="M2010.87 1508.32 2089.88 1508.32 2089.88 1509.32 2010.87 1509.32Z" fill-rule="evenodd"/><path d="M2110.88 1508.32 2216.88 1508.32 2216.88 1509.32 2110.88 1509.32Z" fill-rule="evenodd"/><text font-family="Cambria Math,Cambria Math_MSFontService,sans-serif" font-weight="400" font-size="46" transform="translate(259.875 1594)">∴<tspan font-size="46" x="26.3542" y="0"> </tspan></text><text font-family="Microsoft JhengHei,Microsoft JhengHei_MSFontService,sans-serif" font-weight="400" font-size="46" transform="matrix(1 0 0 1 296.542 1594)">可得知當</text><text font-family="Cambria Math,Cambria Math_MSFontService,sans-serif" font-weight="400" font-size="46" transform="translate(479.875 1594)"> 𝑛<tspan font-size="46" x="50.1875" y="0">=</tspan><tspan font-size="46" x="97.3042" y="0">𝑘</tspan><tspan font-size="46" x="136.606" y="0">⟹</tspan></text><path d="M7.88379-29.8057 18.8223-13.207 18.8223-11.5 6.55859 5.3457 21.3379 5.3457C22.2663 5.3457 22.9663 5.28581 23.438 5.16602 23.9097 5.04622 24.314 4.86279 24.6509 4.61572 24.9878 4.36865 25.2948 4.02425 25.5718 3.58252 25.8488 3.14079 26.1146 2.5306 26.3691 1.75195 26.6237 0.973307 26.8633-0.0449219 27.0879-1.30273L29.7158-1.30273 29.0645 9.6582 0.583984 9.6582 0.583984 8.40039 14.4648-10.6689 1.4375-30.8613 1.4375-32.1416 29.1768-32.1416 29.1768-22.1465 26.751-22.1465C26.3766-23.569 26.021-24.7295 25.6841-25.6279 25.3472-26.5264 25.0028-27.2376 24.6509-27.7617 24.299-28.2858 23.9396-28.6864 23.5728-28.9634 23.2059-29.2404 22.7829-29.45 22.3037-29.5923 21.8245-29.7345 21.1881-29.8057 20.3945-29.8057Z" transform="matrix(1 0 0 1 683.077 1592)"/><path d="M761.592 1560.29 765.051 1560.29 765.051 1602.09 761.592 1602.09ZM721.098 1560.29 724.557 1560.29 724.557 1602.09 721.098 1602.09Z" fill-rule="evenodd"/><text font-family="Cambria Math,Cambria Math_MSFontService,sans-serif" font-weight="400" font-size="46" transform="translate(730.056 1594)">ℎ<tspan font-size="46" x="53.2354" y="0">=</tspan><tspan font-size="46" x="100.352" y="0">2</tspan><tspan font-size="34" x="125.56" y="-16">𝑘</tspan><tspan font-size="46" x="158.675" y="0">−</tspan><tspan font-size="46" x="203.225" y="0">1</tspan><tspan font-size="46" x="228.433" y="0"> </tspan></text><text font-family="Microsoft JhengHei,Microsoft JhengHei_MSFontService,sans-serif" font-weight="400" font-size="46" transform="matrix(1 0 0 1 968.802 1594)">時，共會產生</text><text font-family="Cambria Math,Cambria Math_MSFontService,sans-serif" font-weight="400" font-size="46" transform="translate(1243.8 1594)"> 2<tspan font-size="34" x="35.5209" y="-16">𝑘</tspan><tspan font-size="46" x="68.6355" y="0">−</tspan><tspan font-size="46" x="113.185" y="0">1</tspan><tspan font-size="46" x="138.394" y="0"> </tspan></text><text font-family="Microsoft JhengHei,Microsoft JhengHei_MSFontService,sans-serif" font-weight="400" font-size="46" transform="matrix(1 0 0 1 1392.51 1594)">次<tspan font-family="Calibri,Calibri_MSFontService,sans-serif" font-size="46" x="45.8333" y="0">merge</tspan><tspan font-size="46" x="-1132.63" y="96">(</tspan><tspan font-size="46" x="-1117.74" y="96">若要以數學歸納法推論，可以假設連號</tspan></text><text font-family="Cambria Math,Cambria Math_MSFontService,sans-serif" font-weight="400" font-size="46" transform="translate(1053.94 1690)"> 𝑘<tspan font-size="46" x="36.8729" y="0"> </tspan></text><text font-family="Microsoft JhengHei,Microsoft JhengHei_MSFontService,sans-serif" font-weight="400" font-size="46" transform="matrix(1 0 0 1 1101.12 1690)">的數量，每項會有</text><text font-family="Cambria Math,Cambria Math_MSFontService,sans-serif" font-weight="400" font-size="46" transform="translate(1467.79 1690)"> 𝑘<tspan font-size="46" x="47.0479" y="0">∙</tspan><tspan font-size="46" x="70.4" y="0">2</tspan><tspan font-size="34" x="95.6083" y="-16">𝑛</tspan><tspan font-size="34" x="117.952" y="-16">−</tspan><tspan font-size="34" x="142.015" y="-16">𝑘</tspan><tspan font-size="34" x="163.052" y="-16">−</tspan><tspan font-size="34" x="187.115" y="-16">1</tspan><tspan font-size="46" x="208.496" y="0"> </tspan></text><text font-family="Microsoft JhengHei,Microsoft JhengHei_MSFontService,sans-serif" font-weight="400" font-size="46" transform="matrix(1 0 0 1 1686.6 1690)">個<tspan font-family="Calibri,Calibri_MSFontService,sans-serif" font-size="46" x="45.8333" y="0">merge</tspan><tspan font-size="46" x="165.137" y="0">次數</tspan><tspan font-family="Calibri,Calibri_MSFontService,sans-serif" font-size="46" x="256.804" y="0">)</tspan><tspan font-size="46" x="-1426.72" y="191">根據數學歸納法與均攤分析，可以得知其建立</tspan><tspan font-family="Calibri,Calibri_MSFontService,sans-serif" font-size="46" x="-510.056" y="191">binomial heap</tspan><tspan font-size="46" x="-245.369" y="191">的時間複雜度為</tspan></text><text font-family="Cambria Math,Cambria Math_MSFontService,sans-serif" font-weight="400" font-size="46" transform="translate(1762.06 1881)"> 𝑛<tspan font-size="46" x="37.4459" y="0"> </tspan><tspan font-size="46" x="57.9333" y="0">∙</tspan><tspan font-size="46" x="81.2855" y="0">𝑂</tspan></text><path d="M1921.1 1846.9C1925.47 1848.05 1928.83 1850.54 1931.17 1854.37 1933.51 1858.19 1934.69 1862.81 1934.69 1868.21 1934.69 1873.64 1933.52 1878.25 1931.18 1882.06 1928.85 1885.87 1925.48 1888.35 1921.1 1889.51L1920.56 1887.78C1924.02 1886.63 1926.59 1884.35 1928.27 1880.95 1929.96 1877.55 1930.8 1873.23 1930.8 1867.99 1930.8 1862.93 1929.96 1858.73 1928.28 1855.38 1926.61 1852.03 1924.01 1849.78 1920.49 1848.63ZM1893.04 1846.9 1893.65 1848.63C1890.14 1849.78 1887.55 1852.03 1885.86 1855.38 1884.18 1858.73 1883.34 1862.93 1883.34 1867.99 1883.34 1873.23 1884.18 1877.55 1885.86 1880.95 1887.55 1884.35 1890.12 1886.63 1893.58 1887.78L1893.04 1889.51C1888.65 1888.35 1885.29 1885.87 1882.96 1882.06 1880.62 1878.25 1879.45 1873.64 1879.45 1868.21 1879.45 1862.81 1880.62 1858.19 1882.97 1854.37 1885.31 1850.54 1888.67 1848.05 1893.04 1846.9Z" fill-rule="evenodd"/><text font-family="Cambria Math,Cambria Math_MSFontService,sans-serif" font-weight="400" font-size="46" transform="translate(1894.43 1881)">1<tspan font-size="46" x="56.9708" y="0">=</tspan><tspan font-size="46" x="104.088" y="0">𝑂</tspan><tspan font-size="46" x="136.148" y="0">(</tspan><tspan font-size="46" x="155.054" y="0">𝑛</tspan><tspan font-size="46" x="182.188" y="0">)</tspan></text></g></svg>