<svg width="2887" height="630" xmlns="http://www.w3.org/2000/svg" xmlns:xlink="http://www.w3.org/1999/xlink" overflow="hidden"><defs><clipPath id="clip0"><rect x="757" y="498" width="2887" height="630"/></clipPath></defs><g clip-path="url(#clip0)" transform="translate(-757 -498)"><rect x="1301" y="744" width="1197" height="117" fill="#D9D9D9"/><text font-family="Consolas,Consolas_MSFontService,sans-serif" font-weight="400" font-size="128" transform="matrix(1 0 0 1 1308.12 847)">15.75 = 15+75<tspan font-family="PMingLiU,PMingLiU_MSFontService,sans-serif" font-size="128" x="916.094" y="0">×</tspan><tspan font-family="Calibri,Calibri_MSFontService,sans-serif" font-size="128" x="980.26" y="0">10</tspan><tspan font-family="Calibri,Calibri_MSFontService,sans-serif" font-size="86" x="1110.89" y="-39">-</tspan><tspan font-family="Calibri,Calibri_MSFontService,sans-serif" font-size="86" x="1137.24" y="-39">2</tspan><tspan fill="#0000CC" font-family="Microsoft JhengHei,Microsoft JhengHei_MSFontService,sans-serif" font-size="92" x="-486.002" y="169">整數</tspan><tspan font-family="Microsoft JhengHei,Microsoft JhengHei_MSFontService,sans-serif" font-size="92" x="-302.668" y="169">部分</tspan><tspan font-family="Microsoft JhengHei,Microsoft JhengHei_MSFontService,sans-serif" font-size="92" x="-119.335" y="169">(</tspan><tspan fill="#0000CC" font-family="Microsoft JhengHei,Microsoft JhengHei_MSFontService,sans-serif" font-size="92" x="-90.1161" y="169">Integer </tspan><tspan font-family="Microsoft JhengHei,Microsoft JhengHei_MSFontService,sans-serif" font-size="92" x="241.992" y="169">Part)</tspan><tspan fill="#FF0000" font-family="Microsoft JhengHei,Microsoft JhengHei_MSFontService,sans-serif" font-size="92" x="1030.69" y="169">小數</tspan><tspan font-family="Microsoft JhengHei,Microsoft JhengHei_MSFontService,sans-serif" font-size="92" x="1214.02" y="169">部分</tspan><tspan font-family="Microsoft JhengHei,Microsoft JhengHei_MSFontService,sans-serif" font-size="92" x="1420.27" y="169">(</tspan><tspan fill="#FF0000" font-family="Microsoft JhengHei,Microsoft JhengHei_MSFontService,sans-serif" font-size="92" x="1449.49" y="169">Fraction</tspan><tspan font-family="Microsoft JhengHei,Microsoft JhengHei_MSFontService,sans-serif" font-size="92" x="1798.39" y="169">al Part)</tspan></text><path d="M1870.5 876.5 2005.06 876.5" stroke="#0000CC" stroke-width="4.58333" stroke-miterlimit="8" fill="none" fill-rule="evenodd"/><path d="M2088.5 876.5 2223.06 876.5" stroke="#FF0000" stroke-width="4.58333" stroke-miterlimit="8" fill="none" fill-rule="evenodd"/><path d="M1938.5 876.5 1938.5 983.27" stroke="#0000CC" stroke-width="4.58333" stroke-miterlimit="8" fill="none" fill-rule="evenodd"/><path d="M1795.5 983.5 1938.41 983.5" stroke="#0000CC" stroke-width="4.58333" stroke-miterlimit="8" fill="none" fill-rule="evenodd"/><path d="M2155.5 876.5 2155.5 983.27" stroke="#FF0000" stroke-width="4.58333" stroke-miterlimit="8" fill="none" fill-rule="evenodd"/><path d="M2155.5 983.5 2305.93 983.5" stroke="#FF0000" stroke-width="4.58333" stroke-miterlimit="8" fill="none" fill-rule="evenodd"/><text font-family="Microsoft JhengHei,Microsoft JhengHei_MSFontService,sans-serif" font-weight="700" font-size="92" transform="matrix(1 0 0 1 831.492 655)">小數(Decimal)</text><path d="M2480.5 819.5 2499.9 819.5" stroke="#ED7D31" stroke-width="4.58333" stroke-miterlimit="8" fill="none" fill-rule="evenodd"/><text fill="#ED7D31" font-family="Microsoft JhengHei,Microsoft JhengHei_MSFontService,sans-serif" font-weight="400" font-size="92" transform="matrix(1 0 0 1 2530.92 709)">指數<tspan fill="#000000" font-size="92" x="183.333" y="0">部分</tspan><tspan fill="#000000" font-size="92" x="366.667" y="0">(</tspan><tspan font-size="92" x="395.885" y="0">Exponent </tspan><tspan fill="#000000" font-size="92" x="825" y="0">Part)</tspan></text><path d="M2498.5 784.5 2575.84 784.5" stroke="#ED7D31" stroke-width="4.58333" stroke-miterlimit="8" fill="none" fill-rule="evenodd"/><path d="M0 0 0.000360892 76.6535" stroke="#ED7D31" stroke-width="4.58333" stroke-miterlimit="8" fill="none" fill-rule="evenodd" transform="matrix(1 0 0 -1 2498.5 821.154)"/><path d="M0 0 0.000360892 48.4772" stroke="#ED7D31" stroke-width="4.58333" stroke-miterlimit="8" fill="none" fill-rule="evenodd" transform="matrix(1 0 0 -1 2575.5 786.977)"/><path d="M2480.5 744.5 2499.9 744.5" stroke="#ED7D31" stroke-width="4.58333" stroke-miterlimit="8" fill="none" fill-rule="evenodd"/><rect x="759.5" y="500.5" width="2882" height="625" stroke="#000000" stroke-width="4.58333" stroke-miterlimit="8" fill="none"/></g></svg>