<svg width="2671" height="858" xmlns="http://www.w3.org/2000/svg" xmlns:xlink="http://www.w3.org/1999/xlink" overflow="hidden"><defs><clipPath id="clip0"><rect x="767" y="646" width="2671" height="858"/></clipPath></defs><g clip-path="url(#clip0)" transform="translate(-767 -646)"><text font-family="Consolas,Consolas_MSFontService,sans-serif" font-weight="400" font-size="128" transform="matrix(1 0 0 1 1869.58 1035)">15.75<tspan fill="#0000CC" font-family="Microsoft JhengHei,Microsoft JhengHei_MSFontService,sans-serif" font-size="92" x="-1047.46" y="169">整數部分</tspan><tspan fill="#0000CC" font-family="Microsoft JhengHei,Microsoft JhengHei_MSFontService,sans-serif" font-size="92" x="-680.793" y="169">(Integer Part)</tspan><tspan fill="#FF0000" font-family="Microsoft JhengHei,Microsoft JhengHei_MSFontService,sans-serif" font-size="92" x="469.228" y="169">小數部分</tspan><tspan fill="#FF0000" font-family="Microsoft JhengHei,Microsoft JhengHei_MSFontService,sans-serif" font-size="92" x="835.894" y="169">(Fractional Part)</tspan></text><path d="M1870.5 1064.5 2005.06 1064.5" stroke="#0000CC" stroke-width="4.58333" stroke-miterlimit="8" fill="none" fill-rule="evenodd"/><path d="M2088.5 1064.5 2223.06 1064.5" stroke="#FF0000" stroke-width="4.58333" stroke-miterlimit="8" fill="none" fill-rule="evenodd"/><path d="M1938.5 1064.5 1938.5 1171.27" stroke="#0000CC" stroke-width="4.58333" stroke-miterlimit="8" fill="none" fill-rule="evenodd"/><path d="M1795.5 1170.5 1938.41 1170.5" stroke="#0000CC" stroke-width="4.58333" stroke-miterlimit="8" fill="none" fill-rule="evenodd"/><path d="M2155.5 1064.5 2155.5 1171.27" stroke="#FF0000" stroke-width="4.58333" stroke-miterlimit="8" fill="none" fill-rule="evenodd"/><path d="M2155.5 1170.5 2298.41 1170.5" stroke="#FF0000" stroke-width="4.58333" stroke-miterlimit="8" fill="none" fill-rule="evenodd"/><text font-family="Microsoft JhengHei,Microsoft JhengHei_MSFontService,sans-serif" font-weight="400" font-size="110" transform="matrix(1 0 0 1 1688.79 786)">小數<tspan font-size="110" x="220" y="0">(Decimal)</tspan></text><path d="M0 0 0.000721785 302.414" stroke="#000000" stroke-width="4.58333" stroke-miterlimit="8" stroke-dasharray="36.6667 13.75" fill="none" fill-rule="evenodd" transform="matrix(-1 0 0 1 2048.5 1086.5)"/><text font-family="Microsoft JhengHei,Microsoft JhengHei_MSFontService,sans-serif" font-weight="400" font-size="55" transform="matrix(1 0 0 1 1765.98 1458)">小數點<tspan font-size="55" x="165" y="0">(Decimal Point)</tspan></text></g></svg>