<svg width="3902" height="2480" xmlns="http://www.w3.org/2000/svg" xmlns:xlink="http://www.w3.org/1999/xlink" overflow="hidden"><defs><clipPath id="clip0"><rect x="-18" y="-2" width="3902" height="2480"/></clipPath></defs><g clip-path="url(#clip0)" transform="translate(18 2)"><path d="M1147 323.5C1147 287.878 1176.1 259 1212 259 1247.9 259 1277 287.878 1277 323.5 1277 359.122 1247.9 388 1212 388 1176.1 388 1147 359.122 1147 323.5Z" stroke="#000000" stroke-width="10.3125" stroke-miterlimit="8" fill="#D0CECE" fill-rule="evenodd"/><rect x="778.5" y="0.499836" width="775" height="2475" stroke="#000000" stroke-width="4.58333" stroke-miterlimit="8" fill="none"/><path d="M1017 159.5C1017 123.878 1046.1 94.9999 1082 94.9999 1117.9 94.9999 1147 123.878 1147 159.5 1147 195.122 1117.9 224 1082 224 1046.1 224 1017 195.122 1017 159.5Z" stroke="#000000" stroke-width="10.3125" stroke-miterlimit="8" fill="none" fill-rule="evenodd"/><path d="M887 323.5C887 287.878 916.101 259 952 259 987.899 259 1017 287.878 1017 323.5 1017 359.122 987.899 388 952 388 916.101 388 887 359.122 887 323.5Z" stroke="#000000" stroke-width="10.3125" stroke-miterlimit="8" fill="none" fill-rule="evenodd"/><path d="M1131.54 203.897 1158.9 255.788 1152.82 258.995 1125.46 207.103ZM1165.89 246.924 1166.55 277.663 1141.56 259.751Z"/><path d="M3.04064-1.60341 30.4045 50.2883 24.3232 53.4951-3.04064 1.60341ZM37.3885 41.4239 38.0532 72.1626 13.0634 54.2511Z" transform="matrix(-1 0 0 1 1036.55 205.5)"/><path d="M1082 1385C1082 1349.1 1111.1 1320 1147 1320 1182.9 1320 1212 1349.1 1212 1385 1212 1420.9 1182.9 1450 1147 1450 1111.1 1450 1082 1420.9 1082 1385Z" stroke="#000000" stroke-width="10.3125" stroke-miterlimit="8" fill="none" fill-rule="evenodd"/><path d="M952 1549C952 1513.1 981.101 1484 1017 1484 1052.9 1484 1082 1513.1 1082 1549 1082 1584.9 1052.9 1614 1017 1614 981.101 1614 952 1584.9 952 1549Z" stroke="#000000" stroke-width="10.3125" stroke-miterlimit="8" fill="none" fill-rule="evenodd"/><path d="M3.04064-1.60341 30.4045 50.2883 24.3232 53.4951-3.04064 1.60341ZM37.3885 41.4239 38.0532 72.1626 13.0634 54.2511Z" transform="matrix(-1 0 0 1 1101.55 1431.5)"/><path d="M1961 323.5C1961 287.878 1990.1 259 2026 259 2061.9 259 2091 287.878 2091 323.5 2091 359.122 2061.9 388 2026 388 1990.1 388 1961 359.122 1961 323.5Z" stroke="#000000" stroke-width="10.3125" stroke-miterlimit="8" fill="#D0CECE" fill-rule="evenodd"/><rect x="1553.5" y="0.499836" width="776" height="2475" stroke="#000000" stroke-width="4.58333" stroke-miterlimit="8" fill="none"/><path d="M1831 159.5C1831 123.878 1860.1 94.9999 1896 94.9999 1931.9 94.9999 1961 123.878 1961 159.5 1961 195.122 1931.9 224 1896 224 1860.1 224 1831 195.122 1831 159.5Z" stroke="#000000" stroke-width="10.3125" stroke-miterlimit="8" fill="none" fill-rule="evenodd"/><path d="M1701 323.5C1701 287.878 1730.1 259 1766 259 1801.9 259 1831 287.878 1831 323.5 1831 359.122 1801.9 388 1766 388 1730.1 388 1701 359.122 1701 323.5Z" stroke="#000000" stroke-width="10.3125" stroke-miterlimit="8" fill="none" fill-rule="evenodd"/><path d="M1945.54 203.897 1972.9 255.788 1966.82 258.995 1939.46 207.103ZM1979.89 246.924 1980.55 277.663 1955.56 259.751Z"/><path d="M3.04064-1.60341 30.4045 50.2883 24.3232 53.4951-3.04064 1.60341ZM37.3885 41.4239 38.0532 72.1626 13.0634 54.2511Z" transform="matrix(-1 0 0 1 1850.55 205.5)"/><rect x="0.499836" y="0.499836" width="775" height="2475" stroke="#000000" stroke-width="4.58333" stroke-miterlimit="8" fill="none"/><path d="M322 159.5C322 123.878 351.102 94.9999 387 94.9999 422.899 94.9999 452 123.878 452 159.5 452 195.122 422.899 224 387 224 351.102 224 322 195.122 322 159.5Z" stroke="#000000" stroke-width="10.3125" stroke-miterlimit="8" fill="#D9D9D9" fill-rule="evenodd"/><path d="M778.5 1238.5 1553.84 1238.5" stroke="#000000" stroke-width="4.58333" stroke-miterlimit="8" fill="none" fill-rule="evenodd"/><path d="M0 0 775.34 0.000360892" stroke="#000000" stroke-width="4.58333" stroke-miterlimit="8" fill="none" fill-rule="evenodd" transform="matrix(-1 0 0 1 775.84 1238.5)"/><path d="M0 0 775.34 0.000360892" stroke="#000000" stroke-width="4.58333" stroke-miterlimit="8" fill="none" fill-rule="evenodd" transform="matrix(-1 0 0 1 2328.84 1238.5)"/><path d="M2655 323.5C2655 287.878 2684.1 259 2720 259 2755.9 259 2785 287.878 2785 323.5 2785 359.122 2755.9 388 2720 388 2684.1 388 2655 359.122 2655 323.5Z" stroke="#000000" stroke-width="10.3125" stroke-miterlimit="8" fill="#D0CECE" fill-rule="evenodd"/><rect x="2328.5" y="0.499836" width="775" height="2475" stroke="#000000" stroke-width="4.58333" stroke-miterlimit="8" fill="none"/><path d="M2525 159.5C2525 123.878 2554.1 94.9999 2590 94.9999 2625.9 94.9999 2655 123.878 2655 159.5 2655 195.122 2625.9 224 2590 224 2554.1 224 2525 195.122 2525 159.5Z" stroke="#000000" stroke-width="10.3125" stroke-miterlimit="8" fill="none" fill-rule="evenodd"/><path d="M2395 323.5C2395 287.878 2424.1 259 2460 259 2495.9 259 2525 287.878 2525 323.5 2525 359.122 2495.9 388 2460 388 2424.1 388 2395 359.122 2395 323.5Z" stroke="#000000" stroke-width="10.3125" stroke-miterlimit="8" fill="none" fill-rule="evenodd"/><path d="M2639.54 203.897 2666.9 255.788 2660.82 258.995 2633.46 207.103ZM2673.89 246.924 2674.55 277.663 2649.56 259.751Z"/><path d="M3.04064-1.60341 30.4045 50.2883 24.3232 53.4951-3.04064 1.60341ZM37.3885 41.4239 38.0532 72.1626 13.0634 54.2511Z" transform="matrix(-1 0 0 1 2544.55 205.5)"/><path d="M2804 485C2804 449.102 2833.1 420 2869 420 2904.9 420 2934 449.102 2934 485 2934 520.898 2904.9 550 2869 550 2833.1 550 2804 520.898 2804 485Z" stroke="#000000" stroke-width="10.3125" stroke-miterlimit="8" fill="#FFE699" fill-rule="evenodd"/><path d="M2769.16 367.325 2811.74 419.449 2806.42 423.798 2763.84 371.675ZM2816.83 409.375 2823.58 439.371 2795.53 426.773Z"/><path d="M2525 1387C2525 1351.1 2554.1 1322 2590 1322 2625.9 1322 2655 1351.1 2655 1387 2655 1422.9 2625.9 1452 2590 1452 2554.1 1452 2525 1422.9 2525 1387Z" stroke="#000000" stroke-width="10.3125" stroke-miterlimit="8" fill="none" fill-rule="evenodd"/><path d="M2395 1551C2395 1515.1 2424.1 1486 2460 1486 2495.9 1486 2525 1515.1 2525 1551 2525 1586.9 2495.9 1616 2460 1616 2424.1 1616 2395 1586.9 2395 1551Z" stroke="#000000" stroke-width="10.3125" stroke-miterlimit="8" fill="none" fill-rule="evenodd"/><path d="M2639.73 1432.33 2659.69 1487.22 2653.23 1489.57 2633.27 1434.67ZM2667.81 1479.39 2664.29 1509.93 2641.97 1488.79Z"/><path d="M3.04064-1.60341 30.4045 50.2883 24.3232 53.4951-3.04064 1.60341ZM37.3885 41.4239 38.0532 72.1626 13.0634 54.2511Z" transform="matrix(-1 0 0 1 2544.55 1433.5)"/><path d="M0 0 775.34 0.000360892" stroke="#000000" stroke-width="4.58333" stroke-miterlimit="8" fill="none" fill-rule="evenodd" transform="matrix(-1 0 0 1 3103.84 1238.5)"/><path d="M1961 672C1961 636.102 1990.1 607 2026 607 2061.9 607 2091 636.102 2091 672 2091 707.898 2061.9 737 2026 737 1990.1 737 1961 707.898 1961 672Z" stroke="#000000" stroke-width="10.3125" stroke-miterlimit="8" fill="#FFF2CC" fill-rule="evenodd"/><path d="M1831 508C1831 472.102 1860.1 443 1896 443 1931.9 443 1961 472.102 1961 508 1961 543.899 1931.9 573 1896 573 1860.1 573 1831 543.899 1831 508Z" stroke="#000000" stroke-width="10.3125" stroke-miterlimit="8" fill="#FFE699" fill-rule="evenodd"/><path d="M1701 672C1701 636.102 1730.1 607 1766 607 1801.9 607 1831 636.102 1831 672 1831 707.898 1801.9 737 1766 737 1730.1 737 1701 707.898 1701 672Z" stroke="#000000" stroke-width="10.3125" stroke-miterlimit="8" fill="#FFF2CC" fill-rule="evenodd"/><path d="M1945.54 552.897 1972.9 604.788 1966.82 607.995 1939.46 556.103ZM1979.89 595.924 1980.55 626.663 1955.56 608.751Z"/><path d="M3.04064-1.60341 30.4045 50.2883 24.3232 53.4951-3.04064 1.60341ZM37.3885 41.4239 38.0532 72.1626 13.0634 54.2511Z" transform="matrix(-1 0 0 1 1850.55 554.5)"/><path d="M3.17894-1.30796 32.5124 69.9854 26.1545 72.6013-3.17894 1.30796ZM40.3052 61.8229 38.0532 92.4863 14.8738 72.2866Z" transform="matrix(-1 0 0 1 1980.55 369.5)"/><path d="M1812 1385C1812 1349.1 1841.1 1320 1877 1320 1912.9 1320 1942 1349.1 1942 1385 1942 1420.9 1912.9 1450 1877 1450 1841.1 1450 1812 1420.9 1812 1385Z" stroke="#000000" stroke-width="10.3125" stroke-miterlimit="8" fill="none" fill-rule="evenodd"/><path d="M1682 1549C1682 1513.1 1711.1 1484 1747 1484 1782.9 1484 1812 1513.1 1812 1549 1812 1584.9 1782.9 1614 1747 1614 1711.1 1614 1682 1584.9 1682 1549Z" stroke="#000000" stroke-width="10.3125" stroke-miterlimit="8" fill="none" fill-rule="evenodd"/><path d="M1926.6 1430.01 1954.74 1488.71 1948.55 1491.69 1920.4 1432.99ZM1962.06 1480.12 1961.55 1510.86 1937.27 1492.01Z"/><path d="M3.04064-1.60341 30.4045 50.2883 24.3232 53.4951-3.04064 1.60341ZM37.3885 41.4239 38.0532 72.1626 13.0634 54.2511Z" transform="matrix(-1 0 0 1 1831.55 1431.5)"/><path d="M2072 1720C2072 1684.1 2101.1 1655 2137 1655 2172.9 1655 2202 1684.1 2202 1720 2202 1755.9 2172.9 1785 2137 1785 2101.1 1785 2072 1755.9 2072 1720Z" stroke="#000000" stroke-width="10.3125" stroke-miterlimit="8" fill="#FFF2CC" fill-rule="evenodd"/><path d="M1942 1556C1942 1520.1 1971.1 1491 2007 1491 2042.9 1491 2072 1520.1 2072 1556 2072 1591.9 2042.9 1621 2007 1621 1971.1 1621 1942 1591.9 1942 1556Z" stroke="#000000" stroke-width="10.3125" stroke-miterlimit="8" fill="#FFE699" fill-rule="evenodd"/><path d="M1812 1720C1812 1684.1 1841.1 1655 1877 1655 1912.9 1655 1942 1684.1 1942 1720 1942 1755.9 1912.9 1785 1877 1785 1841.1 1785 1812 1755.9 1812 1720Z" stroke="#000000" stroke-width="10.3125" stroke-miterlimit="8" fill="#FFF2CC" fill-rule="evenodd"/><path d="M2056.54 1600.9 2083.9 1652.79 2077.82 1656 2050.46 1604.1ZM2090.89 1643.92 2091.55 1674.66 2066.56 1656.75Z"/><path d="M3.04064-1.60341 30.4045 50.2883 24.3232 53.4951-3.04064 1.60341ZM37.3885 41.4239 38.0532 72.1626 13.0634 54.2511Z" transform="matrix(-1 0 0 1 1961.55 1602.5)"/><path d="M2947 650C2947 614.102 2976.1 585 3012 585 3047.9 585 3077 614.102 3077 650 3077 685.898 3047.9 715 3012 715 2976.1 715 2947 685.898 2947 650Z" stroke="#000000" stroke-width="10.3125" stroke-miterlimit="8" fill="#FFF2CC" fill-rule="evenodd"/><path d="M2918.31 529.515 2956.51 583.554 2950.9 587.523 2912.69 533.484ZM2962.29 573.858 2966.94 604.25 2939.83 589.734Z"/><path d="M2645 1555.5C2645 1519.88 2674.1 1491 2710 1491 2745.9 1491 2775 1519.88 2775 1555.5 2775 1591.12 2745.9 1620 2710 1620 2674.1 1620 2645 1591.12 2645 1555.5Z" stroke="#000000" stroke-width="10.3125" stroke-miterlimit="8" fill="#FFE699" fill-rule="evenodd"/><path d="M2788 1720C2788 1684.1 2817.1 1655 2853 1655 2888.9 1655 2918 1684.1 2918 1720 2918 1755.9 2888.9 1785 2853 1785 2817.1 1785 2788 1755.9 2788 1720Z" stroke="#000000" stroke-width="10.3125" stroke-miterlimit="8" fill="#FFF2CC" fill-rule="evenodd"/><path d="M2759.31 1599.52 2797.51 1653.55 2791.9 1657.52 2753.69 1603.48ZM2803.29 1643.86 2807.94 1674.25 2780.83 1659.73Z"/><path d="M3433 285C3433 249.101 3462.1 220 3498 220 3533.9 220 3563 249.101 3563 285 3563 320.898 3533.9 350 3498 350 3462.1 350 3433 320.898 3433 285Z" stroke="#000000" stroke-width="10.3125" stroke-miterlimit="8" fill="#D0CECE" fill-rule="evenodd"/><rect x="3106.5" y="0.499836" width="775" height="2475" stroke="#000000" stroke-width="4.58333" stroke-miterlimit="8" fill="none"/><path d="M3303 121C3303 85.1015 3332.1 56 3368 56 3403.9 56 3433 85.1015 3433 121 3433 156.898 3403.9 186 3368 186 3332.1 186 3303 156.898 3303 121Z" stroke="#000000" stroke-width="10.3125" stroke-miterlimit="8" fill="none" fill-rule="evenodd"/><path d="M3173 285C3173 249.101 3202.1 220 3238 220 3273.9 220 3303 249.101 3303 285 3303 320.898 3273.9 350 3238 350 3202.1 350 3173 320.898 3173 285Z" stroke="#000000" stroke-width="10.3125" stroke-miterlimit="8" fill="none" fill-rule="evenodd"/><path d="M3417.54 165.896 3444.9 217.788 3438.82 220.995 3411.46 169.103ZM3451.89 208.924 3452.55 239.663 3427.56 221.751Z"/><path d="M3.04064-1.60341 30.4045 50.2883 24.3232 53.4951-3.04064 1.60341ZM37.3885 41.4239 38.0532 72.1626 13.0634 54.2511Z" transform="matrix(-1 0 0 1 3322.55 167.5)"/><path d="M3582 447C3582 411.101 3611.1 382 3647 382 3682.9 382 3712 411.101 3712 447 3712 482.898 3682.9 512 3647 512 3611.1 512 3582 482.898 3582 447Z" stroke="#000000" stroke-width="10.3125" stroke-miterlimit="8" fill="none" fill-rule="evenodd"/><path d="M3547.16 329.325 3589.74 381.449 3584.42 385.798 3541.84 333.675ZM3594.83 371.375 3601.58 401.371 3573.53 388.773Z"/><path d="M0 0 775.34 0.000360892" stroke="#000000" stroke-width="4.58333" stroke-miterlimit="8" fill="none" fill-rule="evenodd" transform="matrix(-1 0 0 1 3881.84 1238.5)"/><path d="M3725 611C3725 575.101 3754.1 546 3790 546 3825.9 546 3855 575.101 3855 611 3855 646.899 3825.9 676 3790 676 3754.1 676 3725 646.899 3725 611Z" stroke="#000000" stroke-width="10.3125" stroke-miterlimit="8" fill="none" fill-rule="evenodd"/><path d="M3696.31 491.516 3734.51 545.554 3728.9 549.523 3690.69 495.485ZM3740.29 535.858 3744.94 566.251 3717.83 551.734Z"/><path d="M3433 611C3433 575.101 3462.1 546 3498 546 3533.9 546 3563 575.101 3563 611 3563 646.899 3533.9 676 3498 676 3462.1 676 3433 646.899 3433 611Z" stroke="#000000" stroke-width="10.3125" stroke-miterlimit="8" fill="none" fill-rule="evenodd"/><path d="M2.70444-2.12189 45.6383 52.599 40.2294 56.8428-2.70444 2.12189ZM50.9224 42.6274 57.0798 72.7505 29.2869 59.6026Z" transform="matrix(-1 0 0 1 3601.58 493.5)"/><path d="M3303 774C3303 738.102 3332.1 709 3368 709 3403.9 709 3433 738.102 3433 774 3433 809.899 3403.9 839 3368 839 3332.1 839 3303 809.899 3303 774Z" stroke="#000000" stroke-width="10.3125" stroke-miterlimit="8" fill="#FFE699" fill-rule="evenodd"/><path d="M3.03102-1.62152 30.2741 49.3025 24.2121 52.5455-3.03102 1.62152ZM37.2051 40.3966 38.0532 71.1308 12.957 53.3687Z" transform="matrix(-1 0 0 1 3452.55 657.5)"/><path d="M3440 934C3440 898.102 3469.1 869 3505 869 3540.9 869 3570 898.102 3570 934 3570 969.898 3540.9 999 3505 999 3469.1 999 3440 969.898 3440 934Z" stroke="#000000" stroke-width="10.3125" stroke-miterlimit="8" fill="#BDD7EE" fill-rule="evenodd"/><path d="M3417.35 818.575 3450.05 866.948 3444.36 870.798 3411.65 822.425ZM3456.03 857.374 3460.04 887.857 3433.25 872.778Z"/><path d="M3304 1100C3304 1064.1 3333.1 1035 3369 1035 3404.9 1035 3434 1064.1 3434 1100 3434 1135.9 3404.9 1165 3369 1165 3333.1 1165 3304 1135.9 3304 1100Z" stroke="#000000" stroke-width="10.3125" stroke-miterlimit="8" fill="#DEEBF7" fill-rule="evenodd"/><path d="M3572 1100C3572 1064.1 3601.1 1035 3637 1035 3672.9 1035 3702 1064.1 3702 1100 3702 1135.9 3672.9 1165 3637 1165 3601.1 1165 3572 1135.9 3572 1100Z" stroke="#000000" stroke-width="10.3125" stroke-miterlimit="8" fill="#DEEBF7" fill-rule="evenodd"/><path d="M2.95865-1.75009 35.3398 52.9925 29.4225 56.4927-2.95865 1.75009ZM41.8822 43.7974 44.0484 74.4669 18.2131 57.7981Z" transform="matrix(-1 0 0 1 3459.55 980.5)"/><path d="M3554.53 978.879 3583.54 1033.14 3577.47 1036.38 3548.47 982.12ZM3590.47 1024.23 3591.31 1054.97 3566.22 1037.2Z"/><path d="M3412 1549C3412 1513.1 3441.1 1484 3477 1484 3512.9 1484 3542 1513.1 3542 1549 3542 1584.9 3512.9 1614 3477 1614 3441.1 1614 3412 1584.9 3412 1549Z" stroke="#000000" stroke-width="10.3125" stroke-miterlimit="8" fill="#FFE699" fill-rule="evenodd"/><path d="M3282 1385C3282 1349.1 3311.1 1320 3347 1320 3382.9 1320 3412 1349.1 3412 1385 3412 1420.9 3382.9 1450 3347 1450 3311.1 1450 3282 1420.9 3282 1385Z" stroke="#000000" stroke-width="10.3125" stroke-miterlimit="8" fill="none" fill-rule="evenodd"/><path d="M3152 1549C3152 1513.1 3181.1 1484 3217 1484 3252.9 1484 3282 1513.1 3282 1549 3282 1584.9 3252.9 1614 3217 1614 3181.1 1614 3152 1584.9 3152 1549Z" stroke="#000000" stroke-width="10.3125" stroke-miterlimit="8" fill="none" fill-rule="evenodd"/><path d="M3396.54 1429.9 3423.9 1481.79 3417.82 1484.99 3390.46 1433.1ZM3430.89 1472.92 3431.55 1503.66 3406.56 1485.75Z"/><path d="M3.04064-1.60341 30.4045 50.2883 24.3232 53.4951-3.04064 1.60341ZM37.3885 41.4239 38.0532 72.1626 13.0634 54.2511Z" transform="matrix(-1 0 0 1 3301.55 1431.5)"/><path d="M3561 1710C3561 1674.1 3590.1 1645 3626 1645 3661.9 1645 3691 1674.1 3691 1710 3691 1745.9 3661.9 1775 3626 1775 3590.1 1775 3561 1745.9 3561 1710Z" stroke="#000000" stroke-width="10.3125" stroke-miterlimit="8" fill="none" fill-rule="evenodd"/><path d="M3526.16 1593.33 3568.74 1645.45 3563.42 1649.8 3520.84 1597.67ZM3573.83 1635.37 3580.58 1665.37 3552.53 1652.77Z"/><path d="M3704 1875C3704 1839.1 3733.1 1810 3769 1810 3804.9 1810 3834 1839.1 3834 1875 3834 1910.9 3804.9 1940 3769 1940 3733.1 1940 3704 1910.9 3704 1875Z" stroke="#000000" stroke-width="10.3125" stroke-miterlimit="8" fill="none" fill-rule="evenodd"/><path d="M3675.31 1754.52 3713.51 1808.55 3707.9 1812.52 3669.69 1758.48ZM3719.29 1798.86 3723.94 1829.25 3696.83 1814.73Z"/><path d="M3412 1875C3412 1839.1 3441.1 1810 3477 1810 3512.9 1810 3542 1839.1 3542 1875 3542 1910.9 3512.9 1940 3477 1940 3441.1 1940 3412 1910.9 3412 1875Z" stroke="#000000" stroke-width="10.3125" stroke-miterlimit="8" fill="none" fill-rule="evenodd"/><path d="M2.70444-2.12189 45.6383 52.599 40.2294 56.8428-2.70444 2.12189ZM50.9224 42.6274 57.0798 72.7505 29.2869 59.6026Z" transform="matrix(-1 0 0 1 3580.58 1756.5)"/><path d="M3.02593-1.631 30.2058 48.795 24.154 52.057-3.02593 1.631ZM37.109 39.8674 38.0532 70.5989 12.9015 52.9154Z" transform="matrix(-1 0 0 1 3431.55 1921.5)"/><path d="M3282 2037.5C3282 2001.88 3311.1 1973 3347 1973 3382.9 1973 3412 2001.88 3412 2037.5 3412 2073.12 3382.9 2102 3347 2102 3311.1 2102 3282 2073.12 3282 2037.5Z" stroke="#000000" stroke-width="10.3125" stroke-miterlimit="8" fill="#BDD7EE" fill-rule="evenodd"/><path d="M3146 2204C3146 2168.1 3175.1 2139 3211 2139 3246.9 2139 3276 2168.1 3276 2204 3276 2239.9 3246.9 2269 3211 2269 3175.1 2269 3146 2239.9 3146 2204Z" stroke="#000000" stroke-width="10.3125" stroke-miterlimit="8" fill="#DEEBF7" fill-rule="evenodd"/><path d="M3414 2204C3414 2168.1 3443.1 2139 3479 2139 3514.9 2139 3544 2168.1 3544 2204 3544 2239.9 3514.9 2269 3479 2269 3443.1 2269 3414 2239.9 3414 2204Z" stroke="#000000" stroke-width="10.3125" stroke-miterlimit="8" fill="#DEEBF7" fill-rule="evenodd"/><path d="M2.95865-1.75009 35.3398 52.9925 29.4225 56.4927-2.95865 1.75009ZM41.8822 43.7974 44.0484 74.4669 18.2131 57.7981Z" transform="matrix(-1 0 0 1 3301.55 2083.5)"/><path d="M3396.53 2081.88 3425.54 2136.14 3419.47 2139.38 3390.47 2085.12ZM3432.47 2127.23 3433.31 2157.97 3408.22 2140.2Z"/><rect x="-0.499836" y="1104.5" width="109" height="133" stroke="#000000" stroke-width="3.4375" stroke-linejoin="round" stroke-miterlimit="10" fill="none"/><text font-family="Calibri,Calibri_MSFontService,sans-serif" font-weight="400" font-size="83" transform="matrix(1 0 0 1 31.8646 1198)">1</text><rect x="778.5" y="1104.5" width="109" height="133" stroke="#000000" stroke-width="3.4375" stroke-linejoin="round" stroke-miterlimit="10" fill="none"/><text font-family="Calibri,Calibri_MSFontService,sans-serif" font-weight="400" font-size="83" transform="matrix(1 0 0 1 811.107 1198)">2</text><rect x="1553.5" y="1104.5" width="109" height="133" stroke="#000000" stroke-width="3.4375" stroke-linejoin="round" stroke-miterlimit="10" fill="none"/><text font-family="Calibri,Calibri_MSFontService,sans-serif" font-weight="400" font-size="83" transform="matrix(1 0 0 1 1586.44 1198)">3</text><rect x="2327.5" y="1104.5" width="109" height="133" stroke="#000000" stroke-width="3.4375" stroke-linejoin="round" stroke-miterlimit="10" fill="none"/><text font-family="Calibri,Calibri_MSFontService,sans-serif" font-weight="400" font-size="83" transform="matrix(1 0 0 1 2359.89 1198)">4</text><rect x="3104.5" y="1104.5" width="109" height="133" stroke="#000000" stroke-width="3.4375" stroke-linejoin="round" stroke-miterlimit="10" fill="none"/><text font-family="Calibri,Calibri_MSFontService,sans-serif" font-weight="400" font-size="83" transform="matrix(1 0 0 1 3136.69 1198)">5</text></g></svg>