<svg width="1055" height="447" xmlns="http://www.w3.org/2000/svg" xmlns:xlink="http://www.w3.org/1999/xlink" overflow="hidden"><defs><clipPath id="clip0"><rect x="948" y="752" width="1055" height="447"/></clipPath></defs><g clip-path="url(#clip0)" transform="translate(-948 -752)"><text font-family="Calibri,Calibri_MSFontService,sans-serif" font-weight="400" font-size="73" transform="matrix(1 0 0 1 992.602 843)">decimal format : </text><path d="M1508.64 808.368C1510.14 808.368 1511.32 808.861 1512.18 809.847 1513.05 810.833 1513.49 812.123 1513.49 813.715 1513.49 814.974 1513.2 816.376 1512.63 817.921L1513.06 818.063C1515.39 814.784 1517.6 812.354 1519.71 810.774 1521.81 809.194 1523.98 808.404 1526.21 808.404 1528.42 808.404 1530.12 809.039 1531.31 810.311 1532.5 811.582 1533.09 813.346 1533.09 815.604 1533.09 817.101 1532.75 819.228 1532.06 821.984L1529.74 831.323C1529.1 833.913 1528.78 835.743 1528.78 836.812 1528.78 837.763 1528.93 838.452 1529.24 838.88 1529.55 839.307 1530.04 839.521 1530.7 839.521 1531.42 839.521 1532.18 839.23 1532.98 838.648 1533.79 838.066 1534.93 836.955 1536.41 835.315L1538.44 837.311C1536.39 839.498 1534.61 841.096 1533.09 842.106 1531.57 843.116 1529.83 843.62 1527.89 843.62 1526.34 843.62 1525.11 843.068 1524.18 841.963 1523.25 840.858 1522.79 839.45 1522.79 837.739 1522.79 836.195 1523.18 833.925 1523.97 830.931L1525.53 824.765C1526.1 822.531 1526.48 820.879 1526.66 819.81 1526.83 818.741 1526.92 817.873 1526.92 817.208 1526.92 815.568 1526.65 814.386 1526.1 813.661 1525.56 812.936 1524.67 812.574 1523.43 812.574 1522.43 812.574 1521.36 812.972 1520.2 813.768 1519.05 814.564 1517.83 815.764 1516.53 817.368 1515.24 818.972 1514.2 820.529 1513.41 822.038 1512.63 823.547 1511.99 825.406 1511.49 827.616L1508.1 843.05 1501.94 843.05 1507.14 820.452C1507.66 818.17 1507.93 816.412 1507.93 815.176 1507.93 814.226 1507.77 813.536 1507.46 813.109 1507.15 812.681 1506.67 812.467 1506 812.467 1505.26 812.467 1504.49 812.77 1503.67 813.376 1502.85 813.982 1501.72 815.081 1500.3 816.673L1498.27 814.677C1500.45 812.396 1502.27 810.774 1503.72 809.812 1505.17 808.849 1506.81 808.368 1508.64 808.368Z" fill-rule="evenodd"/><text fill="#000000" fill-opacity="0" font-family="Arial,Arial_MSFontService,sans-serif" font-size="35.2524" x="1498.27" y="839.214">𝑛</text><path d="M1566.18 827.224 1610.09 827.224 1610.09 831.965 1566.18 831.965ZM1566.18 812.432 1610.09 812.432 1610.09 817.172 1566.18 817.172Z" fill-rule="evenodd"/><text fill="#000000" fill-opacity="0" font-family="Arial,Arial_MSFontService,sans-serif" font-size="19.5332" x="1566.18" y="829.523">=</text><path d="M1651.03 808.653 1653.14 808.653 1648 831.537C1647.48 833.866 1647.22 835.624 1647.22 836.812 1647.22 837.763 1647.37 838.452 1647.68 838.88 1647.99 839.307 1648.48 839.521 1649.14 839.521 1649.86 839.521 1650.62 839.23 1651.42 838.648 1652.23 838.066 1653.37 836.955 1654.85 835.315L1656.88 837.311C1654.55 839.759 1652.66 841.422 1651.21 842.302 1649.76 843.181 1648.13 843.62 1646.33 843.62 1644.78 843.62 1643.55 843.056 1642.62 841.927 1641.69 840.799 1641.23 839.355 1641.23 837.597 1641.23 835.791 1641.56 833.486 1642.23 830.682L1644.9 819.026C1645.45 816.649 1645.72 814.867 1645.72 813.679 1645.72 812.61 1645.47 811.885 1644.95 811.505 1644.44 811.125 1643.44 810.911 1641.94 810.863L1642.33 808.974ZM1650.07 795.001 1656.38 795.001 1654.74 801.916 1648.43 801.916Z" fill="#0000CC" fill-rule="evenodd"/><text fill="#000000" fill-opacity="0" font-family="Arial,Arial_MSFontService,sans-serif" font-size="48.6191" x="1641.23" y="837.543">𝑖</text><path d="M1703.1 799.279 1708.16 799.279 1708.16 819.81 1727.59 819.81 1727.59 824.551 1708.16 824.551 1708.16 845.082 1703.1 845.082 1703.1 824.551 1683.67 824.551 1683.67 819.81 1703.1 819.81Z" fill-rule="evenodd"/><text fill="#000000" fill-opacity="0" font-family="Arial,Arial_MSFontService,sans-serif" font-size="45.8032" x="1683.67" y="839.357">+</text><path d="M1783.23 791.865C1785.56 791.865 1787.57 792.055 1789.26 792.435L1787.86 798.495 1784.73 798.495C1784.4 797.14 1783.96 796.166 1783.43 795.572 1782.89 794.978 1782.1 794.681 1781.06 794.681 1779.7 794.681 1778.56 795.055 1777.62 795.803 1776.68 796.552 1775.88 797.663 1775.21 799.136 1774.55 800.609 1773.93 802.594 1773.36 805.089L1772.47 808.974 1781.63 808.974 1780.84 812.574 1771.65 812.574 1765.02 843.656C1763.92 848.813 1762.25 852.656 1759.99 855.187 1757.73 857.718 1754.89 858.983 1751.47 858.983 1750.47 858.983 1749.69 858.924 1749.12 858.805L1749.73 855.668C1749.96 855.74 1750.52 855.775 1751.4 855.775 1752.47 855.775 1753.38 855.502 1754.15 854.955 1754.91 854.409 1755.61 853.458 1756.27 852.104 1756.92 850.749 1757.52 848.872 1758.07 846.472L1765.73 812.574 1759.71 812.574 1760.24 810.115C1761.83 810.02 1762.98 809.889 1763.68 809.723 1764.38 809.556 1764.93 809.307 1765.32 808.974 1765.71 808.641 1766.04 808.208 1766.32 807.673 1766.59 807.138 1766.94 806.158 1767.37 804.732 1768.63 800.455 1770.57 797.241 1773.2 795.09 1775.82 792.94 1779.17 791.865 1783.23 791.865Z" fill="#FF0000" fill-rule="evenodd"/><text fill="#000000" fill-opacity="0" font-family="Arial,Arial_MSFontService,sans-serif" font-size="67.1187" x="1749.12" y="850.593">𝑓</text><path d="M1818.51 817.065C1819.43 817.065 1820.27 817.285 1821.02 817.725 1821.77 818.164 1822.35 818.776 1822.75 819.56 1823.15 820.345 1823.36 821.224 1823.36 822.198 1823.36 823.196 1823.15 824.087 1822.73 824.871 1822.32 825.656 1821.73 826.262 1820.98 826.689 1820.24 827.117 1819.41 827.331 1818.51 827.331 1817.6 827.331 1816.78 827.117 1816.03 826.689 1815.28 826.262 1814.7 825.656 1814.28 824.871 1813.87 824.087 1813.66 823.196 1813.66 822.198 1813.66 821.224 1813.86 820.345 1814.27 819.56 1814.67 818.776 1815.25 818.164 1815.99 817.725 1816.74 817.285 1817.58 817.065 1818.51 817.065Z" fill-rule="evenodd"/><text fill="#000000" fill-opacity="0" font-family="Arial,Arial_MSFontService,sans-serif" font-size="10.2656" x="1813.66" y="826.048">∙</text><path d="M1906.34 796.855C1904.7 796.855 1903.32 797.342 1902.22 798.316 1901.11 799.291 1900.22 800.693 1899.55 802.522 1898.87 804.352 1898.39 806.58 1898.1 809.206 1897.82 811.831 1897.67 814.796 1897.67 818.099 1897.67 825.846 1898.39 831.531 1899.83 835.155 1901.27 838.779 1903.5 840.591 1906.51 840.591 1909.39 840.591 1911.52 838.886 1912.91 835.476 1914.3 832.066 1915 826.784 1915 819.632 1915 814.166 1914.64 809.74 1913.93 806.354 1913.21 802.968 1912.22 800.538 1910.95 799.065 1909.68 797.591 1908.14 796.855 1906.34 796.855ZM1906.51 793.825C1911.72 793.825 1915.59 795.833 1918.13 799.849 1920.68 803.865 1921.95 809.936 1921.95 818.063 1921.95 826.475 1920.59 832.838 1917.87 837.151 1915.15 841.464 1911.17 843.62 1905.94 843.62 1900.81 843.62 1896.99 841.601 1894.48 837.561 1891.98 833.521 1890.72 827.39 1890.72 819.168 1890.72 814.796 1891.11 811.018 1891.88 807.833 1892.65 804.649 1893.73 802.017 1895.13 799.938 1896.52 797.859 1898.18 796.32 1900.13 795.322 1902.08 794.324 1904.21 793.825 1906.51 793.825ZM1868.15 793.825 1870.11 793.825C1869.97 796.106 1869.9 799.267 1869.9 803.307L1869.9 833.747C1869.9 835.125 1869.98 836.165 1870.13 836.866 1870.28 837.567 1870.56 838.137 1870.95 838.577 1871.34 839.016 1871.91 839.361 1872.64 839.61 1873.38 839.86 1874.31 840.05 1875.42 840.181 1876.54 840.311 1878.01 840.401 1879.84 840.448L1879.84 843.05 1853.5 843.05 1853.5 840.448C1856.14 840.329 1858.02 840.169 1859.15 839.967 1860.28 839.765 1861.14 839.462 1861.74 839.058 1862.33 838.654 1862.76 838.084 1863.04 837.347 1863.31 836.61 1863.45 835.41 1863.45 833.747L1863.45 804.839C1863.45 803.889 1863.28 803.194 1862.95 802.754 1862.61 802.314 1862.13 802.095 1861.49 802.095 1860.73 802.095 1859.64 802.487 1858.24 803.271 1856.84 804.055 1855.11 805.136 1853.04 806.515L1851.47 803.77Z" fill="#ED7D31" fill-rule="evenodd"/><text fill="#000000" fill-opacity="0" font-family="Arial,Arial_MSFontService,sans-serif" font-size="49.7954" x="1851.47" y="837.396">10</text><path d="M1944.9 792.331C1943.96 792.331 1943.02 792.564 1942.1 793.03 1941.17 793.496 1940.3 794.156 1939.48 795.01 1938.66 795.864 1937.92 796.899 1937.24 798.115 1936.57 799.332 1936.01 800.69 1935.56 802.191 1937.75 802.174 1939.64 802.002 1941.22 801.674 1942.8 801.346 1944.09 800.897 1945.1 800.328 1946.11 799.759 1946.85 799.086 1947.32 798.31 1947.8 797.533 1948.04 796.679 1948.04 795.747 1948.04 794.678 1947.77 793.841 1947.23 793.237 1946.7 792.633 1945.92 792.331 1944.9 792.331ZM1946.02 789.769C1948.23 789.769 1949.9 790.253 1951.05 791.219 1952.2 792.185 1952.77 793.556 1952.77 795.333 1952.77 801.579 1946.86 804.702 1935.04 804.702 1934.96 805.15 1934.89 805.638 1934.84 806.164 1934.79 806.69 1934.76 807.264 1934.76 807.885 1934.76 809.765 1935.14 811.137 1935.91 811.999 1936.68 812.862 1937.87 813.293 1939.5 813.293 1940.34 813.293 1941.14 813.203 1941.9 813.022 1942.66 812.841 1943.41 812.56 1944.14 812.181 1944.87 811.801 1945.61 811.314 1946.35 810.718 1947.1 810.123 1947.87 809.412 1948.68 808.583L1950.62 810.68C1948.62 812.664 1946.63 814.156 1944.63 815.157 1942.64 816.157 1940.5 816.658 1938.2 816.658 1936.86 816.658 1935.66 816.455 1934.62 816.049 1933.57 815.644 1932.69 815.053 1931.98 814.277 1931.26 813.5 1930.72 812.556 1930.35 811.443 1929.98 810.33 1929.79 809.075 1929.79 807.678 1929.79 806.694 1929.88 805.672 1930.05 804.611 1930.22 803.55 1930.49 802.489 1930.85 801.428 1931.21 800.367 1931.66 799.332 1932.2 798.322 1932.73 797.313 1933.36 796.369 1934.09 795.489 1935.54 793.694 1937.28 792.293 1939.33 791.283 1941.37 790.274 1943.6 789.769 1946.02 789.769Z" fill="#ED7D31" fill-rule="evenodd"/><text fill="#000000" fill-opacity="0" font-family="Arial,Arial_MSFontService,sans-serif" font-size="26.8882" x="1929.79" y="813.297">𝑒</text><path d="M1166.65 961.795 1166.65 964.86C1163.39 965.549 1160.44 968.733 1157.81 974.413 1155.17 980.092 1153.85 989.075 1153.85 1001.36 1153.85 1006.35 1154.62 1013.98 1156.17 1024.26 1157.71 1034.54 1158.48 1040.85 1158.48 1043.21 1158.48 1050.17 1157.78 1055.83 1156.38 1060.19 1154.98 1064.55 1152.52 1067.79 1149 1069.9L1149 1070.87C1152.52 1072.98 1154.98 1076.22 1156.38 1080.58 1157.78 1084.94 1158.48 1090.6 1158.48 1097.56 1158.48 1099.92 1157.71 1106.23 1156.17 1116.51 1154.62 1126.79 1153.85 1134.42 1153.85 1139.41 1153.85 1151.46 1155.17 1160.32 1157.81 1166 1160.44 1171.68 1163.39 1174.87 1166.65 1175.55L1166.65 1178.62C1161.47 1177.91 1156.86 1173.97 1152.82 1166.82 1148.78 1159.67 1146.76 1148.54 1146.76 1133.42 1146.76 1127.86 1147.56 1120.23 1149.18 1110.54 1150.8 1100.84 1151.6 1094.23 1151.6 1090.69 1151.6 1084.89 1150.75 1080.42 1149.06 1077.28 1147.36 1074.15 1145.18 1072.46 1142.51 1072.22L1142.51 1068.55C1145.18 1068.31 1147.36 1066.63 1149.06 1063.49 1150.75 1060.35 1151.6 1055.88 1151.6 1050.09 1151.6 1046.55 1150.8 1039.93 1149.18 1030.23 1147.56 1020.54 1146.76 1012.91 1146.76 1007.35 1146.76 991.997 1148.78 980.746 1152.82 973.593 1156.86 966.44 1161.47 962.507 1166.65 961.795Z" fill-rule="evenodd"/><text fill="#000000" fill-opacity="0" font-family="Arial,Arial_MSFontService,sans-serif" font-size="216.826" x="1142.51" y="1151.52">൝</text><path d="M1210.94 1004.18C1208.16 1004.18 1205.66 1005.3 1203.44 1007.54 1201.23 1009.78 1199.5 1012.79 1198.26 1016.56 1197.01 1020.33 1196.39 1024.09 1196.39 1027.84 1196.39 1030.65 1196.78 1032.76 1197.55 1034.15 1198.32 1035.54 1199.61 1036.23 1201.42 1036.23 1203.2 1036.23 1204.95 1035.46 1206.67 1033.92 1208.38 1032.38 1210.15 1030.19 1211.98 1027.34 1213.8 1024.49 1215.09 1021.2 1215.85 1017.47L1216.21 1015.73C1216.45 1014.62 1216.62 1013.66 1216.7 1012.85 1216.78 1012.04 1216.82 1011.16 1216.82 1010.22 1216.82 1008.14 1216.37 1006.61 1215.48 1005.64 1214.59 1004.66 1213.08 1004.18 1210.94 1004.18ZM1210.13 1000.98C1211.89 1000.98 1213.53 1001.17 1215.06 1001.56 1216.58 1001.95 1218.16 1002.65 1219.78 1003.65L1223.51 1000.98 1226.1 1001.62 1220.14 1027.32C1219.55 1029.88 1219.25 1031.88 1219.25 1033.32 1219.25 1034.4 1219.43 1035.18 1219.78 1035.67 1220.13 1036.15 1220.68 1036.4 1221.44 1036.4 1222.25 1036.4 1223.11 1036.07 1224.03 1035.4 1224.95 1034.74 1226.25 1033.48 1227.92 1031.61L1230.23 1033.88C1227.8 1036.48 1225.73 1038.32 1224.01 1039.42 1222.3 1040.51 1220.44 1041.06 1218.44 1041.06 1216.76 1041.06 1215.43 1040.5 1214.43 1039.4 1213.43 1038.29 1212.93 1036.82 1212.93 1034.98 1212.93 1033.49 1213.24 1031.91 1213.86 1030.24L1213.33 1030.07C1210.74 1033.86 1208.28 1036.63 1205.96 1038.38 1203.63 1040.14 1201.18 1041.02 1198.58 1041.02 1195.61 1041.02 1193.31 1039.9 1191.67 1037.65 1190.04 1035.41 1189.22 1032.26 1189.22 1028.21 1189.22 1023.56 1190.13 1019.1 1191.96 1014.82 1193.78 1010.53 1196.29 1007.16 1199.47 1004.68 1202.66 1002.21 1206.21 1000.98 1210.13 1000.98Z" fill-rule="evenodd"/><text fill="#000000" fill-opacity="0" font-family="Arial,Arial_MSFontService,sans-serif" font-size="40.0815" x="1189.22" y="1036.05">𝑎</text><path d="M1261.54 1022.41 1311.47 1022.41 1311.47 1027.8 1261.54 1027.8ZM1261.54 1005.6 1311.47 1005.6 1311.47 1010.99 1261.54 1010.99Z" fill-rule="evenodd"/><text fill="#000000" fill-opacity="0" font-family="Arial,Arial_MSFontService,sans-serif" font-size="22.209" x="1261.54" y="1025.03">=</text><path d="M1357.11 1001.3 1359.5 1001.3 1353.67 1027.32C1353.07 1029.97 1352.78 1031.97 1352.78 1033.32 1352.78 1034.4 1352.95 1035.18 1353.3 1035.67 1353.65 1036.15 1354.21 1036.4 1354.96 1036.4 1355.78 1036.4 1356.64 1036.07 1357.56 1035.4 1358.48 1034.74 1359.77 1033.48 1361.45 1031.61L1363.76 1033.88C1361.11 1036.67 1358.96 1038.56 1357.32 1039.56 1355.67 1040.56 1353.82 1041.06 1351.76 1041.06 1350.01 1041.06 1348.6 1040.42 1347.55 1039.13 1346.49 1037.85 1345.97 1036.21 1345.97 1034.21 1345.97 1032.15 1346.35 1029.53 1347.1 1026.35L1350.14 1013.09C1350.76 1010.39 1351.07 1008.36 1351.07 1007.01 1351.07 1005.8 1350.78 1004.97 1350.2 1004.54 1349.62 1004.11 1348.48 1003.87 1346.78 1003.81L1347.22 1001.66ZM1356.02 985.778 1363.19 985.778 1361.33 993.64 1354.15 993.64Z" fill-rule="evenodd"/><text fill="#000000" fill-opacity="0" font-family="Arial,Arial_MSFontService,sans-serif" font-size="55.2793" x="1345.97" y="1034.15">𝑖</text><path d="M1387.65 1027.91C1386.47 1027.91 1385.38 1028.17 1384.37 1028.69 1383.36 1029.2 1382.43 1029.91 1381.6 1030.8 1380.77 1031.69 1380.03 1032.73 1379.38 1033.9 1378.74 1035.07 1378.19 1036.31 1377.74 1037.62 1377.3 1038.93 1376.96 1040.28 1376.73 1041.66 1376.5 1043.04 1376.39 1044.36 1376.39 1045.63 1376.39 1047.78 1376.69 1049.37 1377.3 1050.41 1377.9 1051.46 1378.88 1051.98 1380.23 1051.98 1380.91 1051.98 1381.56 1051.86 1382.18 1051.62 1382.81 1051.38 1383.47 1051 1384.16 1050.49 1385.91 1049.12 1387.4 1047.45 1388.63 1045.48 1389.86 1043.52 1390.78 1041.2 1391.4 1038.51 1391.68 1037.28 1391.9 1036.17 1392.05 1035.18 1392.21 1034.19 1392.29 1033.24 1392.29 1032.35 1392.29 1030.76 1391.92 1029.62 1391.18 1028.94 1390.43 1028.25 1389.25 1027.91 1387.65 1027.91ZM1387.11 1024.96C1388.68 1024.96 1390.06 1025.15 1391.27 1025.51 1392.47 1025.88 1393.56 1026.38 1394.56 1027.02L1397.45 1024.96 1399.86 1025.59 1395.36 1045.1C1395.1 1046.21 1394.92 1047.13 1394.82 1047.85 1394.73 1048.58 1394.68 1049.22 1394.68 1049.77 1394.68 1050.53 1394.83 1051.07 1395.14 1051.41 1395.45 1051.75 1395.89 1051.92 1396.46 1051.92 1396.82 1051.92 1397.17 1051.85 1397.52 1051.71 1397.87 1051.57 1398.24 1051.35 1398.65 1051.05 1399.06 1050.76 1399.51 1050.37 1399.99 1049.91 1400.48 1049.44 1401.03 1048.88 1401.65 1048.22 1401.96 1048.56 1402.29 1048.89 1402.63 1049.22 1402.97 1049.55 1403.29 1049.87 1403.61 1050.19 1402.62 1051.2 1401.71 1052.07 1400.9 1052.8 1400.09 1053.52 1399.3 1054.12 1398.53 1054.58 1397.77 1055.05 1397.02 1055.39 1396.28 1055.6 1395.55 1055.8 1394.78 1055.91 1393.99 1055.91 1392.56 1055.91 1391.45 1055.45 1390.65 1054.52 1389.86 1053.6 1389.46 1052.33 1389.46 1050.73 1389.46 1049.83 1389.6 1048.98 1389.88 1048.17L1389.46 1047.99C1388.45 1049.4 1387.47 1050.6 1386.51 1051.59 1385.56 1052.58 1384.62 1053.4 1383.68 1054.05 1382.75 1054.69 1381.81 1055.16 1380.86 1055.46 1379.9 1055.76 1378.91 1055.91 1377.88 1055.91 1375.51 1055.91 1373.69 1055.06 1372.4 1053.36 1371.11 1051.66 1370.46 1049.2 1370.46 1045.96 1370.46 1044.03 1370.66 1042.18 1371.07 1040.41 1371.48 1038.63 1372.05 1036.96 1372.8 1035.4 1373.54 1033.84 1374.43 1032.42 1375.46 1031.14 1376.5 1029.86 1377.63 1028.77 1378.86 1027.85 1380.09 1026.94 1381.4 1026.23 1382.79 1025.72 1384.18 1025.22 1385.62 1024.96 1387.11 1024.96Z" fill-rule="evenodd"/><text fill="#000000" fill-opacity="0" font-family="Arial,Arial_MSFontService,sans-serif" font-size="30.9468" x="1370.46" y="1052.04">𝑎</text><path d="M1455.27 990.641 1461.03 990.641 1461.03 1013.98 1483.12 1013.98 1483.12 1019.37 1461.03 1019.37 1461.03 1042.72 1455.27 1042.72 1455.27 1019.37 1433.19 1019.37 1433.19 1013.98 1455.27 1013.98Z" fill-rule="evenodd"/><text fill="#000000" fill-opacity="0" font-family="Arial,Arial_MSFontService,sans-serif" font-size="52.0776" x="1433.19" y="1036.21">+</text><path d="M1545.53 982.211C1548.18 982.211 1550.46 982.427 1552.38 982.86L1550.8 989.749 1547.23 989.749C1546.86 988.209 1546.36 987.102 1545.76 986.426 1545.15 985.751 1544.25 985.413 1543.06 985.413 1541.52 985.413 1540.22 985.838 1539.15 986.689 1538.08 987.541 1537.17 988.804 1536.41 990.479 1535.66 992.154 1534.96 994.41 1534.31 997.247L1533.29 1001.66 1543.71 1001.66 1542.82 1005.76 1532.36 1005.76 1524.82 1041.1C1523.58 1046.96 1521.68 1051.33 1519.11 1054.21 1516.54 1057.09 1513.31 1058.52 1509.42 1058.52 1508.29 1058.52 1507.4 1058.46 1506.75 1058.32L1507.44 1054.76C1507.71 1054.84 1508.34 1054.88 1509.34 1054.88 1510.56 1054.88 1511.6 1054.57 1512.46 1053.94 1513.33 1053.32 1514.13 1052.24 1514.87 1050.7 1515.62 1049.16 1516.3 1047.03 1516.92 1044.3L1525.63 1005.76 1518.78 1005.76 1519.39 1002.96C1521.2 1002.85 1522.51 1002.7 1523.3 1002.52 1524.1 1002.33 1524.72 1002.04 1525.17 1001.66 1525.61 1001.29 1525.99 1000.79 1526.3 1000.19 1526.61 999.577 1527.01 998.463 1527.5 996.842 1528.93 991.978 1531.14 988.324 1534.12 985.879 1537.11 983.434 1540.91 982.211 1545.53 982.211Z" fill-rule="evenodd"/><text fill="#000000" fill-opacity="0" font-family="Arial,Arial_MSFontService,sans-serif" font-size="76.313" x="1506.75" y="1048.99">𝑓</text><path d="M1562.16 1027.91C1560.99 1027.91 1559.89 1028.17 1558.88 1028.69 1557.87 1029.2 1556.94 1029.91 1556.11 1030.8 1555.28 1031.69 1554.54 1032.73 1553.89 1033.9 1553.25 1035.07 1552.7 1036.31 1552.25 1037.62 1551.81 1038.93 1551.47 1040.28 1551.24 1041.66 1551.01 1043.04 1550.9 1044.36 1550.9 1045.63 1550.9 1047.78 1551.2 1049.37 1551.81 1050.41 1552.41 1051.46 1553.39 1051.98 1554.74 1051.98 1555.42 1051.98 1556.07 1051.86 1556.69 1051.62 1557.32 1051.38 1557.98 1051 1558.67 1050.49 1560.42 1049.12 1561.91 1047.45 1563.14 1045.48 1564.37 1043.52 1565.29 1041.2 1565.91 1038.51 1566.19 1037.28 1566.41 1036.17 1566.56 1035.18 1566.72 1034.19 1566.8 1033.24 1566.8 1032.35 1566.8 1030.76 1566.43 1029.62 1565.69 1028.94 1564.94 1028.25 1563.77 1027.91 1562.16 1027.91ZM1561.62 1024.96C1563.19 1024.96 1564.57 1025.15 1565.78 1025.51 1566.98 1025.88 1568.07 1026.38 1569.07 1027.02L1571.96 1024.96 1574.37 1025.59 1569.87 1045.1C1569.61 1046.21 1569.43 1047.13 1569.33 1047.85 1569.24 1048.58 1569.19 1049.22 1569.19 1049.77 1569.19 1050.53 1569.34 1051.07 1569.65 1051.41 1569.96 1051.75 1570.4 1051.92 1570.97 1051.92 1571.33 1051.92 1571.68 1051.85 1572.03 1051.71 1572.38 1051.57 1572.76 1051.35 1573.16 1051.05 1573.57 1050.76 1574.02 1050.37 1574.5 1049.91 1574.99 1049.44 1575.54 1048.88 1576.16 1048.22 1576.47 1048.56 1576.8 1048.89 1577.14 1049.22 1577.48 1049.55 1577.8 1049.87 1578.12 1050.19 1577.13 1051.2 1576.23 1052.07 1575.41 1052.8 1574.6 1053.52 1573.81 1054.12 1573.04 1054.58 1572.28 1055.05 1571.53 1055.39 1570.79 1055.6 1570.06 1055.8 1569.3 1055.91 1568.5 1055.91 1567.07 1055.91 1565.96 1055.45 1565.17 1054.52 1564.37 1053.6 1563.97 1052.33 1563.97 1050.73 1563.97 1049.83 1564.11 1048.98 1564.39 1048.17L1563.97 1047.99C1562.96 1049.4 1561.98 1050.6 1561.02 1051.59 1560.07 1052.58 1559.13 1053.4 1558.2 1054.05 1557.26 1054.69 1556.32 1055.16 1555.37 1055.46 1554.41 1055.76 1553.42 1055.91 1552.39 1055.91 1550.02 1055.91 1548.2 1055.06 1546.91 1053.36 1545.62 1051.66 1544.97 1049.2 1544.97 1045.96 1544.97 1044.03 1545.17 1042.18 1545.58 1040.41 1545.99 1038.63 1546.56 1036.96 1547.31 1035.4 1548.05 1033.84 1548.94 1032.42 1549.97 1031.14 1551.01 1029.86 1552.14 1028.77 1553.37 1027.85 1554.6 1026.94 1555.91 1026.23 1557.3 1025.72 1558.69 1025.22 1560.13 1024.96 1561.62 1024.96Z" fill-rule="evenodd"/><text fill="#000000" fill-opacity="0" font-family="Arial,Arial_MSFontService,sans-serif" font-size="30.9468" x="1544.97" y="1052.04">𝑎</text><path d="M1613.37 1010.86C1614.42 1010.86 1615.38 1011.11 1616.23 1011.61 1617.08 1012.11 1617.73 1012.81 1618.19 1013.7 1618.65 1014.59 1618.88 1015.59 1618.88 1016.7 1618.88 1017.83 1618.65 1018.85 1618.17 1019.74 1617.7 1020.63 1617.04 1021.32 1616.19 1021.81 1615.34 1022.29 1614.4 1022.54 1613.37 1022.54 1612.34 1022.54 1611.41 1022.29 1610.55 1021.81 1609.7 1021.32 1609.04 1020.63 1608.57 1019.74 1608.1 1018.85 1607.86 1017.83 1607.86 1016.7 1607.86 1015.59 1608.09 1014.59 1608.55 1013.7 1609.01 1012.81 1609.66 1012.11 1610.51 1011.61 1611.36 1011.11 1612.32 1010.86 1613.37 1010.86Z" fill-rule="evenodd"/><text fill="#000000" fill-opacity="0" font-family="Arial,Arial_MSFontService,sans-serif" font-size="11.6719" x="1607.86" y="1021.08">∙</text><path d="M1712.46 987.885C1710.6 987.885 1709.04 988.439 1707.78 989.547 1706.52 990.654 1705.51 992.248 1704.74 994.329 1703.97 996.409 1703.42 998.942 1703.1 1001.93 1702.77 1004.91 1702.61 1008.28 1702.61 1012.04 1702.61 1020.85 1703.43 1027.31 1705.06 1031.43 1706.7 1035.55 1709.23 1037.61 1712.66 1037.61 1715.93 1037.61 1718.36 1035.67 1719.94 1031.8 1721.52 1027.92 1722.31 1021.91 1722.31 1013.78 1722.31 1007.57 1721.9 1002.54 1721.09 998.686 1720.28 994.835 1719.15 992.073 1717.71 990.398 1716.26 988.723 1714.51 987.885 1712.46 987.885ZM1712.66 984.44C1718.58 984.44 1722.98 986.723 1725.87 991.289 1728.77 995.855 1730.21 1002.76 1730.21 1012 1730.21 1021.56 1728.66 1028.8 1725.57 1033.7 1722.48 1038.6 1717.96 1041.06 1712.01 1041.06 1706.18 1041.06 1701.84 1038.76 1698.98 1034.17 1696.13 1029.57 1694.71 1022.6 1694.71 1013.26 1694.71 1008.28 1695.15 1003.99 1696.03 1000.37 1696.9 996.747 1698.13 993.755 1699.71 991.391 1701.29 989.027 1703.19 987.277 1705.41 986.142 1707.62 985.008 1710.04 984.44 1712.66 984.44ZM1669.66 984.44 1671.89 984.44C1671.73 987.034 1671.65 990.627 1671.65 995.22L1671.65 1029.83C1671.65 1031.4 1671.74 1032.58 1671.91 1033.38 1672.09 1034.17 1672.4 1034.82 1672.84 1035.32 1673.29 1035.82 1673.93 1036.21 1674.77 1036.5 1675.61 1036.78 1676.66 1037 1677.93 1037.15 1679.2 1037.29 1680.87 1037.4 1682.95 1037.45L1682.95 1040.41 1653.01 1040.41 1653.01 1037.45C1656 1037.31 1658.15 1037.13 1659.43 1036.9 1660.71 1036.67 1661.69 1036.33 1662.37 1035.87 1663.04 1035.41 1663.54 1034.76 1663.85 1033.92 1664.16 1033.09 1664.31 1031.72 1664.31 1029.83L1664.31 996.963C1664.31 995.882 1664.12 995.092 1663.74 994.592 1663.37 994.092 1662.81 993.843 1662.08 993.843 1661.22 993.843 1659.99 994.288 1658.4 995.18 1656.8 996.072 1654.83 997.301 1652.48 998.868L1650.69 995.747Z" fill-rule="evenodd"/><text fill="#000000" fill-opacity="0" font-family="Arial,Arial_MSFontService,sans-serif" font-size="56.6167" x="1650.69" y="1033.98">10</text><path d="M1756.35 986.088C1755.26 986.088 1754.19 986.356 1753.12 986.892 1752.06 987.429 1751.06 988.188 1750.11 989.171 1749.17 990.154 1748.31 991.345 1747.54 992.745 1746.76 994.145 1746.12 995.709 1745.6 997.436 1748.12 997.417 1750.29 997.218 1752.11 996.841 1753.93 996.463 1755.42 995.947 1756.58 995.292 1757.74 994.637 1758.59 993.862 1759.14 992.969 1759.69 992.075 1759.96 991.092 1759.96 990.02 1759.96 988.789 1759.65 987.826 1759.04 987.131 1758.42 986.436 1757.53 986.088 1756.35 986.088ZM1757.64 983.14C1760.18 983.14 1762.11 983.695 1763.43 984.807 1764.75 985.919 1765.41 987.498 1765.41 989.543 1765.41 996.732 1758.61 1000.33 1745.01 1000.33 1744.91 1000.84 1744.83 1001.4 1744.77 1002.01 1744.71 1002.61 1744.68 1003.27 1744.68 1003.99 1744.68 1006.15 1745.12 1007.73 1746 1008.72 1746.89 1009.72 1748.26 1010.21 1750.13 1010.21 1751.1 1010.21 1752.03 1010.11 1752.9 1009.9 1753.77 1009.69 1754.63 1009.37 1755.48 1008.93 1756.32 1008.5 1757.17 1007.94 1758.02 1007.25 1758.88 1006.57 1759.77 1005.75 1760.7 1004.79L1762.94 1007.21C1760.63 1009.49 1758.34 1011.21 1756.04 1012.36 1753.75 1013.51 1751.28 1014.09 1748.64 1014.09 1747.09 1014.09 1745.72 1013.85 1744.52 1013.39 1743.31 1012.92 1742.3 1012.24 1741.48 1011.35 1740.65 1010.45 1740.03 1009.37 1739.6 1008.08 1739.17 1006.8 1738.96 1005.36 1738.96 1003.75 1738.96 1002.62 1739.06 1001.44 1739.26 1000.22 1739.46 999 1739.76 997.779 1740.18 996.558 1740.6 995.337 1741.11 994.145 1741.73 992.984 1742.35 991.822 1743.07 990.735 1743.9 989.722 1745.57 987.657 1747.58 986.044 1749.94 984.882 1752.29 983.72 1754.86 983.14 1757.64 983.14Z" fill-rule="evenodd"/><text fill="#000000" fill-opacity="0" font-family="Arial,Arial_MSFontService,sans-serif" font-size="30.9468" x="1738.96" y="1010.22">𝑒</text><path d="M1783.66 1001.44C1781.81 1001.44 1780.15 1002.18 1778.7 1003.66 1777.24 1005.14 1776.12 1007.08 1775.33 1009.48 1774.54 1011.88 1774.14 1014.12 1774.14 1016.21 1774.14 1018 1774.41 1019.32 1774.95 1020.17 1775.49 1021.03 1776.28 1021.46 1777.34 1021.46 1778.3 1021.46 1779.22 1021.21 1780.09 1020.71 1780.96 1020.21 1781.91 1019.39 1782.93 1018.25 1783.96 1017.1 1784.74 1016 1785.29 1014.95 1785.83 1013.9 1786.33 1012.44 1786.76 1010.57L1787.28 1008.08C1787.52 1006.92 1787.64 1005.94 1787.64 1005.12 1787.64 1003.8 1787.3 1002.86 1786.62 1002.29 1785.93 1001.72 1784.95 1001.44 1783.66 1001.44ZM1783.22 998.775C1784.71 998.775 1785.97 998.938 1787.01 999.263 1788.05 999.589 1788.91 999.963 1789.6 1000.39L1792.01 998.775 1794.26 999.312 1790.6 1015.65C1790.35 1016.69 1790.19 1017.5 1790.1 1018.07 1790.01 1018.65 1789.96 1019.18 1789.96 1019.65 1789.96 1020.8 1790.5 1021.38 1791.57 1021.38 1792.24 1021.38 1792.91 1021.12 1793.59 1020.6 1794.26 1020.08 1795.08 1019.31 1796.04 1018.28L1797.9 1020.06C1796.19 1021.77 1794.7 1023.02 1793.43 1023.8 1792.16 1024.58 1790.83 1024.97 1789.45 1024.97 1788.13 1024.97 1787.11 1024.55 1786.4 1023.71 1785.68 1022.88 1785.32 1021.75 1785.32 1020.33 1785.32 1019.7 1785.37 1019.15 1785.47 1018.7L1785.1 1018.57C1783.4 1020.82 1781.76 1022.45 1780.21 1023.46 1778.66 1024.47 1776.99 1024.97 1775.22 1024.97 1773.21 1024.97 1771.67 1024.25 1770.58 1022.81 1769.49 1021.37 1768.94 1019.25 1768.94 1016.45 1768.94 1013.7 1769.58 1010.9 1770.85 1008.05 1772.12 1005.2 1773.84 1002.95 1776.01 1001.28 1778.18 999.609 1780.59 998.775 1783.22 998.775Z" fill-rule="evenodd"/><text fill="#000000" fill-opacity="0" font-family="Arial,Arial_MSFontService,sans-serif" font-size="26.1963" x="1768.94" y="1021.7">𝑎</text><path d="M1216.21 1105.01C1214.92 1105.01 1213.64 1105.42 1212.38 1106.25 1211.13 1107.07 1209.73 1108.43 1208.19 1110.34 1206.65 1112.24 1205.39 1114.2 1204.42 1116.2 1203.45 1118.19 1202.62 1120.75 1201.95 1123.85L1201.58 1125.56C1201.18 1127.45 1200.98 1129.29 1200.98 1131.07 1200.98 1133.2 1201.44 1134.74 1202.37 1135.69 1203.31 1136.63 1204.85 1137.11 1207.01 1137.11 1208.12 1137.11 1209.18 1136.92 1210.18 1136.56 1211.18 1136.2 1212.2 1135.59 1213.24 1134.76 1214.28 1133.92 1215.26 1132.82 1216.19 1131.45 1217.13 1130.09 1217.98 1128.41 1218.77 1126.41 1219.55 1124.41 1220.16 1122.27 1220.59 1119.98 1221.02 1117.7 1221.24 1115.52 1221.24 1113.44 1221.24 1110.63 1220.84 1108.52 1220.04 1107.12 1219.25 1105.71 1217.97 1105.01 1216.21 1105.01ZM1209.12 1081.71 1211.47 1081.71 1204.34 1110.08 1204.87 1110.24C1207.49 1106.73 1209.95 1104.19 1212.24 1102.62 1214.54 1101.05 1216.84 1100.27 1219.13 1100.27 1222.08 1100.27 1224.37 1101.39 1226 1103.63 1227.64 1105.87 1228.45 1109.04 1228.45 1113.12 1228.45 1117.57 1227.56 1121.96 1225.76 1126.27 1223.96 1130.58 1221.47 1133.99 1218.28 1136.52 1215.09 1139.05 1211.53 1140.31 1207.58 1140.31 1203.99 1140.31 1200.8 1139.43 1198.02 1137.67L1194.29 1140.31 1191.7 1139.66 1202.19 1093.34C1202.81 1090.58 1203.12 1088.58 1203.12 1087.34 1203.12 1086.2 1202.78 1085.41 1202.09 1084.95 1201.4 1084.49 1200.17 1084.23 1198.38 1084.18L1198.87 1082.07Z" fill-rule="evenodd"/><text fill="#000000" fill-opacity="0" font-family="Arial,Arial_MSFontService,sans-serif" font-size="58.6025" x="1191.7" y="1132.98">𝑏</text><path d="M1263.21 1121.67 1313.14 1121.67 1313.14 1127.06 1263.21 1127.06ZM1263.21 1104.85 1313.14 1104.85 1313.14 1110.24 1263.21 1110.24Z" fill-rule="evenodd"/><text fill="#000000" fill-opacity="0" font-family="Arial,Arial_MSFontService,sans-serif" font-size="22.209" x="1263.21" y="1124.28">=</text><path d="M1358.79 1100.55 1361.18 1100.55 1355.34 1126.57C1354.75 1129.22 1354.45 1131.22 1354.45 1132.57 1354.45 1133.65 1354.62 1134.43 1354.98 1134.92 1355.33 1135.41 1355.88 1135.65 1356.64 1135.65 1357.45 1135.65 1358.31 1135.32 1359.23 1134.66 1360.15 1133.99 1361.45 1132.73 1363.12 1130.87L1365.43 1133.14C1362.78 1135.92 1360.64 1137.81 1358.99 1138.81 1357.34 1139.81 1355.49 1140.31 1353.44 1140.31 1351.68 1140.31 1350.27 1139.67 1349.22 1138.38 1348.17 1137.1 1347.64 1135.46 1347.64 1133.46 1347.64 1131.41 1348.02 1128.79 1348.78 1125.6L1351.81 1112.35C1352.44 1109.64 1352.75 1107.62 1352.75 1106.27 1352.75 1105.05 1352.46 1104.23 1351.88 1103.79 1351.29 1103.36 1350.15 1103.12 1348.45 1103.06L1348.9 1100.92ZM1357.69 1085.03 1364.86 1085.03 1363 1092.89 1355.83 1092.89Z" fill-rule="evenodd"/><text fill="#000000" fill-opacity="0" font-family="Arial,Arial_MSFontService,sans-serif" font-size="55.2793" x="1347.64" y="1133.4">𝑖</text><path d="M1391.31 1128.21C1390.42 1128.21 1389.44 1128.5 1388.37 1129.08 1387.29 1129.67 1386.24 1130.54 1385.19 1131.69 1384.15 1132.84 1383.19 1134.27 1382.3 1135.96 1381.42 1137.66 1380.72 1139.61 1380.2 1141.82 1380.05 1142.89 1379.87 1143.94 1379.67 1144.97 1379.47 1146.01 1379.37 1146.97 1379.37 1147.86 1379.37 1149.47 1379.73 1150.61 1380.46 1151.27 1381.18 1151.94 1382.35 1152.27 1383.96 1152.27 1385.59 1152.27 1387.09 1151.75 1388.46 1150.71 1389.83 1149.67 1391 1148.3 1391.98 1146.61 1392.97 1144.93 1393.74 1143.03 1394.29 1140.92 1394.85 1138.82 1395.13 1136.69 1395.13 1134.55 1395.13 1132.43 1394.82 1130.84 1394.22 1129.78 1393.61 1128.73 1392.65 1128.21 1391.31 1128.21ZM1384.35 1113.97 1386.49 1113.97 1382.32 1130.98 1382.74 1131.18C1383.75 1129.99 1384.72 1128.96 1385.64 1128.07 1386.56 1127.19 1387.47 1126.46 1388.35 1125.9 1389.23 1125.33 1390.11 1124.91 1390.99 1124.63 1391.86 1124.35 1392.76 1124.21 1393.7 1124.21 1396.04 1124.21 1397.85 1125.07 1399.12 1126.78 1400.39 1128.48 1401.02 1130.98 1401.02 1134.25 1401.02 1137.11 1400.58 1139.81 1399.7 1142.34 1398.82 1144.87 1397.62 1147.09 1396.11 1149 1394.6 1150.9 1392.85 1152.41 1390.85 1153.51 1388.86 1154.61 1386.75 1155.16 1384.52 1155.16 1383.09 1155.16 1381.77 1155.02 1380.56 1154.73 1379.35 1154.44 1378.17 1153.96 1377.02 1153.28 1376.52 1153.56 1376.02 1153.87 1375.5 1154.21 1374.98 1154.55 1374.5 1154.86 1374.04 1155.16 1373.68 1155.06 1373.3 1154.97 1372.91 1154.88 1372.51 1154.79 1372.13 1154.68 1371.78 1154.57L1378.92 1122.64C1379.14 1121.64 1379.31 1120.83 1379.42 1120.19 1379.52 1119.56 1379.58 1119 1379.58 1118.53 1379.58 1118.15 1379.52 1117.82 1379.4 1117.54 1379.28 1117.26 1379.07 1117.04 1378.78 1116.87 1378.48 1116.7 1378.08 1116.58 1377.58 1116.5 1377.09 1116.42 1376.46 1116.37 1375.71 1116.35L1376.15 1114.33Z" fill-rule="evenodd"/><text fill="#000000" fill-opacity="0" font-family="Arial,Arial_MSFontService,sans-serif" font-size="41.1929" x="1371.78" y="1150.01">𝑏</text><path d="M1455.37 1089.89 1461.12 1089.89 1461.12 1113.24 1483.21 1113.24 1483.21 1118.63 1461.12 1118.63 1461.12 1141.97 1455.37 1141.97 1455.37 1118.63 1433.28 1118.63 1433.28 1113.24 1455.37 1113.24Z" fill-rule="evenodd"/><text fill="#000000" fill-opacity="0" font-family="Arial,Arial_MSFontService,sans-serif" font-size="52.0776" x="1433.28" y="1135.46">+</text><path d="M1545.62 1081.46C1548.27 1081.46 1550.56 1081.68 1552.47 1082.11L1550.89 1089 1547.33 1089C1546.95 1087.46 1546.46 1086.35 1545.85 1085.68 1545.24 1085 1544.34 1084.66 1543.15 1084.66 1541.61 1084.66 1540.31 1085.09 1539.24 1085.94 1538.17 1086.79 1537.26 1088.06 1536.51 1089.73 1535.75 1091.41 1535.05 1093.66 1534.4 1096.5L1533.39 1100.92 1543.8 1100.92 1542.91 1105.01 1532.45 1105.01 1524.92 1140.35C1523.67 1146.21 1521.77 1150.58 1519.2 1153.46 1516.63 1156.34 1513.41 1157.78 1509.51 1157.78 1508.38 1157.78 1507.49 1157.71 1506.84 1157.57L1507.53 1154.01C1507.8 1154.09 1508.43 1154.13 1509.43 1154.13 1510.65 1154.13 1511.69 1153.82 1512.55 1153.2 1513.42 1152.58 1514.22 1151.49 1514.97 1149.95 1515.71 1148.41 1516.39 1146.28 1517.01 1143.55L1525.73 1105.01 1518.88 1105.01 1519.48 1102.21C1521.29 1102.11 1522.6 1101.96 1523.4 1101.77 1524.19 1101.58 1524.81 1101.29 1525.26 1100.92 1525.71 1100.54 1526.08 1100.05 1526.39 1099.44 1526.7 1098.83 1527.1 1097.71 1527.59 1096.09 1529.02 1091.23 1531.23 1087.58 1534.22 1085.13 1537.2 1082.69 1541 1081.46 1545.62 1081.46Z" fill-rule="evenodd"/><text fill="#000000" fill-opacity="0" font-family="Arial,Arial_MSFontService,sans-serif" font-size="76.313" x="1506.84" y="1148.24">𝑓</text><path d="M1564.24 1128.21C1563.35 1128.21 1562.37 1128.5 1561.3 1129.08 1560.22 1129.67 1559.17 1130.54 1558.12 1131.69 1557.08 1132.84 1556.12 1134.27 1555.23 1135.96 1554.35 1137.66 1553.65 1139.61 1553.13 1141.82 1552.98 1142.89 1552.8 1143.94 1552.6 1144.97 1552.4 1146.01 1552.3 1146.97 1552.3 1147.86 1552.3 1149.47 1552.66 1150.61 1553.39 1151.27 1554.11 1151.94 1555.28 1152.27 1556.89 1152.27 1558.52 1152.27 1560.01 1151.75 1561.38 1150.71 1562.75 1149.67 1563.93 1148.3 1564.91 1146.61 1565.9 1144.93 1566.67 1143.03 1567.22 1140.92 1567.78 1138.82 1568.06 1136.69 1568.06 1134.55 1568.06 1132.43 1567.75 1130.84 1567.15 1129.78 1566.54 1128.73 1565.57 1128.21 1564.24 1128.21ZM1557.27 1113.97 1559.42 1113.97 1555.25 1130.98 1555.67 1131.18C1556.68 1129.99 1557.65 1128.96 1558.57 1128.07 1559.49 1127.19 1560.4 1126.46 1561.28 1125.9 1562.16 1125.33 1563.04 1124.91 1563.92 1124.63 1564.79 1124.35 1565.69 1124.21 1566.63 1124.21 1568.97 1124.21 1570.78 1125.07 1572.05 1126.78 1573.32 1128.48 1573.95 1130.98 1573.95 1134.25 1573.95 1137.11 1573.51 1139.81 1572.63 1142.34 1571.74 1144.87 1570.55 1147.09 1569.04 1149 1567.53 1150.9 1565.78 1152.41 1563.78 1153.51 1561.79 1154.61 1559.68 1155.16 1557.45 1155.16 1556.02 1155.16 1554.7 1155.02 1553.49 1154.73 1552.28 1154.44 1551.1 1153.96 1549.95 1153.28 1549.45 1153.56 1548.94 1153.87 1548.43 1154.21 1547.91 1154.55 1547.43 1154.86 1546.97 1155.16 1546.61 1155.06 1546.23 1154.97 1545.84 1154.88 1545.44 1154.79 1545.06 1154.68 1544.7 1154.57L1551.85 1122.64C1552.07 1121.64 1552.24 1120.83 1552.34 1120.19 1552.45 1119.56 1552.51 1119 1552.51 1118.53 1552.51 1118.15 1552.45 1117.82 1552.33 1117.54 1552.21 1117.26 1552 1117.04 1551.7 1116.87 1551.41 1116.7 1551.01 1116.58 1550.51 1116.5 1550.02 1116.42 1549.39 1116.37 1548.64 1116.35L1549.08 1114.33Z" fill-rule="evenodd"/><text fill="#000000" fill-opacity="0" font-family="Arial,Arial_MSFontService,sans-serif" font-size="41.1929" x="1544.7" y="1150.01">𝑏</text><path d="M1611.88 1110.12C1612.93 1110.12 1613.89 1110.37 1614.74 1110.87 1615.59 1111.37 1616.24 1112.06 1616.7 1112.95 1617.16 1113.84 1617.39 1114.84 1617.39 1115.95 1617.39 1117.09 1617.16 1118.1 1616.68 1118.99 1616.21 1119.88 1615.55 1120.57 1614.7 1121.06 1613.85 1121.54 1612.91 1121.79 1611.88 1121.79 1610.85 1121.79 1609.92 1121.54 1609.06 1121.06 1608.21 1120.57 1607.55 1119.88 1607.08 1118.99 1606.61 1118.1 1606.37 1117.09 1606.37 1115.95 1606.37 1114.84 1606.6 1113.84 1607.06 1112.95 1607.52 1112.06 1608.17 1111.37 1609.02 1110.87 1609.87 1110.37 1610.83 1110.12 1611.88 1110.12Z" fill-rule="evenodd"/><text fill="#000000" fill-opacity="0" font-family="Arial,Arial_MSFontService,sans-serif" font-size="11.6719" x="1606.37" y="1120.33">∙</text><path d="M1710.97 1087.14C1709.11 1087.14 1707.55 1087.69 1706.29 1088.8 1705.03 1089.91 1704.02 1091.5 1703.25 1093.58 1702.48 1095.66 1701.93 1098.19 1701.61 1101.18 1701.28 1104.17 1701.12 1107.54 1701.12 1111.29 1701.12 1120.1 1701.94 1126.56 1703.57 1130.68 1705.21 1134.8 1707.74 1136.86 1711.17 1136.86 1714.44 1136.86 1716.87 1134.93 1718.45 1131.05 1720.03 1127.17 1720.82 1121.17 1720.82 1113.03 1720.82 1106.82 1720.41 1101.79 1719.6 1097.94 1718.79 1094.09 1717.66 1091.32 1716.22 1089.65 1714.77 1087.97 1713.02 1087.14 1710.97 1087.14ZM1711.17 1083.69C1717.09 1083.69 1721.49 1085.98 1724.39 1090.54 1727.28 1095.11 1728.72 1102.01 1728.72 1111.25 1728.72 1120.82 1727.17 1128.05 1724.08 1132.95 1720.99 1137.86 1716.47 1140.31 1710.52 1140.31 1704.69 1140.31 1700.35 1138.01 1697.5 1133.42 1694.64 1128.83 1693.22 1121.86 1693.22 1112.51 1693.22 1107.54 1693.66 1103.24 1694.54 1099.62 1695.41 1096 1696.64 1093.01 1698.22 1090.64 1699.81 1088.28 1701.7 1086.53 1703.92 1085.39 1706.13 1084.26 1708.55 1083.69 1711.17 1083.69ZM1668.17 1083.69 1670.4 1083.69C1670.24 1086.29 1670.16 1089.88 1670.16 1094.47L1670.16 1129.08C1670.16 1130.65 1670.25 1131.83 1670.42 1132.63 1670.6 1133.43 1670.91 1134.07 1671.35 1134.57 1671.8 1135.07 1672.44 1135.47 1673.28 1135.75 1674.12 1136.03 1675.17 1136.25 1676.44 1136.4 1677.71 1136.55 1679.38 1136.65 1681.47 1136.7L1681.47 1139.66 1651.52 1139.66 1651.52 1136.7C1654.51 1136.57 1656.66 1136.38 1657.94 1136.15 1659.22 1135.93 1660.2 1135.58 1660.88 1135.12 1661.55 1134.66 1662.05 1134.01 1662.36 1133.18 1662.67 1132.34 1662.82 1130.97 1662.82 1129.08L1662.82 1096.22C1662.82 1095.13 1662.63 1094.34 1662.26 1093.84 1661.88 1093.34 1661.32 1093.09 1660.59 1093.09 1659.73 1093.09 1658.5 1093.54 1656.91 1094.43 1655.31 1095.32 1653.34 1096.55 1650.99 1098.12L1649.21 1095Z" fill-rule="evenodd"/><text fill="#000000" fill-opacity="0" font-family="Arial,Arial_MSFontService,sans-serif" font-size="56.6167" x="1649.21" y="1133.23">10</text><path d="M1754.87 1085.34C1753.77 1085.34 1752.7 1085.61 1751.63 1086.14 1750.57 1086.68 1749.57 1087.44 1748.63 1088.42 1747.68 1089.41 1746.82 1090.6 1746.05 1092 1745.27 1093.4 1744.63 1094.96 1744.11 1096.69 1746.63 1096.67 1748.8 1096.47 1750.62 1096.09 1752.44 1095.72 1753.93 1095.2 1755.09 1094.54 1756.25 1093.89 1757.1 1093.11 1757.65 1092.22 1758.2 1091.33 1758.47 1090.34 1758.47 1089.27 1758.47 1088.04 1758.16 1087.08 1757.55 1086.38 1756.93 1085.69 1756.04 1085.34 1754.87 1085.34ZM1756.15 1082.39C1758.69 1082.39 1760.62 1082.95 1761.94 1084.06 1763.26 1085.17 1763.92 1086.75 1763.92 1088.8 1763.92 1095.98 1757.12 1099.58 1743.52 1099.58 1743.42 1100.09 1743.34 1100.65 1743.28 1101.26 1743.22 1101.87 1743.19 1102.53 1743.19 1103.24 1743.19 1105.41 1743.63 1106.98 1744.51 1107.98 1745.4 1108.97 1746.77 1109.47 1748.64 1109.47 1749.61 1109.47 1750.54 1109.36 1751.41 1109.15 1752.28 1108.95 1753.14 1108.62 1753.99 1108.19 1754.83 1107.75 1755.68 1107.19 1756.53 1106.5 1757.39 1105.82 1758.28 1105 1759.21 1104.05L1761.45 1106.46C1759.14 1108.74 1756.85 1110.46 1754.55 1111.61 1752.26 1112.76 1749.79 1113.34 1747.15 1113.34 1745.6 1113.34 1744.23 1113.11 1743.03 1112.64 1741.82 1112.17 1740.81 1111.49 1739.99 1110.6 1739.16 1109.7 1738.54 1108.62 1738.11 1107.34 1737.68 1106.06 1737.47 1104.61 1737.47 1103 1737.47 1101.87 1737.57 1100.69 1737.77 1099.47 1737.97 1098.25 1738.27 1097.03 1738.69 1095.81 1739.11 1094.59 1739.63 1093.4 1740.24 1092.24 1740.86 1091.07 1741.58 1089.99 1742.42 1088.97 1744.08 1086.91 1746.09 1085.3 1748.45 1084.13 1750.8 1082.97 1753.37 1082.39 1756.15 1082.39Z" fill-rule="evenodd"/><text fill="#000000" fill-opacity="0" font-family="Arial,Arial_MSFontService,sans-serif" font-size="30.9468" x="1737.47" y="1109.47">𝑒</text><path d="M1786.5 1105.69C1785.64 1105.69 1784.8 1105.89 1783.99 1106.29 1783.18 1106.69 1782.24 1107.46 1781.17 1108.61 1780.1 1109.76 1779.28 1110.89 1778.7 1112.02 1778.13 1113.14 1777.62 1114.72 1777.18 1116.75L1776.69 1119.07C1776.45 1120.21 1776.32 1121.19 1776.32 1122.03 1776.32 1123.34 1776.65 1124.29 1777.29 1124.86 1777.93 1125.43 1778.9 1125.71 1780.21 1125.71 1782.08 1125.71 1783.73 1125 1785.16 1123.58 1786.59 1122.15 1787.7 1120.24 1788.48 1117.85 1789.26 1115.46 1789.65 1113.15 1789.65 1110.94 1789.65 1109.17 1789.39 1107.85 1788.87 1106.99 1788.35 1106.12 1787.56 1105.69 1786.5 1105.69ZM1780.52 1092.63 1782.62 1092.63 1779.06 1107.45 1779.4 1107.57C1781.11 1105.7 1782.67 1104.33 1784.08 1103.46 1785.48 1102.59 1787 1102.15 1788.63 1102.15 1790.63 1102.15 1792.17 1102.88 1793.26 1104.32 1794.34 1105.77 1794.88 1107.9 1794.88 1110.7 1794.88 1113.55 1794.24 1116.39 1792.97 1119.22 1791.71 1122.05 1790 1124.28 1787.85 1125.91 1785.7 1127.53 1783.3 1128.35 1780.65 1128.35 1779.47 1128.35 1778.38 1128.23 1777.36 1127.99 1776.34 1127.76 1775.31 1127.35 1774.25 1126.76 1773.84 1126.99 1773.43 1127.26 1773 1127.57L1771.76 1128.35 1769.63 1127.76 1775.96 1099.76C1776.15 1098.96 1776.28 1098.34 1776.35 1097.88 1776.41 1097.42 1776.45 1097.01 1776.45 1096.63 1776.45 1096 1776.21 1095.56 1775.75 1095.3 1775.29 1095.05 1774.39 1094.9 1773.05 1094.85L1773.44 1092.97Z" fill-rule="evenodd"/><text fill="#000000" fill-opacity="0" font-family="Arial,Arial_MSFontService,sans-serif" font-size="35.7178" x="1769.63" y="1123.88">𝑏</text></g></svg>