<svg width="697" height="919" xmlns="http://www.w3.org/2000/svg" xmlns:xlink="http://www.w3.org/1999/xlink" overflow="hidden"><defs><clipPath id="clip0"><rect x="1443" y="294" width="697" height="919"/></clipPath></defs><g clip-path="url(#clip0)" transform="translate(-1443 -294)"><path d="M1595.01 1105.61 1601.59 883.412 2013.72 296.662 2007.14 518.86Z" fill="#DEEBF7" fill-rule="evenodd"/><path d="M1.40968-0.983317 381.277 543.591 378.457 545.558-1.40968 0.983317ZM388.522 532.949 392.978 563.37 365.967 548.682Z" transform="matrix(1 0 0 -1 1605.5 1090.87)"/><path d="M1998 508C1998 501.925 2002.92 497 2009 497 2015.07 497 2020 501.925 2020 508 2020 514.075 2015.07 519 2009 519 2002.92 519 1998 514.075 1998 508Z" fill-rule="evenodd"/><path d="M1584 1109.5C1584 1103.7 1588.7 1099 1594.5 1099 1600.3 1099 1605 1103.7 1605 1109.5 1605 1115.3 1600.3 1120 1594.5 1120 1588.7 1120 1584 1115.3 1584 1109.5Z" fill-rule="evenodd"/><path d="M1648.06 1136.45 1635.37 1158.91 1649.31 1158.91 1648.71 1147.43C1648.63 1145.86 1648.57 1143.9 1648.53 1141.55 1648.48 1139.2 1648.46 1137.5 1648.46 1136.45ZM1648.28 1128.93 1653.66 1128.93 1656.23 1168.68C1656.34 1170.55 1656.56 1172.02 1656.87 1173.08 1657.18 1174.14 1657.6 1174.92 1658.13 1175.43 1658.67 1175.94 1659.45 1176.27 1660.47 1176.41L1660.08 1178.16 1645.25 1178.16 1645.64 1176.41C1647.04 1176.29 1648.09 1175.75 1648.78 1174.77 1649.47 1173.8 1649.81 1172.09 1649.81 1169.64 1649.81 1168.71 1649.77 1167.7 1649.7 1166.61L1649.45 1162.01 1633.77 1162.01 1631.81 1165.5C1630.88 1167.14 1630.21 1168.55 1629.78 1169.73 1629.35 1170.9 1629.14 1171.94 1629.14 1172.85 1629.14 1174.84 1630.34 1176.03 1632.74 1176.41L1632.34 1178.16 1617.77 1178.16 1618.16 1176.41C1618.89 1176.32 1619.59 1176.02 1620.24 1175.54 1620.9 1175.05 1621.59 1174.31 1622.33 1173.33 1623.06 1172.34 1624.1 1170.71 1625.43 1168.43Z" fill-rule="evenodd"/><text fill="#000000" fill-opacity="0" font-family="Arial,Arial_MSFontService,sans-serif" font-size="49.2251" x="1617.77" y="1172">𝐴</text><path d="M2071.52 500.196 2067.1 520.62C2068.54 520.715 2070.33 520.762 2072.44 520.762 2076.05 520.762 2078.77 520.353 2080.59 519.533 2082.4 518.713 2083.97 517.257 2085.27 515.166 2086.58 513.075 2087.23 510.497 2087.23 507.431 2087.23 505.031 2086.44 503.225 2084.86 502.013 2083.28 500.802 2080.93 500.196 2077.79 500.196ZM2082.07 478.381C2080 478.381 2078.07 478.417 2076.29 478.488L2072.26 497.059 2077.29 497.059C2080.09 497.059 2082.32 496.833 2083.97 496.382 2085.62 495.93 2087.08 495.122 2088.34 493.958 2089.6 492.793 2090.51 491.516 2091.08 490.126 2091.65 488.736 2091.94 487.126 2091.94 485.296 2091.94 484.274 2091.76 483.318 2091.41 482.427 2091.05 481.536 2090.44 480.775 2089.57 480.146 2088.7 479.516 2087.7 479.064 2086.58 478.791 2085.45 478.518 2083.94 478.381 2082.07 478.381ZM2066.06 475.244 2083.71 475.244C2087.27 475.244 2090.13 475.619 2092.28 476.367 2094.43 477.116 2096.01 478.215 2097.02 479.664 2098.03 481.114 2098.53 482.932 2098.53 485.118 2098.53 488.231 2097.58 490.946 2095.68 493.263 2093.78 495.58 2090.95 497.356 2087.2 498.592L2087.13 498.984C2089.34 499.863 2091.04 501.116 2092.22 502.744 2093.41 504.372 2094.01 506.219 2094.01 508.287 2094.01 511.447 2093.28 514.15 2091.83 516.396 2090.38 518.642 2088.21 520.454 2085.31 521.832 2082.41 523.21 2078.17 523.899 2072.58 523.899L2056.72 523.899 2057.11 522.153C2058.02 522.01 2058.7 521.778 2059.15 521.458 2059.6 521.137 2059.98 520.691 2060.29 520.121 2060.6 519.551 2060.88 518.855 2061.14 518.036 2061.4 517.216 2061.8 515.63 2062.32 513.277L2068.38 485.831C2068.9 483.455 2069.16 481.577 2069.16 480.199 2069.16 479.035 2068.89 478.227 2068.34 477.775 2067.8 477.324 2066.91 477.062 2065.67 476.991Z" fill-rule="evenodd"/><text fill="#000000" fill-opacity="0" font-family="Arial,Arial_MSFontService,sans-serif" font-size="48.6548" x="2056.72" y="517.817">𝐵</text><path d="M1.71825-0.0414569 5.84735 171.096 2.41085 171.179-1.71825 0.0414569ZM17.7645 166.223 4.68186 194.047-9.72745 166.887Z" transform="matrix(1 0 0 -1 1594.5 1087.55)"/><path d="M0 0 415.157 595.166" stroke="#000000" stroke-width="2.29167" stroke-miterlimit="8" stroke-dasharray="18.3333 6.875" fill="none" fill-rule="evenodd" transform="matrix(1 0 0 -1 1597 892.166)"/><path d="M0 0 4.68186 194.047" stroke="#000000" stroke-width="2.29167" stroke-miterlimit="8" stroke-dasharray="18.3333 6.875" fill="none" fill-rule="evenodd" transform="matrix(1 0 0 -1 2007 489.047)"/><text font-family="Cambria Math,Cambria Math_MSFontService,sans-serif" font-weight="400" font-size="50" transform="translate(1551.07 1025)">𝑟</text><path d="M18.4082-32.2021 0-32.2021 0-34.4971 14.8926-34.4971 10.9863-37.8906 12.2803-39.3555 18.4082-34.0576Z" transform="matrix(1 0 0 1 1556.89 1025)"/><path d="M1859.31 800.144C1857.65 800.144 1856.16 800.815 1854.85 802.158 1853.53 803.5 1852.49 805.311 1851.73 807.59 1850.98 809.868 1850.6 812.139 1850.6 814.401 1850.6 816.094 1850.83 817.36 1851.29 818.198 1851.76 819.036 1852.53 819.455 1853.63 819.455 1854.13 819.455 1854.64 819.345 1855.16 819.125 1855.68 818.906 1856.23 818.552 1856.79 818.063 1857.35 817.575 1857.9 816.981 1858.45 816.281 1858.99 815.581 1859.49 814.877 1859.95 814.169 1860.4 813.461 1860.83 812.623 1861.22 811.655 1861.61 810.686 1861.94 809.519 1862.22 808.151L1862.44 807.102C1862.68 805.93 1862.8 804.823 1862.8 803.781 1862.8 802.512 1862.54 801.588 1862 801.01 1861.46 800.432 1860.57 800.144 1859.31 800.144ZM1869.54 787.058 1870.98 787.058 1864.9 814.084C1864.55 815.679 1864.37 816.883 1864.37 817.697 1864.37 818.348 1864.47 818.82 1864.68 819.113 1864.9 819.406 1865.23 819.553 1865.69 819.553 1866.17 819.553 1866.69 819.353 1867.25 818.955 1867.8 818.556 1868.58 817.795 1869.59 816.672L1870.98 818.039C1869.49 819.618 1868.22 820.733 1867.2 821.384 1866.17 822.035 1865.07 822.36 1863.88 822.36 1862.87 822.36 1862.06 822.027 1861.46 821.359 1860.86 820.692 1860.56 819.805 1860.56 818.698 1860.56 817.803 1860.75 816.851 1861.12 815.842L1860.8 815.744C1859.24 818.023 1857.76 819.691 1856.36 820.749 1854.96 821.807 1853.48 822.336 1851.92 822.336 1850.13 822.336 1848.74 821.66 1847.75 820.31 1846.77 818.959 1846.28 817.062 1846.28 814.621 1846.28 811.822 1846.83 809.132 1847.92 806.552 1849.02 803.972 1850.53 801.938 1852.45 800.449 1854.37 798.959 1856.51 798.215 1858.87 798.215 1859.87 798.215 1860.78 798.317 1861.62 798.52 1862.46 798.723 1863.32 799.077 1864.2 799.582L1865.47 793.942C1865.6 793.405 1865.71 792.811 1865.81 792.16 1865.91 791.509 1865.95 790.939 1865.95 790.451 1865.95 789.963 1865.86 789.593 1865.69 789.34 1865.51 789.088 1865.25 788.905 1864.92 788.791 1864.58 788.677 1863.98 788.596 1863.12 788.547L1863.42 787.277Z" fill-rule="evenodd"/><text fill="#000000" fill-opacity="0" font-family="Arial,Arial_MSFontService,sans-serif" font-size="35.3027" x="1846.28" y="817.948">𝑑</text><path d="M1867.31 771.431 1873.44 776.729 1873.44 778.584 1855.03 778.584 1855.03 776.289 1869.93 776.289 1866.02 772.896Z" fill-rule="evenodd"/><text fill="#000000" fill-opacity="0" font-family="Arial,Arial_MSFontService,sans-serif" font-size="7.15332" x="1855.03" y="777.69">റ</text></g></svg>