<svg width="697" height="919" xmlns="http://www.w3.org/2000/svg" xmlns:xlink="http://www.w3.org/1999/xlink" overflow="hidden"><defs><clipPath id="clip0"><rect x="1443" y="294" width="697" height="919"/></clipPath></defs><g clip-path="url(#clip0)" transform="translate(-1443 -294)"><path d="M1595.01 1105.61 1601.59 883.412 2013.72 296.662 2007.14 518.86Z" fill="#DEEBF7" fill-rule="evenodd"/><path d="M1.40968-0.983317 381.277 543.591 378.457 545.558-1.40968 0.983317ZM388.522 532.949 392.978 563.37 365.967 548.682Z" transform="matrix(1 0 0 -1 1605.5 1090.87)"/><path d="M1998 508C1998 501.925 2002.92 497 2009 497 2015.07 497 2020 501.925 2020 508 2020 514.075 2015.07 519 2009 519 2002.92 519 1998 514.075 1998 508Z" fill-rule="evenodd"/><path d="M1584 1109.5C1584 1103.7 1588.7 1099 1594.5 1099 1600.3 1099 1605 1103.7 1605 1109.5 1605 1115.3 1600.3 1120 1594.5 1120 1588.7 1120 1584 1115.3 1584 1109.5Z" fill-rule="evenodd"/><path d="M1648.06 1136.45 1635.37 1158.91 1649.31 1158.91 1648.71 1147.43C1648.63 1145.86 1648.57 1143.9 1648.53 1141.55 1648.48 1139.2 1648.46 1137.5 1648.46 1136.45ZM1648.28 1128.93 1653.66 1128.93 1656.23 1168.68C1656.34 1170.55 1656.56 1172.02 1656.87 1173.08 1657.18 1174.14 1657.6 1174.92 1658.13 1175.43 1658.67 1175.94 1659.45 1176.27 1660.47 1176.41L1660.08 1178.16 1645.25 1178.16 1645.64 1176.41C1647.04 1176.29 1648.09 1175.75 1648.78 1174.77 1649.47 1173.8 1649.81 1172.09 1649.81 1169.64 1649.81 1168.71 1649.77 1167.7 1649.7 1166.61L1649.45 1162.01 1633.77 1162.01 1631.81 1165.5C1630.88 1167.14 1630.21 1168.55 1629.78 1169.73 1629.35 1170.9 1629.14 1171.94 1629.14 1172.85 1629.14 1174.84 1630.34 1176.03 1632.74 1176.41L1632.34 1178.16 1617.77 1178.16 1618.16 1176.41C1618.89 1176.32 1619.59 1176.02 1620.24 1175.54 1620.9 1175.05 1621.59 1174.31 1622.33 1173.33 1623.06 1172.34 1624.1 1170.71 1625.43 1168.43Z" fill-rule="evenodd"/><text fill="#000000" fill-opacity="0" font-family="Arial,Arial_MSFontService,sans-serif" font-size="49.2251" x="1617.77" y="1172">𝐴</text><path d="M2071.52 500.196 2067.1 520.62C2068.54 520.715 2070.33 520.762 2072.44 520.762 2076.05 520.762 2078.77 520.353 2080.59 519.533 2082.4 518.713 2083.97 517.257 2085.27 515.166 2086.58 513.075 2087.23 510.497 2087.23 507.431 2087.23 505.031 2086.44 503.225 2084.86 502.013 2083.28 500.802 2080.93 500.196 2077.79 500.196ZM2082.07 478.381C2080 478.381 2078.07 478.417 2076.29 478.488L2072.26 497.059 2077.29 497.059C2080.09 497.059 2082.32 496.833 2083.97 496.382 2085.62 495.93 2087.08 495.122 2088.34 493.958 2089.6 492.793 2090.51 491.516 2091.08 490.126 2091.65 488.736 2091.94 487.126 2091.94 485.296 2091.94 484.274 2091.76 483.318 2091.41 482.427 2091.05 481.536 2090.44 480.775 2089.57 480.146 2088.7 479.516 2087.7 479.064 2086.58 478.791 2085.45 478.518 2083.94 478.381 2082.07 478.381ZM2066.06 475.244 2083.71 475.244C2087.27 475.244 2090.13 475.619 2092.28 476.367 2094.43 477.116 2096.01 478.215 2097.02 479.664 2098.03 481.114 2098.53 482.932 2098.53 485.118 2098.53 488.231 2097.58 490.946 2095.68 493.263 2093.78 495.58 2090.95 497.356 2087.2 498.592L2087.13 498.984C2089.34 499.863 2091.04 501.116 2092.22 502.744 2093.41 504.372 2094.01 506.219 2094.01 508.287 2094.01 511.447 2093.28 514.15 2091.83 516.396 2090.38 518.642 2088.21 520.454 2085.31 521.832 2082.41 523.21 2078.17 523.899 2072.58 523.899L2056.72 523.899 2057.11 522.153C2058.02 522.01 2058.7 521.778 2059.15 521.458 2059.6 521.137 2059.98 520.691 2060.29 520.121 2060.6 519.551 2060.88 518.855 2061.14 518.036 2061.4 517.216 2061.8 515.63 2062.32 513.277L2068.38 485.831C2068.9 483.455 2069.16 481.577 2069.16 480.199 2069.16 479.035 2068.89 478.227 2068.34 477.775 2067.8 477.324 2066.91 477.062 2065.67 476.991Z" fill-rule="evenodd"/><text fill="#000000" fill-opacity="0" font-family="Arial,Arial_MSFontService,sans-serif" font-size="48.6548" x="2056.72" y="517.817">𝐵</text><path d="M1.71825-0.041456 5.61855 161.617 2.18205 161.699-1.71825 0.041456ZM17.5358 156.744 4.45305 184.568-9.95624 157.408Z" transform="matrix(1 0 0 -1 1594.5 1087.07)"/><path d="M0 0 415.157 595.166" stroke="#000000" stroke-width="2.29167" stroke-miterlimit="8" stroke-dasharray="18.3333 6.875" fill="none" fill-rule="evenodd" transform="matrix(1 0 0 -1 1597 892.166)"/><path d="M0 0 4.68186 194.047" stroke="#000000" stroke-width="2.29167" stroke-miterlimit="8" stroke-dasharray="18.3333 6.875" fill="none" fill-rule="evenodd" transform="matrix(1 0 0 -1 2007 489.047)"/><text font-family="Cambria Math,Cambria Math_MSFontService,sans-serif" font-weight="400" font-size="50" transform="translate(1551.07 1025)">𝑟</text><path d="M18.4082-32.2021 0-32.2021 0-34.4971 14.8926-34.4971 10.9863-37.8906 12.2803-39.3555 18.4082-34.0576Z" transform="matrix(1 0 0 1 1556.89 1025)"/><path d="M1859.31 800.144C1857.65 800.144 1856.16 800.815 1854.85 802.158 1853.53 803.5 1852.49 805.311 1851.73 807.59 1850.98 809.868 1850.6 812.139 1850.6 814.401 1850.6 816.094 1850.83 817.36 1851.29 818.198 1851.76 819.036 1852.53 819.455 1853.63 819.455 1854.13 819.455 1854.64 819.345 1855.16 819.125 1855.68 818.906 1856.23 818.552 1856.79 818.063 1857.35 817.575 1857.9 816.981 1858.45 816.281 1858.99 815.581 1859.49 814.877 1859.95 814.169 1860.4 813.461 1860.83 812.623 1861.22 811.655 1861.61 810.686 1861.94 809.519 1862.22 808.151L1862.44 807.102C1862.68 805.93 1862.8 804.823 1862.8 803.781 1862.8 802.512 1862.54 801.588 1862 801.01 1861.46 800.432 1860.57 800.144 1859.31 800.144ZM1869.54 787.058 1870.98 787.058 1864.9 814.084C1864.55 815.679 1864.37 816.883 1864.37 817.697 1864.37 818.348 1864.47 818.82 1864.68 819.113 1864.9 819.406 1865.23 819.553 1865.69 819.553 1866.17 819.553 1866.69 819.353 1867.25 818.955 1867.8 818.556 1868.58 817.795 1869.59 816.672L1870.98 818.039C1869.49 819.618 1868.22 820.733 1867.2 821.384 1866.17 822.035 1865.07 822.36 1863.88 822.36 1862.87 822.36 1862.06 822.027 1861.46 821.359 1860.86 820.692 1860.56 819.805 1860.56 818.698 1860.56 817.803 1860.75 816.851 1861.12 815.842L1860.8 815.744C1859.24 818.023 1857.76 819.691 1856.36 820.749 1854.96 821.807 1853.48 822.336 1851.92 822.336 1850.13 822.336 1848.74 821.66 1847.75 820.31 1846.77 818.959 1846.28 817.062 1846.28 814.621 1846.28 811.822 1846.83 809.132 1847.92 806.552 1849.02 803.972 1850.53 801.938 1852.45 800.449 1854.37 798.959 1856.51 798.215 1858.87 798.215 1859.87 798.215 1860.78 798.317 1861.62 798.52 1862.46 798.723 1863.32 799.077 1864.2 799.582L1865.47 793.942C1865.6 793.405 1865.71 792.811 1865.81 792.16 1865.91 791.509 1865.95 790.939 1865.95 790.451 1865.95 789.963 1865.86 789.593 1865.69 789.34 1865.51 789.088 1865.25 788.905 1864.92 788.791 1864.58 788.677 1863.98 788.596 1863.12 788.547L1863.42 787.277Z" fill-rule="evenodd"/><text fill="#000000" fill-opacity="0" font-family="Arial,Arial_MSFontService,sans-serif" font-size="35.3027" x="1846.28" y="817.948">𝑑</text><path d="M1867.31 771.431 1873.44 776.729 1873.44 778.584 1855.03 778.584 1855.03 776.289 1869.93 776.289 1866.02 772.896Z" fill-rule="evenodd"/><text fill="#000000" fill-opacity="0" font-family="Arial,Arial_MSFontService,sans-serif" font-size="7.15332" x="1855.03" y="777.69">റ</text><path d="M0 0 72.4741 103.898" stroke="#000000" stroke-width="3.4375" stroke-miterlimit="8" stroke-dasharray="3.4375 3.4375" fill="none" fill-rule="evenodd" transform="matrix(6.12323e-17 1 1 -6.12323e-17 1910.5 440.5)"/><text font-family="Cambria Math,Cambria Math_MSFontService,sans-serif" font-weight="400" font-size="46" transform="translate(1603.16 1055)">𝜃</text><path d="M1923.5 423.5 1940.39 435.193" stroke="#000000" stroke-width="3.4375" stroke-miterlimit="8" fill="none" fill-rule="evenodd"/><path d="M0 0 11.8145 16.9374" stroke="#000000" stroke-width="3.4375" stroke-miterlimit="8" fill="none" fill-rule="evenodd" transform="matrix(-1 0 0 1 1941.31 435.5)"/><path d="M1830.02 367.244C1830.67 367.244 1831.19 367.46 1831.57 367.892 1831.95 368.325 1832.14 368.89 1832.14 369.588 1832.14 370.108 1832.04 370.645 1831.85 371.197L1832.05 371.275C1833.07 369.89 1834.05 368.874 1834.99 368.228 1835.94 367.582 1836.89 367.26 1837.86 367.26 1838.62 367.26 1839.26 367.317 1839.77 367.431L1839.02 370.931 1837.41 370.931C1837.35 370.494 1837.26 370.155 1837.14 369.916 1837.03 369.676 1836.89 369.51 1836.74 369.416 1836.58 369.322 1836.38 369.275 1836.14 369.275 1835.77 369.275 1835.36 369.437 1834.92 369.76 1834.47 370.082 1833.98 370.588 1833.42 371.275 1832.87 371.963 1832.43 372.624 1832.1 373.26 1831.78 373.895 1831.5 374.702 1831.28 375.681L1829.8 382.447 1827.1 382.447 1829.36 372.541C1829.51 371.916 1829.6 371.431 1829.64 371.088 1829.68 370.744 1829.7 370.457 1829.7 370.228 1829.7 369.812 1829.64 369.51 1829.5 369.322 1829.37 369.135 1829.15 369.041 1828.86 369.041 1828.54 369.041 1828.2 369.174 1827.84 369.439 1827.48 369.705 1826.99 370.187 1826.36 370.885L1825.47 370.01C1826.43 369.01 1827.23 368.299 1827.88 367.877 1828.52 367.455 1829.24 367.244 1830.02 367.244Z" fill-rule="evenodd"/><text fill="#000000" fill-opacity="0" font-family="Arial,Arial_MSFontService,sans-serif" font-size="15.2031" x="1825.47" y="380.547">𝑟</text><path d="M1836.68 357.26 1840.6 360.65 1840.6 361.838 1828.82 361.838 1828.82 360.369 1838.35 360.369 1835.85 358.197Z" fill-rule="evenodd"/><text fill="#000000" fill-opacity="0" font-family="Arial,Arial_MSFontService,sans-serif" font-size="4.57812" x="1828.82" y="361.265">റ</text><path d="M1852.82 364.744 1859.9 371.806 1866.98 364.744 1868.45 366.197 1861.45 373.322 1868.46 380.416 1866.9 381.978 1859.9 374.838 1852.68 381.916 1851.23 380.447 1858.37 373.322 1851.26 366.306Z" fill-rule="evenodd"/><text fill="#000000" fill-opacity="0" font-family="Arial,Arial_MSFontService,sans-serif" font-size="17.2344" x="1851.23" y="379.824">×</text><path d="M1888.45 368.478C1887.38 368.478 1886.43 368.908 1885.59 369.767 1884.74 370.627 1884.08 371.786 1883.59 373.244 1883.11 374.702 1882.87 376.155 1882.87 377.603 1882.87 378.687 1883.02 379.496 1883.31 380.033 1883.61 380.569 1884.11 380.838 1884.8 380.838 1885.13 380.838 1885.46 380.767 1885.79 380.627 1886.12 380.486 1886.47 380.26 1886.83 379.947 1887.19 379.635 1887.54 379.254 1887.89 378.806 1888.24 378.358 1888.56 377.908 1888.85 377.455 1889.14 377.002 1889.41 376.465 1889.66 375.845 1889.91 375.226 1890.13 374.478 1890.3 373.603L1890.45 372.931C1890.6 372.181 1890.68 371.473 1890.68 370.806 1890.68 369.994 1890.51 369.403 1890.16 369.033 1889.82 368.663 1889.25 368.478 1888.45 368.478ZM1894.99 360.103 1895.91 360.103 1892.02 377.4C1891.79 378.421 1891.68 379.192 1891.68 379.713 1891.68 380.129 1891.75 380.431 1891.88 380.619 1892.02 380.806 1892.23 380.9 1892.52 380.9 1892.84 380.9 1893.17 380.773 1893.52 380.517 1893.88 380.262 1894.38 379.775 1895.02 379.056L1895.91 379.931C1894.96 380.942 1894.15 381.655 1893.49 382.072 1892.84 382.489 1892.13 382.697 1891.37 382.697 1890.72 382.697 1890.21 382.483 1889.82 382.056 1889.44 381.629 1889.24 381.062 1889.24 380.353 1889.24 379.78 1889.36 379.171 1889.6 378.525L1889.4 378.463C1888.4 379.921 1887.45 380.989 1886.55 381.666 1885.66 382.343 1884.71 382.681 1883.71 382.681 1882.57 382.681 1881.68 382.249 1881.05 381.385 1880.42 380.52 1880.1 379.306 1880.1 377.744 1880.1 375.952 1880.45 374.231 1881.16 372.58 1881.86 370.929 1882.83 369.627 1884.05 368.674 1885.28 367.72 1886.65 367.244 1888.16 367.244 1888.8 367.244 1889.39 367.309 1889.92 367.439 1890.46 367.569 1891.01 367.796 1891.57 368.119L1892.38 364.51C1892.47 364.166 1892.54 363.786 1892.6 363.369 1892.66 362.952 1892.7 362.588 1892.7 362.275 1892.7 361.963 1892.64 361.726 1892.52 361.564 1892.41 361.403 1892.24 361.286 1892.03 361.213 1891.82 361.14 1891.44 361.088 1890.88 361.056L1891.07 360.244Z" fill-rule="evenodd"/><text fill="#000000" fill-opacity="0" font-family="Arial,Arial_MSFontService,sans-serif" font-size="22.5938" x="1880.1" y="379.873">𝑑</text><path d="M1893.54 350.132 1897.46 353.523 1897.46 354.711 1885.68 354.711 1885.68 353.242 1895.21 353.242 1892.71 351.07Z" fill-rule="evenodd"/><text fill="#000000" fill-opacity="0" font-family="Arial,Arial_MSFontService,sans-serif" font-size="4.57812" x="1885.68" y="354.138">റ</text><path d="M1874.99 406.641 1877.39 406.641 1877.39 445.297 1874.99 445.297ZM1845.49 406.641 1847.9 406.641 1847.9 445.297 1845.49 445.297Z" fill-rule="evenodd"/><path d="M1861.77 421.118C1860.71 421.118 1859.75 421.548 1858.91 422.407 1858.07 423.266 1857.4 424.425 1856.92 425.883 1856.43 427.342 1856.19 428.795 1856.19 430.243 1856.19 431.326 1856.34 432.136 1856.64 432.673 1856.93 433.209 1857.43 433.477 1858.13 433.477 1858.45 433.477 1858.78 433.407 1859.11 433.266 1859.45 433.126 1859.79 432.899 1860.15 432.587 1860.51 432.274 1860.87 431.894 1861.22 431.446 1861.56 430.998 1861.89 430.548 1862.18 430.094 1862.47 429.641 1862.74 429.105 1862.99 428.485 1863.24 427.865 1863.45 427.118 1863.63 426.243L1863.77 425.571C1863.93 424.821 1864 424.113 1864 423.446 1864 422.633 1863.83 422.042 1863.49 421.673 1863.15 421.303 1862.57 421.118 1861.77 421.118ZM1868.32 412.743 1869.24 412.743 1865.35 430.04C1865.12 431.061 1865 431.831 1865 432.352 1865 432.769 1865.07 433.071 1865.21 433.258 1865.34 433.446 1865.56 433.54 1865.85 433.54 1866.16 433.54 1866.49 433.412 1866.85 433.157 1867.2 432.902 1867.7 432.415 1868.35 431.696L1869.24 432.571C1868.28 433.581 1867.47 434.295 1866.82 434.712 1866.16 435.128 1865.45 435.337 1864.69 435.337 1864.05 435.337 1863.53 435.123 1863.15 434.696 1862.76 434.269 1862.57 433.701 1862.57 432.993 1862.57 432.42 1862.69 431.811 1862.93 431.165L1862.72 431.102C1861.72 432.561 1860.78 433.628 1859.88 434.305 1858.98 434.982 1858.04 435.321 1857.04 435.321 1855.89 435.321 1855 434.889 1854.37 434.024 1853.74 433.16 1853.43 431.946 1853.43 430.383 1853.43 428.592 1853.78 426.87 1854.48 425.219 1855.18 423.568 1856.15 422.266 1857.38 421.313 1858.61 420.36 1859.98 419.883 1861.49 419.883 1862.12 419.883 1862.71 419.949 1863.25 420.079 1863.78 420.209 1864.33 420.436 1864.9 420.758L1865.71 417.149C1865.79 416.805 1865.86 416.425 1865.93 416.008 1865.99 415.592 1866.02 415.227 1866.02 414.915 1866.02 414.602 1865.96 414.365 1865.85 414.204 1865.73 414.042 1865.57 413.925 1865.36 413.852 1865.14 413.779 1864.76 413.727 1864.21 413.696L1864.4 412.883Z" fill-rule="evenodd"/><text fill="#000000" fill-opacity="0" font-family="Arial,Arial_MSFontService,sans-serif" font-size="22.5938" x="1853.43" y="432.512">𝑑</text><path d="M1866.86 402.772 1870.79 406.163 1870.79 407.35 1859 407.35 1859 405.881 1868.54 405.881 1866.04 403.71Z" fill-rule="evenodd"/><text fill="#000000" fill-opacity="0" font-family="Arial,Arial_MSFontService,sans-serif" font-size="4.57812" x="1859" y="406.778">റ</text><path d="M1825.08 396.735 1843.33 396.735 1861.58 396.735 1879.83 396.735 1898.08 396.735 1898.08 398.735 1879.83 398.735 1861.58 398.735 1843.33 398.735 1825.08 398.735Z" fill-rule="evenodd"/></g></svg>