<svg width="2550" height="650" xmlns="http://www.w3.org/2000/svg" xmlns:xlink="http://www.w3.org/1999/xlink" overflow="hidden"><defs><clipPath id="clip0"><rect x="499" y="190" width="2550" height="650"/></clipPath></defs><g clip-path="url(#clip0)" transform="translate(-499 -190)"><path d="M1150.23 342.698C1146.96 342.698 1144.45 344.116 1142.71 346.953 1140.97 349.79 1140.1 353.829 1140.1 359.071 1140.1 364.637 1140.98 368.912 1142.75 371.898 1144.52 374.883 1147.05 376.376 1150.35 376.376 1152.16 376.376 1153.7 375.937 1154.97 375.059 1156.24 374.181 1157.27 372.999 1158.07 371.513 1158.87 370.027 1159.44 368.304 1159.79 366.345 1160.14 364.387 1160.32 362.34 1160.32 360.206 1160.32 356.234 1159.88 352.938 1159 350.317 1158.13 347.696 1156.93 345.771 1155.42 344.542 1153.9 343.312 1152.17 342.698 1150.23 342.698ZM1191.84 339.496C1193.62 339.496 1195.34 339.584 1197.01 339.76 1198.67 339.935 1200.75 340.28 1203.27 340.793L1203.27 349.061 1199.38 349.061C1198.78 347.439 1198.08 346.163 1197.27 345.231 1196.46 344.299 1195.54 343.643 1194.51 343.265 1193.49 342.887 1192.23 342.698 1190.74 342.698 1188.58 342.698 1186.86 343.204 1185.58 344.218 1184.29 345.231 1183.65 346.615 1183.65 348.372 1183.65 349.614 1183.91 350.641 1184.42 351.452 1184.93 352.262 1185.73 353.019 1186.81 353.721 1187.89 354.424 1189.8 355.356 1192.53 356.518 1195.28 357.706 1197.41 358.801 1198.91 359.8 1200.41 360.8 1201.58 361.962 1202.44 363.286 1203.29 364.61 1203.71 366.19 1203.71 368.027 1203.71 370.162 1203.35 371.959 1202.62 373.418 1201.89 374.876 1200.86 376.065 1199.54 376.984 1198.21 377.903 1196.64 378.564 1194.82 378.97 1192.99 379.375 1191 379.578 1188.84 379.578 1186.57 379.578 1184.37 379.409 1182.23 379.071 1180.1 378.733 1178.02 378.294 1175.99 377.754L1175.99 369.284 1179.96 369.284C1180.69 371.769 1181.77 373.573 1183.21 374.694 1184.64 375.815 1186.61 376.376 1189.12 376.376 1190.1 376.376 1191.05 376.275 1191.98 376.072 1192.91 375.869 1193.74 375.532 1194.47 375.059 1195.2 374.586 1195.78 373.944 1196.21 373.134 1196.65 372.323 1196.86 371.31 1196.86 370.094 1196.86 368.716 1196.59 367.595 1196.05 366.73 1195.51 365.866 1194.67 365.076 1193.54 364.36 1192.41 363.644 1190.41 362.678 1187.54 361.462 1185.08 360.435 1183.11 359.436 1181.63 358.463 1180.14 357.49 1178.97 356.342 1178.12 355.018 1177.27 353.694 1176.84 352.127 1176.84 350.317 1176.84 348.101 1177.44 346.176 1178.65 344.542 1179.85 342.907 1181.58 341.658 1183.85 340.793 1186.12 339.928 1188.78 339.496 1191.84 339.496ZM1150.39 339.496C1156.17 339.496 1160.55 341.178 1163.52 344.542 1166.49 347.906 1167.98 352.735 1167.98 359.03 1167.98 363.515 1167.24 367.298 1165.75 370.378 1164.27 373.458 1162.16 375.761 1159.43 377.288 1156.7 378.814 1153.47 379.578 1149.74 379.578 1144.12 379.578 1139.83 377.923 1136.88 374.613 1133.92 371.303 1132.44 366.406 1132.44 359.922 1132.44 355.464 1133.21 351.695 1134.77 348.615 1136.32 345.535 1138.45 343.245 1141.15 341.745 1143.85 340.246 1146.93 339.496 1150.39 339.496ZM1114.51 339.496C1116.73 339.496 1118.77 339.624 1120.65 339.881 1122.53 340.138 1124.42 340.55 1126.31 341.117L1126.31 349.587 1121.16 349.587C1120.7 347.831 1120.13 346.447 1119.46 345.433 1118.78 344.42 1118 343.711 1117.11 343.306 1116.21 342.9 1115.11 342.698 1113.78 342.698 1111.89 342.698 1110.22 343.306 1108.76 344.522 1107.3 345.737 1106.14 347.588 1105.29 350.074 1104.44 352.559 1104.02 355.599 1104.02 359.192 1104.02 361.489 1104.18 363.59 1104.5 365.494 1104.83 367.399 1105.38 369.027 1106.16 370.378 1106.95 371.729 1107.99 372.783 1109.28 373.539 1110.58 374.296 1112.19 374.674 1114.11 374.674 1115.97 374.674 1117.71 374.309 1119.32 373.58 1120.92 372.85 1122.59 371.567 1124.32 369.73L1126.63 372.404C1125.25 373.917 1124.04 375.086 1122.98 375.91 1121.93 376.734 1120.8 377.423 1119.6 377.977 1118.4 378.531 1117.21 378.936 1116.03 379.193 1114.86 379.449 1113.58 379.578 1112.2 379.578 1107.1 379.578 1103.19 377.882 1100.49 374.491 1097.79 371.101 1096.44 366.204 1096.44 359.8 1096.44 355.802 1097.19 352.255 1098.71 349.162 1100.22 346.068 1102.34 343.684 1105.07 342.009 1107.8 340.334 1110.95 339.496 1114.51 339.496Z" fill-rule="evenodd"/><text fill="#000000" fill-opacity="0" font-family="Arial,Arial_MSFontService,sans-serif" font-size="40.0815" x="1096.44" y="374.567">cos</text><path d="M1234.26 352.708C1232.99 358.571 1232.36 363.502 1232.36 367.501 1232.36 370.527 1232.81 372.749 1233.73 374.167 1234.65 375.586 1236.14 376.295 1238.19 376.295 1241.22 376.295 1244.09 374.262 1246.8 370.196 1249.52 366.129 1251.82 360.3 1253.71 352.708ZM1250.88 325.393C1247.71 325.393 1244.79 327.392 1242.1 331.391 1239.41 335.389 1237.12 341.117 1235.23 348.574L1254.65 348.574C1255.92 342.873 1256.55 337.97 1256.55 333.863 1256.55 331.026 1256.09 328.905 1255.17 327.5 1254.25 326.095 1252.82 325.393 1250.88 325.393ZM1251.36 322.11C1259.2 322.11 1263.12 327.081 1263.12 337.024 1263.12 339.834 1262.8 343.191 1262.16 347.095 1261.53 350.999 1260.52 354.978 1259.14 359.03 1257.77 363.083 1256.02 366.67 1253.92 369.79 1251.81 372.911 1249.38 375.322 1246.62 377.024 1243.86 378.727 1240.89 379.578 1237.7 379.578 1233.68 379.578 1230.68 378.348 1228.71 375.89 1226.74 373.431 1225.75 369.743 1225.75 364.826 1225.75 362.151 1226.05 358.855 1226.64 354.937 1227.24 351.019 1228.21 347.014 1229.58 342.921 1230.94 338.827 1232.7 335.193 1234.85 332.019 1237 328.844 1239.47 326.399 1242.26 324.683 1245.06 322.968 1248.09 322.11 1251.36 322.11Z" fill-rule="evenodd"/><text fill="#000000" fill-opacity="0" font-family="Arial,Arial_MSFontService,sans-serif" font-size="57.4678" x="1225.75" y="372.394">𝜃</text><path d="M1298.86 360.935 1348.79 360.935 1348.79 366.325 1298.86 366.325ZM1298.86 344.116 1348.79 344.116 1348.79 349.506 1298.86 349.506Z" fill-rule="evenodd"/><text fill="#000000" fill-opacity="0" font-family="Arial,Arial_MSFontService,sans-serif" font-size="22.209" x="1298.86" y="363.549">=</text><path d="M1412.81 277.048C1414.54 277.048 1415.91 277.629 1416.91 278.791 1417.91 279.953 1418.41 281.52 1418.41 283.492 1418.41 285.626 1417.99 288.288 1417.15 291.476L1415.37 298.487C1414.91 300.27 1414.58 301.662 1414.37 302.661 1414.17 303.661 1414.02 304.526 1413.93 305.255 1413.83 305.985 1413.79 306.593 1413.79 307.079 1413.79 308.943 1414.1 310.287 1414.72 311.111 1415.34 311.936 1416.35 312.348 1417.76 312.348 1418.89 312.348 1420.12 311.895 1421.43 310.99 1422.74 310.085 1424.13 308.72 1425.6 306.897 1427.07 305.073 1428.26 303.303 1429.15 301.588 1430.04 299.872 1430.77 297.758 1431.34 295.245L1435.19 277.697 1442.2 277.697 1436.28 303.391C1435.69 305.985 1435.39 307.984 1435.39 309.389 1435.39 310.47 1435.56 311.253 1435.91 311.74 1436.27 312.226 1436.82 312.469 1437.58 312.469 1438.39 312.469 1439.25 312.138 1440.17 311.476 1441.09 310.814 1442.39 309.551 1444.06 307.687L1446.37 309.956C1443.91 312.577 1441.82 314.428 1440.09 315.509 1438.36 316.589 1436.52 317.13 1434.58 317.13 1432.9 317.13 1431.56 316.576 1430.57 315.468 1429.57 314.36 1429.07 312.888 1429.07 311.051 1429.07 309.592 1429.39 307.998 1430.04 306.268L1429.55 306.106C1426.88 309.862 1424.34 312.631 1421.95 314.414 1419.56 316.198 1417.11 317.089 1414.6 317.089 1412.08 317.089 1410.15 316.366 1408.8 314.921 1407.45 313.476 1406.78 311.469 1406.78 308.903 1406.78 307.201 1407.17 304.782 1407.95 301.648L1410.59 291.03C1411.31 288.085 1411.68 286.005 1411.68 284.789 1411.68 283.708 1411.5 282.925 1411.15 282.438 1410.8 281.952 1410.25 281.709 1409.49 281.709 1408.65 281.709 1407.77 282.053 1406.84 282.742 1405.9 283.431 1404.63 284.681 1403.01 286.491L1400.7 284.222C1402.99 281.898 1404.72 280.304 1405.88 279.439 1407.05 278.575 1408.16 277.96 1409.23 277.595 1410.29 277.231 1411.49 277.048 1412.81 277.048Z" fill-rule="evenodd"/><text fill="#000000" fill-opacity="0" font-family="Arial,Arial_MSFontService,sans-serif" font-size="40.0815" x="1400.7" y="312.12">𝑢</text><path d="M1437.27 251.151 1447.45 259.946 1447.45 263.026 1428.07 263.026 1416.89 263.026 1403.76 263.026 1403.76 259.216 1416.89 259.216 1428.07 259.216 1441.61 259.216 1435.13 253.583Z" fill-rule="evenodd"/><path d="M1479.41 286.937C1480.46 286.937 1481.41 287.187 1482.26 287.687 1483.12 288.186 1483.77 288.882 1484.23 289.774 1484.69 290.665 1484.92 291.665 1484.92 292.773 1484.92 293.908 1484.68 294.921 1484.21 295.812 1483.74 296.704 1483.07 297.393 1482.22 297.879 1481.37 298.366 1480.43 298.609 1479.41 298.609 1478.38 298.609 1477.44 298.366 1476.59 297.879 1475.74 297.393 1475.08 296.704 1474.6 295.812 1474.13 294.921 1473.9 293.908 1473.9 292.773 1473.9 291.665 1474.13 290.665 1474.58 289.774 1475.04 288.882 1475.7 288.186 1476.55 287.687 1477.4 287.187 1478.35 286.937 1479.41 286.937Z" fill-rule="evenodd"/><text fill="#000000" fill-opacity="0" font-family="Arial,Arial_MSFontService,sans-serif" font-size="11.6719" x="1473.9" y="297.15">∙</text><path d="M1547.9 276.886C1549.84 276.886 1551.25 277.393 1552.11 278.406 1552.98 279.419 1553.41 280.777 1553.41 282.479 1553.41 283.776 1553.18 285.262 1552.72 286.937 1552.26 288.612 1551.61 290.382 1550.77 292.246 1549.94 294.11 1548.94 296.022 1547.78 297.981 1546.61 299.939 1545.33 301.844 1543.93 303.695 1542.52 305.546 1541.02 307.288 1539.43 308.923 1537.83 310.558 1536.18 311.983 1534.46 313.199 1532.75 314.414 1531 315.38 1529.23 316.096 1527.46 316.812 1525.7 317.17 1523.95 317.17 1523.16 317.17 1522.51 316.974 1521.98 316.583 1521.45 316.191 1521.03 315.637 1520.7 314.921 1520.38 314.205 1520.15 313.361 1520.01 312.388 1519.88 311.415 1519.81 310.348 1519.81 309.186 1519.81 307.646 1519.91 305.998 1520.1 304.242 1520.28 302.486 1520.53 300.716 1520.82 298.933L1522.53 287.707C1522.64 287.058 1522.72 286.444 1522.79 285.863 1522.86 285.282 1522.89 284.856 1522.89 284.586 1522.89 283.749 1522.76 283.06 1522.49 282.519 1522.22 281.979 1521.76 281.709 1521.11 281.709 1520.6 281.709 1520.04 281.864 1519.45 282.175 1518.85 282.486 1518.25 282.884 1517.64 283.37 1517.04 283.857 1516.45 284.377 1515.88 284.931 1515.31 285.485 1514.79 286.005 1514.3 286.491L1512.35 284.222C1513.19 283.357 1514.08 282.499 1515.03 281.648 1515.98 280.797 1516.97 280.027 1518.03 279.338 1519.08 278.649 1520.19 278.095 1521.35 277.676 1522.51 277.258 1523.7 277.048 1524.92 277.048 1525.94 277.048 1526.78 277.217 1527.43 277.555 1528.08 277.893 1528.59 278.338 1528.95 278.892 1529.32 279.446 1529.57 280.054 1529.7 280.716 1529.84 281.378 1529.9 282.033 1529.9 282.682 1529.9 283.06 1529.89 283.425 1529.86 283.776 1529.84 284.127 1529.79 284.451 1529.74 284.748L1527.47 299.419C1527.23 300.959 1527.03 302.466 1526.86 303.938 1526.7 305.411 1526.62 306.714 1526.62 307.849 1526.62 308.984 1526.69 309.902 1526.82 310.605 1526.96 311.307 1527.21 311.659 1527.59 311.659 1528.48 311.659 1529.61 311.301 1530.96 310.585 1532.31 309.869 1533.73 308.882 1535.21 307.626 1536.7 306.37 1538.18 304.884 1539.67 303.168 1541.16 301.452 1542.49 299.595 1543.68 297.596 1544.87 295.596 1545.84 293.489 1546.58 291.273 1547.32 289.058 1547.69 286.829 1547.69 284.586 1547.69 283.614 1547.49 282.864 1547.07 282.337 1546.65 281.81 1545.99 281.547 1545.1 281.547 1543.97 281.547 1542.92 281.986 1541.96 282.864 1541 283.742 1540.01 284.897 1538.98 286.329L1536.67 284.262C1537.32 283.289 1538.08 282.357 1538.96 281.466 1539.84 280.574 1540.77 279.791 1541.76 279.115 1542.74 278.44 1543.76 277.899 1544.82 277.494 1545.87 277.089 1546.9 276.886 1547.9 276.886Z" fill-rule="evenodd"/><text fill="#000000" fill-opacity="0" font-family="Arial,Arial_MSFontService,sans-serif" font-size="40.2842" x="1512.35" y="312.135">𝑣</text><path d="M1543.91 251.128 1554.08 259.923 1554.08 263.003 1523.52 263.003 1523.52 259.193 1548.24 259.193 1541.76 253.56Z" fill-rule="evenodd"/><text fill="#000000" fill-opacity="0" font-family="Arial,Arial_MSFontService,sans-serif" font-size="11.8745" x="1523.52" y="261.519">റ</text><path d="M1463.36 372.726 1469.6 372.726 1469.6 448.148 1463.36 448.148ZM1387.62 372.726 1393.86 372.726 1393.86 448.148 1387.62 448.148Z" fill-rule="evenodd"/><path d="M1416.8 394.679C1418.53 394.679 1419.9 395.26 1420.9 396.422 1421.89 397.584 1422.39 399.151 1422.39 401.123 1422.39 403.258 1421.98 405.919 1421.14 409.107L1419.35 416.118C1418.9 417.902 1418.56 419.293 1418.36 420.293 1418.16 421.292 1418.01 422.157 1417.92 422.886 1417.82 423.616 1417.77 424.224 1417.77 424.71 1417.77 426.574 1418.09 427.919 1418.71 428.743 1419.33 429.567 1420.34 429.979 1421.75 429.979 1422.88 429.979 1424.1 429.526 1425.41 428.621 1426.72 427.716 1428.12 426.352 1429.59 424.528 1431.06 422.704 1432.24 420.934 1433.13 419.219 1434.03 417.503 1434.76 415.389 1435.32 412.876L1439.17 395.328 1446.18 395.328 1440.27 421.022C1439.67 423.616 1439.38 425.615 1439.38 427.02 1439.38 428.101 1439.55 428.885 1439.9 429.371 1440.25 429.857 1440.81 430.1 1441.56 430.1 1442.37 430.1 1443.24 429.769 1444.16 429.107 1445.08 428.445 1446.37 427.182 1448.05 425.318L1450.36 427.588C1447.9 430.208 1445.81 432.059 1444.08 433.14 1442.35 434.221 1440.51 434.761 1438.56 434.761 1436.89 434.761 1435.55 434.207 1434.55 433.099 1433.55 431.992 1433.05 430.519 1433.05 428.682 1433.05 427.223 1433.38 425.629 1434.03 423.9L1433.54 423.738C1430.86 427.493 1428.33 430.262 1425.94 432.046 1423.55 433.829 1421.1 434.72 1418.58 434.72 1416.07 434.72 1414.14 433.998 1412.79 432.552 1411.44 431.107 1410.76 429.101 1410.76 426.534 1410.76 424.832 1411.15 422.414 1411.94 419.28L1414.57 408.661C1415.3 405.716 1415.67 403.636 1415.67 402.42 1415.67 401.339 1415.49 400.556 1415.14 400.07 1414.79 399.583 1414.23 399.34 1413.48 399.34 1412.64 399.34 1411.76 399.685 1410.82 400.374 1409.89 401.062 1408.62 402.312 1406.99 404.122L1404.68 401.853C1406.98 399.529 1408.71 397.935 1409.87 397.071 1411.03 396.206 1412.15 395.591 1413.22 395.227 1414.28 394.862 1415.48 394.679 1416.8 394.679Z" fill-rule="evenodd"/><text fill="#000000" fill-opacity="0" font-family="Arial,Arial_MSFontService,sans-serif" font-size="40.0815" x="1404.68" y="429.751">𝑢</text><path d="M1441.26 368.782 1451.43 377.577 1451.43 380.657 1432.06 380.657 1420.88 380.657 1407.74 380.657 1407.74 376.847 1420.88 376.847 1432.06 376.847 1445.6 376.847 1439.11 371.214Z" fill-rule="evenodd"/><path d="M1562.66 372.726 1568.9 372.726 1568.9 448.148 1562.66 448.148ZM1489.46 372.726 1495.7 372.726 1495.7 448.148 1489.46 448.148Z" fill-rule="evenodd"/><path d="M1543.93 394.517C1545.88 394.517 1547.28 395.024 1548.15 396.037 1549.01 397.05 1549.44 398.408 1549.44 400.11 1549.44 401.407 1549.21 402.893 1548.76 404.568 1548.3 406.243 1547.65 408.013 1546.81 409.877 1545.97 411.741 1544.97 413.653 1543.81 415.612 1542.65 417.571 1541.37 419.475 1539.96 421.326 1538.56 423.177 1537.06 424.92 1535.46 426.554 1533.87 428.189 1532.21 429.614 1530.5 430.83 1528.78 432.046 1527.04 433.012 1525.27 433.728 1523.5 434.444 1521.74 434.802 1519.98 434.802 1519.2 434.802 1518.54 434.606 1518.02 434.214 1517.49 433.822 1517.06 433.268 1516.74 432.552 1516.41 431.836 1516.18 430.992 1516.05 430.019 1515.91 429.047 1515.85 427.979 1515.85 426.818 1515.85 425.278 1515.94 423.629 1516.13 421.873 1516.32 420.117 1516.56 418.347 1516.86 416.564L1518.56 405.338C1518.67 404.69 1518.76 404.075 1518.83 403.494 1518.89 402.913 1518.93 402.488 1518.93 402.218 1518.93 401.38 1518.79 400.691 1518.52 400.151 1518.25 399.61 1517.79 399.34 1517.14 399.34 1516.63 399.34 1516.08 399.495 1515.48 399.806 1514.89 400.117 1514.29 400.515 1513.68 401.002 1513.07 401.488 1512.48 402.008 1511.92 402.562 1511.35 403.116 1510.82 403.636 1510.34 404.122L1508.39 401.853C1509.23 400.988 1510.12 400.13 1511.06 399.279 1512.01 398.428 1513.01 397.658 1514.06 396.969 1515.12 396.28 1516.23 395.726 1517.39 395.308 1518.55 394.889 1519.74 394.679 1520.95 394.679 1521.98 394.679 1522.82 394.848 1523.47 395.186 1524.11 395.524 1524.62 395.97 1524.99 396.523 1525.35 397.077 1525.6 397.685 1525.74 398.347 1525.87 399.009 1525.94 399.664 1525.94 400.313 1525.94 400.691 1525.92 401.056 1525.9 401.407 1525.87 401.758 1525.83 402.082 1525.78 402.38L1523.51 417.051C1523.26 418.591 1523.06 420.097 1522.9 421.569 1522.74 423.042 1522.66 424.345 1522.66 425.48 1522.66 426.615 1522.72 427.534 1522.86 428.236 1522.99 428.939 1523.25 429.29 1523.63 429.29 1524.52 429.29 1525.64 428.932 1526.99 428.216 1528.34 427.5 1529.76 426.514 1531.25 425.257 1532.73 424.001 1534.22 422.515 1535.71 420.799 1537.19 419.084 1538.53 417.226 1539.72 415.227 1540.91 413.227 1541.87 411.12 1542.62 408.905 1543.36 406.689 1543.73 404.46 1543.73 402.218 1543.73 401.245 1543.52 400.495 1543.1 399.968 1542.68 399.441 1542.03 399.178 1541.14 399.178 1540 399.178 1538.95 399.617 1538 400.495 1537.04 401.373 1536.04 402.528 1535.02 403.96L1532.71 401.893C1533.35 400.921 1534.12 399.989 1535 399.097 1535.87 398.205 1536.81 397.422 1537.79 396.746 1538.78 396.071 1539.8 395.531 1540.85 395.125 1541.91 394.72 1542.93 394.517 1543.93 394.517Z" fill-rule="evenodd"/><text fill="#000000" fill-opacity="0" font-family="Arial,Arial_MSFontService,sans-serif" font-size="40.2842" x="1508.39" y="429.766">𝑣</text><path d="M1539.94 368.76 1550.11 377.554 1550.11 380.634 1519.56 380.634 1519.56 376.824 1544.28 376.824 1537.79 371.191Z" fill-rule="evenodd"/><text fill="#000000" fill-opacity="0" font-family="Arial,Arial_MSFontService,sans-serif" font-size="11.8745" x="1519.56" y="379.15">റ</text><path d="M1377.18 352.94 1477.68 352.94 1578.18 352.94 1578.18 357.94 1477.68 357.94 1377.18 357.94Z" fill-rule="evenodd"/><path d="M1140.99 647.82 1143.46 647.82 1143.46 676.797C1143.46 679.121 1143.57 680.735 1143.79 681.64 1144 682.545 1144.41 683.234 1145.02 683.707 1145.63 684.18 1146.62 684.592 1148 684.943L1148 686.929 1132.11 686.929 1132.11 684.943C1133.17 684.619 1133.92 684.335 1134.36 684.092 1134.81 683.849 1135.19 683.511 1135.5 683.079 1135.81 682.647 1136.05 681.985 1136.23 681.093 1136.4 680.202 1136.49 678.81 1136.49 676.919L1136.49 659.249C1136.49 657.52 1136.46 656.128 1136.41 655.075 1136.36 654.021 1136.17 653.177 1135.84 652.542 1135.52 651.907 1135.02 651.434 1134.36 651.123 1133.7 650.813 1132.76 650.549 1131.55 650.333L1131.55 648.185ZM1178.19 647.537C1179.65 647.537 1180.95 647.706 1182.1 648.043 1183.25 648.381 1184.26 648.901 1185.14 649.604 1186.02 650.306 1186.74 651.177 1187.31 652.218 1187.87 653.258 1188.3 654.507 1188.58 655.966 1188.87 657.425 1189.01 659.276 1189.01 661.519L1189.01 676.797C1189.01 678.662 1189.06 680.013 1189.17 680.85 1189.28 681.688 1189.47 682.336 1189.74 682.795 1190.01 683.255 1190.4 683.64 1190.91 683.95 1191.43 684.261 1192.32 684.592 1193.59 684.943L1193.59 686.929 1177.62 686.929 1177.62 684.943C1178.67 684.619 1179.43 684.335 1179.89 684.092 1180.35 683.849 1180.73 683.511 1181.04 683.079 1181.35 682.647 1181.6 681.978 1181.77 681.073 1181.95 680.168 1182.04 678.797 1182.04 676.959L1182.04 666.341C1182.04 664.45 1181.98 662.734 1181.87 661.194 1181.77 659.654 1181.58 658.391 1181.33 657.405 1181.07 656.419 1180.76 655.649 1180.4 655.095 1180.03 654.541 1179.6 654.068 1179.1 653.677 1178.6 653.285 1178.02 652.974 1177.38 652.744 1176.73 652.515 1175.88 652.4 1174.82 652.4 1173.77 652.4 1172.77 652.609 1171.82 653.028 1170.88 653.447 1169.84 654.17 1168.7 655.196 1167.57 656.223 1166.74 657.236 1166.23 658.236 1165.72 659.236 1165.46 660.384 1165.46 661.681L1165.46 676.797C1165.46 679.121 1165.57 680.735 1165.79 681.64 1166 682.545 1166.41 683.234 1167.02 683.707 1167.63 684.18 1168.62 684.592 1170 684.943L1170 686.929 1154.11 686.929 1154.11 684.943C1155.17 684.619 1155.92 684.335 1156.36 684.092 1156.81 683.849 1157.19 683.511 1157.5 683.079 1157.81 682.647 1158.05 681.985 1158.23 681.093 1158.4 680.202 1158.49 678.81 1158.49 676.919L1158.49 659.249C1158.49 657.52 1158.46 656.128 1158.41 655.075 1158.36 654.021 1158.17 653.177 1157.84 652.542 1157.52 651.907 1157.02 651.434 1156.36 651.123 1155.7 650.813 1154.76 650.549 1153.55 650.333L1153.55 648.185 1163.03 647.82 1165.5 647.82 1165.06 654.426 1165.62 654.588C1167.62 652.562 1169.24 651.117 1170.47 650.252 1171.7 649.387 1172.94 648.719 1174.19 648.246 1175.45 647.773 1176.78 647.537 1178.19 647.537ZM1111.84 647.496C1113.62 647.496 1115.34 647.584 1117.01 647.76 1118.67 647.935 1120.75 648.28 1123.27 648.793L1123.27 657.061 1119.38 657.061C1118.78 655.439 1118.08 654.163 1117.27 653.231 1116.46 652.299 1115.54 651.643 1114.51 651.265 1113.49 650.887 1112.23 650.698 1110.74 650.698 1108.58 650.698 1106.86 651.204 1105.58 652.218 1104.29 653.231 1103.65 654.615 1103.65 656.372 1103.65 657.614 1103.91 658.641 1104.42 659.452 1104.93 660.262 1105.73 661.019 1106.81 661.721 1107.89 662.424 1109.8 663.356 1112.53 664.518 1115.28 665.706 1117.41 666.801 1118.91 667.8 1120.41 668.8 1121.58 669.962 1122.44 671.286 1123.29 672.61 1123.71 674.19 1123.71 676.027 1123.71 678.162 1123.35 679.958 1122.62 681.417 1121.89 682.876 1120.86 684.065 1119.54 684.984 1118.21 685.903 1116.64 686.564 1114.82 686.97 1112.99 687.375 1111 687.578 1108.84 687.578 1106.57 687.578 1104.37 687.409 1102.23 687.071 1100.1 686.733 1098.02 686.294 1095.99 685.754L1095.99 677.284 1099.96 677.284C1100.69 679.769 1101.77 681.573 1103.21 682.694 1104.64 683.815 1106.61 684.376 1109.12 684.376 1110.1 684.376 1111.05 684.275 1111.98 684.072 1112.91 683.869 1113.74 683.532 1114.47 683.059 1115.2 682.586 1115.78 681.944 1116.21 681.134 1116.65 680.323 1116.86 679.31 1116.86 678.094 1116.86 676.716 1116.59 675.595 1116.05 674.73 1115.51 673.866 1114.67 673.076 1113.54 672.36 1112.41 671.644 1110.41 670.678 1107.54 669.462 1105.08 668.435 1103.11 667.436 1101.63 666.463 1100.14 665.49 1098.97 664.342 1098.12 663.018 1097.27 661.694 1096.84 660.127 1096.84 658.317 1096.84 656.101 1097.44 654.176 1098.65 652.542 1099.85 650.907 1101.58 649.658 1103.85 648.793 1106.12 647.928 1108.78 647.496 1111.84 647.496ZM1136.25 632.298 1143.7 632.298 1143.7 640.161 1136.25 640.161Z" fill-rule="evenodd"/><text fill="#000000" fill-opacity="0" font-family="Arial,Arial_MSFontService,sans-serif" font-size="55.2793" x="1095.99" y="680.668">sin</text><path d="M1223.37 660.708C1222.1 666.571 1221.47 671.502 1221.47 675.5 1221.47 678.527 1221.93 680.749 1222.85 682.167 1223.77 683.586 1225.25 684.295 1227.31 684.295 1230.33 684.295 1233.2 682.262 1235.92 678.196 1238.63 674.129 1240.94 668.3 1242.83 660.708ZM1239.99 633.393C1236.83 633.393 1233.9 635.392 1231.22 639.391 1228.53 643.389 1226.24 649.117 1224.35 656.574L1243.76 656.574C1245.03 650.873 1245.66 645.97 1245.66 641.863 1245.66 639.026 1245.21 636.905 1244.29 635.5 1243.37 634.095 1241.94 633.393 1239.99 633.393ZM1240.48 630.11C1248.31 630.11 1252.23 635.081 1252.23 645.024 1252.23 647.834 1251.91 651.191 1251.28 655.095 1250.64 658.999 1249.64 662.978 1248.26 667.03 1246.88 671.083 1245.14 674.67 1243.03 677.79 1240.92 680.911 1238.49 683.322 1235.74 685.024 1232.98 686.727 1230.01 687.578 1226.82 687.578 1222.79 687.578 1219.79 686.348 1217.82 683.89 1215.85 681.431 1214.86 677.743 1214.86 672.826 1214.86 670.151 1215.16 666.855 1215.76 662.937 1216.35 659.019 1217.33 655.014 1218.69 650.921 1220.06 646.827 1221.81 643.193 1223.96 640.019 1226.11 636.844 1228.58 634.399 1231.38 632.683 1234.18 630.968 1237.21 630.11 1240.48 630.11Z" fill-rule="evenodd"/><text fill="#000000" fill-opacity="0" font-family="Arial,Arial_MSFontService,sans-serif" font-size="57.4678" x="1214.86" y="680.394">𝜃</text><path d="M1287.97 668.935 1337.9 668.935 1337.9 674.325 1287.97 674.325ZM1287.97 652.116 1337.9 652.116 1337.9 657.506 1287.97 657.506Z" fill-rule="evenodd"/><text fill="#000000" fill-opacity="0" font-family="Arial,Arial_MSFontService,sans-serif" font-size="22.209" x="1287.97" y="671.549">=</text><path d="M1384.17 585.048C1385.9 585.048 1387.26 585.629 1388.26 586.791 1389.26 587.953 1389.76 589.52 1389.76 591.492 1389.76 593.627 1389.34 596.288 1388.5 599.476L1386.72 606.487C1386.26 608.27 1385.93 609.662 1385.73 610.661 1385.53 611.661 1385.38 612.526 1385.28 613.255 1385.19 613.985 1385.14 614.593 1385.14 615.079 1385.14 616.943 1385.45 618.287 1386.07 619.111 1386.69 619.935 1387.71 620.348 1389.11 620.348 1390.25 620.348 1391.47 619.895 1392.78 618.99 1394.09 618.085 1395.48 616.72 1396.95 614.897 1398.43 613.073 1399.61 611.303 1400.5 609.588 1401.39 607.872 1402.12 605.758 1402.69 603.245L1406.54 585.697 1413.55 585.697 1407.63 611.391C1407.04 613.985 1406.74 615.984 1406.74 617.389 1406.74 618.47 1406.92 619.253 1407.27 619.74 1407.62 620.226 1408.17 620.469 1408.93 620.469 1409.74 620.469 1410.61 620.138 1411.52 619.476 1412.44 618.814 1413.74 617.551 1415.42 615.687L1417.73 617.956C1415.27 620.577 1413.17 622.428 1411.44 623.509 1409.71 624.589 1407.88 625.13 1405.93 625.13 1404.26 625.13 1402.92 624.576 1401.92 623.468 1400.92 622.36 1400.42 620.888 1400.42 619.051 1400.42 617.592 1400.74 615.998 1401.39 614.268L1400.91 614.106C1398.23 617.862 1395.7 620.631 1393.31 622.414 1390.92 624.198 1388.46 625.089 1385.95 625.089 1383.44 625.089 1381.51 624.367 1380.16 622.921 1378.81 621.476 1378.13 619.469 1378.13 616.903 1378.13 615.201 1378.52 612.782 1379.31 609.648L1381.94 599.03C1382.67 596.085 1383.03 594.005 1383.03 592.789 1383.03 591.708 1382.86 590.925 1382.51 590.438 1382.16 589.952 1381.6 589.709 1380.85 589.709 1380.01 589.709 1379.12 590.053 1378.19 590.742 1377.26 591.431 1375.98 592.681 1374.36 594.491L1372.05 592.222C1374.35 589.898 1376.08 588.304 1377.24 587.439 1378.4 586.575 1379.51 585.96 1380.58 585.595 1381.65 585.231 1382.84 585.048 1384.17 585.048Z" fill-rule="evenodd"/><text fill="#000000" fill-opacity="0" font-family="Arial,Arial_MSFontService,sans-serif" font-size="40.0815" x="1372.05" y="620.12">𝑢</text><path d="M1408.63 559.151 1418.8 567.946 1418.8 571.026 1399.43 571.026 1388.24 571.026 1375.11 571.026 1375.11 567.216 1388.24 567.216 1399.43 567.216 1412.96 567.216 1406.48 561.583Z" fill-rule="evenodd"/><path d="M1450.48 578.564 1468.84 596.882 1487.2 578.564 1491.01 582.333 1472.85 600.813 1491.05 619.213 1486.99 623.266 1468.84 604.745 1450.11 623.103 1446.34 619.294 1464.86 600.813 1446.42 582.617Z" fill-rule="evenodd"/><text fill="#000000" fill-opacity="0" font-family="Arial,Arial_MSFontService,sans-serif" font-size="44.7017" x="1446.34" y="617.678">×</text><path d="M1554.77 584.886C1556.72 584.886 1558.12 585.393 1558.99 586.406 1559.85 587.419 1560.28 588.777 1560.28 590.479 1560.28 591.776 1560.05 593.262 1559.59 594.937 1559.14 596.612 1558.49 598.382 1557.65 600.246 1556.81 602.11 1555.81 604.022 1554.65 605.981 1553.49 607.939 1552.21 609.844 1550.8 611.695 1549.4 613.546 1547.9 615.288 1546.3 616.923 1544.71 618.558 1543.05 619.983 1541.34 621.199 1539.62 622.414 1537.88 623.38 1536.11 624.096 1534.34 624.812 1532.58 625.17 1530.82 625.17 1530.04 625.17 1529.38 624.974 1528.85 624.583 1528.33 624.191 1527.9 623.637 1527.58 622.921 1527.25 622.205 1527.02 621.361 1526.89 620.388 1526.75 619.415 1526.69 618.348 1526.69 617.186 1526.69 615.646 1526.78 613.998 1526.97 612.242 1527.16 610.486 1527.4 608.716 1527.7 606.933L1529.4 595.707C1529.51 595.058 1529.6 594.444 1529.67 593.863 1529.73 593.282 1529.77 592.857 1529.77 592.586 1529.77 591.749 1529.63 591.06 1529.36 590.519 1529.09 589.979 1528.63 589.709 1527.98 589.709 1527.47 589.709 1526.92 589.864 1526.32 590.175 1525.73 590.486 1525.13 590.884 1524.52 591.37 1523.91 591.857 1523.32 592.377 1522.76 592.931 1522.19 593.485 1521.66 594.005 1521.17 594.491L1519.23 592.222C1520.07 591.357 1520.96 590.499 1521.9 589.648 1522.85 588.797 1523.85 588.027 1524.9 587.338 1525.96 586.649 1527.06 586.095 1528.23 585.676 1529.39 585.258 1530.58 585.048 1531.79 585.048 1532.82 585.048 1533.66 585.217 1534.31 585.555 1534.95 585.893 1535.46 586.338 1535.83 586.892 1536.19 587.446 1536.44 588.054 1536.58 588.716 1536.71 589.378 1536.78 590.033 1536.78 590.682 1536.78 591.06 1536.76 591.424 1536.74 591.776 1536.71 592.127 1536.67 592.451 1536.62 592.748L1534.35 607.419C1534.1 608.959 1533.9 610.466 1533.74 611.938 1533.58 613.411 1533.5 614.714 1533.5 615.849 1533.5 616.984 1533.56 617.902 1533.7 618.605 1533.83 619.307 1534.09 619.659 1534.47 619.659 1535.36 619.659 1536.48 619.301 1537.83 618.585 1539.18 617.869 1540.6 616.882 1542.09 615.626 1543.57 614.37 1545.06 612.884 1546.55 611.168 1548.03 609.452 1549.37 607.595 1550.56 605.596 1551.75 603.596 1552.71 601.489 1553.45 599.273 1554.2 597.058 1554.57 594.829 1554.57 592.586 1554.57 591.614 1554.36 590.864 1553.94 590.337 1553.52 589.81 1552.87 589.547 1551.98 589.547 1550.84 589.547 1549.79 589.986 1548.83 590.864 1547.88 591.742 1546.88 592.897 1545.86 594.329L1543.55 592.262C1544.19 591.289 1544.96 590.357 1545.84 589.466 1546.71 588.574 1547.65 587.791 1548.63 587.115 1549.62 586.44 1550.64 585.899 1551.69 585.494 1552.75 585.089 1553.77 584.886 1554.77 584.886Z" fill-rule="evenodd"/><text fill="#000000" fill-opacity="0" font-family="Arial,Arial_MSFontService,sans-serif" font-size="40.2842" x="1519.23" y="620.135">𝑣</text><path d="M1550.78 559.128 1560.95 567.923 1560.95 571.003 1530.39 571.003 1530.39 567.193 1555.12 567.193 1548.63 561.56Z" fill-rule="evenodd"/><text fill="#000000" fill-opacity="0" font-family="Arial,Arial_MSFontService,sans-serif" font-size="11.8745" x="1530.39" y="569.518">റ</text><path d="M1452.47 680.726 1458.71 680.726 1458.71 756.148 1452.47 756.148ZM1376.73 680.726 1382.98 680.726 1382.98 756.148 1376.73 756.148Z" fill-rule="evenodd"/><path d="M1405.92 702.679C1407.65 702.679 1409.01 703.26 1410.01 704.422 1411.01 705.584 1411.51 707.151 1411.51 709.123 1411.51 711.258 1411.09 713.919 1410.25 717.107L1408.47 724.118C1408.01 725.902 1407.68 727.293 1407.48 728.293 1407.27 729.292 1407.13 730.157 1407.03 730.886 1406.94 731.616 1406.89 732.224 1406.89 732.71 1406.89 734.574 1407.2 735.919 1407.82 736.743 1408.44 737.567 1409.46 737.979 1410.86 737.979 1412 737.979 1413.22 737.526 1414.53 736.621 1415.84 735.716 1417.23 734.352 1418.7 732.528 1420.18 730.704 1421.36 728.934 1422.25 727.219 1423.14 725.503 1423.87 723.389 1424.44 720.876L1428.29 703.328 1435.3 703.328 1429.38 729.022C1428.79 731.616 1428.49 733.615 1428.49 735.02 1428.49 736.101 1428.67 736.885 1429.02 737.371 1429.37 737.857 1429.92 738.1 1430.68 738.1 1431.49 738.1 1432.35 737.769 1433.27 737.107 1434.19 736.445 1435.49 735.182 1437.16 733.318L1439.47 735.588C1437.01 738.208 1434.92 740.059 1433.19 741.14 1431.46 742.221 1429.62 742.761 1427.68 742.761 1426 742.761 1424.67 742.207 1423.67 741.099 1422.67 739.992 1422.17 738.519 1422.17 736.682 1422.17 735.223 1422.49 733.629 1423.14 731.9L1422.65 731.738C1419.98 735.493 1417.45 738.262 1415.06 740.046 1412.66 741.829 1410.21 742.72 1407.7 742.72 1405.19 742.72 1403.26 741.998 1401.9 740.552 1400.55 739.107 1399.88 737.101 1399.88 734.534 1399.88 732.832 1400.27 730.414 1401.05 727.28L1403.69 716.661C1404.42 713.716 1404.78 711.636 1404.78 710.42 1404.78 709.339 1404.61 708.556 1404.25 708.07 1403.9 707.583 1403.35 707.34 1402.59 707.34 1401.76 707.34 1400.87 707.685 1399.94 708.374 1399.01 709.062 1397.73 710.312 1396.11 712.122L1393.8 709.853C1396.1 707.529 1397.82 705.935 1398.99 705.071 1400.15 704.206 1401.26 703.591 1402.33 703.227 1403.4 702.862 1404.59 702.679 1405.92 702.679Z" fill-rule="evenodd"/><text fill="#000000" fill-opacity="0" font-family="Arial,Arial_MSFontService,sans-serif" font-size="40.0815" x="1393.8" y="737.751">𝑢</text><path d="M1430.38 676.782 1440.55 685.577 1440.55 688.657 1421.18 688.657 1409.99 688.657 1396.86 688.657 1396.86 684.847 1409.99 684.847 1421.18 684.847 1434.71 684.847 1428.23 679.214Z" fill-rule="evenodd"/><path d="M1551.77 680.726 1558.01 680.726 1558.01 756.148 1551.77 756.148ZM1478.58 680.726 1484.82 680.726 1484.82 756.148 1478.58 756.148Z" fill-rule="evenodd"/><path d="M1533.05 702.517C1534.99 702.517 1536.4 703.024 1537.26 704.037 1538.13 705.05 1538.56 706.408 1538.56 708.11 1538.56 709.407 1538.33 710.893 1537.87 712.568 1537.41 714.243 1536.76 716.013 1535.92 717.877 1535.09 719.741 1534.09 721.653 1532.93 723.612 1531.76 725.571 1530.48 727.475 1529.08 729.326 1527.67 731.177 1526.17 732.92 1524.58 734.554 1522.98 736.189 1521.33 737.614 1519.61 738.83 1517.9 740.046 1516.15 741.012 1514.38 741.728 1512.61 742.444 1510.85 742.802 1509.1 742.802 1508.31 742.802 1507.66 742.606 1507.13 742.214 1506.6 741.822 1506.18 741.268 1505.85 740.552 1505.53 739.836 1505.3 738.992 1505.16 738.019 1505.03 737.047 1504.96 735.979 1504.96 734.818 1504.96 733.278 1505.06 731.629 1505.25 729.873 1505.43 728.117 1505.68 726.347 1505.97 724.564L1507.68 713.338C1507.79 712.69 1507.87 712.075 1507.94 711.494 1508.01 710.913 1508.04 710.488 1508.04 710.218 1508.04 709.38 1507.91 708.691 1507.64 708.151 1507.37 707.61 1506.91 707.34 1506.26 707.34 1505.75 707.34 1505.19 707.495 1504.6 707.806 1504 708.117 1503.4 708.515 1502.79 709.002 1502.19 709.488 1501.6 710.008 1501.03 710.562 1500.46 711.116 1499.94 711.636 1499.45 712.122L1497.5 709.853C1498.34 708.988 1499.23 708.13 1500.18 707.279 1501.13 706.428 1502.12 705.658 1503.18 704.969 1504.23 704.28 1505.34 703.726 1506.5 703.308 1507.66 702.889 1508.85 702.679 1510.07 702.679 1511.09 702.679 1511.93 702.848 1512.58 703.186 1513.23 703.524 1513.74 703.97 1514.1 704.523 1514.47 705.077 1514.72 705.685 1514.85 706.347 1514.99 707.009 1515.05 707.664 1515.05 708.313 1515.05 708.691 1515.04 709.056 1515.01 709.407 1514.99 709.758 1514.94 710.082 1514.89 710.38L1512.62 725.051C1512.38 726.591 1512.18 728.097 1512.01 729.569 1511.85 731.042 1511.77 732.345 1511.77 733.48 1511.77 734.615 1511.84 735.534 1511.97 736.236 1512.11 736.939 1512.36 737.29 1512.74 737.29 1513.63 737.29 1514.76 736.932 1516.11 736.216 1517.46 735.5 1518.88 734.514 1520.36 733.257 1521.85 732.001 1523.33 730.515 1524.82 728.799 1526.31 727.084 1527.64 725.226 1528.83 723.227 1530.02 721.227 1530.99 719.12 1531.73 716.905 1532.47 714.689 1532.84 712.46 1532.84 710.218 1532.84 709.245 1532.64 708.495 1532.22 707.968 1531.8 707.441 1531.14 707.178 1530.25 707.178 1529.12 707.178 1528.07 707.617 1527.11 708.495 1526.15 709.373 1525.16 710.528 1524.13 711.96L1521.82 709.893C1522.47 708.921 1523.23 707.989 1524.11 707.097 1524.99 706.205 1525.92 705.422 1526.91 704.746 1527.89 704.071 1528.91 703.531 1529.97 703.125 1531.02 702.72 1532.05 702.517 1533.05 702.517Z" fill-rule="evenodd"/><text fill="#000000" fill-opacity="0" font-family="Arial,Arial_MSFontService,sans-serif" font-size="40.2842" x="1497.5" y="737.766">𝑣</text><path d="M1529.06 676.76 1539.23 685.554 1539.23 688.634 1508.67 688.634 1508.67 684.824 1533.39 684.824 1526.91 679.191Z" fill-rule="evenodd"/><text fill="#000000" fill-opacity="0" font-family="Arial,Arial_MSFontService,sans-serif" font-size="11.8745" x="1508.67" y="687.15">റ</text><path d="M1367.18 660.94 1467.68 660.94 1568.18 660.94 1568.18 665.94 1467.68 665.94 1367.18 665.94Z" fill-rule="evenodd"/><path d="M1794.47 354.725C1793.2 360.588 1792.57 365.518 1792.57 369.517 1792.57 372.543 1793.03 374.765 1793.94 376.184 1794.86 377.602 1796.35 378.312 1798.4 378.312 1801.43 378.312 1804.3 376.279 1807.01 372.212 1809.73 368.146 1812.03 362.317 1813.92 354.725ZM1811.09 327.409C1807.93 327.409 1805 329.409 1802.31 333.407 1799.62 337.406 1797.33 343.134 1795.44 350.591L1814.86 350.591C1816.13 344.89 1816.76 339.986 1816.76 335.879 1816.76 333.043 1816.3 330.922 1815.38 329.517 1814.46 328.112 1813.03 327.409 1811.09 327.409ZM1811.57 324.127C1819.41 324.127 1823.33 329.098 1823.33 339.041 1823.33 341.851 1823.01 345.208 1822.37 349.112 1821.74 353.016 1820.73 356.994 1819.35 361.047 1817.98 365.1 1816.23 368.686 1814.13 371.807 1812.02 374.928 1809.59 377.339 1806.83 379.041 1804.08 380.743 1801.1 381.594 1797.92 381.594 1793.89 381.594 1790.89 380.365 1788.92 377.906 1786.95 375.448 1785.96 371.76 1785.96 366.842 1785.96 364.168 1786.26 360.871 1786.85 356.954 1787.45 353.036 1788.43 349.031 1789.79 344.937 1791.15 340.844 1792.91 337.21 1795.06 334.035 1797.21 330.861 1799.68 328.416 1802.47 326.7 1805.27 324.984 1808.3 324.127 1811.57 324.127Z" fill-rule="evenodd"/><text fill="#000000" fill-opacity="0" font-family="Arial,Arial_MSFontService,sans-serif" font-size="57.4678" x="1785.96" y="374.411">𝜃</text><path d="M1859.07 362.952 1909 362.952 1909 368.342 1859.07 368.342ZM1859.07 346.133 1909 346.133 1909 351.523 1859.07 351.523Z" fill-rule="evenodd"/><text fill="#000000" fill-opacity="0" font-family="Arial,Arial_MSFontService,sans-serif" font-size="22.209" x="1859.07" y="365.566">=</text><path d="M1995.87 344.714C1992.6 344.714 1990.09 346.133 1988.35 348.97 1986.61 351.807 1985.74 355.846 1985.74 361.087 1985.74 366.653 1986.62 370.929 1988.39 373.914 1990.16 376.9 1992.69 378.393 1995.99 378.393 1997.8 378.393 1999.34 377.954 2000.61 377.076 2001.88 376.197 2002.91 375.015 2003.71 373.529 2004.51 372.043 2005.08 370.321 2005.43 368.362 2005.78 366.403 2005.96 364.357 2005.96 362.222 2005.96 358.251 2005.52 354.954 2004.64 352.334 2003.76 349.713 2002.57 347.788 2001.05 346.558 1999.54 345.329 1997.81 344.714 1995.87 344.714ZM2037.48 341.513C2039.26 341.513 2040.98 341.601 2042.64 341.776 2044.3 341.952 2046.39 342.296 2048.9 342.81L2048.9 351.077 2045.01 351.077C2044.42 349.456 2043.72 348.18 2042.91 347.247 2042.1 346.315 2041.18 345.66 2040.15 345.282 2039.12 344.904 2037.87 344.714 2036.38 344.714 2034.22 344.714 2032.5 345.221 2031.21 346.234 2029.93 347.247 2029.29 348.632 2029.29 350.388 2029.29 351.631 2029.55 352.658 2030.06 353.468 2030.57 354.279 2031.37 355.035 2032.45 355.738 2033.53 356.44 2035.44 357.372 2038.16 358.534 2040.92 359.723 2043.05 360.817 2044.55 361.817 2046.05 362.817 2047.22 363.978 2048.07 365.302 2048.92 366.626 2049.35 368.207 2049.35 370.044 2049.35 372.178 2048.99 373.975 2048.26 375.434 2047.53 376.893 2046.5 378.082 2045.18 379.001 2043.85 379.919 2042.28 380.581 2040.45 380.986 2038.63 381.392 2036.64 381.594 2034.48 381.594 2032.21 381.594 2030.01 381.425 2027.87 381.088 2025.74 380.75 2023.66 380.311 2021.63 379.771L2021.63 371.3 2025.6 371.3C2026.33 373.786 2027.41 375.59 2028.84 376.711 2030.28 377.832 2032.25 378.393 2034.76 378.393 2035.73 378.393 2036.69 378.291 2037.62 378.089 2038.55 377.886 2039.38 377.548 2040.11 377.076 2040.84 376.603 2041.42 375.961 2041.85 375.15 2042.29 374.34 2042.5 373.327 2042.5 372.111 2042.5 370.733 2042.23 369.612 2041.69 368.747 2041.15 367.883 2040.31 367.092 2039.18 366.376 2038.04 365.66 2036.04 364.694 2033.18 363.479 2030.72 362.452 2028.75 361.452 2027.26 360.48 2025.78 359.507 2024.61 358.359 2023.76 357.035 2022.91 355.711 2022.48 354.144 2022.48 352.334 2022.48 350.118 2023.08 348.193 2024.28 346.558 2025.49 344.924 2027.22 343.674 2029.49 342.81 2031.76 341.945 2034.42 341.513 2037.48 341.513ZM1996.03 341.513C2001.81 341.513 2006.19 343.195 2009.16 346.558 2012.13 349.922 2013.62 354.752 2013.62 361.047 2013.62 365.532 2012.88 369.315 2011.39 372.395 2009.9 375.475 2007.8 377.778 2005.07 379.305 2002.34 380.831 1999.11 381.594 1995.38 381.594 1989.76 381.594 1985.47 379.939 1982.51 376.63 1979.55 373.32 1978.08 368.423 1978.08 361.939 1978.08 357.481 1978.85 353.712 1980.41 350.631 1981.96 347.551 1984.09 345.262 1986.79 343.762 1989.49 342.263 1992.57 341.513 1996.03 341.513ZM1960.15 341.513C1962.37 341.513 1964.41 341.641 1966.29 341.898 1968.17 342.154 1970.05 342.566 1971.94 343.134L1971.94 351.604 1966.8 351.604C1966.34 349.848 1965.77 348.463 1965.1 347.45 1964.42 346.437 1963.64 345.728 1962.74 345.322 1961.85 344.917 1960.75 344.714 1959.42 344.714 1957.53 344.714 1955.85 345.322 1954.4 346.538 1952.94 347.754 1951.78 349.605 1950.93 352.09 1950.08 354.576 1949.65 357.616 1949.65 361.209 1949.65 363.506 1949.82 365.606 1950.14 367.511 1950.46 369.416 1951.02 371.044 1951.8 372.395 1952.59 373.746 1953.63 374.799 1954.92 375.556 1956.22 376.312 1957.83 376.691 1959.75 376.691 1961.61 376.691 1963.35 376.326 1964.95 375.596 1966.56 374.867 1968.23 373.583 1969.96 371.746L1972.27 374.421C1970.89 375.934 1969.67 377.103 1968.62 377.927 1967.57 378.751 1966.44 379.44 1965.24 379.993 1964.03 380.547 1962.85 380.953 1961.67 381.209 1960.5 381.466 1959.22 381.594 1957.84 381.594 1952.73 381.594 1948.83 379.899 1946.13 376.508 1943.43 373.117 1942.08 368.22 1942.08 361.817 1942.08 357.818 1942.83 354.272 1944.35 351.179 1945.86 348.085 1947.98 345.701 1950.71 344.025 1953.44 342.35 1956.58 341.513 1960.15 341.513Z" fill-rule="evenodd"/><text fill="#000000" fill-opacity="0" font-family="Arial,Arial_MSFontService,sans-serif" font-size="40.0815" x="1942.08" y="376.584">cos</text><path d="M2060.62 331.024 2094.94 331.024 2094.94 335.581 2060.62 335.581Z" fill-rule="evenodd"/><text fill="#000000" fill-opacity="0" font-family="Arial,Arial_MSFontService,sans-serif" font-size="4.55713" x="2060.62" y="335.011">−</text><path d="M2119.24 312.378 2121.05 312.378C2121.01 313.471 2120.98 314.449 2120.96 315.312 2120.94 316.176 2120.93 317.015 2120.92 317.829 2120.91 318.643 2120.9 319.447 2120.9 320.242L2120.9 342.878C2120.9 343.494 2120.92 344.025 2120.96 344.472 2121 344.919 2121.07 345.296 2121.16 345.604 2121.25 345.912 2121.37 346.175 2121.51 346.393 2121.66 346.612 2121.84 346.8 2122.04 346.959 2122.27 347.197 2122.59 347.381 2122.99 347.51 2123.39 347.639 2123.89 347.748 2124.51 347.838 2125.12 347.927 2125.86 347.997 2126.73 348.046 2127.59 348.096 2128.63 348.131 2129.84 348.15L2129.84 350.742 2106.22 350.742 2106.22 348.15C2107.39 348.111 2108.38 348.066 2109.2 348.016 2110.01 347.967 2110.71 347.897 2111.28 347.808 2111.86 347.719 2112.32 347.619 2112.67 347.51 2113.02 347.401 2113.32 347.267 2113.58 347.108 2113.85 346.929 2114.09 346.736 2114.29 346.527 2114.49 346.319 2114.65 346.056 2114.77 345.738 2114.89 345.42 2114.98 345.033 2115.05 344.576 2115.12 344.12 2115.16 343.554 2115.16 342.878L2115.16 321.522C2115.16 320.748 2115.01 320.202 2114.71 319.884 2114.41 319.567 2113.98 319.408 2113.43 319.408 2112.81 319.408 2111.9 319.725 2110.69 320.361 2109.48 320.996 2107.91 321.939 2105.98 323.19 2105.72 322.734 2105.48 322.277 2105.27 321.82 2105.05 321.364 2104.82 320.897 2104.58 320.42 2107.04 319.07 2109.48 317.725 2111.89 316.385 2114.31 315.044 2116.75 313.709 2119.24 312.378Z" fill-rule="evenodd"/><text fill="#000000" fill-opacity="0" font-family="Arial,Arial_MSFontService,sans-serif" font-size="38.3633" x="2104.58" y="345.946">1</text><path d="M2404.29 251.449C2415.39 260.959 2424.2 275.144 2430.73 294.002 2437.25 312.861 2440.52 333.908 2440.52 357.144 2440.52 380.028 2437.25 401.042 2430.73 420.184 2424.2 439.327 2415.39 453.626 2404.29 463.083L2402.38 460.083C2411.97 450.33 2419.36 436.213 2424.55 417.732 2429.74 399.252 2432.33 379.069 2432.33 357.185 2432.33 334.786 2429.72 314.509 2424.51 296.353 2419.29 278.197 2411.92 264.242 2402.38 254.488ZM2194.28 251.449 2196.19 254.488C2186.62 264.242 2179.24 278.197 2174.04 296.353 2168.84 314.509 2166.24 334.786 2166.24 357.185 2166.24 379.069 2168.83 399.252 2174.02 417.732 2179.21 436.213 2186.6 450.33 2196.19 460.083L2194.28 463.083C2183.18 453.626 2174.36 439.327 2167.84 420.184 2161.31 401.042 2158.05 380.028 2158.05 357.144 2158.05 333.908 2161.31 312.861 2167.84 294.002 2174.36 275.144 2183.18 260.959 2194.28 251.449Z" fill-rule="evenodd"/><path d="M2233.77 279.065C2235.5 279.065 2236.86 279.646 2237.86 280.808 2238.86 281.969 2239.36 283.536 2239.36 285.509 2239.36 287.643 2238.95 290.304 2238.11 293.493L2236.32 300.504C2235.86 302.287 2235.53 303.678 2235.33 304.678 2235.13 305.678 2234.98 306.542 2234.89 307.272 2234.79 308.001 2234.74 308.609 2234.74 309.096 2234.74 310.96 2235.05 312.304 2235.68 313.128 2236.3 313.952 2237.31 314.364 2238.72 314.364 2239.85 314.364 2241.07 313.912 2242.38 313.007 2243.69 312.101 2245.08 310.737 2246.56 308.913 2248.03 307.09 2249.21 305.32 2250.1 303.604 2251 301.889 2251.72 299.774 2252.29 297.262L2256.14 279.713 2263.15 279.713 2257.24 305.408C2256.64 308.001 2256.34 310.001 2256.34 311.406 2256.34 312.486 2256.52 313.27 2256.87 313.756 2257.22 314.243 2257.78 314.486 2258.53 314.486 2259.34 314.486 2260.21 314.155 2261.13 313.493 2262.05 312.831 2263.34 311.568 2265.02 309.704L2267.33 311.973C2264.87 314.594 2262.78 316.445 2261.05 317.525 2259.32 318.606 2257.48 319.146 2255.53 319.146 2253.86 319.146 2252.52 318.593 2251.52 317.485 2250.52 316.377 2250.02 314.905 2250.02 313.067 2250.02 311.608 2250.35 310.014 2251 308.285L2250.51 308.123C2247.83 311.879 2245.3 314.648 2242.91 316.431 2240.52 318.214 2238.07 319.106 2235.55 319.106 2233.04 319.106 2231.11 318.383 2229.76 316.938 2228.41 315.492 2227.73 313.486 2227.73 310.919 2227.73 309.217 2228.12 306.799 2228.91 303.665L2231.54 293.047C2232.27 290.102 2232.64 288.021 2232.64 286.806 2232.64 285.725 2232.46 284.941 2232.11 284.455 2231.76 283.969 2231.2 283.726 2230.45 283.726 2229.61 283.726 2228.73 284.07 2227.79 284.759 2226.86 285.448 2225.58 286.698 2223.96 288.508L2221.65 286.238C2223.95 283.915 2225.68 282.321 2226.84 281.456 2228 280.591 2229.12 279.977 2230.18 279.612 2231.25 279.247 2232.45 279.065 2233.77 279.065Z" fill-rule="evenodd"/><text fill="#000000" fill-opacity="0" font-family="Arial,Arial_MSFontService,sans-serif" font-size="40.0815" x="2221.65" y="314.136">𝑢</text><path d="M2258.23 253.168 2268.4 261.962 2268.4 265.042 2249.03 265.042 2237.85 265.042 2224.71 265.042 2224.71 261.233 2237.85 261.233 2249.03 261.233 2262.57 261.233 2256.08 255.6Z" fill-rule="evenodd"/><path d="M2300.36 288.954C2301.42 288.954 2302.37 289.203 2303.22 289.703 2304.07 290.203 2304.73 290.899 2305.19 291.79 2305.65 292.682 2305.88 293.682 2305.88 294.789 2305.88 295.924 2305.64 296.937 2305.17 297.829 2304.69 298.721 2304.03 299.41 2303.18 299.896 2302.33 300.382 2301.39 300.625 2300.36 300.625 2299.34 300.625 2298.4 300.382 2297.55 299.896 2296.7 299.41 2296.03 298.721 2295.56 297.829 2295.09 296.937 2294.85 295.924 2294.85 294.789 2294.85 293.682 2295.08 292.682 2295.54 291.79 2296 290.899 2296.66 290.203 2297.51 289.703 2298.36 289.203 2299.31 288.954 2300.36 288.954Z" fill-rule="evenodd"/><text fill="#000000" fill-opacity="0" font-family="Arial,Arial_MSFontService,sans-serif" font-size="11.6719" x="2294.85" y="299.166">∙</text><path d="M2368.85 278.903C2370.8 278.903 2372.2 279.409 2373.07 280.423 2373.93 281.436 2374.37 282.793 2374.37 284.496 2374.37 285.792 2374.14 287.278 2373.68 288.954 2373.22 290.629 2372.57 292.398 2371.73 294.263 2370.89 296.127 2369.89 298.038 2368.73 299.997 2367.57 301.956 2366.29 303.861 2364.88 305.712 2363.48 307.562 2361.98 309.305 2360.38 310.94 2358.79 312.574 2357.13 313.999 2355.42 315.215 2353.7 316.431 2351.96 317.397 2350.19 318.113 2348.42 318.829 2346.66 319.187 2344.9 319.187 2344.12 319.187 2343.46 318.991 2342.94 318.599 2342.41 318.208 2341.98 317.654 2341.66 316.938 2341.34 316.222 2341.11 315.377 2340.97 314.405 2340.84 313.432 2340.77 312.365 2340.77 311.203 2340.77 309.663 2340.86 308.015 2341.05 306.259 2341.24 304.503 2341.48 302.733 2341.78 300.95L2343.48 289.724C2343.59 289.075 2343.68 288.46 2343.75 287.88 2343.81 287.299 2343.85 286.873 2343.85 286.603 2343.85 285.765 2343.71 285.076 2343.44 284.536 2343.17 283.996 2342.71 283.726 2342.07 283.726 2341.55 283.726 2341 283.881 2340.4 284.192 2339.81 284.502 2339.21 284.901 2338.6 285.387 2337.99 285.873 2337.4 286.394 2336.84 286.947 2336.27 287.501 2335.74 288.021 2335.26 288.508L2333.31 286.238C2334.15 285.374 2335.04 284.516 2335.99 283.665 2336.93 282.814 2337.93 282.044 2338.99 281.355 2340.04 280.666 2341.15 280.112 2342.31 279.693 2343.47 279.274 2344.66 279.065 2345.87 279.065 2346.9 279.065 2347.74 279.234 2348.39 279.571 2349.04 279.909 2349.54 280.355 2349.91 280.909 2350.27 281.463 2350.52 282.071 2350.66 282.733 2350.79 283.395 2350.86 284.05 2350.86 284.698 2350.86 285.076 2350.85 285.441 2350.82 285.792 2350.79 286.144 2350.75 286.468 2350.7 286.765L2348.43 301.436C2348.18 302.976 2347.98 304.482 2347.82 305.955 2347.66 307.427 2347.58 308.731 2347.58 309.866 2347.58 311 2347.64 311.919 2347.78 312.622 2347.91 313.324 2348.17 313.675 2348.55 313.675 2349.44 313.675 2350.56 313.317 2351.91 312.601 2353.26 311.885 2354.68 310.899 2356.17 309.643 2357.65 308.386 2359.14 306.9 2360.63 305.185 2362.11 303.469 2363.45 301.612 2364.64 299.612 2365.83 297.613 2366.79 295.505 2367.54 293.29 2368.28 291.074 2368.65 288.845 2368.65 286.603 2368.65 285.63 2368.44 284.881 2368.02 284.354 2367.6 283.827 2366.95 283.563 2366.06 283.563 2364.92 283.563 2363.88 284.002 2362.92 284.881 2361.96 285.759 2360.96 286.914 2359.94 288.346L2357.63 286.279C2358.28 285.306 2359.04 284.374 2359.92 283.482 2360.8 282.591 2361.73 281.807 2362.71 281.132 2363.7 280.456 2364.72 279.916 2365.77 279.511 2366.83 279.105 2367.85 278.903 2368.85 278.903Z" fill-rule="evenodd"/><text fill="#000000" fill-opacity="0" font-family="Arial,Arial_MSFontService,sans-serif" font-size="40.2842" x="2333.31" y="314.151">𝑣</text><path d="M2364.86 253.145 2375.03 261.939 2375.03 265.02 2344.48 265.02 2344.48 261.21 2369.2 261.21 2362.71 255.577Z" fill-rule="evenodd"/><text fill="#000000" fill-opacity="0" font-family="Arial,Arial_MSFontService,sans-serif" font-size="11.8745" x="2344.48" y="263.535">റ</text><path d="M2284.32 374.743 2290.56 374.743 2290.56 450.164 2284.32 450.164ZM2208.58 374.743 2214.82 374.743 2214.82 450.164 2208.58 450.164Z" fill-rule="evenodd"/><path d="M2237.76 396.696C2239.49 396.696 2240.85 397.277 2241.85 398.439 2242.85 399.601 2243.35 401.168 2243.35 403.14 2243.35 405.274 2242.93 407.936 2242.09 411.124L2240.31 418.135C2239.85 419.918 2239.52 421.31 2239.32 422.309 2239.12 423.309 2238.97 424.174 2238.87 424.903 2238.78 425.633 2238.73 426.241 2238.73 426.727 2238.73 428.591 2239.04 429.935 2239.66 430.759 2240.28 431.583 2241.3 431.995 2242.7 431.995 2243.84 431.995 2245.06 431.543 2246.37 430.638 2247.68 429.733 2249.07 428.368 2250.54 426.545 2252.02 424.721 2253.2 422.951 2254.09 421.235 2254.98 419.52 2255.71 417.406 2256.28 414.893L2260.13 397.345 2267.14 397.345 2261.22 423.039C2260.63 425.633 2260.33 427.632 2260.33 429.037 2260.33 430.118 2260.51 430.901 2260.86 431.388 2261.21 431.874 2261.76 432.117 2262.52 432.117 2263.33 432.117 2264.2 431.786 2265.11 431.124 2266.03 430.462 2267.33 429.199 2269.01 427.335L2271.32 429.604C2268.86 432.225 2266.76 434.076 2265.03 435.157 2263.3 436.237 2261.47 436.778 2259.52 436.778 2257.85 436.778 2256.51 436.224 2255.51 435.116 2254.51 434.008 2254.01 432.536 2254.01 430.699 2254.01 429.24 2254.33 427.646 2254.98 425.916L2254.5 425.754C2251.82 429.51 2249.29 432.279 2246.9 434.062 2244.51 435.846 2242.05 436.737 2239.54 436.737 2237.03 436.737 2235.1 436.014 2233.75 434.569 2232.4 433.123 2231.72 431.117 2231.72 428.551 2231.72 426.848 2232.11 424.43 2232.9 421.296L2235.53 410.678C2236.26 407.733 2236.62 405.653 2236.62 404.437 2236.62 403.356 2236.45 402.573 2236.1 402.086 2235.75 401.6 2235.19 401.357 2234.44 401.357 2233.6 401.357 2232.71 401.701 2231.78 402.39 2230.85 403.079 2229.57 404.329 2227.95 406.139L2225.64 403.869C2227.94 401.546 2229.67 399.952 2230.83 399.087 2231.99 398.223 2233.1 397.608 2234.17 397.243 2235.24 396.879 2236.43 396.696 2237.76 396.696Z" fill-rule="evenodd"/><text fill="#000000" fill-opacity="0" font-family="Arial,Arial_MSFontService,sans-serif" font-size="40.0815" x="2225.64" y="431.767">𝑢</text><path d="M2262.22 370.799 2272.39 379.594 2272.39 382.674 2253.02 382.674 2241.83 382.674 2228.7 382.674 2228.7 378.864 2241.83 378.864 2253.02 378.864 2266.55 378.864 2260.07 373.231Z" fill-rule="evenodd"/><path d="M2383.61 374.743 2389.85 374.743 2389.85 450.164 2383.61 450.164ZM2310.42 374.743 2316.66 374.743 2316.66 450.164 2310.42 450.164Z" fill-rule="evenodd"/><path d="M2364.89 396.534C2366.83 396.534 2368.24 397.041 2369.1 398.054 2369.97 399.067 2370.4 400.425 2370.4 402.127 2370.4 403.424 2370.17 404.91 2369.71 406.585 2369.25 408.26 2368.6 410.03 2367.77 411.894 2366.93 413.758 2365.93 415.67 2364.77 417.629 2363.61 419.587 2362.32 421.492 2360.92 423.343 2359.51 425.194 2358.01 426.936 2356.42 428.571 2354.82 430.206 2353.17 431.631 2351.45 432.847 2349.74 434.062 2348 435.028 2346.23 435.744 2344.46 436.46 2342.69 436.818 2340.94 436.818 2340.15 436.818 2339.5 436.622 2338.97 436.231 2338.45 435.839 2338.02 435.285 2337.7 434.569 2337.37 433.853 2337.14 433.009 2337.01 432.036 2336.87 431.063 2336.8 429.996 2336.8 428.834 2336.8 427.294 2336.9 425.646 2337.09 423.89 2337.28 422.134 2337.52 420.364 2337.82 418.581L2339.52 407.355C2339.63 406.706 2339.71 406.092 2339.78 405.511 2339.85 404.93 2339.88 404.504 2339.88 404.234 2339.88 403.397 2339.75 402.708 2339.48 402.167 2339.21 401.627 2338.75 401.357 2338.1 401.357 2337.59 401.357 2337.03 401.512 2336.44 401.823 2335.84 402.134 2335.24 402.532 2334.64 403.018 2334.03 403.505 2333.44 404.025 2332.87 404.579 2332.31 405.133 2331.78 405.653 2331.29 406.139L2329.35 403.869C2330.18 403.005 2331.08 402.147 2332.02 401.296 2332.97 400.445 2333.97 399.675 2335.02 398.986 2336.07 398.297 2337.18 397.743 2338.34 397.324 2339.51 396.906 2340.69 396.696 2341.91 396.696 2342.94 396.696 2343.77 396.865 2344.42 397.203 2345.07 397.54 2345.58 397.986 2345.94 398.54 2346.31 399.094 2346.56 399.702 2346.69 400.364 2346.83 401.026 2346.9 401.681 2346.9 402.329 2346.9 402.708 2346.88 403.072 2346.85 403.424 2346.83 403.775 2346.79 404.099 2346.73 404.396L2344.46 419.067C2344.22 420.607 2344.02 422.114 2343.86 423.586 2343.69 425.059 2343.61 426.362 2343.61 427.497 2343.61 428.632 2343.68 429.55 2343.81 430.253 2343.95 430.955 2344.21 431.306 2344.58 431.306 2345.48 431.306 2346.6 430.948 2347.95 430.233 2349.3 429.517 2350.72 428.53 2352.2 427.274 2353.69 426.018 2355.18 424.532 2356.66 422.816 2358.15 421.1 2359.49 419.243 2360.67 417.243 2361.86 415.244 2362.83 413.137 2363.57 410.921 2364.31 408.706 2364.69 406.477 2364.69 404.234 2364.69 403.262 2364.48 402.512 2364.06 401.985 2363.64 401.458 2362.98 401.195 2362.09 401.195 2360.96 401.195 2359.91 401.634 2358.95 402.512 2357.99 403.39 2357 404.545 2355.97 405.977L2353.66 403.91C2354.31 402.937 2355.07 402.005 2355.95 401.114 2356.83 400.222 2357.76 399.438 2358.75 398.763 2359.74 398.088 2360.76 397.547 2361.81 397.142 2362.86 396.737 2363.89 396.534 2364.89 396.534Z" fill-rule="evenodd"/><text fill="#000000" fill-opacity="0" font-family="Arial,Arial_MSFontService,sans-serif" font-size="40.2842" x="2329.35" y="431.783">𝑣</text><path d="M2360.9 370.776 2371.07 379.571 2371.07 382.651 2340.51 382.651 2340.51 378.841 2365.23 378.841 2358.75 373.208Z" fill-rule="evenodd"/><text fill="#000000" fill-opacity="0" font-family="Arial,Arial_MSFontService,sans-serif" font-size="11.8745" x="2340.51" y="381.166">റ</text><path d="M2198.3 354.94 2298.8 354.94 2399.3 354.94 2399.3 359.94 2298.8 359.94 2198.3 359.94Z" fill-rule="evenodd"/><path d="M1794.47 675.725C1793.2 681.588 1792.57 686.518 1792.57 690.517 1792.57 693.543 1793.03 695.765 1793.94 697.184 1794.86 698.602 1796.35 699.312 1798.4 699.312 1801.43 699.312 1804.3 697.278 1807.01 693.212 1809.73 689.146 1812.03 683.317 1813.92 675.725ZM1811.09 648.409C1807.93 648.409 1805 650.409 1802.31 654.407 1799.62 658.406 1797.33 664.134 1795.44 671.591L1814.86 671.591C1816.13 665.89 1816.76 660.986 1816.76 656.879 1816.76 654.043 1816.3 651.922 1815.38 650.517 1814.46 649.112 1813.03 648.409 1811.09 648.409ZM1811.57 645.127C1819.41 645.127 1823.33 650.098 1823.33 660.041 1823.33 662.85 1823.01 666.208 1822.37 670.112 1821.74 674.016 1820.73 677.994 1819.35 682.047 1817.98 686.1 1816.23 689.686 1814.13 692.807 1812.02 695.928 1809.59 698.339 1806.83 700.041 1804.08 701.743 1801.1 702.594 1797.92 702.594 1793.89 702.594 1790.89 701.365 1788.92 698.906 1786.95 696.448 1785.96 692.76 1785.96 687.842 1785.96 685.168 1786.26 681.871 1786.85 677.954 1787.45 674.036 1788.43 670.031 1789.79 665.937 1791.15 661.844 1792.91 658.21 1795.06 655.035 1797.21 651.861 1799.68 649.416 1802.47 647.7 1805.27 645.984 1808.3 645.127 1811.57 645.127Z" fill-rule="evenodd"/><text fill="#000000" fill-opacity="0" font-family="Arial,Arial_MSFontService,sans-serif" font-size="57.4678" x="1785.96" y="695.411">𝜃</text><path d="M1859.07 683.952 1909 683.952 1909 689.342 1859.07 689.342ZM1859.07 667.133 1909 667.133 1909 672.523 1859.07 672.523Z" fill-rule="evenodd"/><text fill="#000000" fill-opacity="0" font-family="Arial,Arial_MSFontService,sans-serif" font-size="22.209" x="1859.07" y="686.566">=</text><path d="M1986.63 662.837 1989.1 662.837 1989.1 691.814C1989.1 694.138 1989.21 695.752 1989.42 696.657 1989.64 697.562 1990.05 698.251 1990.66 698.724 1991.27 699.197 1992.26 699.609 1993.64 699.96L1993.64 701.946 1977.75 701.946 1977.75 699.96C1978.81 699.636 1979.55 699.352 1980 699.109 1980.45 698.866 1980.82 698.528 1981.14 698.096 1981.45 697.663 1981.69 697.002 1981.86 696.11 1982.04 695.218 1982.13 693.827 1982.13 691.936L1982.13 674.266C1982.13 672.536 1982.1 671.145 1982.05 670.091 1981.99 669.038 1981.8 668.193 1981.48 667.558 1981.16 666.923 1980.66 666.451 1980 666.14 1979.34 665.829 1978.4 665.566 1977.18 665.35L1977.18 663.202ZM2023.82 662.553C2025.28 662.553 2026.59 662.722 2027.74 663.06 2028.88 663.398 2029.9 663.918 2030.78 664.62 2031.65 665.323 2032.38 666.194 2032.94 667.234 2033.51 668.274 2033.94 669.524 2034.22 670.983 2034.5 672.442 2034.65 674.293 2034.65 676.535L2034.65 691.814C2034.65 693.678 2034.7 695.029 2034.81 695.867 2034.92 696.704 2035.1 697.353 2035.37 697.812 2035.65 698.271 2036.04 698.656 2036.55 698.967 2037.06 699.278 2037.96 699.609 2039.22 699.96L2039.22 701.946 2023.26 701.946 2023.26 699.96C2024.31 699.636 2025.07 699.352 2025.53 699.109 2025.99 698.866 2026.37 698.528 2026.68 698.096 2026.99 697.663 2027.24 696.995 2027.41 696.09 2027.59 695.185 2027.67 693.813 2027.67 691.976L2027.67 681.358C2027.67 679.467 2027.62 677.751 2027.51 676.211 2027.4 674.671 2027.22 673.408 2026.97 672.422 2026.71 671.436 2026.4 670.666 2026.03 670.112 2025.67 669.558 2025.24 669.085 2024.74 668.693 2024.24 668.301 2023.66 667.991 2023.01 667.761 2022.37 667.531 2021.51 667.417 2020.46 667.417 2019.41 667.417 2018.41 667.626 2017.46 668.045 2016.52 668.464 2015.48 669.186 2014.34 670.213 2013.21 671.24 2012.38 672.253 2011.87 673.253 2011.36 674.252 2011.1 675.4 2011.1 676.697L2011.1 691.814C2011.1 694.138 2011.21 695.752 2011.42 696.657 2011.64 697.562 2012.05 698.251 2012.66 698.724 2013.27 699.197 2014.26 699.609 2015.64 699.96L2015.64 701.946 1999.75 701.946 1999.75 699.96C2000.81 699.636 2001.55 699.352 2002 699.109 2002.45 698.866 2002.82 698.528 2003.14 698.096 2003.45 697.663 2003.69 697.002 2003.86 696.11 2004.04 695.218 2004.13 693.827 2004.13 691.936L2004.13 674.266C2004.13 672.536 2004.1 671.145 2004.05 670.091 2003.99 669.038 2003.8 668.193 2003.48 667.558 2003.16 666.923 2002.66 666.451 2002 666.14 2001.34 665.829 2000.4 665.566 1999.18 665.35L1999.18 663.202 2008.67 662.837 2011.14 662.837 2010.69 669.443 2011.26 669.605C2013.26 667.579 2014.87 666.133 2016.1 665.269 2017.33 664.404 2018.58 663.735 2019.83 663.263 2021.09 662.79 2022.42 662.553 2023.82 662.553ZM1957.48 662.513C1959.26 662.513 1960.98 662.601 1962.64 662.776 1964.3 662.952 1966.39 663.296 1968.9 663.81L1968.9 672.077 1965.01 672.077C1964.42 670.456 1963.72 669.18 1962.91 668.247 1962.1 667.315 1961.18 666.66 1960.15 666.282 1959.12 665.904 1957.87 665.714 1956.38 665.714 1954.22 665.714 1952.5 666.221 1951.21 667.234 1949.93 668.247 1949.29 669.632 1949.29 671.388 1949.29 672.631 1949.55 673.658 1950.06 674.468 1950.57 675.279 1951.37 676.035 1952.45 676.738 1953.53 677.44 1955.44 678.372 1958.16 679.534 1960.92 680.723 1963.05 681.817 1964.55 682.817 1966.05 683.817 1967.22 684.978 1968.07 686.302 1968.92 687.626 1969.35 689.207 1969.35 691.044 1969.35 693.178 1968.99 694.975 1968.26 696.434 1967.53 697.893 1966.5 699.082 1965.18 700.001 1963.85 700.919 1962.28 701.581 1960.45 701.986 1958.63 702.392 1956.64 702.594 1954.48 702.594 1952.21 702.594 1950.01 702.425 1947.87 702.088 1945.74 701.75 1943.66 701.311 1941.63 700.771L1941.63 692.3 1945.6 692.3C1946.33 694.786 1947.41 696.589 1948.84 697.711 1950.28 698.832 1952.25 699.393 1954.76 699.393 1955.73 699.393 1956.69 699.291 1957.62 699.089 1958.55 698.886 1959.38 698.548 1960.11 698.076 1960.84 697.603 1961.42 696.961 1961.85 696.15 1962.29 695.34 1962.5 694.327 1962.5 693.111 1962.5 691.733 1962.23 690.612 1961.69 689.747 1961.15 688.883 1960.31 688.092 1959.18 687.376 1958.04 686.66 1956.04 685.694 1953.18 684.479 1950.72 683.452 1948.75 682.452 1947.26 681.48 1945.78 680.507 1944.61 679.359 1943.76 678.035 1942.91 676.711 1942.48 675.144 1942.48 673.334 1942.48 671.118 1943.08 669.193 1944.28 667.558 1945.49 665.924 1947.22 664.674 1949.49 663.81 1951.76 662.945 1954.42 662.513 1957.48 662.513ZM1981.89 647.315 1989.34 647.315 1989.34 655.177 1981.89 655.177Z" fill-rule="evenodd"/><text fill="#000000" fill-opacity="0" font-family="Arial,Arial_MSFontService,sans-serif" font-size="55.2793" x="1941.63" y="695.684">sin</text><path d="M2047.12 652.024 2081.44 652.024 2081.44 656.581 2047.12 656.581Z" fill-rule="evenodd"/><text fill="#000000" fill-opacity="0" font-family="Arial,Arial_MSFontService,sans-serif" font-size="4.55713" x="2047.12" y="656.011">−</text><path d="M2105.74 633.378 2107.55 633.378C2107.51 634.471 2107.49 635.448 2107.47 636.312 2107.45 637.176 2107.43 638.015 2107.42 638.829 2107.41 639.643 2107.41 640.447 2107.41 641.242L2107.41 663.878C2107.41 664.494 2107.43 665.025 2107.47 665.472 2107.51 665.919 2107.57 666.296 2107.66 666.604 2107.75 666.912 2107.87 667.175 2108.02 667.393 2108.17 667.612 2108.34 667.8 2108.54 667.959 2108.78 668.197 2109.09 668.381 2109.49 668.51 2109.89 668.639 2110.39 668.748 2111.01 668.838 2111.63 668.927 2112.36 668.997 2113.23 669.046 2114.09 669.096 2115.13 669.131 2116.34 669.15L2116.34 671.742 2092.72 671.742 2092.72 669.15C2093.89 669.111 2094.89 669.066 2095.7 669.016 2096.51 668.967 2097.21 668.897 2097.79 668.808 2098.36 668.719 2098.82 668.619 2099.17 668.51 2099.52 668.401 2099.82 668.267 2100.08 668.108 2100.36 667.929 2100.59 667.736 2100.79 667.527 2100.99 667.319 2101.15 667.055 2101.27 666.738 2101.39 666.42 2101.48 666.033 2101.55 665.576 2101.62 665.119 2101.66 664.554 2101.66 663.878L2101.66 642.522C2101.66 641.748 2101.51 641.202 2101.21 640.884 2100.91 640.567 2100.49 640.408 2099.93 640.408 2099.31 640.408 2098.4 640.725 2097.19 641.361 2095.98 641.996 2094.41 642.939 2092.48 644.19 2092.23 643.734 2091.99 643.277 2091.77 642.82 2091.55 642.364 2091.32 641.897 2091.08 641.42 2093.55 640.07 2095.98 638.725 2098.4 637.385 2100.81 636.044 2103.26 634.709 2105.74 633.378Z" fill-rule="evenodd"/><text fill="#000000" fill-opacity="0" font-family="Arial,Arial_MSFontService,sans-serif" font-size="38.3633" x="2091.08" y="666.946">1</text><path d="M2390.79 572.449C2401.89 581.959 2410.71 596.144 2417.23 615.002 2423.76 633.861 2427.02 654.908 2427.02 678.144 2427.02 701.028 2423.76 722.042 2417.23 741.184 2410.71 760.327 2401.89 774.626 2390.79 784.083L2388.88 781.083C2398.47 771.33 2405.86 757.213 2411.05 738.732 2416.24 720.252 2418.83 700.069 2418.83 678.185 2418.83 655.786 2416.23 635.509 2411.01 617.353 2405.8 599.197 2398.42 585.242 2388.88 575.488ZM2180.79 572.449 2182.69 575.488C2173.13 585.242 2165.74 599.197 2160.54 617.353 2155.34 635.509 2152.74 655.786 2152.74 678.185 2152.74 700.069 2155.33 720.252 2160.52 738.732 2165.71 757.213 2173.1 771.33 2182.69 781.083L2180.79 784.083C2169.68 774.626 2160.87 760.327 2154.34 741.184 2147.82 722.042 2144.55 701.028 2144.55 678.144 2144.55 654.908 2147.82 633.861 2154.34 615.002 2160.87 596.144 2169.68 581.959 2180.79 572.449Z" fill-rule="evenodd"/><path d="M2202.51 600.065C2204.24 600.065 2205.61 600.646 2206.61 601.808 2207.61 602.969 2208.11 604.536 2208.11 606.509 2208.11 608.643 2207.69 611.304 2206.85 614.493L2205.07 621.504C2204.61 623.287 2204.28 624.678 2204.07 625.678 2203.87 626.678 2203.72 627.542 2203.63 628.272 2203.53 629.001 2203.49 629.609 2203.49 630.096 2203.49 631.96 2203.8 633.304 2204.42 634.128 2205.04 634.952 2206.05 635.364 2207.46 635.364 2208.59 635.364 2209.81 634.912 2211.12 634.007 2212.44 633.101 2213.83 631.737 2215.3 629.913 2216.77 628.09 2217.95 626.32 2218.85 624.604 2219.74 622.889 2220.47 620.774 2221.03 618.262L2224.88 600.713 2231.9 600.713 2225.98 626.408C2225.38 629.001 2225.09 631.001 2225.09 632.406 2225.09 633.486 2225.26 634.27 2225.61 634.756 2225.96 635.243 2226.52 635.486 2227.27 635.486 2228.09 635.486 2228.95 635.155 2229.87 634.493 2230.79 633.831 2232.08 632.568 2233.76 630.704L2236.07 632.973C2233.61 635.594 2231.52 637.445 2229.79 638.525 2228.06 639.606 2226.22 640.146 2224.28 640.146 2222.6 640.146 2221.26 639.593 2220.26 638.485 2219.26 637.377 2218.76 635.905 2218.76 634.067 2218.76 632.608 2219.09 631.014 2219.74 629.285L2219.25 629.123C2216.58 632.879 2214.04 635.648 2211.65 637.431 2209.26 639.214 2206.81 640.106 2204.3 640.106 2201.78 640.106 2199.85 639.383 2198.5 637.938 2197.15 636.492 2196.47 634.486 2196.47 631.919 2196.47 630.217 2196.87 627.799 2197.65 624.665L2200.28 614.047C2201.01 611.102 2201.38 609.021 2201.38 607.806 2201.38 606.725 2201.2 605.941 2200.85 605.455 2200.5 604.969 2199.95 604.726 2199.19 604.726 2198.35 604.726 2197.47 605.07 2196.53 605.759 2195.6 606.448 2194.33 607.698 2192.71 609.508L2190.4 607.238C2192.69 604.915 2194.42 603.321 2195.58 602.456 2196.74 601.591 2197.86 600.977 2198.93 600.612 2199.99 600.247 2201.19 600.065 2202.51 600.065Z" fill-rule="evenodd"/><text fill="#000000" fill-opacity="0" font-family="Arial,Arial_MSFontService,sans-serif" font-size="40.0815" x="2190.4" y="635.136">𝑢</text><path d="M2226.97 574.168 2237.14 582.962 2237.14 586.042 2217.77 586.042 2206.59 586.042 2193.46 586.042 2193.46 582.233 2206.59 582.233 2217.77 582.233 2231.31 582.233 2224.82 576.6Z" fill-rule="evenodd"/><path d="M2268.82 593.581 2287.18 611.899 2305.54 593.581 2309.35 597.35 2291.19 615.83 2309.39 634.229 2305.34 638.282 2287.18 619.761 2268.46 638.12 2264.69 634.31 2283.21 615.83 2264.77 597.633Z" fill-rule="evenodd"/><text fill="#000000" fill-opacity="0" font-family="Arial,Arial_MSFontService,sans-serif" font-size="44.7017" x="2264.69" y="632.694">×</text><path d="M2373.12 599.903C2375.06 599.903 2376.47 600.409 2377.33 601.423 2378.2 602.436 2378.63 603.793 2378.63 605.496 2378.63 606.792 2378.4 608.278 2377.94 609.954 2377.48 611.629 2376.83 613.398 2375.99 615.263 2375.16 617.127 2374.16 619.038 2372.99 620.997 2371.83 622.956 2370.55 624.861 2369.14 626.712 2367.74 628.562 2366.24 630.305 2364.65 631.94 2363.05 633.574 2361.4 634.999 2359.68 636.215 2357.97 637.431 2356.22 638.397 2354.45 639.113 2352.68 639.829 2350.92 640.187 2349.16 640.187 2348.38 640.187 2347.73 639.991 2347.2 639.599 2346.67 639.208 2346.25 638.654 2345.92 637.938 2345.6 637.222 2345.37 636.377 2345.23 635.405 2345.1 634.432 2345.03 633.365 2345.03 632.203 2345.03 630.663 2345.13 629.015 2345.31 627.259 2345.5 625.503 2345.75 623.733 2346.04 621.95L2347.75 610.724C2347.85 610.075 2347.94 609.46 2348.01 608.88 2348.08 608.299 2348.11 607.873 2348.11 607.603 2348.11 606.765 2347.98 606.076 2347.71 605.536 2347.44 604.996 2346.98 604.726 2346.33 604.726 2345.81 604.726 2345.26 604.881 2344.67 605.192 2344.07 605.502 2343.47 605.901 2342.86 606.387 2342.25 606.873 2341.67 607.394 2341.1 607.947 2340.53 608.501 2340.01 609.021 2339.52 609.508L2337.57 607.238C2338.41 606.374 2339.3 605.516 2340.25 604.665 2341.19 603.814 2342.19 603.044 2343.25 602.355 2344.3 601.666 2345.41 601.112 2346.57 600.693 2347.73 600.274 2348.92 600.065 2350.14 600.065 2351.16 600.065 2352 600.234 2352.65 600.571 2353.3 600.909 2353.8 601.355 2354.17 601.909 2354.53 602.463 2354.78 603.071 2354.92 603.733 2355.05 604.395 2355.12 605.05 2355.12 605.698 2355.12 606.076 2355.11 606.441 2355.08 606.792 2355.05 607.144 2355.01 607.468 2354.96 607.765L2352.69 622.436C2352.45 623.976 2352.24 625.482 2352.08 626.955 2351.92 628.427 2351.84 629.731 2351.84 630.866 2351.84 632 2351.91 632.919 2352.04 633.622 2352.18 634.324 2352.43 634.675 2352.81 634.675 2353.7 634.675 2354.82 634.317 2356.18 633.601 2357.53 632.885 2358.95 631.899 2360.43 630.643 2361.92 629.386 2363.4 627.9 2364.89 626.185 2366.38 624.469 2367.71 622.612 2368.9 620.612 2370.09 618.613 2371.06 616.505 2371.8 614.29 2372.54 612.074 2372.91 609.845 2372.91 607.603 2372.91 606.63 2372.7 605.881 2372.29 605.354 2371.87 604.827 2371.21 604.563 2370.32 604.563 2369.19 604.563 2368.14 605.002 2367.18 605.881 2366.22 606.759 2365.23 607.914 2364.2 609.346L2361.89 607.279C2362.54 606.306 2363.3 605.374 2364.18 604.482 2365.06 603.591 2365.99 602.807 2366.98 602.132 2367.96 601.456 2368.98 600.916 2370.04 600.511 2371.09 600.105 2372.12 599.903 2373.12 599.903Z" fill-rule="evenodd"/><text fill="#000000" fill-opacity="0" font-family="Arial,Arial_MSFontService,sans-serif" font-size="40.2842" x="2337.57" y="635.151">𝑣</text><path d="M2369.12 574.145 2379.3 582.939 2379.3 586.019 2348.74 586.019 2348.74 582.21 2373.46 582.21 2366.98 576.577Z" fill-rule="evenodd"/><text fill="#000000" fill-opacity="0" font-family="Arial,Arial_MSFontService,sans-serif" font-size="11.8745" x="2348.74" y="584.535">റ</text><path d="M2270.82 695.743 2277.06 695.743 2277.06 771.164 2270.82 771.164ZM2195.08 695.743 2201.32 695.743 2201.32 771.164 2195.08 771.164Z" fill-rule="evenodd"/><path d="M2224.26 717.696C2225.99 717.696 2227.35 718.277 2228.35 719.439 2229.35 720.601 2229.85 722.168 2229.85 724.14 2229.85 726.274 2229.43 728.936 2228.6 732.124L2226.81 739.135C2226.35 740.918 2226.02 742.31 2225.82 743.309 2225.62 744.309 2225.47 745.174 2225.38 745.903 2225.28 746.633 2225.23 747.241 2225.23 747.727 2225.23 749.591 2225.54 750.935 2226.17 751.759 2226.79 752.583 2227.8 752.995 2229.2 752.995 2230.34 752.995 2231.56 752.543 2232.87 751.638 2234.18 750.733 2235.57 749.368 2237.05 747.544 2238.52 745.721 2239.7 743.951 2240.59 742.235 2241.48 740.52 2242.21 738.406 2242.78 735.893L2246.63 718.345 2253.64 718.345 2247.73 744.039C2247.13 746.633 2246.83 748.632 2246.83 750.037 2246.83 751.118 2247.01 751.901 2247.36 752.388 2247.71 752.874 2248.27 753.117 2249.02 753.117 2249.83 753.117 2250.7 752.786 2251.62 752.124 2252.54 751.462 2253.83 750.199 2255.51 748.335L2257.82 750.604C2255.36 753.225 2253.26 755.076 2251.54 756.157 2249.81 757.237 2247.97 757.778 2246.02 757.778 2244.35 757.778 2243.01 757.224 2242.01 756.116 2241.01 755.008 2240.51 753.536 2240.51 751.699 2240.51 750.24 2240.84 748.646 2241.48 746.916L2241 746.754C2238.32 750.51 2235.79 753.279 2233.4 755.062 2231.01 756.846 2228.56 757.737 2226.04 757.737 2223.53 757.737 2221.6 757.014 2220.25 755.569 2218.9 754.123 2218.22 752.117 2218.22 749.551 2218.22 747.848 2218.61 745.43 2219.4 742.296L2222.03 731.678C2222.76 728.733 2223.13 726.653 2223.13 725.437 2223.13 724.356 2222.95 723.573 2222.6 723.086 2222.25 722.6 2221.69 722.357 2220.94 722.357 2220.1 722.357 2219.21 722.701 2218.28 723.39 2217.35 724.079 2216.07 725.329 2214.45 727.139L2212.14 724.869C2214.44 722.546 2216.17 720.952 2217.33 720.087 2218.49 719.223 2219.61 718.608 2220.67 718.243 2221.74 717.878 2222.94 717.696 2224.26 717.696Z" fill-rule="evenodd"/><text fill="#000000" fill-opacity="0" font-family="Arial,Arial_MSFontService,sans-serif" font-size="40.0815" x="2212.14" y="752.767">𝑢</text><path d="M2248.72 691.799 2258.89 700.594 2258.89 703.674 2239.52 703.674 2228.33 703.674 2215.2 703.674 2215.2 699.864 2228.33 699.864 2239.52 699.864 2253.06 699.864 2246.57 694.231Z" fill-rule="evenodd"/><path d="M2370.12 695.743 2376.36 695.743 2376.36 771.164 2370.12 771.164ZM2296.92 695.743 2303.16 695.743 2303.16 771.164 2296.92 771.164Z" fill-rule="evenodd"/><path d="M2351.39 717.534C2353.34 717.534 2354.74 718.041 2355.61 719.054 2356.47 720.067 2356.9 721.425 2356.9 723.127 2356.9 724.424 2356.67 725.91 2356.21 727.585 2355.75 729.26 2355.11 731.03 2354.27 732.894 2353.43 734.758 2352.43 736.67 2351.27 738.628 2350.11 740.587 2348.82 742.492 2347.42 744.343 2346.01 746.194 2344.52 747.936 2342.92 749.571 2341.33 751.205 2339.67 752.631 2337.96 753.846 2336.24 755.062 2334.5 756.028 2332.73 756.744 2330.96 757.46 2329.2 757.818 2327.44 757.818 2326.66 757.818 2326 757.622 2325.47 757.231 2324.95 756.839 2324.52 756.285 2324.2 755.569 2323.87 754.853 2323.64 754.009 2323.51 753.036 2323.37 752.063 2323.31 750.996 2323.31 749.834 2323.31 748.294 2323.4 746.646 2323.59 744.89 2323.78 743.134 2324.02 741.364 2324.32 739.581L2326.02 728.355C2326.13 727.706 2326.22 727.092 2326.28 726.511 2326.35 725.93 2326.39 725.504 2326.39 725.234 2326.39 724.397 2326.25 723.708 2325.98 723.167 2325.71 722.627 2325.25 722.357 2324.6 722.357 2324.09 722.357 2323.54 722.512 2322.94 722.823 2322.35 723.134 2321.75 723.532 2321.14 724.018 2320.53 724.505 2319.94 725.025 2319.37 725.579 2318.81 726.133 2318.28 726.653 2317.79 727.139L2315.85 724.869C2316.69 724.005 2317.58 723.147 2318.52 722.296 2319.47 721.445 2320.47 720.675 2321.52 719.986 2322.58 719.297 2323.68 718.743 2324.85 718.324 2326.01 717.906 2327.2 717.696 2328.41 717.696 2329.44 717.696 2330.28 717.865 2330.93 718.203 2331.57 718.54 2332.08 718.986 2332.44 719.54 2332.81 720.094 2333.06 720.702 2333.19 721.364 2333.33 722.026 2333.4 722.681 2333.4 723.329 2333.4 723.708 2333.38 724.072 2333.36 724.424 2333.33 724.775 2333.29 725.099 2333.24 725.396L2330.97 740.067C2330.72 741.607 2330.52 743.114 2330.36 744.586 2330.2 746.058 2330.11 747.362 2330.11 748.497 2330.11 749.632 2330.18 750.55 2330.32 751.253 2330.45 751.955 2330.71 752.306 2331.09 752.306 2331.98 752.306 2333.1 751.948 2334.45 751.232 2335.8 750.516 2337.22 749.53 2338.71 748.274 2340.19 747.018 2341.68 745.532 2343.16 743.816 2344.65 742.1 2345.99 740.243 2347.18 738.243 2348.37 736.244 2349.33 734.137 2350.07 731.921 2350.82 729.706 2351.19 727.477 2351.19 725.234 2351.19 724.262 2350.98 723.512 2350.56 722.985 2350.14 722.458 2349.49 722.195 2348.59 722.195 2347.46 722.195 2346.41 722.634 2345.45 723.512 2344.49 724.39 2343.5 725.545 2342.48 726.977L2340.17 724.91C2340.81 723.937 2341.58 723.005 2342.46 722.114 2343.33 721.222 2344.27 720.438 2345.25 719.763 2346.24 719.088 2347.26 718.547 2348.31 718.142 2349.36 717.737 2350.39 717.534 2351.39 717.534Z" fill-rule="evenodd"/><text fill="#000000" fill-opacity="0" font-family="Arial,Arial_MSFontService,sans-serif" font-size="40.2842" x="2315.85" y="752.783">𝑣</text><path d="M2347.4 691.776 2357.57 700.571 2357.57 703.651 2327.01 703.651 2327.01 699.841 2351.74 699.841 2345.25 694.208Z" fill-rule="evenodd"/><text fill="#000000" fill-opacity="0" font-family="Arial,Arial_MSFontService,sans-serif" font-size="11.8745" x="2327.01" y="702.166">റ</text><path d="M2185.3 675.94 2285.8 675.94 2386.3 675.94 2386.3 680.94 2285.8 680.94 2185.3 680.94Z" fill-rule="evenodd"/></g></svg>