<svg width="1430" height="582" xmlns="http://www.w3.org/2000/svg" xmlns:xlink="http://www.w3.org/1999/xlink" overflow="hidden"><defs><clipPath id="clip0"><rect x="2200" y="232" width="1430" height="582"/></clipPath></defs><g clip-path="url(#clip0)" transform="translate(-2200 -232)"><path d="M2291.05 351.237C2287.78 351.237 2285.27 352.655 2283.53 355.492 2281.79 358.329 2280.91 362.368 2280.91 367.61 2280.91 373.176 2281.8 377.451 2283.57 380.437 2285.34 383.422 2287.87 384.915 2291.17 384.915 2292.98 384.915 2294.52 384.476 2295.79 383.598 2297.06 382.72 2298.09 381.538 2298.89 380.052 2299.69 378.566 2300.26 376.843 2300.61 374.885 2300.96 372.926 2301.14 370.879 2301.14 368.745 2301.14 364.773 2300.7 361.477 2299.82 358.856 2298.94 356.235 2297.75 354.31 2296.23 353.081 2294.72 351.852 2292.99 351.237 2291.05 351.237ZM2332.66 348.035C2334.44 348.035 2336.16 348.123 2337.82 348.299 2339.48 348.474 2341.57 348.819 2344.08 349.332L2344.08 357.6 2340.19 357.6C2339.6 355.979 2338.9 354.702 2338.09 353.77 2337.28 352.838 2336.36 352.182 2335.33 351.804 2334.3 351.426 2333.05 351.237 2331.56 351.237 2329.4 351.237 2327.68 351.743 2326.39 352.757 2325.11 353.77 2324.47 355.154 2324.47 356.911 2324.47 358.154 2324.73 359.18 2325.24 359.991 2325.75 360.801 2326.55 361.558 2327.63 362.26 2328.71 362.963 2330.62 363.895 2333.34 365.057 2336.1 366.245 2338.23 367.34 2339.73 368.339 2341.23 369.339 2342.4 370.501 2343.25 371.825 2344.1 373.149 2344.53 374.729 2344.53 376.566 2344.53 378.701 2344.17 380.498 2343.44 381.957 2342.71 383.416 2341.68 384.604 2340.36 385.523 2339.03 386.442 2337.46 387.104 2335.63 387.509 2333.81 387.914 2331.82 388.117 2329.66 388.117 2327.39 388.117 2325.19 387.948 2323.05 387.61 2320.92 387.272 2318.84 386.833 2316.81 386.293L2316.81 377.823 2320.78 377.823C2321.51 380.308 2322.59 382.112 2324.02 383.233 2325.46 384.354 2327.43 384.915 2329.94 384.915 2330.91 384.915 2331.87 384.814 2332.8 384.611 2333.73 384.408 2334.56 384.071 2335.29 383.598 2336.02 383.125 2336.6 382.483 2337.03 381.673 2337.46 380.862 2337.68 379.849 2337.68 378.633 2337.68 377.255 2337.41 376.134 2336.87 375.27 2336.33 374.405 2335.49 373.615 2334.36 372.899 2333.22 372.183 2331.22 371.217 2328.36 370.001 2325.9 368.974 2323.93 367.975 2322.44 367.002 2320.96 366.029 2319.79 364.881 2318.94 363.557 2318.09 362.233 2317.66 360.666 2317.66 358.856 2317.66 356.641 2318.26 354.715 2319.46 353.081 2320.67 351.446 2322.4 350.197 2324.67 349.332 2326.94 348.467 2329.6 348.035 2332.66 348.035ZM2291.21 348.035C2296.99 348.035 2301.37 349.717 2304.34 353.081 2307.31 356.445 2308.8 361.274 2308.8 367.569 2308.8 372.054 2308.05 375.837 2306.57 378.917 2305.08 381.997 2302.98 384.3 2300.25 385.827 2297.52 387.353 2294.29 388.117 2290.56 388.117 2284.94 388.117 2280.65 386.462 2277.69 383.152 2274.73 379.842 2273.26 374.945 2273.26 368.461 2273.26 364.003 2274.03 360.234 2275.59 357.154 2277.14 354.074 2279.27 351.784 2281.97 350.284 2284.67 348.785 2287.75 348.035 2291.21 348.035ZM2255.33 348.035C2257.55 348.035 2259.59 348.164 2261.47 348.42 2263.35 348.677 2265.23 349.089 2267.12 349.656L2267.12 358.126 2261.98 358.126C2261.52 356.37 2260.95 354.986 2260.27 353.972 2259.6 352.959 2258.82 352.25 2257.92 351.845 2257.03 351.439 2255.92 351.237 2254.6 351.237 2252.71 351.237 2251.03 351.845 2249.58 353.061 2248.12 354.276 2246.96 356.127 2246.11 358.613 2245.26 361.099 2244.83 364.138 2244.83 367.731 2244.83 370.028 2245 372.129 2245.32 374.033 2245.64 375.938 2246.2 377.566 2246.98 378.917 2247.77 380.268 2248.81 381.322 2250.1 382.078 2251.4 382.835 2253.01 383.213 2254.93 383.213 2256.79 383.213 2258.53 382.848 2260.13 382.119 2261.74 381.389 2263.41 380.106 2265.14 378.269L2267.45 380.943C2266.07 382.456 2264.85 383.625 2263.8 384.449 2262.75 385.273 2261.62 385.962 2260.42 386.516 2259.21 387.07 2258.03 387.475 2256.85 387.732 2255.67 387.988 2254.4 388.117 2253.02 388.117 2247.91 388.117 2244.01 386.421 2241.31 383.031 2238.61 379.64 2237.26 374.743 2237.26 368.339 2237.26 364.341 2238.01 360.795 2239.52 357.701 2241.04 354.607 2243.16 352.223 2245.89 350.548 2248.62 348.873 2251.76 348.035 2255.33 348.035Z" fill-rule="evenodd"/><text fill="#000000" fill-opacity="0" font-family="Arial,Arial_MSFontService,sans-serif" font-size="40.0815" x="2237.26" y="383.107">cos</text><path d="M2375.08 361.247C2373.81 367.11 2373.17 372.041 2373.17 376.04 2373.17 379.066 2373.63 381.288 2374.55 382.706 2375.47 384.125 2376.96 384.834 2379.01 384.834 2382.03 384.834 2384.91 382.801 2387.62 378.735 2390.34 374.668 2392.64 368.839 2394.53 361.247ZM2391.69 333.932C2388.53 333.932 2385.61 335.931 2382.92 339.93 2380.23 343.928 2377.94 349.656 2376.05 357.113L2395.46 357.113C2396.73 351.412 2397.37 346.509 2397.37 342.402 2397.37 339.565 2396.91 337.444 2395.99 336.039 2395.07 334.634 2393.64 333.932 2391.69 333.932ZM2392.18 330.649C2400.02 330.649 2403.93 335.62 2403.93 345.563 2403.93 348.373 2403.62 351.73 2402.98 355.634 2402.35 359.538 2401.34 363.517 2399.96 367.569 2398.58 371.622 2396.84 375.209 2394.73 378.329 2392.63 381.45 2390.19 383.861 2387.44 385.564 2384.68 387.266 2381.71 388.117 2378.52 388.117 2374.5 388.117 2371.5 386.887 2369.53 384.429 2367.55 381.97 2366.57 378.282 2366.57 373.365 2366.57 370.69 2366.86 367.394 2367.46 363.476 2368.05 359.558 2369.03 355.553 2370.4 351.46 2371.76 347.366 2373.52 343.733 2375.67 340.558 2377.81 337.383 2380.29 334.938 2383.08 333.222 2385.88 331.507 2388.91 330.649 2392.18 330.649Z" fill-rule="evenodd"/><text fill="#000000" fill-opacity="0" font-family="Arial,Arial_MSFontService,sans-serif" font-size="57.4678" x="2366.57" y="380.933">𝜃</text><path d="M2439.67 369.474 2489.6 369.474 2489.6 374.864 2439.67 374.864ZM2439.67 352.655 2489.6 352.655 2489.6 358.045 2439.67 358.045Z" fill-rule="evenodd"/><text fill="#000000" fill-opacity="0" font-family="Arial,Arial_MSFontService,sans-serif" font-size="22.209" x="2439.67" y="372.088">=</text><path d="M2553.63 285.587C2555.36 285.587 2556.73 286.168 2557.73 287.33 2558.72 288.492 2559.22 290.059 2559.22 292.031 2559.22 294.166 2558.81 296.827 2557.97 300.015L2556.19 307.026C2555.73 308.809 2555.39 310.201 2555.19 311.201 2554.99 312.2 2554.84 313.065 2554.75 313.794 2554.65 314.524 2554.6 315.132 2554.6 315.618 2554.6 317.482 2554.92 318.826 2555.54 319.651 2556.16 320.475 2557.17 320.887 2558.58 320.887 2559.71 320.887 2560.93 320.434 2562.24 319.529 2563.55 318.624 2564.95 317.259 2566.42 315.436 2567.89 313.612 2569.07 311.842 2569.96 310.127 2570.86 308.411 2571.59 306.297 2572.15 303.784L2576 286.236 2583.01 286.236 2577.1 311.93C2576.5 314.524 2576.21 316.523 2576.21 317.928 2576.21 319.009 2576.38 319.792 2576.73 320.279 2577.08 320.765 2577.64 321.008 2578.39 321.008 2579.2 321.008 2580.07 320.677 2580.99 320.015 2581.91 319.353 2583.2 318.09 2584.88 316.226L2587.19 318.495C2584.73 321.116 2582.64 322.967 2580.91 324.048 2579.18 325.128 2577.34 325.669 2575.4 325.669 2573.72 325.669 2572.38 325.115 2571.38 324.007 2570.38 322.899 2569.88 321.427 2569.88 319.59 2569.88 318.131 2570.21 316.537 2570.86 314.807L2570.37 314.645C2567.69 318.401 2565.16 321.17 2562.77 322.953 2560.38 324.737 2557.93 325.628 2555.42 325.628 2552.9 325.628 2550.97 324.906 2549.62 323.46 2548.27 322.015 2547.59 320.009 2547.59 317.442 2547.59 315.74 2547.99 313.322 2548.77 310.187L2551.4 299.569C2552.13 296.624 2552.5 294.544 2552.5 293.328 2552.5 292.247 2552.32 291.464 2551.97 290.977 2551.62 290.491 2551.07 290.248 2550.31 290.248 2549.47 290.248 2548.59 290.592 2547.65 291.281 2546.72 291.97 2545.45 293.22 2543.82 295.03L2541.51 292.761C2543.81 290.437 2545.54 288.843 2546.7 287.978 2547.86 287.114 2548.98 286.499 2550.05 286.134 2551.11 285.77 2552.31 285.587 2553.63 285.587Z" fill-rule="evenodd"/><text fill="#000000" fill-opacity="0" font-family="Arial,Arial_MSFontService,sans-serif" font-size="40.0815" x="2541.51" y="320.659">𝑢</text><path d="M2578.09 259.69 2588.26 268.485 2588.26 271.565 2568.89 271.565 2557.71 271.565 2544.57 271.565 2544.57 267.755 2557.71 267.755 2568.89 267.755 2582.43 267.755 2575.94 262.122Z" fill-rule="evenodd"/><path d="M2620.22 295.476C2621.28 295.476 2622.23 295.726 2623.08 296.226 2623.93 296.726 2624.59 297.421 2625.05 298.313 2625.51 299.204 2625.74 300.204 2625.74 301.312 2625.74 302.447 2625.5 303.46 2625.03 304.351 2624.55 305.243 2623.89 305.932 2623.04 306.418 2622.19 306.905 2621.25 307.148 2620.22 307.148 2619.2 307.148 2618.26 306.905 2617.41 306.418 2616.56 305.932 2615.9 305.243 2615.42 304.351 2614.95 303.46 2614.71 302.447 2614.71 301.312 2614.71 300.204 2614.94 299.204 2615.4 298.313 2615.86 297.421 2616.52 296.726 2617.37 296.226 2618.22 295.726 2619.17 295.476 2620.22 295.476Z" fill-rule="evenodd"/><text fill="#000000" fill-opacity="0" font-family="Arial,Arial_MSFontService,sans-serif" font-size="11.6719" x="2614.71" y="305.689">∙</text><path d="M2688.71 285.425C2690.66 285.425 2692.06 285.932 2692.93 286.945 2693.79 287.958 2694.23 289.316 2694.23 291.018 2694.23 292.315 2694 293.801 2693.54 295.476 2693.08 297.151 2692.43 298.921 2691.59 300.785 2690.75 302.649 2689.75 304.561 2688.59 306.52 2687.43 308.478 2686.15 310.383 2684.74 312.234 2683.34 314.085 2681.84 315.827 2680.24 317.462 2678.65 319.097 2677 320.522 2675.28 321.738 2673.56 322.953 2671.82 323.919 2670.05 324.635 2668.28 325.351 2666.52 325.709 2664.76 325.709 2663.98 325.709 2663.32 325.513 2662.8 325.122 2662.27 324.73 2661.84 324.176 2661.52 323.46 2661.2 322.744 2660.97 321.9 2660.83 320.927 2660.7 319.954 2660.63 318.887 2660.63 317.725 2660.63 316.185 2660.72 314.537 2660.91 312.781 2661.1 311.025 2661.35 309.255 2661.64 307.472L2663.34 296.246C2663.45 295.598 2663.54 294.983 2663.61 294.402 2663.68 293.821 2663.71 293.396 2663.71 293.125 2663.71 292.288 2663.57 291.599 2663.3 291.058 2663.03 290.518 2662.57 290.248 2661.93 290.248 2661.41 290.248 2660.86 290.403 2660.26 290.714 2659.67 291.025 2659.07 291.423 2658.46 291.91 2657.85 292.396 2657.27 292.916 2656.7 293.47 2656.13 294.024 2655.6 294.544 2655.12 295.03L2653.17 292.761C2654.01 291.896 2654.9 291.038 2655.85 290.187 2656.79 289.336 2657.79 288.566 2658.85 287.877 2659.9 287.188 2661.01 286.634 2662.17 286.215 2663.33 285.797 2664.52 285.587 2665.74 285.587 2666.76 285.587 2667.6 285.756 2668.25 286.094 2668.9 286.432 2669.4 286.877 2669.77 287.431 2670.13 287.985 2670.38 288.593 2670.52 289.255 2670.65 289.917 2670.72 290.572 2670.72 291.221 2670.72 291.599 2670.71 291.964 2670.68 292.315 2670.65 292.666 2670.61 292.99 2670.56 293.287L2668.29 307.958C2668.05 309.498 2667.84 311.005 2667.68 312.477 2667.52 313.95 2667.44 315.253 2667.44 316.388 2667.44 317.523 2667.51 318.441 2667.64 319.144 2667.78 319.846 2668.03 320.198 2668.41 320.198 2669.3 320.198 2670.42 319.84 2671.77 319.124 2673.12 318.408 2674.54 317.422 2676.03 316.165 2677.52 314.909 2679 313.423 2680.49 311.707 2681.97 309.991 2683.31 308.134 2684.5 306.135 2685.69 304.135 2686.65 302.028 2687.4 299.812 2688.14 297.597 2688.51 295.368 2688.51 293.125 2688.51 292.153 2688.3 291.403 2687.88 290.876 2687.47 290.349 2686.81 290.086 2685.92 290.086 2684.78 290.086 2683.74 290.525 2682.78 291.403 2681.82 292.281 2680.83 293.436 2679.8 294.868L2677.49 292.801C2678.14 291.828 2678.9 290.896 2679.78 290.005 2680.66 289.113 2681.59 288.33 2682.57 287.654 2683.56 286.979 2684.58 286.438 2685.63 286.033 2686.69 285.628 2687.71 285.425 2688.71 285.425Z" fill-rule="evenodd"/><text fill="#000000" fill-opacity="0" font-family="Arial,Arial_MSFontService,sans-serif" font-size="40.2842" x="2653.17" y="320.674">𝑣</text><path d="M2684.72 259.667 2694.9 268.462 2694.9 271.542 2664.34 271.542 2664.34 267.732 2689.06 267.732 2682.57 262.099Z" fill-rule="evenodd"/><text fill="#000000" fill-opacity="0" font-family="Arial,Arial_MSFontService,sans-serif" font-size="11.8745" x="2664.34" y="270.058">റ</text><path d="M2604.18 381.265 2610.42 381.265 2610.42 456.687 2604.18 456.687ZM2528.44 381.265 2534.68 381.265 2534.68 456.687 2528.44 456.687Z" fill-rule="evenodd"/><path d="M2557.62 403.219C2559.35 403.219 2560.71 403.799 2561.71 404.961 2562.71 406.123 2563.21 407.69 2563.21 409.662 2563.21 411.797 2562.79 414.458 2561.96 417.646L2560.17 424.658C2559.71 426.441 2559.38 427.832 2559.18 428.832 2558.98 429.831 2558.83 430.696 2558.73 431.426 2558.64 432.155 2558.59 432.763 2558.59 433.249 2558.59 435.114 2558.9 436.458 2559.52 437.282 2560.15 438.106 2561.16 438.518 2562.56 438.518 2563.7 438.518 2564.92 438.065 2566.23 437.16 2567.54 436.255 2568.93 434.891 2570.41 433.067 2571.88 431.243 2573.06 429.474 2573.95 427.758 2574.84 426.042 2575.57 423.928 2576.14 421.415L2579.99 403.867 2587 403.867 2581.08 429.561C2580.49 432.155 2580.19 434.154 2580.19 435.559 2580.19 436.64 2580.37 437.424 2580.72 437.91 2581.07 438.396 2581.62 438.639 2582.38 438.639 2583.19 438.639 2584.06 438.308 2584.98 437.647 2585.89 436.985 2587.19 435.721 2588.87 433.857L2591.18 436.127C2588.72 438.747 2586.62 440.598 2584.89 441.679 2583.17 442.76 2581.33 443.3 2579.38 443.3 2577.71 443.3 2576.37 442.746 2575.37 441.638 2574.37 440.531 2573.87 439.058 2573.87 437.221 2573.87 435.762 2574.2 434.168 2574.84 432.439L2574.36 432.277C2571.68 436.032 2569.15 438.802 2566.76 440.585 2564.37 442.368 2561.92 443.26 2559.4 443.26 2556.89 443.26 2554.96 442.537 2553.61 441.091 2552.26 439.646 2551.58 437.64 2551.58 435.073 2551.58 433.371 2551.97 430.953 2552.76 427.819L2555.39 417.2C2556.12 414.255 2556.48 412.175 2556.48 410.959 2556.48 409.879 2556.31 409.095 2555.96 408.609 2555.61 408.122 2555.05 407.879 2554.3 407.879 2553.46 407.879 2552.57 408.224 2551.64 408.913 2550.71 409.602 2549.43 410.851 2547.81 412.661L2545.5 410.392C2547.8 408.068 2549.53 406.474 2550.69 405.61 2551.85 404.745 2552.97 404.13 2554.03 403.766 2555.1 403.401 2556.3 403.219 2557.62 403.219Z" fill-rule="evenodd"/><text fill="#000000" fill-opacity="0" font-family="Arial,Arial_MSFontService,sans-serif" font-size="40.0815" x="2545.5" y="438.29">𝑢</text><path d="M2582.08 377.322 2592.25 386.116 2592.25 389.196 2572.88 389.196 2561.69 389.196 2548.56 389.196 2548.56 385.387 2561.69 385.387 2572.88 385.387 2586.42 385.387 2579.93 379.753Z" fill-rule="evenodd"/><path d="M2703.47 381.265 2709.72 381.265 2709.72 456.687 2703.47 456.687ZM2630.28 381.265 2636.52 381.265 2636.52 456.687 2630.28 456.687Z" fill-rule="evenodd"/><path d="M2684.75 403.056C2686.7 403.056 2688.1 403.563 2688.96 404.576 2689.83 405.589 2690.26 406.947 2690.26 408.649 2690.26 409.946 2690.03 411.432 2689.57 413.107 2689.11 414.782 2688.47 416.552 2687.63 418.416 2686.79 420.281 2685.79 422.192 2684.63 424.151 2683.47 426.11 2682.18 428.015 2680.78 429.865 2679.37 431.716 2677.87 433.459 2676.28 435.093 2674.69 436.728 2673.03 438.153 2671.32 439.369 2669.6 440.585 2667.86 441.551 2666.09 442.267 2664.32 442.983 2662.55 443.341 2660.8 443.341 2660.01 443.341 2659.36 443.145 2658.83 442.753 2658.31 442.361 2657.88 441.807 2657.56 441.091 2657.23 440.375 2657 439.531 2656.87 438.558 2656.73 437.586 2656.66 436.518 2656.66 435.357 2656.66 433.817 2656.76 432.169 2656.95 430.412 2657.14 428.656 2657.38 426.887 2657.68 425.103L2659.38 413.877C2659.49 413.229 2659.58 412.614 2659.64 412.033 2659.71 411.452 2659.74 411.027 2659.74 410.757 2659.74 409.919 2659.61 409.23 2659.34 408.69 2659.07 408.149 2658.61 407.879 2657.96 407.879 2657.45 407.879 2656.89 408.035 2656.3 408.345 2655.71 408.656 2655.1 409.054 2654.5 409.541 2653.89 410.027 2653.3 410.547 2652.73 411.101 2652.17 411.655 2651.64 412.175 2651.15 412.661L2649.21 410.392C2650.05 409.527 2650.94 408.669 2651.88 407.818 2652.83 406.967 2653.83 406.197 2654.88 405.508 2655.94 404.819 2657.04 404.266 2658.2 403.847 2659.37 403.428 2660.56 403.219 2661.77 403.219 2662.8 403.219 2663.64 403.387 2664.28 403.725 2664.93 404.063 2665.44 404.509 2665.8 405.063 2666.17 405.616 2666.42 406.224 2666.55 406.886 2666.69 407.548 2666.76 408.203 2666.76 408.852 2666.76 409.23 2666.74 409.595 2666.72 409.946 2666.69 410.297 2666.65 410.622 2666.59 410.919L2664.32 425.59C2664.08 427.13 2663.88 428.636 2663.72 430.108 2663.55 431.581 2663.47 432.885 2663.47 434.019 2663.47 435.154 2663.54 436.073 2663.68 436.775 2663.81 437.478 2664.07 437.829 2664.45 437.829 2665.34 437.829 2666.46 437.471 2667.81 436.755 2669.16 436.039 2670.58 435.053 2672.06 433.796 2673.55 432.54 2675.04 431.054 2676.52 429.338 2678.01 427.623 2679.35 425.765 2680.54 423.766 2681.72 421.767 2682.69 419.659 2683.43 417.444 2684.18 415.228 2684.55 412.999 2684.55 410.757 2684.55 409.784 2684.34 409.034 2683.92 408.507 2683.5 407.98 2682.85 407.717 2681.95 407.717 2680.82 407.717 2679.77 408.156 2678.81 409.034 2677.85 409.912 2676.86 411.067 2675.83 412.499L2673.52 410.432C2674.17 409.46 2674.94 408.528 2675.81 407.636 2676.69 406.744 2677.62 405.961 2678.61 405.285 2679.6 404.61 2680.62 404.07 2681.67 403.664 2682.72 403.259 2683.75 403.056 2684.75 403.056Z" fill-rule="evenodd"/><text fill="#000000" fill-opacity="0" font-family="Arial,Arial_MSFontService,sans-serif" font-size="40.2842" x="2649.21" y="438.305">𝑣</text><path d="M2680.76 377.299 2690.93 386.093 2690.93 389.173 2660.37 389.173 2660.37 385.364 2685.09 385.364 2678.61 379.73Z" fill-rule="evenodd"/><text fill="#000000" fill-opacity="0" font-family="Arial,Arial_MSFontService,sans-serif" font-size="11.8745" x="2660.37" y="387.689">റ</text><path d="M2518 361.479 2618.5 361.479 2719 361.479 2719 366.479 2618.5 366.479 2518 366.479Z" fill-rule="evenodd"/><path d="M2281.81 656.359 2284.28 656.359 2284.28 685.336C2284.28 687.66 2284.39 689.274 2284.6 690.179 2284.82 691.085 2285.23 691.773 2285.84 692.246 2286.45 692.719 2287.44 693.131 2288.82 693.482L2288.82 695.468 2272.93 695.468 2272.93 693.482C2273.98 693.158 2274.73 692.875 2275.18 692.631 2275.63 692.388 2276 692.05 2276.31 691.618 2276.63 691.186 2276.87 690.524 2277.04 689.632 2277.22 688.741 2277.31 687.349 2277.31 685.458L2277.31 667.788C2277.31 666.059 2277.28 664.667 2277.23 663.614 2277.17 662.56 2276.98 661.716 2276.66 661.081 2276.34 660.446 2275.84 659.973 2275.18 659.662 2274.52 659.352 2273.58 659.088 2272.36 658.872L2272.36 656.724ZM2319 656.076C2320.46 656.076 2321.77 656.245 2322.92 656.582 2324.06 656.92 2325.08 657.44 2325.95 658.143 2326.83 658.845 2327.56 659.716 2328.12 660.757 2328.69 661.797 2329.12 663.046 2329.4 664.505 2329.68 665.964 2329.82 667.815 2329.82 670.058L2329.82 685.336C2329.82 687.201 2329.88 688.552 2329.99 689.389 2330.1 690.227 2330.28 690.875 2330.55 691.334 2330.82 691.794 2331.22 692.179 2331.73 692.49 2332.24 692.8 2333.13 693.131 2334.4 693.482L2334.4 695.468 2318.44 695.468 2318.44 693.482C2319.49 693.158 2320.25 692.875 2320.71 692.631 2321.17 692.388 2321.55 692.05 2321.86 691.618 2322.17 691.186 2322.42 690.517 2322.59 689.612 2322.77 688.707 2322.85 687.336 2322.85 685.499L2322.85 674.88C2322.85 672.989 2322.8 671.273 2322.69 669.733 2322.58 668.193 2322.4 666.93 2322.15 665.944 2321.89 664.958 2321.58 664.188 2321.21 663.634 2320.85 663.08 2320.42 662.607 2319.92 662.216 2319.42 661.824 2318.84 661.513 2318.19 661.283 2317.55 661.054 2316.69 660.939 2315.64 660.939 2314.59 660.939 2313.59 661.148 2312.64 661.567 2311.7 661.986 2310.66 662.709 2309.52 663.735 2308.39 664.762 2307.56 665.775 2307.05 666.775 2306.54 667.775 2306.28 668.923 2306.28 670.22L2306.28 685.336C2306.28 687.66 2306.39 689.274 2306.6 690.179 2306.82 691.085 2307.23 691.773 2307.84 692.246 2308.45 692.719 2309.44 693.131 2310.82 693.482L2310.82 695.468 2294.93 695.468 2294.93 693.482C2295.98 693.158 2296.73 692.875 2297.18 692.631 2297.63 692.388 2298 692.05 2298.31 691.618 2298.63 691.186 2298.87 690.524 2299.04 689.632 2299.22 688.741 2299.31 687.349 2299.31 685.458L2299.31 667.788C2299.31 666.059 2299.28 664.667 2299.23 663.614 2299.17 662.56 2298.98 661.716 2298.66 661.081 2298.34 660.446 2297.84 659.973 2297.18 659.662 2296.52 659.352 2295.58 659.088 2294.36 658.872L2294.36 656.724 2303.85 656.359 2306.32 656.359 2305.87 662.965 2306.44 663.127C2308.44 661.101 2310.05 659.656 2311.28 658.791 2312.51 657.926 2313.76 657.258 2315.01 656.785 2316.27 656.312 2317.6 656.076 2319 656.076ZM2252.66 656.035C2254.44 656.035 2256.16 656.123 2257.82 656.299 2259.48 656.474 2261.57 656.819 2264.08 657.332L2264.08 665.6 2260.19 665.6C2259.6 663.979 2258.9 662.702 2258.09 661.77 2257.28 660.838 2256.36 660.182 2255.33 659.804 2254.3 659.426 2253.05 659.237 2251.56 659.237 2249.4 659.237 2247.68 659.743 2246.39 660.757 2245.11 661.77 2244.47 663.154 2244.47 664.911 2244.47 666.154 2244.73 667.18 2245.24 667.991 2245.75 668.801 2246.55 669.558 2247.63 670.26 2248.71 670.963 2250.62 671.895 2253.34 673.057 2256.1 674.245 2258.23 675.34 2259.73 676.339 2261.23 677.339 2262.4 678.501 2263.25 679.825 2264.1 681.149 2264.53 682.729 2264.53 684.566 2264.53 686.701 2264.17 688.498 2263.44 689.957 2262.71 691.416 2261.68 692.604 2260.36 693.523 2259.03 694.442 2257.46 695.104 2255.63 695.509 2253.81 695.914 2251.82 696.117 2249.66 696.117 2247.39 696.117 2245.19 695.948 2243.05 695.61 2240.92 695.272 2238.84 694.833 2236.81 694.293L2236.81 685.823 2240.78 685.823C2241.51 688.308 2242.59 690.112 2244.02 691.233 2245.46 692.354 2247.43 692.915 2249.94 692.915 2250.91 692.915 2251.87 692.814 2252.8 692.611 2253.73 692.408 2254.56 692.071 2255.29 691.598 2256.02 691.125 2256.6 690.483 2257.03 689.673 2257.46 688.862 2257.68 687.849 2257.68 686.633 2257.68 685.255 2257.41 684.134 2256.87 683.27 2256.33 682.405 2255.49 681.615 2254.36 680.899 2253.22 680.183 2251.22 679.217 2248.36 678.001 2245.9 676.974 2243.93 675.975 2242.44 675.002 2240.96 674.029 2239.79 672.881 2238.94 671.557 2238.09 670.233 2237.66 668.666 2237.66 666.856 2237.66 664.64 2238.26 662.715 2239.46 661.081 2240.67 659.446 2242.4 658.197 2244.67 657.332 2246.94 656.467 2249.6 656.035 2252.66 656.035ZM2277.06 640.837 2284.52 640.837 2284.52 648.7 2277.06 648.7Z" fill-rule="evenodd"/><text fill="#000000" fill-opacity="0" font-family="Arial,Arial_MSFontService,sans-serif" font-size="55.2793" x="2236.81" y="689.207">sin</text><path d="M2364.19 669.247C2362.92 675.11 2362.29 680.041 2362.29 684.04 2362.29 687.066 2362.75 689.288 2363.67 690.706 2364.58 692.125 2366.07 692.834 2368.12 692.834 2371.15 692.834 2374.02 690.801 2376.74 686.735 2379.45 682.668 2381.75 676.839 2383.65 669.247ZM2380.81 641.932C2377.65 641.932 2374.72 643.931 2372.03 647.93 2369.35 651.928 2367.06 657.656 2365.16 665.113L2384.58 665.113C2385.85 659.412 2386.48 654.509 2386.48 650.402 2386.48 647.565 2386.02 645.444 2385.1 644.039 2384.19 642.634 2382.75 641.932 2380.81 641.932ZM2381.29 638.649C2389.13 638.649 2393.05 643.62 2393.05 653.563 2393.05 656.373 2392.73 659.73 2392.1 663.634 2391.46 667.538 2390.45 671.517 2389.08 675.569 2387.7 679.622 2385.96 683.209 2383.85 686.329 2381.74 689.45 2379.31 691.861 2376.55 693.563 2373.8 695.266 2370.83 696.117 2367.64 696.117 2363.61 696.117 2360.61 694.887 2358.64 692.429 2356.67 689.97 2355.68 686.282 2355.68 681.365 2355.68 678.69 2355.98 675.394 2356.57 671.476 2357.17 667.558 2358.15 663.553 2359.51 659.46 2360.88 655.366 2362.63 651.732 2364.78 648.558 2366.93 645.383 2369.4 642.938 2372.2 641.222 2374.99 639.507 2378.03 638.649 2381.29 638.649Z" fill-rule="evenodd"/><text fill="#000000" fill-opacity="0" font-family="Arial,Arial_MSFontService,sans-serif" font-size="57.4678" x="2355.68" y="688.933">𝜃</text><path d="M2428.79 677.474 2478.72 677.474 2478.72 682.864 2428.79 682.864ZM2428.79 660.655 2478.72 660.655 2478.72 666.045 2428.79 666.045Z" fill-rule="evenodd"/><text fill="#000000" fill-opacity="0" font-family="Arial,Arial_MSFontService,sans-serif" font-size="22.209" x="2428.79" y="680.088">=</text><path d="M2524.99 593.587C2526.72 593.587 2528.08 594.168 2529.08 595.33 2530.08 596.492 2530.58 598.059 2530.58 600.031 2530.58 602.166 2530.16 604.827 2529.32 608.015L2527.54 615.026C2527.08 616.809 2526.75 618.201 2526.55 619.201 2526.34 620.2 2526.2 621.065 2526.1 621.794 2526.01 622.524 2525.96 623.132 2525.96 623.618 2525.96 625.482 2526.27 626.826 2526.89 627.651 2527.51 628.475 2528.53 628.887 2529.93 628.887 2531.07 628.887 2532.29 628.434 2533.6 627.529 2534.91 626.624 2536.3 625.259 2537.77 623.436 2539.24 621.612 2540.43 619.842 2541.32 618.127 2542.21 616.411 2542.94 614.297 2543.51 611.784L2547.36 594.236 2554.37 594.236 2548.45 619.93C2547.86 622.524 2547.56 624.523 2547.56 625.928 2547.56 627.009 2547.74 627.792 2548.09 628.279 2548.44 628.765 2548.99 629.008 2549.75 629.008 2550.56 629.008 2551.42 628.677 2552.34 628.015 2553.26 627.353 2554.56 626.09 2556.23 624.226L2558.54 626.495C2556.08 629.116 2553.99 630.967 2552.26 632.048 2550.53 633.128 2548.69 633.669 2546.75 633.669 2545.07 633.669 2543.74 633.115 2542.74 632.007 2541.74 630.899 2541.24 629.427 2541.24 627.59 2541.24 626.131 2541.56 624.537 2542.21 622.807L2541.72 622.645C2539.05 626.401 2536.52 629.17 2534.12 630.953 2531.73 632.737 2529.28 633.628 2526.77 633.628 2524.26 633.628 2522.32 632.906 2520.97 631.46 2519.62 630.015 2518.95 628.008 2518.95 625.442 2518.95 623.74 2519.34 621.321 2520.12 618.187L2522.76 607.569C2523.49 604.624 2523.85 602.544 2523.85 601.328 2523.85 600.247 2523.68 599.464 2523.32 598.977 2522.97 598.491 2522.42 598.248 2521.66 598.248 2520.83 598.248 2519.94 598.592 2519.01 599.281 2518.08 599.97 2516.8 601.22 2515.18 603.03L2512.87 600.761C2515.17 598.437 2516.89 596.843 2518.06 595.978 2519.22 595.114 2520.33 594.499 2521.4 594.134 2522.47 593.77 2523.66 593.587 2524.99 593.587Z" fill-rule="evenodd"/><text fill="#000000" fill-opacity="0" font-family="Arial,Arial_MSFontService,sans-serif" font-size="40.0815" x="2512.87" y="628.659">𝑢</text><path d="M2549.45 567.69 2559.62 576.485 2559.62 579.565 2540.25 579.565 2529.06 579.565 2515.93 579.565 2515.93 575.755 2529.06 575.755 2540.25 575.755 2553.78 575.755 2547.3 570.122Z" fill-rule="evenodd"/><path d="M2591.3 587.103 2609.65 605.421 2628.01 587.103 2631.82 590.872 2613.67 609.352 2631.86 627.752 2627.81 631.805 2609.65 613.284 2590.93 631.642 2587.16 627.833 2605.68 609.352 2587.24 591.156Z" fill-rule="evenodd"/><text fill="#000000" fill-opacity="0" font-family="Arial,Arial_MSFontService,sans-serif" font-size="44.7017" x="2587.16" y="626.217">×</text><path d="M2695.59 593.425C2697.53 593.425 2698.94 593.932 2699.8 594.945 2700.67 595.958 2701.1 597.316 2701.1 599.018 2701.1 600.315 2700.87 601.801 2700.41 603.476 2699.95 605.151 2699.3 606.921 2698.47 608.785 2697.63 610.649 2696.63 612.561 2695.47 614.52 2694.31 616.478 2693.02 618.383 2691.62 620.234 2690.21 622.085 2688.71 623.827 2687.12 625.462 2685.53 627.097 2683.87 628.522 2682.15 629.738 2680.44 630.953 2678.7 631.919 2676.93 632.635 2675.16 633.351 2673.39 633.709 2671.64 633.709 2670.85 633.709 2670.2 633.513 2669.67 633.122 2669.15 632.73 2668.72 632.176 2668.4 631.46 2668.07 630.744 2667.84 629.9 2667.71 628.927 2667.57 627.954 2667.5 626.887 2667.5 625.725 2667.5 624.185 2667.6 622.537 2667.79 620.781 2667.98 619.025 2668.22 617.255 2668.52 615.472L2670.22 604.246C2670.33 603.598 2670.42 602.983 2670.48 602.402 2670.55 601.821 2670.58 601.396 2670.58 601.125 2670.58 600.288 2670.45 599.599 2670.18 599.058 2669.91 598.518 2669.45 598.248 2668.8 598.248 2668.29 598.248 2667.73 598.403 2667.14 598.714 2666.54 599.025 2665.94 599.423 2665.34 599.91 2664.73 600.396 2664.14 600.916 2663.57 601.47 2663.01 602.024 2662.48 602.544 2661.99 603.03L2660.05 600.761C2660.88 599.896 2661.78 599.038 2662.72 598.187 2663.67 597.336 2664.67 596.566 2665.72 595.877 2666.77 595.188 2667.88 594.634 2669.04 594.215 2670.21 593.797 2671.39 593.587 2672.61 593.587 2673.64 593.587 2674.47 593.756 2675.12 594.094 2675.77 594.432 2676.28 594.877 2676.64 595.431 2677.01 595.985 2677.26 596.593 2677.39 597.255 2677.53 597.917 2677.6 598.572 2677.6 599.221 2677.6 599.599 2677.58 599.964 2677.55 600.315 2677.53 600.666 2677.49 600.99 2677.43 601.287L2675.16 615.958C2674.92 617.498 2674.72 619.005 2674.56 620.477 2674.39 621.95 2674.31 623.253 2674.31 624.388 2674.31 625.523 2674.38 626.441 2674.52 627.144 2674.65 627.846 2674.91 628.198 2675.29 628.198 2676.18 628.198 2677.3 627.84 2678.65 627.124 2680 626.408 2681.42 625.422 2682.9 624.165 2684.39 622.909 2685.88 621.423 2687.36 619.707 2688.85 617.992 2690.19 616.134 2691.37 614.135 2692.56 612.135 2693.53 610.028 2694.27 607.812 2695.02 605.597 2695.39 603.368 2695.39 601.125 2695.39 600.153 2695.18 599.403 2694.76 598.876 2694.34 598.349 2693.68 598.086 2692.79 598.086 2691.66 598.086 2690.61 598.525 2689.65 599.403 2688.69 600.281 2687.7 601.436 2686.67 602.868L2684.36 600.801C2685.01 599.828 2685.78 598.896 2686.65 598.005 2687.53 597.113 2688.46 596.33 2689.45 595.654 2690.44 594.979 2691.46 594.438 2692.51 594.033 2693.56 593.628 2694.59 593.425 2695.59 593.425Z" fill-rule="evenodd"/><text fill="#000000" fill-opacity="0" font-family="Arial,Arial_MSFontService,sans-serif" font-size="40.2842" x="2660.05" y="628.674">𝑣</text><path d="M2691.6 567.667 2701.77 576.462 2701.77 579.542 2671.21 579.542 2671.21 575.732 2695.93 575.732 2689.45 570.099Z" fill-rule="evenodd"/><text fill="#000000" fill-opacity="0" font-family="Arial,Arial_MSFontService,sans-serif" font-size="11.8745" x="2671.21" y="578.058">റ</text><path d="M2593.29 689.265 2599.53 689.265 2599.53 764.687 2593.29 764.687ZM2517.55 689.265 2523.79 689.265 2523.79 764.687 2517.55 764.687Z" fill-rule="evenodd"/><path d="M2546.73 711.219C2548.46 711.219 2549.83 711.799 2550.83 712.961 2551.83 714.123 2552.33 715.69 2552.33 717.662 2552.33 719.797 2551.91 722.458 2551.07 725.646L2549.29 732.657C2548.83 734.441 2548.5 735.832 2548.29 736.832 2548.09 737.831 2547.94 738.696 2547.85 739.426 2547.75 740.155 2547.71 740.763 2547.71 741.249 2547.71 743.114 2548.02 744.458 2548.64 745.282 2549.26 746.106 2550.27 746.518 2551.68 746.518 2552.81 746.518 2554.04 746.065 2555.35 745.16 2556.66 744.255 2558.05 742.891 2559.52 741.067 2560.99 739.243 2562.17 737.473 2563.07 735.758 2563.96 734.042 2564.69 731.928 2565.25 729.415L2569.1 711.867 2576.12 711.867 2570.2 737.561C2569.6 740.155 2569.31 742.154 2569.31 743.559 2569.31 744.64 2569.48 745.424 2569.83 745.91 2570.19 746.396 2570.74 746.639 2571.5 746.639 2572.31 746.639 2573.17 746.308 2574.09 745.646 2575.01 744.985 2576.31 743.721 2577.98 741.857L2580.29 744.127C2577.83 746.747 2575.74 748.598 2574.01 749.679 2572.28 750.76 2570.44 751.3 2568.5 751.3 2566.82 751.3 2565.48 750.746 2564.48 749.638 2563.49 748.531 2562.99 747.058 2562.99 745.221 2562.99 743.762 2563.31 742.168 2563.96 740.439L2563.47 740.277C2560.8 744.032 2558.26 746.802 2555.87 748.585 2553.48 750.368 2551.03 751.26 2548.52 751.26 2546 751.26 2544.07 750.537 2542.72 749.091 2541.37 747.646 2540.7 745.64 2540.7 743.073 2540.7 741.371 2541.09 738.953 2541.87 735.819L2544.5 725.2C2545.23 722.255 2545.6 720.175 2545.6 718.959 2545.6 717.878 2545.42 717.095 2545.07 716.609 2544.72 716.122 2544.17 715.879 2543.41 715.879 2542.57 715.879 2541.69 716.224 2540.76 716.913 2539.82 717.602 2538.55 718.851 2536.93 720.661L2534.62 718.392C2536.91 716.068 2538.64 714.474 2539.8 713.61 2540.97 712.745 2542.08 712.13 2543.15 711.766 2544.21 711.401 2545.41 711.219 2546.73 711.219Z" fill-rule="evenodd"/><text fill="#000000" fill-opacity="0" font-family="Arial,Arial_MSFontService,sans-serif" font-size="40.0815" x="2534.62" y="746.29">𝑢</text><path d="M2571.19 685.322 2581.37 694.116 2581.37 697.196 2561.99 697.196 2550.81 697.196 2537.68 697.196 2537.68 693.386 2550.81 693.386 2561.99 693.386 2575.53 693.386 2569.05 687.753Z" fill-rule="evenodd"/><path d="M2692.59 689.265 2698.83 689.265 2698.83 764.687 2692.59 764.687ZM2619.39 689.265 2625.63 689.265 2625.63 764.687 2619.39 764.687Z" fill-rule="evenodd"/><path d="M2673.86 711.056C2675.81 711.056 2677.22 711.563 2678.08 712.576 2678.94 713.589 2679.38 714.947 2679.38 716.649 2679.38 717.946 2679.15 719.432 2678.69 721.107 2678.23 722.782 2677.58 724.552 2676.74 726.416 2675.9 728.281 2674.91 730.192 2673.74 732.151 2672.58 734.11 2671.3 736.014 2669.89 737.865 2668.49 739.716 2666.99 741.459 2665.39 743.093 2663.8 744.728 2662.15 746.153 2660.43 747.369 2658.71 748.585 2656.97 749.551 2655.2 750.267 2653.43 750.983 2651.67 751.341 2649.91 751.341 2649.13 751.341 2648.47 751.145 2647.95 750.753 2647.42 750.361 2647 749.807 2646.67 749.091 2646.35 748.375 2646.12 747.531 2645.98 746.558 2645.85 745.586 2645.78 744.518 2645.78 743.357 2645.78 741.817 2645.87 740.169 2646.06 738.412 2646.25 736.656 2646.5 734.886 2646.79 733.103L2648.49 721.877C2648.6 721.229 2648.69 720.614 2648.76 720.033 2648.83 719.452 2648.86 719.027 2648.86 718.757 2648.86 717.919 2648.72 717.23 2648.45 716.69 2648.18 716.149 2647.72 715.879 2647.08 715.879 2646.56 715.879 2646.01 716.034 2645.41 716.345 2644.82 716.656 2644.22 717.054 2643.61 717.541 2643 718.027 2642.42 718.547 2641.85 719.101 2641.28 719.655 2640.75 720.175 2640.27 720.661L2638.32 718.392C2639.16 717.527 2640.05 716.669 2641 715.818 2641.94 714.967 2642.94 714.197 2644 713.508 2645.05 712.819 2646.16 712.265 2647.32 711.847 2648.48 711.428 2649.67 711.219 2650.89 711.219 2651.91 711.219 2652.75 711.387 2653.4 711.725 2654.05 712.063 2654.55 712.509 2654.92 713.062 2655.28 713.616 2655.53 714.224 2655.67 714.886 2655.8 715.548 2655.87 716.203 2655.87 716.852 2655.87 717.23 2655.86 717.595 2655.83 717.946 2655.8 718.297 2655.76 718.622 2655.71 718.919L2653.44 733.59C2653.2 735.13 2652.99 736.636 2652.83 738.108 2652.67 739.581 2652.59 740.885 2652.59 742.019 2652.59 743.154 2652.66 744.073 2652.79 744.775 2652.93 745.478 2653.18 745.829 2653.56 745.829 2654.45 745.829 2655.57 745.471 2656.92 744.755 2658.28 744.039 2659.69 743.053 2661.18 741.796 2662.67 740.54 2664.15 739.054 2665.64 737.338 2667.12 735.623 2668.46 733.765 2669.65 731.766 2670.84 729.767 2671.8 727.659 2672.55 725.444 2673.29 723.228 2673.66 720.999 2673.66 718.757 2673.66 717.784 2673.45 717.034 2673.03 716.507 2672.62 715.98 2671.96 715.717 2671.07 715.717 2669.93 715.717 2668.89 716.156 2667.93 717.034 2666.97 717.912 2665.98 719.067 2664.95 720.499L2662.64 718.432C2663.29 717.46 2664.05 716.528 2664.93 715.636 2665.81 714.744 2666.74 713.961 2667.72 713.285 2668.71 712.61 2669.73 712.07 2670.78 711.664 2671.84 711.259 2672.86 711.056 2673.86 711.056Z" fill-rule="evenodd"/><text fill="#000000" fill-opacity="0" font-family="Arial,Arial_MSFontService,sans-serif" font-size="40.2842" x="2638.32" y="746.305">𝑣</text><path d="M2669.87 685.299 2680.04 694.093 2680.04 697.173 2649.49 697.173 2649.49 693.364 2674.21 693.364 2667.72 687.73Z" fill-rule="evenodd"/><text fill="#000000" fill-opacity="0" font-family="Arial,Arial_MSFontService,sans-serif" font-size="11.8745" x="2649.49" y="695.689">റ</text><path d="M2508 669.479 2608.5 669.479 2709 669.479 2709 674.479 2608.5 674.479 2508 674.479Z" fill-rule="evenodd"/><path d="M2935.29 363.264C2934.02 369.127 2933.38 374.058 2933.38 378.056 2933.38 381.082 2933.84 383.305 2934.76 384.723 2935.68 386.141 2937.17 386.851 2939.22 386.851 2942.25 386.851 2945.12 384.818 2947.83 380.751 2950.55 376.685 2952.85 370.856 2954.74 363.264ZM2951.9 335.948C2948.74 335.948 2945.82 337.948 2943.13 341.946 2940.44 345.945 2938.15 351.673 2936.26 359.13L2955.67 359.13C2956.94 353.429 2957.58 348.525 2957.58 344.419 2957.58 341.582 2957.12 339.461 2956.2 338.056 2955.28 336.651 2953.85 335.948 2951.9 335.948ZM2952.39 332.666C2960.23 332.666 2964.14 337.637 2964.14 347.58 2964.14 350.39 2963.83 353.747 2963.19 357.651 2962.56 361.555 2961.55 365.533 2960.17 369.586 2958.79 373.639 2957.05 377.225 2954.94 380.346 2952.84 383.467 2950.41 385.878 2947.65 387.58 2944.89 389.282 2941.92 390.133 2938.73 390.133 2934.71 390.133 2931.71 388.904 2929.74 386.445 2927.76 383.987 2926.78 380.299 2926.78 375.381 2926.78 372.707 2927.07 369.41 2927.67 365.493 2928.26 361.575 2929.24 357.57 2930.61 353.476 2931.97 349.383 2933.73 345.749 2935.88 342.575 2938.02 339.4 2940.5 336.955 2943.29 335.239 2946.09 333.523 2949.12 332.666 2952.39 332.666Z" fill-rule="evenodd"/><text fill="#000000" fill-opacity="0" font-family="Arial,Arial_MSFontService,sans-serif" font-size="57.4678" x="2926.78" y="382.95">𝜃</text><path d="M2999.88 371.491 3049.81 371.491 3049.81 376.881 2999.88 376.881ZM2999.88 354.672 3049.81 354.672 3049.81 360.062 2999.88 360.062Z" fill-rule="evenodd"/><text fill="#000000" fill-opacity="0" font-family="Arial,Arial_MSFontService,sans-serif" font-size="22.209" x="2999.88" y="374.105">=</text><path d="M3136.68 353.254C3133.42 353.254 3130.91 354.672 3129.17 357.509 3127.42 360.346 3126.55 364.385 3126.55 369.627 3126.55 375.192 3127.44 379.468 3129.21 382.453 3130.98 385.439 3133.51 386.932 3136.81 386.932 3138.62 386.932 3140.16 386.493 3141.43 385.615 3142.7 384.737 3143.73 383.554 3144.53 382.068 3145.32 380.582 3145.9 378.86 3146.25 376.901 3146.6 374.942 3146.78 372.896 3146.78 370.761 3146.78 366.79 3146.34 363.493 3145.46 360.873 3144.58 358.252 3143.39 356.327 3141.87 355.098 3140.36 353.868 3138.63 353.254 3136.68 353.254ZM3178.29 350.052C3180.08 350.052 3181.8 350.14 3183.46 350.315 3185.12 350.491 3187.21 350.835 3189.72 351.349L3189.72 359.616 3185.83 359.616C3185.24 357.995 3184.53 356.719 3183.72 355.786 3182.91 354.854 3182 354.199 3180.97 353.821 3179.94 353.443 3178.69 353.254 3177.2 353.254 3175.04 353.254 3173.32 353.76 3172.03 354.773 3170.75 355.786 3170.11 357.171 3170.11 358.927 3170.11 360.17 3170.36 361.197 3170.88 362.007 3171.39 362.818 3172.19 363.574 3173.27 364.277 3174.35 364.979 3176.25 365.912 3178.98 367.073 3181.74 368.262 3183.87 369.356 3185.37 370.356 3186.87 371.356 3188.04 372.518 3188.89 373.841 3189.74 375.165 3190.17 376.746 3190.17 378.583 3190.17 380.718 3189.8 382.514 3189.07 383.973 3188.34 385.432 3187.32 386.621 3185.99 387.54 3184.67 388.458 3183.1 389.12 3181.27 389.526 3179.45 389.931 3177.46 390.133 3175.29 390.133 3173.03 390.133 3170.82 389.965 3168.69 389.627 3166.55 389.289 3164.47 388.85 3162.45 388.31L3162.45 379.839 3166.42 379.839C3167.15 382.325 3168.23 384.129 3169.66 385.25 3171.09 386.371 3173.07 386.932 3175.58 386.932 3176.55 386.932 3177.5 386.83 3178.44 386.628 3179.37 386.425 3180.2 386.087 3180.93 385.615 3181.66 385.142 3182.24 384.5 3182.67 383.69 3183.1 382.879 3183.32 381.866 3183.32 380.65 3183.32 379.272 3183.05 378.151 3182.51 377.286 3181.97 376.422 3181.13 375.631 3180 374.915 3178.86 374.199 3176.86 373.234 3174 372.018 3171.54 370.991 3169.57 369.991 3168.08 369.019 3166.59 368.046 3165.43 366.898 3164.58 365.574 3163.72 364.25 3163.3 362.683 3163.3 360.873 3163.3 358.657 3163.9 356.732 3165.1 355.098 3166.3 353.463 3168.04 352.213 3170.31 351.349 3172.58 350.484 3175.24 350.052 3178.29 350.052ZM3136.85 350.052C3142.63 350.052 3147.01 351.734 3149.98 355.098 3152.95 358.461 3154.44 363.291 3154.44 369.586 3154.44 374.071 3153.69 377.854 3152.21 380.934 3150.72 384.014 3148.61 386.317 3145.88 387.844 3143.16 389.37 3139.93 390.133 3136.2 390.133 3130.58 390.133 3126.29 388.479 3123.33 385.169 3120.37 381.859 3118.89 376.962 3118.89 370.478 3118.89 366.02 3119.67 362.251 3121.22 359.171 3122.78 356.09 3124.9 353.801 3127.61 352.301 3130.31 350.802 3133.39 350.052 3136.85 350.052ZM3100.97 350.052C3103.18 350.052 3105.23 350.18 3107.11 350.437 3108.99 350.694 3110.87 351.106 3112.76 351.673L3112.76 360.143 3107.61 360.143C3107.16 358.387 3106.59 357.002 3105.91 355.989 3105.24 354.976 3104.45 354.267 3103.56 353.861 3102.67 353.456 3101.56 353.254 3100.24 353.254 3098.35 353.254 3096.67 353.861 3095.21 355.077 3093.75 356.293 3092.6 358.144 3091.75 360.63 3090.9 363.115 3090.47 366.155 3090.47 369.748 3090.47 372.045 3090.63 374.145 3090.96 376.05 3091.28 377.955 3091.84 379.583 3092.62 380.934 3093.4 382.285 3094.44 383.338 3095.74 384.095 3097.04 384.851 3098.65 385.23 3100.56 385.23 3102.43 385.23 3104.16 384.865 3105.77 384.135 3107.38 383.406 3109.05 382.123 3110.78 380.285L3113.09 382.96C3111.71 384.473 3110.49 385.642 3109.44 386.466 3108.39 387.29 3107.26 387.979 3106.05 388.533 3104.85 389.086 3103.66 389.492 3102.49 389.748 3101.31 390.005 3100.04 390.133 3098.66 390.133 3093.55 390.133 3089.65 388.438 3086.95 385.047 3084.24 381.656 3082.89 376.759 3082.89 370.356 3082.89 366.357 3083.65 362.811 3085.16 359.718 3086.68 356.624 3088.8 354.24 3091.53 352.565 3094.25 350.889 3097.4 350.052 3100.97 350.052Z" fill-rule="evenodd"/><text fill="#000000" fill-opacity="0" font-family="Arial,Arial_MSFontService,sans-serif" font-size="40.0815" x="3082.89" y="385.123">cos</text><path d="M3201.44 339.563 3235.75 339.563 3235.75 344.12 3201.44 344.12Z" fill-rule="evenodd"/><text fill="#000000" fill-opacity="0" font-family="Arial,Arial_MSFontService,sans-serif" font-size="4.55713" x="3201.44" y="343.551">−</text><path d="M3260.05 320.918 3261.87 320.918C3261.83 322.01 3261.8 322.988 3261.78 323.851 3261.76 324.715 3261.75 325.554 3261.74 326.368 3261.73 327.182 3261.72 327.987 3261.72 328.781L3261.72 351.418C3261.72 352.033 3261.74 352.564 3261.78 353.011 3261.82 353.458 3261.89 353.835 3261.97 354.143 3262.06 354.451 3262.18 354.714 3262.33 354.932 3262.48 355.151 3262.65 355.339 3262.85 355.498 3263.09 355.736 3263.41 355.92 3263.81 356.049 3264.2 356.178 3264.71 356.287 3265.33 356.377 3265.94 356.466 3266.68 356.536 3267.54 356.585 3268.41 356.635 3269.45 356.67 3270.66 356.689L3270.66 359.281 3247.04 359.281 3247.04 356.689C3248.21 356.65 3249.2 356.605 3250.02 356.555 3250.83 356.506 3251.52 356.436 3252.1 356.347 3252.68 356.258 3253.14 356.158 3253.49 356.049 3253.83 355.94 3254.14 355.806 3254.39 355.647 3254.67 355.468 3254.91 355.275 3255.11 355.066 3255.31 354.858 3255.47 354.595 3255.59 354.277 3255.7 353.959 3255.8 353.572 3255.87 353.115 3255.94 352.659 3255.97 352.093 3255.97 351.418L3255.97 330.062C3255.97 329.287 3255.82 328.741 3255.53 328.423 3255.23 328.106 3254.8 327.947 3254.25 327.947 3253.63 327.947 3252.72 328.265 3251.5 328.9 3250.29 329.535 3248.72 330.479 3246.8 331.73 3246.54 331.273 3246.3 330.816 3246.08 330.359 3245.87 329.903 3245.64 329.436 3245.4 328.96 3247.86 327.609 3250.3 326.264 3252.71 324.924 3255.12 323.583 3257.57 322.248 3260.05 320.918Z" fill-rule="evenodd"/><text fill="#000000" fill-opacity="0" font-family="Arial,Arial_MSFontService,sans-serif" font-size="38.3633" x="3245.4" y="354.485">1</text><path d="M3545.1 259.988C3556.21 269.498 3565.02 283.683 3571.55 302.542 3578.07 321.4 3581.33 342.447 3581.33 365.683 3581.33 388.568 3578.07 409.581 3571.55 428.723 3565.02 447.866 3556.21 462.165 3545.1 471.622L3543.2 468.623C3552.79 458.869 3560.18 444.752 3565.37 426.271 3570.55 407.791 3573.15 387.608 3573.15 365.724 3573.15 343.326 3570.54 323.048 3565.33 304.892 3560.11 286.736 3552.74 272.781 3543.2 263.027ZM3335.1 259.988 3337.01 263.027C3327.44 272.781 3320.06 286.736 3314.86 304.892 3309.66 323.048 3307.06 343.326 3307.06 365.724 3307.06 387.608 3309.65 407.791 3314.84 426.271 3320.02 444.752 3327.41 458.869 3337.01 468.623L3335.1 471.622C3324 462.165 3315.18 447.866 3308.66 428.723 3302.13 409.581 3298.87 388.568 3298.87 365.683 3298.87 342.447 3302.13 321.4 3308.66 302.542 3315.18 283.683 3324 269.498 3335.1 259.988Z" fill-rule="evenodd"/><path d="M3374.59 287.604C3376.32 287.604 3377.68 288.185 3378.68 289.347 3379.68 290.508 3380.18 292.075 3380.18 294.048 3380.18 296.182 3379.76 298.844 3378.93 302.032L3377.14 309.043C3376.68 310.826 3376.35 312.218 3376.15 313.217 3375.95 314.217 3375.8 315.081 3375.7 315.811 3375.61 316.54 3375.56 317.148 3375.56 317.635 3375.56 319.499 3375.87 320.843 3376.49 321.667 3377.11 322.491 3378.13 322.903 3379.53 322.903 3380.67 322.903 3381.89 322.451 3383.2 321.546 3384.51 320.64 3385.9 319.276 3387.38 317.452 3388.85 315.629 3390.03 313.859 3390.92 312.143 3391.81 310.428 3392.54 308.313 3393.11 305.801L3396.96 288.252 3403.97 288.252 3398.05 313.947C3397.46 316.54 3397.16 318.54 3397.16 319.945 3397.16 321.025 3397.34 321.809 3397.69 322.295 3398.04 322.782 3398.59 323.025 3399.35 323.025 3400.16 323.025 3401.03 322.694 3401.94 322.032 3402.86 321.37 3404.16 320.107 3405.84 318.243L3408.15 320.512C3405.69 323.133 3403.59 324.984 3401.86 326.064 3400.13 327.145 3398.3 327.685 3396.35 327.685 3394.68 327.685 3393.34 327.132 3392.34 326.024 3391.34 324.916 3390.84 323.444 3390.84 321.606 3390.84 320.147 3391.16 318.553 3391.81 316.824L3391.33 316.662C3388.65 320.418 3386.12 323.187 3383.73 324.97 3381.34 326.753 3378.88 327.645 3376.37 327.645 3373.86 327.645 3371.93 326.922 3370.58 325.477 3369.23 324.031 3368.55 322.025 3368.55 319.458 3368.55 317.756 3368.94 315.338 3369.73 312.204L3372.36 301.586C3373.09 298.641 3373.45 296.56 3373.45 295.345 3373.45 294.264 3373.28 293.48 3372.93 292.994 3372.58 292.508 3372.02 292.265 3371.27 292.265 3370.43 292.265 3369.54 292.609 3368.61 293.298 3367.68 293.987 3366.4 295.237 3364.78 297.047L3362.47 294.777C3364.77 292.454 3366.5 290.86 3367.66 289.995 3368.82 289.13 3369.93 288.516 3371 288.151 3372.07 287.786 3373.26 287.604 3374.59 287.604Z" fill-rule="evenodd"/><text fill="#000000" fill-opacity="0" font-family="Arial,Arial_MSFontService,sans-serif" font-size="40.0815" x="3362.47" y="322.675">𝑢</text><path d="M3399.05 261.707 3409.22 270.501 3409.22 273.581 3389.85 273.581 3378.66 273.581 3365.53 273.581 3365.53 269.772 3378.66 269.772 3389.85 269.772 3403.38 269.772 3396.9 264.139Z" fill-rule="evenodd"/><path d="M3441.18 297.493C3442.24 297.493 3443.19 297.743 3444.04 298.242 3444.89 298.742 3445.54 299.438 3446 300.33 3446.46 301.221 3446.69 302.221 3446.69 303.329 3446.69 304.463 3446.46 305.477 3445.98 306.368 3445.51 307.26 3444.85 307.949 3444 308.435 3443.15 308.921 3442.21 309.164 3441.18 309.164 3440.15 309.164 3439.22 308.921 3438.36 308.435 3437.51 307.949 3436.85 307.26 3436.38 306.368 3435.91 305.477 3435.67 304.463 3435.67 303.329 3435.67 302.221 3435.9 301.221 3436.36 300.33 3436.82 299.438 3437.47 298.742 3438.32 298.242 3439.18 297.743 3440.13 297.493 3441.18 297.493Z" fill-rule="evenodd"/><text fill="#000000" fill-opacity="0" font-family="Arial,Arial_MSFontService,sans-serif" font-size="11.6719" x="3435.67" y="307.706">∙</text><path d="M3509.67 287.442C3511.62 287.442 3513.02 287.948 3513.89 288.962 3514.75 289.975 3515.18 291.332 3515.18 293.035 3515.18 294.331 3514.95 295.817 3514.49 297.493 3514.03 299.168 3513.39 300.937 3512.55 302.802 3511.71 304.666 3510.71 306.577 3509.55 308.536 3508.39 310.495 3507.1 312.4 3505.7 314.251 3504.29 316.101 3502.8 317.844 3501.2 319.479 3499.61 321.113 3497.95 322.539 3496.24 323.754 3494.52 324.97 3492.78 325.936 3491.01 326.652 3489.24 327.368 3487.48 327.726 3485.72 327.726 3484.94 327.726 3484.28 327.53 3483.75 327.138 3483.23 326.747 3482.8 326.193 3482.48 325.477 3482.15 324.761 3481.92 323.916 3481.79 322.944 3481.65 321.971 3481.59 320.904 3481.59 319.742 3481.59 318.202 3481.68 316.554 3481.87 314.798 3482.06 313.042 3482.3 311.272 3482.6 309.489L3484.3 298.263C3484.41 297.614 3484.5 297 3484.56 296.419 3484.63 295.838 3484.67 295.412 3484.67 295.142 3484.67 294.304 3484.53 293.616 3484.26 293.075 3483.99 292.535 3483.53 292.265 3482.88 292.265 3482.37 292.265 3481.82 292.42 3481.22 292.731 3480.63 293.041 3480.03 293.44 3479.42 293.926 3478.81 294.413 3478.22 294.933 3477.65 295.487 3477.09 296.04 3476.56 296.56 3476.07 297.047L3474.13 294.777C3474.97 293.913 3475.86 293.055 3476.8 292.204 3477.75 291.353 3478.75 290.583 3479.8 289.894 3480.86 289.205 3481.96 288.651 3483.13 288.232 3484.29 287.813 3485.48 287.604 3486.69 287.604 3487.72 287.604 3488.56 287.773 3489.21 288.111 3489.85 288.448 3490.36 288.894 3490.72 289.448 3491.09 290.002 3491.34 290.61 3491.47 291.272 3491.61 291.934 3491.68 292.589 3491.68 293.237 3491.68 293.616 3491.66 293.98 3491.64 294.331 3491.61 294.683 3491.57 295.007 3491.52 295.304L3489.25 309.975C3489 311.515 3488.8 313.021 3488.64 314.494 3488.48 315.966 3488.39 317.27 3488.39 318.405 3488.39 319.539 3488.46 320.458 3488.6 321.161 3488.73 321.863 3488.99 322.214 3489.37 322.214 3490.26 322.214 3491.38 321.856 3492.73 321.14 3494.08 320.424 3495.5 319.438 3496.99 318.182 3498.47 316.925 3499.96 315.439 3501.44 313.724 3502.93 312.008 3504.27 310.151 3505.46 308.151 3506.65 306.152 3507.61 304.045 3508.35 301.829 3509.1 299.614 3509.47 297.385 3509.47 295.142 3509.47 294.169 3509.26 293.42 3508.84 292.893 3508.42 292.366 3507.77 292.102 3506.88 292.102 3505.74 292.102 3504.69 292.542 3503.73 293.42 3502.77 294.298 3501.78 295.453 3500.76 296.885L3498.45 294.818C3499.09 293.845 3499.86 292.913 3500.74 292.021 3501.61 291.13 3502.55 290.346 3503.53 289.671 3504.52 288.995 3505.54 288.455 3506.59 288.05 3507.65 287.644 3508.67 287.442 3509.67 287.442Z" fill-rule="evenodd"/><text fill="#000000" fill-opacity="0" font-family="Arial,Arial_MSFontService,sans-serif" font-size="40.2842" x="3474.13" y="322.69">𝑣</text><path d="M3505.68 261.684 3515.85 270.478 3515.85 273.559 3485.29 273.559 3485.29 269.749 3510.02 269.749 3503.53 264.116Z" fill-rule="evenodd"/><text fill="#000000" fill-opacity="0" font-family="Arial,Arial_MSFontService,sans-serif" font-size="11.8745" x="3485.29" y="272.074">റ</text><path d="M3425.13 383.282 3431.37 383.282 3431.37 458.703 3425.13 458.703ZM3349.39 383.282 3355.64 383.282 3355.64 458.703 3349.39 458.703Z" fill-rule="evenodd"/><path d="M3378.58 405.235C3380.31 405.235 3381.67 405.816 3382.67 406.978 3383.67 408.14 3384.17 409.707 3384.17 411.679 3384.17 413.813 3383.75 416.475 3382.91 419.663L3381.13 426.674C3380.67 428.457 3380.34 429.849 3380.14 430.848 3379.93 431.848 3379.79 432.713 3379.69 433.442 3379.6 434.172 3379.55 434.78 3379.55 435.266 3379.55 437.13 3379.86 438.474 3380.48 439.298 3381.1 440.122 3382.12 440.535 3383.52 440.535 3384.66 440.535 3385.88 440.082 3387.19 439.177 3388.5 438.272 3389.89 436.907 3391.36 435.084 3392.83 433.26 3394.02 431.49 3394.91 429.775 3395.8 428.059 3396.53 425.945 3397.1 423.432L3400.95 405.884 3407.96 405.884 3402.04 431.578C3401.45 434.172 3401.15 436.171 3401.15 437.576 3401.15 438.657 3401.33 439.44 3401.68 439.927 3402.03 440.413 3402.58 440.656 3403.34 440.656 3404.15 440.656 3405.01 440.325 3405.93 439.663 3406.85 439.001 3408.15 437.738 3409.82 435.874L3412.13 438.143C3409.67 440.764 3407.58 442.615 3405.85 443.696 3404.12 444.776 3402.28 445.317 3400.34 445.317 3398.66 445.317 3397.33 444.763 3396.33 443.655 3395.33 442.547 3394.83 441.075 3394.83 439.238 3394.83 437.779 3395.15 436.185 3395.8 434.455L3395.31 434.293C3392.64 438.049 3390.11 440.818 3387.72 442.601 3385.32 444.385 3382.87 445.276 3380.36 445.276 3377.85 445.276 3375.91 444.553 3374.56 443.108 3373.21 441.663 3372.54 439.656 3372.54 437.09 3372.54 435.388 3372.93 432.969 3373.71 429.835L3376.35 419.217C3377.08 416.272 3377.44 414.192 3377.44 412.976 3377.44 411.895 3377.27 411.112 3376.91 410.625 3376.56 410.139 3376.01 409.896 3375.25 409.896 3374.42 409.896 3373.53 410.24 3372.6 410.929 3371.67 411.618 3370.39 412.868 3368.77 414.678L3366.46 412.409C3368.76 410.085 3370.48 408.491 3371.65 407.626 3372.81 406.762 3373.92 406.147 3374.99 405.782 3376.06 405.418 3377.25 405.235 3378.58 405.235Z" fill-rule="evenodd"/><text fill="#000000" fill-opacity="0" font-family="Arial,Arial_MSFontService,sans-serif" font-size="40.0815" x="3366.46" y="440.307">𝑢</text><path d="M3403.04 379.338 3413.21 388.133 3413.21 391.213 3393.84 391.213 3382.65 391.213 3369.52 391.213 3369.52 387.403 3382.65 387.403 3393.84 387.403 3407.37 387.403 3400.89 381.77Z" fill-rule="evenodd"/><path d="M3524.43 383.282 3530.67 383.282 3530.67 458.703 3524.43 458.703ZM3451.24 383.282 3457.48 383.282 3457.48 458.703 3451.24 458.703Z" fill-rule="evenodd"/><path d="M3505.71 405.073C3507.65 405.073 3509.06 405.58 3509.92 406.593 3510.79 407.606 3511.22 408.964 3511.22 410.666 3511.22 411.963 3510.99 413.449 3510.53 415.124 3510.07 416.799 3509.42 418.569 3508.58 420.433 3507.75 422.297 3506.75 424.209 3505.59 426.168 3504.42 428.126 3503.14 430.031 3501.74 431.882 3500.33 433.733 3498.83 435.475 3497.24 437.11 3495.64 438.745 3493.99 440.17 3492.27 441.386 3490.56 442.601 3488.81 443.567 3487.04 444.283 3485.27 444.999 3483.51 445.357 3481.76 445.357 3480.97 445.357 3480.32 445.161 3479.79 444.77 3479.26 444.378 3478.84 443.824 3478.51 443.108 3478.19 442.392 3477.96 441.548 3477.82 440.575 3477.69 439.602 3477.62 438.535 3477.62 437.373 3477.62 435.833 3477.72 434.185 3477.91 432.429 3478.09 430.673 3478.34 428.903 3478.63 427.12L3480.34 415.894C3480.44 415.245 3480.53 414.631 3480.6 414.05 3480.67 413.469 3480.7 413.043 3480.7 412.773 3480.7 411.936 3480.57 411.247 3480.3 410.706 3480.03 410.166 3479.57 409.896 3478.92 409.896 3478.4 409.896 3477.85 410.051 3477.26 410.362 3476.66 410.673 3476.06 411.071 3475.45 411.557 3474.85 412.044 3474.26 412.564 3473.69 413.118 3473.12 413.672 3472.6 414.192 3472.11 414.678L3470.16 412.409C3471 411.544 3471.89 410.686 3472.84 409.835 3473.78 408.984 3474.78 408.214 3475.84 407.525 3476.89 406.836 3478 406.282 3479.16 405.863 3480.32 405.445 3481.51 405.235 3482.73 405.235 3483.75 405.235 3484.59 405.404 3485.24 405.742 3485.89 406.08 3486.4 406.525 3486.76 407.079 3487.12 407.633 3487.38 408.241 3487.51 408.903 3487.65 409.565 3487.71 410.22 3487.71 410.868 3487.71 411.247 3487.7 411.612 3487.67 411.963 3487.65 412.314 3487.6 412.638 3487.55 412.935L3485.28 427.606C3485.04 429.146 3484.84 430.653 3484.67 432.125 3484.51 433.598 3484.43 434.901 3484.43 436.036 3484.43 437.171 3484.5 438.089 3484.63 438.792 3484.77 439.494 3485.02 439.846 3485.4 439.846 3486.29 439.846 3487.42 439.488 3488.77 438.772 3490.12 438.056 3491.54 437.069 3493.02 435.813 3494.51 434.557 3495.99 433.071 3497.48 431.355 3498.97 429.639 3500.3 427.782 3501.49 425.783 3502.68 423.783 3503.65 421.676 3504.39 419.46 3505.13 417.245 3505.5 415.016 3505.5 412.773 3505.5 411.801 3505.29 411.051 3504.88 410.524 3504.46 409.997 3503.8 409.734 3502.91 409.734 3501.78 409.734 3500.73 410.173 3499.77 411.051 3498.81 411.929 3497.82 413.084 3496.79 414.516L3494.48 412.449C3495.13 411.476 3495.89 410.544 3496.77 409.653 3497.65 408.761 3498.58 407.978 3499.57 407.302 3500.55 406.627 3501.57 406.086 3502.63 405.681 3503.68 405.276 3504.71 405.073 3505.71 405.073Z" fill-rule="evenodd"/><text fill="#000000" fill-opacity="0" font-family="Arial,Arial_MSFontService,sans-serif" font-size="40.2842" x="3470.16" y="440.322">𝑣</text><path d="M3501.71 379.315 3511.89 388.11 3511.89 391.19 3481.33 391.19 3481.33 387.38 3506.05 387.38 3499.57 381.747Z" fill-rule="evenodd"/><text fill="#000000" fill-opacity="0" font-family="Arial,Arial_MSFontService,sans-serif" font-size="11.8745" x="3481.33" y="389.706">റ</text><path d="M3339.12 363.479 3439.62 363.479 3540.12 363.479 3540.12 368.479 3439.62 368.479 3339.12 368.479Z" fill-rule="evenodd"/><path d="M2935.29 684.264C2934.02 690.127 2933.38 695.057 2933.38 699.056 2933.38 702.082 2933.84 704.305 2934.76 705.723 2935.68 707.141 2937.17 707.851 2939.22 707.851 2942.25 707.851 2945.12 705.818 2947.83 701.751 2950.55 697.685 2952.85 691.856 2954.74 684.264ZM2951.9 656.948C2948.74 656.948 2945.82 658.948 2943.13 662.946 2940.44 666.945 2938.15 672.673 2936.26 680.13L2955.67 680.13C2956.94 674.429 2957.58 669.525 2957.58 665.419 2957.58 662.582 2957.12 660.461 2956.2 659.056 2955.28 657.651 2953.85 656.948 2951.9 656.948ZM2952.39 653.666C2960.23 653.666 2964.14 658.637 2964.14 668.58 2964.14 671.39 2963.83 674.747 2963.19 678.651 2962.56 682.555 2961.55 686.533 2960.17 690.586 2958.79 694.639 2957.05 698.225 2954.94 701.346 2952.84 704.467 2950.41 706.878 2947.65 708.58 2944.89 710.282 2941.92 711.133 2938.73 711.133 2934.71 711.133 2931.71 709.904 2929.74 707.445 2927.76 704.987 2926.78 701.299 2926.78 696.381 2926.78 693.707 2927.07 690.41 2927.67 686.493 2928.26 682.575 2929.24 678.57 2930.61 674.476 2931.97 670.383 2933.73 666.749 2935.88 663.575 2938.02 660.4 2940.5 657.955 2943.29 656.239 2946.09 654.523 2949.12 653.666 2952.39 653.666Z" fill-rule="evenodd"/><text fill="#000000" fill-opacity="0" font-family="Arial,Arial_MSFontService,sans-serif" font-size="57.4678" x="2926.78" y="703.95">𝜃</text><path d="M2999.88 692.491 3049.81 692.491 3049.81 697.881 2999.88 697.881ZM2999.88 675.672 3049.81 675.672 3049.81 681.062 2999.88 681.062Z" fill-rule="evenodd"/><text fill="#000000" fill-opacity="0" font-family="Arial,Arial_MSFontService,sans-serif" font-size="22.209" x="2999.88" y="695.105">=</text><path d="M3127.44 671.376 3129.92 671.376 3129.92 700.353C3129.92 702.677 3130.02 704.291 3130.24 705.196 3130.46 706.101 3130.87 706.79 3131.48 707.263 3132.08 707.736 3133.08 708.148 3134.46 708.499L3134.46 710.485 3118.57 710.485 3118.57 708.499C3119.62 708.175 3120.37 707.891 3120.82 707.648 3121.26 707.405 3121.64 707.067 3121.95 706.635 3122.26 706.203 3122.51 705.541 3122.68 704.649 3122.86 703.757 3122.95 702.366 3122.95 700.475L3122.95 682.805C3122.95 681.076 3122.92 679.684 3122.86 678.63 3122.81 677.577 3122.62 676.732 3122.3 676.097 3121.97 675.463 3121.48 674.99 3120.82 674.679 3120.16 674.368 3119.22 674.105 3118 673.889L3118 671.741ZM3164.64 671.092C3166.1 671.092 3167.41 671.261 3168.55 671.599 3169.7 671.937 3170.71 672.457 3171.59 673.159 3172.47 673.862 3173.19 674.733 3173.76 675.773 3174.33 676.813 3174.75 678.063 3175.04 679.522 3175.32 680.981 3175.46 682.832 3175.46 685.074L3175.46 700.353C3175.46 702.217 3175.52 703.568 3175.63 704.406 3175.73 705.243 3175.92 705.892 3176.19 706.351 3176.46 706.81 3176.85 707.195 3177.37 707.506 3177.88 707.817 3178.77 708.148 3180.04 708.499L3180.04 710.485 3164.07 710.485 3164.07 708.499C3165.13 708.175 3165.89 707.891 3166.34 707.648 3166.8 707.405 3167.19 707.067 3167.5 706.635 3167.81 706.203 3168.05 705.534 3168.23 704.629 3168.4 703.724 3168.49 702.352 3168.49 700.515L3168.49 689.897C3168.49 688.006 3168.44 686.29 3168.33 684.75 3168.22 683.21 3168.04 681.947 3167.78 680.961 3167.53 679.975 3167.22 679.205 3166.85 678.651 3166.49 678.097 3166.05 677.624 3165.55 677.232 3165.05 676.84 3164.48 676.53 3163.83 676.3 3163.18 676.07 3162.33 675.956 3161.28 675.956 3160.22 675.956 3159.23 676.165 3158.28 676.584 3157.33 677.003 3156.29 677.725 3155.16 678.752 3154.02 679.779 3153.2 680.792 3152.69 681.792 3152.17 682.791 3151.92 683.94 3151.92 685.236L3151.92 700.353C3151.92 702.677 3152.02 704.291 3152.24 705.196 3152.46 706.101 3152.87 706.79 3153.48 707.263 3154.08 707.736 3155.08 708.148 3156.46 708.499L3156.46 710.485 3140.57 710.485 3140.57 708.499C3141.62 708.175 3142.37 707.891 3142.82 707.648 3143.26 707.405 3143.64 707.067 3143.95 706.635 3144.26 706.203 3144.51 705.541 3144.68 704.649 3144.86 703.757 3144.95 702.366 3144.95 700.475L3144.95 682.805C3144.95 681.076 3144.92 679.684 3144.86 678.63 3144.81 677.577 3144.62 676.732 3144.3 676.097 3143.97 675.463 3143.48 674.99 3142.82 674.679 3142.16 674.368 3141.22 674.105 3140 673.889L3140 671.741 3149.49 671.376 3151.96 671.376 3151.51 677.982 3152.08 678.144C3154.08 676.118 3155.69 674.672 3156.92 673.808 3158.15 672.943 3159.39 672.274 3160.65 671.802 3161.91 671.329 3163.24 671.092 3164.64 671.092ZM3098.29 671.052C3100.08 671.052 3101.8 671.14 3103.46 671.315 3105.12 671.491 3107.21 671.835 3109.72 672.349L3109.72 680.616 3105.83 680.616C3105.24 678.995 3104.53 677.719 3103.72 676.786 3102.91 675.854 3102 675.199 3100.97 674.821 3099.94 674.443 3098.69 674.253 3097.2 674.253 3095.04 674.253 3093.32 674.76 3092.03 675.773 3090.75 676.786 3090.11 678.171 3090.11 679.927 3090.11 681.17 3090.36 682.197 3090.88 683.007 3091.39 683.818 3092.19 684.574 3093.27 685.277 3094.35 685.979 3096.25 686.911 3098.98 688.073 3101.74 689.262 3103.87 690.356 3105.37 691.356 3106.87 692.356 3108.04 693.517 3108.89 694.841 3109.74 696.165 3110.17 697.746 3110.17 699.583 3110.17 701.718 3109.8 703.514 3109.07 704.973 3108.34 706.432 3107.32 707.621 3105.99 708.54 3104.67 709.458 3103.1 710.12 3101.27 710.525 3099.45 710.931 3097.46 711.133 3095.29 711.133 3093.03 711.133 3090.82 710.964 3088.69 710.627 3086.55 710.289 3084.47 709.85 3082.45 709.31L3082.45 700.839 3086.42 700.839C3087.15 703.325 3088.23 705.129 3089.66 706.25 3091.09 707.371 3093.07 707.932 3095.58 707.932 3096.55 707.932 3097.5 707.83 3098.44 707.628 3099.37 707.425 3100.2 707.087 3100.93 706.615 3101.66 706.142 3102.24 705.5 3102.67 704.69 3103.1 703.879 3103.32 702.866 3103.32 701.65 3103.32 700.272 3103.05 699.151 3102.51 698.286 3101.97 697.422 3101.13 696.631 3100 695.915 3098.86 695.199 3096.86 694.233 3094 693.018 3091.54 691.991 3089.57 690.991 3088.08 690.019 3086.59 689.046 3085.43 687.898 3084.58 686.574 3083.72 685.25 3083.3 683.683 3083.3 681.873 3083.3 679.657 3083.9 677.732 3085.1 676.097 3086.3 674.463 3088.04 673.213 3090.31 672.349 3092.58 671.484 3095.24 671.052 3098.29 671.052ZM3122.7 655.854 3130.16 655.854 3130.16 663.716 3122.7 663.716Z" fill-rule="evenodd"/><text fill="#000000" fill-opacity="0" font-family="Arial,Arial_MSFontService,sans-serif" font-size="55.2793" x="3082.45" y="704.223">sin</text><path d="M3187.94 660.563 3222.25 660.563 3222.25 665.12 3187.94 665.12Z" fill-rule="evenodd"/><text fill="#000000" fill-opacity="0" font-family="Arial,Arial_MSFontService,sans-serif" font-size="4.55713" x="3187.94" y="664.55">−</text><path d="M3246.56 641.917 3248.37 641.917C3248.33 643.01 3248.3 643.988 3248.28 644.851 3248.26 645.715 3248.25 646.554 3248.24 647.368 3248.23 648.182 3248.22 648.987 3248.22 649.781L3248.22 672.417C3248.22 673.033 3248.24 673.564 3248.28 674.011 3248.32 674.458 3248.39 674.835 3248.48 675.143 3248.57 675.451 3248.69 675.714 3248.83 675.932 3248.98 676.151 3249.16 676.339 3249.36 676.498 3249.59 676.736 3249.91 676.92 3250.31 677.049 3250.71 677.178 3251.21 677.287 3251.83 677.377 3252.44 677.466 3253.18 677.536 3254.05 677.585 3254.91 677.635 3255.95 677.67 3257.16 677.689L3257.16 680.281 3233.54 680.281 3233.54 677.689C3234.71 677.65 3235.7 677.605 3236.52 677.555 3237.33 677.506 3238.03 677.436 3238.6 677.347 3239.18 677.258 3239.64 677.158 3239.99 677.049 3240.34 676.94 3240.64 676.806 3240.9 676.647 3241.17 676.468 3241.41 676.275 3241.61 676.066 3241.81 675.858 3241.97 675.595 3242.09 675.277 3242.21 674.959 3242.3 674.572 3242.37 674.115 3242.44 673.659 3242.47 673.093 3242.47 672.417L3242.47 651.062C3242.47 650.287 3242.33 649.741 3242.03 649.423 3241.73 649.106 3241.3 648.947 3240.75 648.947 3240.13 648.947 3239.22 649.264 3238.01 649.9 3236.8 650.535 3235.23 651.479 3233.3 652.729 3233.04 652.273 3232.8 651.816 3232.59 651.359 3232.37 650.903 3232.14 650.436 3231.9 649.959 3234.36 648.609 3236.8 647.264 3239.21 645.924 3241.63 644.583 3244.07 643.248 3246.56 641.917Z" fill-rule="evenodd"/><text fill="#000000" fill-opacity="0" font-family="Arial,Arial_MSFontService,sans-serif" font-size="38.3633" x="3231.9" y="675.485">1</text><path d="M3531.6 580.988C3542.71 590.498 3551.52 604.683 3558.05 623.542 3564.57 642.4 3567.84 663.447 3567.84 686.683 3567.84 709.568 3564.57 730.581 3558.05 749.723 3551.52 768.866 3542.71 783.165 3531.6 792.622L3529.7 789.623C3539.29 779.869 3546.68 765.752 3551.87 747.271 3557.06 728.791 3559.65 708.608 3559.65 686.724 3559.65 664.326 3557.04 644.048 3551.83 625.892 3546.61 607.736 3539.24 593.781 3529.7 584.027ZM3321.6 580.988 3323.51 584.027C3313.94 593.781 3306.56 607.736 3301.36 625.892 3296.16 644.048 3293.56 664.326 3293.56 686.724 3293.56 708.608 3296.15 728.791 3301.34 747.271 3306.53 765.752 3313.92 779.869 3323.51 789.623L3321.6 792.622C3310.5 783.165 3301.68 768.866 3295.16 749.723 3288.63 730.581 3285.37 709.568 3285.37 686.683 3285.37 663.447 3288.63 642.4 3295.16 623.542 3301.68 604.683 3310.5 590.498 3321.6 580.988Z" fill-rule="evenodd"/><path d="M3343.33 608.604C3345.06 608.604 3346.42 609.185 3347.42 610.347 3348.42 611.508 3348.92 613.075 3348.92 615.048 3348.92 617.182 3348.5 619.844 3347.67 623.032L3345.88 630.043C3345.42 631.826 3345.09 633.218 3344.89 634.217 3344.69 635.217 3344.54 636.081 3344.44 636.811 3344.35 637.54 3344.3 638.148 3344.3 638.635 3344.3 640.499 3344.61 641.843 3345.24 642.667 3345.86 643.491 3346.87 643.903 3348.27 643.903 3349.41 643.903 3350.63 643.451 3351.94 642.546 3353.25 641.641 3354.64 640.276 3356.12 638.452 3357.59 636.629 3358.77 634.859 3359.66 633.143 3360.55 631.428 3361.28 629.313 3361.85 626.801L3365.7 609.252 3372.71 609.252 3366.8 634.947C3366.2 637.54 3365.9 639.54 3365.9 640.945 3365.9 642.026 3366.08 642.809 3366.43 643.295 3366.78 643.782 3367.34 644.025 3368.09 644.025 3368.9 644.025 3369.77 643.694 3370.69 643.032 3371.6 642.37 3372.9 641.107 3374.58 639.243L3376.89 641.512C3374.43 644.133 3372.33 645.984 3370.61 647.064 3368.88 648.145 3367.04 648.685 3365.09 648.685 3363.42 648.685 3362.08 648.132 3361.08 647.024 3360.08 645.916 3359.58 644.444 3359.58 642.606 3359.58 641.147 3359.91 639.553 3360.55 637.824L3360.07 637.662C3357.39 641.418 3354.86 644.187 3352.47 645.97 3350.08 647.753 3347.63 648.645 3345.11 648.645 3342.6 648.645 3340.67 647.922 3339.32 646.477 3337.97 645.031 3337.29 643.025 3337.29 640.458 3337.29 638.756 3337.68 636.338 3338.47 633.204L3341.1 622.586C3341.83 619.641 3342.2 617.56 3342.2 616.345 3342.2 615.264 3342.02 614.48 3341.67 613.994 3341.32 613.508 3340.76 613.265 3340.01 613.265 3339.17 613.265 3338.28 613.609 3337.35 614.298 3336.42 614.987 3335.14 616.237 3333.52 618.047L3331.21 615.777C3333.51 613.454 3335.24 611.86 3336.4 610.995 3337.56 610.13 3338.68 609.516 3339.74 609.151 3340.81 608.786 3342.01 608.604 3343.33 608.604Z" fill-rule="evenodd"/><text fill="#000000" fill-opacity="0" font-family="Arial,Arial_MSFontService,sans-serif" font-size="40.0815" x="3331.21" y="643.675">𝑢</text><path d="M3367.79 582.707 3377.96 591.501 3377.96 594.581 3358.59 594.581 3347.4 594.581 3334.27 594.581 3334.27 590.772 3347.4 590.772 3358.59 590.772 3372.13 590.772 3365.64 585.139Z" fill-rule="evenodd"/><path d="M3409.64 602.12 3428 620.438 3446.36 602.12 3450.17 605.889 3432.01 624.369 3450.21 642.768 3446.15 646.821 3428 628.3 3409.27 646.659 3405.51 642.85 3424.03 624.369 3405.59 606.172Z" fill-rule="evenodd"/><text fill="#000000" fill-opacity="0" font-family="Arial,Arial_MSFontService,sans-serif" font-size="44.7017" x="3405.51" y="641.234">×</text><path d="M3513.93 608.442C3515.88 608.442 3517.28 608.948 3518.15 609.962 3519.01 610.975 3519.45 612.332 3519.45 614.035 3519.45 615.331 3519.22 616.818 3518.76 618.493 3518.3 620.168 3517.65 621.937 3516.81 623.802 3515.97 625.666 3514.97 627.578 3513.81 629.536 3512.65 631.495 3511.37 633.4 3509.96 635.251 3508.56 637.101 3507.06 638.844 3505.46 640.479 3503.87 642.113 3502.21 643.539 3500.5 644.754 3498.78 645.97 3497.04 646.936 3495.27 647.652 3493.5 648.368 3491.74 648.726 3489.98 648.726 3489.2 648.726 3488.54 648.53 3488.02 648.138 3487.49 647.747 3487.06 647.193 3486.74 646.477 3486.42 645.761 3486.19 644.916 3486.05 643.944 3485.92 642.971 3485.85 641.904 3485.85 640.742 3485.85 639.202 3485.94 637.554 3486.13 635.798 3486.32 634.042 3486.56 632.272 3486.86 630.489L3488.56 619.263C3488.67 618.614 3488.76 618 3488.83 617.419 3488.89 616.838 3488.93 616.412 3488.93 616.142 3488.93 615.304 3488.79 614.615 3488.52 614.075 3488.25 613.535 3487.79 613.265 3487.15 613.265 3486.63 613.265 3486.08 613.42 3485.48 613.731 3484.89 614.041 3484.29 614.44 3483.68 614.926 3483.07 615.413 3482.48 615.933 3481.92 616.487 3481.35 617.04 3480.82 617.56 3480.34 618.047L3478.39 615.777C3479.23 614.913 3480.12 614.055 3481.07 613.204 3482.01 612.353 3483.01 611.583 3484.07 610.894 3485.12 610.205 3486.23 609.651 3487.39 609.232 3488.55 608.813 3489.74 608.604 3490.95 608.604 3491.98 608.604 3492.82 608.773 3493.47 609.111 3494.12 609.448 3494.62 609.894 3494.99 610.448 3495.35 611.002 3495.6 611.61 3495.74 612.272 3495.87 612.934 3495.94 613.589 3495.94 614.237 3495.94 614.615 3495.93 614.98 3495.9 615.331 3495.87 615.683 3495.83 616.007 3495.78 616.304L3493.51 630.975C3493.26 632.515 3493.06 634.021 3492.9 635.494 3492.74 636.966 3492.66 638.27 3492.66 639.405 3492.66 640.539 3492.72 641.458 3492.86 642.161 3492.99 642.863 3493.25 643.214 3493.63 643.214 3494.52 643.214 3495.64 642.856 3496.99 642.14 3498.34 641.424 3499.76 640.438 3501.25 639.182 3502.73 637.925 3504.22 636.439 3505.71 634.724 3507.19 633.008 3508.53 631.151 3509.72 629.151 3510.91 627.152 3511.87 625.045 3512.62 622.829 3513.36 620.614 3513.73 618.385 3513.73 616.142 3513.73 615.169 3513.52 614.42 3513.1 613.893 3512.68 613.366 3512.03 613.102 3511.14 613.102 3510 613.102 3508.96 613.542 3508 614.42 3507.04 615.298 3506.04 616.453 3505.02 617.885L3502.71 615.818C3503.36 614.845 3504.12 613.913 3505 613.021 3505.88 612.13 3506.81 611.346 3507.79 610.671 3508.78 609.995 3509.8 609.455 3510.85 609.05 3511.91 608.644 3512.93 608.442 3513.93 608.442Z" fill-rule="evenodd"/><text fill="#000000" fill-opacity="0" font-family="Arial,Arial_MSFontService,sans-serif" font-size="40.2842" x="3478.39" y="643.69">𝑣</text><path d="M3509.94 582.684 3520.11 591.478 3520.11 594.559 3489.56 594.559 3489.56 590.749 3514.28 590.749 3507.79 585.116Z" fill-rule="evenodd"/><text fill="#000000" fill-opacity="0" font-family="Arial,Arial_MSFontService,sans-serif" font-size="11.8745" x="3489.56" y="593.074">റ</text><path d="M3411.64 704.282 3417.88 704.282 3417.88 779.703 3411.64 779.703ZM3335.9 704.282 3342.14 704.282 3342.14 779.703 3335.9 779.703Z" fill-rule="evenodd"/><path d="M3365.08 726.235C3366.81 726.235 3368.17 726.816 3369.17 727.978 3370.17 729.14 3370.67 730.707 3370.67 732.679 3370.67 734.813 3370.25 737.475 3369.41 740.663L3367.63 747.674C3367.17 749.457 3366.84 750.849 3366.64 751.848 3366.44 752.848 3366.29 753.713 3366.19 754.442 3366.1 755.172 3366.05 755.78 3366.05 756.266 3366.05 758.13 3366.36 759.474 3366.98 760.298 3367.6 761.122 3368.62 761.534 3370.02 761.534 3371.16 761.534 3372.38 761.082 3373.69 760.177 3375 759.272 3376.39 757.907 3377.86 756.084 3379.34 754.26 3380.52 752.49 3381.41 750.774 3382.3 749.059 3383.03 746.945 3383.6 744.432L3387.45 726.884 3394.46 726.884 3388.54 752.578C3387.95 755.172 3387.65 757.171 3387.65 758.576 3387.65 759.657 3387.83 760.44 3388.18 760.927 3388.53 761.413 3389.08 761.656 3389.84 761.656 3390.65 761.656 3391.52 761.325 3392.43 760.663 3393.35 760.001 3394.65 758.738 3396.32 756.874L3398.63 759.143C3396.18 761.764 3394.08 763.615 3392.35 764.696 3390.62 765.776 3388.79 766.317 3386.84 766.317 3385.17 766.317 3383.83 765.763 3382.83 764.655 3381.83 763.547 3381.33 762.075 3381.33 760.238 3381.33 758.779 3381.65 757.185 3382.3 755.455L3381.82 755.293C3379.14 759.049 3376.61 761.818 3374.22 763.601 3371.83 765.385 3369.37 766.276 3366.86 766.276 3364.35 766.276 3362.42 765.553 3361.07 764.108 3359.72 762.662 3359.04 760.656 3359.04 758.09 3359.04 756.388 3359.43 753.969 3360.21 750.835L3362.85 740.217C3363.58 737.272 3363.94 735.192 3363.94 733.976 3363.94 732.895 3363.77 732.112 3363.42 731.625 3363.07 731.139 3362.51 730.896 3361.75 730.896 3360.92 730.896 3360.03 731.24 3359.1 731.929 3358.17 732.618 3356.89 733.868 3355.27 735.678L3352.96 733.409C3355.26 731.085 3356.99 729.491 3358.15 728.626 3359.31 727.762 3360.42 727.147 3361.49 726.782 3362.56 726.418 3363.75 726.235 3365.08 726.235Z" fill-rule="evenodd"/><text fill="#000000" fill-opacity="0" font-family="Arial,Arial_MSFontService,sans-serif" font-size="40.0815" x="3352.96" y="761.307">𝑢</text><path d="M3389.54 700.338 3399.71 709.133 3399.71 712.213 3380.34 712.213 3369.15 712.213 3356.02 712.213 3356.02 708.403 3369.15 708.403 3380.34 708.403 3393.87 708.403 3387.39 702.77Z" fill-rule="evenodd"/><path d="M3510.93 704.282 3517.17 704.282 3517.17 779.703 3510.93 779.703ZM3437.74 704.282 3443.98 704.282 3443.98 779.703 3437.74 779.703Z" fill-rule="evenodd"/><path d="M3492.21 726.073C3494.15 726.073 3495.56 726.58 3496.42 727.593 3497.29 728.606 3497.72 729.964 3497.72 731.666 3497.72 732.963 3497.49 734.449 3497.03 736.124 3496.57 737.799 3495.92 739.569 3495.09 741.433 3494.25 743.297 3493.25 745.209 3492.09 747.168 3490.93 749.126 3489.64 751.031 3488.24 752.882 3486.83 754.733 3485.33 756.475 3483.74 758.11 3482.14 759.745 3480.49 761.17 3478.77 762.386 3477.06 763.601 3475.32 764.567 3473.55 765.283 3471.78 765.999 3470.01 766.357 3468.26 766.357 3467.47 766.357 3466.82 766.161 3466.29 765.77 3465.76 765.378 3465.34 764.824 3465.02 764.108 3464.69 763.392 3464.46 762.548 3464.33 761.575 3464.19 760.602 3464.12 759.535 3464.12 758.373 3464.12 756.833 3464.22 755.185 3464.41 753.429 3464.6 751.673 3464.84 749.903 3465.14 748.12L3466.84 736.894C3466.95 736.245 3467.03 735.631 3467.1 735.05 3467.17 734.469 3467.2 734.043 3467.2 733.773 3467.2 732.936 3467.07 732.247 3466.8 731.706 3466.53 731.166 3466.07 730.896 3465.42 730.896 3464.91 730.896 3464.35 731.051 3463.76 731.362 3463.16 731.673 3462.56 732.071 3461.96 732.557 3461.35 733.044 3460.76 733.564 3460.19 734.118 3459.62 734.672 3459.1 735.192 3458.61 735.678L3456.67 733.409C3457.5 732.544 3458.4 731.686 3459.34 730.835 3460.29 729.984 3461.29 729.214 3462.34 728.525 3463.39 727.836 3464.5 727.282 3465.66 726.863 3466.83 726.445 3468.01 726.235 3469.23 726.235 3470.26 726.235 3471.09 726.404 3471.74 726.742 3472.39 727.079 3472.9 727.525 3473.26 728.079 3473.63 728.633 3473.88 729.241 3474.01 729.903 3474.15 730.565 3474.21 731.22 3474.21 731.868 3474.21 732.247 3474.2 732.611 3474.17 732.963 3474.15 733.314 3474.11 733.638 3474.05 733.935L3471.78 748.606C3471.54 750.146 3471.34 751.653 3471.18 753.125 3471.01 754.598 3470.93 755.901 3470.93 757.036 3470.93 758.171 3471 759.089 3471.13 759.792 3471.27 760.494 3471.53 760.846 3471.9 760.846 3472.8 760.846 3473.92 760.488 3475.27 759.772 3476.62 759.056 3478.04 758.069 3479.52 756.813 3481.01 755.557 3482.5 754.071 3483.98 752.355 3485.47 750.639 3486.81 748.782 3487.99 746.783 3489.18 744.783 3490.15 742.676 3490.89 740.46 3491.63 738.245 3492.01 736.016 3492.01 733.773 3492.01 732.801 3491.8 732.051 3491.38 731.524 3490.96 730.997 3490.3 730.734 3489.41 730.734 3488.28 730.734 3487.23 731.173 3486.27 732.051 3485.31 732.929 3484.32 734.084 3483.29 735.516L3480.98 733.449C3481.63 732.476 3482.39 731.544 3483.27 730.653 3484.15 729.761 3485.08 728.978 3486.07 728.302 3487.06 727.627 3488.08 727.086 3489.13 726.681 3490.18 726.276 3491.21 726.073 3492.21 726.073Z" fill-rule="evenodd"/><text fill="#000000" fill-opacity="0" font-family="Arial,Arial_MSFontService,sans-serif" font-size="40.2842" x="3456.67" y="761.322">𝑣</text><path d="M3488.22 700.315 3498.39 709.11 3498.39 712.19 3467.83 712.19 3467.83 708.38 3492.55 708.38 3486.07 702.747Z" fill-rule="evenodd"/><text fill="#000000" fill-opacity="0" font-family="Arial,Arial_MSFontService,sans-serif" font-size="11.8745" x="3467.83" y="710.706">റ</text><path d="M3326.12 684.479 3426.62 684.479 3527.12 684.479 3527.12 689.479 3426.62 689.479 3326.12 689.479Z" fill-rule="evenodd"/></g></svg>