<svg width="3241" height="1336" xmlns="http://www.w3.org/2000/svg" xmlns:xlink="http://www.w3.org/1999/xlink" overflow="hidden"><defs><clipPath id="clip0"><rect x="319" y="107" width="3241" height="1336"/></clipPath></defs><g clip-path="url(#clip0)" transform="translate(-319 -107)"><path d="M1186.94 162.416 1186.94 1438.71 1180.06 1438.71 1180.06 162.416ZM1160.58 167 1183.5 139.5 1206.42 167Z"/><path d="M1810.8 791.938 534.5 791.938 534.5 785.063 1810.8 785.063ZM1806.21 765.583 1833.71 788.5 1806.21 811.417Z"/><path d="M1.53248-4.92325 636.917 192.856 633.852 202.702-1.53248 4.92325ZM638.123 171.63 660 205.441 622.798 220.863Z" transform="matrix(1 0 0 -1 692 1205.44)"/><path d="M1036.72 1175.72C1038.67 1175.72 1040.07 1176.23 1040.93 1177.24 1041.8 1178.25 1042.23 1179.61 1042.23 1181.31 1042.23 1182.61 1042 1184.09 1041.54 1185.77 1041.08 1187.45 1040.43 1189.21 1039.6 1191.08 1038.76 1192.94 1037.76 1194.85 1036.6 1196.81 1035.44 1198.77 1034.15 1200.68 1032.75 1202.53 1031.34 1204.38 1029.84 1206.12 1028.25 1207.76 1026.66 1209.39 1025 1210.82 1023.28 1212.03 1021.57 1213.25 1019.83 1214.21 1018.06 1214.93 1016.29 1215.65 1014.52 1216 1012.77 1216 1011.98 1216 1011.33 1215.81 1010.8 1215.42 1010.28 1215.02 1009.85 1214.47 1009.53 1213.75 1009.2 1213.04 1008.97 1212.19 1008.84 1211.22 1008.7 1210.25 1008.63 1209.18 1008.63 1208.02 1008.63 1206.48 1008.73 1204.83 1008.92 1203.08 1009.11 1201.32 1009.35 1199.55 1009.65 1197.77L1011.35 1186.54C1011.46 1185.89 1011.55 1185.28 1011.61 1184.7 1011.68 1184.12 1011.71 1183.69 1011.71 1183.42 1011.71 1182.58 1011.58 1181.89 1011.31 1181.35 1011.04 1180.81 1010.58 1180.54 1009.93 1180.54 1009.42 1180.54 1008.86 1180.7 1008.27 1181.01 1007.68 1181.32 1007.07 1181.72 1006.47 1182.2 1005.86 1182.69 1005.27 1183.21 1004.7 1183.76 1004.14 1184.32 1003.61 1184.84 1003.12 1185.32L1001.18 1183.05C1002.01 1182.19 1002.91 1181.33 1003.85 1180.48 1004.8 1179.63 1005.8 1178.86 1006.85 1178.17 1007.9 1177.48 1009.01 1176.93 1010.17 1176.51 1011.34 1176.09 1012.52 1175.88 1013.74 1175.88 1014.77 1175.88 1015.6 1176.05 1016.25 1176.39 1016.9 1176.73 1017.41 1177.17 1017.77 1177.73 1018.14 1178.28 1018.39 1178.89 1018.52 1179.55 1018.66 1180.21 1018.73 1180.87 1018.73 1181.51 1018.73 1181.89 1018.71 1182.26 1018.69 1182.61 1018.66 1182.96 1018.62 1183.28 1018.56 1183.58L1016.29 1198.25C1016.05 1199.79 1015.85 1201.3 1015.69 1202.77 1015.52 1204.24 1015.44 1205.55 1015.44 1206.68 1015.44 1207.82 1015.51 1208.74 1015.65 1209.44 1015.78 1210.14 1016.04 1210.49 1016.42 1210.49 1017.31 1210.49 1018.43 1210.13 1019.78 1209.42 1021.13 1208.7 1022.55 1207.72 1024.03 1206.46 1025.52 1205.2 1027.01 1203.72 1028.49 1202 1029.98 1200.29 1031.32 1198.43 1032.5 1196.43 1033.69 1194.43 1034.66 1192.32 1035.4 1190.11 1036.15 1187.89 1036.52 1185.66 1036.52 1183.42 1036.52 1182.45 1036.31 1181.7 1035.89 1181.17 1035.47 1180.64 1034.81 1180.38 1033.92 1180.38 1032.79 1180.38 1031.74 1180.82 1030.78 1181.7 1029.82 1182.58 1028.83 1183.73 1027.8 1185.16L1025.49 1183.1C1026.14 1182.12 1026.91 1181.19 1027.78 1180.3 1028.66 1179.41 1029.59 1178.62 1030.58 1177.95 1031.57 1177.27 1032.59 1176.73 1033.64 1176.33 1034.69 1175.92 1035.72 1175.72 1036.72 1175.72Z" fill-rule="evenodd"/><text fill="#000000" fill-opacity="0" font-family="Arial,Arial_MSFontService,sans-serif" font-size="40.2842" x="1001.18" y="1210.97">­ЮЉБ</text><path d="M1032.73 1149.96 1042.9 1158.76 1042.9 1161.11 1032.73 1169.9 1030.58 1167.47 1037.06 1161.84 1012.34 1161.84 1012.34 1158.03 1037.06 1158.03 1030.58 1152.39Z" fill-rule="evenodd"/><text fill="#000000" fill-opacity="0" font-family="Arial,Arial_MSFontService,sans-serif" font-size="19.9395" x="1012.34" y="1167.41">нд</text><path d="M1334.14 416.542C1335.87 416.542 1337.24 417.123 1338.24 418.285 1339.23 419.447 1339.73 421.014 1339.73 422.986 1339.73 425.12 1339.32 427.782 1338.48 430.97L1336.7 437.981C1336.24 439.764 1335.91 441.156 1335.7 442.155 1335.5 443.155 1335.35 444.02 1335.26 444.749 1335.16 445.479 1335.11 446.087 1335.11 446.573 1335.11 448.437 1335.43 449.781 1336.05 450.605 1336.67 451.429 1337.68 451.841 1339.09 451.841 1340.22 451.841 1341.44 451.389 1342.75 450.484 1344.06 449.579 1345.46 448.214 1346.93 446.391 1348.4 444.567 1349.58 442.797 1350.47 441.081 1351.37 439.366 1352.1 437.252 1352.66 434.739L1356.51 417.191 1363.52 417.191 1357.61 442.885C1357.01 445.479 1356.72 447.478 1356.72 448.883 1356.72 449.964 1356.89 450.747 1357.24 451.234 1357.59 451.72 1358.15 451.963 1358.9 451.963 1359.71 451.963 1360.58 451.632 1361.5 450.97 1362.42 450.308 1363.71 449.045 1365.39 447.181L1367.7 449.45C1365.24 452.071 1363.15 453.922 1361.42 455.003 1359.69 456.083 1357.85 456.624 1355.91 456.624 1354.23 456.624 1352.89 456.07 1351.89 454.962 1350.89 453.854 1350.39 452.382 1350.39 450.545 1350.39 449.086 1350.72 447.492 1351.37 445.762L1350.88 445.6C1348.21 449.356 1345.67 452.125 1343.28 453.908 1340.89 455.692 1338.44 456.583 1335.93 456.583 1333.41 456.583 1331.48 455.86 1330.13 454.415 1328.78 452.969 1328.1 450.963 1328.1 448.397 1328.1 446.694 1328.5 444.276 1329.28 441.142L1331.91 430.524C1332.64 427.579 1333.01 425.499 1333.01 424.283 1333.01 423.202 1332.83 422.419 1332.48 421.932 1332.13 421.446 1331.58 421.203 1330.82 421.203 1329.98 421.203 1329.1 421.547 1328.16 422.236 1327.23 422.925 1325.96 424.175 1324.33 425.985L1322.02 423.715C1324.32 421.392 1326.05 419.798 1327.21 418.933 1328.37 418.069 1329.49 417.454 1330.56 417.089 1331.62 416.725 1332.82 416.542 1334.14 416.542Z" fill-rule="evenodd"/><text fill="#000000" fill-opacity="0" font-family="Arial,Arial_MSFontService,sans-serif" font-size="40.0815" x="1322.02" y="451.613">­ЮЉб</text><path d="M1358.6 390.645 1368.77 399.44 1368.77 401.79 1358.6 410.585 1356.45 408.153 1362.94 402.52 1349.4 402.52 1338.22 402.52 1325.09 402.52 1325.09 398.71 1338.22 398.71 1349.4 398.71 1362.94 398.71 1356.45 393.077Z" fill-rule="evenodd"/><path d="M5.08-0.883475 49.1918 252.76 39.0319 254.527-5.08 0.883475ZM68.6283 244.146 48.5292 279.044 17.8284 252.981Z" transform="matrix(1 0 0 -1 1372 557.044)"/><path d="M1412 255C1412 247.82 1417.82 242 1425 242 1432.18 242 1438 247.82 1438 255 1438 262.18 1432.18 268 1425 268 1417.82 268 1412 262.18 1412 255Z" fill-rule="evenodd"/><path d="M1356 580C1356 572.82 1361.82 567 1369 567 1376.18 567 1382 572.82 1382 580 1382 587.18 1376.18 593 1369 593 1361.82 593 1356 587.18 1356 580Z" fill-rule="evenodd"/><path d="M1359 996C1359 988.82 1364.82 983 1372 983 1379.18 983 1385 988.82 1385 996 1385 1003.18 1379.18 1009 1372 1009 1364.82 1009 1359 1003.18 1359 996Z" fill-rule="evenodd"/><path d="M658 1211C658 1203.82 663.82 1198 671 1198 678.18 1198 684 1203.82 684 1211 684 1218.18 678.18 1224 671 1224 663.82 1224 658 1218.18 658 1211Z" fill-rule="evenodd"/><path d="M1445.68 561.48 1431.25 587.012 1447.1 587.012 1446.41 573.963C1446.33 572.179 1446.26 569.95 1446.21 567.276 1446.15 564.601 1446.13 562.669 1446.13 561.48ZM1445.92 552.929 1452.04 552.929 1454.96 598.117C1455.1 600.251 1455.34 601.92 1455.69 603.122 1456.04 604.324 1456.52 605.216 1457.13 605.797 1457.74 606.378 1458.62 606.749 1459.78 606.911L1459.34 608.897 1442.48 608.897 1442.92 606.911C1444.52 606.776 1445.71 606.155 1446.49 605.047 1447.27 603.939 1447.67 601.994 1447.67 599.211 1447.67 598.157 1447.62 597.009 1447.54 595.766L1447.26 590.538 1429.43 590.538 1427.2 594.51C1426.15 596.374 1425.38 597.975 1424.89 599.312 1424.4 600.65 1424.16 601.832 1424.16 602.859 1424.16 605.128 1425.52 606.479 1428.25 606.911L1427.81 608.897 1411.23 608.897 1411.68 606.911C1412.51 606.803 1413.3 606.472 1414.05 605.918 1414.79 605.365 1415.58 604.527 1416.42 603.406 1417.26 602.284 1418.43 600.427 1419.94 597.833Z" fill-rule="evenodd"/><text fill="#000000" fill-opacity="0" font-family="Arial,Arial_MSFontService,sans-serif" font-size="55.9683" x="1411.23" y="601.901">­Юљ┤</text><path d="M1487.65 255.251 1482.62 278.473C1484.27 278.582 1486.3 278.636 1488.7 278.636 1492.81 278.636 1495.9 278.169 1497.96 277.237 1500.03 276.305 1501.81 274.65 1503.29 272.273 1504.78 269.895 1505.52 266.964 1505.52 263.478 1505.52 260.749 1504.62 258.696 1502.83 257.318 1501.03 255.94 1498.35 255.251 1494.78 255.251ZM1499.65 230.449C1497.3 230.449 1495.11 230.489 1493.08 230.57L1488.5 251.685 1494.22 251.685C1497.4 251.685 1499.94 251.428 1501.81 250.915 1503.69 250.402 1505.35 249.483 1506.78 248.159 1508.21 246.835 1509.25 245.383 1509.9 243.802 1510.55 242.222 1510.87 240.391 1510.87 238.311 1510.87 237.149 1510.67 236.062 1510.26 235.048 1509.86 234.035 1509.16 233.171 1508.18 232.455 1507.19 231.739 1506.06 231.225 1504.77 230.915 1503.49 230.604 1501.78 230.449 1499.65 230.449ZM1481.45 226.882 1501.51 226.882C1505.56 226.882 1508.81 227.308 1511.26 228.159 1513.7 229.01 1515.5 230.259 1516.65 231.908 1517.8 233.556 1518.37 235.623 1518.37 238.108 1518.37 241.648 1517.29 244.734 1515.13 247.369 1512.97 250.003 1509.75 252.023 1505.48 253.428L1505.4 253.873C1507.91 254.873 1509.85 256.298 1511.2 258.149 1512.55 260 1513.22 262.1 1513.22 264.451 1513.22 268.044 1512.4 271.118 1510.75 273.671 1509.1 276.224 1506.63 278.284 1503.33 279.851 1500.04 281.418 1495.22 282.202 1488.87 282.202L1470.83 282.202 1471.28 280.216C1472.3 280.054 1473.07 279.791 1473.59 279.426 1474.1 279.061 1474.53 278.555 1474.88 277.906 1475.24 277.258 1475.56 276.467 1475.86 275.535 1476.15 274.603 1476.6 272.8 1477.19 270.125L1484.08 238.919C1484.68 236.217 1484.98 234.083 1484.98 232.515 1484.98 231.192 1484.66 230.273 1484.04 229.76 1483.42 229.246 1482.41 228.949 1481 228.868Z" fill-rule="evenodd"/><text fill="#000000" fill-opacity="0" font-family="Arial,Arial_MSFontService,sans-serif" font-size="55.3198" x="1470.83" y="275.287">­Юљх</text><path d="M678.867 1261.7C681.325 1261.7 683.602 1261.85 685.695 1262.15 687.789 1262.45 690.12 1262.99 692.686 1263.77L690.255 1274.75 686.364 1274.75C686.148 1271.43 685.425 1269.03 684.196 1267.56 682.967 1266.09 680.987 1265.35 678.259 1265.35 674.53 1265.35 671.065 1267.21 667.863 1270.94 664.662 1274.67 662.129 1279.6 660.265 1285.71 658.4 1291.83 657.468 1297.52 657.468 1302.76 657.468 1306.86 658.198 1309.89 659.657 1311.83 661.116 1313.78 663.358 1314.75 666.384 1314.75 668.411 1314.75 670.18 1314.45 671.693 1313.84 673.206 1313.23 674.625 1312.21 675.949 1310.76 677.273 1309.32 678.583 1307.3 679.88 1304.7L683.77 1304.7 681.298 1316.21C676.246 1317.62 670.95 1318.32 665.411 1318.32 660.332 1318.32 656.468 1316.86 653.821 1313.94 651.173 1311.02 649.849 1306.76 649.849 1301.14 649.849 1297.16 650.558 1292.58 651.977 1287.4 653.395 1282.21 655.401 1277.66 657.995 1273.74 660.589 1269.82 663.655 1266.84 667.195 1264.78 670.734 1262.73 674.625 1261.7 678.867 1261.7Z" fill-rule="evenodd"/><text fill="#000000" fill-opacity="0" font-family="Arial,Arial_MSFontService,sans-serif" font-size="56.6167" x="649.849" y="1311.24">­ЮљХ</text><path d="M1375.55 1053.79C1374.36 1053.79 1373.07 1053.83 1371.7 1053.91L1361.2 1101.85C1361.98 1101.93 1363.48 1101.97 1365.7 1101.97 1370.08 1101.97 1373.79 1101.21 1376.84 1099.68 1379.9 1098.16 1382.53 1095.77 1384.75 1092.51 1386.96 1089.26 1388.6 1085.82 1389.65 1082.22 1390.7 1078.61 1391.23 1074.81 1391.23 1070.81 1391.23 1065.16 1389.91 1060.91 1387.28 1058.06 1384.65 1055.21 1380.73 1053.79 1375.55 1053.79ZM1360.07 1050.26 1375.43 1050.26C1379.5 1050.26 1382.81 1050.57 1385.35 1051.19 1387.89 1051.82 1390.26 1052.94 1392.47 1054.56 1394.67 1056.18 1396.32 1058.33 1397.43 1061.02 1398.54 1063.71 1399.09 1066.89 1399.09 1070.57 1399.09 1074.21 1398.67 1077.7 1397.84 1081.02 1397 1084.35 1395.8 1087.41 1394.23 1090.2 1392.66 1093 1390.79 1095.43 1388.6 1097.5 1386.41 1099.56 1384.29 1101.15 1382.23 1102.26 1380.18 1103.37 1377.88 1104.2 1375.34 1104.75 1372.8 1105.3 1369.85 1105.58 1366.47 1105.58L1349.45 1105.58 1349.89 1103.6C1350.92 1103.43 1351.69 1103.17 1352.2 1102.81 1352.72 1102.44 1353.15 1101.93 1353.5 1101.29 1353.85 1100.64 1354.18 1099.85 1354.47 1098.91 1354.77 1097.98 1355.22 1096.18 1355.81 1093.5L1362.7 1062.3C1363.29 1059.6 1363.59 1057.42 1363.59 1055.77 1363.59 1054.5 1363.27 1053.62 1362.64 1053.12 1362 1052.62 1361 1052.33 1359.62 1052.25Z" fill-rule="evenodd"/><text fill="#000000" fill-opacity="0" font-family="Arial,Arial_MSFontService,sans-serif" font-size="55.3198" x="1349.45" y="1098.67">­Юљи</text><rect x="320.5" y="366.5" width="692" height="268" stroke="#000000" stroke-width="3.4375" stroke-linejoin="round" stroke-miterlimit="10" fill="none"/><path d="M366.588 434.409C368.317 434.409 369.681 434.99 370.681 436.151 371.681 437.313 372.18 438.88 372.18 440.853 372.18 442.987 371.762 445.648 370.924 448.836L369.141 455.848C368.682 457.631 368.351 459.022 368.148 460.022 367.945 461.022 367.797 461.886 367.702 462.616 367.608 463.345 367.56 463.953 367.56 464.439 367.56 466.304 367.871 467.648 368.492 468.472 369.114 469.296 370.127 469.708 371.532 469.708 372.667 469.708 373.889 469.255 375.2 468.35 376.51 467.445 377.902 466.081 379.374 464.257 380.847 462.433 382.029 460.664 382.92 458.948 383.812 457.232 384.541 455.118 385.109 452.605L388.959 435.057 395.97 435.057 390.053 460.751C389.459 463.345 389.161 465.345 389.161 466.749 389.161 467.83 389.337 468.614 389.688 469.1 390.039 469.586 390.593 469.83 391.35 469.83 392.16 469.83 393.025 469.499 393.944 468.837 394.862 468.175 396.159 466.912 397.834 465.047L400.144 467.317C397.686 469.938 395.592 471.788 393.863 472.869 392.133 473.95 390.296 474.49 388.351 474.49 386.676 474.49 385.338 473.936 384.339 472.829 383.339 471.721 382.839 470.248 382.839 468.411 382.839 466.952 383.163 465.358 383.812 463.629L383.325 463.467C380.651 467.222 378.118 469.992 375.727 471.775 373.335 473.558 370.884 474.45 368.371 474.45 365.858 474.45 363.926 473.727 362.575 472.281 361.225 470.836 360.549 468.83 360.549 466.263 360.549 464.561 360.941 462.143 361.724 459.009L364.359 448.391C365.088 445.446 365.453 443.365 365.453 442.149 365.453 441.069 365.277 440.285 364.926 439.799 364.575 439.312 364.021 439.069 363.264 439.069 362.427 439.069 361.542 439.414 360.61 440.103 359.678 440.792 358.401 442.041 356.78 443.852L354.47 441.582C356.767 439.258 358.496 437.664 359.657 436.8 360.819 435.935 361.934 435.321 363.001 434.956 364.068 434.591 365.264 434.409 366.588 434.409Z" fill-rule="evenodd"/><text fill="#000000" fill-opacity="0" font-family="Arial,Arial_MSFontService,sans-serif" font-size="40.0815" x="354.47" y="469.48">­ЮЉб</text><path d="M391.047 408.512 401.22 417.306 401.22 420.386 381.847 420.386 370.662 420.386 357.531 420.386 357.531 416.577 370.662 416.577 381.847 416.577 395.384 416.577 388.899 410.943Z" fill-rule="evenodd"/><path d="M432.09 455.848 482.02 455.848 482.02 461.238 432.09 461.238ZM432.09 439.029 482.02 439.029 482.02 444.419 432.09 444.419Z" fill-rule="evenodd"/><text fill="#000000" fill-opacity="0" font-family="Arial,Arial_MSFontService,sans-serif" font-size="22.209" x="432.09" y="458.462">=</text><path d="M581.972 446.891 576.947 470.113C578.595 470.221 580.621 470.275 583.026 470.275 587.133 470.275 590.219 469.809 592.286 468.877 594.353 467.945 596.13 466.29 597.616 463.913 599.102 461.535 599.845 458.603 599.845 455.118 599.845 452.389 598.946 450.336 597.15 448.958 595.353 447.58 592.671 446.891 589.105 446.891ZM544.765 426.425 530.337 451.957 546.183 451.957 545.494 438.907C545.413 437.124 545.345 434.895 545.291 432.22 545.237 429.545 545.21 427.614 545.21 426.425ZM593.968 422.088C591.618 422.088 589.429 422.129 587.403 422.21L582.823 443.325 588.537 443.325C591.726 443.325 594.259 443.068 596.136 442.555 598.014 442.041 599.669 441.123 601.101 439.799 602.533 438.475 603.573 437.023 604.222 435.442 604.87 433.862 605.194 432.031 605.194 429.951 605.194 428.789 604.992 427.701 604.586 426.688 604.181 425.675 603.485 424.81 602.499 424.094 601.513 423.378 600.378 422.865 599.095 422.554 597.811 422.244 596.103 422.088 593.968 422.088ZM575.771 418.522 595.832 418.522C599.885 418.522 603.134 418.947 605.579 419.799 608.024 420.65 609.821 421.899 610.969 423.547 612.118 425.195 612.692 427.262 612.692 429.748 612.692 433.287 611.611 436.374 609.45 439.009 607.288 441.643 604.073 443.662 599.804 445.067L599.723 445.513C602.236 446.513 604.167 447.938 605.518 449.789 606.869 451.64 607.545 453.74 607.545 456.091 607.545 459.684 606.721 462.758 605.073 465.311 603.424 467.864 600.952 469.924 597.656 471.491 594.36 473.058 589.537 473.842 583.188 473.842L565.153 473.842 565.599 471.856C566.626 471.694 567.396 471.43 567.909 471.066 568.422 470.701 568.855 470.194 569.206 469.546 569.557 468.897 569.881 468.107 570.179 467.175 570.476 466.243 570.922 464.439 571.516 461.765L578.406 430.559C579 427.857 579.297 425.722 579.297 424.155 579.297 422.831 578.987 421.913 578.365 421.399 577.744 420.886 576.73 420.589 575.326 420.508ZM545.008 417.874 551.127 417.874 554.045 463.061C554.18 465.196 554.424 466.864 554.775 468.067 555.126 469.269 555.606 470.161 556.214 470.741 556.821 471.322 557.706 471.694 558.868 471.856L558.422 473.842 541.563 473.842 542.009 471.856C543.603 471.721 544.792 471.099 545.575 469.992 546.359 468.884 546.75 466.939 546.75 464.156 546.75 463.102 546.71 461.954 546.629 460.711L546.345 455.483 528.513 455.483 526.284 459.455C525.23 461.319 524.46 462.92 523.974 464.257 523.488 465.594 523.245 466.776 523.245 467.803 523.245 470.073 524.609 471.424 527.338 471.856L526.892 473.842 510.316 473.842 510.762 471.856C511.6 471.748 512.39 471.417 513.133 470.863 513.876 470.309 514.666 469.472 515.504 468.35 516.341 467.229 517.517 465.372 519.03 462.778Z" fill-rule="evenodd"/><text fill="#000000" fill-opacity="0" font-family="Arial,Arial_MSFontService,sans-serif" font-size="55.9683" x="510.316" y="466.846">­Юљ┤­Юљх</text><path d="M607.403 392.195 617.576 400.989 617.576 403.34 607.403 412.134 605.255 409.703 611.74 404.07 595.201 404.07 587.018 404.07 580.214 404.07 570.885 404.07 565.203 404.07 555.897 404.07 550.193 404.07 540.887 404.07 535.182 404.07 525.876 404.07 510.866 404.07 510.866 400.26 525.876 400.26 535.182 400.26 540.887 400.26 550.193 400.26 555.897 400.26 565.203 400.26 570.885 400.26 580.214 400.26 587.018 400.26 595.201 400.26 611.74 400.26 605.255 394.627Z" fill-rule="evenodd"/><path d="M648.584 455.848 698.513 455.848 698.513 461.238 648.584 461.238ZM648.584 439.029 698.513 439.029 698.513 444.419 648.584 444.419Z" fill-rule="evenodd"/><text fill="#000000" fill-opacity="0" font-family="Arial,Arial_MSFontService,sans-serif" font-size="22.209" x="648.584" y="458.462">=</text><path d="M744.561 446.891 744.561 469.992C746.533 470.181 748.735 470.275 751.167 470.275 754.706 470.275 757.456 469.83 759.414 468.938 761.373 468.046 762.792 466.729 763.67 464.987 764.548 463.244 764.987 461.062 764.987 458.441 764.987 455.821 764.507 453.659 763.548 451.957 762.589 450.255 761.11 448.985 759.11 448.147 757.111 447.31 754.355 446.891 750.843 446.891ZM752.383 422.088C751.356 422.088 750.005 422.115 748.33 422.169 746.655 422.223 745.399 422.277 744.561 422.332L744.561 443.325 751.653 443.325C755.76 443.325 758.901 442.332 761.076 440.346 763.251 438.36 764.338 435.476 764.338 431.693 764.338 429.829 764.034 428.282 763.427 427.053 762.819 425.824 761.981 424.844 760.914 424.115 759.847 423.385 758.583 422.865 757.125 422.554 755.666 422.244 754.085 422.088 752.383 422.088ZM732.241 418.522 754.409 418.522C758.705 418.522 762.157 418.981 764.764 419.9 767.371 420.818 769.31 422.176 770.58 423.973 771.849 425.77 772.484 428.086 772.484 430.923 772.484 433.274 772.032 435.314 771.127 437.043 770.222 438.772 769.04 440.204 767.581 441.339 766.122 442.474 764.244 443.527 761.947 444.5L761.947 444.865C765.622 445.972 768.405 447.681 770.296 449.991 772.187 452.301 773.133 455.051 773.133 458.239 773.133 461.913 772.315 464.912 770.681 467.236 769.046 469.559 766.757 471.241 763.812 472.281 760.867 473.322 757.3 473.842 753.112 473.842L732.241 473.842 732.241 471.856C733.916 471.424 735.037 470.944 735.604 470.417 736.172 469.89 736.543 469.141 736.719 468.168 736.895 467.195 736.982 465.709 736.982 463.71L736.982 428.654C736.982 426.79 736.915 425.432 736.78 424.581 736.645 423.73 736.422 423.068 736.111 422.595 735.8 422.122 735.388 421.744 734.875 421.46 734.362 421.176 733.484 420.859 732.241 420.508Z" fill-rule="evenodd"/><text fill="#000000" fill-opacity="0" font-family="Arial,Arial_MSFontService,sans-serif" font-size="55.3198" x="732.241" y="466.927">B</text><path d="M802.125 447.418 852.055 447.418 852.055 452.808 802.125 452.808Z" fill-rule="evenodd"/><text fill="#000000" fill-opacity="0" font-family="Arial,Arial_MSFontService,sans-serif" font-size="5.39014" x="802.125" y="452.134">Рѕњ</text><path d="M902.233 425.817 892.992 451.957 909.933 451.957ZM900.652 417.874 907.055 417.874 920.835 463.061C921.483 465.169 922.057 466.776 922.557 467.884 923.057 468.992 923.658 469.857 924.361 470.478 925.063 471.099 926.022 471.559 927.238 471.856L927.238 473.842 908.555 473.842 908.555 471.856C909.906 471.586 910.912 471.289 911.574 470.964 912.236 470.64 912.729 470.188 913.054 469.607 913.378 469.026 913.54 468.249 913.54 467.276 913.54 466.358 913.432 465.365 913.216 464.298 913 463.23 912.689 462.035 912.284 460.711L910.784 455.483 891.898 455.483 890.52 459.455C889.818 461.454 889.359 462.967 889.142 463.994 888.926 465.02 888.818 465.952 888.818 466.79 888.818 468.411 889.23 469.6 890.054 470.356 890.878 471.113 892.141 471.613 893.844 471.856L893.844 473.842 876.538 473.842 876.538 471.856C878.051 471.613 879.369 470.735 880.49 469.222 881.611 467.709 882.699 465.547 883.752 462.737Z" fill-rule="evenodd"/><text fill="#000000" fill-opacity="0" font-family="Arial,Arial_MSFontService,sans-serif" font-size="55.9683" x="876.538" y="466.846">A</text><path d="M391.877 545.261C393.822 545.261 395.227 545.768 396.092 546.781 396.956 547.794 397.388 549.152 397.388 550.854 397.388 552.151 397.159 553.637 396.699 555.312 396.24 556.987 395.592 558.757 394.754 560.621 393.917 562.485 392.917 564.397 391.755 566.356 390.593 568.314 389.31 570.219 387.905 572.07 386.5 573.921 385.001 575.663 383.406 577.298 381.812 578.933 380.158 580.358 378.442 581.574 376.726 582.789 374.984 583.755 373.214 584.471 371.444 585.187 369.681 585.545 367.925 585.545 367.142 585.545 366.486 585.349 365.959 584.958 365.433 584.566 365.007 584.012 364.683 583.296 364.359 582.58 364.129 581.736 363.994 580.763 363.859 579.79 363.791 578.723 363.791 577.561 363.791 576.021 363.886 574.373 364.075 572.617 364.264 570.861 364.507 569.091 364.804 567.308L366.507 556.082C366.615 555.433 366.702 554.819 366.77 554.238 366.838 553.657 366.871 553.232 366.871 552.961 366.871 552.124 366.736 551.435 366.466 550.894 366.196 550.354 365.737 550.084 365.088 550.084 364.575 550.084 364.021 550.239 363.427 550.55 362.832 550.861 362.231 551.259 361.623 551.745 361.015 552.232 360.427 552.752 359.86 553.306 359.293 553.86 358.766 554.38 358.28 554.866L356.334 552.597C357.172 551.732 358.063 550.874 359.009 550.023 359.955 549.172 360.954 548.402 362.008 547.713 363.062 547.024 364.17 546.47 365.331 546.051 366.493 545.633 367.682 545.423 368.898 545.423 369.924 545.423 370.762 545.592 371.41 545.93 372.059 546.268 372.565 546.713 372.93 547.267 373.295 547.821 373.545 548.429 373.68 549.091 373.815 549.753 373.883 550.408 373.883 551.057 373.883 551.435 373.869 551.799 373.842 552.151 373.815 552.502 373.775 552.826 373.72 553.123L371.451 567.794C371.208 569.334 371.005 570.841 370.843 572.313 370.681 573.786 370.6 575.089 370.6 576.224 370.6 577.359 370.667 578.277 370.802 578.98 370.938 579.682 371.194 580.034 371.573 580.034 372.464 580.034 373.585 579.676 374.936 578.96 376.287 578.244 377.706 577.257 379.192 576.001 380.678 574.745 382.164 573.259 383.65 571.543 385.136 569.827 386.473 567.97 387.662 565.971 388.851 563.971 389.817 561.864 390.56 559.648 391.303 557.433 391.674 555.204 391.674 552.961 391.674 551.989 391.465 551.239 391.046 550.712 390.627 550.185 389.972 549.922 389.08 549.922 387.946 549.922 386.899 550.361 385.939 551.239 384.98 552.117 383.987 553.272 382.961 554.704L380.651 552.637C381.299 551.664 382.062 550.732 382.94 549.841 383.819 548.949 384.751 548.166 385.737 547.49 386.723 546.815 387.743 546.274 388.797 545.869 389.85 545.464 390.877 545.261 391.877 545.261Z" fill-rule="evenodd"/><text fill="#000000" fill-opacity="0" font-family="Arial,Arial_MSFontService,sans-serif" font-size="40.2842" x="356.334" y="580.51">­ЮЉБ</text><path d="M387.885 519.503 398.057 528.298 398.057 531.378 367.499 531.378 367.499 527.568 392.221 527.568 385.737 521.935Z" fill-rule="evenodd"/><text fill="#000000" fill-opacity="0" font-family="Arial,Arial_MSFontService,sans-serif" font-size="11.8745" x="367.499" y="529.894">Я┤▒</text><path d="M429.546 566.862 479.476 566.862 479.476 572.252 429.546 572.252ZM429.546 550.043 479.476 550.043 479.476 555.433 429.546 555.433Z" fill-rule="evenodd"/><text fill="#000000" fill-opacity="0" font-family="Arial,Arial_MSFontService,sans-serif" font-size="22.209" x="429.546" y="569.476">=</text><path d="M585.709 533.062C584.52 533.062 583.237 533.103 581.859 533.184L571.362 581.128C572.146 581.209 573.645 581.249 575.861 581.249 580.238 581.249 583.953 580.486 587.006 578.96 590.059 577.433 592.693 575.042 594.909 571.786 597.124 568.531 598.759 565.099 599.813 561.492 600.866 557.885 601.393 554.083 601.393 550.084 601.393 544.437 600.076 540.188 597.442 537.338 594.807 534.488 590.897 533.062 585.709 533.062ZM570.228 529.536 585.587 529.536C589.667 529.536 592.977 529.847 595.517 530.469 598.056 531.09 600.427 532.211 602.629 533.832 604.831 535.453 606.486 537.608 607.594 540.297 608.702 542.985 609.255 546.166 609.255 549.841 609.255 553.488 608.837 556.974 607.999 560.297 607.162 563.62 605.959 566.68 604.392 569.476 602.825 572.273 600.947 574.704 598.759 576.771 596.57 578.838 594.449 580.425 592.396 581.533 590.343 582.641 588.046 583.472 585.506 584.026 582.967 584.579 580.008 584.856 576.631 584.856L559.609 584.856 560.055 582.87C561.082 582.708 561.852 582.445 562.365 582.08 562.879 581.715 563.311 581.209 563.662 580.56 564.013 579.912 564.338 579.122 564.635 578.19 564.932 577.257 565.378 575.454 565.972 572.779L572.862 541.573C573.456 538.871 573.753 536.696 573.753 535.048 573.753 533.778 573.436 532.893 572.801 532.394 572.166 531.894 571.16 531.603 569.782 531.522ZM542.788 528.888C545.247 528.888 547.523 529.037 549.617 529.334 551.711 529.631 554.041 530.171 556.608 530.955L554.176 541.938 550.286 541.938C550.07 538.615 549.347 536.217 548.117 534.744 546.888 533.272 544.909 532.536 542.18 532.536 538.452 532.536 534.987 534.4 531.785 538.128 528.583 541.857 526.05 546.781 524.186 552.901 522.322 559.02 521.39 564.701 521.39 569.942 521.39 574.049 522.119 577.075 523.578 579.02 525.037 580.966 527.28 581.938 530.306 581.938 532.332 581.938 534.102 581.634 535.615 581.026 537.128 580.419 538.546 579.392 539.87 577.946 541.194 576.501 542.504 574.481 543.801 571.888L547.692 571.888 545.22 583.397C540.167 584.802 534.872 585.505 529.333 585.505 524.254 585.505 520.39 584.046 517.742 581.128 515.094 578.21 513.771 573.941 513.771 568.321 513.771 564.349 514.48 559.77 515.898 554.582 517.317 549.395 519.323 544.842 521.917 540.925 524.51 537.007 527.577 534.022 531.116 531.968 534.656 529.915 538.546 528.888 542.788 528.888Z" fill-rule="evenodd"/><text fill="#000000" fill-opacity="0" font-family="Arial,Arial_MSFontService,sans-serif" font-size="56.6167" x="513.771" y="578.428">­ЮљХ­Юљи</text><path d="M604.86 503.21 615.032 512.004 615.032 514.355 604.86 523.149 602.712 520.717 609.196 515.084 592.657 515.084 584.474 515.084 577.67 515.084 568.341 515.084 562.66 515.084 553.354 515.084 547.649 515.084 538.343 515.084 532.639 515.084 523.333 515.084 508.322 515.084 508.322 511.275 523.333 511.275 532.639 511.275 538.343 511.275 547.649 511.275 553.354 511.275 562.66 511.275 568.341 511.275 577.67 511.275 584.474 511.275 592.657 511.275 609.196 511.275 602.712 505.641Z" fill-rule="evenodd"/><path d="M646.223 566.862 696.153 566.862 696.153 572.252 646.223 572.252ZM646.223 550.043 696.153 550.043 696.153 555.433 646.223 555.433Z" fill-rule="evenodd"/><text fill="#000000" fill-opacity="0" font-family="Arial,Arial_MSFontService,sans-serif" font-size="22.209" x="646.223" y="569.476">=</text><path d="M753.386 533.062C752.197 533.062 750.914 533.103 749.536 533.184L739.039 581.128C739.823 581.209 741.323 581.249 743.538 581.249 747.915 581.249 751.63 580.486 754.683 578.96 757.736 577.433 760.37 575.042 762.586 571.786 764.801 568.531 766.436 565.099 767.49 561.492 768.543 557.885 769.07 554.083 769.07 550.084 769.07 544.437 767.753 540.188 765.119 537.338 762.485 534.488 758.574 533.062 753.386 533.062ZM737.905 529.536 753.265 529.536C757.344 529.536 760.654 529.847 763.194 530.469 765.734 531.09 768.104 532.211 770.306 533.832 772.508 535.453 774.163 537.608 775.271 540.297 776.379 542.985 776.933 546.166 776.933 549.841 776.933 553.488 776.514 556.974 775.676 560.297 774.839 563.62 773.636 566.68 772.069 569.476 770.502 572.273 768.624 574.704 766.436 576.771 764.247 578.838 762.127 580.425 760.073 581.533 758.02 582.641 755.723 583.472 753.184 584.026 750.644 584.579 747.685 584.856 744.308 584.856L727.287 584.856 727.732 582.87C728.759 582.708 729.529 582.445 730.042 582.08 730.556 581.715 730.988 581.209 731.339 580.56 731.691 579.912 732.015 579.122 732.312 578.19 732.609 577.257 733.055 575.454 733.649 572.779L740.539 541.573C741.133 538.871 741.431 536.696 741.431 535.048 741.431 533.778 741.113 532.893 740.478 532.394 739.843 531.894 738.837 531.603 737.459 531.522Z" fill-rule="evenodd"/><text fill="#000000" fill-opacity="0" font-family="Arial,Arial_MSFontService,sans-serif" font-size="55.3198" x="727.287" y="577.941">­Юљи</text><path d="M809.046 558.432 858.976 558.432 858.976 563.823 809.046 563.823Z" fill-rule="evenodd"/><text fill="#000000" fill-opacity="0" font-family="Arial,Arial_MSFontService,sans-serif" font-size="5.39014" x="809.046" y="563.149">Рѕњ</text><path d="M917.705 528.888C920.164 528.888 922.44 529.037 924.534 529.334 926.628 529.631 928.958 530.171 931.525 530.955L929.093 541.938 925.202 541.938C924.986 538.615 924.263 536.217 923.034 534.744 921.805 533.272 919.826 532.536 917.097 532.536 913.368 532.536 909.903 534.4 906.702 538.128 903.5 541.857 900.967 546.781 899.103 552.901 897.239 559.02 896.306 564.701 896.306 569.942 896.306 574.049 897.036 577.075 898.495 579.02 899.954 580.966 902.196 581.938 905.222 581.938 907.249 581.938 909.018 581.634 910.531 581.026 912.044 580.419 913.463 579.392 914.787 577.946 916.111 576.501 917.421 574.481 918.718 571.888L922.609 571.888 920.136 583.397C915.084 584.802 909.789 585.505 904.25 585.505 899.17 585.505 895.307 584.046 892.659 581.128 890.011 578.21 888.687 573.941 888.687 568.321 888.687 564.349 889.396 559.77 890.815 554.582 892.233 549.395 894.24 544.842 896.833 540.925 899.427 537.007 902.494 534.022 906.033 531.968 909.572 529.915 913.463 528.888 917.705 528.888Z" fill-rule="evenodd"/><text fill="#000000" fill-opacity="0" font-family="Arial,Arial_MSFontService,sans-serif" font-size="56.6167" x="888.687" y="578.428">­ЮљХ</text><path d="M1.53248-4.92325 636.917 192.856 633.852 202.702-1.53248 4.92325ZM638.123 171.63 660 205.441 622.798 220.863Z" transform="matrix(1 0 0 -1 2289 995.441)"/><path d="M5.08-0.883475 49.1918 252.76 39.0319 254.527-5.08 0.883475ZM68.6283 244.146 48.5292 279.044 17.8284 252.981Z" transform="matrix(1 0 0 -1 2289 996.044)"/><path d="M2343.7 638.527C2345.43 638.527 2346.79 639.108 2347.79 640.27 2348.79 641.432 2349.29 642.999 2349.29 644.971 2349.29 647.106 2348.87 649.767 2348.03 652.955L2346.25 659.966C2345.79 661.749 2345.46 663.141 2345.26 664.141 2345.06 665.14 2344.91 666.005 2344.81 666.734 2344.72 667.464 2344.67 668.072 2344.67 668.558 2344.67 670.422 2344.98 671.766 2345.6 672.59 2346.22 673.414 2347.24 673.827 2348.64 673.827 2349.78 673.827 2351 673.374 2352.31 672.469 2353.62 671.564 2355.01 670.199 2356.48 668.376 2357.96 666.552 2359.14 664.782 2360.03 663.067 2360.92 661.351 2361.65 659.237 2362.22 656.724L2366.07 639.176 2373.08 639.176 2367.16 664.87C2366.57 667.464 2366.27 669.463 2366.27 670.868 2366.27 671.949 2366.45 672.732 2366.8 673.219 2367.15 673.705 2367.7 673.948 2368.46 673.948 2369.27 673.948 2370.14 673.617 2371.05 672.955 2371.97 672.293 2373.27 671.03 2374.94 669.166L2377.25 671.435C2374.8 674.056 2372.7 675.907 2370.97 676.988 2369.24 678.068 2367.41 678.609 2365.46 678.609 2363.79 678.609 2362.45 678.055 2361.45 676.947 2360.45 675.839 2359.95 674.367 2359.95 672.53 2359.95 671.071 2360.27 669.477 2360.92 667.747L2360.44 667.585C2357.76 671.341 2355.23 674.11 2352.84 675.893 2350.45 677.677 2347.99 678.568 2345.48 678.568 2342.97 678.568 2341.04 677.846 2339.69 676.4 2338.34 674.955 2337.66 672.948 2337.66 670.382 2337.66 668.68 2338.05 666.261 2338.83 663.127L2341.47 652.509C2342.2 649.564 2342.56 647.484 2342.56 646.268 2342.56 645.187 2342.39 644.404 2342.04 643.917 2341.69 643.431 2341.13 643.188 2340.38 643.188 2339.54 643.188 2338.65 643.532 2337.72 644.221 2336.79 644.91 2335.51 646.16 2333.89 647.97L2331.58 645.701C2333.88 643.377 2335.61 641.783 2336.77 640.918 2337.93 640.054 2339.04 639.439 2340.11 639.074 2341.18 638.71 2342.37 638.527 2343.7 638.527Z" fill-rule="evenodd"/><text fill="#000000" fill-opacity="0" font-family="Arial,Arial_MSFontService,sans-serif" font-size="40.0815" x="2331.58" y="673.599">­ЮЉб</text><path d="M2368.16 612.63 2378.33 621.425 2378.33 624.505 2358.96 624.505 2347.77 624.505 2334.64 624.505 2334.64 620.695 2347.77 620.695 2358.96 620.695 2372.49 620.695 2366.01 615.062Z" fill-rule="evenodd"/><path d="M2409.2 659.966 2459.13 659.966 2459.13 665.356 2409.2 665.356ZM2409.2 643.147 2459.13 643.147 2459.13 648.537 2409.2 648.537Z" fill-rule="evenodd"/><text fill="#000000" fill-opacity="0" font-family="Arial,Arial_MSFontService,sans-serif" font-size="22.209" x="2409.2" y="662.58">=</text><path d="M2519.77 619.398 2520.86 622.519C2514.54 624.599 2509.86 628.659 2506.82 634.697 2503.78 640.736 2502.26 648.321 2502.26 657.453 2502.26 666.91 2503.78 674.705 2506.82 680.838 2509.86 686.971 2514.5 691.078 2520.74 693.158L2519.77 696.279C2511.85 694.198 2505.79 689.72 2501.57 682.844 2497.36 675.968 2495.25 667.639 2495.25 657.859 2495.25 648.105 2497.36 639.777 2501.59 632.874 2505.82 625.971 2511.88 621.479 2519.77 619.398Z" fill-rule="evenodd"/><text fill="#000000" fill-opacity="0" font-family="Arial,Arial_MSFontService,sans-serif" font-size="76.8804" x="2495.25" y="686.669">(</text><path d="M2538.34 638.527C2539.17 638.527 2539.91 638.622 2540.55 638.811 2541.18 639 2541.74 639.29 2542.23 639.682 2542.71 640.074 2543.15 640.581 2543.52 641.202 2543.9 641.823 2544.27 642.668 2544.62 643.735 2544.97 644.802 2545.3 646.126 2545.61 647.707 2545.92 649.287 2546.2 650.929 2546.44 652.631L2546.85 652.631C2549.44 648.983 2551.41 646.315 2552.74 644.627 2554.08 642.938 2555.21 641.682 2556.13 640.858 2557.05 640.034 2557.93 639.453 2558.78 639.115 2559.63 638.777 2560.76 638.608 2562.17 638.608 2563.44 638.608 2564.48 638.77 2565.29 639.095L2563.67 646.43 2560.83 646.43C2560.67 645.295 2560.19 644.728 2559.41 644.728 2559.17 644.728 2558.91 644.768 2558.64 644.849 2558.37 644.931 2558.04 645.106 2557.65 645.376 2557.26 645.647 2556.68 646.173 2555.93 646.957 2555.17 647.74 2554.32 648.7 2553.37 649.834 2552.43 650.969 2551.45 652.158 2550.45 653.401L2547.7 656.846C2548.19 659.439 2548.64 661.682 2549.08 663.573 2549.51 665.464 2549.89 667.038 2550.23 668.295 2550.57 669.551 2550.87 670.544 2551.12 671.273 2551.38 672.003 2551.66 672.55 2551.95 672.915 2552.25 673.279 2552.56 673.536 2552.87 673.685 2553.18 673.833 2553.53 673.908 2553.94 673.908 2554.67 673.908 2555.38 673.624 2556.07 673.057 2556.76 672.489 2557.75 671.206 2559.05 669.206L2561.68 670.949C2559.79 673.759 2558.08 675.738 2556.55 676.886 2555.03 678.035 2553.21 678.609 2551.1 678.609 2549.94 678.609 2548.96 678.399 2548.14 677.981 2547.33 677.562 2546.63 676.893 2546.04 675.974 2545.44 675.056 2544.92 673.624 2544.46 671.679 2543.62 668.22 2543.11 665.572 2542.92 663.735L2542.51 663.735C2539.65 667.761 2537.52 670.652 2536.13 672.408 2534.74 674.164 2533.59 675.461 2532.68 676.299 2531.78 677.136 2530.9 677.724 2530.05 678.062 2529.2 678.399 2528.07 678.568 2526.67 678.568 2525.4 678.568 2524.35 678.406 2523.54 678.082L2525.17 670.746 2528 670.746C2528.16 671.881 2528.64 672.449 2529.42 672.449 2529.8 672.449 2530.2 672.347 2530.62 672.145 2531.04 671.942 2531.64 671.456 2532.42 670.686 2533.2 669.916 2534.28 668.707 2535.66 667.058 2537.04 665.41 2539.04 662.938 2541.66 659.642 2541.25 657.508 2540.84 655.454 2540.4 653.482 2539.97 651.509 2539.53 649.672 2539.07 647.97 2538.61 646.268 2538.23 645.153 2537.93 644.627 2537.63 644.1 2537.32 643.735 2536.98 643.532 2536.64 643.33 2536.22 643.228 2535.7 643.228 2535.14 643.228 2534.62 643.357 2534.16 643.613 2533.7 643.87 2533.2 644.316 2532.66 644.951 2532.12 645.586 2531.41 646.579 2530.52 647.93L2527.88 646.187C2529.58 643.62 2531.22 641.702 2532.78 640.432 2534.35 639.162 2536.2 638.527 2538.34 638.527Z" fill-rule="evenodd"/><text fill="#000000" fill-opacity="0" font-family="Arial,Arial_MSFontService,sans-serif" font-size="40.0815" x="2523.54" y="673.599">­ЮЉЦ</text><path d="M2583.84 656.441 2585.66 656.441C2585.62 657.533 2585.59 658.511 2585.57 659.375 2585.55 660.238 2585.54 661.077 2585.53 661.891 2585.52 662.706 2585.51 663.51 2585.51 664.304L2585.51 686.941C2585.51 687.556 2585.53 688.088 2585.57 688.534 2585.61 688.981 2585.68 689.358 2585.77 689.666 2585.85 689.974 2585.97 690.237 2586.12 690.455 2586.27 690.674 2586.45 690.862 2586.64 691.021 2586.88 691.26 2587.2 691.443 2587.6 691.572 2587.99 691.701 2588.5 691.811 2589.12 691.9 2589.73 691.989 2590.47 692.059 2591.34 692.109 2592.2 692.158 2593.24 692.193 2594.45 692.213L2594.45 694.804 2570.83 694.804 2570.83 692.213C2572 692.173 2572.99 692.128 2573.81 692.079 2574.62 692.029 2575.32 691.96 2575.89 691.87 2576.47 691.781 2576.93 691.682 2577.28 691.572 2577.62 691.463 2577.93 691.329 2578.19 691.17 2578.46 690.992 2578.7 690.798 2578.9 690.589 2579.1 690.381 2579.26 690.118 2579.38 689.8 2579.5 689.482 2579.59 689.095 2579.66 688.639 2579.73 688.182 2579.76 687.616 2579.76 686.941L2579.76 665.585C2579.76 664.81 2579.61 664.264 2579.32 663.947 2579.02 663.629 2578.59 663.47 2578.04 663.47 2577.42 663.47 2576.51 663.788 2575.3 664.423 2574.08 665.059 2572.52 666.002 2570.59 667.253 2570.33 666.796 2570.09 666.339 2569.88 665.883 2569.66 665.426 2569.43 664.959 2569.19 664.483 2571.65 663.133 2574.09 661.787 2576.5 660.447 2578.91 659.107 2581.36 657.771 2583.84 656.441Z" fill-rule="evenodd"/><text fill="#000000" fill-opacity="0" font-family="Arial,Arial_MSFontService,sans-serif" font-size="38.3633" x="2569.19" y="690.009">1</text><path d="M2607.53 668.558 2614.62 668.558C2615 670.449 2615.19 672.314 2615.19 674.151 2615.19 676.042 2614.87 677.771 2614.22 679.338 2613.57 680.905 2612.54 682.466 2611.12 684.019 2609.7 685.573 2607.75 687.282 2605.26 689.146L2603.07 686.674C2604.45 685.377 2605.45 684.208 2606.07 683.168 2606.69 682.128 2607.14 680.946 2607.41 679.622 2607.68 678.298 2607.82 676.636 2607.82 674.637 2607.82 672.584 2607.72 670.557 2607.53 668.558Z" fill-rule="evenodd"/><text fill="#000000" fill-opacity="0" font-family="Arial,Arial_MSFontService,sans-serif" font-size="20.5879" x="2603.07" y="686.572">,</text><path d="M2646.41 638.568C2647.52 638.568 2648.47 638.716 2649.25 639.014 2649.79 639.23 2650.33 639.588 2650.87 640.088 2651.41 640.587 2651.89 641.283 2652.31 642.175 2652.73 643.066 2653.09 644.066 2653.4 645.174 2653.71 646.281 2654.06 647.876 2654.44 649.956 2655.09 653.441 2655.71 657.109 2656.32 660.959 2656.93 664.809 2657.45 668.382 2657.88 671.679 2660.5 667.896 2662.73 664.195 2664.55 660.574 2666.37 656.954 2667.68 653.806 2668.48 651.131 2669.28 648.456 2669.68 646.281 2669.68 644.606 2669.68 643.336 2669.41 642.472 2668.87 642.013 2668.32 641.553 2667.41 641.283 2666.11 641.202L2666.51 639.216 2677.17 639.216 2678.27 641.243C2676.21 646.862 2673.43 652.874 2669.92 659.277 2666.46 665.545 2662.5 671.787 2658.04 678.001 2653.78 683.918 2650.22 688.2 2647.39 690.848 2645.41 692.658 2643.51 693.955 2641.67 694.739 2640.21 695.333 2638.66 695.63 2637.01 695.63 2636.44 695.63 2635.79 695.583 2635.05 695.488 2634.3 695.394 2633.73 695.266 2633.32 695.103L2635.07 687.241 2638.27 687.241C2638.27 688.97 2638.86 689.835 2640.05 689.835 2641.62 689.835 2643.44 688.855 2645.52 686.897 2647.6 684.938 2650.05 681.986 2652.86 678.041 2652.07 673.313 2651.01 667.612 2649.66 660.939 2648.22 653.806 2647.28 649.389 2646.82 647.686 2646.25 645.633 2645.66 644.323 2645.04 643.755 2644.66 643.404 2644.18 643.228 2643.62 643.228 2642.75 643.228 2641.94 643.58 2641.19 644.282 2640.43 644.985 2639.5 646.2 2638.39 647.93L2635.75 646.187C2637.62 643.404 2639.36 641.438 2640.98 640.29 2642.6 639.142 2644.41 638.568 2646.41 638.568Z" fill-rule="evenodd"/><text fill="#000000" fill-opacity="0" font-family="Arial,Arial_MSFontService,sans-serif" font-size="57.0625" x="2633.32" y="688.497">­ЮЉд</text><path d="M2695.15 656.441 2696.97 656.441C2696.93 657.533 2696.9 658.511 2696.88 659.375 2696.86 660.238 2696.84 661.077 2696.83 661.891 2696.82 662.706 2696.82 663.51 2696.82 664.304L2696.82 686.941C2696.82 687.556 2696.84 688.088 2696.88 688.534 2696.92 688.981 2696.98 689.358 2697.07 689.666 2697.16 689.974 2697.28 690.237 2697.43 690.455 2697.58 690.674 2697.75 690.862 2697.95 691.021 2698.19 691.26 2698.51 691.443 2698.9 691.572 2699.3 691.701 2699.81 691.811 2700.42 691.9 2701.04 691.989 2701.78 692.059 2702.64 692.109 2703.51 692.158 2704.54 692.193 2705.75 692.213L2705.75 694.804 2682.13 694.804 2682.13 692.213C2683.31 692.173 2684.3 692.128 2685.11 692.079 2685.93 692.029 2686.62 691.96 2687.2 691.87 2687.77 691.781 2688.24 691.682 2688.58 691.572 2688.93 691.463 2689.23 691.329 2689.49 691.17 2689.77 690.992 2690.01 690.798 2690.21 690.589 2690.4 690.381 2690.56 690.118 2690.68 689.8 2690.8 689.482 2690.9 689.095 2690.97 688.639 2691.04 688.182 2691.07 687.616 2691.07 686.941L2691.07 665.585C2691.07 664.81 2690.92 664.264 2690.62 663.947 2690.33 663.629 2689.9 663.47 2689.34 663.47 2688.73 663.47 2687.81 663.788 2686.6 664.423 2685.39 665.059 2683.82 666.002 2681.9 667.253 2681.64 666.796 2681.4 666.339 2681.18 665.883 2680.96 665.426 2680.73 664.959 2680.5 664.483 2682.96 663.133 2685.4 661.787 2687.81 660.447 2690.22 659.107 2692.67 657.771 2695.15 656.441Z" fill-rule="evenodd"/><text fill="#000000" fill-opacity="0" font-family="Arial,Arial_MSFontService,sans-serif" font-size="38.3633" x="2680.5" y="690.009">1</text><path d="M2716.04 619.398C2723.93 621.479 2729.99 625.971 2734.22 632.874 2738.45 639.777 2740.56 648.105 2740.56 657.859 2740.56 667.639 2738.45 675.968 2734.24 682.844 2730.02 689.72 2723.96 694.198 2716.04 696.279L2715.07 693.158C2721.31 691.078 2725.95 686.971 2728.99 680.838 2732.03 674.705 2733.55 666.91 2733.55 657.453 2733.55 648.321 2732.04 640.736 2729.01 634.697 2725.98 628.659 2721.3 624.599 2714.95 622.519Z" fill-rule="evenodd"/><text fill="#000000" fill-opacity="0" font-family="Arial,Arial_MSFontService,sans-serif" font-size="76.8804" x="2714.95" y="686.669">)</text><path d="M3010.87 765.255C3012.81 765.255 3014.22 765.761 3015.08 766.775 3015.95 767.788 3016.38 769.146 3016.38 770.848 3016.38 772.145 3016.15 773.631 3015.69 775.306 3015.23 776.981 3014.58 778.75 3013.74 780.615 3012.91 782.479 3011.91 784.391 3010.75 786.349 3009.58 788.308 3008.3 790.213 3006.9 792.064 3005.49 793.914 3003.99 795.657 3002.4 797.292 3000.8 798.926 2999.15 800.352 2997.43 801.567 2995.72 802.783 2993.97 803.749 2992.2 804.465 2990.43 805.181 2988.67 805.539 2986.92 805.539 2986.13 805.539 2985.48 805.343 2984.95 804.951 2984.42 804.56 2984 804.006 2983.67 803.29 2983.35 802.574 2983.12 801.729 2982.98 800.757 2982.85 799.784 2982.78 798.717 2982.78 797.555 2982.78 796.015 2982.88 794.367 2983.07 792.611 2983.25 790.855 2983.5 789.085 2983.79 787.302L2985.5 776.076C2985.61 775.427 2985.69 774.813 2985.76 774.232 2985.83 773.651 2985.86 773.225 2985.86 772.955 2985.86 772.117 2985.73 771.429 2985.46 770.888 2985.19 770.348 2984.73 770.078 2984.08 770.078 2983.57 770.078 2983.01 770.233 2982.42 770.544 2981.82 770.854 2981.22 771.253 2980.61 771.739 2980.01 772.226 2979.42 772.746 2978.85 773.3 2978.28 773.853 2977.76 774.374 2977.27 774.86L2975.32 772.59C2976.16 771.726 2977.05 770.868 2978 770.017 2978.95 769.166 2979.94 768.396 2981 767.707 2982.05 767.018 2983.16 766.464 2984.32 766.045 2985.48 765.626 2986.67 765.417 2987.89 765.417 2988.91 765.417 2989.75 765.586 2990.4 765.924 2991.05 766.261 2991.56 766.707 2991.92 767.261 2992.29 767.815 2992.54 768.423 2992.67 769.085 2992.81 769.747 2992.87 770.402 2992.87 771.05 2992.87 771.429 2992.86 771.793 2992.83 772.145 2992.81 772.496 2992.76 772.82 2992.71 773.117L2990.44 787.788C2990.2 789.328 2990 790.834 2989.83 792.307 2989.67 793.779 2989.59 795.083 2989.59 796.218 2989.59 797.353 2989.66 798.271 2989.79 798.974 2989.93 799.676 2990.18 800.027 2990.56 800.027 2991.45 800.027 2992.58 799.669 2993.93 798.953 2995.28 798.237 2996.7 797.251 2998.18 795.995 2999.67 794.739 3001.15 793.253 3002.64 791.537 3004.13 789.821 3005.46 787.964 3006.65 785.964 3007.84 783.965 3008.81 781.858 3009.55 779.642 3010.29 777.427 3010.66 775.198 3010.66 772.955 3010.66 771.982 3010.46 771.233 3010.04 770.706 3009.62 770.179 3008.96 769.916 3008.07 769.916 3006.94 769.916 3005.89 770.355 3004.93 771.233 3003.97 772.111 3002.98 773.266 3001.95 774.698L2999.64 772.631C3000.29 771.658 3001.05 770.726 3001.93 769.834 3002.81 768.943 3003.74 768.159 3004.73 767.484 3005.71 766.808 3006.73 766.268 3007.79 765.863 3008.84 765.458 3009.87 765.255 3010.87 765.255Z" fill-rule="evenodd"/><text fill="#000000" fill-opacity="0" font-family="Arial,Arial_MSFontService,sans-serif" font-size="40.2842" x="2975.32" y="800.504">­ЮЉБ</text><path d="M3006.88 739.497 3017.05 748.292 3017.05 751.372 2986.49 751.372 2986.49 747.562 3011.21 747.562 3004.73 741.929Z" fill-rule="evenodd"/><text fill="#000000" fill-opacity="0" font-family="Arial,Arial_MSFontService,sans-serif" font-size="11.8745" x="2986.49" y="749.887">Я┤▒</text><path d="M3048.54 786.856 3098.47 786.856 3098.47 792.246 3048.54 792.246ZM3048.54 770.037 3098.47 770.037 3098.47 775.427 3048.54 775.427Z" fill-rule="evenodd"/><text fill="#000000" fill-opacity="0" font-family="Arial,Arial_MSFontService,sans-serif" font-size="22.209" x="3048.54" y="789.47">=</text><path d="M3159.1 746.288 3160.2 749.409C3153.88 751.489 3149.19 755.549 3146.16 761.587 3143.12 767.626 3141.6 775.211 3141.6 784.343 3141.6 793.8 3143.12 801.594 3146.16 807.728 3149.19 813.861 3153.84 817.967 3160.08 820.048L3159.1 823.168C3151.19 821.088 3145.12 816.61 3140.91 809.734 3136.69 802.857 3134.58 794.529 3134.58 784.749 3134.58 774.995 3136.7 766.667 3140.93 759.763 3145.16 752.86 3151.21 748.368 3159.1 746.288Z" fill-rule="evenodd"/><text fill="#000000" fill-opacity="0" font-family="Arial,Arial_MSFontService,sans-serif" font-size="76.8804" x="3134.58" y="813.558">(</text><path d="M3177.67 765.417C3178.51 765.417 3179.25 765.512 3179.88 765.701 3180.52 765.89 3181.08 766.18 3181.56 766.572 3182.05 766.964 3182.48 767.47 3182.86 768.092 3183.24 768.713 3183.6 769.558 3183.95 770.625 3184.31 771.692 3184.64 773.016 3184.95 774.596 3185.26 776.177 3185.54 777.818 3185.78 779.521L3186.18 779.521C3188.78 775.873 3190.74 773.205 3192.08 771.516 3193.42 769.828 3194.55 768.571 3195.46 767.747 3196.38 766.923 3197.27 766.342 3198.12 766.005 3198.97 765.667 3200.1 765.498 3201.5 765.498 3202.77 765.498 3203.81 765.66 3204.62 765.984L3203 773.32 3200.17 773.32C3200 772.185 3199.53 771.618 3198.75 771.618 3198.5 771.618 3198.25 771.658 3197.98 771.739 3197.71 771.82 3197.38 771.996 3196.98 772.266 3196.59 772.536 3196.02 773.063 3195.26 773.847 3194.51 774.63 3193.65 775.589 3192.71 776.724 3191.76 777.859 3190.79 779.048 3189.79 780.291L3187.03 783.735C3187.52 786.329 3187.98 788.572 3188.41 790.463 3188.85 792.354 3189.23 793.928 3189.57 795.184 3189.91 796.441 3190.2 797.434 3190.46 798.163 3190.72 798.893 3190.99 799.44 3191.29 799.804 3191.59 800.169 3191.89 800.426 3192.2 800.574 3192.51 800.723 3192.87 800.797 3193.28 800.797 3194.01 800.797 3194.71 800.514 3195.4 799.946 3196.09 799.379 3197.09 798.096 3198.38 796.096L3201.02 797.839C3199.13 800.649 3197.42 802.628 3195.89 803.776 3194.36 804.924 3192.55 805.499 3190.44 805.499 3189.28 805.499 3188.29 805.289 3187.48 804.87 3186.67 804.452 3185.97 803.783 3185.37 802.864 3184.78 801.946 3184.25 800.514 3183.79 798.568 3182.96 795.11 3182.44 792.462 3182.25 790.625L3181.85 790.625C3178.98 794.651 3176.86 797.542 3175.46 799.298 3174.07 801.054 3172.92 802.351 3172.02 803.188 3171.11 804.026 3170.24 804.614 3169.39 804.951 3168.53 805.289 3167.41 805.458 3166 805.458 3164.73 805.458 3163.69 805.296 3162.88 804.972L3164.5 797.636 3167.34 797.636C3167.5 798.771 3167.97 799.338 3168.76 799.338 3169.14 799.338 3169.53 799.237 3169.95 799.034 3170.37 798.832 3170.97 798.345 3171.76 797.575 3172.54 796.805 3173.62 795.596 3175 793.948 3176.38 792.3 3178.38 789.828 3181 786.532 3180.59 784.397 3180.17 782.344 3179.74 780.372 3179.31 778.399 3178.86 776.562 3178.4 774.86 3177.94 773.158 3177.56 772.043 3177.27 771.516 3176.97 770.99 3176.65 770.625 3176.32 770.422 3175.98 770.219 3175.55 770.118 3175.04 770.118 3174.47 770.118 3173.96 770.247 3173.5 770.503 3173.04 770.76 3172.54 771.206 3172 771.841 3171.46 772.476 3170.74 773.468 3169.85 774.819L3167.22 773.077C3168.92 770.51 3170.55 768.592 3172.12 767.322 3173.69 766.052 3175.54 765.417 3177.67 765.417Z" fill-rule="evenodd"/><text fill="#000000" fill-opacity="0" font-family="Arial,Arial_MSFontService,sans-serif" font-size="40.0815" x="3162.88" y="800.488">­ЮЉЦ</text><path d="M3222.76 783.122C3224.82 783.122 3226.59 783.355 3228.05 783.822 3229.51 784.289 3230.69 784.919 3231.61 785.713 3232.52 786.508 3233.18 787.461 3233.59 788.573 3233.99 789.685 3234.2 790.886 3234.2 792.177 3234.2 792.951 3234.14 793.671 3234.03 794.336 3233.92 795.001 3233.73 795.657 3233.47 796.302 3233.2 796.947 3232.85 797.598 3232.41 798.253 3231.97 798.908 3231.43 799.603 3230.77 800.338 3230.27 800.973 3229.63 801.708 3228.84 802.542 3228.04 803.376 3227.17 804.27 3226.23 805.223 3225.29 806.176 3224.3 807.169 3223.27 808.201 3222.23 809.234 3221.23 810.256 3220.26 811.269 3219.28 812.282 3218.39 813.265 3217.58 814.218 3216.76 815.171 3216.1 816.045 3215.58 816.839L3226.6 816.839C3227.53 816.839 3228.28 816.804 3228.84 816.735 3229.39 816.665 3229.85 816.511 3230.22 816.273 3230.59 816.035 3230.9 815.672 3231.16 815.186 3231.42 814.699 3231.71 814.029 3232.05 813.175L3234.82 813.175C3234.72 814.585 3234.63 816.005 3234.54 817.435 3234.45 818.864 3234.36 820.284 3234.26 821.694L3209.03 821.694 3209.03 820.145C3209.5 819.073 3210.06 818.015 3210.7 816.973 3211.33 815.93 3212.05 814.873 3212.84 813.801 3213.63 812.729 3214.54 811.622 3215.55 810.48 3216.56 809.338 3217.69 808.152 3218.92 806.92 3220.78 805.054 3222.3 803.46 3223.47 802.14 3224.65 800.819 3225.57 799.643 3226.24 798.61 3226.92 797.578 3227.38 796.625 3227.63 795.751 3227.88 794.877 3228 793.944 3228 792.951 3228 791.938 3227.86 791.005 3227.57 790.151 3227.28 789.298 3226.87 788.573 3226.33 787.977 3225.8 787.381 3225.12 786.915 3224.29 786.577 3223.47 786.24 3222.52 786.071 3221.45 786.071 3219.6 786.071 3218.05 786.572 3216.8 787.575 3215.55 788.578 3214.58 790.032 3213.88 791.938L3209.98 791.938 3209.98 786.13C3212.52 785.078 3214.86 784.313 3217 783.837 3219.13 783.36 3221.05 783.122 3222.76 783.122Z" fill-rule="evenodd"/><text fill="#000000" fill-opacity="0" font-family="Arial,Arial_MSFontService,sans-serif" font-size="38.5718" x="3209.03" y="816.872">2</text><path d="M3248.77 795.448 3255.86 795.448C3256.24 797.339 3256.43 799.203 3256.43 801.041 3256.43 802.932 3256.11 804.661 3255.46 806.228 3254.81 807.795 3253.78 809.355 3252.36 810.909 3250.94 812.462 3248.99 814.171 3246.5 816.036L3244.31 813.563C3245.69 812.267 3246.69 811.098 3247.31 810.058 3247.93 809.018 3248.38 807.836 3248.65 806.512 3248.92 805.188 3249.05 803.526 3249.05 801.527 3249.05 799.473 3248.96 797.447 3248.77 795.448Z" fill-rule="evenodd"/><text fill="#000000" fill-opacity="0" font-family="Arial,Arial_MSFontService,sans-serif" font-size="20.5879" x="3244.31" y="813.462">,</text><path d="M3287.65 765.458C3288.76 765.458 3289.7 765.606 3290.49 765.903 3291.03 766.119 3291.57 766.477 3292.11 766.977 3292.65 767.477 3293.13 768.173 3293.55 769.064 3293.97 769.956 3294.33 770.956 3294.64 772.063 3294.95 773.171 3295.3 774.765 3295.68 776.846 3296.32 780.331 3296.95 783.999 3297.56 787.849 3298.17 791.699 3298.69 795.272 3299.12 798.568 3301.74 794.786 3303.96 791.084 3305.79 787.464 3307.61 783.843 3308.92 780.696 3309.72 778.021 3310.52 775.346 3310.91 773.171 3310.91 771.496 3310.91 770.226 3310.64 769.362 3310.1 768.902 3309.56 768.443 3308.64 768.173 3307.35 768.092L3307.75 766.106 3318.41 766.106 3319.51 768.132C3317.45 773.752 3314.67 779.764 3311.16 786.167 3307.7 792.435 3303.74 798.676 3299.28 804.891 3295.01 810.808 3291.46 815.09 3288.62 817.738 3286.65 819.548 3284.75 820.845 3282.91 821.628 3281.45 822.223 3279.9 822.52 3278.25 822.52 3277.68 822.52 3277.03 822.473 3276.28 822.378 3275.54 822.284 3274.97 822.155 3274.56 821.993L3276.3 814.131 3279.51 814.131C3279.51 815.86 3280.1 816.725 3281.29 816.725 3282.86 816.725 3284.68 815.745 3286.76 813.786 3288.84 811.828 3291.29 808.876 3294.1 804.931 3293.31 800.203 3292.24 794.502 3290.89 787.829 3289.46 780.696 3288.52 776.278 3288.06 774.576 3287.49 772.523 3286.89 771.212 3286.27 770.645 3285.9 770.294 3285.42 770.118 3284.85 770.118 3283.99 770.118 3283.18 770.469 3282.42 771.172 3281.67 771.874 3280.73 773.09 3279.63 774.819L3276.99 773.077C3278.86 770.294 3280.6 768.328 3282.22 767.18 3283.84 766.032 3285.65 765.458 3287.65 765.458Z" fill-rule="evenodd"/><text fill="#000000" fill-opacity="0" font-family="Arial,Arial_MSFontService,sans-serif" font-size="57.0625" x="3274.56" y="815.387">­ЮЉд</text><path d="M3335.97 783.122C3338.03 783.122 3339.79 783.355 3341.25 783.822 3342.71 784.289 3343.9 784.919 3344.81 785.713 3345.73 786.508 3346.39 787.461 3346.79 788.573 3347.2 789.685 3347.41 790.886 3347.41 792.177 3347.41 792.951 3347.35 793.671 3347.24 794.336 3347.13 795.001 3346.94 795.657 3346.68 796.302 3346.41 796.947 3346.05 797.598 3345.62 798.253 3345.18 798.908 3344.64 799.603 3343.98 800.338 3343.48 800.973 3342.84 801.708 3342.04 802.542 3341.25 803.376 3340.38 804.27 3339.44 805.223 3338.49 806.176 3337.51 807.169 3336.47 808.201 3335.44 809.234 3334.44 810.256 3333.47 811.269 3332.49 812.282 3331.6 813.265 3330.78 814.218 3329.97 815.171 3329.31 816.045 3328.79 816.839L3339.81 816.839C3340.74 816.839 3341.49 816.804 3342.04 816.735 3342.6 816.665 3343.06 816.511 3343.43 816.273 3343.8 816.035 3344.11 815.672 3344.37 815.186 3344.62 814.699 3344.92 814.029 3345.26 813.175L3348.03 813.175C3347.93 814.585 3347.84 816.005 3347.75 817.435 3347.66 818.864 3347.56 820.284 3347.46 821.694L3322.24 821.694 3322.24 820.145C3322.71 819.073 3323.27 818.015 3323.9 816.973 3324.54 815.93 3325.25 814.873 3326.05 813.801 3326.84 812.729 3327.75 811.622 3328.76 810.48 3329.77 809.338 3330.89 808.152 3332.13 806.92 3333.99 805.054 3335.51 803.46 3336.68 802.14 3337.85 800.819 3338.78 799.643 3339.45 798.61 3340.13 797.578 3340.59 796.625 3340.84 795.751 3341.09 794.877 3341.21 793.944 3341.21 792.951 3341.21 791.938 3341.07 791.005 3340.78 790.151 3340.49 789.298 3340.08 788.573 3339.54 787.977 3339.01 787.381 3338.33 786.915 3337.5 786.577 3336.68 786.24 3335.73 786.071 3334.66 786.071 3332.81 786.071 3331.26 786.572 3330.01 787.575 3328.76 788.578 3327.79 790.032 3327.09 791.938L3323.19 791.938 3323.19 786.13C3325.73 785.078 3328.07 784.313 3330.2 783.837 3332.34 783.36 3334.26 783.122 3335.97 783.122Z" fill-rule="evenodd"/><text fill="#000000" fill-opacity="0" font-family="Arial,Arial_MSFontService,sans-serif" font-size="38.5718" x="3322.24" y="816.872">2</text><path d="M3359.18 746.288C3367.07 748.368 3373.13 752.86 3377.36 759.763 3381.59 766.667 3383.7 774.995 3383.7 784.749 3383.7 794.529 3381.59 802.857 3377.38 809.734 3373.16 816.61 3367.1 821.088 3359.18 823.168L3358.21 820.048C3364.45 817.967 3369.09 813.861 3372.13 807.728 3375.17 801.594 3376.69 793.8 3376.69 784.343 3376.69 775.211 3375.18 767.626 3372.15 761.587 3369.13 755.549 3364.44 751.489 3358.09 749.409Z" fill-rule="evenodd"/><text fill="#000000" fill-opacity="0" font-family="Arial,Arial_MSFontService,sans-serif" font-size="76.8804" x="3358.09" y="813.558">)</text><path d="M2355.99 906.617C2354.72 912.48 2354.09 917.411 2354.09 921.409 2354.09 924.435 2354.55 926.658 2355.47 928.076 2356.39 929.495 2357.87 930.204 2359.92 930.204 2362.95 930.204 2365.82 928.171 2368.54 924.104 2371.25 920.038 2373.55 914.209 2375.45 906.617ZM2372.61 879.301C2369.45 879.301 2366.52 881.301 2363.84 885.299 2361.15 889.298 2358.86 895.026 2356.97 902.483L2376.38 902.483C2377.65 896.782 2378.28 891.878 2378.28 887.772 2378.28 884.935 2377.82 882.814 2376.91 881.409 2375.99 880.004 2374.55 879.301 2372.61 879.301ZM2373.1 876.019C2380.93 876.019 2384.85 880.99 2384.85 890.933 2384.85 893.743 2384.53 897.1 2383.9 901.004 2383.26 904.908 2382.25 908.886 2380.88 912.939 2379.5 916.992 2377.76 920.578 2375.65 923.699 2373.54 926.82 2371.11 929.231 2368.35 930.933 2365.6 932.635 2362.63 933.486 2359.44 933.486 2355.41 933.486 2352.41 932.257 2350.44 929.798 2348.47 927.34 2347.48 923.652 2347.48 918.734 2347.48 916.06 2347.78 912.763 2348.37 908.846 2348.97 904.928 2349.95 900.923 2351.31 896.829 2352.68 892.736 2354.43 889.102 2356.58 885.928 2358.73 882.753 2361.2 880.308 2364 878.592 2366.79 876.877 2369.83 876.019 2373.1 876.019Z" fill-rule="evenodd"/><text fill="#000000" fill-opacity="0" font-family="Arial,Arial_MSFontService,sans-serif" font-size="57.4678" x="2347.48" y="926.303">­ЮюЃ</text><path d="M2307.56 941.856 2317.62 942.422 2327.06 943.942 2335.58 946.421 2343.15 949.786 2350.57 956.982 2348.97 958.627 2341.7 951.572 2342.03 951.797 2334.72 948.547 2334.87 948.6 2326.49 946.163 2326.63 946.194 2317.32 944.694 2317.44 944.706 2307.44 944.144ZM2355.16 949.086 2357 969.5 2339.56 958.726Z"/><rect x="2096.5" y="454.5" width="1461" height="669" stroke="#000000" stroke-width="4.58333" stroke-miterlimit="8" fill="none"/></g></svg>