<svg width="1547" height="1336" xmlns="http://www.w3.org/2000/svg" xmlns:xlink="http://www.w3.org/1999/xlink" overflow="hidden"><defs><clipPath id="clip0"><rect x="319" y="632" width="1547" height="1336"/></clipPath></defs><g clip-path="url(#clip0)" transform="translate(-319 -632)"><path d="M1186.94 687.416 1186.94 1963.71 1180.06 1963.71 1180.06 687.416ZM1160.58 692 1183.5 664.5 1206.42 692Z"/><path d="M1810.8 1317.94 534.5 1317.94 534.5 1311.06 1810.8 1311.06ZM1806.21 1291.58 1833.71 1314.5 1806.21 1337.42Z"/><path d="M1.53248-4.92325 636.917 192.856 633.852 202.702-1.53248 4.92325ZM638.123 171.63 660 205.441 622.798 220.863Z" transform="matrix(1 0 0 -1 692 1730.44)"/><path d="M1036.72 1700.86C1038.67 1700.86 1040.07 1701.37 1040.93 1702.38 1041.8 1703.4 1042.23 1704.75 1042.23 1706.46 1042.23 1707.75 1042 1709.24 1041.54 1710.91 1041.08 1712.59 1040.43 1714.36 1039.6 1716.22 1038.76 1718.09 1037.76 1720 1036.6 1721.96 1035.44 1723.92 1034.15 1725.82 1032.75 1727.67 1031.34 1729.52 1029.84 1731.27 1028.25 1732.9 1026.66 1734.54 1025 1735.96 1023.28 1737.18 1021.57 1738.39 1019.83 1739.36 1018.06 1740.07 1016.29 1740.79 1014.52 1741.15 1012.77 1741.15 1011.98 1741.15 1011.33 1740.95 1010.8 1740.56 1010.28 1740.17 1009.85 1739.61 1009.53 1738.9 1009.2 1738.18 1008.97 1737.34 1008.84 1736.37 1008.7 1735.39 1008.63 1734.33 1008.63 1733.16 1008.63 1731.62 1008.73 1729.98 1008.92 1728.22 1009.11 1726.46 1009.35 1724.69 1009.65 1722.91L1011.35 1711.68C1011.46 1711.04 1011.55 1710.42 1011.61 1709.84 1011.68 1709.26 1011.71 1708.83 1011.71 1708.56 1011.71 1707.73 1011.58 1707.04 1011.31 1706.5 1011.04 1705.96 1010.58 1705.69 1009.93 1705.69 1009.42 1705.69 1008.86 1705.84 1008.27 1706.15 1007.68 1706.46 1007.07 1706.86 1006.47 1707.35 1005.86 1707.83 1005.27 1708.35 1004.7 1708.91 1004.14 1709.46 1003.61 1709.98 1003.12 1710.47L1001.18 1708.2C1002.01 1707.33 1002.91 1706.48 1003.85 1705.63 1004.8 1704.78 1005.8 1704.01 1006.85 1703.32 1007.9 1702.63 1009.01 1702.07 1010.17 1701.65 1011.34 1701.24 1012.52 1701.03 1013.74 1701.03 1014.77 1701.03 1015.6 1701.2 1016.25 1701.53 1016.9 1701.87 1017.41 1702.32 1017.77 1702.87 1018.14 1703.42 1018.39 1704.03 1018.52 1704.69 1018.66 1705.36 1018.73 1706.01 1018.73 1706.66 1018.73 1707.04 1018.71 1707.4 1018.69 1707.75 1018.66 1708.1 1018.62 1708.43 1018.56 1708.73L1016.29 1723.4C1016.05 1724.94 1015.85 1726.44 1015.69 1727.92 1015.52 1729.39 1015.44 1730.69 1015.44 1731.83 1015.44 1732.96 1015.51 1733.88 1015.65 1734.58 1015.78 1735.29 1016.04 1735.64 1016.42 1735.64 1017.31 1735.64 1018.43 1735.28 1019.78 1734.56 1021.13 1733.85 1022.55 1732.86 1024.03 1731.6 1025.52 1730.35 1027.01 1728.86 1028.49 1727.15 1029.98 1725.43 1031.32 1723.57 1032.5 1721.57 1033.69 1719.57 1034.66 1717.47 1035.4 1715.25 1036.15 1713.04 1036.52 1710.81 1036.52 1708.56 1036.52 1707.59 1036.31 1706.84 1035.89 1706.32 1035.47 1705.79 1034.81 1705.52 1033.92 1705.52 1032.79 1705.52 1031.74 1705.96 1030.78 1706.84 1029.82 1707.72 1028.83 1708.88 1027.8 1710.31L1025.49 1708.24C1026.14 1707.27 1026.91 1706.34 1027.78 1705.44 1028.66 1704.55 1029.59 1703.77 1030.58 1703.09 1031.57 1702.42 1032.59 1701.88 1033.64 1701.47 1034.69 1701.07 1035.72 1700.86 1036.72 1700.86Z" fill-rule="evenodd"/><text fill="#000000" fill-opacity="0" font-family="Arial,Arial_MSFontService,sans-serif" font-size="40.2842" x="1001.18" y="1736.11">­ЮЉБ</text><path d="M1032.73 1675.11 1042.9 1683.9 1042.9 1686.25 1032.73 1695.05 1030.58 1692.61 1037.06 1686.98 1012.34 1686.98 1012.34 1683.17 1037.06 1683.17 1030.58 1677.54Z" fill-rule="evenodd"/><text fill="#000000" fill-opacity="0" font-family="Arial,Arial_MSFontService,sans-serif" font-size="19.9395" x="1012.34" y="1692.55">нд</text><path d="M1334.14 941.687C1335.87 941.687 1337.24 942.268 1338.24 943.43 1339.23 944.592 1339.73 946.159 1339.73 948.131 1339.73 950.265 1339.32 952.927 1338.48 956.115L1336.7 963.126C1336.24 964.909 1335.91 966.301 1335.7 967.3 1335.5 968.3 1335.35 969.165 1335.26 969.894 1335.16 970.624 1335.11 971.232 1335.11 971.718 1335.11 973.582 1335.43 974.926 1336.05 975.75 1336.67 976.574 1337.68 976.986 1339.09 976.986 1340.22 976.986 1341.44 976.534 1342.75 975.629 1344.06 974.724 1345.46 973.359 1346.93 971.535 1348.4 969.712 1349.58 967.942 1350.47 966.226 1351.37 964.511 1352.1 962.397 1352.66 959.884L1356.51 942.336 1363.52 942.336 1357.61 968.03C1357.01 970.624 1356.72 972.623 1356.72 974.028 1356.72 975.109 1356.89 975.892 1357.24 976.378 1357.59 976.865 1358.15 977.108 1358.9 977.108 1359.71 977.108 1360.58 976.777 1361.5 976.115 1362.42 975.453 1363.71 974.19 1365.39 972.326L1367.7 974.595C1365.24 977.216 1363.15 979.067 1361.42 980.148 1359.69 981.228 1357.85 981.769 1355.91 981.769 1354.23 981.769 1352.89 981.215 1351.89 980.107 1350.89 978.999 1350.39 977.527 1350.39 975.69 1350.39 974.231 1350.72 972.636 1351.37 970.907L1350.88 970.745C1348.21 974.501 1345.67 977.27 1343.28 979.053 1340.89 980.836 1338.44 981.728 1335.93 981.728 1333.41 981.728 1331.48 981.005 1330.13 979.56 1328.78 978.114 1328.1 976.108 1328.1 973.542 1328.1 971.839 1328.5 969.421 1329.28 966.287L1331.91 955.669C1332.64 952.724 1333.01 950.644 1333.01 949.428 1333.01 948.347 1332.83 947.564 1332.48 947.077 1332.13 946.591 1331.58 946.348 1330.82 946.348 1329.98 946.348 1329.1 946.692 1328.16 947.381 1327.23 948.07 1325.96 949.32 1324.33 951.13L1322.02 948.86C1324.32 946.537 1326.05 944.943 1327.21 944.078 1328.37 943.214 1329.49 942.599 1330.56 942.234 1331.62 941.869 1332.82 941.687 1334.14 941.687Z" fill-rule="evenodd"/><text fill="#000000" fill-opacity="0" font-family="Arial,Arial_MSFontService,sans-serif" font-size="40.0815" x="1322.02" y="976.758">­ЮЉб</text><path d="M1358.6 915.79 1368.77 924.585 1368.77 926.935 1358.6 935.73 1356.45 933.298 1362.94 927.665 1349.4 927.665 1338.22 927.665 1325.09 927.665 1325.09 923.855 1338.22 923.855 1349.4 923.855 1362.94 923.855 1356.45 918.222Z" fill-rule="evenodd"/><path d="M5.08-0.883475 49.1918 252.76 39.0319 254.527-5.08 0.883475ZM68.6283 244.146 48.5292 279.044 17.8284 252.981Z" transform="matrix(1 0 0 -1 1372 1083.04)"/><path d="M1412 780C1412 772.82 1417.82 767 1425 767 1432.18 767 1438 772.82 1438 780 1438 787.18 1432.18 793 1425 793 1417.82 793 1412 787.18 1412 780Z" fill-rule="evenodd"/><path d="M1356 1106C1356 1098.82 1361.82 1093 1369 1093 1376.18 1093 1382 1098.82 1382 1106 1382 1113.18 1376.18 1119 1369 1119 1361.82 1119 1356 1113.18 1356 1106Z" fill-rule="evenodd"/><path d="M1359 1522C1359 1514.82 1364.82 1509 1372 1509 1379.18 1509 1385 1514.82 1385 1522 1385 1529.18 1379.18 1535 1372 1535 1364.82 1535 1359 1529.18 1359 1522Z" fill-rule="evenodd"/><path d="M658 1736C658 1728.82 663.82 1723 671 1723 678.18 1723 684 1728.82 684 1736 684 1743.18 678.18 1749 671 1749 663.82 1749 658 1743.18 658 1736Z" fill-rule="evenodd"/><path d="M1445.68 1086.63 1431.25 1112.16 1447.1 1112.16 1446.41 1099.11C1446.33 1097.32 1446.26 1095.1 1446.21 1092.42 1446.15 1089.75 1446.13 1087.81 1446.13 1086.63ZM1445.92 1078.07 1452.04 1078.07 1454.96 1123.26C1455.1 1125.4 1455.34 1127.06 1455.69 1128.27 1456.04 1129.47 1456.52 1130.36 1457.13 1130.94 1457.74 1131.52 1458.62 1131.89 1459.78 1132.06L1459.34 1134.04 1442.48 1134.04 1442.92 1132.06C1444.52 1131.92 1445.71 1131.3 1446.49 1130.19 1447.27 1129.08 1447.67 1127.14 1447.67 1124.36 1447.67 1123.3 1447.62 1122.15 1447.54 1120.91L1447.26 1115.68 1429.43 1115.68 1427.2 1119.66C1426.15 1121.52 1425.38 1123.12 1424.89 1124.46 1424.4 1125.79 1424.16 1126.98 1424.16 1128 1424.16 1130.27 1425.52 1131.62 1428.25 1132.06L1427.81 1134.04 1411.23 1134.04 1411.68 1132.06C1412.51 1131.95 1413.3 1131.62 1414.05 1131.06 1414.79 1130.51 1415.58 1129.67 1416.42 1128.55 1417.26 1127.43 1418.43 1125.57 1419.94 1122.98Z" fill-rule="evenodd"/><text fill="#000000" fill-opacity="0" font-family="Arial,Arial_MSFontService,sans-serif" font-size="55.9683" x="1411.23" y="1127.05">­Юљ┤</text><path d="M1487.65 780.396 1482.62 803.618C1484.27 803.727 1486.3 803.781 1488.7 803.781 1492.81 803.781 1495.9 803.314 1497.96 802.382 1500.03 801.45 1501.81 799.795 1503.29 797.418 1504.78 795.04 1505.52 792.109 1505.52 788.623 1505.52 785.894 1504.62 783.841 1502.83 782.463 1501.03 781.085 1498.35 780.396 1494.78 780.396ZM1499.65 755.594C1497.3 755.594 1495.11 755.634 1493.08 755.715L1488.5 776.83 1494.22 776.83C1497.4 776.83 1499.94 776.573 1501.81 776.06 1503.69 775.546 1505.35 774.628 1506.78 773.304 1508.21 771.98 1509.25 770.528 1509.9 768.947 1510.55 767.367 1510.87 765.536 1510.87 763.456 1510.87 762.294 1510.67 761.207 1510.26 760.193 1509.86 759.18 1509.16 758.316 1508.18 757.6 1507.19 756.884 1506.06 756.37 1504.77 756.06 1503.49 755.749 1501.78 755.594 1499.65 755.594ZM1481.45 752.027 1501.51 752.027C1505.56 752.027 1508.81 752.453 1511.26 753.304 1513.7 754.155 1515.5 755.404 1516.65 757.052 1517.8 758.701 1518.37 760.768 1518.37 763.253 1518.37 766.793 1517.29 769.879 1515.13 772.514 1512.97 775.148 1509.75 777.168 1505.48 778.573L1505.4 779.018C1507.91 780.018 1509.85 781.443 1511.2 783.294 1512.55 785.145 1513.22 787.245 1513.22 789.596 1513.22 793.189 1512.4 796.263 1510.75 798.816 1509.1 801.369 1506.63 803.429 1503.33 804.996 1500.04 806.563 1495.22 807.347 1488.87 807.347L1470.83 807.347 1471.28 805.361C1472.3 805.199 1473.07 804.936 1473.59 804.571 1474.1 804.206 1474.53 803.699 1474.88 803.051 1475.24 802.403 1475.56 801.612 1475.86 800.68 1476.15 799.748 1476.6 797.945 1477.19 795.27L1484.08 764.064C1484.68 761.362 1484.98 759.227 1484.98 757.66 1484.98 756.336 1484.66 755.418 1484.04 754.905 1483.42 754.391 1482.41 754.094 1481 754.013Z" fill-rule="evenodd"/><text fill="#000000" fill-opacity="0" font-family="Arial,Arial_MSFontService,sans-serif" font-size="55.3198" x="1470.83" y="800.432">­Юљх</text><path d="M678.867 1786.85C681.325 1786.85 683.602 1787 685.695 1787.29 687.789 1787.59 690.12 1788.13 692.686 1788.91L690.255 1799.9 686.364 1799.9C686.148 1796.57 685.425 1794.18 684.196 1792.7 682.967 1791.23 680.987 1790.49 678.259 1790.49 674.53 1790.49 671.065 1792.36 667.863 1796.09 664.662 1799.82 662.129 1804.74 660.265 1810.86 658.4 1816.98 657.468 1822.66 657.468 1827.9 657.468 1832.01 658.198 1835.03 659.657 1836.98 661.116 1838.93 663.358 1839.9 666.384 1839.9 668.411 1839.9 670.18 1839.59 671.693 1838.99 673.206 1838.38 674.625 1837.35 675.949 1835.91 677.273 1834.46 678.583 1832.44 679.88 1829.85L683.77 1829.85 681.298 1841.36C676.246 1842.76 670.95 1843.46 665.411 1843.46 660.332 1843.46 656.468 1842.01 653.821 1839.09 651.173 1836.17 649.849 1831.9 649.849 1826.28 649.849 1822.31 650.558 1817.73 651.977 1812.54 653.395 1807.35 655.401 1802.8 657.995 1798.88 660.589 1794.97 663.655 1791.98 667.195 1789.93 670.734 1787.87 674.625 1786.85 678.867 1786.85Z" fill-rule="evenodd"/><text fill="#000000" fill-opacity="0" font-family="Arial,Arial_MSFontService,sans-serif" font-size="56.6167" x="649.849" y="1836.39">­ЮљХ</text><path d="M1375.55 1578.93C1374.36 1578.93 1373.07 1578.97 1371.7 1579.05L1361.2 1627C1361.98 1627.08 1363.48 1627.12 1365.7 1627.12 1370.08 1627.12 1373.79 1626.36 1376.84 1624.83 1379.9 1623.3 1382.53 1620.91 1384.75 1617.66 1386.96 1614.4 1388.6 1610.97 1389.65 1607.36 1390.7 1603.76 1391.23 1599.95 1391.23 1595.95 1391.23 1590.31 1389.91 1586.06 1387.28 1583.21 1384.65 1580.36 1380.73 1578.93 1375.55 1578.93ZM1360.07 1575.41 1375.43 1575.41C1379.5 1575.41 1382.81 1575.72 1385.35 1576.34 1387.89 1576.96 1390.26 1578.08 1392.47 1579.7 1394.67 1581.32 1396.32 1583.48 1397.43 1586.17 1398.54 1588.85 1399.09 1592.04 1399.09 1595.71 1399.09 1599.36 1398.67 1602.84 1397.84 1606.17 1397 1609.49 1395.8 1612.55 1394.23 1615.35 1392.66 1618.14 1390.79 1620.57 1388.6 1622.64 1386.41 1624.71 1384.29 1626.3 1382.23 1627.4 1380.18 1628.51 1377.88 1629.34 1375.34 1629.9 1372.8 1630.45 1369.85 1630.73 1366.47 1630.73L1349.45 1630.73 1349.89 1628.74C1350.92 1628.58 1351.69 1628.32 1352.2 1627.95 1352.72 1627.59 1353.15 1627.08 1353.5 1626.43 1353.85 1625.78 1354.18 1624.99 1354.47 1624.06 1354.77 1623.13 1355.22 1621.32 1355.81 1618.65L1362.7 1587.44C1363.29 1584.74 1363.59 1582.57 1363.59 1580.92 1363.59 1579.65 1363.27 1578.76 1362.64 1578.26 1362 1577.76 1361 1577.47 1359.62 1577.39Z" fill-rule="evenodd"/><text fill="#000000" fill-opacity="0" font-family="Arial,Arial_MSFontService,sans-serif" font-size="55.3198" x="1349.45" y="1623.81">­Юљи</text><rect x="320.5" y="891.5" width="692" height="268" stroke="#000000" stroke-width="3.4375" stroke-linejoin="round" stroke-miterlimit="10" fill="none"/><path d="M366.588 959.554C368.317 959.554 369.681 960.134 370.681 961.296 371.681 962.458 372.18 964.025 372.18 965.997 372.18 968.132 371.762 970.793 370.924 973.981L369.141 980.993C368.682 982.776 368.351 984.167 368.148 985.167 367.945 986.167 367.797 987.031 367.702 987.761 367.608 988.49 367.56 989.098 367.56 989.584 367.56 991.449 367.871 992.793 368.492 993.617 369.114 994.441 370.127 994.853 371.532 994.853 372.667 994.853 373.889 994.4 375.2 993.495 376.51 992.59 377.902 991.226 379.374 989.402 380.847 987.578 382.029 985.809 382.92 984.093 383.812 982.377 384.541 980.263 385.109 977.75L388.959 960.202 395.97 960.202 390.053 985.896C389.459 988.49 389.161 990.489 389.161 991.894 389.161 992.975 389.337 993.759 389.688 994.245 390.039 994.731 390.593 994.974 391.35 994.974 392.16 994.974 393.025 994.643 393.944 993.982 394.862 993.32 396.159 992.057 397.834 990.192L400.144 992.462C397.686 995.083 395.592 996.933 393.863 998.014 392.133 999.095 390.296 999.635 388.351 999.635 386.676 999.635 385.338 999.081 384.339 997.974 383.339 996.866 382.839 995.393 382.839 993.556 382.839 992.097 383.163 990.503 383.812 988.774L383.325 988.612C380.651 992.367 378.118 995.137 375.727 996.92 373.335 998.703 370.884 999.595 368.371 999.595 365.858 999.595 363.926 998.872 362.575 997.426 361.225 995.981 360.549 993.975 360.549 991.408 360.549 989.706 360.941 987.288 361.724 984.154L364.359 973.536C365.088 970.591 365.453 968.51 365.453 967.294 365.453 966.214 365.277 965.43 364.926 964.944 364.575 964.457 364.021 964.214 363.264 964.214 362.427 964.214 361.542 964.559 360.61 965.248 359.678 965.937 358.401 967.186 356.78 968.996L354.47 966.727C356.767 964.403 358.496 962.809 359.657 961.945 360.819 961.08 361.934 960.465 363.001 960.101 364.068 959.736 365.264 959.554 366.588 959.554Z" fill-rule="evenodd"/><text fill="#000000" fill-opacity="0" font-family="Arial,Arial_MSFontService,sans-serif" font-size="40.0815" x="354.47" y="994.625">­ЮЉб</text><path d="M391.047 933.657 401.22 942.451 401.22 945.531 381.847 945.531 370.662 945.531 357.531 945.531 357.531 941.722 370.662 941.722 381.847 941.722 395.384 941.722 388.899 936.088Z" fill-rule="evenodd"/><path d="M432.09 980.993 482.02 980.993 482.02 986.383 432.09 986.383ZM432.09 964.174 482.02 964.174 482.02 969.564 432.09 969.564Z" fill-rule="evenodd"/><text fill="#000000" fill-opacity="0" font-family="Arial,Arial_MSFontService,sans-serif" font-size="22.209" x="432.09" y="983.607">=</text><path d="M581.972 972.036 576.947 995.258C578.595 995.366 580.621 995.42 583.026 995.42 587.133 995.42 590.219 994.954 592.286 994.022 594.353 993.09 596.13 991.435 597.616 989.057 599.102 986.68 599.845 983.748 599.845 980.263 599.845 977.534 598.946 975.481 597.15 974.103 595.353 972.725 592.671 972.036 589.105 972.036ZM544.765 951.57 530.337 977.102 546.183 977.102 545.494 964.052C545.413 962.269 545.345 960.04 545.291 957.365 545.237 954.69 545.21 952.758 545.21 951.57ZM593.968 947.233C591.618 947.233 589.429 947.274 587.403 947.355L582.823 968.47 588.537 968.47C591.726 968.47 594.259 968.213 596.136 967.7 598.014 967.186 599.669 966.268 601.101 964.944 602.533 963.62 603.573 962.168 604.222 960.587 604.87 959.006 605.194 957.176 605.194 955.096 605.194 953.934 604.992 952.846 604.586 951.833 604.181 950.82 603.485 949.955 602.499 949.239 601.513 948.523 600.378 948.01 599.095 947.699 597.811 947.389 596.103 947.233 593.968 947.233ZM575.771 943.667 595.832 943.667C599.885 943.667 603.134 944.092 605.579 944.943 608.024 945.795 609.821 947.044 610.969 948.692 612.118 950.34 612.692 952.407 612.692 954.893 612.692 958.432 611.611 961.519 609.45 964.153 607.288 966.788 604.073 968.807 599.804 970.212L599.723 970.658C602.236 971.658 604.167 973.083 605.518 974.934 606.869 976.784 607.545 978.885 607.545 981.236 607.545 984.829 606.721 987.902 605.073 990.456 603.424 993.009 600.952 995.069 597.656 996.636 594.36 998.203 589.537 998.987 583.188 998.987L565.153 998.987 565.599 997.001C566.626 996.839 567.396 996.575 567.909 996.211 568.422 995.846 568.855 995.339 569.206 994.691 569.557 994.042 569.881 993.252 570.179 992.32 570.476 991.388 570.922 989.584 571.516 986.91L578.406 955.703C579 953.002 579.297 950.867 579.297 949.3 579.297 947.976 578.987 947.058 578.365 946.544 577.744 946.031 576.73 945.734 575.326 945.653ZM545.008 943.018 551.127 943.018 554.045 988.206C554.18 990.341 554.424 992.009 554.775 993.212 555.126 994.414 555.606 995.305 556.214 995.886 556.821 996.467 557.706 996.839 558.868 997.001L558.422 998.987 541.563 998.987 542.009 997.001C543.603 996.866 544.792 996.244 545.575 995.137 546.359 994.029 546.75 992.084 546.75 989.301 546.75 988.247 546.71 987.099 546.629 985.856L546.345 980.628 528.513 980.628 526.284 984.599C525.23 986.464 524.46 988.065 523.974 989.402 523.488 990.739 523.245 991.921 523.245 992.948 523.245 995.218 524.609 996.569 527.338 997.001L526.892 998.987 510.316 998.987 510.762 997.001C511.6 996.893 512.39 996.562 513.133 996.008 513.876 995.454 514.666 994.617 515.504 993.495 516.341 992.374 517.517 990.516 519.03 987.923Z" fill-rule="evenodd"/><text fill="#000000" fill-opacity="0" font-family="Arial,Arial_MSFontService,sans-serif" font-size="55.9683" x="510.316" y="991.991">­Юљ┤­Юљх</text><path d="M607.403 917.34 617.576 926.134 617.576 928.485 607.403 937.279 605.255 934.848 611.74 929.214 595.201 929.214 587.018 929.214 580.214 929.214 570.885 929.214 565.203 929.214 555.897 929.214 550.193 929.214 540.887 929.214 535.182 929.214 525.876 929.214 510.866 929.214 510.866 925.405 525.876 925.405 535.182 925.405 540.887 925.405 550.193 925.405 555.897 925.405 565.203 925.405 570.885 925.405 580.214 925.405 587.018 925.405 595.201 925.405 611.74 925.405 605.255 919.772Z" fill-rule="evenodd"/><path d="M648.584 980.993 698.513 980.993 698.513 986.383 648.584 986.383ZM648.584 964.174 698.513 964.174 698.513 969.564 648.584 969.564Z" fill-rule="evenodd"/><text fill="#000000" fill-opacity="0" font-family="Arial,Arial_MSFontService,sans-serif" font-size="22.209" x="648.584" y="983.607">=</text><path d="M744.561 972.036 744.561 995.137C746.533 995.326 748.735 995.42 751.167 995.42 754.706 995.42 757.456 994.974 759.414 994.083 761.373 993.191 762.792 991.874 763.67 990.131 764.548 988.389 764.987 986.207 764.987 983.586 764.987 980.966 764.507 978.804 763.548 977.102 762.589 975.4 761.11 974.13 759.11 973.292 757.111 972.455 754.355 972.036 750.843 972.036ZM752.383 947.233C751.356 947.233 750.005 947.26 748.33 947.314 746.655 947.368 745.399 947.422 744.561 947.476L744.561 968.47 751.653 968.47C755.76 968.47 758.901 967.477 761.076 965.491 763.251 963.505 764.338 960.621 764.338 956.838 764.338 954.974 764.034 953.427 763.427 952.198 762.819 950.969 761.981 949.989 760.914 949.26 759.847 948.53 758.583 948.01 757.125 947.699 755.666 947.389 754.085 947.233 752.383 947.233ZM732.241 943.667 754.409 943.667C758.705 943.667 762.157 944.126 764.764 945.045 767.371 945.963 769.31 947.321 770.58 949.118 771.849 950.914 772.484 953.231 772.484 956.068 772.484 958.419 772.032 960.459 771.127 962.188 770.222 963.917 769.04 965.349 767.581 966.484 766.122 967.619 764.244 968.672 761.947 969.645L761.947 970.01C765.622 971.117 768.405 972.826 770.296 975.136 772.187 977.446 773.133 980.195 773.133 983.384 773.133 987.058 772.315 990.057 770.681 992.381 769.046 994.704 766.757 996.386 763.812 997.426 760.867 998.467 757.3 998.987 753.112 998.987L732.241 998.987 732.241 997.001C733.916 996.569 735.037 996.089 735.604 995.562 736.172 995.035 736.543 994.286 736.719 993.313 736.895 992.34 736.982 990.854 736.982 988.855L736.982 953.799C736.982 951.934 736.915 950.577 736.78 949.726 736.645 948.875 736.422 948.213 736.111 947.74 735.8 947.267 735.388 946.889 734.875 946.605 734.362 946.321 733.484 946.004 732.241 945.653Z" fill-rule="evenodd"/><text fill="#000000" fill-opacity="0" font-family="Arial,Arial_MSFontService,sans-serif" font-size="55.3198" x="732.241" y="992.072">B</text><path d="M802.125 972.563 852.055 972.563 852.055 977.953 802.125 977.953Z" fill-rule="evenodd"/><text fill="#000000" fill-opacity="0" font-family="Arial,Arial_MSFontService,sans-serif" font-size="5.39014" x="802.125" y="977.279">Рѕњ</text><path d="M902.233 950.962 892.992 977.102 909.933 977.102ZM900.652 943.018 907.055 943.018 920.835 988.206C921.483 990.314 922.057 991.921 922.557 993.029 923.057 994.137 923.658 995.002 924.361 995.623 925.063 996.244 926.022 996.704 927.238 997.001L927.238 998.987 908.555 998.987 908.555 997.001C909.906 996.731 910.912 996.433 911.574 996.109 912.236 995.785 912.729 995.332 913.054 994.752 913.378 994.171 913.54 993.394 913.54 992.421 913.54 991.503 913.432 990.51 913.216 989.443 913 988.375 912.689 987.18 912.284 985.856L910.784 980.628 891.898 980.628 890.52 984.599C889.818 986.599 889.359 988.112 889.142 989.139 888.926 990.165 888.818 991.097 888.818 991.935 888.818 993.556 889.23 994.745 890.054 995.501 890.878 996.258 892.141 996.758 893.844 997.001L893.844 998.987 876.538 998.987 876.538 997.001C878.051 996.758 879.369 995.88 880.49 994.367 881.611 992.854 882.699 990.692 883.752 987.882Z" fill-rule="evenodd"/><text fill="#000000" fill-opacity="0" font-family="Arial,Arial_MSFontService,sans-serif" font-size="55.9683" x="876.538" y="991.991">A</text><path d="M391.877 1070.41C393.822 1070.41 395.227 1070.91 396.092 1071.93 396.956 1072.94 397.388 1074.3 397.388 1076 397.388 1077.3 397.159 1078.78 396.699 1080.46 396.24 1082.13 395.592 1083.9 394.754 1085.77 393.917 1087.63 392.917 1089.54 391.755 1091.5 390.593 1093.46 389.31 1095.36 387.905 1097.21 386.5 1099.07 385.001 1100.81 383.406 1102.44 381.812 1104.08 380.158 1105.5 378.442 1106.72 376.726 1107.93 374.984 1108.9 373.214 1109.62 371.444 1110.33 369.681 1110.69 367.925 1110.69 367.142 1110.69 366.486 1110.49 365.959 1110.1 365.433 1109.71 365.007 1109.16 364.683 1108.44 364.359 1107.73 364.129 1106.88 363.994 1105.91 363.859 1104.94 363.791 1103.87 363.791 1102.71 363.791 1101.17 363.886 1099.52 364.075 1097.76 364.264 1096.01 364.507 1094.24 364.804 1092.45L366.507 1081.23C366.615 1080.58 366.702 1079.96 366.77 1079.38 366.838 1078.8 366.871 1078.38 366.871 1078.11 366.871 1077.27 366.736 1076.58 366.466 1076.04 366.196 1075.5 365.737 1075.23 365.088 1075.23 364.575 1075.23 364.021 1075.38 363.427 1075.69 362.832 1076.01 362.231 1076.4 361.623 1076.89 361.015 1077.38 360.427 1077.9 359.86 1078.45 359.293 1079 358.766 1079.52 358.28 1080.01L356.334 1077.74C357.172 1076.88 358.063 1076.02 359.009 1075.17 359.955 1074.32 360.954 1073.55 362.008 1072.86 363.062 1072.17 364.17 1071.62 365.331 1071.2 366.493 1070.78 367.682 1070.57 368.898 1070.57 369.924 1070.57 370.762 1070.74 371.41 1071.07 372.059 1071.41 372.565 1071.86 372.93 1072.41 373.295 1072.97 373.545 1073.57 373.68 1074.24 373.815 1074.9 373.883 1075.55 373.883 1076.2 373.883 1076.58 373.869 1076.94 373.842 1077.3 373.815 1077.65 373.775 1077.97 373.72 1078.27L371.451 1092.94C371.208 1094.48 371.005 1095.99 370.843 1097.46 370.681 1098.93 370.6 1100.23 370.6 1101.37 370.6 1102.5 370.667 1103.42 370.802 1104.12 370.938 1104.83 371.194 1105.18 371.573 1105.18 372.464 1105.18 373.585 1104.82 374.936 1104.1 376.287 1103.39 377.706 1102.4 379.192 1101.15 380.678 1099.89 382.164 1098.4 383.65 1096.69 385.136 1094.97 386.473 1093.11 387.662 1091.12 388.851 1089.12 389.817 1087.01 390.56 1084.79 391.303 1082.58 391.674 1080.35 391.674 1078.11 391.674 1077.13 391.465 1076.38 391.046 1075.86 390.627 1075.33 389.972 1075.07 389.08 1075.07 387.946 1075.07 386.899 1075.51 385.939 1076.38 384.98 1077.26 383.987 1078.42 382.961 1079.85L380.651 1077.78C381.299 1076.81 382.062 1075.88 382.94 1074.99 383.819 1074.09 384.751 1073.31 385.737 1072.64 386.723 1071.96 387.743 1071.42 388.797 1071.01 389.85 1070.61 390.877 1070.41 391.877 1070.41Z" fill-rule="evenodd"/><text fill="#000000" fill-opacity="0" font-family="Arial,Arial_MSFontService,sans-serif" font-size="40.2842" x="356.334" y="1105.65">­ЮЉБ</text><path d="M387.885 1044.65 398.057 1053.44 398.057 1056.52 367.499 1056.52 367.499 1052.71 392.221 1052.71 385.737 1047.08Z" fill-rule="evenodd"/><text fill="#000000" fill-opacity="0" font-family="Arial,Arial_MSFontService,sans-serif" font-size="11.8745" x="367.499" y="1055.04">Я┤▒</text><path d="M429.546 1092.01 479.476 1092.01 479.476 1097.4 429.546 1097.4ZM429.546 1075.19 479.476 1075.19 479.476 1080.58 429.546 1080.58Z" fill-rule="evenodd"/><text fill="#000000" fill-opacity="0" font-family="Arial,Arial_MSFontService,sans-serif" font-size="22.209" x="429.546" y="1094.62">=</text><path d="M585.709 1058.21C584.52 1058.21 583.237 1058.25 581.859 1058.33L571.362 1106.27C572.146 1106.35 573.645 1106.39 575.861 1106.39 580.238 1106.39 583.953 1105.63 587.006 1104.1 590.059 1102.58 592.693 1100.19 594.909 1096.93 597.124 1093.68 598.759 1090.24 599.813 1086.64 600.866 1083.03 601.393 1079.23 601.393 1075.23 601.393 1069.58 600.076 1065.33 597.442 1062.48 594.807 1059.63 590.897 1058.21 585.709 1058.21ZM570.228 1054.68 585.587 1054.68C589.667 1054.68 592.977 1054.99 595.517 1055.61 598.056 1056.24 600.427 1057.36 602.629 1058.98 604.831 1060.6 606.486 1062.75 607.594 1065.44 608.702 1068.13 609.255 1071.31 609.255 1074.99 609.255 1078.63 608.837 1082.12 607.999 1085.44 607.162 1088.77 605.959 1091.82 604.392 1094.62 602.825 1097.42 600.947 1099.85 598.759 1101.92 596.57 1103.98 594.449 1105.57 592.396 1106.68 590.343 1107.79 588.046 1108.62 585.506 1109.17 582.967 1109.72 580.008 1110 576.631 1110L559.609 1110 560.055 1108.02C561.082 1107.85 561.852 1107.59 562.365 1107.23 562.879 1106.86 563.311 1106.35 563.662 1105.71 564.013 1105.06 564.338 1104.27 564.635 1103.33 564.932 1102.4 565.378 1100.6 565.972 1097.92L572.862 1066.72C573.456 1064.02 573.753 1061.84 573.753 1060.19 573.753 1058.92 573.436 1058.04 572.801 1057.54 572.166 1057.04 571.16 1056.75 569.782 1056.67ZM542.788 1054.03C545.247 1054.03 547.523 1054.18 549.617 1054.48 551.711 1054.78 554.041 1055.32 556.608 1056.1L554.176 1067.08 550.286 1067.08C550.07 1063.76 549.347 1061.36 548.117 1059.89 546.888 1058.42 544.909 1057.68 542.18 1057.68 538.452 1057.68 534.987 1059.54 531.785 1063.27 528.583 1067 526.05 1071.93 524.186 1078.05 522.322 1084.17 521.39 1089.85 521.39 1095.09 521.39 1099.19 522.119 1102.22 523.578 1104.17 525.037 1106.11 527.28 1107.08 530.306 1107.08 532.332 1107.08 534.102 1106.78 535.615 1106.17 537.128 1105.56 538.546 1104.54 539.87 1103.09 541.194 1101.65 542.504 1099.63 543.801 1097.03L547.692 1097.03 545.22 1108.54C540.167 1109.95 534.872 1110.65 529.333 1110.65 524.254 1110.65 520.39 1109.19 517.742 1106.27 515.094 1103.35 513.771 1099.09 513.771 1093.47 513.771 1089.49 514.48 1084.91 515.898 1079.73 517.317 1074.54 519.323 1069.99 521.917 1066.07 524.51 1062.15 527.577 1059.17 531.116 1057.11 534.656 1055.06 538.546 1054.03 542.788 1054.03Z" fill-rule="evenodd"/><text fill="#000000" fill-opacity="0" font-family="Arial,Arial_MSFontService,sans-serif" font-size="56.6167" x="513.771" y="1103.57">­ЮљХ­Юљи</text><path d="M604.86 1028.35 615.032 1037.15 615.032 1039.5 604.86 1048.29 602.712 1045.86 609.196 1040.23 592.657 1040.23 584.474 1040.23 577.67 1040.23 568.341 1040.23 562.66 1040.23 553.354 1040.23 547.649 1040.23 538.343 1040.23 532.639 1040.23 523.333 1040.23 508.322 1040.23 508.322 1036.42 523.333 1036.42 532.639 1036.42 538.343 1036.42 547.649 1036.42 553.354 1036.42 562.66 1036.42 568.341 1036.42 577.67 1036.42 584.474 1036.42 592.657 1036.42 609.196 1036.42 602.712 1030.79Z" fill-rule="evenodd"/><path d="M646.223 1092.01 696.153 1092.01 696.153 1097.4 646.223 1097.4ZM646.223 1075.19 696.153 1075.19 696.153 1080.58 646.223 1080.58Z" fill-rule="evenodd"/><text fill="#000000" fill-opacity="0" font-family="Arial,Arial_MSFontService,sans-serif" font-size="22.209" x="646.223" y="1094.62">=</text><path d="M753.386 1058.21C752.197 1058.21 750.914 1058.25 749.536 1058.33L739.039 1106.27C739.823 1106.35 741.323 1106.39 743.538 1106.39 747.915 1106.39 751.63 1105.63 754.683 1104.1 757.736 1102.58 760.37 1100.19 762.586 1096.93 764.801 1093.68 766.436 1090.24 767.49 1086.64 768.543 1083.03 769.07 1079.23 769.07 1075.23 769.07 1069.58 767.753 1065.33 765.119 1062.48 762.485 1059.63 758.574 1058.21 753.386 1058.21ZM737.905 1054.68 753.265 1054.68C757.344 1054.68 760.654 1054.99 763.194 1055.61 765.734 1056.24 768.104 1057.36 770.306 1058.98 772.508 1060.6 774.163 1062.75 775.271 1065.44 776.379 1068.13 776.933 1071.31 776.933 1074.99 776.933 1078.63 776.514 1082.12 775.676 1085.44 774.839 1088.77 773.636 1091.82 772.069 1094.62 770.502 1097.42 768.624 1099.85 766.436 1101.92 764.247 1103.98 762.127 1105.57 760.073 1106.68 758.02 1107.79 755.723 1108.62 753.184 1109.17 750.644 1109.72 747.685 1110 744.308 1110L727.287 1110 727.732 1108.02C728.759 1107.85 729.529 1107.59 730.042 1107.23 730.556 1106.86 730.988 1106.35 731.339 1105.71 731.691 1105.06 732.015 1104.27 732.312 1103.33 732.609 1102.4 733.055 1100.6 733.649 1097.92L740.539 1066.72C741.133 1064.02 741.431 1061.84 741.431 1060.19 741.431 1058.92 741.113 1058.04 740.478 1057.54 739.843 1057.04 738.837 1056.75 737.459 1056.67Z" fill-rule="evenodd"/><text fill="#000000" fill-opacity="0" font-family="Arial,Arial_MSFontService,sans-serif" font-size="55.3198" x="727.287" y="1103.09">­Юљи</text><path d="M809.046 1083.58 858.976 1083.58 858.976 1088.97 809.046 1088.97Z" fill-rule="evenodd"/><text fill="#000000" fill-opacity="0" font-family="Arial,Arial_MSFontService,sans-serif" font-size="5.39014" x="809.046" y="1088.29">Рѕњ</text><path d="M917.705 1054.03C920.164 1054.03 922.44 1054.18 924.534 1054.48 926.628 1054.78 928.958 1055.32 931.525 1056.1L929.093 1067.08 925.202 1067.08C924.986 1063.76 924.263 1061.36 923.034 1059.89 921.805 1058.42 919.826 1057.68 917.097 1057.68 913.368 1057.68 909.903 1059.54 906.702 1063.27 903.5 1067 900.967 1071.93 899.103 1078.05 897.239 1084.17 896.306 1089.85 896.306 1095.09 896.306 1099.19 897.036 1102.22 898.495 1104.17 899.954 1106.11 902.196 1107.08 905.222 1107.08 907.249 1107.08 909.018 1106.78 910.531 1106.17 912.044 1105.56 913.463 1104.54 914.787 1103.09 916.111 1101.65 917.421 1099.63 918.718 1097.03L922.609 1097.03 920.136 1108.54C915.084 1109.95 909.789 1110.65 904.25 1110.65 899.17 1110.65 895.307 1109.19 892.659 1106.27 890.011 1103.35 888.687 1099.09 888.687 1093.47 888.687 1089.49 889.396 1084.91 890.815 1079.73 892.233 1074.54 894.24 1069.99 896.833 1066.07 899.427 1062.15 902.494 1059.17 906.033 1057.11 909.572 1055.06 913.463 1054.03 917.705 1054.03Z" fill-rule="evenodd"/><text fill="#000000" fill-opacity="0" font-family="Arial,Arial_MSFontService,sans-serif" font-size="56.6167" x="888.687" y="1103.57">­ЮљХ</text></g></svg>