<svg width="2165" height="729" xmlns="http://www.w3.org/2000/svg" xmlns:xlink="http://www.w3.org/1999/xlink" overflow="hidden"><defs><clipPath id="clip0"><rect x="1145" y="823" width="2165" height="729"/></clipPath></defs><g clip-path="url(#clip0)" transform="translate(-1145 -823)"><rect x="2163.5" y="825.5" width="391" height="724" stroke="#000000" stroke-width="4.58333" stroke-miterlimit="8" stroke-dasharray="36.6667 13.75" fill="#F2F2F2"/><rect x="2163.5" y="976.5" width="391" height="424" stroke="#000000" stroke-width="4.58333" stroke-miterlimit="8" stroke-dasharray="36.6667 13.75" fill="#D9D9D9"/><text font-family="Consolas,Consolas_MSFontService,sans-serif" font-weight="400" font-size="46" transform="matrix(1 0 0 1 2281.01 1318)">select<tspan font-size="46" x="-38.6494" y="171">selectOne</tspan><tspan font-size="46" x="-115.013" y="-397">selectOnePlayer</tspan><tspan font-size="46" x="-492.877" y="0">getEntities</tspan><tspan font-size="46" x="-89.5591" y="-221">selectPlayers</tspan></text><path d="M2247.53 1304.24 2120.92 1304.16 2120.92 1301.87 2247.53 1301.95ZM2125.49 1312.18 2098 1303 2125.51 1293.85Z"/><path d="M2356.32 1257.9 2355.94 1148.92 2358.23 1148.91 2358.61 1257.89ZM2347.93 1153.53 2357 1126 2366.26 1153.47Z"/><text font-family="Consolas,Consolas_MSFontService,sans-serif" font-weight="400" font-size="46" transform="matrix(1 0 0 1 1182.27 1290)">worldIn:getEntities<tspan font-size="46" x="100.833" y="55">(linear search)</tspan></text><path d="M1749.78 1304.15 1717.92 1304.15 1717.92 1301.85 1749.78 1301.85ZM1722.5 1312.17 1695 1303 1722.5 1293.83Z"/><path d="M1.14581-0.00651237 1.48328 59.3693-0.808346 59.3823-1.14581 0.00651237ZM9.47794 54.7405 0.467717 82.2921-8.8551 54.8447Z" transform="matrix(1 0 0 -1 2357 1429.29)"/><path d="M2358.15 950 2358.15 1014.58 2355.85 1014.58 2355.85 950ZM2366.17 1010 2357 1037.5 2347.83 1010Z"/><text font-family="Consolas,Consolas_MSFontService,sans-serif" font-weight="400" font-size="37" transform="matrix(1 0 0 1 2371.12 1216)">player<tspan font-size="46" x="399.98" y="-174">getPlayerList</tspan><tspan font-size="46" x="399.98" y="-119">.</tspan><tspan font-size="46" x="425.188" y="-119">getPlayerByUsername</tspan><tspan font-size="46" x="399.98" y="-64">(linear search)</tspan></text><path d="M0.570652-0.993625 165.145 93.5236 164.004 95.5108-0.570652 0.993625ZM165.165 84.2856 184.447 105.93 156.034 100.184Z" transform="matrix(1 0 0 -1 2554 1187.93)"/><rect x="2755.5" y="1192.5" width="448" height="145" stroke="#FF0000" stroke-width="3.4375" stroke-linejoin="round" stroke-miterlimit="10" stroke-dasharray="27.5 10.3125" fill="none"/><text font-family="Consolas,Consolas_MSFontService,sans-serif" font-weight="400" font-size="46" transform="matrix(1 0 0 1 2791.7 1252)">getEntityByUuid<tspan font-size="46" x="25.2083" y="55">(hash tabling)</tspan></text><path d="M2554.41 1186.93 2734.59 1255.42 2733.78 1257.56 2553.59 1189.07ZM2733.16 1246.29 2755.61 1264.63 2726.65 1263.43Z"/><text font-family="Consolas,Consolas_MSFontService,sans-serif" font-weight="400" font-size="37" transform="matrix(1 0 0 1 2578.43 1075)">username<tspan font-size="37" x="59.6526" y="225">uuid</tspan><tspan fill="#FF0000" font-size="46" x="192.67" y="332">(fastest method)</tspan><tspan font-size="46" x="-768.558" y="22">getPlayers</tspan></text><path d="M2157.99 1083.15 2120.92 1083.15 2120.92 1080.85 2157.99 1080.85ZM2125.5 1091.17 2098 1082 2125.5 1072.83Z"/><text font-family="Consolas,Consolas_MSFontService,sans-serif" font-weight="400" font-size="46" transform="matrix(1 0 0 1 1285.07 1042)">s<tspan font-size="46" x="25.2084" y="0">ource.getWorld</tspan><tspan font-size="46" x="75.625" y="55">.</tspan><tspan font-size="46" x="100.833" y="55">getEntities</tspan><tspan font-size="46" x="0" y="110">(linear search)</tspan></text><path d="M1776.53 1083.15 1718.92 1083.15 1718.92 1080.85 1776.53 1080.85ZM1723.5 1091.17 1696 1082 1723.5 1072.83Z"/></g></svg>