<svg width="2559" height="729" xmlns="http://www.w3.org/2000/svg" xmlns:xlink="http://www.w3.org/1999/xlink" overflow="hidden"><defs><clipPath id="clip0"><rect x="-50" y="823" width="2559" height="729"/></clipPath></defs><g clip-path="url(#clip0)" transform="translate(50 -823)"><rect x="1017.5" y="825.5" width="391" height="724" stroke="#000000" stroke-width="4.58333" stroke-miterlimit="8" stroke-dasharray="36.6667 13.75" fill="#F2F2F2"/><rect x="1017.5" y="976.5" width="391" height="424" stroke="#000000" stroke-width="4.58333" stroke-miterlimit="8" stroke-dasharray="36.6667 13.75" fill="#D9D9D9"/><text font-family="Consolas,Consolas_MSFontService,sans-serif" font-weight="400" font-size="46" transform="matrix(1 0 0 1 1135.18 1318)">select<tspan font-size="46" x="-38.6494" y="171">selectOne</tspan><tspan font-size="46" x="-115.013" y="-397">selectOnePlayer</tspan><tspan font-size="46" x="-492.877" y="0">getEntities</tspan><tspan font-size="46" x="-89.5587" y="-221">selectPlayers</tspan></text><path d="M1102.53 1304.24 975.916 1304.16 975.917 1301.87 1102.53 1301.95ZM980.494 1312.18 953 1303 980.506 1293.85Z"/><path d="M1210.32 1257.9 1209.94 1148.92 1212.23 1148.91 1212.61 1257.89ZM1201.93 1153.53 1211 1126 1220.26 1153.47Z"/><text font-family="Consolas,Consolas_MSFontService,sans-serif" font-weight="400" font-size="46" transform="matrix(1 0 0 1 36.545 1290)">worldIn:getEntities<tspan font-size="46" x="100.833" y="55">(linear search)</tspan></text><path d="M603.776 1304.15 571.917 1304.15 571.917 1301.85 603.776 1301.85ZM576.5 1312.17 549 1303 576.5 1293.83Z"/><path d="M1.14581-0.00651237 1.48328 59.3693-0.808346 59.3823-1.14581 0.00651237ZM9.47794 54.7405 0.467717 82.2921-8.8551 54.8447Z" transform="matrix(1 0 0 -1 1211 1429.29)"/><path d="M1212.15 950 1212.15 1014.58 1209.85 1014.58 1209.85 950ZM1220.17 1010 1211 1037.5 1201.83 1010Z"/><text font-family="Consolas,Consolas_MSFontService,sans-serif" font-weight="400" font-size="37" transform="matrix(1 0 0 1 1225.29 1216)">player<tspan font-size="46" x="399.98" y="-133">getPlayerList.getPlayerByUsername</tspan><tspan font-size="46" x="399.98" y="-78">(linear search)</tspan></text><path d="M0.513061-1.02455 164.468 81.0789 163.442 83.128-0.513061 1.02455ZM163.962 71.8548 184.446 92.3646 155.753 88.2476Z" transform="matrix(1 0 0 -1 1408 1188.36)"/><rect x="1609.5" y="1192.5" width="448" height="145" stroke="#FF0000" stroke-width="3.4375" stroke-linejoin="round" stroke-miterlimit="10" stroke-dasharray="27.5 10.3125" fill="none"/><text font-family="Consolas,Consolas_MSFontService,sans-serif" font-weight="400" font-size="46" transform="matrix(1 0 0 1 1645.86 1252)">getEntityByUuid<tspan font-size="46" x="25.2084" y="55">(hash tabling)</tspan></text><path d="M1408.41 1186.93 1588.59 1255.42 1587.78 1257.56 1407.59 1189.07ZM1587.16 1246.29 1609.61 1264.63 1580.65 1263.43Z"/><text font-family="Consolas,Consolas_MSFontService,sans-serif" font-weight="400" font-size="37" transform="matrix(1 0 0 1 1432.59 1075)">username<tspan font-size="37" x="59.653" y="225">uuid</tspan><tspan fill="#FF0000" font-size="46" x="192.67" y="332">(fastest method)</tspan><tspan font-size="46" x="-768.558" y="22">getPlayers</tspan></text><path d="M1012.99 1083.15 975.917 1083.15 975.917 1080.85 1012.99 1080.85ZM980.5 1091.17 953 1082 980.5 1072.83Z"/><text font-family="Consolas,Consolas_MSFontService,sans-serif" font-weight="400" font-size="46" transform="matrix(1 0 0 1 13.2123 1069)">SerWorld:getEntities<tspan font-size="46" x="126.042" y="55">(linear search)</tspan></text><path d="M631.531 1083.15 573.917 1083.15 573.917 1080.85 631.531 1080.85ZM578.5 1091.17 551 1082 578.5 1072.83Z"/></g></svg>