<svg width="2626" height="1714" xmlns="http://www.w3.org/2000/svg" xmlns:xlink="http://www.w3.org/1999/xlink" xml:space="preserve" overflow="hidden"><defs><clipPath id="clip0"><rect x="430" y="648" width="2626" height="1714"/></clipPath></defs><g clip-path="url(#clip0)" transform="translate(-430 -648)"><rect x="1535" y="830" width="367" height="1358" fill="#FF0000" fill-opacity="0.101961"/><path d="M482.5 2188.5 3051.79 2188.5" stroke="#000000" stroke-width="6.875" stroke-miterlimit="8" fill="none" fill-rule="evenodd"/><path d="M0 0 0.000360892 1358.16" stroke="#000000" stroke-width="6.875" stroke-miterlimit="8" fill="none" fill-rule="evenodd" transform="matrix(1 0 0 -1 1715.5 2188.66)"/><path d="M1696 1072.5C1696 1061.73 1704.73 1053 1715.5 1053 1726.27 1053 1735 1061.73 1735 1072.5 1735 1083.27 1726.27 1092 1715.5 1092 1704.73 1092 1696 1083.27 1696 1072.5Z" fill-rule="evenodd"/><path d="M1646 1333.5C1646 1322.73 1654.73 1314 1665.5 1314 1676.27 1314 1685 1322.73 1685 1333.5 1685 1344.27 1676.27 1353 1665.5 1353 1654.73 1353 1646 1344.27 1646 1333.5Z" fill-rule="evenodd"/><path d="M1747 1294.5C1747 1283.73 1755.73 1275 1766.5 1275 1777.27 1275 1786 1283.73 1786 1294.5 1786 1305.27 1777.27 1314 1766.5 1314 1755.73 1314 1747 1305.27 1747 1294.5Z" fill-rule="evenodd"/><path d="M496 1950.5C496 1939.73 504.73 1931 515.5 1931 526.269 1931 535 1939.73 535 1950.5 535 1961.27 526.269 1970 515.5 1970 504.73 1970 496 1961.27 496 1950.5Z" fill-rule="evenodd"/><path d="M1204 1523.5C1204 1512.73 1212.73 1504 1223.5 1504 1234.27 1504 1243 1512.73 1243 1523.5 1243 1534.27 1234.27 1543 1223.5 1543 1212.73 1543 1204 1534.27 1204 1523.5Z" fill-rule="evenodd"/><path d="M860 1280.5C860 1269.73 868.73 1261 879.5 1261 890.269 1261 899 1269.73 899 1280.5 899 1291.27 890.269 1300 879.5 1300 868.73 1300 860 1291.27 860 1280.5Z" fill-rule="evenodd"/><path d="M2798 1333.5C2798 1322.73 2806.73 1314 2817.5 1314 2828.27 1314 2837 1322.73 2837 1333.5 2837 1344.27 2828.27 1353 2817.5 1353 2806.73 1353 2798 1344.27 2798 1333.5Z" fill-rule="evenodd"/><path d="M2339 1842.5C2339 1831.73 2347.73 1823 2358.5 1823 2369.27 1823 2378 1831.73 2378 1842.5 2378 1853.27 2369.27 1862 2358.5 1862 2347.73 1862 2339 1853.27 2339 1842.5Z" fill-rule="evenodd"/><path d="M2779 1745.5C2779 1734.73 2787.73 1726 2798.5 1726 2809.27 1726 2818 1734.73 2818 1745.5 2818 1756.27 2809.27 1765 2798.5 1765 2787.73 1765 2779 1756.27 2779 1745.5Z" fill-rule="evenodd"/><path d="M2948 1033.5C2948 1022.73 2956.73 1014 2967.5 1014 2978.27 1014 2987 1022.73 2987 1033.5 2987 1044.27 2978.27 1053 2967.5 1053 2956.73 1053 2948 1044.27 2948 1033.5Z" fill-rule="evenodd"/><path d="M0 0 160.456 43.4814" stroke="#FF0000" stroke-width="4.58333" stroke-miterlimit="8" fill="none" fill-rule="evenodd" transform="matrix(1 0 0 -1 596.5 1748.98)"/><path d="M574 1751.5C574 1740.73 582.73 1732 593.5 1732 604.269 1732 613 1740.73 613 1751.5 613 1762.27 604.269 1771 593.5 1771 582.73 1771 574 1762.27 574 1751.5Z" fill-rule="evenodd"/><path d="M737 1704C737 1693.51 745.73 1685 756.5 1685 767.269 1685 776 1693.51 776 1704 776 1714.49 767.269 1723 756.5 1723 745.73 1723 737 1714.49 737 1704Z" fill-rule="evenodd"/><path d="M0 0 140.078 103.125" stroke="#FF0000" stroke-width="4.58333" stroke-miterlimit="8" fill="none" fill-rule="evenodd" transform="matrix(1 0 0 -1 2226.5 1312.63)"/><path d="M2344 1210.5C2344 1199.73 2352.73 1191 2363.5 1191 2374.27 1191 2383 1199.73 2383 1210.5 2383 1221.27 2374.27 1230 2363.5 1230 2352.73 1230 2344 1221.27 2344 1210.5Z" fill-rule="evenodd"/><path d="M2206 1314.5C2206 1303.73 2214.73 1295 2225.5 1295 2236.27 1295 2245 1303.73 2245 1314.5 2245 1325.27 2236.27 1334 2225.5 1334 2214.73 1334 2206 1325.27 2206 1314.5Z" fill-rule="evenodd"/><path d="M430.5 830.5 2999.79 830.5" stroke="#000000" stroke-width="6.875" stroke-miterlimit="8" fill="none" fill-rule="evenodd"/><text font-family="Calibri,Calibri_MSFontService,sans-serif" font-weight="400" font-size="110" transform="matrix(1 0 0 1 989.058 785)">L</text><text font-family="Calibri,Calibri_MSFontService,sans-serif" font-weight="400" font-size="110" transform="matrix(1 0 0 1 2405.31 785)">R</text><text font-family="Calibri,Calibri_MSFontService,sans-serif" font-weight="400" font-size="83" transform="matrix(1 0 0 1 1645.97 769)">mid</text><path d="M1793.9 982.068C1792.52 982.068 1791.16 982.534 1789.82 983.466 1788.49 984.398 1787.02 985.891 1785.43 987.944 1783.83 989.998 1782.59 992.024 1781.7 994.023 1780.81 996.023 1780.1 998.319 1779.59 1000.91L1779.27 1002.62C1779 1004.05 1778.83 1005.14 1778.76 1005.9 1778.69 1006.65 1778.66 1007.4 1778.66 1008.13 1778.66 1010.23 1779.11 1011.77 1780.02 1012.73 1780.92 1013.69 1782.48 1014.17 1784.7 1014.17 1786.08 1014.17 1787.35 1013.9 1788.51 1013.35 1789.67 1012.81 1790.77 1012.03 1791.81 1011 1792.85 1009.98 1793.79 1008.73 1794.63 1007.28 1795.46 1005.82 1796.21 1004.12 1796.88 1002.19 1797.54 1000.26 1798.04 998.272 1798.38 996.232 1798.71 994.192 1798.88 992.281 1798.88 990.497 1798.88 987.661 1798.48 985.546 1797.69 984.155 1796.89 982.763 1795.63 982.068 1793.9 982.068ZM1776.84 977.286C1778.51 977.286 1779.84 977.839 1780.83 978.947 1781.81 980.055 1782.31 981.527 1782.31 983.365 1782.31 984.878 1782 986.472 1781.37 988.147L1781.86 988.309C1786.86 980.987 1791.83 977.326 1796.78 977.326 1799.72 977.326 1802.01 978.447 1803.64 980.69 1805.28 982.932 1806.1 986.093 1806.1 990.173 1806.1 994.631 1805.2 999.015 1803.4 1003.32 1801.6 1007.63 1799.11 1011.05 1795.92 1013.58 1792.74 1016.1 1789.17 1017.37 1785.22 1017.37 1781.63 1017.37 1778.65 1016.58 1776.27 1015.02L1774.4 1023.89C1774 1025.81 1773.8 1027.39 1773.8 1028.63 1773.8 1029.82 1774.1 1030.67 1774.71 1031.17 1775.32 1031.67 1776.5 1032 1778.25 1032.16L1777.93 1034.15 1765.41 1034.15 1775.17 991.146C1775.74 988.66 1776.03 986.62 1776.03 985.026 1776.03 983.945 1775.85 983.162 1775.5 982.676 1775.15 982.189 1774.59 981.946 1773.84 981.946 1773 981.946 1772.11 982.291 1771.18 982.98 1770.25 983.669 1768.97 984.918 1767.35 986.728L1765.04 984.459C1767.47 981.919 1769.53 980.089 1771.22 978.967 1772.91 977.846 1774.78 977.286 1776.84 977.286Z" fill-rule="evenodd"/><text fill="#000000" fill-opacity="0" font-family="Arial,Arial_MSFontService,sans-serif" font-size="56.8599" x="1765.04" y="1027.04">ğ‘</text><path d="M1824.54 997.88C1823.17 997.88 1821.98 998.098 1820.98 998.535 1819.97 998.972 1819.14 999.587 1818.47 1000.38 1817.81 1001.18 1817.31 1002.14 1816.99 1003.29 1816.66 1004.43 1816.49 1005.7 1816.49 1007.11 1816.49 1009.71 1817.07 1011.72 1818.22 1013.14 1819.37 1014.56 1821.11 1015.27 1823.43 1015.27 1824.76 1015.27 1826.01 1015.1 1827.17 1014.75 1828.33 1014.41 1829.38 1013.93 1830.31 1013.34 1830.71 1013.08 1831.02 1012.84 1831.24 1012.61 1831.46 1012.38 1831.63 1012.13 1831.77 1011.86 1831.91 1011.6 1832 1011.25 1832.03 1010.84 1832.06 1010.42 1832.07 1009.86 1832.07 1009.17 1832.07 1007.58 1831.94 1006.1 1831.67 1004.72 1831.4 1003.34 1830.96 1002.14 1830.36 1001.14 1829.75 1000.14 1828.97 999.344 1828.01 998.758 1827.04 998.173 1825.89 997.88 1824.54 997.88ZM1824.92 994.991C1827.07 994.991 1828.95 995.343 1830.58 996.048 1832.21 996.753 1833.58 997.776 1834.69 999.116 1835.8 1000.46 1836.65 1002.11 1837.22 1004.09 1837.8 1006.07 1838.09 1008.33 1838.09 1010.9 1838.09 1014.29 1837.63 1017.38 1836.7 1020.16 1835.78 1022.94 1834.46 1025.33 1832.74 1027.32 1831.02 1029.32 1828.96 1030.9 1826.55 1032.07 1824.13 1033.24 1821.46 1033.92 1818.52 1034.1L1817.18 1032.58 1817.18 1030.76C1819.46 1030.76 1821.46 1030.39 1823.18 1029.63 1824.9 1028.88 1826.37 1027.83 1827.59 1026.5 1828.81 1025.17 1829.77 1023.59 1830.46 1021.77 1831.16 1019.94 1831.59 1017.94 1831.77 1015.75L1831.51 1015.6C1829.82 1016.65 1828.17 1017.44 1826.58 1017.97 1824.98 1018.5 1823.23 1018.76 1821.32 1018.76 1819.57 1018.76 1818.03 1018.5 1816.69 1017.98 1815.35 1017.47 1814.22 1016.73 1813.31 1015.77 1812.39 1014.8 1811.7 1013.64 1811.24 1012.27 1810.77 1010.9 1810.54 1009.33 1810.54 1007.56 1810.54 1005.85 1810.84 1004.24 1811.45 1002.72 1812.05 1001.2 1812.96 999.87 1814.17 998.729 1815.38 997.587 1816.89 996.678 1818.7 996.003 1820.51 995.328 1822.58 994.991 1824.92 994.991Z" fill-rule="evenodd"/><text fill="#000000" fill-opacity="0" font-family="Arial,Arial_MSFontService,sans-serif" font-size="39.1079" x="1810.54" y="1029.21">9</text><path d="M620.471 1631.94C618.047 1631.94 615.873 1632.92 613.948 1634.88 612.023 1636.84 610.508 1639.48 609.403 1642.81 608.298 1646.14 607.746 1649.45 607.746 1652.76 607.746 1655.23 608.084 1657.08 608.762 1658.3 609.439 1659.52 610.573 1660.14 612.166 1660.14 612.902 1660.14 613.651 1659.97 614.411 1659.65 615.172 1659.33 615.962 1658.82 616.782 1658.1 617.601 1657.39 618.409 1656.52 619.205 1655.5 620.001 1654.48 620.732 1653.45 621.398 1652.42 622.063 1651.38 622.681 1650.16 623.251 1648.75 623.821 1647.33 624.308 1645.63 624.712 1643.63L625.033 1642.1C625.39 1640.39 625.568 1638.77 625.568 1637.25 625.568 1635.4 625.176 1634.05 624.392 1633.21 623.607 1632.36 622.301 1631.94 620.471 1631.94ZM635.406 1612.83 637.509 1612.83 628.633 1652.29C628.111 1654.62 627.849 1656.38 627.849 1657.57 627.849 1658.52 628.004 1659.21 628.313 1659.64 628.621 1660.06 629.109 1660.28 629.774 1660.28 630.487 1660.28 631.247 1659.99 632.055 1659.4 632.863 1658.82 634.004 1657.71 635.477 1656.07L637.509 1658.07C635.323 1660.37 633.481 1662 631.984 1662.95 630.487 1663.9 628.871 1664.38 627.136 1664.38 625.663 1664.38 624.487 1663.89 623.607 1662.92 622.728 1661.94 622.289 1660.65 622.289 1659.03 622.289 1657.72 622.562 1656.33 623.108 1654.86L622.645 1654.72C620.364 1658.04 618.201 1660.48 616.158 1662.02 614.114 1663.57 611.952 1664.34 609.67 1664.34 607.057 1664.34 605.031 1663.35 603.593 1661.38 602.155 1659.41 601.437 1656.64 601.437 1653.08 601.437 1648.99 602.239 1645.06 603.843 1641.3 605.447 1637.53 607.651 1634.56 610.455 1632.39 613.259 1630.21 616.384 1629.12 619.829 1629.12 621.279 1629.12 622.615 1629.27 623.839 1629.57 625.063 1629.87 626.316 1630.38 627.6 1631.12L629.453 1622.89C629.643 1622.1 629.81 1621.23 629.952 1620.28 630.095 1619.33 630.166 1618.5 630.166 1617.79 630.166 1617.08 630.035 1616.54 629.774 1616.17 629.513 1615.8 629.138 1615.53 628.651 1615.37 628.164 1615.2 627.291 1615.08 626.031 1615.01L626.459 1613.16Z" fill="#FF0000" fill-rule="evenodd"/><text fill="#000000" fill-opacity="0" font-family="Arial,Arial_MSFontService,sans-serif" font-size="51.542" x="601.437" y="1657.93">ğ‘‘</text><path d="M648.19 1645.21 659.111 1645.21 658.826 1646.76C658.222 1646.91 657.743 1647.05 657.39 1647.16 657.036 1647.27 656.734 1647.51 656.484 1647.87 656.234 1648.23 656.01 1648.77 655.811 1649.49 655.613 1650.2 655.358 1651.25 655.048 1652.63L649.794 1676.03 656.549 1676.03C657.498 1676.03 658.317 1675.95 659.007 1675.78 659.697 1675.62 660.336 1675.27 660.922 1674.75 661.509 1674.22 662.074 1673.47 662.617 1672.51 663.161 1671.54 663.76 1670.26 664.416 1668.65L667.263 1668.65 664.597 1678.77 641.798 1678.77 642.082 1677.19C642.617 1677.11 643.057 1677 643.402 1676.87 643.747 1676.74 644.054 1676.49 644.321 1676.12 644.588 1675.75 644.83 1675.19 645.046 1674.45 645.261 1673.71 645.516 1672.67 645.809 1671.34L650.053 1652.48C650.226 1651.72 650.355 1651.05 650.441 1650.46 650.528 1649.87 650.571 1649.37 650.571 1648.96 650.571 1648.2 650.372 1647.66 649.975 1647.34 649.579 1647.02 648.854 1646.85 647.802 1646.84Z" fill="#FF0000" fill-rule="evenodd"/><text fill="#000000" fill-opacity="0" font-family="Arial,Arial_MSFontService,sans-serif" font-size="33.5649" x="641.798" y="1674.58">ğ¿</text><path d="M1623.51 1626.15 1623.51 1997.11" stroke="#FF0000" stroke-width="4.58333" stroke-linejoin="round" stroke-miterlimit="10" fill="none" fill-rule="evenodd"/><path d="M1715.1 1626.15 1715.1 1997.11" stroke="#FF0000" stroke-width="4.58333" stroke-linejoin="round" stroke-miterlimit="10" fill="none" fill-rule="evenodd"/><path d="M1806.7 1626.15 1806.7 1997.11" stroke="#FF0000" stroke-width="4.58333" stroke-linejoin="round" stroke-miterlimit="10" fill="none" fill-rule="evenodd"/><path d="M1529.62 1720.04 1900.58 1720.04" stroke="#FF0000" stroke-width="4.58333" stroke-linejoin="round" stroke-miterlimit="10" fill="none" fill-rule="evenodd"/><path d="M1529.62 1811.63 1900.58 1811.63" stroke="#FF0000" stroke-width="4.58333" stroke-linejoin="round" stroke-miterlimit="10" fill="none" fill-rule="evenodd"/><path d="M1529.62 1903.23 1900.58 1903.23" stroke="#FF0000" stroke-width="4.58333" stroke-linejoin="round" stroke-miterlimit="10" fill="none" fill-rule="evenodd"/><path d="M1531.91 1626.15 1531.91 1997.11" stroke="#FF0000" stroke-width="4.58333" stroke-linejoin="round" stroke-miterlimit="10" fill="none" fill-rule="evenodd"/><path d="M1898.29 1626.15 1898.29 1997.11" stroke="#FF0000" stroke-width="4.58333" stroke-linejoin="round" stroke-miterlimit="10" fill="none" fill-rule="evenodd"/><path d="M1529.62 1628.44 1900.58 1628.44" stroke="#FF0000" stroke-width="4.58333" stroke-linejoin="round" stroke-miterlimit="10" fill="none" fill-rule="evenodd"/><path d="M1529.62 1994.82 1900.58 1994.82" stroke="#FF0000" stroke-width="4.58333" stroke-linejoin="round" stroke-miterlimit="10" fill="none" fill-rule="evenodd"/><path d="M2333.75 1308.36C2331.33 1308.36 2329.15 1309.34 2327.23 1311.3 2325.3 1313.26 2323.79 1315.9 2322.68 1319.23 2321.58 1322.55 2321.02 1325.87 2321.02 1329.17 2321.02 1331.64 2321.36 1333.49 2322.04 1334.71 2322.72 1335.94 2323.85 1336.55 2325.44 1336.55 2326.18 1336.55 2326.93 1336.39 2327.69 1336.07 2328.45 1335.75 2329.24 1335.23 2330.06 1334.52 2330.88 1333.81 2331.69 1332.94 2332.48 1331.92 2333.28 1330.89 2334.01 1329.87 2334.68 1328.83 2335.34 1327.8 2335.96 1326.58 2336.53 1325.16 2337.1 1323.75 2337.59 1322.04 2337.99 1320.05L2338.31 1318.51C2338.67 1316.8 2338.85 1315.19 2338.85 1313.67 2338.85 1311.81 2338.45 1310.46 2337.67 1309.62 2336.89 1308.78 2335.58 1308.36 2333.75 1308.36ZM2348.68 1289.25 2350.79 1289.25 2341.91 1328.71C2341.39 1331.04 2341.13 1332.8 2341.13 1333.98 2341.13 1334.93 2341.28 1335.62 2341.59 1336.05 2341.9 1336.48 2342.39 1336.69 2343.05 1336.69 2343.77 1336.69 2344.53 1336.4 2345.33 1335.82 2346.14 1335.24 2347.28 1334.13 2348.76 1332.49L2350.79 1334.48C2348.6 1336.79 2346.76 1338.42 2345.26 1339.37 2343.77 1340.32 2342.15 1340.79 2340.42 1340.79 2338.94 1340.79 2337.77 1340.3 2336.89 1339.33 2336.01 1338.36 2335.57 1337.06 2335.57 1335.45 2335.57 1334.14 2335.84 1332.75 2336.39 1331.27L2335.92 1331.13C2333.64 1334.46 2331.48 1336.89 2329.44 1338.44 2327.39 1339.98 2325.23 1340.76 2322.95 1340.76 2320.34 1340.76 2318.31 1339.77 2316.87 1337.8 2315.43 1335.83 2314.72 1333.06 2314.72 1329.49 2314.72 1325.41 2315.52 1321.48 2317.12 1317.71 2318.73 1313.95 2320.93 1310.98 2323.73 1308.8 2326.54 1306.63 2329.66 1305.54 2333.11 1305.54 2334.56 1305.54 2335.89 1305.69 2337.12 1305.99 2338.34 1306.28 2339.6 1306.8 2340.88 1307.54L2342.73 1299.3C2342.92 1298.52 2343.09 1297.65 2343.23 1296.7 2343.37 1295.75 2343.44 1294.92 2343.44 1294.2 2343.44 1293.49 2343.31 1292.95 2343.05 1292.58 2342.79 1292.21 2342.42 1291.95 2341.93 1291.78 2341.44 1291.61 2340.57 1291.5 2339.31 1291.42L2339.74 1289.57Z" fill="#FF0000" fill-rule="evenodd"/><text fill="#000000" fill-opacity="0" font-family="Arial,Arial_MSFontService,sans-serif" font-size="51.542" x="2314.72" y="1334.35">ğ‘‘</text><path d="M2372.39 1324.36C2371.98 1324.36 2371.5 1324.37 2370.97 1324.39 2370.43 1324.41 2369.91 1324.42 2369.41 1324.42L2366.33 1337.95 2369.41 1337.95C2372.83 1337.95 2375.45 1337.26 2377.28 1335.87 2379.11 1334.48 2380.02 1332.37 2380.02 1329.54 2380.02 1328.59 2379.88 1327.78 2379.6 1327.12 2379.31 1326.46 2378.86 1325.92 2378.24 1325.52 2377.62 1325.11 2376.83 1324.82 2375.87 1324.64 2374.91 1324.45 2373.75 1324.36 2372.39 1324.36ZM2361.47 1321.62 2373.35 1321.62C2375.62 1321.62 2377.52 1321.82 2379.04 1322.22 2380.56 1322.61 2381.77 1323.16 2382.69 1323.86 2383.6 1324.56 2384.25 1325.38 2384.63 1326.33 2385.01 1327.28 2385.2 1328.31 2385.2 1329.41 2385.2 1331.96 2384.42 1334.09 2382.86 1335.8 2381.3 1337.51 2378.93 1338.81 2375.75 1339.71 2375.72 1339.78 2375.7 1339.84 2375.7 1339.89 2375.7 1339.94 2375.7 1340 2375.7 1340.07 2376.51 1340.62 2377.16 1341.32 2377.66 1342.14 2378.15 1342.97 2378.57 1344.07 2378.94 1345.43 2379.35 1347.05 2379.69 1348.36 2379.96 1349.36 2380.23 1350.36 2380.54 1351.15 2380.89 1351.73 2381.24 1352.31 2381.69 1352.73 2382.24 1353 2382.78 1353.27 2383.52 1353.47 2384.45 1353.61L2384.09 1355.19 2376.56 1355.19C2376.25 1354.51 2375.94 1353.69 2375.65 1352.71 2375.36 1351.74 2375.1 1350.79 2374.87 1349.86 2374.53 1348.49 2374.24 1347.31 2374.01 1346.32 2373.77 1345.33 2373.55 1344.49 2373.32 1343.81 2373.1 1343.13 2372.86 1342.59 2372.62 1342.18 2372.38 1341.78 2372.1 1341.45 2371.77 1341.21 2371.44 1340.97 2371.04 1340.81 2370.58 1340.73 2370.11 1340.66 2369.54 1340.6 2368.87 1340.56L2365.79 1340.56C2365.58 1341.48 2365.36 1342.46 2365.12 1343.51 2364.88 1344.57 2364.64 1345.59 2364.41 1346.59 2364.17 1347.59 2363.98 1348.53 2363.82 1349.4 2363.67 1350.27 2363.59 1350.98 2363.59 1351.51 2363.59 1351.87 2363.63 1352.18 2363.72 1352.43 2363.81 1352.68 2363.96 1352.88 2364.17 1353.04 2364.39 1353.19 2364.68 1353.31 2365.05 1353.4 2365.42 1353.49 2365.89 1353.56 2366.46 1353.61L2366.13 1355.19 2355.08 1355.19 2355.36 1353.61C2355.9 1353.52 2356.33 1353.41 2356.67 1353.28 2357 1353.15 2357.31 1352.9 2357.57 1352.53 2357.84 1352.16 2358.09 1351.61 2358.31 1350.86 2358.54 1350.12 2358.79 1349.09 2359.09 1347.76L2363.33 1328.89C2363.5 1328.13 2363.63 1327.46 2363.72 1326.87 2363.81 1326.29 2363.85 1325.8 2363.85 1325.43 2363.85 1324.65 2363.66 1324.1 2363.27 1323.77 2362.88 1323.44 2362.15 1323.27 2361.08 1323.25Z" fill="#FF0000" fill-rule="evenodd"/><text fill="#000000" fill-opacity="0" font-family="Arial,Arial_MSFontService,sans-serif" font-size="33.5649" x="2355.08" y="1350.99">ğ‘…</text><path d="M1737.92 2213.85 1874.89 2213.85 1874.89 2216.15 1737.92 2216.15ZM1742.5 2228.75 1715 2215 1742.5 2201.25ZM1870.31 2201.25 1897.81 2215 1870.31 2228.75Z" fill="#FF0000"/><path d="M1813.63 2294.3C1809.95 2295.87 1807.01 2298.52 1804.81 2302.23 1802.61 2305.95 1801.51 2310.13 1801.51 2314.76 1801.51 2320.3 1803.95 2323.07 1808.82 2323.07 1810.74 2323.07 1812.46 2322.43 1813.99 2321.14 1815.51 2319.86 1816.7 2318.06 1817.57 2315.74 1818.44 2313.43 1818.87 2310.97 1818.87 2308.38 1818.87 2305.58 1818.48 2303.08 1817.69 2300.88 1816.91 2298.68 1815.55 2296.49 1813.63 2294.3ZM1817.3 2274.13C1819.37 2274.13 1821.43 2274.49 1823.48 2275.22 1825.54 2275.94 1827.84 2277.22 1830.38 2279.05L1829.17 2284.75 1825.89 2284.75C1825.06 2282.14 1823.89 2280.18 1822.38 2278.89 1820.87 2277.59 1819.06 2276.94 1816.94 2276.94 1815.35 2276.94 1814.09 2277.35 1813.15 2278.17 1812.21 2278.99 1811.74 2280.06 1811.74 2281.36 1811.74 2282.05 1811.89 2282.74 1812.2 2283.43 1812.51 2284.12 1813.09 2285.04 1813.95 2286.19 1814.81 2287.35 1816.12 2288.97 1817.91 2291.06 1820.07 2293.65 1821.64 2295.78 1822.61 2297.44 1823.59 2299.1 1824.29 2300.79 1824.73 2302.48 1825.17 2304.18 1825.39 2306.09 1825.39 2308.21 1825.39 2311.15 1824.7 2314.03 1823.31 2316.83 1821.92 2319.64 1819.93 2321.84 1817.34 2323.46 1814.75 2325.08 1811.75 2325.88 1808.35 2325.88 1805.34 2325.88 1802.84 2325.39 1800.87 2324.39 1798.9 2323.39 1797.46 2322.04 1796.57 2320.32 1795.68 2318.61 1795.24 2316.64 1795.24 2314.41 1795.24 2309.37 1796.64 2304.96 1799.46 2301.17 1802.28 2297.38 1806.44 2294.33 1811.95 2292.02 1810.08 2289.91 1808.7 2288.08 1807.84 2286.53 1806.97 2284.99 1806.54 2283.53 1806.54 2282.15 1806.54 2280.65 1806.95 2279.3 1807.78 2278.09 1808.62 2276.87 1809.85 2275.91 1811.49 2275.2 1813.13 2274.49 1815.07 2274.13 1817.3 2274.13Z" fill="#FF0000" fill-rule="evenodd"/><text fill="#000000" fill-opacity="0" font-family="Arial,Arial_MSFontService,sans-serif" font-size="51.7559" x="1795.24" y="2319.42">ğ›¿</text><path d="M1859.75 2309.49 1903.67 2309.49 1903.67 2314.23 1859.75 2314.23ZM1859.75 2294.7 1903.67 2294.7 1903.67 2299.44 1859.75 2299.44Z" fill="#FF0000" fill-rule="evenodd"/><text fill="#000000" fill-opacity="0" font-family="Arial,Arial_MSFontService,sans-serif" font-size="19.5332" x="1859.75" y="2311.79">=</text><path d="M2002.08 2290.92 2004.25 2290.92 2004.25 2316.4C2004.25 2318.45 2004.35 2319.87 2004.54 2320.66 2004.73 2321.46 2005.09 2322.06 2005.62 2322.48 2006.16 2322.9 2007.03 2323.26 2008.24 2323.57L2008.24 2325.31 1994.27 2325.31 1994.27 2323.57C1995.2 2323.28 1995.86 2323.03 1996.25 2322.82 1996.64 2322.61 1996.97 2322.31 1997.25 2321.93 1997.52 2321.55 1997.73 2320.97 1997.89 2320.18 1998.04 2319.4 1998.12 2318.17 1998.12 2316.51L1998.12 2300.97C1998.12 2299.45 1998.1 2298.22 1998.05 2297.3 1998 2296.37 1997.84 2295.63 1997.55 2295.07 1997.27 2294.51 1996.83 2294.1 1996.25 2293.82 1995.67 2293.55 1994.84 2293.32 1993.77 2293.13L1993.77 2291.24ZM2036.44 2290.67C2037.73 2290.67 2038.87 2290.82 2039.88 2291.11 2040.89 2291.41 2041.78 2291.87 2042.56 2292.49 2043.33 2293.1 2043.97 2293.87 2044.46 2294.78 2044.96 2295.7 2045.34 2296.8 2045.59 2298.08 2045.84 2299.37 2045.96 2300.99 2045.96 2302.97L2045.96 2316.4C2045.96 2318.04 2046.01 2319.23 2046.1 2319.97 2046.2 2320.7 2046.37 2321.27 2046.6 2321.68 2046.84 2322.08 2047.19 2322.42 2047.64 2322.69 2048.09 2322.97 2048.87 2323.26 2049.99 2323.57L2049.99 2325.31 2035.95 2325.31 2035.95 2323.57C2036.87 2323.28 2037.54 2323.03 2037.94 2322.82 2038.35 2322.61 2038.68 2322.31 2038.96 2321.93 2039.23 2321.55 2039.44 2320.96 2039.6 2320.16 2039.75 2319.37 2039.83 2318.16 2039.83 2316.55L2039.83 2307.21C2039.83 2305.54 2039.78 2304.03 2039.69 2302.68 2039.59 2301.33 2039.43 2300.21 2039.21 2299.35 2038.98 2298.48 2038.71 2297.8 2038.39 2297.32 2038.07 2296.83 2037.69 2296.41 2037.25 2296.07 2036.81 2295.72 2036.3 2295.45 2035.73 2295.25 2035.16 2295.05 2034.41 2294.95 2033.49 2294.95 2032.56 2294.95 2031.68 2295.13 2030.85 2295.5 2030.02 2295.87 2029.1 2296.5 2028.1 2297.4 2027.11 2298.31 2026.38 2299.2 2025.93 2300.08 2025.48 2300.96 2025.25 2301.97 2025.25 2303.11L2025.25 2316.4C2025.25 2318.45 2025.35 2319.87 2025.54 2320.66 2025.73 2321.46 2026.09 2322.06 2026.62 2322.48 2027.16 2322.9 2028.03 2323.26 2029.24 2323.57L2029.24 2325.31 2015.27 2325.31 2015.27 2323.57C2016.2 2323.28 2016.86 2323.03 2017.25 2322.82 2017.64 2322.61 2017.97 2322.31 2018.25 2321.93 2018.52 2321.55 2018.73 2320.97 2018.89 2320.18 2019.04 2319.4 2019.12 2318.17 2019.12 2316.51L2019.12 2300.97C2019.12 2299.45 2019.1 2298.22 2019.05 2297.3 2019 2296.37 2018.84 2295.63 2018.55 2295.07 2018.27 2294.51 2017.83 2294.1 2017.25 2293.82 2016.67 2293.55 2015.84 2293.32 2014.77 2293.13L2014.77 2291.24 2023.11 2290.92 2025.29 2290.92 2024.9 2296.73 2025.39 2296.87C2027.15 2295.09 2028.57 2293.82 2029.65 2293.06 2030.74 2292.3 2031.83 2291.71 2032.93 2291.29 2034.04 2290.88 2035.21 2290.67 2036.44 2290.67ZM1954.27 2290.67C1956.64 2290.67 1958.58 2291.21 1960.08 2292.31 1961.57 2293.4 1962.61 2295.08 1963.18 2297.33 1964.96 2295.53 1966.4 2294.2 1967.51 2293.34 1968.61 2292.49 1969.74 2291.83 1970.89 2291.36 1972.05 2290.9 1973.29 2290.67 1974.62 2290.67 1976.21 2290.67 1977.58 2290.9 1978.74 2291.36 1979.89 2291.83 1980.86 2292.54 1981.66 2293.5 1982.45 2294.46 1983.04 2295.67 1983.41 2297.12 1983.77 2298.57 1983.96 2300.52 1983.96 2302.97L1983.96 2316.4C1983.96 2318.21 1984.02 2319.46 1984.14 2320.15 1984.25 2320.84 1984.43 2321.37 1984.65 2321.75 1984.88 2322.13 1985.22 2322.46 1985.67 2322.73 1986.12 2323 1986.88 2323.28 1987.95 2323.57L1987.95 2325.31 1973.94 2325.31 1973.94 2323.57C1974.87 2323.28 1975.53 2323.03 1975.94 2322.82 1976.34 2322.61 1976.68 2322.31 1976.95 2321.93 1977.23 2321.55 1977.44 2320.96 1977.6 2320.16 1977.75 2319.37 1977.83 2318.16 1977.83 2316.55L1977.83 2307.21C1977.83 2305.19 1977.77 2303.52 1977.67 2302.2 1977.56 2300.88 1977.39 2299.83 1977.17 2299.04 1976.94 2298.26 1976.67 2297.64 1976.35 2297.19 1976.03 2296.74 1975.66 2296.35 1975.26 2296.01 1974.86 2295.68 1974.38 2295.42 1973.83 2295.23 1973.29 2295.04 1972.56 2294.95 1971.66 2294.95 1970.71 2294.95 1969.82 2295.14 1969.01 2295.52 1968.19 2295.9 1967.29 2296.54 1966.33 2297.44 1965.37 2298.34 1964.67 2299.25 1964.25 2300.17 1963.82 2301.08 1963.6 2302.16 1963.6 2303.39L1963.6 2316.4C1963.6 2318.21 1963.66 2319.46 1963.78 2320.15 1963.9 2320.84 1964.07 2321.37 1964.3 2321.75 1964.53 2322.13 1964.86 2322.46 1965.32 2322.73 1965.77 2323 1966.53 2323.28 1967.6 2323.57L1967.6 2325.31 1953.59 2325.31 1953.59 2323.57C1954.52 2323.28 1955.18 2323.03 1955.58 2322.82 1955.99 2322.61 1956.33 2322.31 1956.6 2321.93 1956.87 2321.55 1957.09 2320.96 1957.24 2320.16 1957.4 2319.37 1957.47 2318.16 1957.47 2316.55L1957.47 2307.21C1957.47 2305.09 1957.41 2303.37 1957.3 2302.04 1957.18 2300.71 1956.99 2299.64 1956.74 2298.83 1956.49 2298.02 1956.17 2297.37 1955.78 2296.87 1955.39 2296.37 1954.99 2295.99 1954.59 2295.73 1954.18 2295.47 1953.71 2295.27 1953.16 2295.14 1952.61 2295.01 1952 2294.95 1951.31 2294.95 1950.33 2294.95 1949.42 2295.17 1948.56 2295.6 1947.71 2296.04 1946.83 2296.68 1945.94 2297.51 1945.05 2298.34 1944.38 2299.21 1943.93 2300.11 1943.48 2301.02 1943.25 2301.99 1943.25 2303.04L1943.25 2316.4C1943.25 2317.76 1943.29 2318.79 1943.36 2319.5 1943.43 2320.22 1943.54 2320.78 1943.7 2321.18 1943.85 2321.58 1944.05 2321.91 1944.29 2322.16 1944.52 2322.41 1944.86 2322.65 1945.3 2322.87 1945.74 2323.1 1946.4 2323.33 1947.28 2323.57L1947.28 2325.31 1933.31 2325.31 1933.31 2323.57C1934.21 2323.28 1934.86 2323.03 1935.25 2322.82 1935.64 2322.61 1935.98 2322.31 1936.27 2321.93 1936.55 2321.55 1936.76 2320.97 1936.91 2320.18 1937.05 2319.4 1937.12 2318.17 1937.12 2316.51L1937.12 2300.97C1937.12 2299.45 1937.1 2298.22 1937.05 2297.3 1937 2296.37 1936.84 2295.63 1936.55 2295.07 1936.27 2294.51 1935.83 2294.1 1935.25 2293.82 1934.67 2293.55 1933.84 2293.32 1932.77 2293.13L1932.77 2291.24 1941.11 2290.92 1943.29 2290.92 1942.9 2296.73 1943.39 2296.87C1944.82 2295.44 1945.99 2294.37 1946.91 2293.64 1947.82 2292.92 1948.71 2292.34 1949.56 2291.9 1950.42 2291.46 1951.22 2291.14 1951.97 2290.95 1952.72 2290.76 1953.48 2290.67 1954.27 2290.67ZM1997.91 2277.27 2004.47 2277.27 2004.47 2284.18 1997.91 2284.18Z" fill="#FF0000" fill-rule="evenodd"/><text fill="#000000" fill-opacity="0" font-family="Arial,Arial_MSFontService,sans-serif" font-size="48.0488" x="1932.77" y="2319.31">min</text><path d="M2080.4 2273.81 2081.36 2276.55C2075.8 2278.38 2071.68 2281.95 2069.01 2287.26 2066.34 2292.57 2065 2299.25 2065 2307.28 2065 2315.6 2066.34 2322.45 2069.01 2327.85 2071.68 2333.24 2075.77 2336.85 2081.25 2338.68L2080.4 2341.43C2073.44 2339.6 2068.1 2335.66 2064.39 2329.61 2060.69 2323.56 2058.83 2316.24 2058.83 2307.63 2058.83 2299.06 2060.69 2291.73 2064.41 2285.66 2068.13 2279.59 2073.46 2275.64 2080.4 2273.81Z" fill="#FF0000" fill-rule="evenodd"/><text fill="#000000" fill-opacity="0" font-family="Arial,Arial_MSFontService,sans-serif" font-size="67.6177" x="2058.83" y="2332.97">(</text><path d="M2105.56 2293.45C2103.14 2293.45 2100.96 2294.43 2099.04 2296.39 2097.11 2298.35 2095.6 2300.99 2094.49 2304.32 2093.39 2307.65 2092.83 2310.96 2092.83 2314.26 2092.83 2316.74 2093.17 2318.58 2093.85 2319.81 2094.53 2321.03 2095.66 2321.64 2097.25 2321.64 2097.99 2321.64 2098.74 2321.48 2099.5 2321.16 2100.26 2320.84 2101.05 2320.32 2101.87 2319.61 2102.69 2318.9 2103.5 2318.03 2104.29 2317.01 2105.09 2315.99 2105.82 2314.96 2106.49 2313.93 2107.15 2312.89 2107.77 2311.67 2108.34 2310.25 2108.91 2308.84 2109.4 2307.14 2109.8 2305.14L2110.12 2303.61C2110.48 2301.9 2110.66 2300.28 2110.66 2298.76 2110.66 2296.91 2110.26 2295.56 2109.48 2294.71 2108.7 2293.87 2107.39 2293.45 2105.56 2293.45ZM2120.49 2274.34 2122.6 2274.34 2113.72 2313.8C2113.2 2316.13 2112.94 2317.89 2112.94 2319.08 2112.94 2320.03 2113.09 2320.72 2113.4 2321.14 2113.71 2321.57 2114.2 2321.79 2114.86 2321.79 2115.58 2321.79 2116.34 2321.49 2117.14 2320.91 2117.95 2320.33 2119.09 2319.22 2120.57 2317.58L2122.6 2319.58C2120.41 2321.88 2118.57 2323.51 2117.07 2324.46 2115.58 2325.41 2113.96 2325.88 2112.22 2325.88 2110.75 2325.88 2109.58 2325.4 2108.7 2324.42 2107.82 2323.45 2107.38 2322.15 2107.38 2320.54 2107.38 2319.23 2107.65 2317.84 2108.2 2316.37L2107.73 2316.23C2105.45 2319.55 2103.29 2321.99 2101.25 2323.53 2099.2 2325.08 2097.04 2325.85 2094.76 2325.85 2092.15 2325.85 2090.12 2324.86 2088.68 2322.89 2087.24 2320.92 2086.53 2318.15 2086.53 2314.59 2086.53 2310.5 2087.33 2306.57 2088.93 2302.8 2090.54 2299.04 2092.74 2296.07 2095.54 2293.89 2098.35 2291.72 2101.47 2290.63 2104.92 2290.63 2106.37 2290.63 2107.7 2290.78 2108.93 2291.08 2110.15 2291.38 2111.41 2291.89 2112.69 2292.63L2114.54 2284.39C2114.73 2283.61 2114.9 2282.74 2115.04 2281.79 2115.18 2280.84 2115.25 2280.01 2115.25 2279.3 2115.25 2278.58 2115.12 2278.04 2114.86 2277.68 2114.6 2277.31 2114.23 2277.04 2113.74 2276.87 2113.25 2276.71 2112.38 2276.59 2111.12 2276.52L2111.55 2274.66Z" fill="#FF0000" fill-rule="evenodd"/><text fill="#000000" fill-opacity="0" font-family="Arial,Arial_MSFontService,sans-serif" font-size="51.542" x="2086.53" y="2319.44">ğ‘‘</text><path d="M2133.28 2306.71 2144.2 2306.71 2143.91 2308.27C2143.31 2308.42 2142.83 2308.56 2142.48 2308.67 2142.12 2308.78 2141.82 2309.02 2141.57 2309.38 2141.32 2309.74 2141.1 2310.28 2140.9 2311 2140.7 2311.71 2140.45 2312.76 2140.14 2314.14L2134.88 2337.54 2141.64 2337.54C2142.59 2337.54 2143.41 2337.45 2144.1 2337.29 2144.79 2337.13 2145.42 2336.78 2146.01 2336.25 2146.6 2335.73 2147.16 2334.98 2147.71 2334.02 2148.25 2333.05 2148.85 2331.76 2149.5 2330.16L2152.35 2330.16 2149.69 2340.28 2126.89 2340.28 2127.17 2338.7C2127.71 2338.61 2128.15 2338.51 2128.49 2338.38 2128.84 2338.25 2129.14 2338 2129.41 2337.63 2129.68 2337.26 2129.92 2336.7 2130.13 2335.96 2130.35 2335.22 2130.6 2334.18 2130.9 2332.85L2135.14 2313.99C2135.31 2313.23 2135.44 2312.55 2135.53 2311.97 2135.62 2311.38 2135.66 2310.88 2135.66 2310.47 2135.66 2309.71 2135.46 2309.17 2135.06 2308.85 2134.67 2308.53 2133.94 2308.36 2132.89 2308.34Z" fill="#FF0000" fill-rule="evenodd"/><text fill="#000000" fill-opacity="0" font-family="Arial,Arial_MSFontService,sans-serif" font-size="33.5649" x="2126.89" y="2336.08">ğ¿</text><path d="M2163.67 2317.04 2169.9 2317.04C2170.24 2318.71 2170.4 2320.35 2170.4 2321.96 2170.4 2323.63 2170.12 2325.15 2169.55 2326.53 2168.98 2327.9 2168.07 2329.28 2166.82 2330.64 2165.57 2332.01 2163.86 2333.51 2161.67 2335.15L2159.74 2332.98C2160.96 2331.84 2161.84 2330.81 2162.38 2329.89 2162.93 2328.98 2163.32 2327.94 2163.56 2326.78 2163.8 2325.61 2163.91 2324.15 2163.91 2322.39 2163.91 2320.59 2163.83 2318.8 2163.67 2317.04Z" fill="#FF0000" fill-rule="evenodd"/><text fill="#000000" fill-opacity="0" font-family="Arial,Arial_MSFontService,sans-serif" font-size="18.1074" x="2159.74" y="2332.89">,</text><path d="M2208.78 2293.45C2206.35 2293.45 2204.18 2294.43 2202.25 2296.39 2200.33 2298.35 2198.81 2300.99 2197.71 2304.32 2196.6 2307.65 2196.05 2310.96 2196.05 2314.26 2196.05 2316.74 2196.39 2318.58 2197.07 2319.81 2197.74 2321.03 2198.88 2321.64 2200.47 2321.64 2201.21 2321.64 2201.96 2321.48 2202.72 2321.16 2203.48 2320.84 2204.27 2320.32 2205.09 2319.61 2205.91 2318.9 2206.71 2318.03 2207.51 2317.01 2208.31 2315.99 2209.04 2314.96 2209.7 2313.93 2210.37 2312.89 2210.99 2311.67 2211.56 2310.25 2212.13 2308.84 2212.61 2307.14 2213.02 2305.14L2213.34 2303.61C2213.7 2301.9 2213.87 2300.28 2213.87 2298.76 2213.87 2296.91 2213.48 2295.56 2212.7 2294.71 2211.91 2293.87 2210.61 2293.45 2208.78 2293.45ZM2223.71 2274.34 2225.81 2274.34 2216.94 2313.8C2216.42 2316.13 2216.15 2317.89 2216.15 2319.08 2216.15 2320.03 2216.31 2320.72 2216.62 2321.14 2216.93 2321.57 2217.41 2321.79 2218.08 2321.79 2218.79 2321.79 2219.55 2321.49 2220.36 2320.91 2221.17 2320.33 2222.31 2319.22 2223.78 2317.58L2225.81 2319.58C2223.63 2321.88 2221.79 2323.51 2220.29 2324.46 2218.79 2325.41 2217.18 2325.88 2215.44 2325.88 2213.97 2325.88 2212.79 2325.4 2211.91 2324.42 2211.03 2323.45 2210.59 2322.15 2210.59 2320.54 2210.59 2319.23 2210.87 2317.84 2211.41 2316.37L2210.95 2316.23C2208.67 2319.55 2206.51 2321.99 2204.46 2323.53 2202.42 2325.08 2200.26 2325.85 2197.98 2325.85 2195.36 2325.85 2193.34 2324.86 2191.9 2322.89 2190.46 2320.92 2189.74 2318.15 2189.74 2314.59 2189.74 2310.5 2190.54 2306.57 2192.15 2302.8 2193.75 2299.04 2195.96 2296.07 2198.76 2293.89 2201.56 2291.72 2204.69 2290.63 2208.13 2290.63 2209.58 2290.63 2210.92 2290.78 2212.14 2291.08 2213.37 2291.38 2214.62 2291.89 2215.91 2292.63L2217.76 2284.39C2217.95 2283.61 2218.11 2282.74 2218.26 2281.79 2218.4 2280.84 2218.47 2280.01 2218.47 2279.3 2218.47 2278.58 2218.34 2278.04 2218.08 2277.68 2217.82 2277.31 2217.44 2277.04 2216.96 2276.87 2216.47 2276.71 2215.6 2276.59 2214.34 2276.52L2214.76 2274.66Z" fill="#FF0000" fill-rule="evenodd"/><text fill="#000000" fill-opacity="0" font-family="Arial,Arial_MSFontService,sans-serif" font-size="51.542" x="2189.74" y="2319.44">ğ‘‘</text><path d="M2247.42 2309.46C2247 2309.46 2246.53 2309.47 2245.99 2309.48 2245.46 2309.5 2244.94 2309.51 2244.44 2309.51L2241.36 2323.04 2244.44 2323.04C2247.86 2323.04 2250.48 2322.35 2252.31 2320.96 2254.14 2319.57 2255.05 2317.46 2255.05 2314.63 2255.05 2313.68 2254.91 2312.88 2254.62 2312.21 2254.34 2311.55 2253.89 2311.01 2253.26 2310.61 2252.64 2310.2 2251.85 2309.91 2250.9 2309.73 2249.94 2309.55 2248.78 2309.46 2247.42 2309.46ZM2236.5 2306.71 2248.37 2306.71C2250.65 2306.71 2252.55 2306.91 2254.07 2307.31 2255.59 2307.71 2256.8 2308.25 2257.72 2308.95 2258.63 2309.65 2259.28 2310.48 2259.66 2311.42 2260.04 2312.37 2260.23 2313.4 2260.23 2314.5 2260.23 2317.06 2259.45 2319.19 2257.88 2320.9 2256.32 2322.6 2253.95 2323.91 2250.78 2324.8 2250.75 2324.87 2250.73 2324.93 2250.73 2324.98 2250.73 2325.04 2250.73 2325.1 2250.73 2325.17 2251.54 2325.72 2252.19 2326.41 2252.68 2327.24 2253.17 2328.06 2253.6 2329.16 2253.96 2330.52 2254.38 2332.14 2254.72 2333.46 2254.99 2334.46 2255.25 2335.46 2255.56 2336.25 2255.92 2336.82 2256.27 2337.4 2256.72 2337.82 2257.26 2338.09 2257.81 2338.36 2258.54 2338.56 2259.48 2338.7L2259.11 2340.28 2251.58 2340.28C2251.27 2339.61 2250.97 2338.78 2250.68 2337.81 2250.38 2336.83 2250.12 2335.88 2249.9 2334.95 2249.56 2333.58 2249.27 2332.41 2249.03 2331.42 2248.8 2330.42 2248.57 2329.59 2248.35 2328.91 2248.12 2328.22 2247.89 2327.68 2247.65 2327.27 2247.41 2326.87 2247.12 2326.55 2246.79 2326.3 2246.47 2326.06 2246.07 2325.9 2245.6 2325.83 2245.14 2325.75 2244.57 2325.69 2243.9 2325.66L2240.82 2325.66C2240.61 2326.57 2240.39 2327.56 2240.14 2328.61 2239.9 2329.66 2239.67 2330.69 2239.43 2331.69 2239.2 2332.69 2239.01 2333.62 2238.85 2334.5 2238.69 2335.37 2238.62 2336.07 2238.62 2336.6 2238.62 2336.97 2238.66 2337.27 2238.75 2337.52 2238.83 2337.77 2238.98 2337.98 2239.2 2338.13 2239.42 2338.29 2239.71 2338.41 2240.08 2338.49 2240.45 2338.58 2240.92 2338.65 2241.49 2338.7L2241.15 2340.28 2230.1 2340.28 2230.39 2338.7C2230.92 2338.61 2231.36 2338.51 2231.69 2338.38 2232.03 2338.25 2232.33 2338 2232.6 2337.63 2232.87 2337.26 2233.11 2336.7 2233.34 2335.96 2233.56 2335.22 2233.82 2334.18 2234.11 2332.85L2238.36 2313.99C2238.53 2313.23 2238.66 2312.55 2238.75 2311.97 2238.83 2311.38 2238.88 2310.9 2238.88 2310.52 2238.88 2309.74 2238.68 2309.19 2238.29 2308.86 2237.91 2308.53 2237.18 2308.36 2236.11 2308.34Z" fill="#FF0000" fill-rule="evenodd"/><text fill="#000000" fill-opacity="0" font-family="Arial,Arial_MSFontService,sans-serif" font-size="33.5649" x="2230.1" y="2336.08">ğ‘…</text><path d="M2270.33 2273.81C2277.27 2275.64 2282.6 2279.59 2286.32 2285.66 2290.04 2291.73 2291.9 2299.06 2291.9 2307.63 2291.9 2316.24 2290.05 2323.56 2286.34 2329.61 2282.63 2335.66 2277.3 2339.6 2270.33 2341.43L2269.48 2338.68C2274.97 2336.85 2279.05 2333.24 2281.72 2327.85 2284.4 2322.45 2285.73 2315.6 2285.73 2307.28 2285.73 2299.25 2284.4 2292.57 2281.74 2287.26 2279.08 2281.95 2274.96 2278.38 2269.37 2276.55Z" fill="#FF0000" fill-rule="evenodd"/><text fill="#000000" fill-opacity="0" font-family="Arial,Arial_MSFontService,sans-serif" font-size="67.6177" x="2269.37" y="2332.97">)</text><path d="M1596 1649.5C1596 1638.73 1604.73 1630 1615.5 1630 1626.27 1630 1635 1638.73 1635 1649.5 1635 1660.27 1626.27 1669 1615.5 1669 1604.73 1669 1596 1660.27 1596 1649.5Z" fill-rule="evenodd"/><path d="M1829 1770.5C1829 1759.73 1837.73 1751 1848.5 1751 1859.27 1751 1868 1759.73 1868 1770.5 1868 1781.27 1859.27 1790 1848.5 1790 1837.73 1790 1829 1781.27 1829 1770.5Z" fill-rule="evenodd"/><path d="M1533 1989.5C1533 1978.73 1541.73 1970 1552.5 1970 1563.27 1970 1572 1978.73 1572 1989.5 1572 2000.27 1563.27 2009 1552.5 2009 1541.73 2009 1533 2000.27 1533 1989.5Z" fill-rule="evenodd"/></g></svg>