<svg width="3450" height="1258" xmlns="http://www.w3.org/2000/svg" xmlns:xlink="http://www.w3.org/1999/xlink" overflow="hidden"><defs><clipPath id="clip0"><rect x="167" y="158" width="3450" height="1258"/></clipPath></defs><g clip-path="url(#clip0)" transform="translate(-167 -158)"><path d="M300.809 166.833 1900.81 166.833 1900.81 300.667 300.809 300.667Z" fill="#BDD7EE" fill-rule="evenodd"/><path d="M567.476 300.667 1367.48 300.667 1367.48 434.5 567.476 434.5Z" fill="#C5E0B4" fill-rule="evenodd"/><path d="M1100.81 434.5 1634.14 434.5 1634.14 568.333 1100.81 568.333Z" fill="#BDD7EE" fill-rule="evenodd"/><path d="M1100.81 568.333 2434.14 568.333 2434.14 702.167 1100.81 702.167Z" fill="#C5E0B4" fill-rule="evenodd"/><path d="M1367.48 702.167 2167.48 702.167 2167.48 836 1367.48 836Z" fill="#BDD7EE" fill-rule="evenodd"/><path d="M1634.14 836 2700.81 836 2700.81 969.833 1634.14 969.833Z" fill="#C5E0B4" fill-rule="evenodd"/><path d="M1900.81 969.833 2967.48 969.833 2967.48 1103.67 1900.81 1103.67Z" fill="#BDD7EE" fill-rule="evenodd"/><path d="M2434.14 1103.67 3234.14 1103.67 3234.14 1237.5 2434.14 1237.5Z" fill="#C5E0B4" fill-rule="evenodd"/><path d="M567.476 295.511 567.476 439.656" stroke="#FFFFFF" stroke-width="10.3125" stroke-linejoin="round" stroke-miterlimit="10" fill="none" fill-rule="evenodd"/><path d="M567.476 439.656 567.476 1237.5" stroke="#000000" stroke-width="4.58333" stroke-linejoin="round" stroke-miterlimit="10" stroke-dasharray="18.3333 13.75" fill="none" fill-rule="evenodd"/><path d="M834.142 429.344 834.142 1237.5" stroke="#000000" stroke-width="4.58333" stroke-linejoin="round" stroke-miterlimit="10" stroke-dasharray="18.3333 13.75" fill="none" fill-rule="evenodd"/><path d="M1100.81 429.344 1100.81 707.323" stroke="#FFFFFF" stroke-width="10.3125" stroke-linejoin="round" stroke-miterlimit="10" fill="none" fill-rule="evenodd"/><path d="M1100.81 707.323 1100.81 1237.5" stroke="#000000" stroke-width="4.58333" stroke-linejoin="round" stroke-miterlimit="10" stroke-dasharray="18.3333 13.75" fill="none" fill-rule="evenodd"/><path d="M1367.48 295.511 1367.48 439.656" stroke="#FFFFFF" stroke-width="10.3125" stroke-linejoin="round" stroke-miterlimit="10" fill="none" fill-rule="evenodd"/><path d="M1367.48 697.011 1367.48 841.156" stroke="#FFFFFF" stroke-width="10.3125" stroke-linejoin="round" stroke-miterlimit="10" fill="none" fill-rule="evenodd"/><path d="M1367.48 841.156 1367.48 1237.5" stroke="#000000" stroke-width="4.58333" stroke-linejoin="round" stroke-miterlimit="10" stroke-dasharray="18.3333 13.75" fill="none" fill-rule="evenodd"/><path d="M1634.14 295.511 1634.14 429.344" stroke="#000000" stroke-width="4.58333" stroke-linejoin="round" stroke-miterlimit="10" stroke-dasharray="18.3333 13.75" fill="none" fill-rule="evenodd"/><path d="M1634.14 429.344 1634.14 573.489" stroke="#FFFFFF" stroke-width="10.3125" stroke-linejoin="round" stroke-miterlimit="10" fill="none" fill-rule="evenodd"/><path d="M1634.14 830.844 1634.14 974.989" stroke="#FFFFFF" stroke-width="10.3125" stroke-linejoin="round" stroke-miterlimit="10" fill="none" fill-rule="evenodd"/><path d="M1634.14 974.989 1634.14 1237.5" stroke="#000000" stroke-width="4.58333" stroke-linejoin="round" stroke-miterlimit="10" stroke-dasharray="18.3333 13.75" fill="none" fill-rule="evenodd"/><path d="M1900.81 161.677 1900.81 305.823" stroke="#FFFFFF" stroke-width="10.3125" stroke-linejoin="round" stroke-miterlimit="10" fill="none" fill-rule="evenodd"/><path d="M1900.81 305.823 1900.81 573.489" stroke="#000000" stroke-width="4.58333" stroke-linejoin="round" stroke-miterlimit="10" stroke-dasharray="18.3333 13.75" fill="none" fill-rule="evenodd"/><path d="M1900.81 964.677 1900.81 1108.82" stroke="#FFFFFF" stroke-width="10.3125" stroke-linejoin="round" stroke-miterlimit="10" fill="none" fill-rule="evenodd"/><path d="M1900.81 1108.82 1900.81 1237.5" stroke="#000000" stroke-width="4.58333" stroke-linejoin="round" stroke-miterlimit="10" stroke-dasharray="18.3333 13.75" fill="none" fill-rule="evenodd"/><path d="M2167.48 166.833 2167.48 573.489" stroke="#000000" stroke-width="4.58333" stroke-linejoin="round" stroke-miterlimit="10" stroke-dasharray="18.3333 13.75" fill="none" fill-rule="evenodd"/><path d="M2167.48 697.011 2167.48 841.156" stroke="#FFFFFF" stroke-width="10.3125" stroke-linejoin="round" stroke-miterlimit="10" fill="none" fill-rule="evenodd"/><path d="M2167.48 1098.51 2167.48 1237.5" stroke="#000000" stroke-width="4.58333" stroke-linejoin="round" stroke-miterlimit="10" stroke-dasharray="18.3333 13.75" fill="none" fill-rule="evenodd"/><path d="M2434.14 166.833 2434.14 563.177" stroke="#000000" stroke-width="4.58333" stroke-linejoin="round" stroke-miterlimit="10" stroke-dasharray="18.3333 13.75" fill="none" fill-rule="evenodd"/><path d="M2434.14 563.177 2434.14 707.323" stroke="#FFFFFF" stroke-width="10.3125" stroke-linejoin="round" stroke-miterlimit="10" fill="none" fill-rule="evenodd"/><path d="M2434.14 707.323 2434.14 841.156" stroke="#000000" stroke-width="4.58333" stroke-linejoin="round" stroke-miterlimit="10" stroke-dasharray="18.3333 13.75" fill="none" fill-rule="evenodd"/><path d="M2434.14 1098.51 2434.14 1242.66" stroke="#FFFFFF" stroke-width="10.3125" stroke-linejoin="round" stroke-miterlimit="10" fill="none" fill-rule="evenodd"/><path d="M2700.81 166.833 2700.81 830.844" stroke="#000000" stroke-width="4.58333" stroke-linejoin="round" stroke-miterlimit="10" stroke-dasharray="18.3333 13.75" fill="none" fill-rule="evenodd"/><path d="M2700.81 830.844 2700.81 974.989" stroke="#FFFFFF" stroke-width="10.3125" stroke-linejoin="round" stroke-miterlimit="10" fill="none" fill-rule="evenodd"/><path d="M2967.48 166.833 2967.48 964.677" stroke="#000000" stroke-width="4.58333" stroke-linejoin="round" stroke-miterlimit="10" stroke-dasharray="18.3333 13.75" fill="none" fill-rule="evenodd"/><path d="M2967.48 964.677 2967.48 1108.82" stroke="#FFFFFF" stroke-width="10.3125" stroke-linejoin="round" stroke-miterlimit="10" fill="none" fill-rule="evenodd"/><path d="M295.653 300.667 1905.97 300.667" stroke="#FFFFFF" stroke-width="10.3125" stroke-linejoin="round" stroke-miterlimit="10" fill="none" fill-rule="evenodd"/><path d="M562.32 434.5 1639.3 434.5" stroke="#FFFFFF" stroke-width="10.3125" stroke-linejoin="round" stroke-miterlimit="10" fill="none" fill-rule="evenodd"/><path d="M1095.65 568.333 2439.3 568.333" stroke="#FFFFFF" stroke-width="10.3125" stroke-linejoin="round" stroke-miterlimit="10" fill="none" fill-rule="evenodd"/><path d="M1095.65 702.167 2439.3 702.167" stroke="#FFFFFF" stroke-width="10.3125" stroke-linejoin="round" stroke-miterlimit="10" fill="none" fill-rule="evenodd"/><path d="M1362.32 836 2705.96 836" stroke="#FFFFFF" stroke-width="10.3125" stroke-linejoin="round" stroke-miterlimit="10" fill="none" fill-rule="evenodd"/><path d="M1628.99 969.833 2972.63 969.833" stroke="#FFFFFF" stroke-width="10.3125" stroke-linejoin="round" stroke-miterlimit="10" fill="none" fill-rule="evenodd"/><path d="M1895.65 1103.67 3239.3 1103.67" stroke="#FFFFFF" stroke-width="10.3125" stroke-linejoin="round" stroke-miterlimit="10" fill="none" fill-rule="evenodd"/><path d="M300.809 161.677 300.809 305.823" stroke="#FFFFFF" stroke-width="10.3125" stroke-linejoin="round" stroke-miterlimit="10" fill="none" fill-rule="evenodd"/><path d="M300.809 305.823 300.809 1237.5" stroke="#000000" stroke-width="4.58333" stroke-linejoin="round" stroke-miterlimit="10" stroke-dasharray="18.3333 13.75" fill="none" fill-rule="evenodd"/><path d="M3234.14 166.833 3234.14 1098.51" stroke="#000000" stroke-width="4.58333" stroke-linejoin="round" stroke-miterlimit="10" stroke-dasharray="18.3333 13.75" fill="none" fill-rule="evenodd"/><path d="M3234.14 1098.51 3234.14 1242.66" stroke="#FFFFFF" stroke-width="10.3125" stroke-linejoin="round" stroke-miterlimit="10" fill="none" fill-rule="evenodd"/><path d="M295.653 166.833 1905.97 166.833" stroke="#FFFFFF" stroke-width="10.3125" stroke-linejoin="round" stroke-miterlimit="10" fill="none" fill-rule="evenodd"/><path d="M2428.99 1237.5 3239.3 1237.5" stroke="#FFFFFF" stroke-width="10.3125" stroke-linejoin="round" stroke-miterlimit="10" fill="none" fill-rule="evenodd"/><text font-family="Calibri,Calibri_MSFontService,sans-serif" font-weight="400" font-size="83" transform="matrix(1 0 0 1 1079.9 260)">1<tspan font-size="83" x="-133.333" y="134">2</tspan><tspan font-size="83" x="266.667" y="268">3</tspan><tspan font-size="83" x="666.667" y="402">4</tspan><tspan font-size="83" x="666.667" y="536">5</tspan><tspan font-size="83" x="1066.67" y="669">6</tspan><tspan font-size="83" x="1333.33" y="803">7</tspan><tspan font-size="83" x="1733.33" y="937">8</tspan><tspan font-size="83" x="-799.982" y="1084">0</tspan><tspan font-size="83" x="-533.319" y="1084">1</tspan><tspan font-size="83" x="-266.656" y="1084">2</tspan><tspan font-size="83" x="0.0078125" y="1084">3</tspan><tspan font-size="83" x="266.671" y="1084">4</tspan><tspan font-size="83" x="533.335" y="1084">5</tspan><tspan font-size="83" x="799.998" y="1084">6</tspan><tspan font-size="83" x="1066.66" y="1084">7</tspan><tspan font-size="83" x="1333.32" y="1084">8</tspan><tspan font-size="83" x="1599.99" y="1084">9</tspan><tspan font-size="83" x="1845.74" y="1084">10</tspan><tspan font-size="83" x="2112.4" y="1084">11</tspan></text><path d="M221 1231.12 3303.54 1231.13 3303.54 1244.88 221 1244.87ZM3303.54 1238 3276.04 1203.63 3344.79 1238 3276.04 1272.38Z"/><text font-family="Calibri,Calibri_MSFontService,sans-serif" font-weight="400" font-size="83" transform="matrix(1 0 0 1 3400.46 1264)">Time</text></g></svg>