<svg width="3583" height="2061" xmlns="http://www.w3.org/2000/svg" xmlns:xlink="http://www.w3.org/1999/xlink" overflow="hidden"><defs><clipPath id="clip0"><rect x="53" y="158" width="3583" height="2061"/></clipPath></defs><g clip-path="url(#clip0)" transform="translate(-53 -158)"><path d="M300.811 166.833 752.093 166.833 752.093 300.667 300.811 300.667Z" fill="#BDD7EE" fill-rule="evenodd"/><path d="M300.811 300.667 1429.01 300.667 1429.01 434.5 300.811 434.5Z" fill="#C5E0B4" fill-rule="evenodd"/><path d="M300.811 434.5 752.093 434.5 752.093 568.333 300.811 568.333Z" fill="#BDD7EE" fill-rule="evenodd"/><path d="M977.733 568.333 1429.01 568.333 1429.01 702.167 977.733 702.167Z" fill="#C5E0B4" fill-rule="evenodd"/><path d="M977.733 702.167 2331.58 702.167 2331.58 836 977.733 836Z" fill="#BDD7EE" fill-rule="evenodd"/><path d="M1880.3 836 2557.22 836 2557.22 969.833 1880.3 969.833Z" fill="#C5E0B4" fill-rule="evenodd"/><path d="M1880.3 969.833 2557.22 969.833 2557.22 1103.67 1880.3 1103.67Z" fill="#BDD7EE" fill-rule="evenodd"/><path d="M2331.58 1103.67 3234.14 1103.67 3234.14 1237.5 2331.58 1237.5Z" fill="#C5E0B4" fill-rule="evenodd"/><path d="M2782.86 1237.5 3234.14 1237.5 3234.14 1371.33 2782.86 1371.33Z" fill="#BDD7EE" fill-rule="evenodd"/><path d="M2782.86 1371.33 3234.14 1371.33 3234.14 1505.17 2782.86 1505.17Z" fill="#C5E0B4" fill-rule="evenodd"/><path d="M300.811 1639 752.093 1639 752.093 1772.83 300.811 1772.83Z" fill="#C5E0B4" fill-rule="evenodd"/><path d="M977.733 1639 1429.01 1639 1429.01 1772.83 977.733 1772.83Z" fill="#C5E0B4" fill-rule="evenodd"/><path d="M1880.3 1639 2557.22 1639 2557.22 1772.83 1880.3 1772.83Z" fill="#C5E0B4" fill-rule="evenodd"/><path d="M2782.86 1639 3234.14 1639 3234.14 1772.83 2782.86 1772.83Z" fill="#C5E0B4" fill-rule="evenodd"/><path d="M300.811 1772.83 1429.01 1772.83 1429.01 1906.67 300.811 1906.67Z" fill="#F8CBAD" fill-rule="evenodd"/><path d="M1880.3 1772.83 2557.22 1772.83 2557.22 1906.67 1880.3 1906.67Z" fill="#F8CBAD" fill-rule="evenodd"/><path d="M2782.86 1772.83 3234.14 1772.83 3234.14 1906.67 2782.86 1906.67Z" fill="#F8CBAD" fill-rule="evenodd"/><path d="M300.811 1906.67 752.093 1906.67 752.093 2040.5 300.811 2040.5Z" fill="#FF9999" fill-rule="evenodd"/><path d="M977.733 1906.67 2557.22 1906.67 2557.22 2040.5 977.733 2040.5Z" fill="#FF9999" fill-rule="evenodd"/><path d="M2557.22 1906.67 3234.14 1906.67 3234.14 2040.5 2557.22 2040.5Z" fill="#FF9999" fill-rule="evenodd"/><path d="M526.452 563.177 526.452 1641.29" stroke="#000000" stroke-width="4.58333" stroke-linejoin="round" stroke-miterlimit="10" stroke-dasharray="18.3333 13.75" fill="none" fill-rule="evenodd"/><path d="M752.093 161.677 752.093 305.823" stroke="#FFFFFF" stroke-width="10.3125" stroke-linejoin="round" stroke-miterlimit="10" fill="none" fill-rule="evenodd"/><path d="M752.093 429.344 752.093 573.489" stroke="#FFFFFF" stroke-width="10.3125" stroke-linejoin="round" stroke-miterlimit="10" fill="none" fill-rule="evenodd"/><path d="M752.093 573.489 752.093 1639" stroke="#000000" stroke-width="4.58333" stroke-linejoin="round" stroke-miterlimit="10" stroke-dasharray="18.3333 13.75" fill="none" fill-rule="evenodd"/><path d="M752.093 1639 752.093 1775.12" stroke="#000000" stroke-width="4.58333" stroke-linejoin="round" stroke-miterlimit="10" fill="none" fill-rule="evenodd"/><path d="M752.093 1904.38 752.093 2042.79" stroke="#000000" stroke-width="4.58333" stroke-linejoin="round" stroke-miterlimit="10" fill="none" fill-rule="evenodd"/><path d="M977.733 166.833 977.733 305.823" stroke="#000000" stroke-width="4.58333" stroke-linejoin="round" stroke-miterlimit="10" stroke-dasharray="18.3333 13.75" fill="none" fill-rule="evenodd"/><path d="M977.733 429.344 977.733 563.177" stroke="#000000" stroke-width="4.58333" stroke-linejoin="round" stroke-miterlimit="10" stroke-dasharray="18.3333 13.75" fill="none" fill-rule="evenodd"/><path d="M977.733 563.177 977.733 841.156" stroke="#FFFFFF" stroke-width="10.3125" stroke-linejoin="round" stroke-miterlimit="10" fill="none" fill-rule="evenodd"/><path d="M977.733 841.156 977.733 1639" stroke="#000000" stroke-width="4.58333" stroke-linejoin="round" stroke-miterlimit="10" stroke-dasharray="18.3333 13.75" fill="none" fill-rule="evenodd"/><path d="M977.733 1639 977.733 1775.12" stroke="#000000" stroke-width="4.58333" stroke-linejoin="round" stroke-miterlimit="10" fill="none" fill-rule="evenodd"/><path d="M977.733 1904.38 977.733 2042.79" stroke="#000000" stroke-width="4.58333" stroke-linejoin="round" stroke-miterlimit="10" fill="none" fill-rule="evenodd"/><path d="M1203.37 166.833 1203.37 305.823" stroke="#000000" stroke-width="4.58333" stroke-linejoin="round" stroke-miterlimit="10" stroke-dasharray="18.3333 13.75" fill="none" fill-rule="evenodd"/><path d="M1203.37 429.344 1203.37 573.489" stroke="#000000" stroke-width="4.58333" stroke-linejoin="round" stroke-miterlimit="10" stroke-dasharray="18.3333 13.75" fill="none" fill-rule="evenodd"/><path d="M1203.37 830.844 1203.37 1641.29" stroke="#000000" stroke-width="4.58333" stroke-linejoin="round" stroke-miterlimit="10" stroke-dasharray="18.3333 13.75" fill="none" fill-rule="evenodd"/><path d="M1429.01 166.833 1429.01 295.511" stroke="#000000" stroke-width="4.58333" stroke-linejoin="round" stroke-miterlimit="10" stroke-dasharray="18.3333 13.75" fill="none" fill-rule="evenodd"/><path d="M1429.01 295.511 1429.01 439.656" stroke="#FFFFFF" stroke-width="10.3125" stroke-linejoin="round" stroke-miterlimit="10" fill="none" fill-rule="evenodd"/><path d="M1429.01 439.656 1429.01 563.177" stroke="#000000" stroke-width="4.58333" stroke-linejoin="round" stroke-miterlimit="10" stroke-dasharray="18.3333 13.75" fill="none" fill-rule="evenodd"/><path d="M1429.01 563.177 1429.01 707.323" stroke="#FFFFFF" stroke-width="10.3125" stroke-linejoin="round" stroke-miterlimit="10" fill="none" fill-rule="evenodd"/><path d="M1429.01 830.844 1429.01 1639" stroke="#000000" stroke-width="4.58333" stroke-linejoin="round" stroke-miterlimit="10" stroke-dasharray="18.3333 13.75" fill="none" fill-rule="evenodd"/><path d="M1429.01 1639 1429.01 1908.96" stroke="#000000" stroke-width="4.58333" stroke-linejoin="round" stroke-miterlimit="10" fill="none" fill-rule="evenodd"/><path d="M1654.66 166.833 1654.66 707.323" stroke="#000000" stroke-width="4.58333" stroke-linejoin="round" stroke-miterlimit="10" stroke-dasharray="18.3333 13.75" fill="none" fill-rule="evenodd"/><path d="M1654.66 830.844 1654.66 1639" stroke="#000000" stroke-width="4.58333" stroke-linejoin="round" stroke-miterlimit="10" stroke-dasharray="18.3333 13.75" fill="none" fill-rule="evenodd"/><path d="M1880.3 166.833 1880.3 707.323" stroke="#000000" stroke-width="4.58333" stroke-linejoin="round" stroke-miterlimit="10" stroke-dasharray="18.3333 13.75" fill="none" fill-rule="evenodd"/><path d="M1880.3 830.844 1880.3 1108.82" stroke="#FFFFFF" stroke-width="10.3125" stroke-linejoin="round" stroke-miterlimit="10" fill="none" fill-rule="evenodd"/><path d="M1880.3 1108.82 1880.3 1639" stroke="#000000" stroke-width="4.58333" stroke-linejoin="round" stroke-miterlimit="10" stroke-dasharray="18.3333 13.75" fill="none" fill-rule="evenodd"/><path d="M1880.3 1639 1880.3 1908.96" stroke="#000000" stroke-width="4.58333" stroke-linejoin="round" stroke-miterlimit="10" fill="none" fill-rule="evenodd"/><path d="M2105.94 166.833 2105.94 707.323" stroke="#000000" stroke-width="4.58333" stroke-linejoin="round" stroke-miterlimit="10" stroke-dasharray="18.3333 13.75" fill="none" fill-rule="evenodd"/><path d="M2105.94 1098.51 2105.94 1641.29" stroke="#000000" stroke-width="4.58333" stroke-linejoin="round" stroke-miterlimit="10" stroke-dasharray="18.3333 13.75" fill="none" fill-rule="evenodd"/><path d="M2331.58 166.833 2331.58 697.011" stroke="#000000" stroke-width="4.58333" stroke-linejoin="round" stroke-miterlimit="10" stroke-dasharray="18.3333 13.75" fill="none" fill-rule="evenodd"/><path d="M2331.58 697.011 2331.58 841.156" stroke="#FFFFFF" stroke-width="10.3125" stroke-linejoin="round" stroke-miterlimit="10" fill="none" fill-rule="evenodd"/><path d="M2331.58 1098.51 2331.58 1242.66" stroke="#FFFFFF" stroke-width="10.3125" stroke-linejoin="round" stroke-miterlimit="10" fill="none" fill-rule="evenodd"/><path d="M2331.58 1242.66 2331.58 1641.29" stroke="#000000" stroke-width="4.58333" stroke-linejoin="round" stroke-miterlimit="10" stroke-dasharray="18.3333 13.75" fill="none" fill-rule="evenodd"/><path d="M2557.22 166.833 2557.22 830.844" stroke="#000000" stroke-width="4.58333" stroke-linejoin="round" stroke-miterlimit="10" stroke-dasharray="18.3333 13.75" fill="none" fill-rule="evenodd"/><path d="M2557.22 830.844 2557.22 1108.82" stroke="#FFFFFF" stroke-width="10.3125" stroke-linejoin="round" stroke-miterlimit="10" fill="none" fill-rule="evenodd"/><path d="M2557.22 1232.34 2557.22 1639" stroke="#000000" stroke-width="4.58333" stroke-linejoin="round" stroke-miterlimit="10" stroke-dasharray="18.3333 13.75" fill="none" fill-rule="evenodd"/><path d="M2557.22 1639 2557.22 2042.79" stroke="#000000" stroke-width="4.58333" stroke-linejoin="round" stroke-miterlimit="10" fill="none" fill-rule="evenodd"/><path d="M2782.86 166.833 2782.86 1108.82" stroke="#000000" stroke-width="4.58333" stroke-linejoin="round" stroke-miterlimit="10" stroke-dasharray="18.3333 13.75" fill="none" fill-rule="evenodd"/><path d="M2782.86 1232.34 2782.86 1510.32" stroke="#FFFFFF" stroke-width="10.3125" stroke-linejoin="round" stroke-miterlimit="10" fill="none" fill-rule="evenodd"/><path d="M2782.86 1510.32 2782.86 1639" stroke="#000000" stroke-width="4.58333" stroke-linejoin="round" stroke-miterlimit="10" stroke-dasharray="18.3333 13.75" fill="none" fill-rule="evenodd"/><path d="M2782.86 1639 2782.86 1908.96" stroke="#000000" stroke-width="4.58333" stroke-linejoin="round" stroke-miterlimit="10" fill="none" fill-rule="evenodd"/><path d="M3008.5 166.833 3008.5 1108.82" stroke="#000000" stroke-width="4.58333" stroke-linejoin="round" stroke-miterlimit="10" stroke-dasharray="18.3333 13.75" fill="none" fill-rule="evenodd"/><path d="M3008.5 1500.01 3008.5 1641.29" stroke="#000000" stroke-width="4.58333" stroke-linejoin="round" stroke-miterlimit="10" stroke-dasharray="18.3333 13.75" fill="none" fill-rule="evenodd"/><path d="M295.655 300.667 1434.17 300.667" stroke="#FFFFFF" stroke-width="10.3125" stroke-linejoin="round" stroke-miterlimit="10" fill="none" fill-rule="evenodd"/><path d="M295.655 434.5 1434.17 434.5" stroke="#FFFFFF" stroke-width="10.3125" stroke-linejoin="round" stroke-miterlimit="10" fill="none" fill-rule="evenodd"/><path d="M295.655 568.333 757.249 568.333" stroke="#FFFFFF" stroke-width="10.3125" stroke-linejoin="round" stroke-miterlimit="10" fill="none" fill-rule="evenodd"/><path d="M972.577 568.333 1434.17 568.333" stroke="#FFFFFF" stroke-width="10.3125" stroke-linejoin="round" stroke-miterlimit="10" fill="none" fill-rule="evenodd"/><path d="M972.577 702.167 2336.73 702.167" stroke="#FFFFFF" stroke-width="10.3125" stroke-linejoin="round" stroke-miterlimit="10" fill="none" fill-rule="evenodd"/><path d="M972.577 836 1885.45 836" stroke="#FFFFFF" stroke-width="10.3125" stroke-linejoin="round" stroke-miterlimit="10" fill="none" fill-rule="evenodd"/><path d="M2326.42 836 2562.37 836" stroke="#FFFFFF" stroke-width="10.3125" stroke-linejoin="round" stroke-miterlimit="10" fill="none" fill-rule="evenodd"/><path d="M1875.14 969.833 2562.37 969.833" stroke="#FFFFFF" stroke-width="10.3125" stroke-linejoin="round" stroke-miterlimit="10" fill="none" fill-rule="evenodd"/><path d="M1875.14 1103.67 3239.3 1103.67" stroke="#FFFFFF" stroke-width="10.3125" stroke-linejoin="round" stroke-miterlimit="10" fill="none" fill-rule="evenodd"/><path d="M2326.42 1237.5 3239.3 1237.5" stroke="#FFFFFF" stroke-width="10.3125" stroke-linejoin="round" stroke-miterlimit="10" fill="none" fill-rule="evenodd"/><path d="M2777.7 1371.33 3239.3 1371.33" stroke="#FFFFFF" stroke-width="10.3125" stroke-linejoin="round" stroke-miterlimit="10" fill="none" fill-rule="evenodd"/><path d="M2777.7 1505.17 3239.3 1505.17" stroke="#FFFFFF" stroke-width="10.3125" stroke-linejoin="round" stroke-miterlimit="10" fill="none" fill-rule="evenodd"/><path d="M298.519 1639 754.384 1639" stroke="#000000" stroke-width="4.58333" stroke-linejoin="round" stroke-miterlimit="10" fill="none" fill-rule="evenodd"/><path d="M975.442 1639 1431.31 1639" stroke="#000000" stroke-width="4.58333" stroke-linejoin="round" stroke-miterlimit="10" fill="none" fill-rule="evenodd"/><path d="M1878 1639 2559.51 1639" stroke="#000000" stroke-width="4.58333" stroke-linejoin="round" stroke-miterlimit="10" fill="none" fill-rule="evenodd"/><path d="M2780.57 1639 3236.43 1639" stroke="#000000" stroke-width="4.58333" stroke-linejoin="round" stroke-miterlimit="10" fill="none" fill-rule="evenodd"/><path d="M298.519 1772.83 1431.31 1772.83" stroke="#000000" stroke-width="4.58333" stroke-linejoin="round" stroke-miterlimit="10" fill="none" fill-rule="evenodd"/><path d="M1878 1772.83 2559.51 1772.83" stroke="#000000" stroke-width="4.58333" stroke-linejoin="round" stroke-miterlimit="10" fill="none" fill-rule="evenodd"/><path d="M2780.57 1772.83 3236.43 1772.83" stroke="#000000" stroke-width="4.58333" stroke-linejoin="round" stroke-miterlimit="10" fill="none" fill-rule="evenodd"/><path d="M298.519 1906.67 3236.43 1906.67" stroke="#000000" stroke-width="4.58333" stroke-linejoin="round" stroke-miterlimit="10" fill="none" fill-rule="evenodd"/><path d="M300.811 161.677 300.811 573.489" stroke="#FFFFFF" stroke-width="10.3125" stroke-linejoin="round" stroke-miterlimit="10" fill="none" fill-rule="evenodd"/><path d="M300.811 573.489 300.811 1639" stroke="#000000" stroke-width="4.58333" stroke-linejoin="round" stroke-miterlimit="10" stroke-dasharray="18.3333 13.75" fill="none" fill-rule="evenodd"/><path d="M300.811 1639 300.811 2042.79" stroke="#000000" stroke-width="4.58333" stroke-linejoin="round" stroke-miterlimit="10" fill="none" fill-rule="evenodd"/><path d="M3234.14 166.833 3234.14 1098.51" stroke="#000000" stroke-width="4.58333" stroke-linejoin="round" stroke-miterlimit="10" stroke-dasharray="18.3333 13.75" fill="none" fill-rule="evenodd"/><path d="M3234.14 1098.51 3234.14 1510.32" stroke="#FFFFFF" stroke-width="10.3125" stroke-linejoin="round" stroke-miterlimit="10" fill="none" fill-rule="evenodd"/><path d="M3234.14 1510.32 3234.14 1639" stroke="#000000" stroke-width="4.58333" stroke-linejoin="round" stroke-miterlimit="10" stroke-dasharray="18.3333 13.75" fill="none" fill-rule="evenodd"/><path d="M3234.14 1639 3234.14 2042.79" stroke="#000000" stroke-width="4.58333" stroke-linejoin="round" stroke-miterlimit="10" fill="none" fill-rule="evenodd"/><path d="M295.655 166.833 757.249 166.833" stroke="#FFFFFF" stroke-width="10.3125" stroke-linejoin="round" stroke-miterlimit="10" fill="none" fill-rule="evenodd"/><path d="M298.519 2040.5 754.384 2040.5" stroke="#000000" stroke-width="4.58333" stroke-linejoin="round" stroke-miterlimit="10" fill="none" fill-rule="evenodd"/><path d="M975.442 2040.5 3236.43 2040.5" stroke="#000000" stroke-width="4.58333" stroke-linejoin="round" stroke-miterlimit="10" fill="none" fill-rule="evenodd"/><text font-family="Calibri,Calibri_MSFontService,sans-serif" font-weight="400" font-size="83" transform="matrix(1 0 0 1 505.54 260)">1<tspan font-size="83" x="338.461" y="134">2</tspan><tspan font-size="83" x="0" y="268">3</tspan><tspan font-size="83" x="676.922" y="402">4</tspan><tspan font-size="83" x="1128.2" y="536">5</tspan><tspan font-size="83" x="1692.31" y="669">6</tspan><tspan font-size="83" x="1692.31" y="803">7</tspan><tspan font-size="83" x="2256.41" y="937">8</tspan><tspan font-size="83" x="2482.05" y="1071">9</tspan><tspan font-size="83" x="2461.14" y="1205">10</tspan><tspan font-size="83" x="0" y="1472">1</tspan><tspan font-size="83" x="676.922" y="1472">4</tspan><tspan font-size="83" x="1692.31" y="1472">6</tspan><tspan font-size="83" x="2482.05" y="1472">9</tspan><tspan font-size="83" x="338.461" y="1606">2</tspan><tspan font-size="83" x="1692.31" y="1606">7</tspan><tspan font-size="83" x="2461.14" y="1606">10</tspan><tspan font-size="83" x="0" y="1740">3</tspan><tspan font-size="83" x="1241.02" y="1740">5</tspan><tspan font-size="83" x="2369.23" y="1740">8</tspan><tspan font-size="83" x="-244.672" y="1887">0</tspan><tspan font-size="83" x="-16.1035" y="1887">1</tspan><tspan font-size="83" x="212.465" y="1887">2</tspan><tspan font-size="83" x="441.034" y="1887">3</tspan><tspan font-size="83" x="669.602" y="1887">4</tspan><tspan font-size="83" x="898.171" y="1887">5</tspan><tspan font-size="83" x="1126.74" y="1887">6</tspan><tspan font-size="83" x="1355.31" y="1887">7</tspan><tspan font-size="83" x="1583.88" y="1887">8</tspan><tspan font-size="83" x="1812.45" y="1887">9</tspan><tspan font-size="83" x="2020.1" y="1887">10</tspan><tspan font-size="83" x="2248.67" y="1887">11</tspan><tspan font-size="83" x="2477.24" y="1887">12</tspan><tspan font-size="83" x="2705.81" y="1887">13</tspan></text><path d="M221 2034.12 3303.54 2034.13 3303.54 2047.88 221 2047.87ZM3303.54 2041 3276.04 2006.63 3344.79 2041 3276.04 2075.38Z"/><text font-family="Calibri,Calibri_MSFontService,sans-serif" font-weight="400" font-size="83" transform="matrix(1 0 0 1 3400.46 2067)">Time<tspan font-size="83" x="-3253.87" y="-335">1</tspan><tspan font-size="83" x="-3253.87" y="-201">2</tspan><tspan font-size="83" x="-3253.87" y="-67">3</tspan><tspan font-size="83" x="-103.797" y="-200">Depth=3</tspan></text></g></svg>