<svg width="894" height="520" xmlns="http://www.w3.org/2000/svg" xmlns:xlink="http://www.w3.org/1999/xlink" overflow="hidden"><defs><clipPath id="clip0"><rect x="731" y="251" width="894" height="520"/></clipPath><clipPath id="clip1"><rect x="733" y="-21" width="178" height="694"/></clipPath><clipPath id="clip2"><rect x="910" y="-21" width="179" height="694"/></clipPath><clipPath id="clip3"><rect x="1088" y="-21" width="178" height="694"/></clipPath><clipPath id="clip4"><rect x="1265" y="-21" width="178" height="694"/></clipPath><clipPath id="clip5"><rect x="1442" y="-21" width="179" height="694"/></clipPath><clipPath id="clip6"><rect x="733" y="325" width="178" height="694"/></clipPath><clipPath id="clip7"><rect x="910" y="325" width="179" height="694"/></clipPath><clipPath id="clip8"><rect x="1088" y="325" width="178" height="694"/></clipPath><clipPath id="clip9"><rect x="1265" y="325" width="178" height="694"/></clipPath><clipPath id="clip10"><rect x="1442" y="325" width="179" height="694"/></clipPath></defs><g clip-path="url(#clip0)" transform="translate(-731 -251)"><path d="M910.709 257.43 910.709 395.847" stroke="#000000" stroke-width="4.58333" stroke-linejoin="round" stroke-miterlimit="10" fill="none" fill-rule="evenodd"/><path d="M1088.08 257.43 1088.08 395.847" stroke="#000000" stroke-width="4.58333" stroke-linejoin="round" stroke-miterlimit="10" fill="none" fill-rule="evenodd"/><path d="M1265.46 257.43 1265.46 395.847" stroke="#000000" stroke-width="4.58333" stroke-linejoin="round" stroke-miterlimit="10" fill="none" fill-rule="evenodd"/><path d="M1442.83 257.43 1442.83 395.847" stroke="#000000" stroke-width="4.58333" stroke-linejoin="round" stroke-miterlimit="10" fill="none" fill-rule="evenodd"/><path d="M733.334 257.43 733.334 395.847" stroke="#000000" stroke-width="4.58333" stroke-linejoin="round" stroke-miterlimit="10" fill="none" fill-rule="evenodd"/><path d="M1620.21 257.43 1620.21 395.847" stroke="#000000" stroke-width="4.58333" stroke-linejoin="round" stroke-miterlimit="10" fill="none" fill-rule="evenodd"/><path d="M731.042 259.722 1622.5 259.722" stroke="#000000" stroke-width="4.58333" stroke-linejoin="round" stroke-miterlimit="10" fill="none" fill-rule="evenodd"/><path d="M731.042 393.555 1622.5 393.555" stroke="#000000" stroke-width="4.58333" stroke-linejoin="round" stroke-miterlimit="10" fill="none" fill-rule="evenodd"/><g clip-path="url(#clip1)"><text font-family="Calibri,Calibri_MSFontService,sans-serif" font-weight="400" font-size="83" transform="matrix(1 0 0 1 766.334 353)">1</text></g><g clip-path="url(#clip2)"><text font-family="Calibri,Calibri_MSFontService,sans-serif" font-weight="400" font-size="83" transform="matrix(1 0 0 1 943.709 353)">2</text></g><g clip-path="url(#clip3)"><text font-family="Calibri,Calibri_MSFontService,sans-serif" font-weight="400" font-size="83" transform="matrix(1 0 0 1 1121.08 353)">3</text></g><g clip-path="url(#clip4)"><text font-family="Calibri,Calibri_MSFontService,sans-serif" font-weight="400" font-size="83" transform="matrix(1 0 0 1 1298.46 353)">4</text></g><g clip-path="url(#clip5)"><text font-family="Calibri,Calibri_MSFontService,sans-serif" font-weight="400" font-size="83" transform="matrix(1 0 0 1 1475.83 353)">5</text></g><path d="M910.709 603.607 910.709 742.023" stroke="#000000" stroke-width="4.58333" stroke-linejoin="round" stroke-miterlimit="10" fill="none" fill-rule="evenodd"/><path d="M1088.08 603.607 1088.08 742.023" stroke="#000000" stroke-width="4.58333" stroke-linejoin="round" stroke-miterlimit="10" fill="none" fill-rule="evenodd"/><path d="M1265.46 603.607 1265.46 742.023" stroke="#000000" stroke-width="4.58333" stroke-linejoin="round" stroke-miterlimit="10" fill="none" fill-rule="evenodd"/><path d="M1442.83 603.607 1442.83 742.023" stroke="#000000" stroke-width="4.58333" stroke-linejoin="round" stroke-miterlimit="10" fill="none" fill-rule="evenodd"/><path d="M733.334 603.607 733.334 742.023" stroke="#000000" stroke-width="4.58333" stroke-linejoin="round" stroke-miterlimit="10" fill="none" fill-rule="evenodd"/><path d="M1620.21 603.607 1620.21 742.023" stroke="#000000" stroke-width="4.58333" stroke-linejoin="round" stroke-miterlimit="10" fill="none" fill-rule="evenodd"/><path d="M731.042 605.898 1622.5 605.898" stroke="#000000" stroke-width="4.58333" stroke-linejoin="round" stroke-miterlimit="10" fill="none" fill-rule="evenodd"/><path d="M731.042 739.732 1622.5 739.732" stroke="#000000" stroke-width="4.58333" stroke-linejoin="round" stroke-miterlimit="10" fill="none" fill-rule="evenodd"/><g clip-path="url(#clip6)"><text font-family="Calibri,Calibri_MSFontService,sans-serif" font-weight="400" font-size="83" transform="matrix(1 0 0 1 766.334 699)">2</text></g><g clip-path="url(#clip7)"><text font-family="Calibri,Calibri_MSFontService,sans-serif" font-weight="400" font-size="83" transform="matrix(1 0 0 1 943.709 699)">4</text></g><g clip-path="url(#clip8)"><text font-family="Calibri,Calibri_MSFontService,sans-serif" font-weight="400" font-size="83" transform="matrix(1 0 0 1 1121.08 699)">1</text></g><g clip-path="url(#clip9)"><text font-family="Calibri,Calibri_MSFontService,sans-serif" font-weight="400" font-size="83" transform="matrix(1 0 0 1 1298.46 699)">3</text></g><g clip-path="url(#clip10)"><text font-family="Calibri,Calibri_MSFontService,sans-serif" font-weight="400" font-size="83" transform="matrix(1 0 0 1 1475.83 699)">5</text></g><path d="M813.5 394.5 1177.3 606.843" stroke="#000000" stroke-width="4.58333" stroke-miterlimit="8" fill="none" fill-rule="evenodd"/><path d="M0 0 189.922 212.343" stroke="#000000" stroke-width="4.58333" stroke-miterlimit="8" fill="none" fill-rule="evenodd" transform="matrix(-1 0 0 1 1003.42 394.5)"/><path d="M1177.5 394.5 1367.42 606.843" stroke="#000000" stroke-width="4.58333" stroke-miterlimit="8" fill="none" fill-rule="evenodd"/><path d="M0 0 363.802 212.343" stroke="#000000" stroke-width="4.58333" stroke-miterlimit="8" fill="none" fill-rule="evenodd" transform="matrix(-1 0 0 1 1367.3 394.5)"/><path d="M1535.5 394.5 1535.5 606.843" stroke="#000000" stroke-width="4.58333" stroke-miterlimit="8" fill="none" fill-rule="evenodd"/><path d="M924 463C924 455.82 929.82 450 937 450 944.18 450 950 455.82 950 463 950 470.18 944.18 476 937 476 929.82 476 924 470.18 924 463Z" fill="#FF0000" fill-rule="evenodd"/><path d="M1078 552C1078 544.82 1083.82 539 1091 539 1098.18 539 1104 544.82 1104 552 1104 559.18 1098.18 565 1091 565 1083.82 565 1078 559.18 1078 552Z" fill="#FF0000" fill-rule="evenodd"/><path d="M1230 466C1230 458.82 1235.82 453 1243 453 1250.18 453 1256 458.82 1256 466 1256 473.18 1250.18 479 1243 479 1235.82 479 1230 473.18 1230 466Z" fill="#FF0000" fill-rule="evenodd"/></g></svg>