<svg width="752" height="212" xmlns="http://www.w3.org/2000/svg" xmlns:xlink="http://www.w3.org/1999/xlink" overflow="hidden"><defs><clipPath id="clip0"><rect x="2035" y="1073" width="752" height="212"/></clipPath></defs><g clip-path="url(#clip0)" transform="translate(-2035 -1073)"><path d="M2251.05 1107.46C2251.89 1107.46 2252.63 1107.56 2253.26 1107.75 2253.9 1107.94 2254.46 1108.23 2254.94 1108.62 2255.43 1109.01 2255.86 1109.52 2256.24 1110.14 2256.62 1110.76 2256.98 1111.6 2257.34 1112.67 2257.69 1113.74 2258.02 1115.06 2258.33 1116.64 2258.64 1118.22 2258.92 1119.86 2259.16 1121.57L2259.56 1121.57C2262.16 1117.92 2264.12 1115.25 2265.46 1113.56 2266.8 1111.87 2267.93 1110.62 2268.85 1109.79 2269.76 1108.97 2270.65 1108.39 2271.5 1108.05 2272.35 1107.71 2273.48 1107.54 2274.88 1107.54 2276.15 1107.54 2277.19 1107.71 2278 1108.03L2276.38 1115.37 2273.55 1115.37C2273.38 1114.23 2272.91 1113.66 2272.13 1113.66 2271.89 1113.66 2271.63 1113.7 2271.36 1113.78 2271.09 1113.87 2270.76 1114.04 2270.37 1114.31 2269.97 1114.58 2269.4 1115.11 2268.64 1115.89 2267.89 1116.68 2267.04 1117.64 2266.09 1118.77 2265.14 1119.9 2264.17 1121.09 2263.17 1122.34L2260.42 1125.78C2260.9 1128.37 2261.36 1130.62 2261.79 1132.51 2262.23 1134.4 2262.61 1135.97 2262.95 1137.23 2263.29 1138.49 2263.58 1139.48 2263.84 1140.21 2264.1 1140.94 2264.37 1141.49 2264.67 1141.85 2264.97 1142.21 2265.27 1142.47 2265.58 1142.62 2265.89 1142.77 2266.25 1142.84 2266.66 1142.84 2267.39 1142.84 2268.1 1142.56 2268.78 1141.99 2269.47 1141.42 2270.47 1140.14 2271.76 1138.14L2274.4 1139.88C2272.51 1142.69 2270.8 1144.67 2269.27 1145.82 2267.74 1146.97 2265.93 1147.54 2263.82 1147.54 2262.66 1147.54 2261.67 1147.33 2260.86 1146.92 2260.05 1146.5 2259.35 1145.83 2258.75 1144.91 2258.16 1143.99 2257.63 1142.56 2257.17 1140.61 2256.34 1137.16 2255.82 1134.51 2255.63 1132.67L2255.23 1132.67C2252.36 1136.7 2250.24 1139.59 2248.85 1141.34 2247.45 1143.1 2246.31 1144.4 2245.4 1145.23 2244.5 1146.07 2243.62 1146.66 2242.77 1147 2241.92 1147.33 2240.79 1147.5 2239.38 1147.5 2238.11 1147.5 2237.07 1147.34 2236.26 1147.02L2237.88 1139.68 2240.72 1139.68C2240.88 1140.82 2241.35 1141.38 2242.14 1141.38 2242.52 1141.38 2242.91 1141.28 2243.33 1141.08 2243.75 1140.88 2244.35 1140.39 2245.14 1139.62 2245.92 1138.85 2247 1137.64 2248.38 1135.99 2249.76 1134.35 2251.76 1131.87 2254.38 1128.58 2253.97 1126.44 2253.55 1124.39 2253.12 1122.42 2252.69 1120.44 2252.24 1118.61 2251.78 1116.91 2251.32 1115.2 2250.95 1114.09 2250.65 1113.56 2250.35 1113.04 2250.03 1112.67 2249.7 1112.47 2249.36 1112.27 2248.93 1112.16 2248.42 1112.16 2247.85 1112.16 2247.34 1112.29 2246.88 1112.55 2246.42 1112.81 2245.92 1113.25 2245.38 1113.89 2244.84 1114.52 2244.12 1115.51 2243.23 1116.86L2240.6 1115.12C2242.3 1112.56 2243.93 1110.64 2245.5 1109.37 2247.07 1108.1 2248.92 1107.46 2251.05 1107.46ZM2214.7 1100.45 2198.85 1125.62 2198.85 1126.19 2214.7 1126.19 2214.7 1116.09C2214.7 1113.56 2214.74 1110.71 2214.82 1107.56 2214.9 1104.42 2215 1102.05 2215.1 1100.45ZM2215.87 1091.29 2221.67 1091.29 2221.67 1126.19 2222.52 1126.19C2224.09 1126.19 2225.21 1126.07 2225.89 1125.84 2226.56 1125.61 2227.12 1125.21 2227.57 1124.63 2228.01 1124.05 2228.42 1123.09 2228.8 1121.77L2231.88 1121.77 2231.4 1130.12 2221.67 1130.12 2221.67 1136.76C2221.67 1138.57 2221.73 1139.9 2221.85 1140.74 2221.97 1141.57 2222.18 1142.24 2222.46 1142.72 2222.74 1143.21 2223.16 1143.61 2223.72 1143.94 2224.27 1144.26 2225.17 1144.59 2226.41 1144.91L2226.41 1146.9 2209.96 1146.9 2209.96 1144.91C2211.63 1144.48 2212.75 1144 2213.32 1143.47 2213.89 1142.94 2214.26 1142.19 2214.44 1141.22 2214.61 1140.25 2214.7 1138.76 2214.7 1136.76L2214.7 1130.12 2192.17 1130.12 2192.17 1127.08Z" fill-rule="evenodd"/><text fill="#000000" fill-opacity="0" font-family="Arial,Arial_MSFontService,sans-serif" font-size="56.252" x="2192.17" y="1140.51">4ЁЭСе</text><path d="M2601.02 1084.78C2608.91 1086.86 2614.97 1091.35 2619.19 1098.26 2623.42 1105.16 2625.54 1113.49 2625.54 1123.24 2625.54 1133.02 2623.43 1141.35 2619.21 1148.23 2615 1155.1 2608.93 1159.58 2601.02 1161.66L2600.04 1158.54C2606.29 1156.46 2610.93 1152.35 2613.97 1146.22 2617.01 1140.09 2618.53 1132.29 2618.53 1122.84 2618.53 1113.7 2617.01 1106.12 2613.99 1100.08 2610.96 1094.04 2606.27 1089.98 2599.92 1087.9ZM2313.31 1084.78 2314.4 1087.9C2308.08 1089.98 2303.4 1094.04 2300.36 1100.08 2297.32 1106.12 2295.8 1113.7 2295.8 1122.84 2295.8 1132.29 2297.32 1140.09 2300.36 1146.22 2303.4 1152.35 2308.04 1156.46 2314.28 1158.54L2313.31 1161.66C2305.39 1159.58 2299.32 1155.1 2295.11 1148.23 2290.89 1141.35 2288.79 1133.02 2288.79 1123.24 2288.79 1113.49 2290.9 1105.16 2295.13 1098.26 2299.36 1091.35 2305.42 1086.86 2313.31 1084.78Z" fill-rule="evenodd"/><path d="M2384.71 1119.9C2382.71 1119.9 2381.03 1120.22 2379.66 1120.84 2378.3 1121.46 2377.19 1122.3 2376.34 1123.35 2375.49 1124.4 2374.88 1125.64 2374.52 1127.06 2374.15 1128.48 2373.97 1130 2373.97 1131.62 2373.97 1133.37 2374.17 1135.01 2374.58 1136.54 2374.98 1138.07 2375.62 1139.38 2376.5 1140.49 2377.38 1141.6 2378.51 1142.48 2379.89 1143.13 2381.26 1143.78 2382.94 1144.1 2384.91 1144.1 2387.13 1144.1 2389.02 1143.65 2390.6 1142.74 2392.19 1141.84 2393.39 1140.49 2394.21 1138.71 2395.04 1136.93 2395.45 1134.82 2395.45 1132.39 2395.45 1129.79 2395 1127.56 2394.11 1125.68 2393.22 1123.8 2391.96 1122.37 2390.34 1121.38 2388.72 1120.4 2386.84 1119.9 2384.71 1119.9ZM2430.71 1094.37C2428.84 1094.37 2427.28 1094.93 2426.03 1096.03 2424.77 1097.14 2423.76 1098.74 2422.99 1100.82 2422.22 1102.9 2421.67 1105.43 2421.35 1108.42 2421.02 1111.4 2420.86 1114.77 2420.86 1118.53 2420.86 1127.33 2421.68 1133.8 2423.31 1137.92 2424.95 1142.04 2427.48 1144.1 2430.91 1144.1 2434.18 1144.1 2436.6 1142.16 2438.19 1138.28 2439.77 1134.41 2440.56 1128.4 2440.56 1120.27 2440.56 1114.06 2440.15 1109.02 2439.34 1105.17 2438.53 1101.32 2437.4 1098.56 2435.96 1096.89 2434.51 1095.21 2432.76 1094.37 2430.71 1094.37ZM2384.91 1094.37C2381.51 1094.37 2378.91 1095.3 2377.11 1097.15 2375.31 1099 2374.41 1101.63 2374.41 1105.03 2374.41 1106.63 2374.6 1108.12 2374.98 1109.53 2375.36 1110.93 2375.97 1112.15 2376.81 1113.18 2377.64 1114.2 2378.73 1115.02 2380.07 1115.63 2381.41 1116.24 2383.05 1116.54 2384.99 1116.54 2387.23 1116.54 2389.12 1116.1 2390.65 1115.22 2392.17 1114.35 2393.31 1113.06 2394.05 1111.37 2394.79 1109.68 2395.16 1107.73 2395.16 1105.52 2395.16 1103.09 2394.73 1101.03 2393.85 1099.34 2392.97 1097.65 2391.76 1096.4 2390.22 1095.59 2388.68 1094.78 2386.91 1094.37 2384.91 1094.37ZM2430.91 1090.93C2436.83 1090.93 2441.23 1093.21 2444.12 1097.78 2447.01 1102.34 2448.46 1109.25 2448.46 1118.49 2448.46 1128.05 2446.91 1135.28 2443.82 1140.19 2440.73 1145.09 2436.21 1147.54 2430.26 1147.54 2424.43 1147.54 2420.08 1145.25 2417.23 1140.65 2414.38 1136.06 2412.96 1129.09 2412.96 1119.74 2412.96 1114.77 2413.4 1110.48 2414.27 1106.85 2415.15 1103.23 2416.38 1100.24 2417.96 1097.88 2419.54 1095.51 2421.44 1093.76 2423.66 1092.63 2425.87 1091.49 2428.29 1090.93 2430.91 1090.93ZM2384.99 1090.93C2388.88 1090.93 2392.15 1091.47 2394.8 1092.57 2397.45 1093.66 2399.44 1095.24 2400.78 1097.31 2402.11 1099.38 2402.78 1101.86 2402.78 1104.75 2402.78 1107.72 2402.05 1110.28 2400.59 1112.43 2399.14 1114.58 2396.88 1116.32 2393.83 1117.68L2393.91 1118.2C2396.96 1119.39 2399.27 1121.13 2400.84 1123.41 2402.41 1125.69 2403.19 1128.44 2403.19 1131.66 2403.19 1134.82 2402.43 1137.6 2400.92 1140.01 2399.41 1142.41 2397.21 1144.27 2394.33 1145.58 2391.46 1146.89 2388.1 1147.54 2384.26 1147.54 2380.67 1147.54 2377.51 1146.94 2374.8 1145.74 2372.08 1144.54 2369.98 1142.78 2368.48 1140.47 2366.98 1138.16 2366.23 1135.44 2366.23 1132.31 2366.23 1129.96 2366.63 1127.92 2367.44 1126.19 2368.25 1124.46 2369.31 1123.03 2370.62 1121.91 2371.94 1120.79 2373.59 1119.77 2375.59 1118.85L2375.51 1118.32C2369.7 1115.81 2366.79 1111.5 2366.79 1105.4 2366.79 1102.61 2367.56 1100.13 2369.08 1097.94 2370.61 1095.75 2372.79 1094.03 2375.61 1092.79 2378.43 1091.55 2381.56 1090.93 2384.99 1090.93ZM2341.91 1090.93 2344.14 1090.93C2343.98 1093.52 2343.9 1097.11 2343.9 1101.71L2343.9 1136.32C2343.9 1137.89 2343.98 1139.07 2344.16 1139.86 2344.33 1140.66 2344.65 1141.31 2345.09 1141.81 2345.54 1142.31 2346.18 1142.7 2347.02 1142.98 2347.85 1143.27 2348.91 1143.48 2350.18 1143.63 2351.45 1143.78 2353.12 1143.88 2355.2 1143.94L2355.2 1146.9 2325.25 1146.9 2325.25 1143.94C2328.25 1143.8 2330.39 1143.62 2331.68 1143.39 2332.96 1143.16 2333.94 1142.82 2334.61 1142.36 2335.29 1141.9 2335.78 1141.25 2336.09 1140.41 2336.4 1139.57 2336.56 1138.21 2336.56 1136.32L2336.56 1103.45C2336.56 1102.37 2336.37 1101.58 2335.99 1101.08 2335.61 1100.58 2335.06 1100.33 2334.33 1100.33 2333.47 1100.33 2332.24 1100.78 2330.64 1101.67 2329.05 1102.56 2327.08 1103.79 2324.73 1105.36L2322.94 1102.23Z" fill-rule="evenodd"/><text fill="#000000" fill-opacity="0" font-family="Arial,Arial_MSFontService,sans-serif" font-size="56.6167" x="2322.94" y="1140.47">180</text><path d="M2477.6 1120.47 2527.53 1120.47 2527.53 1125.86 2477.6 1125.86Z" fill-rule="evenodd"/><text fill="#000000" fill-opacity="0" font-family="Arial,Arial_MSFontService,sans-serif" font-size="5.39014" x="2477.6" y="1125.19">тИТ</text><path d="M2567.78 1107.46C2568.62 1107.46 2569.35 1107.56 2569.99 1107.75 2570.62 1107.94 2571.18 1108.23 2571.67 1108.62 2572.16 1109.01 2572.59 1109.52 2572.97 1110.14 2573.34 1110.76 2573.71 1111.6 2574.06 1112.67 2574.41 1113.74 2574.74 1115.06 2575.05 1116.64 2575.36 1118.22 2575.64 1119.86 2575.88 1121.57L2576.29 1121.57C2578.88 1117.92 2580.85 1115.25 2582.19 1113.56 2583.52 1111.87 2584.65 1110.62 2585.57 1109.79 2586.49 1108.97 2587.37 1108.39 2588.23 1108.05 2589.08 1107.71 2590.2 1107.54 2591.61 1107.54 2592.88 1107.54 2593.92 1107.71 2594.73 1108.03L2593.11 1115.37 2590.27 1115.37C2590.11 1114.23 2589.64 1113.66 2588.85 1113.66 2588.61 1113.66 2588.35 1113.7 2588.08 1113.78 2587.81 1113.87 2587.48 1114.04 2587.09 1114.31 2586.7 1114.58 2586.12 1115.11 2585.37 1115.89 2584.61 1116.68 2583.76 1117.64 2582.81 1118.77 2581.87 1119.9 2580.9 1121.09 2579.9 1122.34L2577.14 1125.78C2577.63 1128.37 2578.09 1130.62 2578.52 1132.51 2578.95 1134.4 2579.34 1135.97 2579.67 1137.23 2580.01 1138.49 2580.31 1139.48 2580.57 1140.21 2580.82 1140.94 2581.1 1141.49 2581.4 1141.85 2581.69 1142.21 2582 1142.47 2582.31 1142.62 2582.62 1142.77 2582.98 1142.84 2583.38 1142.84 2584.11 1142.84 2584.82 1142.56 2585.51 1141.99 2586.2 1141.42 2587.19 1140.14 2588.49 1138.14L2591.12 1139.88C2589.23 1142.69 2587.52 1144.67 2586 1145.82 2584.47 1146.97 2582.65 1147.54 2580.55 1147.54 2579.38 1147.54 2578.4 1147.33 2577.59 1146.92 2576.78 1146.5 2576.07 1145.83 2575.48 1144.91 2574.88 1143.99 2574.36 1142.56 2573.9 1140.61 2573.06 1137.16 2572.55 1134.51 2572.36 1132.67L2571.95 1132.67C2569.09 1136.7 2566.96 1139.59 2565.57 1141.34 2564.18 1143.1 2563.03 1144.4 2562.13 1145.23 2561.22 1146.07 2560.34 1146.66 2559.49 1147 2558.64 1147.33 2557.51 1147.5 2556.11 1147.5 2554.84 1147.5 2553.8 1147.34 2552.99 1147.02L2554.61 1139.68 2557.44 1139.68C2557.61 1140.82 2558.08 1141.38 2558.86 1141.38 2559.24 1141.38 2559.64 1141.28 2560.06 1141.08 2560.48 1140.88 2561.08 1140.39 2561.86 1139.62 2562.65 1138.85 2563.73 1137.64 2565.1 1135.99 2566.48 1134.35 2568.48 1131.87 2571.1 1128.58 2570.7 1126.44 2570.28 1124.39 2569.85 1122.42 2569.41 1120.44 2568.97 1118.61 2568.51 1116.91 2568.05 1115.2 2567.67 1114.09 2567.37 1113.56 2567.08 1113.04 2566.76 1112.67 2566.42 1112.47 2566.08 1112.27 2565.66 1112.16 2565.14 1112.16 2564.58 1112.16 2564.06 1112.29 2563.6 1112.55 2563.15 1112.81 2562.65 1113.25 2562.11 1113.89 2561.56 1114.52 2560.85 1115.51 2559.96 1116.86L2557.32 1115.12C2559.03 1112.56 2560.66 1110.64 2562.23 1109.37 2563.79 1108.1 2565.64 1107.46 2567.78 1107.46Z" fill-rule="evenodd"/><text fill="#000000" fill-opacity="0" font-family="Arial,Arial_MSFontService,sans-serif" font-size="40.0815" x="2552.99" y="1142.53">ЁЭСе</text><path d="M2073.62 1218.08 2057.78 1243.25 2057.78 1243.82 2073.62 1243.82 2073.62 1233.73C2073.62 1231.19 2073.67 1228.34 2073.75 1225.2 2073.83 1222.05 2073.92 1219.68 2074.03 1218.08ZM2253.95 1212C2252.09 1212 2250.53 1212.56 2249.27 1213.67 2248.01 1214.77 2247 1216.37 2246.23 1218.45 2245.46 1220.53 2244.91 1223.06 2244.59 1226.05 2244.26 1229.03 2244.1 1232.4 2244.1 1236.16 2244.1 1244.97 2244.92 1251.43 2246.55 1255.55 2248.19 1259.67 2250.72 1261.73 2254.15 1261.73 2257.42 1261.73 2259.85 1259.79 2261.43 1255.91 2263.01 1252.04 2263.8 1246.03 2263.8 1237.9 2263.8 1231.69 2263.39 1226.65 2262.58 1222.8 2261.77 1218.95 2260.64 1216.19 2259.2 1214.52 2257.75 1212.84 2256 1212 2253.95 1212ZM2208.95 1212C2207.09 1212 2205.53 1212.56 2204.27 1213.67 2203.01 1214.77 2202 1216.37 2201.23 1218.45 2200.46 1220.53 2199.91 1223.06 2199.59 1226.05 2199.26 1229.03 2199.1 1232.4 2199.1 1236.16 2199.1 1244.97 2199.92 1251.43 2201.55 1255.55 2203.19 1259.67 2205.72 1261.73 2209.15 1261.73 2212.42 1261.73 2214.85 1259.79 2216.43 1255.91 2218.01 1252.04 2218.8 1246.03 2218.8 1237.9 2218.8 1231.69 2218.39 1226.65 2217.58 1222.8 2216.77 1218.95 2215.64 1216.19 2214.2 1214.52 2212.75 1212.84 2211 1212 2208.95 1212ZM2116.95 1212C2115.09 1212 2113.53 1212.56 2112.27 1213.67 2111.01 1214.77 2110 1216.37 2109.23 1218.45 2108.46 1220.53 2107.91 1223.06 2107.59 1226.05 2107.26 1229.03 2107.1 1232.4 2107.1 1236.16 2107.1 1244.97 2107.92 1251.43 2109.55 1255.55 2111.19 1259.67 2113.72 1261.73 2117.15 1261.73 2120.42 1261.73 2122.85 1259.79 2124.43 1255.91 2126.01 1252.04 2126.8 1246.03 2126.8 1237.9 2126.8 1231.69 2126.39 1226.65 2125.58 1222.8 2124.77 1218.95 2123.64 1216.19 2122.2 1214.52 2120.75 1212.84 2119 1212 2116.95 1212ZM2074.8 1208.92 2080.6 1208.92 2080.6 1243.82 2081.45 1243.82C2083.01 1243.82 2084.13 1243.7 2084.81 1243.47 2085.49 1243.24 2086.05 1242.84 2086.49 1242.26 2086.94 1241.68 2087.35 1240.72 2087.73 1239.4L2090.81 1239.4 2090.32 1247.75 2080.6 1247.75 2080.6 1254.4C2080.6 1256.21 2080.66 1257.53 2080.78 1258.37 2080.9 1259.2 2081.1 1259.87 2081.39 1260.35 2081.67 1260.84 2082.09 1261.24 2082.64 1261.57 2083.2 1261.89 2084.09 1262.22 2085.34 1262.54L2085.34 1264.53 2068.88 1264.53 2068.88 1262.54C2070.56 1262.11 2071.68 1261.63 2072.25 1261.1 2072.81 1260.58 2073.19 1259.83 2073.36 1258.85 2073.54 1257.88 2073.62 1256.39 2073.62 1254.4L2073.62 1247.75 2051.09 1247.75 2051.09 1244.71ZM2254.15 1208.56C2260.07 1208.56 2264.47 1210.84 2267.36 1215.41 2270.26 1219.97 2271.7 1226.88 2271.7 1236.12 2271.7 1245.68 2270.15 1252.92 2267.06 1257.82 2263.97 1262.72 2259.45 1265.18 2253.5 1265.18 2247.67 1265.18 2243.32 1262.88 2240.47 1258.29 2237.62 1253.69 2236.2 1246.72 2236.2 1237.37 2236.2 1232.4 2236.64 1228.11 2237.52 1224.49 2238.39 1220.87 2239.62 1217.87 2241.2 1215.51 2242.78 1213.15 2244.68 1211.4 2246.9 1210.26 2249.11 1209.13 2251.53 1208.56 2254.15 1208.56ZM2209.15 1208.56C2215.07 1208.56 2219.47 1210.84 2222.36 1215.41 2225.26 1219.97 2226.7 1226.88 2226.7 1236.12 2226.7 1245.68 2225.15 1252.92 2222.06 1257.82 2218.97 1262.72 2214.45 1265.18 2208.5 1265.18 2202.67 1265.18 2198.32 1262.88 2195.47 1258.29 2192.62 1253.69 2191.2 1246.72 2191.2 1237.37 2191.2 1232.4 2191.64 1228.11 2192.52 1224.49 2193.39 1220.87 2194.62 1217.87 2196.2 1215.51 2197.78 1213.15 2199.68 1211.4 2201.9 1210.26 2204.11 1209.13 2206.53 1208.56 2209.15 1208.56ZM2117.15 1208.56C2123.07 1208.56 2127.47 1210.84 2130.36 1215.41 2133.26 1219.97 2134.7 1226.88 2134.7 1236.12 2134.7 1245.68 2133.15 1252.92 2130.06 1257.82 2126.97 1262.72 2122.45 1265.18 2116.5 1265.18 2110.67 1265.18 2106.32 1262.88 2103.47 1258.29 2100.62 1253.69 2099.2 1246.72 2099.2 1237.37 2099.2 1232.4 2099.64 1228.11 2100.52 1224.49 2101.39 1220.87 2102.62 1217.87 2104.2 1215.51 2105.78 1213.15 2107.68 1211.4 2109.9 1210.26 2112.11 1209.13 2114.53 1208.56 2117.15 1208.56ZM2174.62 1206.53 2177.78 1206.53 2177.17 1215.93 2153.87 1215.93 2153.87 1233.73C2155.28 1233.13 2156.8 1232.69 2158.45 1232.39 2160.1 1232.09 2161.75 1231.94 2163.4 1231.94 2166.61 1231.94 2169.46 1232.6 2171.95 1233.91 2174.43 1235.22 2176.35 1237.08 2177.7 1239.5 2179.05 1241.92 2179.73 1244.72 2179.73 1247.91 2179.73 1251.53 2178.97 1254.64 2177.46 1257.23 2175.95 1259.83 2173.76 1261.8 2170.89 1263.15 2168.03 1264.5 2164.64 1265.18 2160.72 1265.18 2156.05 1265.18 2151.16 1264.22 2146.05 1262.3L2146.05 1253.71 2150.95 1253.71C2151.76 1256.46 2152.99 1258.49 2154.62 1259.79 2156.26 1261.08 2158.37 1261.73 2160.96 1261.73 2164.56 1261.73 2167.27 1260.65 2169.11 1258.49 2170.95 1256.33 2171.87 1253.1 2171.87 1248.8 2171.87 1245.94 2171.38 1243.57 2170.41 1241.69 2169.43 1239.81 2168.12 1238.45 2166.48 1237.62 2164.83 1236.78 2162.91 1236.36 2160.72 1236.36 2158.88 1236.36 2157.3 1236.48 2155.98 1236.7 2154.66 1236.93 2153.24 1237.29 2151.72 1237.78L2148.48 1235.87 2148.48 1209.21 2170.81 1209.21C2171.73 1209.21 2172.39 1209.13 2172.8 1208.98 2173.2 1208.84 2173.53 1208.61 2173.77 1208.3 2174.01 1207.98 2174.3 1207.4 2174.62 1206.53Z" fill-rule="evenodd"/><text fill="#000000" fill-opacity="0" font-family="Arial,Arial_MSFontService,sans-serif" font-size="58.6431" x="2051.09" y="1257.84">40500</text><path d="M2301.51 1238.1 2351.44 1238.1 2351.44 1243.49 2301.51 1243.49Z" fill-rule="evenodd"/><text fill="#000000" fill-opacity="0" font-family="Arial,Arial_MSFontService,sans-serif" font-size="5.39014" x="2301.51" y="1242.82">тИТ</text><path d="M2391.69 1225.09C2392.52 1225.09 2393.26 1225.19 2393.9 1225.38 2394.53 1225.57 2395.09 1225.86 2395.58 1226.25 2396.06 1226.64 2396.5 1227.15 2396.87 1227.77 2397.25 1228.39 2397.62 1229.23 2397.97 1230.3 2398.32 1231.37 2398.65 1232.69 2398.96 1234.27 2399.27 1235.85 2399.55 1237.5 2399.79 1239.2L2400.2 1239.2C2402.79 1235.55 2404.76 1232.88 2406.09 1231.19 2407.43 1229.5 2408.56 1228.25 2409.48 1227.42 2410.4 1226.6 2411.28 1226.02 2412.13 1225.68 2412.98 1225.34 2414.11 1225.17 2415.52 1225.17 2416.79 1225.17 2417.83 1225.34 2418.64 1225.66L2417.02 1233 2414.18 1233C2414.02 1231.86 2413.54 1231.29 2412.76 1231.29 2412.52 1231.29 2412.26 1231.34 2411.99 1231.42 2411.72 1231.5 2411.39 1231.67 2411 1231.94 2410.61 1232.21 2410.03 1232.74 2409.28 1233.52 2408.52 1234.31 2407.67 1235.27 2406.72 1236.4 2405.78 1237.54 2404.8 1238.72 2403.8 1239.97L2401.05 1243.41C2401.54 1246.01 2401.99 1248.25 2402.43 1250.14 2402.86 1252.03 2403.24 1253.6 2403.58 1254.86 2403.92 1256.12 2404.22 1257.11 2404.47 1257.84 2404.73 1258.57 2405.01 1259.12 2405.3 1259.48 2405.6 1259.85 2405.91 1260.1 2406.22 1260.25 2406.53 1260.4 2406.89 1260.47 2407.29 1260.47 2408.02 1260.47 2408.73 1260.19 2409.42 1259.62 2410.11 1259.06 2411.1 1257.77 2412.4 1255.77L2415.03 1257.52C2413.14 1260.33 2411.43 1262.3 2409.9 1263.45 2408.38 1264.6 2406.56 1265.18 2404.45 1265.18 2403.29 1265.18 2402.31 1264.97 2401.49 1264.55 2400.68 1264.13 2399.98 1263.46 2399.39 1262.54 2398.79 1261.62 2398.27 1260.19 2397.81 1258.25 2396.97 1254.79 2396.46 1252.14 2396.27 1250.3L2395.86 1250.3C2393 1254.33 2390.87 1257.22 2389.48 1258.97 2388.09 1260.73 2386.94 1262.03 2386.03 1262.87 2385.13 1263.7 2384.25 1264.29 2383.4 1264.63 2382.55 1264.97 2381.42 1265.13 2380.02 1265.13 2378.75 1265.13 2377.71 1264.97 2376.89 1264.65L2378.52 1257.31 2381.35 1257.31C2381.51 1258.45 2381.99 1259.02 2382.77 1259.02 2383.15 1259.02 2383.55 1258.91 2383.97 1258.71 2384.39 1258.51 2384.99 1258.02 2385.77 1257.25 2386.55 1256.48 2387.63 1255.27 2389.01 1253.63 2390.39 1251.98 2392.39 1249.5 2395.01 1246.21 2394.61 1244.07 2394.19 1242.02 2393.75 1240.05 2393.32 1238.08 2392.88 1236.24 2392.42 1234.54 2391.96 1232.83 2391.58 1231.72 2391.28 1231.19 2390.98 1230.67 2390.67 1230.3 2390.33 1230.1 2389.99 1229.9 2389.57 1229.8 2389.05 1229.8 2388.49 1229.8 2387.97 1229.92 2387.51 1230.18 2387.05 1230.44 2386.55 1230.88 2386.01 1231.52 2385.47 1232.15 2384.76 1233.15 2383.87 1234.5L2381.23 1232.75C2382.93 1230.19 2384.57 1228.27 2386.14 1227 2387.7 1225.73 2389.55 1225.09 2391.69 1225.09Z" fill-rule="evenodd"/><text fill="#000000" fill-opacity="0" font-family="Arial,Arial_MSFontService,sans-serif" font-size="40.0815" x="2376.89" y="1260.17">ЁЭСе</text><path d="M2454.11 1205.96 2455.2 1209.09C2448.88 1211.17 2444.2 1215.23 2441.16 1221.26 2438.12 1227.3 2436.6 1234.89 2436.6 1244.02 2436.6 1253.48 2438.12 1261.27 2441.16 1267.4 2444.2 1273.54 2448.84 1277.64 2455.08 1279.72L2454.11 1282.85C2446.19 1280.76 2440.12 1276.29 2435.91 1269.41 2431.69 1262.53 2429.59 1254.21 2429.59 1244.43 2429.59 1234.67 2431.7 1226.34 2435.93 1219.44 2440.16 1212.54 2446.22 1208.05 2454.11 1205.96Z" fill-rule="evenodd"/><text fill="#000000" fill-opacity="0" font-family="Arial,Arial_MSFontService,sans-serif" font-size="76.8804" x="2429.59" y="1273.24">(</text><path d="M2525.65 1237.54C2523.65 1237.54 2521.96 1237.85 2520.6 1238.47 2519.24 1239.09 2518.13 1239.93 2517.28 1240.98 2516.43 1242.03 2515.82 1243.27 2515.45 1244.69 2515.09 1246.11 2514.91 1247.63 2514.91 1249.25 2514.91 1251 2515.11 1252.65 2515.51 1254.17 2515.92 1255.7 2516.56 1257.02 2517.44 1258.12 2518.32 1259.23 2519.44 1260.11 2520.82 1260.76 2522.2 1261.41 2523.88 1261.73 2525.85 1261.73 2528.06 1261.73 2529.96 1261.28 2531.54 1260.37 2533.12 1259.47 2534.33 1258.12 2535.15 1256.34 2535.97 1254.56 2536.39 1252.45 2536.39 1250.02 2536.39 1247.42 2535.94 1245.19 2535.05 1243.31 2534.16 1241.43 2532.9 1240 2531.28 1239.02 2529.66 1238.03 2527.78 1237.54 2525.65 1237.54ZM2571.65 1212C2569.78 1212 2568.22 1212.56 2566.96 1213.67 2565.71 1214.77 2564.7 1216.37 2563.93 1218.45 2563.16 1220.53 2562.61 1223.06 2562.28 1226.05 2561.96 1229.03 2561.8 1232.4 2561.8 1236.16 2561.8 1244.97 2562.61 1251.43 2564.25 1255.55 2565.88 1259.67 2568.42 1261.73 2571.85 1261.73 2575.12 1261.73 2577.54 1259.79 2579.12 1255.91 2580.7 1252.04 2581.49 1246.03 2581.49 1237.9 2581.49 1231.69 2581.09 1226.65 2580.28 1222.8 2579.47 1218.95 2578.34 1216.19 2576.89 1214.52 2575.45 1212.84 2573.7 1212 2571.65 1212ZM2525.85 1212C2522.44 1212 2519.84 1212.93 2518.05 1214.78 2516.25 1216.63 2515.35 1219.26 2515.35 1222.66 2515.35 1224.26 2515.54 1225.76 2515.92 1227.16 2516.3 1228.57 2516.91 1229.78 2517.74 1230.81 2518.58 1231.83 2519.67 1232.65 2521.01 1233.26 2522.34 1233.87 2523.98 1234.17 2525.93 1234.17 2528.17 1234.17 2530.06 1233.73 2531.58 1232.85 2533.11 1231.98 2534.24 1230.69 2534.99 1229 2535.73 1227.32 2536.1 1225.36 2536.1 1223.15 2536.1 1220.72 2535.66 1218.66 2534.78 1216.97 2533.91 1215.28 2532.7 1214.03 2531.16 1213.22 2529.62 1212.41 2527.85 1212 2525.85 1212ZM2571.85 1208.56C2577.77 1208.56 2582.17 1210.84 2585.06 1215.41 2587.95 1219.97 2589.4 1226.88 2589.4 1236.12 2589.4 1245.68 2587.85 1252.92 2584.76 1257.82 2581.66 1262.72 2577.14 1265.18 2571.2 1265.18 2565.36 1265.18 2561.02 1262.88 2558.17 1258.29 2555.32 1253.69 2553.89 1246.72 2553.89 1237.37 2553.89 1232.4 2554.33 1228.11 2555.21 1224.49 2556.09 1220.87 2557.32 1217.87 2558.9 1215.51 2560.48 1213.15 2562.38 1211.4 2564.59 1210.26 2566.81 1209.13 2569.23 1208.56 2571.85 1208.56ZM2525.93 1208.56C2529.82 1208.56 2533.09 1209.11 2535.74 1210.2 2538.38 1211.29 2540.38 1212.87 2541.71 1214.94 2543.05 1217.01 2543.72 1219.49 2543.72 1222.38 2543.72 1225.35 2542.99 1227.91 2541.53 1230.06 2540.07 1232.21 2537.82 1233.96 2534.76 1235.31L2534.85 1235.83C2537.9 1237.02 2540.21 1238.76 2541.78 1241.04 2543.34 1243.32 2544.13 1246.07 2544.13 1249.29 2544.13 1252.45 2543.37 1255.23 2541.86 1257.64 2540.34 1260.04 2538.15 1261.9 2535.27 1263.21 2532.39 1264.52 2529.04 1265.18 2525.2 1265.18 2521.61 1265.18 2518.45 1264.57 2515.74 1263.37 2513.02 1262.17 2510.91 1260.41 2509.41 1258.1 2507.91 1255.79 2507.17 1253.07 2507.17 1249.94 2507.17 1247.59 2507.57 1245.55 2508.38 1243.82 2509.19 1242.09 2510.25 1240.66 2511.56 1239.54 2512.87 1238.42 2514.53 1237.4 2516.53 1236.48L2516.45 1235.96C2510.64 1233.44 2507.73 1229.13 2507.73 1223.03 2507.73 1220.24 2508.5 1217.76 2510.02 1215.57 2511.55 1213.38 2513.72 1211.67 2516.55 1210.42 2519.37 1209.18 2522.5 1208.56 2525.93 1208.56ZM2482.85 1208.56 2485.08 1208.56C2484.91 1211.15 2484.83 1214.75 2484.83 1219.34L2484.83 1253.95C2484.83 1255.52 2484.92 1256.7 2485.1 1257.5 2485.27 1258.29 2485.58 1258.94 2486.03 1259.44 2486.47 1259.94 2487.12 1260.33 2487.95 1260.62 2488.79 1260.9 2489.84 1261.12 2491.11 1261.26 2492.38 1261.41 2494.06 1261.51 2496.14 1261.57L2496.14 1264.53 2466.19 1264.53 2466.19 1261.57C2469.19 1261.43 2471.33 1261.25 2472.61 1261.02 2473.9 1260.79 2474.88 1260.45 2475.55 1259.99 2476.23 1259.53 2476.72 1258.88 2477.03 1258.04 2477.34 1257.21 2477.5 1255.84 2477.5 1253.95L2477.5 1221.08C2477.5 1220 2477.31 1219.21 2476.93 1218.71 2476.55 1218.21 2476 1217.96 2475.27 1217.96 2474.4 1217.96 2473.17 1218.41 2471.58 1219.3 2469.99 1220.19 2468.01 1221.42 2465.66 1222.99L2463.88 1219.87Z" fill-rule="evenodd"/><text fill="#000000" fill-opacity="0" font-family="Arial,Arial_MSFontService,sans-serif" font-size="56.6167" x="2463.88" y="1258.1">180</text><path d="M2618.54 1238.1 2668.47 1238.1 2668.47 1243.49 2618.54 1243.49Z" fill-rule="evenodd"/><text fill="#000000" fill-opacity="0" font-family="Arial,Arial_MSFontService,sans-serif" font-size="5.39014" x="2618.54" y="1242.82">тИТ</text><path d="M2708.72 1225.09C2709.55 1225.09 2710.29 1225.19 2710.93 1225.38 2711.56 1225.57 2712.12 1225.86 2712.61 1226.25 2713.09 1226.64 2713.53 1227.15 2713.9 1227.77 2714.28 1228.39 2714.65 1229.23 2715 1230.3 2715.35 1231.37 2715.68 1232.69 2715.99 1234.27 2716.3 1235.85 2716.58 1237.5 2716.82 1239.2L2717.23 1239.2C2719.82 1235.55 2721.79 1232.88 2723.12 1231.19 2724.46 1229.5 2725.59 1228.25 2726.51 1227.42 2727.43 1226.6 2728.31 1226.02 2729.16 1225.68 2730.01 1225.34 2731.14 1225.17 2732.55 1225.17 2733.82 1225.17 2734.86 1225.34 2735.67 1225.66L2734.05 1233 2731.21 1233C2731.05 1231.86 2730.57 1231.29 2729.79 1231.29 2729.55 1231.29 2729.29 1231.34 2729.02 1231.42 2728.75 1231.5 2728.42 1231.67 2728.03 1231.94 2727.64 1232.21 2727.06 1232.74 2726.31 1233.52 2725.55 1234.31 2724.7 1235.27 2723.75 1236.4 2722.81 1237.54 2721.83 1238.72 2720.83 1239.97L2718.08 1243.41C2718.56 1246.01 2719.02 1248.25 2719.46 1250.14 2719.89 1252.03 2720.27 1253.6 2720.61 1254.86 2720.95 1256.12 2721.25 1257.11 2721.5 1257.84 2721.76 1258.57 2722.04 1259.12 2722.33 1259.48 2722.63 1259.85 2722.93 1260.1 2723.25 1260.25 2723.56 1260.4 2723.91 1260.47 2724.32 1260.47 2725.05 1260.47 2725.76 1260.19 2726.45 1259.62 2727.14 1259.06 2728.13 1257.77 2729.43 1255.77L2732.06 1257.52C2730.17 1260.33 2728.46 1262.3 2726.93 1263.45 2725.41 1264.6 2723.59 1265.18 2721.48 1265.18 2720.32 1265.18 2719.33 1264.97 2718.52 1264.55 2717.71 1264.13 2717.01 1263.46 2716.42 1262.54 2715.82 1261.62 2715.3 1260.19 2714.84 1258.25 2714 1254.79 2713.49 1252.14 2713.3 1250.3L2712.89 1250.3C2710.03 1254.33 2707.9 1257.22 2706.51 1258.97 2705.12 1260.73 2703.97 1262.03 2703.06 1262.87 2702.16 1263.7 2701.28 1264.29 2700.43 1264.63 2699.58 1264.97 2698.45 1265.13 2697.04 1265.13 2695.77 1265.13 2694.73 1264.97 2693.92 1264.65L2695.55 1257.31 2698.38 1257.31C2698.54 1258.45 2699.02 1259.02 2699.8 1259.02 2700.18 1259.02 2700.58 1258.91 2701 1258.71 2701.41 1258.51 2702.02 1258.02 2702.8 1257.25 2703.58 1256.48 2704.66 1255.27 2706.04 1253.63 2707.42 1251.98 2709.42 1249.5 2712.04 1246.21 2711.63 1244.07 2711.22 1242.02 2710.78 1240.05 2710.35 1238.08 2709.91 1236.24 2709.45 1234.54 2708.99 1232.83 2708.61 1231.72 2708.31 1231.19 2708.01 1230.67 2707.7 1230.3 2707.36 1230.1 2707.02 1229.9 2706.6 1229.8 2706.08 1229.8 2705.51 1229.8 2705 1229.92 2704.54 1230.18 2704.08 1230.44 2703.58 1230.88 2703.04 1231.52 2702.5 1232.15 2701.79 1233.15 2700.89 1234.5L2698.26 1232.75C2699.96 1230.19 2701.6 1228.27 2703.16 1227 2704.73 1225.73 2706.58 1225.09 2708.72 1225.09Z" fill-rule="evenodd"/><text fill="#000000" fill-opacity="0" font-family="Arial,Arial_MSFontService,sans-serif" font-size="40.0815" x="2693.92" y="1260.17">ЁЭСе</text><path d="M2741.96 1205.96C2749.84 1208.05 2755.9 1212.54 2760.13 1219.44 2764.36 1226.34 2766.47 1234.67 2766.47 1244.43 2766.47 1254.21 2764.37 1262.53 2760.15 1269.41 2755.94 1276.29 2749.87 1280.76 2741.96 1282.85L2740.98 1279.72C2747.22 1277.64 2751.86 1273.54 2754.9 1267.4 2757.94 1261.27 2759.46 1253.48 2759.46 1244.02 2759.46 1234.89 2757.95 1227.3 2754.92 1221.26 2751.9 1215.23 2747.21 1211.17 2740.86 1209.09Z" fill-rule="evenodd"/><text fill="#000000" fill-opacity="0" font-family="Arial,Arial_MSFontService,sans-serif" font-size="76.8804" x="2740.86" y="1273.24">)</text><path d="M2048 1183.33 2229.5 1183.33 2411 1183.33 2592.5 1183.33 2774 1183.33 2774 1188.33 2592.5 1188.33 2411 1188.33 2229.5 1188.33 2048 1188.33Z" fill-rule="evenodd"/></g></svg>