<svg width="317" height="956" xmlns="http://www.w3.org/2000/svg" xmlns:xlink="http://www.w3.org/1999/xlink" overflow="hidden"><defs><clipPath id="clip0"><rect x="2109" y="449" width="317" height="956"/></clipPath></defs><g clip-path="url(#clip0)" transform="translate(-2109 -449)"><path d="M2200 463.546 2420.54 463.546 2420.54 597.379 2200 597.379Z" fill="#4472C4" fill-rule="evenodd"/><path d="M2200 597.379 2420.54 597.379 2420.54 731.212 2200 731.212Z" fill="#4472C4" fill-rule="evenodd"/><path d="M2200 731.212 2420.54 731.212 2420.54 865.046 2200 865.046Z" fill="#4472C4" fill-rule="evenodd"/><path d="M2200 998.879 2420.54 998.879 2420.54 1132.71 2200 1132.71Z" fill="#4472C4" fill-rule="evenodd"/><path d="M2200 1266.55 2420.54 1266.55 2420.54 1400.38 2200 1400.38Z" fill="#4472C4" fill-rule="evenodd"/><path d="M2197.71 597.379 2422.83 597.379" stroke="#000000" stroke-width="4.58333" stroke-linejoin="round" stroke-miterlimit="10" fill="none" fill-rule="evenodd"/><path d="M2197.71 731.212 2422.83 731.212" stroke="#000000" stroke-width="4.58333" stroke-linejoin="round" stroke-miterlimit="10" fill="none" fill-rule="evenodd"/><path d="M2197.71 865.046 2422.83 865.046" stroke="#000000" stroke-width="4.58333" stroke-linejoin="round" stroke-miterlimit="10" fill="none" fill-rule="evenodd"/><path d="M2197.71 998.879 2422.83 998.879" stroke="#000000" stroke-width="4.58333" stroke-linejoin="round" stroke-miterlimit="10" fill="none" fill-rule="evenodd"/><path d="M2197.71 1132.71 2422.83 1132.71" stroke="#000000" stroke-width="4.58333" stroke-linejoin="round" stroke-miterlimit="10" fill="none" fill-rule="evenodd"/><path d="M2197.71 1266.55 2422.83 1266.55" stroke="#000000" stroke-width="4.58333" stroke-linejoin="round" stroke-miterlimit="10" fill="none" fill-rule="evenodd"/><path d="M2200 461.254 2200 1402.67" stroke="#000000" stroke-width="4.58333" stroke-linejoin="round" stroke-miterlimit="10" fill="none" fill-rule="evenodd"/><path d="M2420.54 461.254 2420.54 1402.67" stroke="#000000" stroke-width="4.58333" stroke-linejoin="round" stroke-miterlimit="10" fill="none" fill-rule="evenodd"/><path d="M2197.71 463.546 2422.83 463.546" stroke="#000000" stroke-width="4.58333" stroke-linejoin="round" stroke-miterlimit="10" fill="none" fill-rule="evenodd"/><path d="M2197.71 1400.38 2422.83 1400.38" stroke="#000000" stroke-width="4.58333" stroke-linejoin="round" stroke-miterlimit="10" fill="none" fill-rule="evenodd"/><path d="M0.110758-2.28899 7.97316-1.90855 15.8102-0.752271 23.5652 1.10638 31.1261 3.60531 38.4224 6.74143 45.3944 10.3873 51.9838 14.5457 58.1957 19.1566 63.8426 24.1618 68.9788 29.5548 73.5472 35.2814 77.4286 41.2329 80.5474 47.4706 82.8312 53.7997 84.2719 60.3483 84.7981 66.9261 84.3376 73.5045 82.9628 80.051 80.7493 86.4311 77.8284 92.5975 74.1477 98.5382 69.8993 104.267 65.012 109.669 59.6859 114.674 53.8467 119.294 47.5651 123.461 40.9709 127.11 33.9936 130.305 27.6172 131.784 26.5813 127.32 32.7321 125.893 32.2958 126.041 38.9833 122.979 38.8279 123.057 45.2654 119.495 45.1083 119.59 51.2333 115.528 51.0781 115.64 56.7656 111.14 56.6181 111.268 61.8056 106.393 61.6756 106.525 66.4257 101.275 66.2842 101.447 70.4092 95.8849 70.3019 96.043 73.8644 90.293 73.7414 90.519 76.5539 84.5815 76.4599 84.8114 78.5849 78.6864 78.5072 78.9665 79.8198 72.7165 79.7764 73.0275 80.2139 66.7775 80.2156 67.1202 79.7156 60.8702 79.7619 61.1799 78.3869 54.9299 78.4694 55.2153 76.2819 49.1528 76.3878 49.3999 73.3878 43.3999 73.518 43.6269 69.768 37.8769 69.896 38.0541 65.4585 32.4916 65.5905 32.643 60.5905 27.393 60.7299 27.5275 55.2299 22.6525 55.3841 22.7776 49.3216 18.2776 49.4645 18.3755 43.027 14.313 43.188 14.4058 36.3755 10.8433 36.5325 10.9179 29.4075 7.85542 29.5933 7.9259 22.2183 5.4884 22.4034 5.54105 14.8409 3.72855 15.0405 3.76712 7.41551 2.64212 7.63924 2.66399-0.110758 2.28899ZM34.1626 142.208 4.58333 133.819 29.0424 115.189Z" fill="#FF0000" transform="matrix(-1 1.22465e-16 1.22465e-16 1 2194.08 515.5)"/><path d="M0.110758-2.28899 7.97316-1.90855 15.8102-0.752271 23.5652 1.10638 31.1261 3.60531 38.4224 6.74143 45.3944 10.3873 51.9838 14.5457 58.1957 19.1566 63.8426 24.1618 68.9788 29.5548 73.5472 35.2814 77.4286 41.2329 80.5474 47.4706 82.8312 53.7997 84.2719 60.3483 84.7981 66.9261 84.3376 73.5045 82.9628 80.051 80.7493 86.4311 77.8284 92.5975 74.1477 98.5382 69.8993 104.267 65.012 109.669 59.6859 114.674 53.8467 119.294 47.5651 123.461 40.9709 127.11 33.9936 130.305 27.6172 131.784 26.5813 127.32 32.7321 125.893 32.2958 126.041 38.9833 122.979 38.8279 123.057 45.2654 119.495 45.1083 119.59 51.2333 115.528 51.0781 115.64 56.7656 111.14 56.6181 111.268 61.8056 106.393 61.6756 106.525 66.4257 101.275 66.2842 101.447 70.4092 95.8849 70.3019 96.043 73.8644 90.293 73.7414 90.519 76.5539 84.5815 76.4599 84.8114 78.5849 78.6864 78.5072 78.9665 79.8198 72.7165 79.7764 73.0275 80.2139 66.7775 80.2156 67.1202 79.7156 60.8702 79.7619 61.1799 78.3869 54.9299 78.4694 55.2153 76.2819 49.1528 76.3878 49.3999 73.3878 43.3999 73.518 43.6269 69.768 37.8769 69.896 38.0541 65.4585 32.4916 65.5905 32.643 60.5905 27.393 60.7299 27.5275 55.2299 22.6525 55.3841 22.7776 49.3216 18.2776 49.4645 18.3755 43.027 14.313 43.188 14.4058 36.3755 10.8433 36.5325 10.9179 29.4075 7.85542 29.5933 7.9259 22.2183 5.4884 22.4034 5.54105 14.8409 3.72855 15.0405 3.76712 7.41551 2.64212 7.63924 2.66399-0.110758 2.28899ZM34.1626 142.208 4.58333 133.819 29.0424 115.189Z" fill="#FF0000" transform="matrix(-1 1.22465e-16 1.22465e-16 1 2199.08 664.5)"/><path d="M0.110758-2.28899 7.97316-1.90855 15.8102-0.752271 23.5652 1.10638 31.1261 3.60531 38.4224 6.74143 45.3944 10.3873 51.9838 14.5457 58.1957 19.1566 63.8426 24.1618 68.9788 29.5548 73.5472 35.2814 77.4286 41.2329 80.5474 47.4706 82.8312 53.7997 84.2719 60.3483 84.7981 66.9261 84.3376 73.5045 82.9628 80.051 80.7493 86.4311 77.8284 92.5975 74.1477 98.5382 69.8993 104.267 65.012 109.669 59.6859 114.674 53.8467 119.294 47.5651 123.461 40.9709 127.11 33.9936 130.305 27.6172 131.784 26.5813 127.32 32.7321 125.893 32.2958 126.041 38.9833 122.979 38.8279 123.057 45.2654 119.495 45.1083 119.59 51.2333 115.528 51.0781 115.64 56.7656 111.14 56.6181 111.268 61.8056 106.393 61.6756 106.525 66.4257 101.275 66.2842 101.447 70.4092 95.8849 70.3019 96.043 73.8644 90.293 73.7414 90.519 76.5539 84.5815 76.4599 84.8114 78.5849 78.6864 78.5072 78.9665 79.8198 72.7165 79.7764 73.0275 80.2139 66.7775 80.2156 67.1202 79.7156 60.8702 79.7619 61.1799 78.3869 54.9299 78.4694 55.2153 76.2819 49.1528 76.3878 49.3999 73.3878 43.3999 73.518 43.6269 69.768 37.8769 69.896 38.0541 65.4585 32.4916 65.5905 32.643 60.5905 27.393 60.7299 27.5275 55.2299 22.6525 55.3841 22.7776 49.3216 18.2776 49.4645 18.3755 43.027 14.313 43.188 14.4058 36.3755 10.8433 36.5325 10.9179 29.4075 7.85542 29.5933 7.9259 22.2183 5.4884 22.4034 5.54105 14.8409 3.72855 15.0405 3.76712 7.41551 2.64212 7.63924 2.66399-0.110758 2.28899ZM34.1626 142.208 4.58333 133.819 29.0424 115.189Z" fill="#FF0000" transform="matrix(-1 1.22465e-16 1.22465e-16 1 2201.08 817.5)"/></g></svg>