<svg width="834" height="138" xmlns="http://www.w3.org/2000/svg" xmlns:xlink="http://www.w3.org/1999/xlink" overflow="hidden"><defs><clipPath id="clip0"><rect x="951" y="298" width="834" height="138"/></clipPath></defs><g clip-path="url(#clip0)" transform="translate(-951 -298)"><path d="M953.333 300.379 1028.5 300.379 1028.5 393.879 953.333 393.879Z" fill="#AFABAB" fill-rule="evenodd"/><path d="M1028.5 300.379 1103.67 300.379 1103.67 393.879 1028.5 393.879Z" fill="#AFABAB" fill-rule="evenodd"/><path d="M1103.67 300.379 1178.83 300.379 1178.83 393.879 1103.67 393.879Z" fill="#AFABAB" fill-rule="evenodd"/><path d="M1178.83 300.379 1254 300.379 1254 393.879 1178.83 393.879Z" fill="#AFABAB" fill-rule="evenodd"/><path d="M1254 300.379 1329.17 300.379 1329.17 393.879 1254 393.879Z" fill="#AFABAB" fill-rule="evenodd"/><path d="M1404.33 300.379 1479.5 300.379 1479.5 393.879 1404.33 393.879Z" fill="#AFABAB" fill-rule="evenodd"/><path d="M1479.5 300.379 1554.67 300.379 1554.67 393.879 1479.5 393.879Z" fill="#AFABAB" fill-rule="evenodd"/><path d="M1629.83 300.379 1705 300.379 1705 393.879 1629.83 393.879Z" fill="#AFABAB" fill-rule="evenodd"/><path d="M1028.5 298.087 1028.5 396.17" stroke="#000000" stroke-width="4.58333" stroke-linejoin="round" stroke-miterlimit="10" fill="none" fill-rule="evenodd"/><path d="M1103.67 298.087 1103.67 396.17" stroke="#000000" stroke-width="4.58333" stroke-linejoin="round" stroke-miterlimit="10" fill="none" fill-rule="evenodd"/><path d="M1178.83 298.087 1178.83 396.17" stroke="#000000" stroke-width="4.58333" stroke-linejoin="round" stroke-miterlimit="10" fill="none" fill-rule="evenodd"/><path d="M1254 298.087 1254 396.17" stroke="#000000" stroke-width="4.58333" stroke-linejoin="round" stroke-miterlimit="10" fill="none" fill-rule="evenodd"/><path d="M1329.17 298.087 1329.17 396.17" stroke="#000000" stroke-width="4.58333" stroke-linejoin="round" stroke-miterlimit="10" fill="none" fill-rule="evenodd"/><path d="M1404.33 298.087 1404.33 396.17" stroke="#000000" stroke-width="4.58333" stroke-linejoin="round" stroke-miterlimit="10" fill="none" fill-rule="evenodd"/><path d="M1479.5 298.087 1479.5 396.17" stroke="#000000" stroke-width="4.58333" stroke-linejoin="round" stroke-miterlimit="10" fill="none" fill-rule="evenodd"/><path d="M1554.67 298.087 1554.67 396.17" stroke="#000000" stroke-width="4.58333" stroke-linejoin="round" stroke-miterlimit="10" fill="none" fill-rule="evenodd"/><path d="M1629.83 298.087 1629.83 396.17" stroke="#000000" stroke-width="4.58333" stroke-linejoin="round" stroke-miterlimit="10" fill="none" fill-rule="evenodd"/><path d="M1705 298.087 1705 396.17" stroke="#000000" stroke-width="4.58333" stroke-linejoin="round" stroke-miterlimit="10" fill="none" fill-rule="evenodd"/><path d="M953.333 298.087 953.333 396.17" stroke="#000000" stroke-width="4.58333" stroke-linejoin="round" stroke-miterlimit="10" fill="none" fill-rule="evenodd"/><path d="M1780.17 298.087 1780.17 396.17" stroke="#000000" stroke-width="4.58333" stroke-linejoin="round" stroke-miterlimit="10" fill="none" fill-rule="evenodd"/><path d="M951.042 300.379 1782.46 300.379" stroke="#000000" stroke-width="4.58333" stroke-linejoin="round" stroke-miterlimit="10" fill="none" fill-rule="evenodd"/><path d="M951.042 393.879 1782.46 393.879" stroke="#000000" stroke-width="4.58333" stroke-linejoin="round" stroke-miterlimit="10" fill="none" fill-rule="evenodd"/><path d="M0.134571-2.28771 3.45103-2.09263 6.99842-1.47866 13.5457 0.703779 19.7182 4.08871 25.2076 8.51991 29.8381 13.6796 33.504 19.545 35.8412 25.822 36.4662 29.1552 36.6746 32.5595 35.9392 39.0446 33.9322 45.3331 30.6394 51.4983 25.5652 55.0662 22.929 51.317 27.5569 48.0629 26.8536 48.8579 29.7911 43.3579 29.6293 43.7407 31.5043 37.8657 31.4104 38.3043 32.0979 32.2418 32.0876 32.64 31.9001 29.5775 31.9351 29.8598 31.3726 26.8598 31.4774 27.2371 29.2899 21.3621 29.4942 21.7771 26.0567 16.2771 26.2944 16.5931 21.9194 11.7181 22.1856 11.9707 16.9981 7.78319 17.3356 8.00936 11.5231 4.82186 11.9003 4.98657 5.71281 2.92407 6.04668 3.00809 2.79668 2.44559 3.05293 2.47521-0.134571 2.28771ZM35.2413 62.636 4.58333 64.9606 21.1184 39.0395Z" fill="#FF0000" transform="matrix(6.12323e-17 1 1 -6.12323e-17 986.5 398.5)"/><path d="M0.134571-2.28771 3.45103-2.09263 6.99842-1.47866 13.5457 0.703779 19.7182 4.08871 25.2076 8.51991 29.8381 13.6796 33.504 19.545 35.8412 25.822 36.4662 29.1552 36.6746 32.5595 35.9392 39.0446 33.9322 45.3331 30.6394 51.4983 25.5652 55.0662 22.929 51.317 27.5569 48.0629 26.8536 48.8579 29.7911 43.3579 29.6293 43.7407 31.5043 37.8657 31.4104 38.3043 32.0979 32.2418 32.0876 32.64 31.9001 29.5775 31.9351 29.8598 31.3726 26.8598 31.4774 27.2371 29.2899 21.3621 29.4942 21.7771 26.0567 16.2771 26.2944 16.5931 21.9194 11.7181 22.1856 11.9707 16.9981 7.78319 17.3356 8.00936 11.5231 4.82186 11.9003 4.98657 5.71281 2.92407 6.04668 3.00809 2.79668 2.44559 3.05293 2.47521-0.134571 2.28771ZM35.2413 62.636 4.58333 64.9606 21.1184 39.0395Z" fill="#FF0000" transform="matrix(6.12323e-17 1 1 -6.12323e-17 1063.5 398.5)"/><path d="M0.134571-2.28771 3.45103-2.09263 6.99842-1.47866 13.5457 0.703779 19.7182 4.08871 25.2076 8.51991 29.8381 13.6796 33.504 19.545 35.8412 25.822 36.4662 29.1552 36.6746 32.5595 35.9392 39.0446 33.9322 45.3331 30.6394 51.4983 25.5652 55.0662 22.929 51.317 27.5569 48.0629 26.8536 48.8579 29.7911 43.3579 29.6293 43.7407 31.5043 37.8657 31.4104 38.3043 32.0979 32.2418 32.0876 32.64 31.9001 29.5775 31.9351 29.8598 31.3726 26.8598 31.4774 27.2371 29.2899 21.3621 29.4942 21.7771 26.0567 16.2771 26.2944 16.5931 21.9194 11.7181 22.1856 11.9707 16.9981 7.78319 17.3356 8.00936 11.5231 4.82186 11.9003 4.98657 5.71281 2.92407 6.04668 3.00809 2.79668 2.44559 3.05293 2.47521-0.134571 2.28771ZM35.2413 62.636 4.58333 64.9606 21.1184 39.0395Z" fill="#FF0000" transform="matrix(6.12323e-17 1 1 -6.12323e-17 1141.5 398.5)"/><path d="M0.134571-2.28771 3.45103-2.09263 6.99842-1.47866 13.5457 0.703779 19.7182 4.08871 25.2076 8.51991 29.8381 13.6796 33.504 19.545 35.8412 25.822 36.4662 29.1552 36.6746 32.5595 35.9392 39.0446 33.9322 45.3331 30.6394 51.4983 25.5652 55.0662 22.929 51.317 27.5569 48.0629 26.8536 48.8579 29.7911 43.3579 29.6293 43.7407 31.5043 37.8657 31.4104 38.3043 32.0979 32.2418 32.0876 32.64 31.9001 29.5775 31.9351 29.8598 31.3726 26.8598 31.4774 27.2371 29.2899 21.3621 29.4942 21.7771 26.0567 16.2771 26.2944 16.5931 21.9194 11.7181 22.1856 11.9707 16.9981 7.78319 17.3356 8.00936 11.5231 4.82186 11.9003 4.98657 5.71281 2.92407 6.04668 3.00809 2.79668 2.44559 3.05293 2.47521-0.134571 2.28771ZM35.2413 62.636 4.58333 64.9606 21.1184 39.0395Z" fill="#FF0000" transform="matrix(6.12323e-17 1 1 -6.12323e-17 1218.5 398.5)"/><path d="M0.134571-2.28771 3.45103-2.09263 6.99842-1.47866 13.5457 0.703779 19.7182 4.08871 25.2076 8.51991 29.8381 13.6796 33.504 19.545 35.8412 25.822 36.4662 29.1552 36.6746 32.5595 35.9392 39.0446 33.9322 45.3331 30.6394 51.4983 25.5652 55.0662 22.929 51.317 27.5569 48.0629 26.8536 48.8579 29.7911 43.3579 29.6293 43.7407 31.5043 37.8657 31.4104 38.3043 32.0979 32.2418 32.0876 32.64 31.9001 29.5775 31.9351 29.8598 31.3726 26.8598 31.4774 27.2371 29.2899 21.3621 29.4942 21.7771 26.0567 16.2771 26.2944 16.5931 21.9194 11.7181 22.1856 11.9707 16.9981 7.78319 17.3356 8.00936 11.5231 4.82186 11.9003 4.98657 5.71281 2.92407 6.04668 3.00809 2.79668 2.44559 3.05293 2.47521-0.134571 2.28771ZM35.2413 62.636 4.58333 64.9606 21.1184 39.0395Z" fill="#FF0000" transform="matrix(6.12323e-17 1 1 -6.12323e-17 1295.5 398.5)"/></g></svg>