<svg width="834" height="101" xmlns="http://www.w3.org/2000/svg" xmlns:xlink="http://www.w3.org/1999/xlink" overflow="hidden"><defs><clipPath id="clip0"><rect x="951" y="602" width="834" height="101"/></clipPath></defs><g clip-path="url(#clip0)" transform="translate(-951 -602)"><path d="M953.333 604.598 1028.5 604.598 1028.5 698.098 953.333 698.098Z" fill="#AFABAB" fill-rule="evenodd"/><path d="M1028.5 604.598 1103.67 604.598 1103.67 698.098 1028.5 698.098Z" fill="#AFABAB" fill-rule="evenodd"/><path d="M1103.67 604.598 1178.83 604.598 1178.83 698.098 1103.67 698.098Z" fill="#AFABAB" fill-rule="evenodd"/><path d="M1178.83 604.598 1254 604.598 1254 698.098 1178.83 698.098Z" fill="#AFABAB" fill-rule="evenodd"/><path d="M1254 604.598 1329.17 604.598 1329.17 698.098 1254 698.098Z" fill="#AFABAB" fill-rule="evenodd"/><path d="M1404.33 604.598 1479.5 604.598 1479.5 698.098 1404.33 698.098Z" fill="#AFABAB" fill-rule="evenodd"/><path d="M1479.5 604.598 1554.67 604.598 1554.67 698.098 1479.5 698.098Z" fill="#AFABAB" fill-rule="evenodd"/><path d="M1629.83 604.598 1705 604.598 1705 698.098 1629.83 698.098Z" fill="#AFABAB" fill-rule="evenodd"/><path d="M1028.5 602.306 1028.5 700.389" stroke="#000000" stroke-width="4.58333" stroke-linejoin="round" stroke-miterlimit="10" fill="none" fill-rule="evenodd"/><path d="M1103.67 602.306 1103.67 700.389" stroke="#000000" stroke-width="4.58333" stroke-linejoin="round" stroke-miterlimit="10" fill="none" fill-rule="evenodd"/><path d="M1178.83 602.306 1178.83 700.389" stroke="#000000" stroke-width="4.58333" stroke-linejoin="round" stroke-miterlimit="10" fill="none" fill-rule="evenodd"/><path d="M1254 602.306 1254 700.389" stroke="#000000" stroke-width="4.58333" stroke-linejoin="round" stroke-miterlimit="10" fill="none" fill-rule="evenodd"/><path d="M1329.17 602.306 1329.17 700.389" stroke="#000000" stroke-width="4.58333" stroke-linejoin="round" stroke-miterlimit="10" fill="none" fill-rule="evenodd"/><path d="M1404.33 602.306 1404.33 700.389" stroke="#000000" stroke-width="4.58333" stroke-linejoin="round" stroke-miterlimit="10" fill="none" fill-rule="evenodd"/><path d="M1479.5 602.306 1479.5 700.389" stroke="#000000" stroke-width="4.58333" stroke-linejoin="round" stroke-miterlimit="10" fill="none" fill-rule="evenodd"/><path d="M1554.67 602.306 1554.67 700.389" stroke="#000000" stroke-width="4.58333" stroke-linejoin="round" stroke-miterlimit="10" fill="none" fill-rule="evenodd"/><path d="M1629.83 602.306 1629.83 700.389" stroke="#000000" stroke-width="4.58333" stroke-linejoin="round" stroke-miterlimit="10" fill="none" fill-rule="evenodd"/><path d="M1705 602.306 1705 700.389" stroke="#000000" stroke-width="4.58333" stroke-linejoin="round" stroke-miterlimit="10" fill="none" fill-rule="evenodd"/><path d="M953.333 602.306 953.333 700.389" stroke="#000000" stroke-width="4.58333" stroke-linejoin="round" stroke-miterlimit="10" fill="none" fill-rule="evenodd"/><path d="M1780.17 602.306 1780.17 700.389" stroke="#000000" stroke-width="4.58333" stroke-linejoin="round" stroke-miterlimit="10" fill="none" fill-rule="evenodd"/><path d="M951.042 604.598 1782.46 604.598" stroke="#000000" stroke-width="4.58333" stroke-linejoin="round" stroke-miterlimit="10" fill="none" fill-rule="evenodd"/><path d="M951.042 698.098 1782.46 698.098" stroke="#000000" stroke-width="4.58333" stroke-linejoin="round" stroke-miterlimit="10" fill="none" fill-rule="evenodd"/><text fill="#FF0000" font-family="Calibri,Calibri_MSFontService,sans-serif" font-weight="400" font-size="37" transform="matrix(1 0 0 1 1044.32 663)">+1<tspan font-size="37" x="232.033" y="0">+4</tspan><tspan font-size="37" x="603.283" y="0">+9</tspan><tspan font-size="37" x="294.337" y="0">+16</tspan></text></g></svg>