<svg width="351" height="351" xmlns="http://www.w3.org/2000/svg" xmlns:xlink="http://www.w3.org/1999/xlink" overflow="hidden"><defs><clipPath id="clip0"><rect x="686" y="0" width="351" height="351"/></clipPath></defs><g clip-path="url(#clip0)" transform="translate(-686 0)"><path d="M995.527 48.1062 943.554 48.1062C943.427 49.1664 943.361 50.2343 943.358 51.3022 943.04 55.8891 944.426 60.4324 947.246 64.0632 947.411 64.0733 947.566 64.1267 947.731 64.142L947.729 64.142C949.631 63.7428 951.591 63.7174 953.503 64.0632 962.944 65.815 968.929 76.2272 966.869 87.3199 964.81 98.4132 955.489 105.985 946.048 104.233L946.048 104.235C943.213 103.671 940.6 102.313 938.507 100.32 919.883 96.0306 906.181 76.0536 906.181 51.3011 906.181 50.2205 906.254 49.1679 906.305 48.1051L801.399 48.1051C801.272 49.1653 801.206 50.2332 801.201 51.3011 800.886 55.888 802.269 60.4313 805.089 64.0621 805.254 64.0722 805.409 64.1256 805.574 64.1409 807.476 63.7417 809.437 63.7163 811.349 64.0621 820.789 65.8139 826.774 76.2261 824.715 87.3188 822.655 98.4121 813.334 105.984 803.894 104.232L803.894 104.234C801.059 103.67 798.443 102.312 796.35 100.319 777.726 96.0295 764.023 76.0525 764.023 51.3 764.023 50.6135 764.082 49.9474 764.102 49.2685L764.105 49.2685C756.66 51.4805 750.349 56.4642 746.469 63.1919 742.376 67.2499 739.531 72.3963 738.269 78.0201L697.964 274.976C694.977 289.574 706.011 301.45 722.564 301.45L742.167 301.45 742.164 309.769C742.05 317.857 745.147 325.663 750.778 331.47 756.408 337.28 764.111 340.619 772.202 340.756L995.526 340.756C1003.61 340.614 1011.31 337.273 1016.93 331.463 1022.56 325.656 1025.65 317.853 1025.53 309.77L1025.53 79.0902C1025.65 71.0073 1022.56 63.2043 1016.93 57.397 1011.31 51.5872 1003.61 48.2459 995.526 48.104ZM725.572 286.753C718.211 286.753 713.304 281.472 714.634 274.981L745.872 122.331 995.896 122.331 964.658 274.981C963.677 278.393 961.604 281.39 958.759 283.516 955.914 285.641 952.454 286.778 948.901 286.753ZM1008.86 309.773C1008.92 313.366 1007.54 316.834 1005.05 319.414 1002.55 321.998 999.123 323.482 995.531 323.544L772.207 323.544C768.609 323.485 765.181 322.003 762.674 319.422 760.17 316.839 758.789 313.371 758.837 309.773L758.837 301.451 945.9 301.451C962.452 301.451 978.346 289.575 981.334 274.978L1008.86 140.436Z" fill="#A6A6A6"/><path d="M946.02 89.9064C950.047 89.9064 953.312 86.6418 953.312 82.6144 953.312 78.5895 950.047 75.3249 946.02 75.3249 939.414 75.3249 932.056 65.4599 932.056 51.3054 932.056 37.1509 939.414 27.2884 946.02 27.2884 949.994 27.2884 954.229 30.8785 956.983 36.813L972.529 36.813C968.369 22.5596 958.209 12.7095 946.02 12.7095 930.011 12.7095 917.474 29.6635 917.474 51.3086 917.477 72.9511 930.015 89.9077 946.02 89.9077Z" fill="#A6A6A6"/><path d="M803.863 89.9064C807.888 89.9064 811.152 86.6418 811.152 82.6144 811.152 78.5895 807.887 75.3249 803.863 75.3249 797.257 75.3249 789.899 65.4599 789.899 51.3054 789.899 37.1509 797.257 27.2884 803.863 27.2884 807.837 27.2884 812.073 30.8785 814.826 36.813L830.372 36.813C826.212 22.5596 816.052 12.7095 803.863 12.7095 787.854 12.7095 775.317 29.6635 775.317 51.3086 775.317 72.9511 787.855 89.9077 803.863 89.9077Z" fill="#A6A6A6"/><path d="M691.462 412.926C690.832 413.252 690.173 413.496 689.489 413.658 688.81 413.826 688.099 413.913 687.354 413.913 685.142 413.913 683.39 413.297 682.096 412.062 680.799 410.821 680.153 409.143 680.153 407.027 680.153 404.907 680.799 403.229 682.096 401.993 683.39 400.752 685.142 400.132 687.354 400.132 688.099 400.132 688.811 400.218 689.489 400.386 690.173 400.549 690.832 400.793 691.462 401.118L691.462 403.864C690.824 403.437 690.196 403.122 689.581 402.918 688.963 402.715 688.312 402.613 687.628 402.613 686.408 402.613 685.447 403.007 684.75 403.793 684.051 404.574 683.702 405.652 683.702 407.027 683.702 408.398 684.051 409.476 684.75 410.262 685.447 411.042 686.408 411.431 687.628 411.431 688.312 411.431 688.963 411.335 689.581 411.136 690.196 410.933 690.824 410.615 691.462 410.18Z" fill="#A6A6A6"/><path d="M701.564 406.407C701.279 406.28 700.997 406.183 700.719 406.122 700.447 406.056 700.173 406.02 699.896 406.02 699.074 406.02 698.444 406.285 698.004 406.814 697.562 407.337 697.343 408.085 697.343 409.061L697.343 413.658 694.16 413.658 694.16 403.692 697.343 403.692 697.343 405.329C697.75 404.678 698.218 404.205 698.746 403.905 699.28 403.6 699.919 403.447 700.658 403.447 700.765 403.447 700.882 403.455 701.004 403.468 701.131 403.475 701.314 403.493 701.553 403.519Z" fill="#A6A6A6"/><path d="M713.095 408.644 713.095 409.56 705.64 409.56C705.721 410.307 705.991 410.867 706.454 411.238 706.914 411.612 707.562 411.797 708.396 411.797 709.067 411.797 709.751 411.701 710.45 411.502 711.155 411.299 711.877 410.999 712.617 410.597L712.617 413.048C711.864 413.333 711.112 413.546 710.359 413.689 709.606 413.836 708.854 413.913 708.101 413.913 706.296 413.913 704.892 413.455 703.891 412.54 702.894 411.624 702.395 410.34 702.395 408.685 702.395 407.058 702.886 405.781 703.87 404.851 704.852 403.915 706.202 403.447 707.918 403.447 709.484 403.447 710.738 403.923 711.681 404.871 712.622 405.814 713.095 407.073 713.095 408.644ZM709.82 407.587C709.82 406.984 709.642 406.498 709.291 406.132 708.938 405.761 708.477 405.573 707.908 405.573 707.29 405.573 706.789 405.746 706.403 406.092 706.016 406.437 705.775 406.936 705.681 407.587Z" fill="#A6A6A6"/><path d="M719.972 409.173C719.306 409.173 718.805 409.285 718.467 409.509 718.134 409.733 717.969 410.066 717.969 410.506 717.969 410.912 718.103 411.233 718.375 411.462 718.645 411.685 719.019 411.797 719.494 411.797 720.097 411.797 720.603 411.584 721.01 411.156 721.421 410.724 721.63 410.185 721.63 409.539L721.63 409.173ZM724.834 407.973 724.834 413.658 721.63 413.658 721.63 412.184C721.203 412.789 720.72 413.229 720.186 413.506 719.649 413.775 718.998 413.913 718.233 413.913 717.201 413.913 716.364 413.615 715.721 413.018 715.075 412.415 714.755 411.632 714.755 410.668 714.755 409.504 715.154 408.649 715.955 408.105 716.761 407.556 718.025 407.282 719.748 407.282L721.63 407.282 721.63 407.027C721.63 406.526 721.429 406.16 721.03 405.929 720.628 405.692 720.008 405.573 719.169 405.573 718.482 405.573 717.846 405.642 717.257 405.776 716.672 405.914 716.13 406.117 715.629 406.387L715.629 403.956C716.306 403.793 716.987 403.669 717.674 403.58 718.365 403.493 719.057 403.447 719.748 403.447 721.543 403.447 722.84 403.803 723.633 404.515 724.432 405.222 724.834 406.374 724.834 407.973Z" fill="#A6A6A6"/><path d="M731.284 400.864 731.284 403.692 734.569 403.692 734.569 405.97 731.284 405.97 731.284 410.201C731.284 410.663 731.376 410.974 731.559 411.136 731.742 411.299 732.103 411.38 732.647 411.38L734.284 411.38 734.284 413.659 731.559 413.659C730.298 413.659 729.403 413.399 728.874 412.875 728.35 412.347 728.091 411.457 728.091 410.201L728.091 405.97 726.514 405.97 726.514 403.692 728.091 403.692 728.091 400.864Z" fill="#A6A6A6"/><path d="M746.466 408.644 746.466 409.56 739.011 409.56C739.093 410.307 739.362 410.867 739.825 411.238 740.285 411.612 740.933 411.797 741.767 411.797 742.439 411.797 743.123 411.701 743.822 411.502 744.526 411.299 745.248 410.999 745.988 410.597L745.988 413.048C745.236 413.333 744.483 413.546 743.73 413.689 742.978 413.836 742.225 413.913 741.472 413.913 739.667 413.913 738.264 413.455 737.262 412.54 736.265 411.624 735.767 410.34 735.767 408.685 735.767 407.058 736.258 405.781 737.242 404.851 738.223 403.915 739.573 403.447 741.289 403.447 742.856 403.447 744.109 403.923 745.052 404.871 745.993 405.814 746.466 407.073 746.466 408.644ZM743.191 407.587C743.191 406.984 743.013 406.498 742.662 406.132 742.309 405.761 741.849 405.573 741.279 405.573 740.661 405.573 740.16 405.746 739.774 406.092 739.388 406.437 739.146 406.936 739.052 407.587Z" fill="#A6A6A6"/><path d="M755.652 405.146 755.652 399.806 758.856 399.806 758.856 413.658 755.652 413.658 755.652 412.214C755.218 412.804 754.737 413.236 754.208 413.506 753.679 413.775 753.064 413.913 752.367 413.913 751.139 413.913 750.132 413.424 749.347 412.448 748.559 411.472 748.167 410.218 748.167 408.685 748.167 407.147 748.559 405.888 749.347 404.912 750.132 403.935 751.139 403.447 752.367 403.447 753.059 403.447 753.669 403.587 754.198 403.864 754.732 404.144 755.218 404.571 755.652 405.146ZM753.557 411.604C754.234 411.604 754.752 411.357 755.113 410.862 755.472 410.361 755.652 409.636 755.652 408.685 755.652 407.737 755.472 407.015 755.113 406.519 754.752 406.018 754.234 405.766 753.557 405.766 752.878 405.766 752.36 406.018 752.001 406.519 751.64 407.015 751.462 407.737 751.462 408.685 751.462 409.636 751.64 410.361 752.001 410.862 752.36 411.357 752.878 411.604 753.557 411.604Z" fill="#A6A6A6"/><path d="M773.57 411.604C774.254 411.604 774.775 411.357 775.136 410.862 775.495 410.361 775.675 409.636 775.675 408.685 775.675 407.737 775.495 407.015 775.136 406.519 774.775 406.018 774.254 405.766 773.57 405.766 772.883 405.766 772.36 406.018 771.993 406.519 771.632 407.022 771.454 407.744 771.454 408.685 771.454 409.628 771.632 410.35 771.993 410.851 772.36 411.355 772.883 411.604 773.57 411.604ZM771.454 405.146C771.894 404.571 772.38 404.144 772.909 403.864 773.443 403.587 774.058 403.447 774.75 403.447 775.983 403.447 776.992 403.936 777.78 404.912 778.566 405.888 778.96 407.147 778.96 408.685 778.96 410.218 778.566 411.472 777.78 412.448 776.992 413.424 775.983 413.913 774.75 413.913 774.058 413.913 773.443 413.775 772.909 413.506 772.38 413.229 771.894 412.799 771.454 412.214L771.454 413.658 768.271 413.658 768.271 399.807 771.454 399.807Z" fill="#A6A6A6"/><path d="M780.005 403.692 783.188 403.692 785.873 410.455 788.151 403.692 791.335 403.692 787.145 414.605C786.723 415.708 786.232 416.481 785.67 416.924 785.105 417.371 784.368 417.595 783.453 417.595L781.602 417.595 781.602 415.5 782.598 415.5C783.14 415.5 783.534 415.411 783.778 415.235 784.027 415.065 784.221 414.76 784.358 414.32L784.449 414.045Z" fill="#A6A6A6"/><path d="M799.685 400.376 803.102 400.376 803.102 411.065 809.123 411.065 809.123 413.659 799.685 413.659Z" fill="#A6A6A6"/><path d="M809.842 403.692 813.026 403.692 815.711 410.455 817.989 403.692 821.172 403.692 816.982 414.605C816.56 415.708 816.069 416.481 815.507 416.924 814.943 417.371 814.205 417.595 813.29 417.595L811.439 417.595 811.439 415.5 812.436 415.5C812.977 415.5 813.371 415.411 813.615 415.235 813.865 415.065 814.058 414.76 814.195 414.32L814.287 414.045Z" fill="#A6A6A6"/><path d="M833.054 407.587 833.054 413.658 829.85 413.658 829.85 409.031C829.85 408.156 829.83 407.556 829.789 407.231 829.748 406.905 829.68 406.666 829.585 406.509 829.463 406.305 829.293 406.148 829.077 406.031 828.866 405.916 828.624 405.858 828.355 405.858 827.689 405.858 827.167 406.117 826.789 406.631 826.407 407.139 826.219 407.849 826.219 408.756L826.219 413.658 823.036 413.658 823.036 399.806 826.219 399.806 826.219 405.146C826.7 404.571 827.208 404.144 827.745 403.864 828.286 403.587 828.884 403.447 829.535 403.447 830.686 403.447 831.561 403.803 832.159 404.515 832.754 405.222 833.054 406.244 833.054 407.587Z" fill="#A6A6A6"/><path d="M846.026 407.587 846.026 413.658 842.822 413.658 842.822 409.011C842.822 408.151 842.802 407.556 842.761 407.231 842.72 406.905 842.652 406.666 842.558 406.509 842.436 406.305 842.265 406.148 842.049 406.031 841.838 405.916 841.597 405.858 841.327 405.858 840.661 405.858 840.14 406.117 839.761 406.631 839.38 407.139 839.191 407.849 839.191 408.756L839.191 413.658 836.008 413.658 836.008 403.692 839.191 403.692 839.191 405.146C839.672 404.571 840.18 404.144 840.717 403.865 841.259 403.587 841.856 403.448 842.507 403.448 843.659 403.448 844.533 403.804 845.131 404.515 845.726 405.222 846.026 406.244 846.026 407.587Z" fill="#A6A6A6"/><path d="M687.333 418.032 687.333 420.127 685.574 420.127C685.126 420.127 684.811 420.208 684.628 420.371 684.45 420.534 684.363 420.819 684.363 421.225L684.363 421.917 687.089 421.917 687.089 424.195 684.363 424.195 684.363 431.884 681.18 431.884 681.18 424.195 679.594 424.195 679.594 421.917 681.18 421.917 681.18 421.225C681.18 420.142 681.48 419.339 682.085 418.815 682.688 418.294 683.626 418.032 684.902 418.032Z" fill="#A6A6A6"/><path d="M696.117 424.632C695.833 424.505 695.55 424.408 695.273 424.347 695.001 424.281 694.727 424.245 694.449 424.245 693.628 424.245 692.998 424.51 692.558 425.039 692.115 425.563 691.897 426.31 691.897 427.286L691.897 431.883 688.713 431.883 688.713 421.917 691.897 421.917 691.897 423.554C692.304 422.903 692.771 422.43 693.3 422.13 693.834 421.825 694.472 421.673 695.212 421.673 695.319 421.673 695.436 421.68 695.558 421.693 695.685 421.701 695.868 421.718 696.107 421.744Z" fill="#A6A6A6"/><path d="M702.441 423.95C701.734 423.95 701.195 424.205 700.824 424.713 700.45 425.222 700.265 425.954 700.265 426.91 700.265 427.866 700.45 428.598 700.824 429.107 701.195 429.61 701.734 429.859 702.441 429.859 703.133 429.859 703.661 429.61 704.028 429.107 704.399 428.598 704.587 427.866 704.587 426.91 704.587 425.954 704.399 425.222 704.028 424.713 703.661 424.205 703.133 423.95 702.441 423.95ZM702.441 421.672C704.155 421.672 705.495 422.138 706.458 423.066 707.419 423.989 707.902 425.27 707.902 426.91 707.902 428.545 707.419 429.826 706.458 430.754 705.495 431.677 704.155 432.137 702.441 432.137 700.717 432.137 699.372 431.677 698.403 430.754 697.432 429.826 696.949 428.545 696.949 426.91 696.949 425.27 697.432 423.989 698.403 423.066 699.372 422.138 700.717 421.672 702.441 421.672Z" fill="#A6A6A6"/><path d="M719.456 423.574C719.855 422.959 720.333 422.486 720.89 422.161 721.444 421.835 722.055 421.672 722.721 421.672 723.865 421.672 724.737 422.028 725.334 422.74 725.937 423.447 726.24 424.469 726.24 425.812L726.24 431.883 723.036 431.883 723.036 426.686 723.036 426.452C723.041 426.366 723.046 426.244 723.046 426.086 723.046 425.382 722.939 424.873 722.731 424.561 722.527 424.243 722.194 424.083 721.734 424.083 721.129 424.083 720.661 424.334 720.331 424.835 719.998 425.331 719.827 426.051 719.822 426.991L719.822 431.883 716.619 431.883 716.619 426.686C716.619 425.583 716.522 424.873 716.334 424.561 716.143 424.243 715.805 424.083 715.317 424.083 714.706 424.083 714.234 424.334 713.903 424.835 713.57 425.331 713.405 426.045 713.405 426.981L713.405 431.883 710.201 431.883 710.201 421.917 713.405 421.917 713.405 423.371C713.796 422.809 714.244 422.384 714.747 422.1 715.256 421.815 715.815 421.673 716.425 421.673 717.117 421.673 717.727 421.84 718.256 422.171 718.785 422.504 719.184 422.972 719.456 423.574Z" fill="#A6A6A6"/><path d="M739.036 419.09 739.036 421.917 742.321 421.917 742.321 424.195 739.036 424.195 739.036 428.426C739.036 428.889 739.128 429.199 739.311 429.362 739.494 429.524 739.855 429.606 740.399 429.606L742.037 429.606 742.037 431.884 739.311 431.884C738.05 431.884 737.155 431.624 736.626 431.101 736.102 430.572 735.843 429.682 735.843 428.426L735.843 424.195 734.267 424.195 734.267 421.917 735.843 421.917 735.843 419.09Z" fill="#A6A6A6"/><path d="M754.287 425.812 754.287 431.884 751.083 431.884 751.083 427.256C751.083 426.381 751.063 425.781 751.022 425.456 750.981 425.131 750.913 424.892 750.819 424.734 750.697 424.53 750.526 424.373 750.31 424.256 750.099 424.141 749.858 424.083 749.588 424.083 748.922 424.083 748.401 424.342 748.022 424.856 747.641 425.364 747.452 426.074 747.452 426.982L747.452 431.884 744.269 431.884 744.269 418.032 747.452 418.032 747.452 423.371C747.933 422.797 748.441 422.369 748.978 422.09 749.52 421.812 750.117 421.673 750.768 421.673 751.92 421.673 752.794 422.029 753.392 422.741 753.987 423.447 754.287 424.469 754.287 425.812Z" fill="#A6A6A6"/><path d="M767.191 426.87 767.191 427.785 759.736 427.785C759.817 428.532 760.087 429.092 760.55 429.463 761.01 429.837 761.658 430.022 762.492 430.022 763.163 430.022 763.847 429.926 764.546 429.728 765.251 429.524 765.973 429.224 766.713 428.822L766.713 431.273C765.96 431.558 765.208 431.772 764.455 431.914 763.702 432.062 762.95 432.138 762.197 432.138 760.392 432.138 758.988 431.68 757.986 430.765 756.99 429.85 756.491 428.566 756.491 426.91 756.491 425.283 756.982 424.007 757.966 423.076 758.948 422.14 760.298 421.673 762.014 421.673 763.58 421.673 764.834 422.148 765.777 423.096 766.718 424.04 767.191 425.298 767.191 426.87ZM763.916 425.812C763.916 425.209 763.738 424.724 763.387 424.358 763.034 423.986 762.573 423.798 762.004 423.798 761.386 423.798 760.885 423.971 760.499 424.317 760.112 424.663 759.871 425.161 759.777 425.812Z" fill="#A6A6A6"/><path d="M776.092 418.601 779.916 418.601 784.747 427.714 784.747 418.601 787.991 418.601 787.991 431.884 784.167 431.884 779.336 422.771 779.336 431.884 776.092 431.884Z" fill="#A6A6A6"/><path d="M795.942 423.95C795.235 423.95 794.696 424.205 794.325 424.713 793.951 425.222 793.766 425.954 793.766 426.91 793.766 427.866 793.951 428.598 794.325 429.107 794.696 429.61 795.235 429.859 795.942 429.859 796.634 429.859 797.162 429.61 797.529 429.107 797.9 428.598 798.088 427.866 798.088 426.91 798.088 425.954 797.9 425.222 797.529 424.713 797.162 424.205 796.634 423.95 795.942 423.95ZM795.942 421.672C797.656 421.672 798.996 422.138 799.959 423.066 800.92 423.989 801.404 425.27 801.404 426.91 801.404 428.545 800.92 429.826 799.959 430.754 798.996 431.677 797.656 432.137 795.942 432.137 794.218 432.137 792.873 431.677 791.904 430.754 790.933 429.826 790.45 428.545 790.45 426.91 790.45 425.27 790.933 423.989 791.904 423.066 792.873 422.138 794.218 421.672 795.942 421.672Z" fill="#A6A6A6"/><path d="M803.613 427.999 803.613 421.917 806.817 421.917 806.817 422.913C806.817 423.457 806.812 424.134 806.807 424.947 806.799 425.761 806.796 426.305 806.796 426.575 806.796 427.383 806.817 427.963 806.857 428.314 806.903 428.667 806.974 428.921 807.071 429.077 807.206 429.288 807.379 429.45 807.59 429.565 807.798 429.674 808.04 429.727 808.312 429.727 808.975 429.727 809.497 429.473 809.878 428.965 810.257 428.456 810.447 427.749 810.447 426.839L810.447 421.917 813.631 421.917 813.631 431.883 810.447 431.883 810.447 430.439C809.964 431.024 809.456 431.454 808.922 431.731 808.385 432 807.793 432.137 807.142 432.137 805.995 432.137 805.121 431.787 804.518 431.08 803.913 430.375 803.613 429.348 803.613 427.998Z" fill="#A6A6A6"/><path d="M826.717 425.812 826.717 431.884 823.514 431.884 823.514 427.236C823.514 426.376 823.493 425.781 823.453 425.456 823.412 425.131 823.343 424.892 823.249 424.734 823.127 424.53 822.957 424.373 822.741 424.256 822.53 424.141 822.288 424.083 822.019 424.083 821.353 424.083 820.831 424.342 820.453 424.856 820.071 425.364 819.883 426.074 819.883 426.982L819.883 431.884 816.7 431.884 816.7 421.917 819.883 421.917 819.883 423.371C820.364 422.797 820.872 422.37 821.409 422.09 821.95 421.813 822.548 421.673 823.199 421.673 824.35 421.673 825.225 422.029 825.822 422.741 826.417 423.448 826.717 424.47 826.717 425.812Z" fill="#A6A6A6"/><path d="M836.161 418.601 841.846 418.601C843.534 418.601 844.828 418.978 845.731 419.73 846.639 420.478 847.094 421.546 847.094 422.934 847.094 424.325 846.639 425.395 845.731 426.148 844.828 426.9 843.534 427.277 841.846 427.277L839.578 427.277 839.578 431.884 836.161 431.884ZM839.578 421.083 839.578 424.795 841.48 424.795C842.143 424.795 842.654 424.632 843.015 424.307 843.382 423.981 843.565 423.524 843.565 422.934 843.565 422.339 843.382 421.881 843.015 421.561 842.654 421.243 842.143 421.083 841.48 421.083Z" fill="#A6A6A6"/><path d="M856.781 424.632C856.496 424.505 856.214 424.408 855.937 424.347 855.664 424.281 855.39 424.245 855.113 424.245 854.292 424.245 853.661 424.51 853.221 425.039 852.779 425.563 852.56 426.31 852.56 427.286L852.56 431.883 849.377 431.883 849.377 421.917 852.56 421.917 852.56 423.554C852.967 422.903 853.435 422.43 853.964 422.13 854.497 421.825 855.136 421.673 855.876 421.673 855.982 421.673 856.099 421.68 856.221 421.693 856.349 421.701 856.532 421.718 856.771 421.744Z" fill="#A6A6A6"/><path d="M863.102 423.95C862.395 423.95 861.856 424.205 861.485 424.713 861.111 425.222 860.925 425.954 860.925 426.91 860.925 427.866 861.111 428.598 861.485 429.107 861.856 429.61 862.395 429.859 863.102 429.859 863.793 429.859 864.322 429.61 864.688 429.107 865.06 428.598 865.248 427.866 865.248 426.91 865.248 425.954 865.06 425.222 864.688 424.713 864.322 424.205 863.793 423.95 863.102 423.95ZM863.102 421.672C864.815 421.672 866.155 422.138 867.119 423.066 868.08 423.989 868.563 425.27 868.563 426.91 868.563 428.545 868.08 429.826 867.119 430.754 866.155 431.677 864.815 432.137 863.102 432.137 861.378 432.137 860.033 431.677 859.064 430.754 858.093 429.826 857.61 428.545 857.61 426.91 857.61 425.27 858.093 423.989 859.064 423.066 860.033 422.138 861.378 421.672 863.102 421.672Z" fill="#A6A6A6"/><path d="M870.885 421.917 874.068 421.917 874.068 431.701C874.068 433.036 873.745 434.055 873.102 434.762 872.464 435.466 871.536 435.82 870.315 435.82L868.739 435.82 868.739 433.725 869.298 433.725C869.901 433.725 870.315 433.587 870.539 433.318 870.768 433.046 870.885 432.507 870.885 431.701ZM870.885 418.032 874.068 418.032 874.068 420.636 870.885 420.636Z" fill="#A6A6A6"/><path d="M887.079 426.87 887.079 427.785 879.624 427.785C879.705 428.532 879.975 429.092 880.438 429.463 880.898 429.837 881.546 430.022 882.38 430.022 883.051 430.022 883.735 429.926 884.434 429.728 885.139 429.524 885.861 429.224 886.601 428.822L886.601 431.273C885.848 431.558 885.095 431.772 884.343 431.914 883.59 432.062 882.838 432.138 882.085 432.138 880.28 432.138 878.876 431.68 877.874 430.765 876.878 429.85 876.379 428.566 876.379 426.91 876.379 425.283 876.87 424.007 877.854 423.076 878.835 422.14 880.186 421.673 881.902 421.673 883.468 421.673 884.722 422.148 885.665 423.096 886.606 424.04 887.079 425.298 887.079 426.87ZM883.804 425.812C883.804 425.209 883.626 424.724 883.275 424.358 882.922 423.986 882.461 423.798 881.892 423.798 881.274 423.798 880.773 423.971 880.387 424.317 880 424.663 879.759 425.161 879.664 425.812Z" fill="#A6A6A6"/><path d="M897.539 422.232 897.539 424.826C897.112 424.528 896.677 424.307 896.237 424.164 895.802 424.022 895.352 423.951 894.884 423.951 893.994 423.951 893.3 424.213 892.799 424.734 892.304 425.25 892.057 425.975 892.057 426.91 892.057 427.841 892.304 428.566 892.799 429.087 893.3 429.603 893.994 429.86 894.884 429.86 895.378 429.86 895.851 429.789 896.298 429.646 896.745 429.499 897.157 429.278 897.539 428.985L897.539 431.589C897.043 431.772 896.537 431.907 896.023 431.996 895.515 432.09 894.999 432.138 894.477 432.138 892.68 432.138 891.274 431.678 890.257 430.755 889.245 429.834 888.741 428.553 888.741 426.911 888.741 425.263 889.245 423.979 890.257 423.056 891.274 422.136 892.68 421.673 894.477 421.673 894.999 421.673 895.515 421.721 896.023 421.815 896.532 421.904 897.035 422.044 897.539 422.232Z" fill="#A6A6A6"/><path d="M903.773 419.09 903.773 421.917 907.058 421.917 907.058 424.195 903.773 424.195 903.773 428.426C903.773 428.889 903.865 429.199 904.048 429.362 904.231 429.524 904.592 429.606 905.136 429.606L906.773 429.606 906.773 431.884 904.048 431.884C902.786 431.884 901.891 431.624 901.363 431.101 900.839 430.572 900.58 429.682 900.58 428.426L900.58 424.195 899.003 424.195 899.003 421.917 900.58 421.917 900.58 419.09Z" fill="#A6A6A6"/></g></svg>