<svg width="334" height="339" xmlns="http://www.w3.org/2000/svg" xmlns:xlink="http://www.w3.org/1999/xlink" overflow="hidden"><defs><clipPath id="clip0"><rect x="703" y="8" width="334" height="339"/></clipPath></defs><g clip-path="url(#clip0)" transform="translate(-703 -8)"><path d="M361.494 53.5768 309.571 53.5768C309.444 54.636 309.378 55.7029 309.376 56.7698 309.058 61.3522 310.442 65.8912 313.259 69.5184 313.425 69.5286 313.58 69.5819 313.745 69.5972L313.742 69.5972C315.642 69.1984 317.601 69.173 319.511 69.5184 328.942 71.2686 334.922 81.6708 332.864 92.7527 330.807 103.835 321.495 111.4 312.063 109.649L312.063 109.652C309.231 109.088 306.62 107.732 304.529 105.74 285.923 101.455 272.234 81.4973 272.234 56.7687 272.234 55.6891 272.307 54.6375 272.358 53.5757L167.553 53.5757C167.426 54.6349 167.36 55.7018 167.355 56.7687 167.04 61.3511 168.422 65.8901 171.239 69.5173 171.404 69.5275 171.559 69.5808 171.724 69.5961 173.624 69.1973 175.583 69.1719 177.493 69.5173 186.925 71.2675 192.904 81.6697 190.846 92.7516 188.789 103.834 179.477 111.399 170.045 109.648L170.045 109.651C167.213 109.087 164.599 107.731 162.509 105.739 143.902 101.454 130.214 81.4962 130.214 56.7676 130.214 56.0817 130.272 55.4162 130.292 54.738L130.295 54.738C122.857 56.9479 116.553 61.9268 112.676 68.648 108.587 72.7021 105.744 77.8436 104.484 83.4619L64.2178 280.229C61.2331 294.812 72.2571 306.677 88.7936 306.677L108.378 306.677 108.375 314.988C108.261 323.068 111.355 330.866 116.981 336.668 122.605 342.472 130.301 345.808 138.384 345.945L361.494 345.945C369.569 345.803 377.26 342.465 382.879 336.661 388.498 330.859 391.587 323.064 391.467 314.988L391.467 84.531C391.587 76.4559 388.498 68.6604 382.879 62.8586 377.26 57.0544 369.569 53.7164 361.494 53.5747ZM91.7993 291.994C84.4453 291.994 79.5429 286.718 80.8714 280.233L112.079 127.73 361.863 127.73 330.655 280.233C329.675 283.642 327.604 286.636 324.762 288.76 321.919 290.883 318.462 292.019 314.913 291.993ZM374.818 314.992C374.872 318.581 373.5 322.046 371.003 324.624 368.506 327.205 365.087 328.688 361.498 328.749L138.389 328.749C134.794 328.691 131.37 327.21 128.865 324.631 126.363 322.051 124.984 318.586 125.032 314.992L125.032 306.678 311.915 306.678C328.451 306.678 344.33 294.813 347.315 280.23L374.819 145.818Z" fill="#A6A6A6" transform="matrix(1.00285 0 0 1 639.689 -3.66203)"/><path d="M312.034 95.3368C316.058 95.3368 319.319 92.0753 319.319 88.0518 319.319 84.0307 316.058 80.7693 312.034 80.7693 305.435 80.7693 298.084 70.9138 298.084 56.7729 298.084 42.632 305.435 32.7791 312.034 32.7791 316.005 32.7791 320.236 36.3657 322.988 42.2945L338.518 42.2945C334.362 28.0548 324.212 18.2142 312.034 18.2142 296.042 18.2142 283.517 35.1519 283.517 56.7761 283.519 78.3978 296.045 95.3381 312.034 95.3381Z" fill="#A6A6A6" transform="matrix(1.00285 0 0 1 639.689 -3.66203)"/><path d="M170.014 95.3368C174.035 95.3368 177.297 92.0753 177.297 88.0518 177.297 84.0307 174.035 80.7693 170.014 80.7693 163.415 80.7693 156.064 70.9138 156.064 56.7729 156.064 42.632 163.415 32.7791 170.014 32.7791 173.985 32.7791 178.216 36.3657 180.968 42.2945L196.498 42.2945C192.342 28.0548 182.192 18.2142 170.014 18.2142 154.021 18.2142 141.497 35.1519 141.497 56.7761 141.497 78.3978 154.022 95.3381 170.014 95.3381Z" fill="#A6A6A6" transform="matrix(1.00285 0 0 1 639.689 -3.66203)"/><path d="M12.2031-0.731559C11.5731-0.406422 10.9152-0.162569 10.2319 0 9.55371 0.167647 8.8425 0.25401 8.09826 0.25401 5.88837 0.25401 4.13822-0.360701 2.84528-1.59524 1.5498-2.8348 0.904597-4.51133 0.904597-6.62473 0.904597-8.74319 1.54979-10.4197 2.84528-11.6542 4.13822-12.8938 5.88837-13.5136 8.09826-13.5136 8.8425-13.5136 9.55377-13.4272 10.2319-13.2596 10.9153-13.097 11.5731-12.8532 12.2031-12.528L12.2031-9.78466C11.5655-10.2114 10.9381-10.5264 10.3234-10.7296 9.70612-10.9328 9.05586-11.0344 8.37255-11.0344 7.15328-11.0344 6.19309-10.6407 5.4971-9.85577 4.79857-9.07596 4.45055-7.99891 4.45055-6.62468 4.45055-5.25553 4.79855-4.17854 5.4971-3.3936 6.19309-2.61379 7.15328-2.22512 8.37255-2.22512 9.05586-2.22512 9.70613-2.32164 10.3234-2.51977 10.9381-2.72298 11.5655-3.0405 12.2031-3.47489Z" fill="#A6A6A6" transform="matrix(1.00285 0 0 1 685.338 415.115)"/><path d="M8.93087-7.24471C8.64638-7.37172 8.36443-7.46824 8.08753-7.52921 7.81574-7.59525 7.54141-7.63081 7.26455-7.63081 6.44409-7.63081 5.81411-7.36664 5.37472-6.83826 4.93273-6.31499 4.7143-5.56821 4.7143-4.59279L4.7143-0.000227596 1.53406-0.000227596 1.53406-9.95724 4.7143-9.95724 4.7143-8.32141C5.12072-8.97168 5.58814-9.44417 6.11642-9.74388 6.64985-10.0487 7.28744-10.2011 8.0266-10.2011 8.13329-10.2011 8.25013-10.1935 8.37206-10.1808 8.49907-10.1732 8.68196-10.1554 8.92073-10.13Z" fill="#A6A6A6" transform="matrix(1.00285 0 0 1 698.74 415.115)"/><path d="M11.4715-5.00913 11.4715-4.09472 4.0239-4.09472C4.10519-3.34794 4.37444-2.78909 4.83674-2.41824 5.29651-2.04484 5.94423-1.85941 6.77743-1.85941 7.44799-1.85941 8.1313-1.95594 8.82982-2.15406 9.53342-2.35727 10.2548-2.65701 10.994-3.05833L10.994-0.609659C10.2422-0.325163 9.49024-0.111795 8.73833 0.0304589 7.98648 0.177785 7.23457 0.253991 6.48266 0.253991 4.67918 0.253991 3.277-0.20323 2.27616-1.1177 1.28046-2.03212 0.782541-3.31491 0.782541-4.96856 0.782541-6.59425 1.27279-7.86937 2.2558-8.79907 3.23629-9.73384 4.58509-10.2012 6.29973-10.2012 7.86442-10.2012 9.11672-9.72619 10.0591-8.77872 10.9989-7.83634 11.4714-6.57897 11.4714-5.00914ZM8.19984-6.06583C8.19984-6.66784 8.02203-7.15302 7.67149-7.5188 7.31841-7.88966 6.85864-8.07764 6.28965-8.07764 5.6724-8.07764 5.17196-7.90491 4.78589-7.55945 4.39982-7.21398 4.15848-6.7161 4.06448-6.06583Z" fill="#A6A6A6" transform="matrix(1.00285 0 0 1 707.745 415.115)"/><path d="M5.99475-4.48078C5.32926-4.48078 4.82881-4.36901 4.49099-4.14549 4.15823-3.92196 3.99313-3.5892 3.99313-3.14979 3.99313-2.74337 4.12776-2.4233 4.39955-2.19466 4.6688-1.97113 5.04221-1.85937 5.51724-1.85937 6.11926-1.85937 6.62473-2.07274 7.03115-2.49949 7.44265-2.93131 7.65094-3.46983 7.65094-4.11503L7.65094-4.48081ZM10.8515-5.67976 10.8515 0 7.65094 0 7.65094-1.47326C7.2242-0.868709 6.74159-0.429246 6.20811-0.152424 5.67214 0.116828 5.02188 0.253997 4.25728 0.253997 3.22601 0.253997 2.39028-0.0431978 1.74761-0.640131 1.10242-1.24214 0.782346-2.0245 0.782346-2.98723 0.782346-4.15064 1.18115-5.00413 1.98132-5.54769 2.78656-6.09636 4.049-6.37068 5.77119-6.37068L7.65087-6.37068 7.65087-6.62469C7.65087-7.12509 7.45021-7.49085 7.0514-7.72203 6.65006-7.95826 6.03027-8.07765 5.192-8.07765 4.50616-8.07765 3.87116-8.00906 3.28182-7.87444 2.69759-7.73727 2.15652-7.53406 1.65613-7.26481L1.65613-9.69319C2.33183-9.85576 3.01254-9.98023 3.69839-10.0691 4.3893-10.1555 5.08022-10.2012 5.77114-10.2012 7.56447-10.2012 8.85994-9.84559 9.6525-9.13437 10.4501-8.42824 10.8515-7.27751 10.8515-5.67979Z" fill="#A6A6A6" transform="matrix(1.00285 0 0 1 720.128 415.115)"/><path d="M5.00913-12.7818 5.00913-9.95714 8.291-9.95714 8.291-7.68118 5.00913-7.68118 5.00913-3.45439C5.00913-2.99208 5.10057-2.68219 5.28347-2.51962 5.46637-2.35705 5.82706-2.27577 6.37066-2.27577L8.0065-2.27577 8.0065 0.000195082 5.28347 0.000195082C4.02356 0.000195082 3.12943-0.2589 2.60109-0.782151 2.07782-1.3105 1.81874-2.19955 1.81874-3.45439L1.81874-7.68118 0.24384-7.68118 0.24384-9.95714 1.81874-9.95714 1.81874-12.7818Z" fill="#A6A6A6" transform="matrix(1.00285 0 0 1 732.45 415.115)"/><path d="M11.4715-5.00913 11.4715-4.09472 4.0239-4.09472C4.10519-3.34794 4.37444-2.78909 4.83674-2.41824 5.29651-2.04484 5.94423-1.85941 6.77743-1.85941 7.44799-1.85941 8.1313-1.95594 8.82982-2.15406 9.53342-2.35727 10.2548-2.65701 10.994-3.05833L10.994-0.609659C10.2422-0.325163 9.49024-0.111795 8.73833 0.0304589 7.98648 0.177785 7.23457 0.253991 6.48266 0.253991 4.67918 0.253991 3.277-0.20323 2.27616-1.1177 1.28046-2.03212 0.782541-3.31491 0.782541-4.96856 0.782541-6.59425 1.27279-7.86937 2.2558-8.79907 3.23629-9.73384 4.58509-10.2012 6.29973-10.2012 7.86442-10.2012 9.11672-9.72619 10.0591-8.77872 10.9989-7.83634 11.4714-6.57897 11.4714-5.00914ZM8.19984-6.06583C8.19984-6.66784 8.02203-7.15302 7.67149-7.5188 7.31841-7.88966 6.85864-8.07764 6.28965-8.07764 5.6724-8.07764 5.17196-7.90491 4.78589-7.55945 4.39982-7.21398 4.15848-6.7161 4.06448-6.06583Z" fill="#A6A6A6" transform="matrix(1.00285 0 0 1 741.179 415.115)"/><path d="M8.30141-8.50429 8.30141-13.8386 11.502-13.8386 11.502-6.50275e-05 8.30141-6.50275e-05 8.30141-1.44289C7.86704-0.853583 7.38699-0.421768 6.85858-0.152489 6.33017 0.116789 5.71553 0.253932 5.01954 0.253932 3.79266 0.253932 2.78675-0.233774 2.00187-1.20919 1.21445-2.1846 0.823248-3.4369 0.823248-4.96855 0.823248-6.50535 1.21443-7.76272 2.00187-8.73813 2.78675-9.71355 3.79266-10.2013 5.01954-10.2013 5.71045-10.2013 6.32009-10.0615 6.84843-9.78467 7.38186-9.50526 7.86702-9.07854 8.30141-8.50441ZM6.2083-2.05233C6.884-2.05233 7.40214-2.29873 7.76285-2.79404 8.12101-3.29444 8.30136-4.01837 8.30136-4.96843 8.30136-5.91588 8.12101-6.63729 7.76285-7.13261 7.40215-7.63301 6.88394-7.88445 6.2083-7.88445 5.53007-7.88445 5.01193-7.63298 4.65376-7.13261 4.29306-6.63728 4.11525-5.91588 4.11525-4.96843 4.11525-4.01844 4.29306-3.29449 4.65376-2.79404 5.01192-2.29871 5.53013-2.05233 6.2083-2.05233Z" fill="#A6A6A6" transform="matrix(1.00285 0 0 1 753.562 415.115)"/><path d="M6.82789-2.0524C7.5112-2.0524 8.03193-2.29879 8.39258-2.7941 8.75074-3.29451 8.93108-4.01844 8.93108-4.96849 8.93108-5.91594 8.75074-6.63736 8.39258-7.13267 8.03188-7.63308 7.51113-7.88452 6.82789-7.88452 6.14204-7.88452 5.61877-7.63304 5.25299-7.13267 4.89228-6.62972 4.71448-5.90833 4.71448-4.96849 4.71448-4.02611 4.89229-3.3047 5.25299-2.80431 5.61877-2.30136 6.14204-2.05246 6.82789-2.05246ZM4.71449-8.50436C5.15394-9.07843 5.63912-9.5052 6.16747-9.78462 6.70089-10.0615 7.31559-10.2012 8.00651-10.2012 9.23845-10.2012 10.2469-9.71349 11.0343-8.73808 11.8192-7.76267 12.2129-6.5053 12.2129-4.9685 12.2129-3.43678 11.8192-2.18455 11.0343-1.20913 10.2469-0.233722 9.23845 0.253984 8.00651 0.253984 7.31559 0.253984 6.70089 0.116815 6.16747-0.152437 5.63912-0.429311 5.15395-0.858571 4.71449-1.44284L4.71449-1.30055e-05 1.53426-1.30055e-05 1.53426-13.8385 4.71449-13.8385Z" fill="#A6A6A6" transform="matrix(1.00285 0 0 1 772.991 415.115)"/><path d="M0.223532-9.95701 3.40377-9.95701 6.08615-3.2 8.36211-9.95701 11.5423-9.95701 7.3562 0.9455C6.93454 2.04791 6.44432 2.82011 5.88294 3.2621 5.31903 3.70917 4.58239 3.93267 3.66797 3.93267L1.81872 3.93267 1.81872 1.83956 2.81442 1.83956C3.35547 1.83956 3.74919 1.75066 3.99305 1.57539 4.24198 1.4052 4.43503 1.10038 4.57219 0.660972L4.66363 0.386634Z" fill="#A6A6A6" transform="matrix(1.00285 0 0 1 786.062 415.115)"/><path d="M1.67647-13.2695 5.09042-13.2695 5.09042-2.5907 11.1055-2.5907 11.1055 0.00026011 1.67647 0.00026011Z" fill="#A6A6A6" transform="matrix(1.00285 0 0 1 804.321 415.115)"/><path d="M0.223532-9.95701 3.40377-9.95701 6.08615-3.2 8.36211-9.95701 11.5423-9.95701 7.3562 0.9455C6.93454 2.04791 6.44432 2.82011 5.88294 3.2621 5.31903 3.70917 4.58239 3.93267 3.66797 3.93267L1.81872 3.93267 1.81872 1.83956 2.81442 1.83956C3.35547 1.83956 3.74919 1.75066 3.99305 1.57539 4.24198 1.4052 4.43503 1.10038 4.57219 0.660972L4.66363 0.386634Z" fill="#A6A6A6" transform="matrix(1.00285 0 0 1 815.955 415.115)"/><path d="M11.5424-6.06583 11.5424 0 8.34179 0 8.34179-4.62306C8.34179-5.4969 8.32147-6.09633 8.28083-6.42146 8.24019-6.7466 8.1716-6.98538 8.07762-7.14288 7.95569-7.34609 7.7855-7.50358 7.56959-7.62043 7.35876-7.73473 7.11745-7.79315 6.84818-7.79315 6.18268-7.79315 5.66194-7.53406 5.28348-7.02095 4.90246-6.51293 4.71449-5.80422 4.71449-4.89742L4.71449-6.50275e-05 1.53426-6.50275e-05 1.53426-13.8386 4.71449-13.8386 4.71449-8.50429C5.19458-9.07836 5.70259-9.50513 6.23861-9.78456 6.77965-10.0614 7.37659-10.2011 8.02686-10.2011 9.17752-10.2011 10.0514-9.84551 10.6483-9.13429 11.2426-8.42816 11.5424-7.40703 11.5424-6.06578Z" fill="#A6A6A6" transform="matrix(1.00285 0 0 1 827.859 415.115)"/><path d="M11.5424-6.06583 11.5424 0 8.34179 0 8.34179-4.64335C8.34179-5.50191 8.32147-6.09633 8.28083-6.42146 8.24019-6.7466 8.1716-6.98538 8.07762-7.14288 7.95569-7.34609 7.7855-7.50358 7.56959-7.62043 7.35876-7.73473 7.11745-7.79315 6.84818-7.79315 6.18268-7.79315 5.66194-7.53406 5.28348-7.02095 4.90246-6.51293 4.71449-5.80422 4.71449-4.89742L4.71449-6.50275e-05 1.53426-6.50275e-05 1.53426-9.95707 4.71449-9.95707 4.71449-8.5041C5.19458-9.07817 5.70259-9.50494 6.23861-9.78436 6.77965-10.0612 7.37659-10.2009 8.02686-10.2009 9.17752-10.2009 10.0514-9.84532 10.6483-9.1341 11.2426-8.42797 11.5424-7.40684 11.5424-6.06558Z" fill="#A6A6A6" transform="matrix(1.00285 0 0 1 840.856 415.115)"/><path d="M8.07771-13.8385 8.07771-11.7454 6.31996-11.7454C5.87289-11.7454 5.5579-11.6641 5.37504-11.5015 5.19723-11.339 5.11087-11.0545 5.11087-10.6481L5.11087-9.95714 7.83389-9.95714 7.83389-7.68118 5.11087-7.68118 5.11087-0.000130055 1.93063-0.000130055 1.93063-7.68118 0.345589-7.68118 0.345589-9.95714 1.93063-9.95714 1.93063-10.6481C1.93063-11.7302 2.23037-12.5328 2.83491-13.0561 3.43692-13.5768 4.37424-13.8384 5.64936-13.8384Z" fill="#A6A6A6" transform="matrix(1.00285 0 0 1 685.338 433.323)"/><path d="M8.93087-7.24471C8.64638-7.37172 8.36443-7.46824 8.08753-7.52921 7.81574-7.59525 7.54141-7.63081 7.26455-7.63081 6.44409-7.63081 5.81411-7.36664 5.37472-6.83826 4.93273-6.31499 4.7143-5.56821 4.7143-4.59279L4.7143-0.000227596 1.53406-0.000227596 1.53406-9.95724 4.7143-9.95724 4.7143-8.32141C5.12072-8.97168 5.58814-9.44417 6.11642-9.74388 6.64985-10.0487 7.28744-10.2011 8.0266-10.2011 8.13329-10.2011 8.25013-10.1935 8.37206-10.1808 8.49907-10.1732 8.68196-10.1554 8.92073-10.13Z" fill="#A6A6A6" transform="matrix(1.00285 0 0 1 693.284 433.323)"/><path d="M6.26904-7.92555C5.56291-7.92555 5.02435-7.67154 4.6535-7.16349 4.2801-6.65547 4.09466-5.92394 4.09466-4.96882 4.09466-4.01369 4.2801-3.28213 4.6535-2.77414 5.02436-2.27119 5.56284-2.02229 6.26904-2.02229 6.95996-2.02229 7.48831-2.27122 7.85408-2.77414 8.22494-3.28216 8.41292-4.01369 8.41292-4.96882 8.41292-5.92394 8.22495-6.6555 7.85408-7.16349 7.48831-7.67152 6.95996-7.92555 6.26904-7.92555ZM6.26904-10.2015C7.98108-10.2015 9.31974-9.73667 10.2825-8.80953 11.2427-7.88744 11.7253-6.60725 11.7253-4.96888 11.7253-3.33558 11.2427-2.05532 10.2825-1.12823 9.31974-0.206137 7.98108 0.253607 6.26904 0.253607 4.54685 0.253607 3.20312-0.206157 2.23532-1.12823 1.26498-2.05539 0.782346-3.33558 0.782346-4.96888 0.782346-6.60725 1.26497-7.88751 2.23532-8.80953 3.20312-9.7367 4.54685-10.2015 6.26904-10.2015Z" fill="#A6A6A6" transform="matrix(1.00285 0 0 1 702.289 433.323)"/><path d="M10.7601-8.30141C11.1589-8.91612 11.6365-9.3886 12.1927-9.71374 12.7465-10.0389 13.3561-10.2014 14.0216-10.2014 15.1647-10.2014 16.036-9.84583 16.6329-9.13461 17.2349-8.42847 17.5371-7.40735 17.5371-6.06609L17.5371-0.00026011 14.3365-0.00026011 14.3365-5.19231 14.3365-5.42601C14.3416-5.51237 14.3467-5.6343 14.3467-5.79179 14.3467-6.49539 14.24-7.00345 14.0317-7.3159 13.8285-7.63342 13.4958-7.79345 13.036-7.79345 12.4315-7.79345 11.9641-7.54198 11.6339-7.04161 11.3011-6.54628 11.131-5.82741 11.1259-4.88757L11.1259-0.000364154 7.92529-0.000364154 7.92529-5.19242C7.92529-6.29483 7.82876-7.00356 7.64079-7.31596 7.45028-7.63347 7.11244-7.79351 6.62474-7.79351 6.0151-7.79351 5.54261-7.54203 5.2124-7.04166 4.87965-6.54633 4.71454-5.83254 4.71454-4.89777L4.71454-0.000416176 1.51395-0.000416176 1.51395-9.95743 4.71454-9.95743 4.71454-8.50445C5.10572-9.06582 5.55281-9.49001 6.05573-9.7745 6.56376-10.059 7.12257-10.2012 7.73221-10.2012 8.42312-10.2012 9.03276-10.0336 9.5611-9.70338 10.0895-9.37062 10.4883-8.90322 10.7601-8.30126Z" fill="#A6A6A6" transform="matrix(1.00285 0 0 1 714.832 433.323)"/><path d="M5.00913-12.7818 5.00913-9.95714 8.291-9.95714 8.291-7.68118 5.00913-7.68118 5.00913-3.45439C5.00913-2.99208 5.10057-2.68219 5.28347-2.51962 5.46637-2.35705 5.82706-2.27577 6.37066-2.27577L8.0065-2.27577 8.0065 0.000195082 5.28347 0.000195082C4.02356 0.000195082 3.12943-0.2589 2.60109-0.782151 2.07782-1.3105 1.81874-2.19955 1.81874-3.45439L1.81874-7.68118 0.24384-7.68118 0.24384-9.95714 1.81874-9.95714 1.81874-12.7818Z" fill="#A6A6A6" transform="matrix(1.00285 0 0 1 740.217 433.323)"/><path d="M11.5424-6.06583 11.5424 0 8.34179 0 8.34179-4.62306C8.34179-5.4969 8.32147-6.09633 8.28083-6.42146 8.24019-6.7466 8.1716-6.98538 8.07762-7.14288 7.95569-7.34609 7.7855-7.50358 7.56959-7.62043 7.35876-7.73473 7.11745-7.79315 6.84818-7.79315 6.18268-7.79315 5.66194-7.53406 5.28348-7.02095 4.90246-6.51293 4.71449-5.80422 4.71449-4.89742L4.71449-6.50275e-05 1.53426-6.50275e-05 1.53426-13.8386 4.71449-13.8386 4.71449-8.50429C5.19458-9.07836 5.70259-9.50513 6.23861-9.78456 6.77965-10.0614 7.37659-10.2011 8.02686-10.2011 9.17752-10.2011 10.0514-9.84551 10.6483-9.13429 11.2426-8.42816 11.5424-7.40703 11.5424-6.06578Z" fill="#A6A6A6" transform="matrix(1.00285 0 0 1 748.944 433.323)"/><path d="M11.4715-5.00913 11.4715-4.09472 4.0239-4.09472C4.10519-3.34794 4.37444-2.78909 4.83674-2.41824 5.29651-2.04484 5.94423-1.85941 6.77743-1.85941 7.44799-1.85941 8.1313-1.95594 8.82982-2.15406 9.53342-2.35727 10.2548-2.65701 10.994-3.05833L10.994-0.609659C10.2422-0.325163 9.49024-0.111795 8.73833 0.0304589 7.98648 0.177785 7.23457 0.253991 6.48266 0.253991 4.67918 0.253991 3.277-0.20323 2.27616-1.1177 1.28046-2.03212 0.782541-3.31491 0.782541-4.96856 0.782541-6.59425 1.27279-7.86937 2.2558-8.79907 3.23629-9.73384 4.58509-10.2012 6.29973-10.2012 7.86442-10.2012 9.11672-9.72619 10.0591-8.77872 10.9989-7.83634 11.4714-6.57897 11.4714-5.00914ZM8.19984-6.06583C8.19984-6.66784 8.02203-7.15302 7.67149-7.5188 7.31841-7.88966 6.85864-8.07764 6.28965-8.07764 5.6724-8.07764 5.17196-7.90491 4.78589-7.55945 4.39982-7.21398 4.15848-6.7161 4.06448-6.06583Z" fill="#A6A6A6" transform="matrix(1.00285 0 0 1 761.943 433.323)"/><path d="M1.67647-13.2695 5.49684-13.2695 10.3231-4.16566 10.3231-13.2695 13.5643-13.2695 13.5643 0 9.74398 0 4.9177-9.10385 4.9177 0 1.67647 0Z" fill="#A6A6A6" transform="matrix(1.00285 0 0 1 780.684 433.323)"/><path d="M6.26904-7.92555C5.56291-7.92555 5.02435-7.67154 4.6535-7.16349 4.2801-6.65547 4.09466-5.92394 4.09466-4.96882 4.09466-4.01369 4.2801-3.28213 4.6535-2.77414 5.02436-2.27119 5.56284-2.02229 6.26904-2.02229 6.95996-2.02229 7.48831-2.27122 7.85408-2.77414 8.22494-3.28216 8.41292-4.01369 8.41292-4.96882 8.41292-5.92394 8.22495-6.6555 7.85408-7.16349 7.48831-7.67152 6.95996-7.92555 6.26904-7.92555ZM6.26904-10.2015C7.98108-10.2015 9.31974-9.73667 10.2825-8.80953 11.2427-7.88744 11.7253-6.60725 11.7253-4.96888 11.7253-3.33558 11.2427-2.05532 10.2825-1.12823 9.31974-0.206137 7.98108 0.253607 6.26904 0.253607 4.54685 0.253607 3.20312-0.206157 2.23532-1.12823 1.26498-2.05539 0.782346-3.33558 0.782346-4.96888 0.782346-6.60725 1.26497-7.88751 2.23532-8.80953 3.20312-9.7367 4.54685-10.2015 6.26904-10.2015Z" fill="#A6A6A6" transform="matrix(1.00285 0 0 1 795.966 433.323)"/><path d="M1.42248-3.88136 1.42248-9.9574 4.62306-9.9574 4.62306-8.9617C4.62306-8.41811 4.61798-7.74243 4.6129-6.92959 4.60528-6.11675 4.60274-5.57318 4.60274-5.3039 4.60274-4.49613 4.62306-3.917 4.66371-3.56643 4.70943-3.21335 4.78055-2.95934 4.87707-2.80438 5.0117-2.59354 5.18443-2.43097 5.39527-2.31667 5.60356-2.20744 5.84487-2.1541 6.11668-2.1541 6.77964-2.1541 7.30038-2.40811 7.68137-2.91616 8.05985-3.42418 8.25036-4.13035 8.25036-5.0397L8.25036-9.9574 11.4306-9.9574 11.4306-0.000390165 8.25036-0.000390165 8.25036-1.44322C7.76773-0.858987 7.25973-0.429702 6.72625-0.152815 6.19028 0.116438 5.59841 0.253607 4.94814 0.253607 3.80255 0.253607 2.92871-0.09693 2.32675-0.803089 1.72219-1.50669 1.42248-2.53295 1.42248-3.88175Z" fill="#A6A6A6" transform="matrix(1.00285 0 0 1 808.512 433.323)"/><path d="M11.5424-6.06583 11.5424 0 8.34179 0 8.34179-4.64335C8.34179-5.50191 8.32147-6.09633 8.28083-6.42146 8.24019-6.7466 8.1716-6.98538 8.07762-7.14288 7.95569-7.34609 7.7855-7.50358 7.56959-7.62043 7.35876-7.73473 7.11745-7.79315 6.84818-7.79315 6.18268-7.79315 5.66194-7.53406 5.28348-7.02095 4.90246-6.51293 4.71449-5.80422 4.71449-4.89742L4.71449-6.50275e-05 1.53426-6.50275e-05 1.53426-9.95707 4.71449-9.95707 4.71449-8.5041C5.19458-9.07817 5.70259-9.50494 6.23861-9.78436 6.77965-10.0612 7.37659-10.2009 8.02686-10.2009 9.17752-10.2009 10.0514-9.84532 10.6483-9.1341 11.2426-8.42797 11.5424-7.40684 11.5424-6.06558Z" fill="#A6A6A6" transform="matrix(1.00285 0 0 1 821.511 433.323)"/><path d="M1.67647-13.2695 7.35623-13.2695C9.04292-13.2695 10.3358-12.8936 11.2376-12.1417 12.1444-11.3949 12.5991-10.328 12.5991-8.94108 12.5991-7.55164 12.1445-6.48226 11.2376-5.73035 10.3359-4.9785 9.04292-4.60252 7.35623-4.60252L5.09042-4.60252 5.09042 0.000195082 1.67647 0.000195082ZM5.09042-10.7903 5.09042-7.08175 6.99045-7.08175C7.65341-7.08175 8.16401-7.24432 8.52471-7.56946 8.89049-7.8946 9.07338-8.35181 9.07338-8.94115 9.07338-9.53554 8.89049-9.99277 8.52471-10.3128 8.16401-10.6304 7.65348-10.7904 6.99045-10.7904Z" fill="#A6A6A6" transform="matrix(1.00285 0 0 1 840.866 433.323)"/><path d="M8.93087-7.24471C8.64638-7.37172 8.36443-7.46824 8.08753-7.52921 7.81574-7.59525 7.54141-7.63081 7.26455-7.63081 6.44409-7.63081 5.81411-7.36664 5.37472-6.83826 4.93273-6.31499 4.7143-5.56821 4.7143-4.59279L4.7143-0.000227596 1.53406-0.000227596 1.53406-9.95724 4.7143-9.95724 4.7143-8.32141C5.12072-8.97168 5.58814-9.44417 6.11642-9.74388 6.64985-10.0487 7.28744-10.2011 8.0266-10.2011 8.13329-10.2011 8.25013-10.1935 8.37206-10.1808 8.49907-10.1732 8.68196-10.1554 8.92073-10.13Z" fill="#A6A6A6" transform="matrix(1.00285 0 0 1 854.25 433.323)"/><path d="M6.26904-7.92555C5.56291-7.92555 5.02435-7.67154 4.6535-7.16349 4.2801-6.65547 4.09466-5.92394 4.09466-4.96882 4.09466-4.01369 4.2801-3.28213 4.6535-2.77414 5.02436-2.27119 5.56284-2.02229 6.26904-2.02229 6.95996-2.02229 7.48831-2.27122 7.85408-2.77414 8.22494-3.28216 8.41292-4.01369 8.41292-4.96882 8.41292-5.92394 8.22495-6.6555 7.85408-7.16349 7.48831-7.67152 6.95996-7.92555 6.26904-7.92555ZM6.26904-10.2015C7.98108-10.2015 9.31974-9.73667 10.2825-8.80953 11.2427-7.88744 11.7253-6.60725 11.7253-4.96888 11.7253-3.33558 11.2427-2.05532 10.2825-1.12823 9.31974-0.206137 7.98108 0.253607 6.26904 0.253607 4.54685 0.253607 3.20312-0.206157 2.23532-1.12823 1.26498-2.05539 0.782346-3.33558 0.782346-4.96888 0.782346-6.60725 1.26497-7.88751 2.23532-8.80953 3.20312-9.7367 4.54685-10.2015 6.26904-10.2015Z" fill="#A6A6A6" transform="matrix(1.00285 0 0 1 863.252 433.323)"/><path d="M1.53426-9.95701 4.71449-9.95701 4.71449-0.182727C4.71449 1.15086 4.3919 2.16945 3.74922 2.87558 3.11165 3.57918 2.18453 3.93228 0.965268 3.93228L-0.609633 3.93228-0.609633 1.83917-0.0507995 1.83917C0.551212 1.83917 0.965255 1.702 1.18875 1.43275 1.41737 1.16096 1.53421 0.622443 1.53421-0.182792ZM1.53426-13.8384 4.71449-13.8384 4.71449-11.2373 1.53426-11.2373Z" fill="#A6A6A6" transform="matrix(1.00285 0 0 1 875.798 433.323)"/><path d="M11.4715-5.00913 11.4715-4.09472 4.0239-4.09472C4.10519-3.34794 4.37444-2.78909 4.83674-2.41824 5.29651-2.04484 5.94423-1.85941 6.77743-1.85941 7.44799-1.85941 8.1313-1.95594 8.82982-2.15406 9.53342-2.35727 10.2548-2.65701 10.994-3.05833L10.994-0.609659C10.2422-0.325163 9.49024-0.111795 8.73833 0.0304589 7.98648 0.177785 7.23457 0.253991 6.48266 0.253991 4.67918 0.253991 3.277-0.20323 2.27616-1.1177 1.28046-2.03212 0.782541-3.31491 0.782541-4.96856 0.782541-6.59425 1.27279-7.86937 2.2558-8.79907 3.23629-9.73384 4.58509-10.2012 6.29973-10.2012 7.86442-10.2012 9.11672-9.72619 10.0591-8.77872 10.9989-7.83634 11.4714-6.57897 11.4714-5.00914ZM8.19984-6.06583C8.19984-6.66784 8.02203-7.15302 7.67149-7.5188 7.31841-7.88966 6.85864-8.07764 6.28965-8.07764 5.6724-8.07764 5.17196-7.90491 4.78589-7.55945 4.39982-7.21398 4.15848-6.7161 4.06448-6.06583Z" fill="#A6A6A6" transform="matrix(1.00285 0 0 1 882.057 433.323)"/><path d="M9.5714-9.64228 9.5714-7.05132C9.14465-7.34852 8.7103-7.56951 8.27085-7.71174 7.83648-7.85399 7.38686-7.92511 6.91951-7.92511 6.03045-7.92511 5.337-7.66348 4.83661-7.14276 4.34129-6.62711 4.09491-5.90321 4.09491-4.96837 4.09491-4.03868 4.34131-3.31472 4.83661-2.79398 5.33702-2.27834 6.03045-2.02178 6.91951-2.02178 7.41229-2.02178 7.88478-2.09291 8.33184-2.23515 8.77891-2.38248 9.1904-2.60347 9.5714-2.89557L9.5714-0.29447C9.07607-0.111581 8.57056 0.0230457 8.05749 0.111951 7.54946 0.205936 7.03383 0.254199 6.51309 0.254199 4.71722 0.254199 3.3125-0.205565 2.29645-1.12764 1.28546-2.04719 0.782541-3.32738 0.782541-4.96829 0.782541-6.61426 1.28549-7.89706 2.29645-8.81915 3.3125-9.7387 4.71722-10.201 6.51309-10.201 7.03382-10.201 7.5495-10.1527 8.05749-10.0587 8.56552-9.96983 9.06847-9.83013 9.5714-9.64216Z" fill="#A6A6A6" transform="matrix(1.00285 0 0 1 894.442 433.323)"/><path d="M5.00913-12.7818 5.00913-9.95714 8.291-9.95714 8.291-7.68118 5.00913-7.68118 5.00913-3.45439C5.00913-2.99208 5.10057-2.68219 5.28347-2.51962 5.46637-2.35705 5.82706-2.27577 6.37066-2.27577L8.0065-2.27577 8.0065 0.000195082 5.28347 0.000195082C4.02356 0.000195082 3.12943-0.2589 2.60109-0.782151 2.07782-1.3105 1.81874-2.19955 1.81874-3.45439L1.81874-7.68118 0.24384-7.68118 0.24384-9.95714 1.81874-9.95714 1.81874-12.7818Z" fill="#A6A6A6" transform="matrix(1.00285 0 0 1 905.264 433.323)"/></g></svg>