<svg width="557" height="557" xmlns="http://www.w3.org/2000/svg" xmlns:xlink="http://www.w3.org/1999/xlink" overflow="hidden"><defs><clipPath id="clip0"><rect x="572" y="89" width="557" height="557"/></clipPath></defs><g clip-path="url(#clip0)" transform="translate(-572 -89)"><path d="M655.702 482.105C648.207 474.61 648.207 463.083 655.702 456.167L675.299 436.57C662.043 416.974 652.245 394.494 648.208 370.285L619.963 370.281C609.589 370.281 601.515 362.212 601.515 351.834L601.515 323.014C601.515 312.64 609.585 304.566 619.963 304.566L647.629 304.566C652.241 280.357 662.039 257.878 675.296 238.281L655.699 218.684C648.204 211.19 648.204 199.663 655.699 192.747L675.875 172.57C683.37 165.076 694.897 165.076 701.813 172.57L721.989 192.747C741.586 179.49 764.066 170.267 787.7 165.656L787.7 136.835C787.7 126.462 795.77 118.388 806.147 118.388L834.968 118.388C845.341 118.388 853.415 126.457 853.415 136.835L853.415 165.08C877.624 169.692 899.529 178.915 919.126 192.171L939.302 171.995C946.797 164.5 958.324 164.5 965.24 171.995L985.416 192.171C992.911 199.666 992.911 211.193 985.416 218.109L965.819 237.706C979.076 257.303 988.874 279.783 993.486 303.991L1021.15 303.991C1031.53 303.991 1039.6 312.061 1039.6 322.438L1039.6 351.259C1039.6 361.632 1031.53 369.706 1021.15 369.706L993.486 369.706C990.603 385.845 985.416 400.83 978.5 415.24L937.573 374.313C951.983 328.199 938.727 276.324 899.529 243.468 847.654 199.662 770.413 206.578 727.182 258.453 683.951 310.328 690.292 387.569 742.168 430.8 774.446 457.892 816.523 465.387 853.991 455.01L896.068 497.086C882.812 503.427 868.977 508.039 853.991 510.921L853.991 538.013C853.991 548.386 845.922 556.46 835.544 556.46L806.724 556.46C796.35 556.46 788.276 548.39 788.276 538.013L788.276 510.921C764.067 506.31 741.588 496.511 721.412 483.255L702.393 502.276C694.899 509.771 683.372 509.771 676.456 502.276ZM817.097 349.53C808.453 358.175 794.617 358.175 785.973 349.53L766.951 331.083C761.186 325.317 750.812 329.354 750.812 337.424 750.237 356.445 757.153 375.468 771.563 389.878 786.548 404.864 806.724 411.783 826.9 410.629 838.427 410.054 849.954 414.087 858.604 422.156L960.629 524.182C969.274 532.827 973.31 545.508 972.157 557.614 969.853 578.365 976.768 600.269 992.333 615.83 1008.47 631.97 1029.8 638.31 1050.55 636.007 1058.62 634.853 1061.5 625.633 1056.32 619.867L1034.99 598.541C1026.34 589.897 1026.34 576.061 1034.99 567.417L1048.25 554.161C1056.89 545.516 1070.73 545.516 1079.37 554.161L1098.39 573.182C1104.16 578.948 1114.53 574.911 1114.53 566.841 1115.11 547.82 1108.19 528.797 1093.78 514.387 1078.79 499.401 1058.62 492.482 1038.44 493.636 1026.92 494.211 1015.39 490.178 1006.74 482.109L904.713 380.083C896.069 371.439 892.032 358.757 893.186 346.651 895.49 325.901 888.574 303.996 873.009 288.435 856.87 272.296 835.545 265.955 814.793 268.259 806.724 269.413 803.84 278.632 809.027 284.398L830.353 305.724C838.998 314.369 838.998 328.204 830.353 336.848Z" fill="#A6A6A6"/><path d="M589.133 750.707C588.136 751.222 587.094 751.608 586.013 751.865 584.939 752.13 583.813 752.267 582.635 752.267 579.137 752.267 576.367 751.294 574.321 749.34 572.27 747.378 571.249 744.724 571.249 741.379 571.249 738.026 572.27 735.372 574.321 733.418 576.367 731.456 579.137 730.475 582.635 730.475 583.813 730.475 584.939 730.611 586.013 730.877 587.094 731.134 588.136 731.52 589.133 732.035L589.133 736.377C588.124 735.702 587.13 735.203 586.157 734.881 585.18 734.56 584.151 734.399 583.07 734.399 581.14 734.399 579.62 735.022 578.518 736.265 577.412 737.499 576.862 739.204 576.862 741.379 576.862 743.546 577.412 745.251 578.518 746.493 579.62 747.728 581.14 748.343 583.07 748.343 584.151 748.343 585.18 748.19 586.157 747.877 587.13 747.555 588.124 747.052 589.133 746.365Z" fill="#A6A6A6"/><path d="M605.106 740.398C604.656 740.196 604.21 740.044 603.771 739.947 603.341 739.843 602.907 739.786 602.469 739.786 601.17 739.786 600.173 740.205 599.477 741.041 598.778 741.869 598.432 743.051 598.432 744.595L598.432 751.865 593.398 751.865 593.398 736.104 598.432 736.104 598.432 738.693C599.075 737.664 599.815 736.916 600.651 736.442 601.496 735.959 602.505 735.718 603.675 735.718 603.844 735.718 604.029 735.73 604.222 735.75 604.423 735.762 604.712 735.79 605.09 735.831Z" fill="#A6A6A6"/><path d="M623.341 743.936 623.341 745.384 611.552 745.384C611.681 746.566 612.107 747.45 612.839 748.037 613.567 748.628 614.592 748.922 615.911 748.922 616.972 748.922 618.054 748.769 619.16 748.455 620.273 748.134 621.415 747.659 622.585 747.024L622.585 750.9C621.395 751.35 620.205 751.688 619.015 751.913 617.825 752.146 616.635 752.267 615.444 752.267 612.59 752.267 610.37 751.543 608.786 750.096 607.21 748.648 606.422 746.618 606.422 744 606.422 741.427 607.198 739.409 608.754 737.937 610.306 736.458 612.441 735.718 615.155 735.718 617.632 735.718 619.614 736.47 621.105 737.969 622.593 739.461 623.341 741.451 623.341 743.936ZM618.162 742.264C618.162 741.311 617.881 740.543 617.326 739.964 616.767 739.377 616.039 739.079 615.139 739.079 614.162 739.079 613.37 739.352 612.759 739.899 612.147 740.446 611.765 741.234 611.617 742.264Z" fill="#A6A6A6"/><path d="M634.217 744.772C633.163 744.772 632.371 744.949 631.837 745.303 631.31 745.657 631.048 746.184 631.048 746.879 631.048 747.523 631.262 748.029 631.692 748.391 632.118 748.745 632.709 748.922 633.461 748.922 634.414 748.922 635.214 748.584 635.857 747.909 636.509 747.225 636.838 746.373 636.838 745.351L636.838 744.772ZM641.904 742.875 641.904 751.865 636.838 751.865 636.838 749.533C636.163 750.49 635.399 751.186 634.555 751.624 633.706 752.05 632.677 752.267 631.467 752.267 629.834 752.267 628.511 751.797 627.494 750.852 626.473 749.899 625.966 748.66 625.966 747.137 625.966 745.295 626.597 743.944 627.864 743.084 629.139 742.215 631.137 741.781 633.863 741.781L636.838 741.781 636.838 741.379C636.838 740.587 636.521 740.008 635.889 739.642 635.254 739.268 634.273 739.079 632.946 739.079 631.861 739.079 630.855 739.188 629.923 739.401 628.998 739.618 628.141 739.94 627.349 740.366L627.349 736.522C628.419 736.265 629.496 736.068 630.582 735.927 631.676 735.79 632.769 735.718 633.863 735.718 636.701 735.718 638.752 736.281 640.007 737.406 641.269 738.524 641.904 740.346 641.904 742.875Z" fill="#A6A6A6"/><path d="M652.105 731.633 652.105 736.104 657.3 736.104 657.3 739.707 652.105 739.707 652.105 746.397C652.105 747.129 652.25 747.619 652.539 747.877 652.829 748.134 653.4 748.263 654.26 748.263L656.849 748.263 656.849 751.865 652.539 751.865C650.545 751.865 649.13 751.455 648.293 750.627 647.465 749.791 647.055 748.383 647.055 746.397L647.055 739.707 644.562 739.707 644.562 736.104 647.055 736.104 647.055 731.633Z" fill="#A6A6A6"/><path d="M676.113 743.936 676.113 745.384 664.324 745.384C664.453 746.566 664.879 747.45 665.611 748.037 666.339 748.628 667.364 748.922 668.683 748.922 669.744 748.922 670.826 748.769 671.932 748.455 673.045 748.134 674.187 747.659 675.357 747.024L675.357 750.9C674.167 751.35 672.977 751.688 671.787 751.913 670.597 752.146 669.406 752.267 668.216 752.267 665.362 752.267 663.142 751.543 661.558 750.096 659.982 748.648 659.194 746.618 659.194 744 659.194 741.427 659.97 739.409 661.526 737.937 663.078 736.458 665.213 735.718 667.927 735.718 670.404 735.718 672.386 736.47 673.877 737.969 675.365 739.461 676.113 741.451 676.113 743.936ZM670.934 742.264C670.934 741.311 670.653 740.543 670.098 739.964 669.539 739.377 668.811 739.079 667.911 739.079 666.934 739.079 666.142 739.352 665.531 739.899 664.919 740.446 664.537 741.234 664.389 742.264Z" fill="#A6A6A6"/><path d="M690.64 738.404 690.64 729.96 695.706 729.96 695.706 751.865 690.64 751.865 690.64 749.581C689.952 750.514 689.193 751.197 688.356 751.624 687.52 752.05 686.547 752.267 685.445 752.267 683.503 752.267 681.911 751.495 680.669 749.951 679.422 748.407 678.803 746.425 678.803 744 678.803 741.568 679.422 739.578 680.669 738.034 681.911 736.49 683.503 735.718 685.445 735.718 686.539 735.718 687.504 735.939 688.34 736.377 689.184 736.819 689.952 737.495 690.64 738.404ZM687.327 748.616C688.396 748.616 689.216 748.226 689.787 747.442 690.354 746.65 690.64 745.504 690.64 744.001 690.64 742.501 690.354 741.359 689.787 740.575 689.216 739.783 688.396 739.385 687.327 739.385 686.253 739.385 685.433 739.783 684.866 740.575 684.295 741.359 684.014 742.501 684.014 744.001 684.014 745.504 684.295 746.65 684.866 747.442 685.433 748.226 686.253 748.616 687.327 748.616Z" fill="#A6A6A6"/><path d="M718.974 748.616C720.055 748.616 720.879 748.226 721.45 747.442 722.017 746.65 722.303 745.504 722.303 744 722.303 742.501 722.017 741.359 721.45 740.575 720.879 739.783 720.055 739.385 718.974 739.385 717.888 739.385 717.06 739.783 716.481 740.575 715.91 741.371 715.628 742.513 715.628 744 715.628 745.492 715.91 746.634 716.481 747.426 717.06 748.222 717.888 748.616 718.974 748.616ZM715.628 738.404C716.324 737.495 717.092 736.819 717.928 736.377 718.773 735.939 719.745 735.718 720.839 735.718 722.789 735.718 724.385 736.49 725.632 738.034 726.874 739.578 727.497 741.568 727.497 744 727.497 746.425 726.874 748.407 725.632 749.951 724.385 751.495 722.789 752.267 720.839 752.267 719.745 752.267 718.773 752.05 717.928 751.624 717.092 751.185 716.324 750.506 715.628 749.581L715.628 751.865 710.594 751.865 710.594 729.96 715.628 729.96Z" fill="#A6A6A6"/><path d="M729.15 736.104 734.184 736.104 738.43 746.8 742.032 736.104 747.066 736.104 740.44 753.362C739.773 755.107 738.997 756.329 738.108 757.029 737.216 757.736 736.049 758.09 734.602 758.09L731.675 758.09 731.675 754.777 733.251 754.777C734.107 754.777 734.731 754.636 735.117 754.359 735.511 754.089 735.816 753.607 736.033 752.911L736.178 752.477Z" fill="#A6A6A6"/><path d="M779.152 750.305C777.801 750.96 776.394 751.455 774.938 751.785 773.491 752.106 771.987 752.267 770.435 752.267 766.937 752.267 764.167 751.294 762.12 749.34 760.069 747.378 759.048 744.724 759.048 741.379 759.048 737.993 760.086 735.328 762.168 733.386 764.259 731.448 767.114 730.475 770.74 730.475 772.132 730.475 773.466 730.611 774.745 730.877 776.032 731.134 777.242 731.52 778.38 732.035L778.38 736.377C777.198 735.714 776.032 735.219 774.874 734.898 773.716 734.568 772.558 734.399 771.4 734.399 769.232 734.399 767.564 735.006 766.398 736.216 765.24 737.419 764.661 739.139 764.661 741.379 764.661 743.598 765.224 745.315 766.35 746.525 767.475 747.74 769.072 748.343 771.142 748.343 771.697 748.343 772.22 748.311 772.702 748.246 773.193 748.174 773.627 748.061 774.005 747.909L774.005 743.823 770.708 743.823 770.708 740.205 779.151 740.205Z" fill="#A6A6A6"/><path d="M795.407 740.398C794.957 740.196 794.51 740.044 794.072 739.947 793.642 739.843 793.208 739.786 792.77 739.786 791.471 739.786 790.474 740.205 789.778 741.041 789.079 741.869 788.733 743.051 788.733 744.595L788.733 751.865 783.699 751.865 783.699 736.104 788.733 736.104 788.733 738.693C789.376 737.664 790.116 736.916 790.952 736.442 791.797 735.959 792.806 735.718 793.976 735.718 794.145 735.718 794.33 735.73 794.523 735.75 794.724 735.762 795.013 735.79 795.391 735.831Z" fill="#A6A6A6"/><path d="M813.642 743.936 813.642 745.384 801.853 745.384C801.982 746.566 802.408 747.45 803.14 748.037 803.868 748.628 804.893 748.922 806.212 748.922 807.273 748.922 808.355 748.769 809.46 748.455 810.574 748.134 811.716 747.659 812.886 747.024L812.886 750.9C811.696 751.35 810.506 751.688 809.316 751.913 808.125 752.146 806.935 752.267 805.745 752.267 802.89 752.267 800.671 751.543 799.087 750.096 797.511 748.648 796.723 746.618 796.723 744 796.723 741.427 797.499 739.409 799.055 737.937 800.607 736.458 802.742 735.718 805.456 735.718 807.932 735.718 809.915 736.47 811.406 737.969 812.894 739.461 813.642 741.451 813.642 743.936ZM808.463 742.264C808.463 741.311 808.182 740.543 807.627 739.964 807.068 739.377 806.34 739.079 805.44 739.079 804.463 739.079 803.67 739.352 803.059 739.899 802.448 740.446 802.066 741.234 801.917 742.264Z" fill="#A6A6A6"/><path d="M828.173 749.195C827.485 750.108 826.725 750.783 825.889 751.222 825.053 751.652 824.08 751.865 822.978 751.865 821.056 751.865 819.472 751.109 818.217 749.597 816.963 748.077 816.336 746.148 816.336 743.807 816.336 741.451 816.963 739.521 818.217 738.018 819.472 736.506 821.056 735.75 822.978 735.75 824.08 735.75 825.053 735.971 825.889 736.409 826.725 736.84 827.485 737.515 828.173 738.436L828.173 736.104 833.239 736.104 833.239 750.273C833.239 752.802 832.439 754.736 830.843 756.079 829.242 757.418 826.922 758.09 823.879 758.09 822.902 758.09 821.953 758.013 821.032 757.864 820.107 757.712 819.182 757.482 818.25 757.173L818.25 753.249C819.138 753.751 820.003 754.125 820.839 754.374 821.683 754.62 822.536 754.744 823.396 754.744 825.045 754.744 826.251 754.382 827.015 753.667 827.787 752.947 828.173 751.817 828.173 750.273ZM824.86 739.385C823.818 739.385 823.002 739.771 822.415 740.543 821.836 741.307 821.547 742.392 821.547 743.807 821.547 745.247 821.824 746.341 822.383 747.088 822.95 747.828 823.774 748.198 824.859 748.198 825.909 748.198 826.725 747.82 827.304 747.056 827.883 746.284 828.173 745.203 828.173 743.807 828.173 742.392 827.883 741.307 827.304 740.543 826.725 739.771 825.909 739.385 824.859 739.385Z" fill="#A6A6A6"/><path d="M845.582 739.32C844.464 739.32 843.612 739.722 843.025 740.526 842.434 741.33 842.14 742.488 842.14 744 842.14 745.512 842.434 746.67 843.025 747.474 843.612 748.27 844.464 748.664 845.582 748.664 846.676 748.664 847.512 748.27 848.091 747.474 848.678 746.67 848.976 745.512 848.976 744 848.976 742.488 848.678 741.33 848.091 740.526 847.512 739.722 846.676 739.32 845.582 739.32ZM845.582 735.717C848.292 735.717 850.411 736.453 851.935 737.921 853.455 739.38 854.219 741.407 854.219 744 854.219 746.585 853.455 748.612 851.935 750.079 850.411 751.539 848.292 752.266 845.582 752.266 842.856 752.266 840.729 751.539 839.197 750.079 837.661 748.612 836.897 746.585 836.897 744 836.897 741.407 837.661 739.38 839.197 737.921 840.729 736.453 842.856 735.717 845.582 735.717Z" fill="#A6A6A6"/><path d="M869.597 740.398C869.147 740.196 868.701 740.044 868.263 739.947 867.832 739.843 867.398 739.786 866.96 739.786 865.661 739.786 864.664 740.205 863.968 741.041 863.269 741.869 862.923 743.051 862.923 744.595L862.923 751.865 857.889 751.865 857.889 736.104 862.923 736.104 862.923 738.693C863.566 737.664 864.306 736.916 865.142 736.442 865.987 735.959 866.996 735.718 868.166 735.718 868.335 735.718 868.52 735.73 868.713 735.75 868.914 735.762 869.203 735.79 869.581 735.831Z" fill="#A6A6A6"/><path d="M899.026 750.707C898.029 751.222 896.987 751.608 895.906 751.865 894.832 752.13 893.706 752.267 892.528 752.267 889.03 752.267 886.26 751.294 884.214 749.34 882.163 747.378 881.142 744.724 881.142 741.379 881.142 738.026 882.163 735.372 884.214 733.418 886.26 731.456 889.03 730.475 892.528 730.475 893.706 730.475 894.832 730.611 895.906 730.877 896.987 731.134 898.029 731.52 899.026 732.035L899.026 736.377C898.017 735.702 897.023 735.203 896.051 734.881 895.073 734.56 894.044 734.399 892.963 734.399 891.033 734.399 889.513 735.022 888.411 736.265 887.305 737.499 886.755 739.204 886.755 741.379 886.755 743.546 887.305 745.251 888.411 746.493 889.513 747.728 891.033 748.343 892.963 748.343 894.044 748.343 895.073 748.19 896.051 747.877 897.024 747.555 898.017 747.052 899.026 746.365Z" fill="#A6A6A6"/><path d="M914.995 740.398C914.545 740.196 914.099 740.044 913.661 739.947 913.23 739.843 912.796 739.786 912.358 739.786 911.059 739.786 910.062 740.205 909.366 741.041 908.667 741.869 908.321 743.051 908.321 744.595L908.321 751.865 903.287 751.865 903.287 736.104 908.321 736.104 908.321 738.693C908.964 737.664 909.704 736.916 910.54 736.442 911.385 735.959 912.394 735.718 913.564 735.718 913.733 735.718 913.918 735.73 914.111 735.75 914.312 735.762 914.601 735.79 914.979 735.831Z" fill="#A6A6A6"/><path d="M933.23 743.936 933.23 745.384 921.442 745.384C921.57 746.566 921.996 747.45 922.728 748.037 923.456 748.628 924.481 748.922 925.8 748.922 926.861 748.922 927.943 748.769 929.049 748.455 930.162 748.134 931.304 747.659 932.474 747.024L932.474 750.9C931.284 751.35 930.094 751.688 928.904 751.913 927.714 752.146 926.524 752.267 925.333 752.267 922.479 752.267 920.259 751.543 918.675 750.096 917.099 748.648 916.311 746.618 916.311 744 916.311 741.427 917.087 739.409 918.643 737.937 920.195 736.458 922.33 735.718 925.044 735.718 927.521 735.718 929.503 736.47 930.995 737.969 932.482 739.461 933.23 741.451 933.23 743.936ZM928.052 742.264C928.052 741.311 927.77 740.543 927.215 739.964 926.656 739.377 925.929 739.079 925.028 739.079 924.051 739.079 923.259 739.352 922.648 739.899 922.037 740.446 921.655 741.234 921.506 742.264Z" fill="#A6A6A6"/><path d="M949.348 736.602 949.348 740.43C948.275 739.98 947.233 739.642 946.228 739.417 945.219 739.192 944.27 739.079 943.382 739.079 942.425 739.079 941.713 739.2 941.243 739.433 940.78 739.67 940.551 740.04 940.551 740.543 940.551 740.941 940.728 741.246 941.082 741.46 941.436 741.677 942.067 741.837 942.98 741.942L943.864 742.071C946.445 742.404 948.182 742.947 949.075 743.695 949.964 744.447 950.41 745.621 950.41 747.217 950.41 748.902 949.787 750.168 948.544 751.013 947.31 751.849 945.464 752.267 943.012 752.267 941.958 752.267 940.877 752.187 939.763 752.026 938.657 751.865 937.52 751.62 936.354 751.286L936.354 747.458C937.351 747.953 938.372 748.323 939.425 748.568 940.487 748.805 941.564 748.922 942.658 748.922 943.643 748.922 944.383 748.789 944.877 748.52 945.368 748.242 945.617 747.836 945.617 747.298 945.617 746.847 945.444 746.518 945.103 746.3 944.757 746.075 944.077 745.906 943.06 745.786L942.175 745.673C939.932 745.396 938.364 744.877 937.463 744.113 936.563 743.353 936.112 742.199 936.112 740.655 936.112 738.983 936.679 737.744 937.817 736.94 938.963 736.128 940.72 735.718 943.092 735.718 944.013 735.718 944.982 735.794 946.003 735.943 947.032 736.084 948.146 736.305 949.348 736.602Z" fill="#A6A6A6"/><path d="M970.043 742.264 970.043 751.865 964.977 751.865 964.977 744.515C964.977 743.156 964.945 742.215 964.881 741.701 964.817 741.186 964.708 740.808 964.559 740.559 964.366 740.237 964.097 739.988 963.755 739.803 963.421 739.622 963.039 739.529 962.613 739.529 961.56 739.529 960.735 739.94 960.136 740.752 959.533 741.556 959.236 742.678 959.236 744.113L959.236 751.865 954.202 751.865 954.202 736.104 959.236 736.104 959.236 738.404C959.996 737.495 960.8 736.82 961.648 736.378 962.505 735.939 963.45 735.718 964.479 735.718 966.3 735.718 967.683 736.281 968.628 737.407 969.569 738.525 970.043 740.141 970.043 742.264Z" fill="#A6A6A6"/><path d="M981.78 744.772C980.727 744.772 979.935 744.949 979.4 745.303 978.873 745.657 978.612 746.184 978.612 746.879 978.612 747.523 978.825 748.029 979.255 748.391 979.681 748.745 980.272 748.922 981.024 748.922 981.977 748.922 982.777 748.584 983.421 747.909 984.072 747.225 984.402 746.373 984.402 745.351L984.402 744.772ZM989.468 742.875 989.468 751.865 984.402 751.865 984.402 749.533C983.726 750.49 982.962 751.186 982.118 751.624 981.269 752.05 980.24 752.267 979.03 752.267 977.397 752.267 976.075 751.797 975.057 750.852 974.036 749.899 973.529 748.66 973.529 747.137 973.529 745.295 974.161 743.944 975.427 743.084 976.702 742.215 978.7 741.781 981.426 741.781L984.401 741.781 984.401 741.379C984.401 740.587 984.084 740.008 983.453 739.642 982.817 739.268 981.836 739.079 980.509 739.079 979.424 739.079 978.419 739.188 977.486 739.401 976.561 739.618 975.705 739.94 974.913 740.366L974.913 736.522C975.982 736.265 977.06 736.068 978.145 735.927 979.239 735.79 980.332 735.718 981.426 735.718 984.265 735.718 986.315 736.281 987.57 737.406 988.832 738.524 989.468 740.346 989.468 742.875Z" fill="#A6A6A6"/><path d="M1005.88 740.398C1005.43 740.196 1004.98 740.044 1004.54 739.947 1004.11 739.843 1003.68 739.786 1003.24 739.786 1001.94 739.786 1000.94 740.205 1000.25 741.041 999.547 741.869 999.201 743.051 999.201 744.595L999.201 751.865 994.168 751.865 994.168 736.104 999.201 736.104 999.201 738.693C999.845 737.664 1000.58 736.916 1001.42 736.442 1002.27 735.959 1003.27 735.718 1004.44 735.718 1004.61 735.718 1004.8 735.73 1004.99 735.75 1005.19 735.762 1005.48 735.79 1005.86 735.831Z" fill="#A6A6A6"/><path d="M582.603 758.781 582.603 762.094 579.821 762.094C579.113 762.094 578.614 762.223 578.325 762.48 578.043 762.737 577.907 763.188 577.907 763.831L577.907 764.925 582.217 764.925 582.217 768.527 577.907 768.527 577.907 780.685 572.873 780.685 572.873 768.527 570.364 768.527 570.364 764.925 572.873 764.925 572.873 763.831C572.873 762.118 573.347 760.848 574.304 760.019 575.257 759.195 576.741 758.781 578.759 758.781Z" fill="#A6A6A6"/><path d="M596.494 769.218C596.044 769.017 595.597 768.864 595.159 768.768 594.729 768.663 594.295 768.607 593.856 768.607 592.558 768.607 591.56 769.025 590.865 769.861 590.165 770.69 589.82 771.872 589.82 773.416L589.82 780.685 584.786 780.685 584.786 764.924 589.82 764.924 589.82 767.514C590.463 766.484 591.203 765.737 592.039 765.262 592.883 764.78 593.893 764.538 595.063 764.538 595.231 764.538 595.416 764.551 595.609 764.571 595.81 764.583 596.1 764.611 596.478 764.651Z" fill="#A6A6A6"/><path d="M606.494 768.14C605.376 768.14 604.524 768.542 603.937 769.347 603.346 770.151 603.052 771.309 603.052 772.821 603.052 774.332 603.346 775.49 603.937 776.294 604.524 777.091 605.376 777.484 606.494 777.484 607.587 777.484 608.424 777.09 609.003 776.294 609.59 775.49 609.887 774.332 609.887 772.821 609.887 771.309 609.59 770.151 609.003 769.347 608.424 768.542 607.587 768.14 606.494 768.14ZM606.494 764.538C609.204 764.538 611.323 765.274 612.847 766.741 614.367 768.201 615.13 770.227 615.13 772.82 615.13 775.406 614.367 777.432 612.847 778.9 611.323 780.359 609.204 781.087 606.494 781.087 603.768 781.087 601.641 780.359 600.109 778.9 598.573 777.432 597.809 775.406 597.809 772.82 597.809 770.227 598.573 768.201 600.109 766.741 601.641 765.274 603.768 764.538 606.494 764.538Z" fill="#A6A6A6"/><path d="M633.401 767.545C634.032 766.572 634.788 765.825 635.668 765.31 636.545 764.795 637.51 764.538 638.563 764.538 640.373 764.538 641.752 765.101 642.697 766.227 643.649 767.344 644.128 768.961 644.128 771.084L644.128 780.685 639.062 780.685 639.062 772.467 639.062 772.097C639.07 771.96 639.078 771.767 639.078 771.518 639.078 770.404 638.909 769.6 638.579 769.105 638.258 768.603 637.731 768.349 637.003 768.349 636.046 768.349 635.306 768.747 634.784 769.54 634.257 770.324 633.988 771.461 633.98 772.949L633.98 780.685 628.914 780.685 628.914 772.467C628.914 770.722 628.761 769.6 628.463 769.105 628.162 768.603 627.627 768.349 626.855 768.349 625.89 768.349 625.142 768.747 624.619 769.539 624.093 770.323 623.831 771.453 623.831 772.933L623.831 780.685 618.765 780.685 618.765 764.924 623.831 764.924 623.831 767.224C624.451 766.335 625.158 765.664 625.954 765.214 626.758 764.763 627.643 764.538 628.608 764.538 629.702 764.538 630.667 764.804 631.503 765.326 632.339 765.853 632.97 766.593 633.401 767.546Z" fill="#A6A6A6"/><path d="M664.364 760.454 664.364 764.925 669.559 764.925 669.559 768.527 664.364 768.527 664.364 775.218C664.364 775.949 664.509 776.44 664.798 776.697 665.088 776.955 665.659 777.083 666.519 777.083L669.109 777.083 669.109 780.686 664.798 780.686C662.804 780.686 661.389 780.276 660.552 779.448 659.724 778.611 659.314 777.204 659.314 775.218L659.314 768.527 656.821 768.527 656.821 764.925 659.314 764.925 659.314 760.454Z" fill="#A6A6A6"/><path d="M688.48 771.084 688.48 780.686 683.414 780.686 683.414 773.368C683.414 771.985 683.382 771.036 683.318 770.521 683.253 770.007 683.145 769.629 682.996 769.379 682.803 769.058 682.534 768.808 682.192 768.623 681.858 768.442 681.476 768.35 681.05 768.35 679.997 768.35 679.172 768.76 678.573 769.572 677.97 770.376 677.673 771.498 677.673 772.934L677.673 780.685 672.639 780.685 672.639 758.781 677.673 758.781 677.673 767.224C678.433 766.316 679.237 765.64 680.085 765.198 680.942 764.76 681.886 764.538 682.916 764.538 684.737 764.538 686.12 765.101 687.065 766.227 688.006 767.345 688.48 768.961 688.48 771.084Z" fill="#A6A6A6"/><path d="M708.886 772.757 708.886 774.204 697.097 774.204C697.226 775.386 697.652 776.271 698.384 776.858 699.112 777.449 700.137 777.742 701.456 777.742 702.517 777.742 703.599 777.59 704.704 777.276 705.818 776.954 706.96 776.48 708.13 775.845L708.13 779.721C706.94 780.171 705.75 780.509 704.56 780.734 703.37 780.967 702.179 781.088 700.989 781.088 698.135 781.088 695.915 780.364 694.331 778.916 692.755 777.469 691.967 775.438 691.967 772.821 691.967 770.248 692.743 768.229 694.299 766.758 695.851 765.278 697.986 764.538 700.7 764.538 703.176 764.538 705.159 765.29 706.65 766.79 708.138 768.282 708.886 770.272 708.886 772.757ZM703.707 771.084C703.707 770.131 703.426 769.363 702.871 768.784 702.312 768.197 701.584 767.9 700.684 767.9 699.707 767.9 698.915 768.173 698.303 768.72 697.692 769.267 697.31 770.055 697.162 771.084Z" fill="#A6A6A6"/><path d="M722.962 759.682 729.009 759.682 736.649 774.092 736.649 759.682 741.779 759.682 741.779 780.686 735.732 780.686 728.093 766.275 728.093 780.686 722.962 780.686Z" fill="#A6A6A6"/><path d="M754.352 768.14C753.234 768.14 752.382 768.542 751.795 769.347 751.204 770.151 750.91 771.309 750.91 772.821 750.91 774.332 751.204 775.49 751.795 776.294 752.382 777.091 753.234 777.484 754.352 777.484 755.445 777.484 756.282 777.09 756.861 776.294 757.448 775.49 757.745 774.332 757.745 772.821 757.745 771.309 757.448 770.151 756.861 769.347 756.282 768.542 755.445 768.14 754.352 768.14ZM754.352 764.538C757.062 764.538 759.181 765.274 760.705 766.741 762.224 768.201 762.988 770.227 762.988 772.82 762.988 775.406 762.224 777.432 760.705 778.9 759.181 780.359 757.062 781.087 754.352 781.087 751.626 781.087 749.499 780.359 747.967 778.9 746.431 777.432 745.667 775.406 745.667 772.82 745.667 770.227 746.431 768.201 747.967 766.741 749.499 765.274 751.626 764.538 754.352 764.538Z" fill="#A6A6A6"/><path d="M766.482 774.542 766.482 764.924 771.549 764.924 771.549 766.5C771.549 767.361 771.54 768.43 771.532 769.717 771.52 771.003 771.516 771.864 771.516 772.29 771.516 773.569 771.549 774.485 771.613 775.04 771.685 775.599 771.798 776.001 771.951 776.247 772.164 776.58 772.437 776.838 772.771 777.019 773.101 777.191 773.482 777.276 773.913 777.276 774.962 777.276 775.786 776.874 776.389 776.07 776.989 775.266 777.29 774.148 777.29 772.708L777.29 764.924 782.324 764.924 782.324 780.685 777.29 780.685 777.29 778.401C776.526 779.326 775.722 780.005 774.878 780.444 774.029 780.87 773.092 781.087 772.063 781.087 770.25 781.087 768.867 780.532 767.914 779.414 766.957 778.301 766.482 776.676 766.482 774.541Z" fill="#A6A6A6"/><path d="M803.019 771.084 803.019 780.686 797.953 780.686 797.953 773.336C797.953 771.977 797.92 771.036 797.856 770.521 797.792 770.007 797.683 769.629 797.534 769.379 797.341 769.058 797.072 768.808 796.73 768.623 796.397 768.442 796.015 768.35 795.588 768.35 794.535 768.35 793.711 768.76 793.112 769.572 792.509 770.376 792.211 771.498 792.211 772.934L792.211 780.685 787.177 780.685 787.177 764.925 792.211 764.925 792.211 767.225C792.971 766.316 793.775 765.64 794.623 765.198 795.48 764.76 796.425 764.539 797.454 764.539 799.275 764.539 800.659 765.102 801.603 766.227 802.544 767.345 803.019 768.961 803.019 771.084Z" fill="#A6A6A6"/><path d="M817.952 759.682 826.942 759.682C829.612 759.682 831.658 760.277 833.086 761.467 834.521 762.649 835.241 764.338 835.241 766.533 835.241 768.732 834.521 770.425 833.086 771.615 831.658 772.805 829.612 773.4 826.942 773.4L823.355 773.4 823.355 780.686 817.952 780.686ZM823.355 763.606 823.355 769.476 826.363 769.476C827.412 769.476 828.221 769.219 828.792 768.704 829.371 768.189 829.66 767.466 829.66 766.533 829.66 765.592 829.371 764.868 828.792 764.362 828.221 763.859 827.412 763.606 826.363 763.606Z" fill="#A6A6A6"/><path d="M850.559 769.218C850.109 769.017 849.663 768.864 849.224 768.768 848.794 768.663 848.36 768.607 847.922 768.607 846.623 768.607 845.626 769.025 844.93 769.861 844.231 770.69 843.885 771.872 843.885 773.416L843.885 780.685 838.851 780.685 838.851 764.924 843.885 764.924 843.885 767.514C844.528 766.484 845.268 765.737 846.104 765.262 846.949 764.78 847.958 764.538 849.128 764.538 849.297 764.538 849.482 764.551 849.675 764.571 849.876 764.583 850.165 764.611 850.543 764.651Z" fill="#A6A6A6"/><path d="M860.555 768.14C859.438 768.14 858.585 768.542 857.998 769.347 857.407 770.151 857.113 771.309 857.113 772.821 857.113 774.332 857.407 775.49 857.998 776.294 858.585 777.091 859.437 777.484 860.555 777.484 861.649 777.484 862.485 777.09 863.064 776.294 863.651 775.49 863.949 774.332 863.949 772.821 863.949 771.309 863.651 770.151 863.064 769.347 862.485 768.542 861.649 768.14 860.555 768.14ZM860.555 764.538C863.265 764.538 865.384 765.274 866.908 766.741 868.428 768.201 869.192 770.227 869.192 772.82 869.192 775.406 868.428 777.432 866.908 778.9 865.384 780.359 863.265 781.087 860.555 781.087 857.829 781.087 855.702 780.359 854.17 778.9 852.634 777.432 851.87 775.406 851.87 772.82 851.87 770.227 852.634 768.201 854.17 766.741 855.702 765.274 857.829 764.538 860.555 764.538Z" fill="#A6A6A6"/><path d="M872.863 764.925 877.897 764.925 877.897 780.396C877.897 782.507 877.386 784.12 876.369 785.237 875.359 786.351 873.892 786.91 871.962 786.91L869.469 786.91 869.469 783.597 870.354 783.597C871.307 783.597 871.962 783.38 872.316 782.953 872.678 782.523 872.863 781.671 872.863 780.396ZM872.863 758.781 877.897 758.781 877.897 762.898 872.863 762.898Z" fill="#A6A6A6"/><path d="M898.471 772.757 898.471 774.204 886.682 774.204C886.811 775.386 887.237 776.271 887.969 776.858 888.697 777.449 889.722 777.742 891.041 777.742 892.102 777.742 893.184 777.59 894.29 777.276 895.403 776.954 896.545 776.48 897.715 775.845L897.715 779.721C896.525 780.171 895.335 780.509 894.145 780.734 892.955 780.967 891.764 781.088 890.574 781.088 887.72 781.088 885.5 780.364 883.916 778.916 882.34 777.469 881.552 775.438 881.552 772.821 881.552 770.248 882.328 768.229 883.884 766.758 885.436 765.278 887.571 764.538 890.285 764.538 892.761 764.538 894.744 765.29 896.235 766.79 897.723 768.282 898.471 770.272 898.471 772.757ZM893.292 771.084C893.292 770.131 893.011 769.363 892.456 768.784 891.897 768.197 891.169 767.9 890.269 767.9 889.292 767.9 888.5 768.173 887.889 768.72 887.277 769.267 886.895 770.055 886.747 771.084Z" fill="#A6A6A6"/><path d="M915.012 765.423 915.012 769.524C914.337 769.054 913.649 768.704 912.954 768.479 912.266 768.254 911.554 768.141 910.815 768.141 909.407 768.141 908.31 768.555 907.518 769.379 906.734 770.196 906.344 771.341 906.344 772.821 906.344 774.293 906.734 775.439 907.518 776.263 908.31 777.079 909.407 777.485 910.815 777.485 911.595 777.485 912.342 777.373 913.05 777.148 913.758 776.914 914.409 776.565 915.012 776.102L915.012 780.219C914.228 780.509 913.428 780.722 912.616 780.863 911.812 781.012 910.995 781.088 910.171 781.088 907.329 781.088 905.105 780.36 903.497 778.901 901.897 777.445 901.1 775.419 901.1 772.821 901.1 770.216 901.897 768.185 903.497 766.726 905.105 765.27 907.329 764.539 910.171 764.539 910.995 764.539 911.812 764.615 912.616 764.764 913.42 764.905 914.216 765.126 915.012 765.423Z" fill="#A6A6A6"/><path d="M924.871 760.454 924.871 764.925 930.065 764.925 930.065 768.527 924.871 768.527 924.871 775.218C924.871 775.949 925.015 776.44 925.305 776.697 925.594 776.955 926.165 777.083 927.026 777.083L929.615 777.083 929.615 780.686 925.305 780.686C923.311 780.686 921.895 780.276 921.059 779.448 920.231 778.611 919.821 777.204 919.821 775.218L919.821 768.527 917.328 768.527 917.328 764.925 919.821 764.925 919.821 760.454Z" fill="#A6A6A6"/></g></svg>