<svg width="4010" height="4054" xmlns="http://www.w3.org/2000/svg" xmlns:xlink="http://www.w3.org/1999/xlink" overflow="hidden"><defs><clipPath id="clip0"><rect x="251" y="95" width="4010" height="4054"/></clipPath></defs><g clip-path="url(#clip0)" transform="translate(-251 -95)"><rect x="2005" y="1810" width="325" height="325" stroke="#7F7F7F" stroke-width="2.29167" stroke-miterlimit="8" stroke-dasharray="9.16667 6.875" fill="none"/><path d="M2005.5 2135.5C2005.5 1956.01 2151.01 1810.5 2330.5 1810.5" stroke="#000000" stroke-width="4.58333" stroke-miterlimit="8" fill="none" fill-rule="evenodd"/><rect x="2005" y="2135" width="195" height="195" stroke="#7F7F7F" stroke-width="2.29167" stroke-miterlimit="8" stroke-dasharray="9.16667 6.875" fill="none"/><path d="M2200.5 2330.5C2092.8 2330.5 2005.5 2243.2 2005.5 2135.5" stroke="#000000" stroke-width="4.58333" stroke-miterlimit="8" fill="none" fill-rule="evenodd"/><rect x="2265" y="2135" width="65" height="65" stroke="#7F7F7F" stroke-width="2.29167" stroke-miterlimit="8" stroke-dasharray="9.16667 6.875" fill="none"/><path d="M2265.5 2135.5C2301.4 2135.5 2330.5 2164.6 2330.5 2200.5" stroke="#000000" stroke-width="4.58333" stroke-miterlimit="8" fill="none" fill-rule="evenodd"/><rect x="2200" y="2135" width="65" height="65" stroke="#7F7F7F" stroke-width="2.29167" stroke-miterlimit="8" stroke-dasharray="9.16667 6.875" fill="none"/><path d="M2200.5 2200.5C2200.5 2164.6 2229.6 2135.5 2265.5 2135.5" stroke="#000000" stroke-width="4.58333" stroke-miterlimit="8" fill="none" fill-rule="evenodd"/><rect x="2200" y="2200" width="130" height="130" stroke="#7F7F7F" stroke-width="2.29167" stroke-miterlimit="8" stroke-dasharray="9.16667 6.875" fill="none"/><path d="M2330.5 2200.5C2330.5 2272.3 2272.3 2330.5 2200.5 2330.5" stroke="#000000" stroke-width="4.58333" stroke-miterlimit="8" fill="none" fill-rule="evenodd"/><path d="M251 2193.12 4114.27 2193.13 4114.27 2206.88 251 2206.88ZM4107.39 2179.38 4148.64 2200 4107.39 2220.63Z"/><path d="M6.875-6.36574e-07 6.87536 3863.27-6.87464 3863.27-6.875 6.36574e-07ZM20.6254 3856.39 0.000360892 3897.64-20.6246 3856.39Z" transform="matrix(1 0 0 -1 2200 4148.64)"/><rect x="2330" y="1810" width="520" height="520" stroke="#7F7F7F" stroke-width="2.29167" stroke-miterlimit="8" stroke-dasharray="9.16667 6.875" fill="none"/><path d="M2330.5 1810.5C2617.69 1810.5 2850.5 2043.31 2850.5 2330.5" stroke="#000000" stroke-width="4.58333" stroke-miterlimit="8" fill="none" fill-rule="evenodd"/><rect x="2005" y="2330" width="845" height="844" stroke="#7F7F7F" stroke-width="2.29167" stroke-miterlimit="8" stroke-dasharray="9.16667 6.875" fill="none"/><path d="M2850.5 2330C2850.5 2796.4 2472.4 3174.5 2006 3174.5" stroke="#000000" stroke-width="4.58333" stroke-miterlimit="8" fill="none" fill-rule="evenodd"/><rect x="641" y="1810" width="1364" height="1364" stroke="#7F7F7F" stroke-width="2.29167" stroke-miterlimit="8" stroke-dasharray="9.16667 6.875" fill="none"/><path d="M2005.5 3174.5C1252.18 3174.5 641.5 2563.82 641.5 1810.5" stroke="#000000" stroke-width="4.58333" stroke-miterlimit="8" fill="none" fill-rule="evenodd"/><path d="M641.5 1811C641.5 1273.95 837.19 755.308 1191.95 352.115" stroke="#000000" stroke-width="4.58333" stroke-miterlimit="8" fill="none" fill-rule="evenodd"/><text font-family="Calibri,Calibri_MSFontService,sans-serif" font-weight="400" font-size="46" transform="matrix(1 0 0 1 2223.48 2121)">(1,1)<tspan font-size="46" x="114.8" y="56">(2,0)</tspan><tspan font-size="46" x="-9.16943" y="260">(0,</tspan><tspan font-size="46" x="39.5286" y="260">-</tspan><tspan font-size="46" x="53.2786" y="260">2)</tspan><tspan font-size="46" x="-328.87" y="28">(</tspan>-3,1)<tspan font-size="46" x="69.0139" y="-335">(2,6)</tspan><tspan font-size="46" x="634.357" y="222">(10,</tspan>-2)<tspan font-size="46" x="-286.582" y="1100">(</tspan>-3,<tspan font-size="46" x="-224.134" y="1100">-</tspan>1<tspan font-size="46" x="-186.894" y="1100">5</tspan><tspan font-size="46" x="-163.405" y="1100">)</tspan><tspan font-size="46" x="-1722.15" y="-296">(</tspan>-24,6)<tspan font-size="92" x="-44.6265" y="-1912">y</tspan><tspan font-size="92" x="1942.1" y="99">x</tspan></text></g></svg>