<svg width="288" height="288" xmlns="http://www.w3.org/2000/svg" xmlns:xlink="http://www.w3.org/1999/xlink" overflow="hidden"><defs><clipPath id="clip0"><rect x="39" y="376" width="288" height="288"/></clipPath></defs><g clip-path="url(#clip0)" transform="translate(-39 -376)"><path d="M113.821 381.766C109.046 381.766 105.173 385.639 105.173 390.414L105.173 420.95C96.7689 424.41 90.7611 432.72 90.7611 442.299 90.7611 454.932 101.188 465.359 113.821 465.359 126.454 465.359 136.881 454.932 136.881 442.299 136.881 432.723 130.873 424.41 122.469 420.95L122.469 390.414C122.469 385.639 118.597 381.766 113.821 381.766ZM223.354 381.766C218.579 381.766 214.706 385.639 214.706 390.414L214.706 420.95C206.302 424.41 200.294 432.72 200.294 442.299 200.294 454.932 210.721 465.359 223.354 465.359 235.987 465.359 246.414 454.932 246.414 442.299 246.414 432.723 240.407 424.41 232.002 420.95L232.002 390.414C232.002 385.639 228.13 381.766 223.354 381.766ZM79.3244 399.062C61.8599 399.062 47.5285 413.396 47.5285 430.858L47.5285 603.625C47.5285 621.09 61.8604 635.421 79.3244 635.421L227.951 635.421C236.635 649.254 252.02 658.481 269.477 658.481 296.437 658.481 318.478 636.441 318.478 609.48 318.478 589.714 306.603 572.621 289.653 564.892L289.653 430.858C289.653 413.394 275.319 399.062 257.857 399.062L246.416 399.062C241.848 398.998 237.646 403.14 237.646 407.71 237.646 412.278 241.848 416.422 246.416 416.358L257.857 416.358C266.022 416.358 272.36 422.695 272.36 430.861L272.36 471.126 64.8237 471.126 64.8237 430.861C64.8237 422.696 71.1594 416.358 79.3265 416.358L90.7673 416.358C95.3354 416.422 99.5376 412.28 99.5376 407.71 99.5376 403.142 95.3354 398.998 90.7673 399.062ZM136.881 399.062C132.106 399.062 128.233 402.935 128.233 407.71 128.233 412.485 132.105 416.358 136.881 416.358L200.295 416.358C205.07 416.358 208.943 412.485 208.943 407.71 208.943 402.935 205.07 399.062 200.295 399.062ZM113.821 436.535C117.106 436.535 119.585 439.014 119.585 442.299 119.585 445.584 117.106 448.063 113.821 448.063 110.535 448.063 108.056 445.584 108.056 442.299 108.056 439.014 110.535 436.535 113.821 436.535ZM223.354 436.535C226.639 436.535 229.118 439.014 229.118 442.299 229.118 445.584 226.639 448.063 223.354 448.063 220.068 448.063 217.589 445.584 217.589 442.299 217.589 439.014 220.069 436.535 223.354 436.535ZM64.819 488.414 272.355 488.414 272.355 560.655C271.388 560.597 270.453 560.476 269.472 560.476 242.511 560.476 220.471 582.516 220.471 609.477 220.471 612.441 220.773 615.302 221.281 618.125L79.3206 618.125C71.1556 618.125 64.8178 611.788 64.8178 603.622ZM269.473 577.769C287.086 577.769 301.181 591.862 301.181 609.477 301.181 627.091 287.088 641.185 269.473 641.185 251.86 641.185 237.765 627.093 237.765 609.477 237.765 591.864 251.858 577.769 269.473 577.769ZM269.473 583.534C264.698 583.534 260.825 587.404 260.825 592.182L260.825 609.477C260.825 614.253 264.698 618.125 269.473 618.125L283.885 618.125C288.66 618.125 292.533 614.253 292.533 609.477 292.533 604.702 288.663 600.83 283.885 600.83L278.121 600.83 278.121 592.182C278.121 587.406 274.248 583.534 269.473 583.534Z" fill="#A6A6A6"/><path d="M48.5368 706.903C48.0382 707.16 47.5174 707.353 46.9766 707.482 46.4397 707.614 45.8768 707.683 45.2877 707.683 43.5384 707.683 42.1531 707.196 41.1297 706.219 40.1042 705.238 39.5935 703.911 39.5935 702.238 39.5935 700.561 40.1042 699.234 41.1297 698.257 42.1531 697.276 43.5384 696.785 45.2877 696.785 45.8768 696.785 46.4398 696.853 46.9766 696.986 47.5174 697.115 48.0382 697.308 48.5368 697.565L48.5368 699.737C48.0321 699.399 47.5355 699.15 47.0489 698.989 46.5603 698.828 46.0456 698.747 45.5048 698.747 44.5397 698.747 43.7796 699.059 43.2287 699.68 42.6758 700.298 42.4003 701.15 42.4003 702.238 42.4003 703.322 42.6758 704.174 43.2287 704.796 43.7796 705.413 44.5397 705.72 45.5048 705.72 46.0456 705.72 46.5604 705.644 47.0489 705.487 47.5355 705.326 48.0322 705.075 48.5368 704.731Z" fill="#A6A6A6"/><path d="M56.5227 701.747C56.2975 701.647 56.0743 701.57 55.8551 701.522 55.64 701.47 55.4228 701.442 55.2037 701.442 54.5543 701.442 54.0556 701.651 53.7078 702.069 53.3579 702.483 53.185 703.074 53.185 703.846L53.185 707.482 50.6677 707.482 50.6677 699.6 53.185 699.6 53.185 700.895C53.5067 700.38 53.8767 700.006 54.2949 699.769 54.7171 699.528 55.2218 699.407 55.8069 699.407 55.8913 699.407 55.9838 699.413 56.0803 699.423 56.1809 699.429 56.3256 699.443 56.5146 699.463Z" fill="#A6A6A6"/><path d="M65.6413 703.517 65.6413 704.241 59.7462 704.241C59.8105 704.832 60.0236 705.274 60.3896 705.568 60.7535 705.863 61.2662 706.01 61.9257 706.01 62.4565 706.01 62.9974 705.934 63.5503 705.777 64.1072 705.616 64.6782 705.379 65.2633 705.061L65.2633 706.999C64.6682 707.224 64.073 707.393 63.4779 707.506 62.8827 707.622 62.2876 707.683 61.6924 707.683 60.2648 707.683 59.1549 707.321 58.3627 706.597 57.5746 705.873 57.1805 704.858 57.1805 703.549 57.1805 702.262 57.5685 701.253 58.3466 700.517 59.1227 699.777 60.1904 699.407 61.5476 699.407 62.7861 699.407 63.7774 699.783 64.5233 700.533 65.2672 701.279 65.6412 702.274 65.6412 703.517ZM63.0516 702.68C63.0516 702.204 62.9109 701.82 62.6334 701.53 62.3539 701.237 61.99 701.088 61.5396 701.088 61.051 701.088 60.6549 701.225 60.3493 701.498 60.0437 701.772 59.8527 702.166 59.7783 702.68Z" fill="#A6A6A6"/><path d="M71.0819 703.935C70.5551 703.935 70.159 704.023 69.8916 704.2 69.6282 704.377 69.4975 704.641 69.4975 704.989 69.4975 705.31 69.6041 705.564 69.8192 705.745 70.0324 705.922 70.3279 706.01 70.7039 706.01 71.1805 706.01 71.5806 705.841 71.9023 705.503 72.228 705.161 72.3929 704.735 72.3929 704.224L72.3929 703.935ZM74.9263 702.986 74.9263 707.482 72.3929 707.482 72.3929 706.316C72.0551 706.794 71.6731 707.142 71.2508 707.361 70.8265 707.574 70.3118 707.683 69.7066 707.683 68.8903 707.683 68.2288 707.448 67.7201 706.975 67.2094 706.499 66.956 705.879 66.956 705.117 66.956 704.196 67.2717 703.521 67.9051 703.091 68.5425 702.656 69.5418 702.439 70.9049 702.439L72.3928 702.439 72.3928 702.238C72.3928 701.842 72.234 701.552 71.9183 701.369 71.6006 701.182 71.11 701.088 70.4465 701.088 69.9036 701.088 69.401 701.142 68.9345 701.249 68.472 701.357 68.0438 701.518 67.6477 701.731L67.6477 699.809C68.1825 699.68 68.7213 699.582 69.2642 699.512 69.8111 699.443 70.358 699.407 70.9049 699.407 72.3244 699.407 73.3498 699.688 73.9772 700.251 74.6085 700.81 74.9262 701.721 74.9262 702.986Z" fill="#A6A6A6"/><path d="M80.0272 697.364 80.0272 699.6 82.6249 699.6 82.6249 701.402 80.0272 701.402 80.0272 704.747C80.0272 705.113 80.0996 705.359 80.2443 705.487 80.3891 705.616 80.6746 705.68 81.1049 705.68L82.3997 705.68 82.3997 707.482 80.2443 707.482C79.2471 707.482 78.5393 707.277 78.1211 706.863 77.7069 706.444 77.5018 705.741 77.5018 704.747L77.5018 701.402 76.2552 701.402 76.2552 699.6 77.5018 699.6 77.5018 697.364Z" fill="#A6A6A6"/><path d="M92.0309 703.517 92.0309 704.241 86.1358 704.241C86.2001 704.832 86.4133 705.274 86.7792 705.568 87.1431 705.863 87.6558 706.01 88.3153 706.01 88.8461 706.01 89.387 705.934 89.9399 705.777 90.4968 705.616 91.0679 705.379 91.6529 705.061L91.6529 706.999C91.0578 707.224 90.4626 707.393 89.8675 707.506 89.2724 707.622 88.6772 707.683 88.082 707.683 86.6545 707.683 85.5446 707.321 84.7524 706.597 83.9642 705.873 83.5701 704.858 83.5701 703.549 83.5701 702.262 83.9581 701.253 84.7363 700.517 85.5124 699.777 86.58 699.407 87.9372 699.407 89.1757 699.407 90.167 699.783 90.9129 700.533 91.6569 701.279 92.0309 702.274 92.0309 703.517ZM89.4412 702.68C89.4412 702.204 89.3005 701.82 89.023 701.53 88.7435 701.237 88.3796 701.088 87.9292 701.088 87.4407 701.088 87.0445 701.225 86.7389 701.498 86.4333 701.772 86.2423 702.166 86.1679 702.68Z" fill="#A6A6A6"/><path d="M99.2973 700.75 99.2973 696.528 101.831 696.528 101.831 707.482 99.2973 707.482 99.2973 706.34C98.9535 706.806 98.5735 707.148 98.1553 707.361 97.737 707.574 97.2505 707.683 96.6996 707.683 95.7285 707.683 94.9322 707.297 94.311 706.525 93.6877 705.753 93.378 704.761 93.378 703.549 93.378 702.332 93.6877 701.337 94.311 700.565 94.9322 699.793 95.7285 699.407 96.6996 699.407 97.2465 699.407 97.729 699.518 98.1473 699.737 98.5695 699.958 98.9535 700.296 99.2973 700.75ZM97.6406 705.857C98.1754 705.857 98.5855 705.662 98.8711 705.27 99.1546 704.874 99.2973 704.301 99.2973 703.549 99.2973 702.799 99.1546 702.228 98.8711 701.836 98.5855 701.44 98.1754 701.241 97.6406 701.241 97.1037 701.241 96.6936 701.44 96.4101 701.836 96.1245 702.228 95.9838 702.799 95.9838 703.549 95.9838 704.301 96.1246 704.874 96.4101 705.27 96.6936 705.662 97.1038 705.857 97.6406 705.857Z" fill="#A6A6A6"/><path d="M113.464 705.857C114.005 705.857 114.417 705.662 114.703 705.27 114.986 704.874 115.129 704.301 115.129 703.549 115.129 702.799 114.986 702.228 114.703 701.836 114.417 701.44 114.005 701.241 113.464 701.241 112.921 701.241 112.507 701.44 112.217 701.836 111.932 702.234 111.791 702.805 111.791 703.549 111.791 704.295 111.932 704.866 112.217 705.262 112.507 705.66 112.921 705.857 113.464 705.857ZM111.791 700.75C112.139 700.296 112.523 699.958 112.941 699.737 113.364 699.518 113.85 699.407 114.397 699.407 115.372 699.407 116.17 699.793 116.794 700.565 117.415 701.337 117.727 702.333 117.727 703.549 117.727 704.761 117.415 705.753 116.794 706.525 116.17 707.297 115.372 707.683 114.397 707.683 113.85 707.683 113.364 707.574 112.941 707.361 112.523 707.142 112.139 706.802 111.791 706.34L111.791 707.482 109.274 707.482 109.274 696.528 111.791 696.528Z" fill="#A6A6A6"/><path d="M118.553 699.6 121.07 699.6 123.194 704.949 124.995 699.6 127.512 699.6 124.199 708.23C123.865 709.103 123.477 709.714 123.033 710.064 122.586 710.418 122.003 710.595 121.279 710.595L119.816 710.595 119.816 708.938 120.604 708.938C121.032 708.938 121.344 708.867 121.537 708.729 121.734 708.594 121.887 708.353 121.995 708.005L122.068 707.788Z" fill="#A6A6A6"/><path d="M134.003 699.6 136.52 699.6 136.52 707.482 134.003 707.482ZM134.003 696.528 136.52 696.528 136.52 698.587 134.003 698.587Z" fill="#A6A6A6"/><path d="M145.305 699.849 145.305 701.9C144.967 701.665 144.623 701.49 144.275 701.378 143.931 701.265 143.576 701.209 143.206 701.209 142.502 701.209 141.953 701.416 141.557 701.828 141.165 702.236 140.97 702.809 140.97 703.549 140.97 704.285 141.165 704.858 141.557 705.27 141.953 705.678 142.502 705.881 143.206 705.881 143.596 705.881 143.97 705.825 144.324 705.713 144.677 705.596 145.003 705.421 145.305 705.19L145.305 707.249C144.913 707.393 144.512 707.5 144.106 707.57 143.704 707.645 143.296 707.683 142.884 707.683 141.462 707.683 140.35 707.319 139.546 706.589 138.746 705.861 138.348 704.848 138.348 703.549 138.348 702.246 138.746 701.231 139.546 700.501 140.35 699.773 141.462 699.407 142.884 699.407 143.296 699.407 143.704 699.445 144.106 699.52 144.508 699.59 144.907 699.701 145.305 699.85Z" fill="#A6A6A6"/><path d="M151.236 701.208C150.677 701.208 150.251 701.409 149.957 701.812 149.662 702.214 149.515 702.793 149.515 703.549 149.515 704.305 149.662 704.884 149.957 705.286 150.251 705.684 150.677 705.881 151.236 705.881 151.783 705.881 152.201 705.684 152.491 705.286 152.784 704.884 152.933 704.305 152.933 703.549 152.933 702.793 152.784 702.214 152.491 701.812 152.201 701.409 151.783 701.208 151.236 701.208ZM151.236 699.407C152.591 699.407 153.651 699.775 154.413 700.509 155.173 701.238 155.555 702.252 155.555 703.549 155.555 704.841 155.173 705.855 154.413 706.589 153.651 707.319 152.591 707.682 151.236 707.682 149.873 707.682 148.809 707.319 148.043 706.589 147.275 705.855 146.893 704.841 146.893 703.549 146.893 702.252 147.275 701.238 148.043 700.509 148.809 699.775 149.873 699.407 151.236 699.407Z" fill="#A6A6A6"/><path d="M165.31 702.68 165.31 707.482 162.777 707.482 162.777 703.806C162.777 703.127 162.761 702.656 162.729 702.399 162.697 702.141 162.642 701.953 162.568 701.828 162.471 701.667 162.337 701.542 162.166 701.45 161.999 701.359 161.808 701.313 161.595 701.313 161.068 701.313 160.656 701.518 160.356 701.924 160.055 702.326 159.906 702.887 159.906 703.605L159.906 707.482 157.389 707.482 157.389 699.6 159.906 699.6 159.906 700.75C160.286 700.296 160.688 699.958 161.112 699.737 161.54 699.518 162.013 699.407 162.528 699.407 163.439 699.407 164.13 699.689 164.603 700.252 165.073 700.811 165.31 701.619 165.31 702.681Z" fill="#A6A6A6"/><path d="M173.801 699.849 173.801 701.764C173.264 701.538 172.743 701.37 172.241 701.257 171.736 701.144 171.262 701.088 170.817 701.088 170.339 701.088 169.983 701.148 169.748 701.265 169.516 701.384 169.402 701.569 169.402 701.82 169.402 702.019 169.49 702.172 169.667 702.278 169.844 702.387 170.16 702.467 170.616 702.52L171.059 702.584C172.349 702.751 173.218 703.022 173.664 703.396 174.109 703.772 174.332 704.359 174.332 705.158 174.332 706 174.02 706.633 173.399 707.056 172.782 707.474 171.859 707.683 170.632 707.683 170.106 707.683 169.565 707.643 169.008 707.562 168.455 707.482 167.886 707.359 167.303 707.192L167.303 705.278C167.801 705.525 168.312 705.71 168.839 705.833 169.37 705.952 169.909 706.01 170.455 706.01 170.948 706.01 171.318 705.944 171.565 705.809 171.811 705.67 171.935 705.467 171.935 705.198 171.935 704.973 171.849 704.808 171.678 704.699 171.505 704.586 171.165 704.502 170.657 704.442L170.214 704.385C169.092 704.247 168.308 703.987 167.858 703.605 167.407 703.225 167.182 702.648 167.182 701.876 167.182 701.04 167.466 700.42 168.035 700.018 168.608 699.612 169.486 699.407 170.673 699.407 171.133 699.407 171.618 699.445 172.128 699.52 172.643 699.59 173.2 699.701 173.801 699.849Z" fill="#A6A6A6"/><path d="M178.745 706.34 178.745 710.482 176.228 710.482 176.228 699.6 178.745 699.6 178.745 700.75C179.093 700.296 179.477 699.958 179.896 699.737 180.318 699.517 180.804 699.407 181.351 699.407 182.326 699.407 183.125 699.793 183.748 700.565 184.369 701.337 184.681 702.332 184.681 703.549 184.681 704.761 184.369 705.752 183.748 706.524 183.125 707.297 182.326 707.683 181.351 707.683 180.804 707.683 180.318 707.574 179.896 707.361 179.477 707.142 179.093 706.802 178.745 706.339ZM180.418 701.241C179.875 701.241 179.461 701.44 179.172 701.836 178.886 702.234 178.745 702.805 178.745 703.549 178.745 704.295 178.886 704.866 179.172 705.262 179.461 705.66 179.875 705.857 180.418 705.857 180.959 705.857 181.371 705.662 181.657 705.27 181.94 704.874 182.083 704.301 182.083 703.549 182.083 702.799 181.94 702.228 181.657 701.836 181.371 701.44 180.959 701.241 180.418 701.241Z" fill="#A6A6A6"/><path d="M194.465 702.68 194.465 707.482 191.931 707.482 191.931 703.822C191.931 703.131 191.915 702.656 191.883 702.399 191.851 702.141 191.797 701.953 191.722 701.828 191.626 701.667 191.491 701.542 191.32 701.45 191.153 701.359 190.962 701.313 190.749 701.313 190.222 701.313 189.81 701.518 189.51 701.924 189.209 702.326 189.06 702.887 189.06 703.605L189.06 707.482 186.543 707.482 186.543 696.528 189.06 696.528 189.06 700.75C189.44 700.296 189.842 699.958 190.266 699.737 190.695 699.518 191.167 699.407 191.682 699.407 192.593 699.407 193.284 699.689 193.757 700.252 194.227 700.81 194.465 701.619 194.465 702.68Z" fill="#A6A6A6"/><path d="M204.671 703.517 204.671 704.241 198.776 704.241C198.84 704.832 199.053 705.274 199.419 705.568 199.783 705.863 200.296 706.01 200.955 706.01 201.486 706.01 202.027 705.934 202.58 705.777 203.137 705.616 203.708 705.379 204.293 705.061L204.293 706.999C203.698 707.224 203.103 707.393 202.507 707.506 201.912 707.622 201.317 707.683 200.722 707.683 199.294 707.683 198.185 707.321 197.392 706.597 196.604 705.873 196.21 704.858 196.21 703.549 196.21 702.262 196.598 701.253 197.376 700.517 198.152 699.777 199.22 699.407 200.577 699.407 201.816 699.407 202.807 699.783 203.553 700.533 204.297 701.279 204.671 702.274 204.671 703.517ZM202.081 702.68C202.081 702.204 201.94 701.82 201.663 701.53 201.383 701.237 201.02 701.088 200.569 701.088 200.081 701.088 199.684 701.225 199.379 701.498 199.073 701.772 198.882 702.166 198.808 702.68Z" fill="#A6A6A6"/><path d="M212.434 701.747C212.208 701.647 211.985 701.57 211.766 701.522 211.551 701.47 211.334 701.442 211.115 701.442 210.465 701.442 209.966 701.651 209.619 702.069 209.269 702.483 209.096 703.074 209.096 703.846L209.096 707.482 206.579 707.482 206.579 699.6 209.096 699.6 209.096 700.895C209.418 700.38 209.788 700.006 210.206 699.769 210.628 699.528 211.133 699.407 211.718 699.407 211.802 699.407 211.895 699.413 211.991 699.423 212.092 699.429 212.236 699.443 212.425 699.463Z" fill="#A6A6A6"/><path d="M221.552 703.517 221.552 704.241 215.657 704.241C215.721 704.832 215.934 705.274 216.3 705.568 216.664 705.863 217.177 706.01 217.837 706.01 218.367 706.01 218.908 705.934 219.461 705.777 220.018 705.616 220.589 705.379 221.174 705.061L221.174 706.999C220.579 707.224 219.984 707.393 219.389 707.506 218.794 707.622 218.198 707.683 217.603 707.683 216.176 707.683 215.066 707.321 214.274 706.597 213.485 705.873 213.091 704.858 213.091 703.549 213.091 702.262 213.479 701.253 214.257 700.517 215.034 699.777 216.101 699.407 217.458 699.407 218.697 699.407 219.688 699.783 220.434 700.533 221.178 701.279 221.552 702.274 221.552 703.517ZM218.962 702.68C218.962 702.204 218.822 701.82 218.544 701.53 218.265 701.237 217.901 701.088 217.45 701.088 216.962 701.088 216.566 701.225 216.26 701.498 215.955 701.772 215.764 702.166 215.689 702.68Z" fill="#A6A6A6"/><path d="M45.2714 710.94 45.2714 712.597 43.88 712.597C43.5262 712.597 43.2768 712.661 43.1321 712.79 42.9913 712.919 42.923 713.144 42.923 713.466L42.923 714.012 45.0784 714.012 45.0784 715.814 42.923 715.814 42.923 721.894 40.4057 721.894 40.4057 715.814 39.151 715.814 39.151 714.012 40.4057 714.012 40.4057 713.466C40.4057 712.609 40.6429 711.974 41.1215 711.559 41.598 711.147 42.3399 710.94 43.3492 710.94Z" fill="#A6A6A6"/><path d="M52.2179 716.159C51.9927 716.059 51.7695 715.983 51.5503 715.934 51.3352 715.882 51.1181 715.854 50.8989 715.854 50.2495 715.854 49.7508 716.063 49.403 716.481 49.0532 716.895 48.8803 717.487 48.8803 718.259L48.8803 721.894 46.363 721.894 46.363 714.012 48.8803 714.012 48.8803 715.307C49.202 714.792 49.5719 714.418 49.9901 714.181 50.4123 713.94 50.917 713.819 51.5021 713.819 51.5866 713.819 51.679 713.825 51.7756 713.835 51.8761 713.841 52.0209 713.856 52.2099 713.876Z" fill="#A6A6A6"/><path d="M57.2185 715.621C56.6596 715.621 56.2333 715.822 55.9397 716.224 55.6442 716.626 55.4974 717.205 55.4974 717.961 55.4974 718.717 55.6442 719.296 55.9397 719.698 56.2333 720.096 56.6595 720.293 57.2185 720.293 57.7654 720.293 58.1836 720.096 58.4732 719.698 58.7667 719.296 58.9155 718.717 58.9155 717.961 58.9155 717.205 58.7667 716.626 58.4732 716.224 58.1836 715.822 57.7654 715.621 57.2185 715.621ZM57.2185 713.819C58.5737 713.819 59.6333 714.187 60.3953 714.921 61.1554 715.651 61.5374 716.664 61.5374 717.961 61.5374 719.254 61.1554 720.267 60.3953 721.001 59.6333 721.731 58.5737 722.095 57.2185 722.095 55.8553 722.095 54.7917 721.731 54.0256 721.001 53.2576 720.267 52.8755 719.254 52.8755 717.961 52.8755 716.664 53.2576 715.651 54.0256 714.921 54.7917 714.187 55.8553 713.819 57.2185 713.819Z" fill="#A6A6A6"/><path d="M70.6738 715.323C70.9895 714.836 71.3675 714.462 71.8078 714.205 72.2461 713.948 72.7287 713.819 73.2554 713.819 74.1602 713.819 74.8499 714.101 75.3223 714.664 75.7989 715.222 76.0381 716.031 76.0381 717.092L76.0381 721.894 73.5047 721.894 73.5047 717.784 73.5047 717.599C73.5087 717.531 73.5128 717.434 73.5128 717.31 73.5128 716.753 73.4283 716.35 73.2634 716.103 73.1026 715.852 72.8392 715.725 72.4753 715.725 71.9967 715.725 71.6268 715.924 71.3654 716.32 71.102 716.712 70.9673 717.281 70.9633 718.025L70.9633 721.894 68.4299 721.894 68.4299 717.784C68.4299 716.911 68.3535 716.35 68.2047 716.103 68.0539 715.852 67.7865 715.725 67.4005 715.725 66.9179 715.725 66.5439 715.924 66.2825 716.32 66.0191 716.712 65.8884 717.277 65.8884 718.017L65.8884 721.894 63.355 721.894 63.355 714.012 65.8884 714.012 65.8884 715.162C66.1981 714.718 66.552 714.382 66.9501 714.157 67.3522 713.932 67.7945 713.819 68.2771 713.819 68.824 713.819 69.3065 713.952 69.7247 714.213 70.1429 714.477 70.4586 714.847 70.6738 715.323Z" fill="#A6A6A6"/><path d="M86.1576 711.777 86.1576 714.012 88.7554 714.012 88.7554 715.814 86.1576 715.814 86.1576 719.16C86.1576 719.526 86.23 719.771 86.3748 719.9 86.5196 720.028 86.8051 720.093 87.2353 720.093L88.5302 720.093 88.5302 721.894 86.3748 721.894C85.3775 721.894 84.6698 721.689 84.2515 721.275 83.8374 720.857 83.6323 720.153 83.6323 719.16L83.6323 715.814 82.3857 715.814 82.3857 714.012 83.6323 714.012 83.6323 711.777Z" fill="#A6A6A6"/><path d="M98.2174 717.093 98.2174 721.894 95.684 721.894 95.684 718.235C95.684 717.543 95.6679 717.068 95.6358 716.811 95.6036 716.554 95.5493 716.365 95.4749 716.24 95.3784 716.079 95.2437 715.955 95.0728 715.862 94.9059 715.772 94.7149 715.725 94.5018 715.725 93.975 715.725 93.5628 715.93 93.2632 716.337 92.9616 716.739 92.8129 717.3 92.8129 718.017L92.8129 721.894 90.2955 721.894 90.2955 710.94 92.8129 710.94 92.8129 715.162C93.1929 714.708 93.595 714.37 94.0193 714.149 94.4475 713.93 94.92 713.819 95.4347 713.819 96.3456 713.819 97.0372 714.101 97.5097 714.664 97.9802 715.223 98.2174 716.031 98.2174 717.093Z" fill="#A6A6A6"/><path d="M108.422 717.929 108.422 718.653 102.526 718.653C102.591 719.244 102.804 719.686 103.17 719.98 103.534 720.275 104.047 720.422 104.706 720.422 105.237 720.422 105.778 720.346 106.331 720.189 106.888 720.028 107.459 719.791 108.044 719.473L108.044 721.411C107.449 721.637 106.853 721.805 106.258 721.918 105.663 722.035 105.068 722.095 104.473 722.095 103.045 722.095 101.935 721.733 101.143 721.009 100.355 720.285 99.9608 719.27 99.9608 717.961 99.9608 716.674 100.349 715.665 101.127 714.929 101.903 714.189 102.971 713.819 104.328 713.819 105.566 713.819 106.558 714.195 107.304 714.945 108.048 715.691 108.422 716.686 108.422 717.929ZM105.832 717.093C105.832 716.616 105.691 716.232 105.414 715.943 105.134 715.649 104.77 715.5 104.32 715.5 103.831 715.5 103.435 715.637 103.13 715.91 102.824 716.184 102.633 716.578 102.559 717.093Z" fill="#A6A6A6"/><path d="M115.461 711.391 118.485 711.391 122.305 718.597 122.305 711.391 124.87 711.391 124.87 721.894 121.846 721.894 118.026 714.688 118.026 721.894 115.461 721.894Z" fill="#A6A6A6"/><path d="M131.158 715.621C130.599 715.621 130.172 715.822 129.879 716.224 129.583 716.626 129.437 717.205 129.437 717.961 129.437 718.717 129.583 719.296 129.879 719.698 130.172 720.096 130.599 720.293 131.158 720.293 131.705 720.293 132.123 720.096 132.412 719.698 132.706 719.296 132.855 718.717 132.855 717.961 132.855 717.205 132.706 716.626 132.412 716.224 132.123 715.822 131.705 715.621 131.158 715.621ZM131.158 713.819C132.513 713.819 133.572 714.187 134.335 714.921 135.095 715.651 135.477 716.664 135.477 717.961 135.477 719.254 135.095 720.267 134.335 721.001 133.572 721.731 132.513 722.095 131.158 722.095 129.795 722.095 128.731 721.731 127.965 721.001 127.197 720.267 126.815 719.254 126.815 717.961 126.815 716.664 127.197 715.651 127.965 714.921 128.731 714.187 129.795 713.819 131.158 713.819Z" fill="#A6A6A6"/><path d="M137.224 718.822 137.224 714.012 139.757 714.012 139.757 714.8C139.757 715.231 139.753 715.766 139.749 716.409 139.743 717.052 139.741 717.483 139.741 717.696 139.741 718.335 139.757 718.794 139.789 719.071 139.826 719.35 139.882 719.552 139.958 719.674 140.065 719.841 140.202 719.97 140.368 720.06 140.533 720.147 140.724 720.189 140.939 720.189 141.464 720.189 141.876 719.988 142.178 719.586 142.478 719.184 142.628 718.625 142.628 717.905L142.628 714.012 145.146 714.012 145.146 721.894 142.628 721.894 142.628 720.752C142.246 721.214 141.844 721.554 141.422 721.773 140.998 721.986 140.529 722.095 140.015 722.095 139.108 722.095 138.416 721.817 137.94 721.258 137.461 720.701 137.224 719.889 137.224 718.821Z" fill="#A6A6A6"/><path d="M155.494 717.093 155.494 721.894 152.961 721.894 152.961 718.219C152.961 717.539 152.945 717.068 152.913 716.811 152.881 716.554 152.826 716.365 152.752 716.24 152.655 716.079 152.521 715.955 152.35 715.862 152.183 715.772 151.992 715.725 151.779 715.725 151.252 715.725 150.84 715.93 150.54 716.337 150.239 716.739 150.09 717.3 150.09 718.017L150.09 721.894 147.573 721.894 147.573 714.013 150.09 714.013 150.09 715.163C150.47 714.708 150.872 714.37 151.296 714.149 151.725 713.93 152.197 713.819 152.712 713.819 153.623 713.819 154.314 714.101 154.787 714.664 155.257 715.223 155.494 716.031 155.494 717.093Z" fill="#A6A6A6"/><path d="M162.962 711.391 167.458 711.391C168.793 711.391 169.816 711.688 170.53 712.283 171.248 712.874 171.608 713.719 171.608 714.817 171.608 715.917 171.248 716.763 170.53 717.358 169.816 717.953 168.793 718.251 167.458 718.251L165.664 718.251 165.664 721.894 162.962 721.894ZM165.664 713.353 165.664 716.288 167.168 716.288C167.693 716.288 168.097 716.16 168.383 715.902 168.672 715.645 168.817 715.283 168.817 714.817 168.817 714.346 168.672 713.984 168.383 713.731 168.097 713.48 167.693 713.353 167.168 713.353Z" fill="#A6A6A6"/><path d="M179.268 716.159C179.043 716.059 178.82 715.983 178.601 715.934 178.385 715.882 178.168 715.854 177.949 715.854 177.3 715.854 176.801 716.063 176.453 716.481 176.103 716.895 175.93 717.487 175.93 718.259L175.93 721.894 173.413 721.894 173.413 714.012 175.93 714.012 175.93 715.307C176.252 714.792 176.622 714.418 177.04 714.181 177.463 713.94 177.967 713.819 178.552 713.819 178.637 713.819 178.729 713.825 178.826 713.835 178.926 713.841 179.071 713.856 179.26 713.876Z" fill="#A6A6A6"/><path d="M184.267 715.621C183.708 715.621 183.281 715.822 182.988 716.224 182.692 716.626 182.546 717.205 182.546 717.961 182.546 718.717 182.692 719.296 182.988 719.698 183.281 720.096 183.708 720.293 184.267 720.293 184.814 720.293 185.232 720.096 185.521 719.698 185.815 719.296 185.964 718.717 185.964 717.961 185.964 717.205 185.815 716.626 185.521 716.224 185.232 715.822 184.814 715.621 184.267 715.621ZM184.267 713.819C185.622 713.819 186.681 714.187 187.444 714.921 188.204 715.651 188.586 716.664 188.586 717.961 188.586 719.254 188.204 720.267 187.444 721.001 186.681 721.731 185.622 722.095 184.267 722.095 182.903 722.095 181.84 721.731 181.074 721.001 180.306 720.267 179.924 719.254 179.924 717.961 179.924 716.664 180.306 715.651 181.074 714.921 181.84 714.187 182.903 713.819 184.267 713.819Z" fill="#A6A6A6"/><path d="M190.421 714.013 192.939 714.013 192.939 721.749C192.939 722.805 192.683 723.611 192.175 724.17 191.67 724.727 190.936 725.007 189.971 725.007L188.724 725.007 188.724 723.35 189.167 723.35C189.643 723.35 189.971 723.241 190.148 723.028 190.329 722.813 190.421 722.387 190.421 721.749ZM190.421 710.94 192.939 710.94 192.939 712.999 190.421 712.999Z" fill="#A6A6A6"/><path d="M203.227 717.929 203.227 718.653 197.332 718.653C197.396 719.244 197.61 719.686 197.975 719.98 198.339 720.275 198.852 720.422 199.512 720.422 200.042 720.422 200.583 720.346 201.136 720.189 201.693 720.028 202.264 719.791 202.849 719.473L202.849 721.411C202.254 721.637 201.659 721.805 201.064 721.918 200.469 722.035 199.873 722.095 199.278 722.095 197.851 722.095 196.741 721.733 195.949 721.009 195.161 720.285 194.766 719.27 194.766 717.961 194.766 716.674 195.154 715.665 195.933 714.929 196.709 714.189 197.776 713.819 199.134 713.819 200.372 713.819 201.363 714.195 202.109 714.945 202.853 715.691 203.227 716.686 203.227 717.929ZM200.638 717.093C200.638 716.616 200.497 716.232 200.219 715.943 199.94 715.649 199.576 715.5 199.126 715.5 198.637 715.5 198.241 715.637 197.935 715.91 197.63 716.184 197.439 716.578 197.364 717.093Z" fill="#A6A6A6"/><path d="M211.499 714.262 211.499 716.312C211.161 716.077 210.817 715.902 210.469 715.79 210.126 715.677 209.77 715.621 209.4 715.621 208.696 715.621 208.147 715.828 207.751 716.24 207.359 716.648 207.164 717.221 207.164 717.961 207.164 718.697 207.359 719.27 207.751 719.682 208.147 720.091 208.696 720.294 209.4 720.294 209.79 720.294 210.164 720.237 210.518 720.125 210.872 720.008 211.197 719.833 211.499 719.602L211.499 721.661C211.107 721.806 210.707 721.912 210.301 721.983 209.898 722.057 209.49 722.095 209.078 722.095 207.657 722.095 206.545 721.731 205.74 721.001 204.94 720.274 204.542 719.26 204.542 717.961 204.542 716.659 204.94 715.643 205.74 714.913 206.545 714.185 207.657 713.819 209.078 713.819 209.49 713.819 209.898 713.858 210.301 713.932 210.703 714.002 211.101 714.113 211.499 714.262Z" fill="#A6A6A6"/><path d="M216.429 711.777 216.429 714.012 219.027 714.012 219.027 715.814 216.429 715.814 216.429 719.16C216.429 719.526 216.501 719.771 216.646 719.9 216.791 720.028 217.076 720.093 217.507 720.093L218.801 720.093 218.801 721.894 216.646 721.894C215.649 721.894 214.941 721.689 214.523 721.275 214.109 720.857 213.904 720.153 213.904 719.16L213.904 715.814 212.657 715.814 212.657 714.012 213.904 714.012 213.904 711.777Z" fill="#A6A6A6"/></g></svg>