<svg width="2489" height="211" xmlns="http://www.w3.org/2000/svg" xmlns:xlink="http://www.w3.org/1999/xlink" overflow="hidden"><defs><clipPath id="clip0"><rect x="839" y="542" width="2489" height="211"/></clipPath></defs><g clip-path="url(#clip0)" transform="translate(-839 -542)"><path d="M894.597 595.609C892.149 595.609 889.951 596.595 888.003 598.568 886.054 600.54 884.533 603.184 883.44 606.499 882.347 609.814 881.801 613.123 881.801 616.426 881.801 618.897 882.139 620.745 882.816 621.968 883.494 623.192 884.628 623.804 886.221 623.804 887.789 623.804 889.328 623.127 890.836 621.772 892.345 620.418 893.902 618.487 895.506 615.98 897.11 613.473 898.245 610.58 898.91 607.301L899.231 605.768C899.445 604.794 899.587 603.95 899.659 603.237 899.73 602.524 899.765 601.752 899.765 600.92 899.765 599.091 899.373 597.748 898.589 596.892 897.805 596.037 896.474 595.609 894.597 595.609ZM893.884 592.793C895.429 592.793 896.872 592.966 898.215 593.31 899.557 593.655 900.942 594.267 902.367 595.146L905.647 592.793 907.928 593.364 902.688 615.962C902.166 618.22 901.904 619.978 901.904 621.238 901.904 622.188 902.059 622.877 902.367 623.305 902.676 623.733 903.164 623.947 903.829 623.947 904.542 623.947 905.302 623.656 906.11 623.073 906.918 622.491 908.059 621.38 909.532 619.741L911.564 621.737C909.425 624.018 907.601 625.64 906.092 626.602 904.583 627.565 902.95 628.046 901.191 628.046 899.718 628.046 898.542 627.559 897.662 626.584 896.783 625.61 896.344 624.315 896.344 622.699 896.344 621.392 896.617 620.002 897.163 618.529L896.7 618.386C894.419 621.713 892.256 624.149 890.213 625.693 888.169 627.238 886.007 628.01 883.725 628.01 881.111 628.01 879.086 627.024 877.648 625.052 876.21 623.079 875.492 620.311 875.492 616.746 875.492 612.659 876.294 608.732 877.898 604.966 879.502 601.2 881.706 598.229 884.51 596.055 887.314 593.88 890.438 592.793 893.884 592.793Z" fill-rule="evenodd"/><text fill="#000000" fill-opacity="0" font-family="Arial,Arial_MSFontService,sans-serif" font-size="35.2524" x="875.492" y="623.639">𝑎</text><path d="M935.818 604.235 979.732 604.235 979.732 608.976 935.818 608.976Z" fill-rule="evenodd"/><text fill="#000000" fill-opacity="0" font-family="Arial,Arial_MSFontService,sans-serif" font-size="4.74072" x="935.818" y="608.383">−</text><path d="M1026.65 596.999C1025.5 596.999 1024.38 597.362 1023.28 598.087 1022.17 598.811 1020.94 600.011 1019.59 601.687 1018.23 603.362 1017.13 605.079 1016.27 606.837 1015.42 608.596 1014.69 610.841 1014.1 613.574L1013.78 615.071C1013.42 616.735 1013.24 618.35 1013.24 619.919 1013.24 621.796 1013.65 623.151 1014.47 623.982 1015.29 624.814 1016.65 625.23 1018.55 625.23 1019.53 625.23 1020.45 625.069 1021.33 624.749 1022.21 624.428 1023.11 623.899 1024.03 623.162 1024.94 622.426 1025.81 621.457 1026.63 620.257 1027.45 619.057 1028.2 617.578 1028.89 615.82 1029.58 614.061 1030.11 612.178 1030.49 610.17 1030.88 608.162 1031.07 606.243 1031.07 604.413 1031.07 601.942 1030.71 600.089 1030.01 598.853 1029.31 597.617 1028.19 596.999 1026.65 596.999ZM1020.41 576.504 1022.47 576.504 1016.2 601.455 1016.66 601.598C1018.97 598.508 1021.13 596.275 1023.15 594.896 1025.17 593.518 1027.19 592.829 1029.21 592.829 1031.8 592.829 1033.82 593.815 1035.25 595.787 1036.69 597.76 1037.41 600.54 1037.41 604.128 1037.41 608.049 1036.62 611.905 1035.04 615.695 1033.46 619.485 1031.27 622.491 1028.46 624.713 1025.66 626.935 1022.52 628.046 1019.05 628.046 1015.89 628.046 1013.09 627.273 1010.64 625.729L1007.36 628.046 1005.08 627.475 1014.31 586.734C1014.86 584.31 1015.13 582.551 1015.13 581.458 1015.13 580.46 1014.83 579.759 1014.22 579.355 1013.62 578.951 1012.53 578.726 1010.96 578.678L1011.39 576.825Z" fill-rule="evenodd"/><text fill="#000000" fill-opacity="0" font-family="Arial,Arial_MSFontService,sans-serif" font-size="51.542" x="1005.08" y="621.603">𝑏</text><path d="M1068.62 611.649 1112.53 611.649 1112.53 616.39 1068.62 616.39ZM1068.62 596.857 1112.53 596.857 1112.53 601.598 1068.62 601.598Z" fill-rule="evenodd"/><text fill="#000000" fill-opacity="0" font-family="Arial,Arial_MSFontService,sans-serif" font-size="19.5332" x="1068.62" y="613.948">=</text><path d="M1161.53 595.609C1159.08 595.609 1156.88 596.595 1154.94 598.568 1152.99 600.54 1151.47 603.184 1150.37 606.499 1149.28 609.814 1148.73 613.123 1148.73 616.426 1148.73 618.897 1149.07 620.745 1149.75 621.968 1150.43 623.192 1151.56 623.804 1153.15 623.804 1154.72 623.804 1156.26 623.127 1157.77 621.772 1159.28 620.418 1160.84 618.487 1162.44 615.98 1164.04 613.473 1165.18 610.58 1165.84 607.301L1166.16 605.768C1166.38 604.794 1166.52 603.95 1166.59 603.237 1166.66 602.524 1166.7 601.752 1166.7 600.92 1166.7 599.091 1166.31 597.748 1165.52 596.892 1164.74 596.037 1163.41 595.609 1161.53 595.609ZM1160.82 592.793C1162.36 592.793 1163.81 592.966 1165.15 593.31 1166.49 593.655 1167.88 594.267 1169.3 595.146L1172.58 592.793 1174.86 593.364 1169.62 615.962C1169.1 618.22 1168.84 619.978 1168.84 621.238 1168.84 622.188 1168.99 622.877 1169.3 623.305 1169.61 623.733 1170.1 623.947 1170.76 623.947 1171.48 623.947 1172.24 623.656 1173.04 623.073 1173.85 622.491 1174.99 621.38 1176.47 619.741L1178.5 621.737C1176.36 624.018 1174.53 625.64 1173.03 626.602 1171.52 627.565 1169.88 628.046 1168.12 628.046 1166.65 628.046 1165.48 627.559 1164.6 626.584 1163.72 625.61 1163.28 624.315 1163.28 622.699 1163.28 621.392 1163.55 620.002 1164.1 618.529L1163.63 618.386C1161.35 621.713 1159.19 624.149 1157.15 625.693 1155.1 627.238 1152.94 628.01 1150.66 628.01 1148.04 628.01 1146.02 627.024 1144.58 625.052 1143.14 623.079 1142.42 620.311 1142.42 616.746 1142.42 612.659 1143.23 608.732 1144.83 604.966 1146.43 601.2 1148.64 598.229 1151.44 596.055 1154.25 593.88 1157.37 592.793 1160.82 592.793Z" fill-rule="evenodd"/><text fill="#000000" fill-opacity="0" font-family="Arial,Arial_MSFontService,sans-serif" font-size="35.2524" x="1142.42" y="623.639">𝑎</text><path d="M1222.18 583.704 1227.24 583.704 1227.24 604.235 1246.67 604.235 1246.67 608.976 1227.24 608.976 1227.24 629.507 1222.18 629.507 1222.18 608.976 1202.75 608.976 1202.75 604.235 1222.18 604.235Z" fill-rule="evenodd"/><text fill="#000000" fill-opacity="0" font-family="Arial,Arial_MSFontService,sans-serif" font-size="45.8032" x="1202.75" y="623.782">+</text><path d="M1296.72 575.969 1297.68 578.714C1292.12 580.544 1288 584.114 1285.33 589.425 1282.65 594.736 1281.32 601.407 1281.32 609.439 1281.32 617.756 1282.65 624.612 1285.33 630.006 1288 635.4 1292.08 639.012 1297.57 640.842L1296.72 643.587C1289.75 641.757 1284.42 637.818 1280.71 631.771 1277 625.723 1275.15 618.398 1275.15 609.796 1275.15 601.217 1277.01 593.892 1280.73 587.821 1284.45 581.749 1289.78 577.799 1296.72 575.969Z" fill-rule="evenodd"/><text fill="#000000" fill-opacity="0" font-family="Arial,Arial_MSFontService,sans-serif" font-size="67.6177" x="1275.15" y="635.135">(</text><path d="M1304.41 604.235 1348.32 604.235 1348.32 608.976 1304.41 608.976Z" fill-rule="evenodd"/><text fill="#000000" fill-opacity="0" font-family="Arial,Arial_MSFontService,sans-serif" font-size="4.74072" x="1304.41" y="608.383">−</text><path d="M1378.94 596.999C1377.8 596.999 1376.68 597.362 1375.57 598.087 1374.47 598.811 1373.24 600.011 1371.89 601.687 1370.53 603.362 1369.43 605.079 1368.57 606.837 1367.72 608.596 1366.99 610.841 1366.4 613.574L1366.08 615.071C1365.72 616.735 1365.54 618.35 1365.54 619.919 1365.54 621.796 1365.95 623.151 1366.77 623.982 1367.59 624.814 1368.95 625.23 1370.85 625.23 1371.83 625.23 1372.75 625.069 1373.63 624.749 1374.51 624.428 1375.41 623.899 1376.32 623.162 1377.24 622.426 1378.11 621.457 1378.93 620.257 1379.75 619.057 1380.5 617.578 1381.19 615.82 1381.88 614.061 1382.41 612.178 1382.79 610.17 1383.17 608.162 1383.36 606.243 1383.36 604.413 1383.36 601.942 1383.01 600.089 1382.31 598.853 1381.61 597.617 1380.49 596.999 1378.94 596.999ZM1372.71 576.504 1374.77 576.504 1368.5 601.455 1368.96 601.598C1371.27 598.508 1373.43 596.275 1375.45 594.896 1377.47 593.518 1379.49 592.829 1381.51 592.829 1384.1 592.829 1386.11 593.815 1387.55 595.787 1388.99 597.76 1389.71 600.54 1389.71 604.128 1389.71 608.049 1388.92 611.905 1387.34 615.695 1385.76 619.485 1383.57 622.491 1380.76 624.713 1377.96 626.935 1374.82 628.046 1371.35 628.046 1368.19 628.046 1365.39 627.273 1362.94 625.729L1359.66 628.046 1357.38 627.475 1366.61 586.734C1367.16 584.31 1367.43 582.551 1367.43 581.458 1367.43 580.46 1367.13 579.759 1366.52 579.355 1365.92 578.951 1364.83 578.726 1363.26 578.678L1363.69 576.825Z" fill-rule="evenodd"/><text fill="#000000" fill-opacity="0" font-family="Arial,Arial_MSFontService,sans-serif" font-size="51.542" x="1357.38" y="621.603">𝑏</text><path d="M1397.55 575.969C1404.49 577.799 1409.82 581.749 1413.54 587.821 1417.26 593.892 1419.12 601.217 1419.12 609.796 1419.12 618.398 1417.26 625.723 1413.56 631.771 1409.85 637.818 1404.51 641.757 1397.55 643.587L1396.7 640.842C1402.18 639.012 1406.27 635.4 1408.94 630.006 1411.61 624.612 1412.95 617.756 1412.95 609.439 1412.95 601.407 1411.62 594.736 1408.96 589.425 1406.3 584.114 1402.17 580.544 1396.59 578.714Z" fill-rule="evenodd"/><text fill="#000000" fill-opacity="0" font-family="Arial,Arial_MSFontService,sans-serif" font-size="67.6177" x="1396.59" y="635.135">)</text><path d="M877.06 692.235 920.974 692.235 920.974 696.976 877.06 696.976Z" fill-rule="evenodd"/><text fill="#000000" fill-opacity="0" font-family="Arial,Arial_MSFontService,sans-serif" font-size="4.74072" x="877.06" y="696.383">−</text><path d="M951.593 684.999C950.452 684.999 949.33 685.362 948.225 686.087 947.12 686.811 945.89 688.011 944.535 689.687 943.181 691.362 942.076 693.079 941.221 694.837 940.365 696.596 939.64 698.841 939.046 701.574L938.725 703.071C938.369 704.735 938.191 706.35 938.191 707.919 938.191 709.796 938.601 711.151 939.42 711.982 940.24 712.814 941.601 713.23 943.502 713.23 944.476 713.23 945.403 713.069 946.282 712.749 947.161 712.428 948.058 711.899 948.973 711.162 949.888 710.426 950.755 709.457 951.575 708.257 952.395 707.057 953.15 705.578 953.839 703.82 954.528 702.061 955.062 700.178 955.443 698.17 955.823 696.162 956.013 694.243 956.013 692.413 956.013 689.942 955.662 688.089 954.961 686.853 954.26 685.617 953.138 684.999 951.593 684.999ZM945.355 664.504 947.423 664.504 941.149 689.455 941.613 689.598C943.918 686.508 946.08 684.275 948.1 682.896 950.12 681.518 952.14 680.829 954.159 680.829 956.75 680.829 958.764 681.815 960.201 683.787 961.639 685.76 962.358 688.54 962.358 692.128 962.358 696.049 961.568 699.905 959.987 703.695 958.407 707.485 956.215 710.491 953.411 712.713 950.607 714.935 947.47 716.046 944.001 716.046 940.84 716.046 938.036 715.273 935.589 713.729L932.309 716.046 930.028 715.475 939.26 674.734C939.807 672.31 940.08 670.551 940.08 669.458 940.08 668.46 939.777 667.759 939.171 667.355 938.565 666.951 937.478 666.726 935.909 666.678L936.337 664.825Z" fill-rule="evenodd"/><text fill="#000000" fill-opacity="0" font-family="Arial,Arial_MSFontService,sans-serif" font-size="51.542" x="930.028" y="709.603">𝑏</text><path d="M993.568 699.649 1037.48 699.649 1037.48 704.39 993.568 704.39ZM993.568 684.857 1037.48 684.857 1037.48 689.598 993.568 689.598Z" fill-rule="evenodd"/><text fill="#000000" fill-opacity="0" font-family="Arial,Arial_MSFontService,sans-serif" font-size="19.5332" x="993.568" y="701.948">=</text><path d="M1068.94 692.235 1112.86 692.235 1112.86 696.976 1068.94 696.976Z" fill-rule="evenodd"/><text fill="#000000" fill-opacity="0" font-family="Arial,Arial_MSFontService,sans-serif" font-size="4.74072" x="1068.94" y="696.383">−</text><path d="M1133.42 681.078 1135.53 681.078 1130.39 703.962C1129.87 706.291 1129.61 708.049 1129.61 709.238 1129.61 710.188 1129.76 710.877 1130.07 711.305 1130.38 711.733 1130.87 711.947 1131.53 711.947 1132.25 711.947 1133.01 711.656 1133.81 711.073 1134.62 710.491 1135.76 709.38 1137.24 707.741L1139.27 709.737C1136.94 712.184 1135.05 713.848 1133.6 714.727 1132.15 715.606 1130.52 716.046 1128.72 716.046 1127.17 716.046 1125.94 715.481 1125.01 714.353 1124.08 713.224 1123.62 711.78 1123.62 710.022 1123.62 708.216 1123.95 705.911 1124.62 703.107L1127.29 691.451C1127.84 689.075 1128.11 687.293 1128.11 686.104 1128.11 685.035 1127.86 684.31 1127.35 683.93 1126.83 683.55 1125.83 683.336 1124.33 683.288L1124.73 681.399ZM1132.46 667.427 1138.77 667.427 1137.13 674.342 1130.82 674.342Z" fill-rule="evenodd"/><text fill="#000000" fill-opacity="0" font-family="Arial,Arial_MSFontService,sans-serif" font-size="48.6191" x="1123.62" y="709.968">𝑖</text><path d="M1162.1 707.485C1161.32 707.485 1160.47 707.74 1159.54 708.249 1158.6 708.758 1157.69 709.513 1156.78 710.513 1155.87 711.514 1155.04 712.752 1154.27 714.227 1153.5 715.702 1152.89 717.397 1152.45 719.312 1152.31 720.244 1152.15 721.158 1151.98 722.055 1151.81 722.952 1151.72 723.789 1151.72 724.565 1151.72 725.963 1152.04 726.951 1152.67 727.529 1153.3 728.107 1154.31 728.396 1155.71 728.396 1157.12 728.396 1158.42 727.943 1159.61 727.037 1160.8 726.131 1161.83 724.945 1162.68 723.479 1163.53 722.012 1164.2 720.365 1164.69 718.536 1165.17 716.707 1165.41 714.861 1165.41 712.998 1165.41 711.152 1165.15 709.771 1164.62 708.857 1164.1 707.943 1163.25 707.485 1162.1 707.485ZM1156.04 695.115 1157.91 695.115 1154.28 709.892 1154.65 710.073C1155.53 709.038 1156.37 708.137 1157.17 707.369 1157.97 706.601 1158.76 705.971 1159.52 705.48 1160.29 704.988 1161.05 704.621 1161.81 704.38 1162.57 704.138 1163.36 704.018 1164.17 704.018 1166.2 704.018 1167.77 704.76 1168.88 706.243 1169.98 707.727 1170.53 709.892 1170.53 712.739 1170.53 715.223 1170.15 717.565 1169.38 719.765 1168.62 721.965 1167.58 723.893 1166.26 725.549 1164.95 727.205 1163.43 728.512 1161.7 729.47 1159.96 730.427 1158.13 730.906 1156.2 730.906 1154.96 730.906 1153.81 730.781 1152.76 730.531 1151.7 730.28 1150.68 729.862 1149.68 729.275 1149.25 729.517 1148.81 729.784 1148.36 730.078 1147.91 730.371 1147.49 730.647 1147.09 730.906 1146.78 730.82 1146.45 730.738 1146.11 730.66 1145.76 730.582 1145.43 730.492 1145.12 730.388L1151.33 702.646C1151.52 701.783 1151.66 701.076 1151.76 700.524 1151.85 699.972 1151.9 699.489 1151.9 699.075 1151.9 698.747 1151.85 698.462 1151.75 698.221 1151.64 697.979 1151.46 697.785 1151.2 697.638 1150.94 697.492 1150.6 697.384 1150.17 697.315 1149.74 697.246 1149.19 697.203 1148.54 697.186L1148.93 695.426Z" fill-rule="evenodd"/><text fill="#000000" fill-opacity="0" font-family="Arial,Arial_MSFontService,sans-serif" font-size="35.7905" x="1145.12" y="726.432">𝑏</text><path d="M1200.3 692.235 1244.21 692.235 1244.21 696.976 1200.3 696.976Z" fill-rule="evenodd"/><text fill="#000000" fill-opacity="0" font-family="Arial,Arial_MSFontService,sans-serif" font-size="4.74072" x="1200.3" y="696.383">−</text><path d="M1299.86 664.29C1302.19 664.29 1304.2 664.48 1305.88 664.86L1304.49 670.92 1301.36 670.92C1301.02 669.565 1300.59 668.591 1300.06 667.997 1299.52 667.403 1298.73 667.106 1297.69 667.106 1296.33 667.106 1295.18 667.48 1294.25 668.229 1293.31 668.977 1292.5 670.088 1291.84 671.561 1291.17 673.035 1290.56 675.019 1289.99 677.514L1289.09 681.399 1298.26 681.399 1297.47 684.999 1288.27 684.999 1281.65 716.081C1280.55 721.238 1278.88 725.082 1276.62 727.612 1274.36 730.143 1271.52 731.409 1268.1 731.409 1267.1 731.409 1266.32 731.349 1265.75 731.23L1266.35 728.094C1266.59 728.165 1267.15 728.201 1268.03 728.201 1269.1 728.201 1270.01 727.927 1270.77 727.381 1271.53 726.834 1272.24 725.884 1272.89 724.529 1273.55 723.175 1274.15 721.297 1274.69 718.897L1282.36 684.999 1276.33 684.999 1276.87 682.54C1278.46 682.445 1279.61 682.314 1280.31 682.148 1281.01 681.982 1281.56 681.732 1281.95 681.399 1282.34 681.067 1282.67 680.633 1282.95 680.098 1283.22 679.564 1283.57 678.583 1284 677.158 1285.26 672.88 1287.2 669.666 1289.83 667.516 1292.45 665.365 1295.8 664.29 1299.86 664.29Z" fill-rule="evenodd"/><text fill="#000000" fill-opacity="0" font-family="Arial,Arial_MSFontService,sans-serif" font-size="67.1187" x="1265.75" y="723.019">𝑓</text><path d="M1314.91 707.485C1314.13 707.485 1313.28 707.74 1312.34 708.249 1311.41 708.758 1310.49 709.513 1309.59 710.513 1308.68 711.514 1307.85 712.752 1307.08 714.227 1306.31 715.702 1305.7 717.397 1305.25 719.312 1305.12 720.244 1304.96 721.158 1304.79 722.055 1304.62 722.952 1304.53 723.789 1304.53 724.565 1304.53 725.963 1304.84 726.951 1305.47 727.529 1306.1 728.107 1307.12 728.396 1308.51 728.396 1309.93 728.396 1311.23 727.943 1312.42 727.037 1313.61 726.131 1314.63 724.945 1315.49 723.479 1316.34 722.012 1317.01 720.365 1317.49 718.536 1317.98 716.707 1318.22 714.861 1318.22 712.998 1318.22 711.152 1317.96 709.771 1317.43 708.857 1316.9 707.943 1316.06 707.485 1314.91 707.485ZM1308.85 695.115 1310.71 695.115 1307.09 709.892 1307.45 710.073C1308.33 709.038 1309.17 708.137 1309.98 707.369 1310.78 706.601 1311.56 705.971 1312.33 705.48 1313.1 704.988 1313.86 704.621 1314.62 704.38 1315.38 704.138 1316.17 704.018 1316.98 704.018 1319.01 704.018 1320.58 704.76 1321.69 706.243 1322.79 707.727 1323.34 709.892 1323.34 712.739 1323.34 715.223 1322.96 717.565 1322.19 719.765 1321.42 721.965 1320.38 723.893 1319.07 725.549 1317.76 727.205 1316.24 728.512 1314.51 729.47 1312.77 730.427 1310.94 730.906 1309.01 730.906 1307.76 730.906 1306.62 730.781 1305.56 730.531 1304.51 730.28 1303.49 729.862 1302.48 729.275 1302.05 729.517 1301.61 729.784 1301.16 730.078 1300.72 730.371 1300.29 730.647 1299.9 730.906 1299.59 730.82 1299.26 730.738 1298.91 730.66 1298.57 730.582 1298.24 730.492 1297.93 730.388L1304.14 702.646C1304.33 701.783 1304.47 701.076 1304.57 700.524 1304.66 699.972 1304.71 699.489 1304.71 699.075 1304.71 698.747 1304.66 698.462 1304.55 698.221 1304.45 697.979 1304.27 697.785 1304.01 697.638 1303.75 697.492 1303.41 697.384 1302.98 697.315 1302.55 697.246 1302 697.203 1301.35 697.186L1301.73 695.426Z" fill-rule="evenodd"/><text fill="#000000" fill-opacity="0" font-family="Arial,Arial_MSFontService,sans-serif" font-size="35.7905" x="1297.93" y="726.432">𝑏</text><path d="M1358.1 689.491C1359.02 689.491 1359.86 689.71 1360.61 690.15 1361.36 690.59 1361.94 691.202 1362.34 691.986 1362.74 692.77 1362.95 693.649 1362.95 694.623 1362.95 695.621 1362.74 696.513 1362.32 697.297 1361.91 698.081 1361.32 698.687 1360.58 699.115 1359.83 699.542 1359 699.756 1358.1 699.756 1357.2 699.756 1356.37 699.542 1355.62 699.115 1354.87 698.687 1354.29 698.081 1353.87 697.297 1353.46 696.513 1353.25 695.621 1353.25 694.623 1353.25 693.649 1353.45 692.77 1353.86 691.986 1354.26 691.202 1354.84 690.59 1355.59 690.15 1356.33 689.71 1357.17 689.491 1358.1 689.491Z" fill-rule="evenodd"/><text fill="#000000" fill-opacity="0" font-family="Arial,Arial_MSFontService,sans-serif" font-size="10.2656" x="1353.25" y="698.473">∙</text><path d="M1445.93 669.28C1444.29 669.28 1442.91 669.767 1441.81 670.742 1440.7 671.716 1439.81 673.118 1439.14 674.948 1438.46 676.777 1437.98 679.005 1437.69 681.631 1437.41 684.257 1437.26 687.221 1437.26 690.524 1437.26 698.271 1437.98 703.956 1439.42 707.58 1440.86 711.204 1443.09 713.016 1446.1 713.016 1448.98 713.016 1451.11 711.311 1452.5 707.901 1453.89 704.491 1454.59 699.21 1454.59 692.057 1454.59 686.591 1454.23 682.166 1453.52 678.779 1452.81 675.393 1451.81 672.963 1450.54 671.49 1449.27 670.017 1447.73 669.28 1445.93 669.28ZM1446.1 666.25C1451.31 666.25 1455.18 668.258 1457.72 672.274 1460.27 676.29 1461.54 682.362 1461.54 690.489 1461.54 698.901 1460.18 705.263 1457.46 709.576 1454.74 713.889 1450.76 716.046 1445.53 716.046 1440.4 716.046 1436.58 714.026 1434.07 709.986 1431.57 705.946 1430.31 699.816 1430.31 691.594 1430.31 687.221 1430.7 683.443 1431.47 680.259 1432.24 677.074 1433.33 674.443 1434.72 672.363 1436.11 670.284 1437.78 668.745 1439.72 667.747 1441.67 666.749 1443.8 666.25 1446.1 666.25ZM1407.74 666.25 1409.7 666.25C1409.56 668.532 1409.49 671.692 1409.49 675.732L1409.49 706.172C1409.49 707.55 1409.57 708.59 1409.72 709.291 1409.87 709.992 1410.15 710.562 1410.54 711.002 1410.93 711.442 1411.5 711.786 1412.23 712.036 1412.97 712.285 1413.9 712.475 1415.01 712.606 1416.13 712.737 1417.6 712.826 1419.43 712.873L1419.43 715.475 1393.09 715.475 1393.09 712.873C1395.73 712.755 1397.61 712.594 1398.74 712.392 1399.87 712.19 1400.73 711.887 1401.33 711.483 1401.92 711.079 1402.35 710.509 1402.63 709.772 1402.9 709.036 1403.04 707.836 1403.04 706.172L1403.04 677.265C1403.04 676.314 1402.87 675.619 1402.54 675.179 1402.21 674.74 1401.72 674.52 1401.08 674.52 1400.32 674.52 1399.23 674.912 1397.83 675.696 1396.43 676.48 1394.7 677.562 1392.63 678.94L1391.06 676.195Z" fill-rule="evenodd"/><text fill="#000000" fill-opacity="0" font-family="Arial,Arial_MSFontService,sans-serif" font-size="49.7954" x="1391.06" y="709.821">10</text><path d="M1484.5 664.757C1483.55 664.757 1482.61 664.99 1481.69 665.456 1480.76 665.921 1479.89 666.581 1479.07 667.435 1478.25 668.289 1477.51 669.324 1476.84 670.541 1476.16 671.757 1475.6 673.116 1475.15 674.617 1477.34 674.599 1479.23 674.427 1480.81 674.099 1482.39 673.771 1483.68 673.323 1484.69 672.753 1485.7 672.184 1486.44 671.511 1486.92 670.735 1487.39 669.958 1487.63 669.104 1487.63 668.173 1487.63 667.103 1487.36 666.266 1486.82 665.663 1486.29 665.059 1485.51 664.757 1484.5 664.757ZM1485.61 662.195C1487.82 662.195 1489.49 662.678 1490.64 663.644 1491.79 664.61 1492.36 665.982 1492.36 667.759 1492.36 674.004 1486.45 677.127 1474.64 677.127 1474.55 677.575 1474.48 678.063 1474.43 678.589 1474.38 679.115 1474.35 679.689 1474.35 680.31 1474.35 682.191 1474.73 683.562 1475.5 684.425 1476.27 685.287 1477.47 685.719 1479.09 685.719 1479.93 685.719 1480.73 685.628 1481.49 685.447 1482.25 685.266 1483 684.985 1483.73 684.606 1484.47 684.226 1485.2 683.739 1485.94 683.144 1486.69 682.549 1487.46 681.837 1488.27 681.009L1490.21 683.105C1488.21 685.089 1486.22 686.581 1484.22 687.582 1482.23 688.583 1480.09 689.083 1477.79 689.083 1476.45 689.083 1475.25 688.88 1474.21 688.475 1473.16 688.069 1472.28 687.478 1471.57 686.702 1470.85 685.926 1470.31 684.981 1469.94 683.868 1469.57 682.756 1469.38 681.5 1469.38 680.103 1469.38 679.12 1469.47 678.097 1469.64 677.036 1469.81 675.975 1470.08 674.914 1470.44 673.853 1470.81 672.792 1471.25 671.757 1471.79 670.748 1472.32 669.738 1472.95 668.794 1473.68 667.914 1475.13 666.12 1476.87 664.718 1478.92 663.709 1480.96 662.699 1483.19 662.195 1485.61 662.195Z" fill-rule="evenodd"/><text fill="#000000" fill-opacity="0" font-family="Arial,Arial_MSFontService,sans-serif" font-size="26.8882" x="1469.38" y="685.722">𝑒</text><path d="M1513.06 680.291C1512.3 680.291 1511.56 680.467 1510.84 680.818 1510.13 681.168 1509.3 681.849 1508.36 682.859 1507.42 683.868 1506.7 684.867 1506.19 685.856 1505.68 686.844 1505.24 688.233 1504.85 690.024L1504.42 692.065C1504.2 693.067 1504.1 693.934 1504.1 694.664 1504.1 695.824 1504.38 696.655 1504.95 697.156 1505.51 697.658 1506.37 697.908 1507.51 697.908 1509.16 697.908 1510.61 697.282 1511.87 696.029 1513.13 694.775 1514.11 693.096 1514.8 690.99 1515.48 688.885 1515.83 686.858 1515.83 684.91 1515.83 683.349 1515.6 682.189 1515.14 681.43 1514.68 680.671 1513.99 680.291 1513.06 680.291ZM1507.79 668.797 1509.64 668.797 1506.5 681.838 1506.8 681.945C1508.31 680.298 1509.68 679.092 1510.92 678.325 1512.16 677.559 1513.49 677.176 1514.93 677.176 1516.69 677.176 1518.04 677.813 1519 679.088 1519.95 680.363 1520.43 682.232 1520.43 684.695 1520.43 687.202 1519.87 689.701 1518.75 692.194 1517.63 694.686 1516.13 696.648 1514.24 698.08 1512.35 699.513 1510.23 700.229 1507.9 700.229 1506.87 700.229 1505.91 700.125 1505.01 699.917 1504.11 699.709 1503.2 699.348 1502.27 698.832 1501.91 699.033 1501.55 699.269 1501.18 699.541L1500.08 700.229 1498.21 699.713 1503.77 675.07C1503.95 674.369 1504.06 673.817 1504.12 673.416 1504.18 673.015 1504.2 672.65 1504.2 672.32 1504.2 671.762 1504 671.372 1503.59 671.15 1503.18 670.928 1502.39 670.795 1501.22 670.752L1501.56 669.098Z" fill-rule="evenodd"/><text fill="#000000" fill-opacity="0" font-family="Arial,Arial_MSFontService,sans-serif" font-size="31.4316" x="1498.21" y="696.3">𝑏</text><path d="M1554.32 699.649 1598.23 699.649 1598.23 704.39 1554.32 704.39ZM1554.32 684.857 1598.23 684.857 1598.23 689.598 1554.32 689.598Z" fill-rule="evenodd"/><text fill="#000000" fill-opacity="0" font-family="Arial,Arial_MSFontService,sans-serif" font-size="19.5332" x="1554.32" y="701.948">=</text><path d="M1629.69 692.235 1673.6 692.235 1673.6 696.976 1629.69 696.976Z" fill="#0000CC" fill-rule="evenodd"/><text fill="#000000" fill-opacity="0" font-family="Arial,Arial_MSFontService,sans-serif" font-size="4.74072" x="1629.69" y="696.383">−</text><path d="M1694.17 681.078 1696.27 681.078 1691.14 703.962C1690.62 706.291 1690.36 708.049 1690.36 709.238 1690.36 710.188 1690.51 710.877 1690.82 711.305 1691.13 711.733 1691.62 711.947 1692.28 711.947 1692.99 711.947 1693.75 711.656 1694.56 711.073 1695.37 710.491 1696.51 709.38 1697.98 707.741L1700.02 709.737C1697.69 712.184 1695.8 713.848 1694.35 714.727 1692.9 715.606 1691.27 716.046 1689.47 716.046 1687.92 716.046 1686.69 715.481 1685.76 714.353 1684.83 713.224 1684.37 711.78 1684.37 710.022 1684.37 708.216 1684.7 705.911 1685.37 703.107L1688.04 691.451C1688.59 689.075 1688.86 687.293 1688.86 686.104 1688.86 685.035 1688.6 684.31 1688.09 683.93 1687.58 683.55 1686.58 683.336 1685.08 683.288L1685.47 681.399ZM1693.21 667.427 1699.52 667.427 1697.88 674.342 1691.57 674.342Z" fill="#0000CC" fill-rule="evenodd"/><text fill="#000000" fill-opacity="0" font-family="Arial,Arial_MSFontService,sans-serif" font-size="48.6191" x="1684.37" y="709.968">𝑖</text><path d="M1722.85 707.485C1722.07 707.485 1721.22 707.74 1720.28 708.249 1719.35 708.758 1718.43 709.513 1717.53 710.513 1716.62 711.514 1715.79 712.752 1715.02 714.227 1714.25 715.702 1713.64 717.397 1713.19 719.312 1713.06 720.244 1712.9 721.158 1712.73 722.055 1712.55 722.952 1712.47 723.789 1712.47 724.565 1712.47 725.963 1712.78 726.951 1713.41 727.529 1714.04 728.107 1715.06 728.396 1716.45 728.396 1717.87 728.396 1719.17 727.943 1720.36 727.037 1721.55 726.131 1722.57 724.945 1723.43 723.479 1724.28 722.012 1724.95 720.365 1725.43 718.536 1725.92 716.707 1726.16 714.861 1726.16 712.998 1726.16 711.152 1725.9 709.771 1725.37 708.857 1724.84 707.943 1724 707.485 1722.85 707.485ZM1716.79 695.115 1718.65 695.115 1715.03 709.892 1715.39 710.073C1716.27 709.038 1717.11 708.137 1717.92 707.369 1718.72 706.601 1719.5 705.971 1720.27 705.48 1721.04 704.988 1721.8 704.621 1722.56 704.38 1723.32 704.138 1724.11 704.018 1724.92 704.018 1726.95 704.018 1728.52 704.76 1729.63 706.243 1730.73 707.727 1731.28 709.892 1731.28 712.739 1731.28 715.223 1730.9 717.565 1730.13 719.765 1729.36 721.965 1728.32 723.893 1727.01 725.549 1725.7 727.205 1724.18 728.512 1722.44 729.47 1720.71 730.427 1718.88 730.906 1716.95 730.906 1715.7 730.906 1714.56 730.781 1713.5 730.531 1712.45 730.28 1711.42 729.862 1710.42 729.275 1709.99 729.517 1709.55 729.784 1709.1 730.078 1708.66 730.371 1708.23 730.647 1707.84 730.906 1707.53 730.82 1707.2 730.738 1706.85 730.66 1706.51 730.582 1706.18 730.492 1705.87 730.388L1712.08 702.646C1712.27 701.783 1712.41 701.076 1712.51 700.524 1712.6 699.972 1712.65 699.489 1712.65 699.075 1712.65 698.747 1712.6 698.462 1712.49 698.221 1712.39 697.979 1712.21 697.785 1711.95 697.638 1711.69 697.492 1711.35 697.384 1710.92 697.315 1710.48 697.246 1709.94 697.203 1709.29 697.186L1709.67 695.426Z" fill="#0000CC" fill-rule="evenodd"/><text fill="#000000" fill-opacity="0" font-family="Arial,Arial_MSFontService,sans-serif" font-size="35.7905" x="1705.87" y="726.432">𝑏</text><path d="M1780.47 671.704 1785.54 671.704 1785.54 692.235 1804.96 692.235 1804.96 696.976 1785.54 696.976 1785.54 717.507 1780.47 717.507 1780.47 696.976 1761.05 696.976 1761.05 692.235 1780.47 692.235Z" fill-rule="evenodd"/><text fill="#000000" fill-opacity="0" font-family="Arial,Arial_MSFontService,sans-serif" font-size="45.8032" x="1761.05" y="711.782">+</text><path d="M1855.01 663.969 1855.97 666.714C1850.41 668.544 1846.3 672.114 1843.62 677.425 1840.95 682.736 1839.61 689.407 1839.61 697.439 1839.61 705.756 1840.95 712.612 1843.62 718.006 1846.3 723.4 1850.38 727.012 1855.87 728.842L1855.01 731.587C1848.05 729.757 1842.71 725.818 1839.01 719.771 1835.3 713.723 1833.45 706.398 1833.45 697.796 1833.45 689.217 1835.31 681.892 1839.02 675.821 1842.74 669.749 1848.07 665.799 1855.01 663.969Z" fill="#FF0000" fill-rule="evenodd"/><text fill="#000000" fill-opacity="0" font-family="Arial,Arial_MSFontService,sans-serif" font-size="67.6177" x="1833.45" y="723.135">(</text><path d="M1918.61 669.28C1916.97 669.28 1915.59 669.767 1914.49 670.742 1913.38 671.716 1912.49 673.118 1911.81 674.948 1911.14 676.777 1910.66 679.005 1910.37 681.631 1910.09 684.257 1909.94 687.221 1909.94 690.524 1909.94 698.271 1910.66 703.956 1912.1 707.58 1913.54 711.204 1915.77 713.016 1918.78 713.016 1921.66 713.016 1923.79 711.311 1925.18 707.901 1926.57 704.491 1927.27 699.21 1927.27 692.057 1927.27 686.591 1926.91 682.166 1926.2 678.779 1925.48 675.393 1924.49 672.963 1923.22 671.49 1921.95 670.017 1920.41 669.28 1918.61 669.28ZM1918.78 666.25C1923.99 666.25 1927.86 668.258 1930.4 672.274 1932.95 676.29 1934.22 682.362 1934.22 690.489 1934.22 698.901 1932.86 705.263 1930.14 709.576 1927.42 713.889 1923.44 716.046 1918.21 716.046 1913.08 716.046 1909.26 714.026 1906.75 709.986 1904.25 705.946 1902.99 699.816 1902.99 691.594 1902.99 687.221 1903.38 683.443 1904.15 680.259 1904.92 677.074 1906 674.443 1907.39 672.363 1908.79 670.284 1910.45 668.745 1912.4 667.747 1914.35 666.749 1916.48 666.25 1918.78 666.25ZM1880.42 666.25 1882.38 666.25C1882.24 668.532 1882.17 671.692 1882.17 675.732L1882.17 706.172C1882.17 707.55 1882.24 708.59 1882.4 709.291 1882.55 709.992 1882.83 710.562 1883.22 711.002 1883.61 711.442 1884.18 711.786 1884.91 712.036 1885.65 712.285 1886.58 712.475 1887.69 712.606 1888.81 712.737 1890.28 712.826 1892.11 712.873L1892.11 715.475 1865.77 715.475 1865.77 712.873C1868.41 712.755 1870.29 712.594 1871.42 712.392 1872.55 712.19 1873.41 711.887 1874.01 711.483 1874.6 711.079 1875.03 710.509 1875.31 709.772 1875.58 709.036 1875.72 707.836 1875.72 706.172L1875.72 677.265C1875.72 676.314 1875.55 675.619 1875.22 675.179 1874.88 674.74 1874.4 674.52 1873.76 674.52 1873 674.52 1871.91 674.912 1870.51 675.696 1869.11 676.48 1867.38 677.562 1865.31 678.94L1863.74 676.195Z" fill="#FF0000" fill-rule="evenodd"/><text fill="#000000" fill-opacity="0" font-family="Arial,Arial_MSFontService,sans-serif" font-size="49.7954" x="1863.74" y="709.821">10</text><path d="M1943.12 671.485 1972.93 671.485 1972.93 675.445 1943.12 675.445Z" fill="#FF0000" fill-rule="evenodd"/><text fill="#000000" fill-opacity="0" font-family="Arial,Arial_MSFontService,sans-serif" font-size="3.95947" x="1943.12" y="674.95">−</text><path d="M1996.13 664.757C1995.18 664.757 1994.25 664.99 1993.33 665.456 1992.4 665.921 1991.53 666.581 1990.71 667.435 1989.89 668.289 1989.15 669.324 1988.47 670.541 1987.8 671.757 1987.24 673.116 1986.79 674.617 1988.98 674.599 1990.87 674.427 1992.45 674.099 1994.02 673.771 1995.32 673.323 1996.33 672.753 1997.34 672.184 1998.08 671.511 1998.55 670.735 1999.03 669.958 1999.26 669.104 1999.26 668.173 1999.26 667.103 1999 666.266 1998.46 665.663 1997.93 665.059 1997.15 664.757 1996.13 664.757ZM1997.25 662.195C1999.45 662.195 2001.13 662.678 2002.28 663.644 2003.43 664.61 2004 665.982 2004 667.759 2004 674.004 1998.09 677.127 1986.27 677.127 1986.19 677.575 1986.12 678.063 1986.07 678.589 1986.01 679.115 1985.99 679.689 1985.99 680.31 1985.99 682.191 1986.37 683.562 1987.14 684.425 1987.91 685.287 1989.1 685.719 1990.72 685.719 1991.57 685.719 1992.37 685.628 1993.13 685.447 1993.89 685.266 1994.64 684.985 1995.37 684.606 1996.1 684.226 1996.84 683.739 1997.58 683.144 1998.32 682.549 1999.1 681.837 1999.91 681.009L2001.85 683.105C1999.85 685.089 1997.85 686.581 1995.86 687.582 1993.87 688.583 1991.72 689.083 1989.43 689.083 1988.08 689.083 1986.89 688.88 1985.85 688.475 1984.8 688.069 1983.92 687.478 1983.21 686.702 1982.49 685.926 1981.95 684.981 1981.58 683.868 1981.21 682.756 1981.02 681.5 1981.02 680.103 1981.02 679.12 1981.11 678.097 1981.28 677.036 1981.45 675.975 1981.72 674.914 1982.08 673.853 1982.44 672.792 1982.89 671.757 1983.43 670.748 1983.96 669.738 1984.59 668.794 1985.32 667.914 1986.76 666.12 1988.51 664.718 1990.56 663.709 1992.6 662.699 1994.83 662.195 1997.25 662.195Z" fill="#FF0000" fill-rule="evenodd"/><text fill="#000000" fill-opacity="0" font-family="Arial,Arial_MSFontService,sans-serif" font-size="26.8882" x="1981.02" y="685.722">𝑒</text><path d="M2024.69 680.291C2023.93 680.291 2023.2 680.467 2022.48 680.818 2021.76 681.168 2020.94 681.849 2020 682.859 2019.06 683.868 2018.34 684.867 2017.83 685.856 2017.32 686.844 2016.87 688.233 2016.49 690.024L2016.06 692.065C2015.84 693.067 2015.73 693.934 2015.73 694.664 2015.73 695.824 2016.02 696.655 2016.58 697.156 2017.15 697.658 2018 697.908 2019.15 697.908 2020.8 697.908 2022.25 697.282 2023.51 696.029 2024.77 694.775 2025.75 693.096 2026.43 690.99 2027.12 688.885 2027.46 686.858 2027.46 684.91 2027.46 683.349 2027.24 682.189 2026.78 681.43 2026.32 680.671 2025.62 680.291 2024.69 680.291ZM2019.43 668.797 2021.28 668.797 2018.14 681.838 2018.44 681.945C2019.95 680.298 2021.32 679.092 2022.56 678.325 2023.79 677.559 2025.13 677.176 2026.56 677.176 2028.32 677.176 2029.68 677.813 2030.63 679.088 2031.59 680.363 2032.06 682.232 2032.06 684.695 2032.06 687.202 2031.5 689.701 2030.39 692.194 2029.27 694.686 2027.77 696.648 2025.88 698.08 2023.98 699.513 2021.87 700.229 2019.54 700.229 2018.51 700.229 2017.54 700.125 2016.65 699.917 2015.75 699.709 2014.84 699.348 2013.91 698.832 2013.55 699.033 2013.19 699.269 2012.81 699.541L2011.72 700.229 2009.85 699.713 2015.41 675.07C2015.58 674.369 2015.7 673.817 2015.76 673.416 2015.81 673.015 2015.84 672.65 2015.84 672.32 2015.84 671.762 2015.64 671.372 2015.23 671.15 2014.82 670.928 2014.03 670.795 2012.86 670.752L2013.2 669.098Z" fill="#FF0000" fill-rule="evenodd"/><text fill="#000000" fill-opacity="0" font-family="Arial,Arial_MSFontService,sans-serif" font-size="31.4316" x="2009.85" y="696.3">𝑏</text><path d="M2061.87 692.235 2105.79 692.235 2105.79 696.976 2061.87 696.976Z" fill="#FF0000" fill-rule="evenodd"/><text fill="#000000" fill-opacity="0" font-family="Arial,Arial_MSFontService,sans-serif" font-size="4.74072" x="2061.87" y="696.383">−</text><path d="M2161.43 664.29C2163.76 664.29 2165.77 664.48 2167.46 664.86L2166.07 670.92 2162.93 670.92C2162.6 669.565 2162.17 668.591 2161.63 667.997 2161.1 667.403 2160.31 667.106 2159.26 667.106 2157.91 667.106 2156.76 667.48 2155.82 668.229 2154.88 668.977 2154.08 670.088 2153.41 671.561 2152.75 673.035 2152.13 675.019 2151.56 677.514L2150.67 681.399 2159.83 681.399 2159.05 684.999 2149.85 684.999 2143.22 716.081C2142.13 721.238 2140.45 725.082 2138.19 727.612 2135.94 730.143 2133.1 731.409 2129.68 731.409 2128.68 731.409 2127.89 731.349 2127.32 731.23L2127.93 728.094C2128.17 728.165 2128.72 728.201 2129.6 728.201 2130.67 728.201 2131.59 727.927 2132.35 727.381 2133.11 726.834 2133.82 725.884 2134.47 724.529 2135.12 723.175 2135.72 721.297 2136.27 718.897L2143.93 684.999 2137.91 684.999 2138.44 682.54C2140.04 682.445 2141.18 682.314 2141.88 682.148 2142.58 681.982 2143.13 681.732 2143.52 681.399 2143.92 681.067 2144.25 680.633 2144.52 680.098 2144.79 679.564 2145.14 678.583 2145.57 677.158 2146.83 672.88 2148.77 669.666 2151.4 667.516 2154.03 665.365 2157.37 664.29 2161.43 664.29Z" fill="#FF0000" fill-rule="evenodd"/><text fill="#000000" fill-opacity="0" font-family="Arial,Arial_MSFontService,sans-serif" font-size="67.1187" x="2127.32" y="723.019">𝑓</text><path d="M2176.48 707.485C2175.71 707.485 2174.85 707.74 2173.92 708.249 2172.99 708.758 2172.07 709.513 2171.16 710.513 2170.26 711.514 2169.42 712.752 2168.65 714.227 2167.89 715.702 2167.28 717.397 2166.83 719.312 2166.69 720.244 2166.54 721.158 2166.36 722.055 2166.19 722.952 2166.1 723.789 2166.1 724.565 2166.1 725.963 2166.42 726.951 2167.05 727.529 2167.68 728.107 2168.69 728.396 2170.09 728.396 2171.5 728.396 2172.81 727.943 2174 727.037 2175.19 726.131 2176.21 724.945 2177.06 723.479 2177.92 722.012 2178.59 720.365 2179.07 718.536 2179.55 716.707 2179.79 714.861 2179.79 712.998 2179.79 711.152 2179.53 709.771 2179 708.857 2178.48 707.943 2177.64 707.485 2176.48 707.485ZM2170.43 695.115 2172.29 695.115 2168.67 709.892 2169.03 710.073C2169.91 709.038 2170.75 708.137 2171.55 707.369 2172.35 706.601 2173.14 705.971 2173.91 705.48 2174.67 704.988 2175.44 704.621 2176.2 704.38 2176.96 704.138 2177.74 704.018 2178.55 704.018 2180.59 704.018 2182.16 704.76 2183.26 706.243 2184.37 707.727 2184.92 709.892 2184.92 712.739 2184.92 715.223 2184.53 717.565 2183.77 719.765 2183 721.965 2181.96 723.893 2180.65 725.549 2179.34 727.205 2177.81 728.512 2176.08 729.47 2174.35 730.427 2172.51 730.906 2170.58 730.906 2169.34 730.906 2168.19 730.781 2167.14 730.531 2166.09 730.28 2165.06 729.862 2164.06 729.275 2163.63 729.517 2163.19 729.784 2162.74 730.078 2162.29 730.371 2161.87 730.647 2161.47 730.906 2161.16 730.82 2160.83 730.738 2160.49 730.66 2160.14 730.582 2159.82 730.492 2159.5 730.388L2165.72 702.646C2165.91 701.783 2166.05 701.076 2166.14 700.524 2166.24 699.972 2166.29 699.489 2166.29 699.075 2166.29 698.747 2166.23 698.462 2166.13 698.221 2166.03 697.979 2165.85 697.785 2165.59 697.638 2165.33 697.492 2164.98 697.384 2164.55 697.315 2164.12 697.246 2163.58 697.203 2162.92 697.186L2163.31 695.426Z" fill="#FF0000" fill-rule="evenodd"/><text fill="#000000" fill-opacity="0" font-family="Arial,Arial_MSFontService,sans-serif" font-size="35.7905" x="2159.5" y="726.432">𝑏</text><path d="M2195.39 663.969C2202.33 665.799 2207.66 669.749 2211.38 675.821 2215.1 681.892 2216.96 689.217 2216.96 697.796 2216.96 706.398 2215.11 713.723 2211.4 719.771 2207.69 725.818 2202.36 729.757 2195.39 731.587L2194.54 728.842C2200.03 727.012 2204.11 723.4 2206.78 718.006 2209.46 712.612 2210.79 705.756 2210.79 697.439 2210.79 689.407 2209.46 682.736 2206.8 677.425 2204.14 672.114 2200.02 668.544 2194.43 666.714Z" fill="#FF0000" fill-rule="evenodd"/><text fill="#000000" fill-opacity="0" font-family="Arial,Arial_MSFontService,sans-serif" font-size="67.6177" x="2194.43" y="723.135">)</text><path d="M2250.04 689.491C2250.96 689.491 2251.8 689.71 2252.55 690.15 2253.3 690.59 2253.88 691.202 2254.28 691.986 2254.68 692.77 2254.89 693.649 2254.89 694.623 2254.89 695.621 2254.68 696.513 2254.26 697.297 2253.85 698.081 2253.26 698.687 2252.51 699.115 2251.77 699.542 2250.94 699.756 2250.04 699.756 2249.13 699.756 2248.31 699.542 2247.56 699.115 2246.81 698.687 2246.23 698.081 2245.81 697.297 2245.4 696.513 2245.19 695.621 2245.19 694.623 2245.19 693.649 2245.39 692.77 2245.8 691.986 2246.2 691.202 2246.78 690.59 2247.52 690.15 2248.27 689.71 2249.11 689.491 2250.04 689.491Z" fill-rule="evenodd"/><text fill="#000000" fill-opacity="0" font-family="Arial,Arial_MSFontService,sans-serif" font-size="10.2656" x="2245.19" y="698.473">∙</text><path d="M2337.87 669.28C2336.23 669.28 2334.85 669.767 2333.75 670.742 2332.64 671.716 2331.75 673.118 2331.08 674.948 2330.4 676.777 2329.92 679.005 2329.63 681.631 2329.35 684.257 2329.2 687.221 2329.2 690.524 2329.2 698.271 2329.92 703.956 2331.36 707.58 2332.8 711.204 2335.03 713.016 2338.04 713.016 2340.92 713.016 2343.05 711.311 2344.44 707.901 2345.83 704.491 2346.53 699.21 2346.53 692.057 2346.53 686.591 2346.17 682.166 2345.46 678.779 2344.74 675.393 2343.75 672.963 2342.48 671.49 2341.21 670.017 2339.67 669.28 2337.87 669.28ZM2338.04 666.25C2343.25 666.25 2347.12 668.258 2349.66 672.274 2352.21 676.29 2353.48 682.362 2353.48 690.489 2353.48 698.901 2352.12 705.263 2349.4 709.576 2346.68 713.889 2342.7 716.046 2337.47 716.046 2332.34 716.046 2328.52 714.026 2326.01 709.986 2323.51 705.946 2322.25 699.816 2322.25 691.594 2322.25 687.221 2322.64 683.443 2323.41 680.259 2324.18 677.074 2325.27 674.443 2326.66 672.363 2328.05 670.284 2329.71 668.745 2331.66 667.747 2333.61 666.749 2335.74 666.25 2338.04 666.25ZM2299.68 666.25 2301.64 666.25C2301.5 668.532 2301.43 671.692 2301.43 675.732L2301.43 706.172C2301.43 707.55 2301.51 708.59 2301.66 709.291 2301.81 709.992 2302.09 710.562 2302.48 711.002 2302.87 711.442 2303.44 711.786 2304.17 712.036 2304.91 712.285 2305.84 712.475 2306.95 712.606 2308.07 712.737 2309.54 712.826 2311.37 712.873L2311.37 715.475 2285.03 715.475 2285.03 712.873C2287.67 712.755 2289.55 712.594 2290.68 712.392 2291.81 712.19 2292.67 711.887 2293.27 711.483 2293.86 711.079 2294.29 710.509 2294.57 709.772 2294.84 709.036 2294.98 707.836 2294.98 706.172L2294.98 677.265C2294.98 676.314 2294.81 675.619 2294.48 675.179 2294.14 674.74 2293.66 674.52 2293.02 674.52 2292.26 674.52 2291.17 674.912 2289.77 675.696 2288.37 676.48 2286.64 677.562 2284.57 678.94L2283 676.195Z" fill="#ED7D31" fill-rule="evenodd"/><text fill="#000000" fill-opacity="0" font-family="Arial,Arial_MSFontService,sans-serif" font-size="49.7954" x="2283" y="709.821">10</text><path d="M2376.44 664.757C2375.49 664.757 2374.55 664.99 2373.63 665.456 2372.7 665.921 2371.83 666.581 2371.01 667.435 2370.19 668.289 2369.45 669.324 2368.77 670.541 2368.1 671.757 2367.54 673.116 2367.09 674.617 2369.28 674.599 2371.17 674.427 2372.75 674.099 2374.33 673.771 2375.62 673.323 2376.63 672.753 2377.64 672.184 2378.38 671.511 2378.85 670.735 2379.33 669.958 2379.57 669.104 2379.57 668.173 2379.57 667.103 2379.3 666.266 2378.76 665.663 2378.23 665.059 2377.45 664.757 2376.44 664.757ZM2377.55 662.195C2379.76 662.195 2381.43 662.678 2382.58 663.644 2383.73 664.61 2384.3 665.982 2384.3 667.759 2384.3 674.004 2378.39 677.127 2366.58 677.127 2366.49 677.575 2366.42 678.063 2366.37 678.589 2366.32 679.115 2366.29 679.689 2366.29 680.31 2366.29 682.191 2366.67 683.562 2367.44 684.425 2368.21 685.287 2369.4 685.719 2371.03 685.719 2371.87 685.719 2372.67 685.628 2373.43 685.447 2374.19 685.266 2374.94 684.985 2375.67 684.606 2376.4 684.226 2377.14 683.739 2377.88 683.144 2378.63 682.549 2379.4 681.837 2380.21 681.009L2382.15 683.105C2380.15 685.089 2378.16 686.581 2376.16 687.582 2374.17 688.583 2372.03 689.083 2369.73 689.083 2368.39 689.083 2367.19 688.88 2366.15 688.475 2365.1 688.069 2364.22 687.478 2363.51 686.702 2362.79 685.926 2362.25 684.981 2361.88 683.868 2361.51 682.756 2361.32 681.5 2361.32 680.103 2361.32 679.12 2361.41 678.097 2361.58 677.036 2361.75 675.975 2362.02 674.914 2362.38 673.853 2362.75 672.792 2363.19 671.757 2363.73 670.748 2364.26 669.738 2364.89 668.794 2365.62 667.914 2367.07 666.12 2368.81 664.718 2370.86 663.709 2372.9 662.699 2375.13 662.195 2377.55 662.195Z" fill="#ED7D31" fill-rule="evenodd"/><text fill="#000000" fill-opacity="0" font-family="Arial,Arial_MSFontService,sans-serif" font-size="26.8882" x="2361.32" y="685.722">𝑒</text><path d="M2405 680.291C2404.24 680.291 2403.5 680.467 2402.78 680.818 2402.07 681.168 2401.24 681.849 2400.3 682.859 2399.36 683.868 2398.64 684.867 2398.13 685.856 2397.62 686.844 2397.18 688.233 2396.79 690.024L2396.36 692.065C2396.14 693.067 2396.04 693.934 2396.04 694.664 2396.04 695.824 2396.32 696.655 2396.89 697.156 2397.45 697.658 2398.31 697.908 2399.45 697.908 2401.1 697.908 2402.55 697.282 2403.81 696.029 2405.07 694.775 2406.05 693.096 2406.74 690.99 2407.42 688.885 2407.77 686.858 2407.77 684.91 2407.77 683.349 2407.54 682.189 2407.08 681.43 2406.62 680.671 2405.93 680.291 2405 680.291ZM2399.73 668.797 2401.58 668.797 2398.44 681.838 2398.74 681.945C2400.25 680.298 2401.62 679.092 2402.86 678.325 2404.1 677.559 2405.43 677.176 2406.86 677.176 2408.63 677.176 2409.98 677.813 2410.94 679.088 2411.89 680.363 2412.36 682.232 2412.36 684.695 2412.36 687.202 2411.81 689.701 2410.69 692.194 2409.57 694.686 2408.07 696.648 2406.18 698.08 2404.29 699.513 2402.17 700.229 2399.84 700.229 2398.81 700.229 2397.84 700.125 2396.95 699.917 2396.05 699.709 2395.14 699.348 2394.21 698.832 2393.85 699.033 2393.49 699.269 2393.11 699.541L2392.02 700.229 2390.15 699.713 2395.71 675.07C2395.89 674.369 2396 673.817 2396.06 673.416 2396.12 673.015 2396.14 672.65 2396.14 672.32 2396.14 671.762 2395.94 671.372 2395.53 671.15 2395.12 670.928 2394.33 670.795 2393.16 670.752L2393.5 669.098Z" fill="#ED7D31" fill-rule="evenodd"/><text fill="#000000" fill-opacity="0" font-family="Arial,Arial_MSFontService,sans-serif" font-size="31.4316" x="2390.15" y="696.3">𝑏</text></g></svg>