<svg width="826" height="421" xmlns="http://www.w3.org/2000/svg" xmlns:xlink="http://www.w3.org/1999/xlink" xml:space="preserve" overflow="hidden"><defs><clipPath id="clip0"><rect x="1169" y="965" width="826" height="421"/></clipPath></defs><g clip-path="url(#clip0)" transform="translate(-1169 -965)"><text fill="#FF0000" font-family="Calibri,Calibri_MSFontService,sans-serif" font-weight="400" font-size="55" transform="matrix(1 0 0 1 1763.78 1183)">attribute<tspan fill="#000000" font-size="110" x="-336.904" y="-81">125.479</tspan><tspan fill="#000000" font-size="110" x="-281.33" y="107">63.87</tspan></text><path d="M0 0 172.532 82.7869" stroke="#7030A0" stroke-width="4.58333" stroke-miterlimit="8" fill="none" fill-rule="evenodd" transform="matrix(-1 0 0 1 1714.03 1120.5)"/><path d="M1513.5 1120.5 1695.83 1202.71" stroke="#7030A0" stroke-width="4.58333" stroke-miterlimit="8" fill="none" fill-rule="evenodd"/><path d="M0 0 36.0033 99.7589" stroke="#FF0000" stroke-width="4.58333" stroke-miterlimit="8" fill="none" fill-rule="evenodd" transform="matrix(-1 0 0 1 1767.5 1110.5)"/><path d="M1458.5 1110.5 1494.5 1210.26" stroke="#0000CC" stroke-width="4.58333" stroke-miterlimit="8" fill="none" fill-rule="evenodd"/><text fill="#0000CC" font-family="Calibri,Calibri_MSFontService,sans-serif" font-weight="400" font-size="55" transform="matrix(1 0 0 1 1202.77 1183)">scoreboard<tspan fill="#000000" font-size="32" x="0" y="165">125.479</tspan><tspan fill="#000000" font-family="PMingLiU,PMingLiU_MSFontService,sans-serif" font-size="32" x="104.271" y="165">×</tspan><tspan fill="#000000" font-size="32" x="120.313" y="165">63.87=</tspan><tspan font-size="32" x="208.542" y="165">125</tspan><tspan font-family="PMingLiU,PMingLiU_MSFontService,sans-serif" font-size="32" x="256.667" y="165">×</tspan><tspan font-size="32" x="272.708" y="165">63</tspan><tspan fill="#000000" font-size="32" x="304.792" y="165">+</tspan><tspan fill="#FF0000" font-size="32" x="320.833" y="165">0.479</tspan><tspan fill="#FF0000" font-family="PMingLiU,PMingLiU_MSFontService,sans-serif" font-size="32" x="393.021" y="165">×</tspan><tspan fill="#FF0000" font-size="32" x="409.063" y="165">0.87</tspan><tspan fill="#000000" font-size="32" x="465.208" y="165">+</tspan><tspan fill="#7030A0" font-size="32" x="481.25" y="165">125</tspan><tspan fill="#7030A0" font-family="PMingLiU,PMingLiU_MSFontService,sans-serif" font-size="32" x="529.375" y="165">×</tspan><tspan fill="#7030A0" font-size="32" x="545.417" y="165">0.87</tspan><tspan fill="#000000" font-size="32" x="601.563" y="165">+</tspan><tspan fill="#7030A0" font-size="32" x="617.604" y="165">63</tspan><tspan fill="#7030A0" font-family="PMingLiU,PMingLiU_MSFontService,sans-serif" font-size="32" x="649.688" y="165">×</tspan><tspan fill="#7030A0" font-size="32" x="665.729" y="165">0.479</tspan></text></g></svg>