<svg width="2849" height="1188" xmlns="http://www.w3.org/2000/svg" xmlns:xlink="http://www.w3.org/1999/xlink" overflow="hidden"><defs><clipPath id="clip0"><rect x="1110" y="1064" width="2849" height="1188"/></clipPath></defs><g clip-path="url(#clip0)" transform="translate(-1110 -1064)"><path d="M1701.94 1226.42 1701.94 1661.59 1695.06 1661.59 1695.06 1226.42ZM1675.58 1231 1698.5 1203.5 1721.42 1231Z"/><path d="M1614.75 1120.99C1616.48 1120.99 1617.85 1121.57 1618.85 1122.73 1619.85 1123.89 1620.35 1125.46 1620.35 1127.43 1620.35 1129.57 1619.93 1132.23 1619.09 1135.42L1617.31 1142.43C1616.85 1144.21 1616.52 1145.6 1616.31 1146.6 1616.11 1147.6 1615.96 1148.47 1615.87 1149.2 1615.77 1149.93 1615.73 1150.53 1615.73 1151.02 1615.73 1152.88 1616.04 1154.23 1616.66 1155.05 1617.28 1155.88 1618.29 1156.29 1619.7 1156.29 1620.83 1156.29 1622.06 1155.84 1623.37 1154.93 1624.68 1154.03 1626.07 1152.66 1627.54 1150.84 1629.01 1149.01 1630.19 1147.24 1631.09 1145.53 1631.98 1143.81 1632.71 1141.7 1633.27 1139.19L1637.12 1121.64 1644.14 1121.64 1638.22 1147.33C1637.62 1149.93 1637.33 1151.93 1637.33 1153.33 1637.33 1154.41 1637.5 1155.19 1637.85 1155.68 1638.21 1156.17 1638.76 1156.41 1639.52 1156.41 1640.33 1156.41 1641.19 1156.08 1642.11 1155.42 1643.03 1154.76 1644.32 1153.49 1646 1151.63L1648.31 1153.9C1645.85 1156.52 1643.76 1158.37 1642.03 1159.45 1640.3 1160.53 1638.46 1161.07 1636.52 1161.07 1634.84 1161.07 1633.5 1160.52 1632.5 1159.41 1631.5 1158.3 1631 1156.83 1631 1154.99 1631 1153.53 1631.33 1151.94 1631.98 1150.21L1631.49 1150.05C1628.82 1153.8 1626.28 1156.57 1623.89 1158.36 1621.5 1160.14 1619.05 1161.03 1616.54 1161.03 1614.02 1161.03 1612.09 1160.31 1610.74 1158.86 1609.39 1157.42 1608.71 1155.41 1608.71 1152.84 1608.71 1151.14 1609.11 1148.72 1609.89 1145.59L1612.52 1134.97C1613.25 1132.03 1613.62 1129.95 1613.62 1128.73 1613.62 1127.65 1613.44 1126.87 1613.09 1126.38 1612.74 1125.89 1612.19 1125.65 1611.43 1125.65 1610.59 1125.65 1609.71 1125.99 1608.78 1126.68 1607.84 1127.37 1606.57 1128.62 1604.95 1130.43L1602.64 1128.16C1604.93 1125.84 1606.66 1124.25 1607.82 1123.38 1608.98 1122.52 1610.1 1121.9 1611.17 1121.54 1612.23 1121.17 1613.43 1120.99 1614.75 1120.99Z" fill-rule="evenodd"/><text fill="#000000" fill-opacity="0" font-family="Arial,Arial_MSFontService,sans-serif" font-size="40.0815" x="1602.64" y="1156.06">𝑢</text><path d="M1639.21 1095.09 1649.39 1103.89 1649.39 1106.97 1630.01 1106.97 1618.83 1106.97 1605.7 1106.97 1605.7 1103.16 1618.83 1103.16 1630.01 1103.16 1643.55 1103.16 1637.06 1097.52Z" fill-rule="evenodd"/><path d="M1681.06 1114.51 1699.42 1132.82 1717.78 1114.51 1721.59 1118.27 1703.43 1136.75 1721.63 1155.15 1717.58 1159.21 1699.42 1140.69 1680.7 1159.04 1676.93 1155.24 1695.45 1136.75 1677.01 1118.56Z" fill-rule="evenodd"/><text fill="#000000" fill-opacity="0" font-family="Arial,Arial_MSFontService,sans-serif" font-size="44.7017" x="1676.93" y="1153.62">×</text><path d="M1785.36 1120.83C1787.3 1120.83 1788.71 1121.33 1789.57 1122.35 1790.44 1123.36 1790.87 1124.72 1790.87 1126.42 1790.87 1127.72 1790.64 1129.2 1790.18 1130.88 1789.72 1132.55 1789.07 1134.32 1788.23 1136.19 1787.4 1138.05 1786.4 1139.96 1785.24 1141.92 1784.07 1143.88 1782.79 1145.79 1781.39 1147.64 1779.98 1149.49 1778.48 1151.23 1776.89 1152.86 1775.29 1154.5 1773.64 1155.92 1771.92 1157.14 1770.21 1158.36 1768.46 1159.32 1766.69 1160.04 1764.92 1160.75 1763.16 1161.11 1761.41 1161.11 1760.62 1161.11 1759.97 1160.92 1759.44 1160.52 1758.91 1160.13 1758.49 1159.58 1758.16 1158.86 1757.84 1158.15 1757.61 1157.3 1757.47 1156.33 1757.34 1155.36 1757.27 1154.29 1757.27 1153.13 1757.27 1151.59 1757.37 1149.94 1757.56 1148.18 1757.74 1146.43 1757.99 1144.66 1758.28 1142.87L1759.99 1131.65C1760.09 1131 1760.18 1130.39 1760.25 1129.8 1760.32 1129.22 1760.35 1128.8 1760.35 1128.53 1760.35 1127.69 1760.22 1127 1759.95 1126.46 1759.68 1125.92 1759.22 1125.65 1758.57 1125.65 1758.06 1125.65 1757.5 1125.81 1756.91 1126.12 1756.31 1126.43 1755.71 1126.83 1755.1 1127.31 1754.5 1127.8 1753.91 1128.32 1753.34 1128.87 1752.77 1129.43 1752.25 1129.95 1751.76 1130.43L1749.81 1128.16C1750.65 1127.3 1751.54 1126.44 1752.49 1125.59 1753.44 1124.74 1754.43 1123.97 1755.49 1123.28 1756.54 1122.59 1757.65 1122.04 1758.81 1121.62 1759.97 1121.2 1761.16 1120.99 1762.38 1120.99 1763.4 1120.99 1764.24 1121.16 1764.89 1121.5 1765.54 1121.83 1766.05 1122.28 1766.41 1122.83 1766.78 1123.39 1767.03 1124 1767.16 1124.66 1767.3 1125.32 1767.36 1125.97 1767.36 1126.62 1767.36 1127 1767.35 1127.37 1767.32 1127.72 1767.3 1128.07 1767.25 1128.39 1767.2 1128.69L1764.93 1143.36C1764.69 1144.9 1764.49 1146.41 1764.32 1147.88 1764.16 1149.35 1764.08 1150.66 1764.08 1151.79 1764.08 1152.93 1764.15 1153.84 1764.28 1154.55 1764.42 1155.25 1764.67 1155.6 1765.05 1155.6 1765.94 1155.6 1767.07 1155.24 1768.42 1154.53 1769.77 1153.81 1771.19 1152.82 1772.67 1151.57 1774.16 1150.31 1775.64 1148.83 1777.13 1147.11 1778.62 1145.39 1779.95 1143.54 1781.14 1141.54 1782.33 1139.54 1783.3 1137.43 1784.04 1135.21 1784.78 1133 1785.15 1130.77 1785.15 1128.53 1785.15 1127.56 1784.95 1126.81 1784.53 1126.28 1784.11 1125.75 1783.45 1125.49 1782.56 1125.49 1781.43 1125.49 1780.38 1125.93 1779.42 1126.81 1778.46 1127.68 1777.47 1128.84 1776.44 1130.27L1774.13 1128.2C1774.78 1127.23 1775.54 1126.3 1776.42 1125.41 1777.3 1124.52 1778.23 1123.73 1779.22 1123.06 1780.2 1122.38 1781.22 1121.84 1782.28 1121.44 1783.33 1121.03 1784.36 1120.83 1785.36 1120.83Z" fill-rule="evenodd"/><text fill="#000000" fill-opacity="0" font-family="Arial,Arial_MSFontService,sans-serif" font-size="40.2842" x="1749.81" y="1156.08">𝑣</text><path d="M1781.36 1095.07 1791.54 1103.86 1791.54 1106.94 1760.98 1106.94 1760.98 1103.13 1785.7 1103.13 1779.22 1097.5Z" fill-rule="evenodd"/><text fill="#000000" fill-opacity="0" font-family="Arial,Arial_MSFontService,sans-serif" font-size="11.8745" x="1760.98" y="1105.46">റ</text><path d="M17.0935 15.6466 248.173 301.007 242.83 305.333 11.7507 19.9731ZM-0.503319 35.7934 0 0 35.1159 6.94962Z" transform="matrix(-1 0 0 1 1943 1358.5)"/><path d="M22.9166-3.43748 361.524-3.43714 361.524 3.43786 22.9166 3.43752ZM27.5 22.9167 0 0 27.5-22.9166Z" transform="matrix(-1 0 0 1 2057.02 1661.5)"/><path d="M1990.09 1305.34C1992.04 1305.34 1993.44 1305.84 1994.31 1306.86 1995.17 1307.87 1995.6 1309.23 1995.6 1310.93 1995.6 1312.23 1995.37 1313.71 1994.91 1315.39 1994.45 1317.06 1993.81 1318.83 1992.97 1320.7 1992.13 1322.56 1991.13 1324.47 1989.97 1326.43 1988.81 1328.39 1987.52 1330.29 1986.12 1332.14 1984.71 1334 1983.21 1335.74 1981.62 1337.37 1980.03 1339.01 1978.37 1340.43 1976.66 1341.65 1974.94 1342.86 1973.2 1343.83 1971.43 1344.55 1969.66 1345.26 1967.9 1345.62 1966.14 1345.62 1965.36 1345.62 1964.7 1345.42 1964.17 1345.03 1963.65 1344.64 1963.22 1344.09 1962.9 1343.37 1962.57 1342.66 1962.34 1341.81 1962.21 1340.84 1962.07 1339.87 1962.01 1338.8 1962.01 1337.64 1962.01 1336.1 1962.1 1334.45 1962.29 1332.69 1962.48 1330.94 1962.72 1329.17 1963.02 1327.38L1964.72 1316.16C1964.83 1315.51 1964.92 1314.89 1964.98 1314.31 1965.05 1313.73 1965.09 1313.31 1965.09 1313.04 1965.09 1312.2 1964.95 1311.51 1964.68 1310.97 1964.41 1310.43 1963.95 1310.16 1963.3 1310.16 1962.79 1310.16 1962.23 1310.31 1961.64 1310.62 1961.05 1310.94 1960.44 1311.33 1959.84 1311.82 1959.23 1312.31 1958.64 1312.83 1958.07 1313.38 1957.51 1313.93 1956.98 1314.45 1956.49 1314.94L1954.55 1312.67C1955.39 1311.81 1956.28 1310.95 1957.22 1310.1 1958.17 1309.25 1959.17 1308.48 1960.22 1307.79 1961.28 1307.1 1962.38 1306.55 1963.55 1306.13 1964.71 1305.71 1965.9 1305.5 1967.11 1305.5 1968.14 1305.5 1968.98 1305.67 1969.62 1306 1970.27 1306.34 1970.78 1306.79 1971.14 1307.34 1971.51 1307.9 1971.76 1308.5 1971.89 1309.17 1972.03 1309.83 1972.1 1310.48 1972.1 1311.13 1972.1 1311.51 1972.08 1311.87 1972.06 1312.23 1972.03 1312.58 1971.99 1312.9 1971.93 1313.2L1969.66 1327.87C1969.42 1329.41 1969.22 1330.92 1969.06 1332.39 1968.89 1333.86 1968.81 1335.16 1968.81 1336.3 1968.81 1337.43 1968.88 1338.35 1969.02 1339.05 1969.15 1339.76 1969.41 1340.11 1969.79 1340.11 1970.68 1340.11 1971.8 1339.75 1973.15 1339.03 1974.5 1338.32 1975.92 1337.33 1977.41 1336.08 1978.89 1334.82 1980.38 1333.33 1981.86 1331.62 1983.35 1329.9 1984.69 1328.04 1985.88 1326.05 1987.06 1324.05 1988.03 1321.94 1988.77 1319.72 1989.52 1317.51 1989.89 1315.28 1989.89 1313.04 1989.89 1312.06 1989.68 1311.31 1989.26 1310.79 1988.84 1310.26 1988.19 1310 1987.29 1310 1986.16 1310 1985.11 1310.44 1984.15 1311.31 1983.19 1312.19 1982.2 1313.35 1981.17 1314.78L1978.86 1312.71C1979.51 1311.74 1980.28 1310.81 1981.15 1309.92 1982.03 1309.02 1982.96 1308.24 1983.95 1307.57 1984.94 1306.89 1985.96 1306.35 1987.01 1305.94 1988.06 1305.54 1989.09 1305.34 1990.09 1305.34Z" fill-rule="evenodd"/><text fill="#000000" fill-opacity="0" font-family="Arial,Arial_MSFontService,sans-serif" font-size="40.2842" x="1954.55" y="1340.58">𝑣</text><path d="M1986.1 1279.58 1996.27 1288.37 1996.27 1291.45 1965.71 1291.45 1965.71 1287.64 1990.44 1287.64 1983.95 1282.01Z" fill-rule="evenodd"/><text fill="#000000" fill-opacity="0" font-family="Arial,Arial_MSFontService,sans-serif" font-size="11.8745" x="1965.71" y="1289.97">റ</text><path d="M2097.35 1646.65C2099.08 1646.65 2100.44 1647.24 2101.44 1648.4 2102.44 1649.56 2102.94 1651.13 2102.94 1653.1 2102.94 1655.23 2102.53 1657.89 2101.69 1661.08L2099.9 1668.09C2099.45 1669.88 2099.11 1671.27 2098.91 1672.27 2098.71 1673.27 2098.56 1674.13 2098.47 1674.86 2098.37 1675.59 2098.32 1676.2 2098.32 1676.69 2098.32 1678.55 2098.63 1679.89 2099.26 1680.72 2099.88 1681.54 2100.89 1681.95 2102.3 1681.95 2103.43 1681.95 2104.65 1681.5 2105.96 1680.6 2107.27 1679.69 2108.67 1678.33 2110.14 1676.5 2111.61 1674.68 2112.79 1672.91 2113.68 1671.19 2114.58 1669.48 2115.3 1667.36 2115.87 1664.85L2119.72 1647.3 2126.73 1647.3 2120.82 1673C2120.22 1675.59 2119.93 1677.59 2119.93 1679 2119.93 1680.08 2120.1 1680.86 2120.45 1681.35 2120.8 1681.83 2121.36 1682.08 2122.11 1682.08 2122.92 1682.08 2123.79 1681.74 2124.71 1681.08 2125.63 1680.42 2126.92 1679.16 2128.6 1677.29L2130.91 1679.56C2128.45 1682.18 2126.36 1684.03 2124.63 1685.11 2122.9 1686.2 2121.06 1686.74 2119.11 1686.74 2117.44 1686.74 2116.1 1686.18 2115.1 1685.07 2114.1 1683.97 2113.6 1682.49 2113.6 1680.66 2113.6 1679.2 2113.93 1677.6 2114.58 1675.87L2114.09 1675.71C2111.41 1679.47 2108.88 1682.24 2106.49 1684.02 2104.1 1685.8 2101.65 1686.7 2099.13 1686.7 2096.62 1686.7 2094.69 1685.97 2093.34 1684.53 2091.99 1683.08 2091.31 1681.08 2091.31 1678.51 2091.31 1676.81 2091.7 1674.39 2092.49 1671.25L2095.12 1660.64C2095.85 1657.69 2096.22 1655.61 2096.22 1654.4 2096.22 1653.31 2096.04 1652.53 2095.69 1652.04 2095.34 1651.56 2094.78 1651.32 2094.03 1651.32 2093.19 1651.32 2092.31 1651.66 2091.37 1652.35 2090.44 1653.04 2089.16 1654.29 2087.54 1656.1L2085.23 1653.83C2087.53 1651.5 2089.26 1649.91 2090.42 1649.05 2091.58 1648.18 2092.7 1647.57 2093.76 1647.2 2094.83 1646.84 2096.03 1646.65 2097.35 1646.65Z" fill-rule="evenodd"/><text fill="#000000" fill-opacity="0" font-family="Arial,Arial_MSFontService,sans-serif" font-size="40.0815" x="2085.23" y="1681.73">𝑢</text><path d="M2121.81 1620.76 2131.98 1629.55 2131.98 1632.63 2112.61 1632.63 2101.43 1632.63 2088.29 1632.63 2088.29 1628.82 2101.43 1628.82 2112.61 1628.82 2126.15 1628.82 2119.66 1623.19Z" fill-rule="evenodd"/><path d="M1802.04 1574.58 1807.03 1575.6 1812.8 1578.06 1818.14 1581.05 1823.2 1584.49 1827.9 1588.48 1832.14 1592.87 1835.98 1597.66 1839.37 1602.84 1842.2 1608.32 1844.6 1614.12 1846.38 1620.21 1847.55 1626.5 1848.19 1633.02 1848.13 1639.67 1847.21 1647.76 1845.3 1655.62 1843.07 1655.08 1844.97 1647.29 1844.94 1647.43 1845.84 1639.47 1845.84 1639.58 1845.9 1633.06 1845.9 1633.18 1845.28 1626.77 1845.29 1626.87 1844.13 1620.69 1844.16 1620.8 1842.42 1614.82 1842.46 1614.94 1840.1 1609.23 1840.15 1609.32 1837.36 1603.95 1837.42 1604.05 1834.1 1598.96 1834.16 1599.05 1830.39 1594.34 1830.46 1594.42 1826.29 1590.12 1826.38 1590.19 1821.77 1586.28 1821.87 1586.35 1816.89 1582.98 1816.98 1583.03 1811.74 1580.09 1811.85 1580.15 1806.24 1577.75 1806.46 1577.82 1801.58 1576.83ZM1804.56 1585.58 1788.31 1573.09 1808.05 1567.58Z"/><path d="M1878.01 1596.94C1877.03 1601.46 1876.54 1605.26 1876.54 1608.35 1876.54 1610.68 1876.89 1612.39 1877.6 1613.49 1878.31 1614.58 1879.45 1615.13 1881.04 1615.13 1883.37 1615.13 1885.58 1613.56 1887.68 1610.42 1889.77 1607.29 1891.55 1602.79 1893.01 1596.94ZM1890.82 1575.88C1888.38 1575.88 1886.13 1577.42 1884.05 1580.5 1881.98 1583.59 1880.21 1588 1878.76 1593.75L1893.72 1593.75C1894.7 1589.36 1895.19 1585.58 1895.19 1582.41 1895.19 1580.22 1894.84 1578.59 1894.13 1577.5 1893.42 1576.42 1892.32 1575.88 1890.82 1575.88ZM1891.19 1573.35C1897.24 1573.35 1900.26 1577.18 1900.26 1584.85 1900.26 1587.01 1900.01 1589.6 1899.52 1592.61 1899.03 1595.62 1898.26 1598.69 1897.19 1601.82 1896.13 1604.94 1894.79 1607.71 1893.16 1610.11 1891.54 1612.52 1889.66 1614.38 1887.54 1615.69 1885.41 1617 1883.12 1617.66 1880.66 1617.66 1877.56 1617.66 1875.25 1616.71 1873.72 1614.82 1872.2 1612.92 1871.44 1610.08 1871.44 1606.28 1871.44 1604.22 1871.67 1601.68 1872.13 1598.66 1872.59 1595.64 1873.34 1592.55 1874.4 1589.39 1875.45 1586.24 1876.8 1583.43 1878.46 1580.99 1880.12 1578.54 1882.02 1576.65 1884.18 1575.33 1886.33 1574.01 1888.67 1573.35 1891.19 1573.35Z" fill-rule="evenodd"/><text fill="#000000" fill-opacity="0" font-family="Arial,Arial_MSFontService,sans-serif" font-size="44.3125" x="1871.44" y="1612.12">𝜃</text><path d="M1701.94 1650.5 1701.94 2086.21 1695.06 2086.21 1695.06 1650.5ZM1712.25 2081.62 1698.5 2109.12 1684.75 2081.62Z"/><path d="M1647.59 2173.85C1649.54 2173.85 1650.94 2174.36 1651.81 2175.37 1652.67 2176.38 1653.1 2177.74 1653.1 2179.44 1653.1 2180.74 1652.88 2182.23 1652.42 2183.9 1651.96 2185.58 1651.31 2187.35 1650.47 2189.21 1649.63 2191.08 1648.63 2192.99 1647.47 2194.95 1646.31 2196.91 1645.03 2198.81 1643.62 2200.66 1642.22 2202.51 1640.72 2204.25 1639.12 2205.89 1637.53 2207.52 1635.87 2208.95 1634.16 2210.16 1632.44 2211.38 1630.7 2212.35 1628.93 2213.06 1627.16 2213.78 1625.4 2214.14 1623.64 2214.14 1622.86 2214.14 1622.2 2213.94 1621.68 2213.55 1621.15 2213.16 1620.72 2212.6 1620.4 2211.89 1620.07 2211.17 1619.85 2210.33 1619.71 2209.35 1619.58 2208.38 1619.51 2207.31 1619.51 2206.15 1619.51 2204.61 1619.6 2202.96 1619.79 2201.21 1619.98 2199.45 1620.22 2197.68 1620.52 2195.9L1622.22 2184.67C1622.33 2184.02 1622.42 2183.41 1622.49 2182.83 1622.55 2182.25 1622.59 2181.82 1622.59 2181.55 1622.59 2180.71 1622.45 2180.03 1622.18 2179.49 1621.91 2178.94 1621.45 2178.67 1620.8 2178.67 1620.29 2178.67 1619.74 2178.83 1619.14 2179.14 1618.55 2179.45 1617.95 2179.85 1617.34 2180.34 1616.73 2180.82 1616.14 2181.34 1615.58 2181.9 1615.01 2182.45 1614.48 2182.97 1614 2183.46L1612.05 2181.19C1612.89 2180.32 1613.78 2179.46 1614.73 2178.61 1615.67 2177.76 1616.67 2176.99 1617.72 2176.3 1618.78 2175.61 1619.89 2175.06 1621.05 2174.64 1622.21 2174.22 1623.4 2174.01 1624.61 2174.01 1625.64 2174.01 1626.48 2174.18 1627.13 2174.52 1627.78 2174.86 1628.28 2175.3 1628.65 2175.86 1629.01 2176.41 1629.26 2177.02 1629.4 2177.68 1629.53 2178.34 1629.6 2179 1629.6 2179.65 1629.6 2180.03 1629.59 2180.39 1629.56 2180.74 1629.53 2181.09 1629.49 2181.42 1629.44 2181.71L1627.17 2196.39C1626.92 2197.93 1626.72 2199.43 1626.56 2200.9 1626.4 2202.38 1626.32 2203.68 1626.32 2204.81 1626.32 2205.95 1626.38 2206.87 1626.52 2207.57 1626.65 2208.27 1626.91 2208.62 1627.29 2208.62 1628.18 2208.62 1629.3 2208.27 1630.65 2207.55 1632 2206.83 1633.42 2205.85 1634.91 2204.59 1636.39 2203.34 1637.88 2201.85 1639.37 2200.13 1640.85 2198.42 1642.19 2196.56 1643.38 2194.56 1644.57 2192.56 1645.53 2190.45 1646.28 2188.24 1647.02 2186.02 1647.39 2183.79 1647.39 2181.55 1647.39 2180.58 1647.18 2179.83 1646.76 2179.3 1646.34 2178.78 1645.69 2178.51 1644.8 2178.51 1643.66 2178.51 1642.61 2178.95 1641.66 2179.83 1640.7 2180.71 1639.7 2181.86 1638.68 2183.29L1636.37 2181.23C1637.02 2180.26 1637.78 2179.32 1638.66 2178.43 1639.53 2177.54 1640.47 2176.76 1641.45 2176.08 1642.44 2175.41 1643.46 2174.86 1644.51 2174.46 1645.57 2174.05 1646.59 2173.85 1647.59 2173.85Z" fill-rule="evenodd"/><text fill="#000000" fill-opacity="0" font-family="Arial,Arial_MSFontService,sans-serif" font-size="40.2842" x="1612.05" y="2209.1">𝑣</text><path d="M1643.6 2148.09 1653.77 2156.89 1653.77 2159.97 1623.22 2159.97 1623.22 2156.16 1647.94 2156.16 1641.45 2150.53Z" fill-rule="evenodd"/><text fill="#000000" fill-opacity="0" font-family="Arial,Arial_MSFontService,sans-serif" font-size="11.8745" x="1623.22" y="2158.48">റ</text><path d="M1686.07 2167.53 1704.43 2185.85 1722.79 2167.53 1726.6 2171.3 1708.44 2189.78 1726.64 2208.18 1722.58 2212.23 1704.43 2193.71 1685.7 2212.07 1681.94 2208.26 1700.46 2189.78 1682.02 2171.58Z" fill-rule="evenodd"/><text fill="#000000" fill-opacity="0" font-family="Arial,Arial_MSFontService,sans-serif" font-size="44.7017" x="1681.94" y="2206.64">×</text><path d="M1765.07 2174.01C1766.8 2174.01 1768.17 2174.59 1769.17 2175.76 1770.17 2176.92 1770.67 2178.49 1770.67 2180.46 1770.67 2182.59 1770.25 2185.25 1769.41 2188.44L1767.63 2195.45C1767.17 2197.24 1766.84 2198.63 1766.64 2199.63 1766.43 2200.63 1766.28 2201.49 1766.19 2202.22 1766.09 2202.95 1766.05 2203.56 1766.05 2204.04 1766.05 2205.91 1766.36 2207.25 1766.98 2208.08 1767.6 2208.9 1768.61 2209.31 1770.02 2209.31 1771.15 2209.31 1772.38 2208.86 1773.69 2207.96 1775 2207.05 1776.39 2205.69 1777.86 2203.86 1779.33 2202.04 1780.52 2200.27 1781.41 2198.55 1782.3 2196.84 1783.03 2194.72 1783.6 2192.21L1787.45 2174.66 1794.46 2174.66 1788.54 2200.36C1787.95 2202.95 1787.65 2204.95 1787.65 2206.35 1787.65 2207.44 1787.82 2208.22 1788.18 2208.71 1788.53 2209.19 1789.08 2209.43 1789.84 2209.43 1790.65 2209.43 1791.51 2209.1 1792.43 2208.44 1793.35 2207.78 1794.65 2206.52 1796.32 2204.65L1798.63 2206.92C1796.17 2209.54 1794.08 2211.39 1792.35 2212.47 1790.62 2213.56 1788.78 2214.1 1786.84 2214.1 1785.16 2214.1 1783.83 2213.54 1782.83 2212.43 1781.83 2211.33 1781.33 2209.85 1781.33 2208.02 1781.33 2206.56 1781.65 2204.96 1782.3 2203.23L1781.81 2203.07C1779.14 2206.83 1776.6 2209.6 1774.21 2211.38 1771.82 2213.16 1769.37 2214.05 1766.86 2214.05 1764.35 2214.05 1762.41 2213.33 1761.06 2211.89 1759.71 2210.44 1759.04 2208.44 1759.04 2205.87 1759.04 2204.17 1759.43 2201.75 1760.21 2198.61L1762.85 2188C1763.58 2185.05 1763.94 2182.97 1763.94 2181.75 1763.94 2180.67 1763.76 2179.89 1763.41 2179.4 1763.06 2178.92 1762.51 2178.67 1761.75 2178.67 1760.91 2178.67 1760.03 2179.02 1759.1 2179.71 1758.16 2180.4 1756.89 2181.65 1755.27 2183.46L1752.96 2181.19C1755.25 2178.86 1756.98 2177.27 1758.14 2176.41 1759.31 2175.54 1760.42 2174.93 1761.49 2174.56 1762.56 2174.2 1763.75 2174.01 1765.07 2174.01Z" fill-rule="evenodd"/><text fill="#000000" fill-opacity="0" font-family="Arial,Arial_MSFontService,sans-serif" font-size="40.0815" x="1752.96" y="2209.09">𝑢</text><path d="M1789.53 2148.12 1799.71 2156.91 1799.71 2159.99 1780.33 2159.99 1769.15 2159.99 1756.02 2159.99 1756.02 2156.18 1769.15 2156.18 1780.33 2156.18 1793.87 2156.18 1787.39 2150.55Z" fill-rule="evenodd"/><path d="M1830.58 2195.45 1880.51 2195.45 1880.51 2200.84 1830.58 2200.84ZM1830.58 2178.63 1880.51 2178.63 1880.51 2184.02 1830.58 2184.02Z" fill-rule="evenodd"/><text fill="#000000" fill-opacity="0" font-family="Arial,Arial_MSFontService,sans-serif" font-size="22.209" x="1830.58" y="2198.07">=</text><path d="M1915.37 2187.02 1965.3 2187.02 1965.3 2192.41 1915.37 2192.41Z" fill-rule="evenodd"/><text fill="#000000" fill-opacity="0" font-family="Arial,Arial_MSFontService,sans-serif" font-size="5.39014" x="1915.37" y="2191.74">−</text><path d="M2003.2 2174.01C2004.93 2174.01 2006.3 2174.59 2007.3 2175.76 2008.29 2176.92 2008.79 2178.49 2008.79 2180.46 2008.79 2182.59 2008.38 2185.25 2007.54 2188.44L2005.76 2195.45C2005.3 2197.24 2004.96 2198.63 2004.76 2199.63 2004.56 2200.63 2004.41 2201.49 2004.32 2202.22 2004.22 2202.95 2004.17 2203.56 2004.17 2204.04 2004.17 2205.91 2004.49 2207.25 2005.11 2208.08 2005.73 2208.9 2006.74 2209.31 2008.15 2209.31 2009.28 2209.31 2010.5 2208.86 2011.81 2207.96 2013.12 2207.05 2014.52 2205.69 2015.99 2203.86 2017.46 2202.04 2018.64 2200.27 2019.53 2198.55 2020.43 2196.84 2021.16 2194.72 2021.72 2192.21L2025.57 2174.66 2032.58 2174.66 2026.67 2200.36C2026.07 2202.95 2025.78 2204.95 2025.78 2206.35 2025.78 2207.44 2025.95 2208.22 2026.3 2208.71 2026.65 2209.19 2027.21 2209.43 2027.96 2209.43 2028.77 2209.43 2029.64 2209.1 2030.56 2208.44 2031.48 2207.78 2032.77 2206.52 2034.45 2204.65L2036.76 2206.92C2034.3 2209.54 2032.21 2211.39 2030.48 2212.47 2028.75 2213.56 2026.91 2214.1 2024.97 2214.1 2023.29 2214.1 2021.95 2213.54 2020.95 2212.43 2019.95 2211.33 2019.45 2209.85 2019.45 2208.02 2019.45 2206.56 2019.78 2204.96 2020.43 2203.23L2019.94 2203.07C2017.26 2206.83 2014.73 2209.6 2012.34 2211.38 2009.95 2213.16 2007.5 2214.05 2004.99 2214.05 2002.47 2214.05 2000.54 2213.33 1999.19 2211.89 1997.84 2210.44 1997.16 2208.44 1997.16 2205.87 1997.16 2204.17 1997.56 2201.75 1998.34 2198.61L2000.97 2188C2001.7 2185.05 2002.07 2182.97 2002.07 2181.75 2002.07 2180.67 2001.89 2179.89 2001.54 2179.4 2001.19 2178.92 2000.64 2178.67 1999.88 2178.67 1999.04 2178.67 1998.16 2179.02 1997.22 2179.71 1996.29 2180.4 1995.02 2181.65 1993.39 2183.46L1991.08 2181.19C1993.38 2178.86 1995.11 2177.27 1996.27 2176.41 1997.43 2175.54 1998.55 2174.93 1999.62 2174.56 2000.68 2174.2 2001.88 2174.01 2003.2 2174.01Z" fill-rule="evenodd"/><text fill="#000000" fill-opacity="0" font-family="Arial,Arial_MSFontService,sans-serif" font-size="40.0815" x="1991.08" y="2209.09">𝑢</text><path d="M2027.66 2148.12 2037.83 2156.91 2037.83 2159.99 2018.46 2159.99 2007.28 2159.99 1994.14 2159.99 1994.14 2156.18 2007.28 2156.18 2018.46 2156.18 2032 2156.18 2025.51 2150.55Z" fill-rule="evenodd"/><path d="M2069.51 2167.53 2087.87 2185.85 2106.23 2167.53 2110.04 2171.3 2091.88 2189.78 2110.08 2208.18 2106.03 2212.23 2087.87 2193.71 2069.15 2212.07 2065.38 2208.26 2083.9 2189.78 2065.46 2171.58Z" fill-rule="evenodd"/><text fill="#000000" fill-opacity="0" font-family="Arial,Arial_MSFontService,sans-serif" font-size="44.7017" x="2065.38" y="2206.64">×</text><path d="M2173.81 2173.85C2175.75 2173.85 2177.16 2174.36 2178.02 2175.37 2178.88 2176.38 2179.32 2177.74 2179.32 2179.44 2179.32 2180.74 2179.09 2182.23 2178.63 2183.9 2178.17 2185.58 2177.52 2187.35 2176.68 2189.21 2175.85 2191.08 2174.85 2192.99 2173.68 2194.95 2172.52 2196.91 2171.24 2198.81 2169.83 2200.66 2168.43 2202.51 2166.93 2204.25 2165.34 2205.89 2163.74 2207.52 2162.09 2208.95 2160.37 2210.16 2158.66 2211.38 2156.91 2212.35 2155.14 2213.06 2153.37 2213.78 2151.61 2214.14 2149.85 2214.14 2149.07 2214.14 2148.42 2213.94 2147.89 2213.55 2147.36 2213.16 2146.94 2212.6 2146.61 2211.89 2146.29 2211.17 2146.06 2210.33 2145.92 2209.35 2145.79 2208.38 2145.72 2207.31 2145.72 2206.15 2145.72 2204.61 2145.81 2202.96 2146 2201.21 2146.19 2199.45 2146.44 2197.68 2146.73 2195.9L2148.44 2184.67C2148.54 2184.02 2148.63 2183.41 2148.7 2182.83 2148.77 2182.25 2148.8 2181.82 2148.8 2181.55 2148.8 2180.71 2148.67 2180.03 2148.39 2179.49 2148.12 2178.94 2147.67 2178.67 2147.02 2178.67 2146.5 2178.67 2145.95 2178.83 2145.36 2179.14 2144.76 2179.45 2144.16 2179.85 2143.55 2180.34 2142.94 2180.82 2142.36 2181.34 2141.79 2181.9 2141.22 2182.45 2140.69 2182.97 2140.21 2183.46L2138.26 2181.19C2139.1 2180.32 2139.99 2179.46 2140.94 2178.61 2141.88 2177.76 2142.88 2176.99 2143.94 2176.3 2144.99 2175.61 2146.1 2175.06 2147.26 2174.64 2148.42 2174.22 2149.61 2174.01 2150.83 2174.01 2151.85 2174.01 2152.69 2174.18 2153.34 2174.52 2153.99 2174.86 2154.49 2175.3 2154.86 2175.86 2155.22 2176.41 2155.47 2177.02 2155.61 2177.68 2155.74 2178.34 2155.81 2179 2155.81 2179.65 2155.81 2180.03 2155.8 2180.39 2155.77 2180.74 2155.74 2181.09 2155.7 2181.42 2155.65 2181.71L2153.38 2196.39C2153.14 2197.93 2152.93 2199.43 2152.77 2200.9 2152.61 2202.38 2152.53 2203.68 2152.53 2204.81 2152.53 2205.95 2152.6 2206.87 2152.73 2207.57 2152.87 2208.27 2153.12 2208.62 2153.5 2208.62 2154.39 2208.62 2155.51 2208.27 2156.86 2207.55 2158.22 2206.83 2159.63 2205.85 2161.12 2204.59 2162.61 2203.34 2164.09 2201.85 2165.58 2200.13 2167.06 2198.42 2168.4 2196.56 2169.59 2194.56 2170.78 2192.56 2171.75 2190.45 2172.49 2188.24 2173.23 2186.02 2173.6 2183.79 2173.6 2181.55 2173.6 2180.58 2173.39 2179.83 2172.97 2179.3 2172.56 2178.78 2171.9 2178.51 2171.01 2178.51 2169.87 2178.51 2168.83 2178.95 2167.87 2179.83 2166.91 2180.71 2165.92 2181.86 2164.89 2183.29L2162.58 2181.23C2163.23 2180.26 2163.99 2179.32 2164.87 2178.43 2165.75 2177.54 2166.68 2176.76 2167.67 2176.08 2168.65 2175.41 2169.67 2174.86 2170.73 2174.46 2171.78 2174.05 2172.81 2173.85 2173.81 2173.85Z" fill-rule="evenodd"/><text fill="#000000" fill-opacity="0" font-family="Arial,Arial_MSFontService,sans-serif" font-size="40.2842" x="2138.26" y="2209.1">𝑣</text><path d="M2169.81 2148.09 2179.99 2156.89 2179.99 2159.97 2149.43 2159.97 2149.43 2156.16 2174.15 2156.16 2167.67 2150.53Z" fill-rule="evenodd"/><text fill="#000000" fill-opacity="0" font-family="Arial,Arial_MSFontService,sans-serif" font-size="11.8745" x="2149.43" y="2158.48">റ</text></g></svg>