<svg width="2488" height="216" xmlns="http://www.w3.org/2000/svg" xmlns:xlink="http://www.w3.org/1999/xlink" overflow="hidden"><defs><clipPath id="clip0"><rect x="956" y="857" width="2488" height="216"/></clipPath></defs><g clip-path="url(#clip0)" transform="translate(-956 -857)"><path d="M1000.14 972.32C1001.66 972.32 1002.86 972.831 1003.74 973.853 1004.62 974.875 1005.06 976.253 1005.06 977.988 1005.06 979.865 1004.69 982.206 1003.95 985.01L1002.38 991.176C1001.98 992.745 1001.69 993.968 1001.51 994.848 1001.33 995.727 1001.2 996.487 1001.12 997.129 1001.04 997.77 1000.99 998.305 1000.99 998.733 1000.99 1000.37 1001.27 1001.55 1001.81 1002.28 1002.36 1003 1003.25 1003.37 1004.49 1003.37 1005.48 1003.37 1006.56 1002.97 1007.71 1002.17 1008.87 1001.38 1010.09 1000.18 1011.38 998.572 1012.68 996.968 1013.72 995.412 1014.5 993.903 1015.29 992.394 1015.93 990.535 1016.43 988.325L1019.81 972.891 1025.98 972.891 1020.78 995.489C1020.25 997.77 1019.99 999.529 1019.99 1000.76 1019.99 1001.72 1020.15 1002.4 1020.46 1002.83 1020.76 1003.26 1021.25 1003.47 1021.92 1003.47 1022.63 1003.47 1023.39 1003.18 1024.2 1002.6 1025.01 1002.02 1026.15 1000.91 1027.62 999.267L1029.65 1001.26C1027.49 1003.57 1025.65 1005.2 1024.13 1006.15 1022.61 1007.1 1020.99 1007.57 1019.28 1007.57 1017.81 1007.57 1016.63 1007.09 1015.75 1006.11 1014.87 1005.14 1014.43 1003.84 1014.43 1002.23 1014.43 1000.94 1014.72 999.541 1015.29 998.02L1014.86 997.877C1012.51 1001.18 1010.28 1003.62 1008.18 1005.18 1006.07 1006.75 1003.92 1007.54 1001.71 1007.54 999.497 1007.54 997.797 1006.9 996.609 1005.63 995.421 1004.36 994.827 1002.59 994.827 1000.34 994.827 998.84 995.172 996.713 995.861 993.956L998.178 984.618C998.819 982.027 999.14 980.198 999.14 979.128 999.14 978.178 998.986 977.489 998.677 977.061 998.368 976.633 997.881 976.419 997.215 976.419 996.479 976.419 995.7 976.722 994.881 977.328 994.061 977.934 992.938 979.033 991.512 980.625L989.48 978.629C991.5 976.586 993.021 975.184 994.043 974.423 995.065 973.663 996.045 973.122 996.984 972.801 997.922 972.481 998.974 972.32 1000.14 972.32Z" fill-rule="evenodd"/><text fill="#000000" fill-opacity="0" font-family="Arial,Arial_MSFontService,sans-serif" font-size="35.2524" x="989.48" y="1003.17">𝑢</text><path d="M1021.36 949.543 1030.31 957.278 1030.31 959.987 1014.04 959.987 1003.43 959.987 992.658 959.987 992.658 956.637 1003.43 956.637 1014.04 956.637 1025.17 956.637 1019.47 951.682Z" fill-rule="evenodd"/><path d="M1058.65 966.617 1074.8 982.728 1090.94 966.617 1094.29 969.932 1078.33 986.186 1094.33 1002.37 1090.77 1005.93 1074.8 989.643 1058.33 1005.79 1055.01 1002.44 1071.3 986.186 1055.09 970.182Z" fill-rule="evenodd"/><text fill="#000000" fill-opacity="0" font-family="Arial,Arial_MSFontService,sans-serif" font-size="39.3159" x="1055.01" y="1001.02">×</text><path d="M1150.78 972.178C1152.49 972.178 1153.73 972.623 1154.49 973.514 1155.25 974.405 1155.63 975.599 1155.63 977.097 1155.63 978.237 1155.43 979.544 1155.02 981.017 1154.62 982.491 1154.05 984.047 1153.31 985.687 1152.58 987.327 1151.7 989.008 1150.68 990.731 1149.65 992.453 1148.52 994.129 1147.29 995.756 1146.05 997.384 1144.73 998.917 1143.33 1000.35 1141.93 1001.79 1140.48 1003.05 1138.97 1004.12 1137.46 1005.18 1135.92 1006.03 1134.37 1006.66 1132.81 1007.29 1131.26 1007.61 1129.72 1007.61 1129.03 1007.61 1128.45 1007.44 1127.99 1007.09 1127.52 1006.75 1127.15 1006.26 1126.86 1005.63 1126.58 1005 1126.38 1004.26 1126.26 1003.4 1126.14 1002.55 1126.08 1001.61 1126.08 1000.59 1126.08 999.232 1126.16 997.782 1126.33 996.238 1126.5 994.693 1126.71 993.137 1126.97 991.568L1128.47 981.695C1128.56 981.124 1128.64 980.584 1128.7 980.073 1128.76 979.562 1128.79 979.188 1128.79 978.95 1128.79 978.213 1128.67 977.607 1128.43 977.132 1128.2 976.657 1127.79 976.419 1127.22 976.419 1126.77 976.419 1126.28 976.556 1125.76 976.829 1125.24 977.102 1124.71 977.453 1124.17 977.881 1123.64 978.308 1123.12 978.766 1122.62 979.253 1122.12 979.74 1121.66 980.198 1121.23 980.625L1119.52 978.629C1120.26 977.869 1121.04 977.114 1121.87 976.366 1122.71 975.617 1123.59 974.94 1124.51 974.334 1125.44 973.728 1126.41 973.241 1127.44 972.873 1128.46 972.504 1129.5 972.32 1130.57 972.32 1131.47 972.32 1132.21 972.469 1132.78 972.766 1133.35 973.063 1133.8 973.455 1134.12 973.942 1134.44 974.429 1134.66 974.964 1134.78 975.546 1134.9 976.128 1134.96 976.704 1134.96 977.275 1134.96 977.607 1134.94 977.928 1134.92 978.237 1134.9 978.546 1134.86 978.831 1134.81 979.093L1132.82 991.996C1132.6 993.35 1132.43 994.675 1132.28 995.97 1132.14 997.265 1132.07 998.412 1132.07 999.41 1132.07 1000.41 1132.13 1001.22 1132.25 1001.83 1132.37 1002.45 1132.59 1002.76 1132.92 1002.76 1133.71 1002.76 1134.69 1002.45 1135.88 1001.82 1137.07 1001.19 1138.32 1000.32 1139.63 999.214 1140.93 998.109 1142.24 996.802 1143.55 995.293 1144.85 993.784 1146.03 992.15 1147.08 990.392 1148.12 988.633 1148.97 986.78 1149.62 984.831 1150.28 982.883 1150.6 980.922 1150.6 978.95 1150.6 978.095 1150.42 977.435 1150.05 976.972 1149.68 976.508 1149.11 976.277 1148.32 976.277 1147.32 976.277 1146.4 976.663 1145.56 977.435 1144.72 978.207 1143.84 979.223 1142.94 980.483L1140.91 978.665C1141.48 977.809 1142.15 976.99 1142.92 976.205 1143.7 975.421 1144.51 974.732 1145.38 974.138 1146.25 973.544 1147.15 973.069 1148.07 972.712 1149 972.356 1149.9 972.178 1150.78 972.178Z" fill-rule="evenodd"/><text fill="#000000" fill-opacity="0" font-family="Arial,Arial_MSFontService,sans-serif" font-size="35.4307" x="1119.52" y="1003.18">𝑣</text><path d="M1147.42 949.497 1156.37 957.232 1156.37 959.941 1129.49 959.941 1129.49 956.591 1151.24 956.591 1145.53 951.636Z" fill-rule="evenodd"/><text fill="#000000" fill-opacity="0" font-family="Arial,Arial_MSFontService,sans-serif" font-size="10.4438" x="1129.49" y="958.636">റ</text><path d="M1184.97 991.176 1228.88 991.176 1228.88 995.917 1184.97 995.917ZM1184.97 976.384 1228.88 976.384 1228.88 981.124 1184.97 981.124Z" fill-rule="evenodd"/><text fill="#000000" fill-opacity="0" font-family="Arial,Arial_MSFontService,sans-serif" font-size="19.5332" x="1184.97" y="993.475">=</text><path d="M1283.01 955.496 1283.97 958.241C1278.41 960.07 1274.3 963.641 1271.62 968.952 1268.95 974.263 1267.61 980.934 1267.61 988.966 1267.61 997.283 1268.95 1004.14 1271.62 1009.53 1274.3 1014.93 1278.38 1018.54 1283.87 1020.37L1283.01 1023.11C1276.05 1021.28 1270.71 1017.35 1267.01 1011.3 1263.3 1005.25 1261.45 997.925 1261.45 989.323 1261.45 980.744 1263.31 973.419 1267.03 967.348 1270.74 961.276 1276.07 957.326 1283.01 955.496Z" fill-rule="evenodd"/><text fill="#000000" fill-opacity="0" font-family="Arial,Arial_MSFontService,sans-serif" font-size="67.6177" x="1261.45" y="1014.66">(</text><path d="M1531.8 926.267 1537.61 926.267 1537.61 1046.03 1531.8 1046.03ZM1294.2 926.267 1300.01 926.267 1300.01 1046.03 1294.2 1046.03Z" fill-rule="evenodd"/><path d="M1321.54 918.02C1322.52 918.02 1323.35 918.151 1324.04 918.412 1324.51 918.603 1324.99 918.917 1325.46 919.357 1325.94 919.797 1326.36 920.409 1326.73 921.193 1327.1 921.977 1327.42 922.856 1327.69 923.83 1327.96 924.805 1328.27 926.207 1328.6 928.036 1329.17 931.102 1329.72 934.328 1330.26 937.714 1330.79 941.1 1331.25 944.243 1331.63 947.142 1333.93 943.815 1335.89 940.56 1337.49 937.375 1339.1 934.191 1340.25 931.423 1340.95 929.07 1341.65 926.718 1342 924.805 1342 923.331 1342 922.215 1341.76 921.454 1341.29 921.05 1340.81 920.646 1340.01 920.409 1338.86 920.337L1339.22 918.591 1348.6 918.591 1349.56 920.373C1347.75 925.316 1345.3 930.603 1342.22 936.235 1339.17 941.748 1335.69 947.237 1331.77 952.703 1328.02 957.907 1324.89 961.673 1322.4 964.002 1320.66 965.594 1318.99 966.735 1317.37 967.424 1316.09 967.946 1314.72 968.208 1313.27 968.208 1312.77 968.208 1312.2 968.166 1311.54 968.083 1310.89 968 1310.39 967.887 1310.03 967.745L1311.56 960.829 1314.38 960.829C1314.38 962.35 1314.9 963.111 1315.95 963.111 1317.32 963.111 1318.93 962.249 1320.76 960.526 1322.59 958.804 1324.74 956.208 1327.21 952.738 1326.52 948.58 1325.58 943.566 1324.39 937.696 1323.13 931.423 1322.3 927.537 1321.9 926.04 1321.4 924.234 1320.88 923.082 1320.33 922.583 1320 922.274 1319.58 922.12 1319.08 922.12 1318.32 922.12 1317.61 922.428 1316.94 923.046 1316.28 923.664 1315.46 924.733 1314.48 926.254L1312.17 924.722C1313.81 922.274 1315.34 920.545 1316.77 919.535 1318.19 918.525 1319.78 918.02 1321.54 918.02Z" fill-rule="evenodd"/><text fill="#000000" fill-opacity="0" font-family="Arial,Arial_MSFontService,sans-serif" font-size="50.1875" x="1310.03" y="961.934">𝑦</text><path d="M1364.58 934.299 1366.16 934.299C1366.12 935.248 1366.1 936.098 1366.08 936.849 1366.06 937.599 1366.05 938.328 1366.04 939.035 1366.03 939.743 1366.03 940.441 1366.03 941.131L1366.03 960.799C1366.03 961.334 1366.05 961.796 1366.08 962.184 1366.11 962.572 1366.17 962.9 1366.25 963.167 1366.33 963.435 1366.43 963.663 1366.56 963.853 1366.69 964.043 1366.84 964.207 1367.01 964.345 1367.22 964.552 1367.49 964.711 1367.84 964.824 1368.18 964.936 1368.62 965.031 1369.16 965.108 1369.69 965.186 1370.34 965.246 1371.09 965.289 1371.84 965.333 1372.74 965.363 1373.79 965.38L1373.79 967.631 1353.27 967.631 1353.27 965.38C1354.29 965.346 1355.15 965.307 1355.86 965.264 1356.56 965.22 1357.17 965.16 1357.67 965.082 1358.17 965.005 1358.57 964.919 1358.87 964.824 1359.17 964.729 1359.44 964.612 1359.66 964.474 1359.9 964.319 1360.11 964.151 1360.28 963.97 1360.46 963.788 1360.59 963.56 1360.7 963.284 1360.8 963.008 1360.88 962.671 1360.94 962.275 1361 961.878 1361.03 961.386 1361.03 960.799L1361.03 942.244C1361.03 941.571 1360.9 941.097 1360.65 940.821 1360.39 940.545 1360.02 940.407 1359.53 940.407 1359 940.407 1358.2 940.683 1357.15 941.235 1356.1 941.787 1354.74 942.607 1353.06 943.693 1352.84 943.297 1352.63 942.9 1352.44 942.503 1352.25 942.106 1352.05 941.701 1351.85 941.287 1353.99 940.114 1356.1 938.945 1358.2 937.78 1360.3 936.616 1362.42 935.455 1364.58 934.299Z" fill-rule="evenodd"/><text fill="#000000" fill-opacity="0" font-family="Arial,Arial_MSFontService,sans-serif" font-size="33.332" x="1351.85" y="963.465">1</text><path d="M1464.5 918.591 1489.84 918.591 1490.52 920.373 1473.52 939.906C1470.22 943.684 1467.35 946.892 1464.93 949.53L1465.14 949.78 1473.2 949.78C1474.62 949.78 1475.72 949.702 1476.48 949.548 1477.24 949.393 1477.9 949.102 1478.47 948.675 1479.04 948.247 1479.63 947.599 1480.24 946.732 1480.84 945.865 1481.6 944.504 1482.5 942.651L1485.67 942.651 1483.5 952.667 1457.69 952.667 1457.02 950.92 1476.51 928.464C1479.27 925.304 1481.29 923.058 1482.57 921.727L1482.36 921.478 1474.02 921.478C1472.78 921.478 1471.88 921.561 1471.31 921.727 1470.74 921.894 1470.17 922.185 1469.6 922.601 1469.03 923.017 1468.42 923.634 1467.76 924.454 1467.11 925.274 1466.38 926.444 1465.57 927.965L1462.4 927.965Z" fill-rule="evenodd"/><text fill="#000000" fill-opacity="0" font-family="Arial,Arial_MSFontService,sans-serif" font-size="34.0762" x="1457.02" y="948.407">𝑧</text><path d="M1505.63 934.299 1507.21 934.299C1507.17 935.248 1507.15 936.098 1507.13 936.849 1507.11 937.599 1507.1 938.328 1507.09 939.035 1507.08 939.743 1507.08 940.441 1507.08 941.131L1507.08 960.799C1507.08 961.334 1507.1 961.796 1507.13 962.184 1507.17 962.572 1507.22 962.9 1507.3 963.167 1507.38 963.435 1507.48 963.663 1507.61 963.853 1507.74 964.043 1507.89 964.207 1508.06 964.345 1508.27 964.552 1508.55 964.711 1508.89 964.824 1509.24 964.936 1509.68 965.031 1510.21 965.108 1510.75 965.186 1511.39 965.246 1512.14 965.289 1512.89 965.333 1513.79 965.363 1514.84 965.38L1514.84 967.631 1494.32 967.631 1494.32 965.38C1495.34 965.346 1496.2 965.307 1496.91 965.264 1497.62 965.22 1498.22 965.16 1498.72 965.082 1499.22 965.005 1499.62 964.919 1499.92 964.824 1500.23 964.729 1500.49 964.612 1500.71 964.474 1500.96 964.319 1501.16 964.151 1501.33 963.97 1501.51 963.788 1501.65 963.56 1501.75 963.284 1501.85 963.008 1501.93 962.671 1501.99 962.275 1502.06 961.878 1502.09 961.386 1502.09 960.799L1502.09 942.244C1502.09 941.571 1501.96 941.097 1501.7 940.821 1501.44 940.545 1501.07 940.407 1500.58 940.407 1500.05 940.407 1499.26 940.683 1498.2 941.235 1497.15 941.787 1495.79 942.607 1494.11 943.693 1493.89 943.297 1493.68 942.9 1493.49 942.503 1493.3 942.106 1493.11 941.701 1492.9 941.287 1495.04 940.114 1497.16 938.945 1499.25 937.78 1501.35 936.616 1503.47 935.455 1505.63 934.299Z" fill-rule="evenodd"/><text fill="#000000" fill-opacity="0" font-family="Arial,Arial_MSFontService,sans-serif" font-size="33.332" x="1492.9" y="963.465">1</text><path d="M1320.69 1004C1321.67 1004 1322.5 1004.13 1323.19 1004.4 1323.66 1004.59 1324.14 1004.9 1324.61 1005.34 1325.09 1005.78 1325.51 1006.39 1325.88 1007.18 1326.25 1007.96 1326.57 1008.84 1326.84 1009.81 1327.12 1010.79 1327.42 1012.19 1327.75 1014.02 1328.32 1017.09 1328.87 1020.31 1329.41 1023.7 1329.94 1027.08 1330.4 1030.23 1330.78 1033.13 1333.09 1029.8 1335.04 1026.54 1336.64 1023.36 1338.25 1020.17 1339.4 1017.41 1340.1 1015.05 1340.8 1012.7 1341.15 1010.79 1341.15 1009.31 1341.15 1008.2 1340.92 1007.44 1340.44 1007.03 1339.97 1006.63 1339.16 1006.39 1338.02 1006.32L1338.37 1004.57 1347.75 1004.57 1348.71 1006.36C1346.9 1011.3 1344.46 1016.59 1341.37 1022.22 1338.33 1027.73 1334.84 1033.22 1330.92 1038.69 1327.17 1043.89 1324.04 1047.66 1321.55 1049.99 1319.81 1051.58 1318.14 1052.72 1316.52 1053.41 1315.24 1053.93 1313.87 1054.19 1312.42 1054.19 1311.93 1054.19 1311.35 1054.15 1310.7 1054.07 1310.04 1053.98 1309.54 1053.87 1309.18 1053.73L1310.71 1046.81 1313.53 1046.81C1313.53 1048.33 1314.05 1049.09 1315.1 1049.09 1316.48 1049.09 1318.08 1048.23 1319.91 1046.51 1321.74 1044.79 1323.89 1042.19 1326.36 1038.72 1325.67 1034.56 1324.73 1029.55 1323.55 1023.68 1322.29 1017.41 1321.45 1013.52 1321.05 1012.02 1320.55 1010.22 1320.03 1009.07 1319.48 1008.57 1319.15 1008.26 1318.73 1008.1 1318.23 1008.1 1317.47 1008.1 1316.76 1008.41 1316.1 1009.03 1315.43 1009.65 1314.61 1010.72 1313.64 1012.24L1311.32 1010.7C1312.96 1008.26 1314.49 1006.53 1315.92 1005.52 1317.34 1004.51 1318.94 1004 1320.69 1004Z" fill-rule="evenodd"/><text fill="#000000" fill-opacity="0" font-family="Arial,Arial_MSFontService,sans-serif" font-size="50.1875" x="1309.18" y="1047.92">𝑦</text><path d="M1363.41 1020.1C1365.2 1020.1 1366.73 1020.3 1368 1020.71 1369.27 1021.12 1370.3 1021.66 1371.09 1022.35 1371.89 1023.04 1372.46 1023.87 1372.81 1024.84 1373.17 1025.8 1373.35 1026.85 1373.35 1027.97 1373.35 1028.64 1373.3 1029.27 1373.2 1029.84 1373.11 1030.42 1372.94 1030.99 1372.71 1031.55 1372.48 1032.11 1372.17 1032.68 1371.79 1033.25 1371.41 1033.82 1370.94 1034.42 1370.37 1035.06 1369.94 1035.61 1369.38 1036.25 1368.69 1036.97 1368 1037.7 1367.24 1038.48 1366.42 1039.3 1365.6 1040.13 1364.74 1040.99 1363.85 1041.89 1362.95 1042.79 1362.08 1043.68 1361.23 1044.56 1360.39 1045.44 1359.61 1046.29 1358.91 1047.12 1358.2 1047.95 1357.62 1048.71 1357.17 1049.4L1366.75 1049.4C1367.56 1049.4 1368.2 1049.37 1368.69 1049.31 1369.17 1049.25 1369.57 1049.11 1369.89 1048.9 1370.21 1048.7 1370.48 1048.38 1370.71 1047.96 1370.93 1047.54 1371.19 1046.96 1371.48 1046.21L1373.89 1046.21C1373.8 1047.44 1373.72 1048.67 1373.64 1049.91 1373.57 1051.16 1373.48 1052.39 1373.4 1053.61L1351.48 1053.61 1351.48 1052.27C1351.89 1051.34 1352.37 1050.42 1352.93 1049.51 1353.48 1048.61 1354.1 1047.69 1354.79 1046.76 1355.48 1045.83 1356.27 1044.86 1357.15 1043.87 1358.03 1042.88 1359 1041.85 1360.07 1040.78 1361.69 1039.16 1363.01 1037.77 1364.03 1036.63 1365.05 1035.48 1365.85 1034.46 1366.44 1033.56 1367.02 1032.66 1367.42 1031.83 1367.64 1031.07 1367.85 1030.32 1367.96 1029.5 1367.96 1028.64 1367.96 1027.76 1367.84 1026.95 1367.59 1026.21 1367.34 1025.47 1366.98 1024.84 1366.51 1024.32 1366.05 1023.8 1365.46 1023.4 1364.74 1023.1 1364.02 1022.81 1363.2 1022.66 1362.27 1022.66 1360.66 1022.66 1359.32 1023.1 1358.23 1023.97 1357.15 1024.84 1356.3 1026.11 1355.7 1027.76L1352.31 1027.76 1352.31 1022.72C1354.51 1021.8 1356.55 1021.14 1358.4 1020.72 1360.26 1020.31 1361.92 1020.1 1363.41 1020.1Z" fill-rule="evenodd"/><text fill="#000000" fill-opacity="0" font-family="Arial,Arial_MSFontService,sans-serif" font-size="33.5132" x="1351.48" y="1049.43">2</text><path d="M1463.65 1004.57 1489 1004.57 1489.67 1006.36 1472.67 1025.89C1469.37 1029.67 1466.51 1032.88 1464.08 1035.51L1464.3 1035.76 1472.35 1035.76C1473.78 1035.76 1474.87 1035.69 1475.63 1035.53 1476.39 1035.38 1477.06 1035.09 1477.63 1034.66 1478.2 1034.23 1478.78 1033.58 1479.39 1032.72 1480 1031.85 1480.75 1030.49 1481.65 1028.63L1484.83 1028.63 1482.65 1038.65 1456.85 1038.65 1456.17 1036.9 1475.67 1014.45C1478.42 1011.29 1480.44 1009.04 1481.73 1007.71L1481.51 1007.46 1473.17 1007.46C1471.93 1007.46 1471.03 1007.54 1470.46 1007.71 1469.89 1007.88 1469.32 1008.17 1468.75 1008.58 1468.18 1009 1467.57 1009.62 1466.91 1010.44 1466.26 1011.26 1465.53 1012.43 1464.72 1013.95L1461.55 1013.95Z" fill-rule="evenodd"/><text fill="#000000" fill-opacity="0" font-family="Arial,Arial_MSFontService,sans-serif" font-size="34.0762" x="1456.17" y="1034.39">𝑧</text><path d="M1504.46 1020.1C1506.25 1020.1 1507.79 1020.3 1509.05 1020.71 1510.32 1021.12 1511.35 1021.66 1512.15 1022.35 1512.94 1023.04 1513.51 1023.87 1513.87 1024.84 1514.22 1025.8 1514.4 1026.85 1514.4 1027.97 1514.4 1028.64 1514.35 1029.27 1514.26 1029.84 1514.16 1030.42 1514 1030.99 1513.76 1031.55 1513.53 1032.11 1513.22 1032.68 1512.84 1033.25 1512.47 1033.82 1511.99 1034.42 1511.42 1035.06 1510.99 1035.61 1510.43 1036.25 1509.74 1036.97 1509.05 1037.7 1508.29 1038.48 1507.47 1039.3 1506.66 1040.13 1505.8 1040.99 1504.9 1041.89 1504 1042.79 1503.13 1043.68 1502.29 1044.56 1501.44 1045.44 1500.66 1046.29 1499.96 1047.12 1499.25 1047.95 1498.67 1048.71 1498.22 1049.4L1507.8 1049.4C1508.61 1049.4 1509.26 1049.37 1509.74 1049.31 1510.22 1049.25 1510.62 1049.11 1510.94 1048.9 1511.26 1048.7 1511.53 1048.38 1511.76 1047.96 1511.98 1047.54 1512.24 1046.96 1512.53 1046.21L1514.94 1046.21C1514.85 1047.44 1514.77 1048.67 1514.7 1049.91 1514.62 1051.16 1514.54 1052.39 1514.45 1053.61L1492.53 1053.61 1492.53 1052.27C1492.94 1051.34 1493.43 1050.42 1493.98 1049.51 1494.53 1048.61 1495.15 1047.69 1495.84 1046.76 1496.53 1045.83 1497.32 1044.86 1498.2 1043.87 1499.08 1042.88 1500.05 1041.85 1501.12 1040.78 1502.74 1039.16 1504.06 1037.77 1505.08 1036.63 1506.1 1035.48 1506.9 1034.46 1507.49 1033.56 1508.07 1032.66 1508.48 1031.83 1508.69 1031.07 1508.91 1030.32 1509.01 1029.5 1509.01 1028.64 1509.01 1027.76 1508.89 1026.95 1508.64 1026.21 1508.39 1025.47 1508.03 1024.84 1507.57 1024.32 1507.1 1023.8 1506.51 1023.4 1505.79 1023.1 1505.08 1022.81 1504.25 1022.66 1503.32 1022.66 1501.72 1022.66 1500.37 1023.1 1499.28 1023.97 1498.2 1024.84 1497.35 1026.11 1496.75 1027.76L1493.36 1027.76 1493.36 1022.72C1495.57 1021.8 1497.6 1021.14 1499.45 1020.72 1501.31 1020.31 1502.98 1020.1 1504.46 1020.1Z" fill-rule="evenodd"/><text fill="#000000" fill-opacity="0" font-family="Arial,Arial_MSFontService,sans-serif" font-size="33.5132" x="1492.53" y="1049.43">2</text><path d="M1563.52 998.733 1569.76 998.733C1570.09 1000.4 1570.26 1002.04 1570.26 1003.65 1570.26 1005.32 1569.97 1006.84 1569.4 1008.21 1568.83 1009.59 1567.92 1010.96 1566.68 1012.33 1565.43 1013.7 1563.71 1015.2 1561.53 1016.84L1559.6 1014.67C1560.81 1013.53 1561.69 1012.5 1562.24 1011.58 1562.79 1010.67 1563.18 1009.63 1563.42 1008.46 1563.65 1007.3 1563.77 1005.84 1563.77 1004.08 1563.77 1002.27 1563.69 1000.49 1563.52 998.733Z" fill-rule="evenodd"/><text fill="#000000" fill-opacity="0" font-family="Arial,Arial_MSFontService,sans-serif" font-size="18.1074" x="1559.6" y="1014.58">,</text><path d="M1831.48 926.267 1837.29 926.267 1837.29 1046.03 1831.48 1046.03ZM1594.66 926.267 1600.47 926.267 1600.47 1046.03 1594.66 1046.03Z" fill-rule="evenodd"/><path d="M1618.62 918.934 1643.96 918.934 1644.64 920.717 1627.63 940.25C1624.33 944.028 1621.47 947.236 1619.04 949.874L1619.26 950.123 1627.31 950.123C1628.74 950.123 1629.83 950.046 1630.59 949.892 1631.35 949.737 1632.02 949.446 1632.59 949.018 1633.16 948.591 1633.75 947.943 1634.35 947.076 1634.96 946.208 1635.71 944.848 1636.62 942.995L1639.79 942.995 1637.61 953.011 1611.81 953.011 1611.13 951.264 1630.63 928.808C1633.38 925.648 1635.4 923.402 1636.69 922.071L1636.47 921.822 1628.13 921.822C1626.9 921.822 1625.99 921.905 1625.42 922.071 1624.85 922.237 1624.28 922.529 1623.71 922.944 1623.14 923.36 1622.53 923.978 1621.88 924.798 1621.22 925.618 1620.49 926.788 1619.69 928.309L1616.51 928.309Z" fill-rule="evenodd"/><text fill="#000000" fill-opacity="0" font-family="Arial,Arial_MSFontService,sans-serif" font-size="34.0762" x="1611.13" y="948.751">𝑧</text><path d="M1659.75 934.643 1661.32 934.643C1661.29 935.592 1661.26 936.442 1661.25 937.192 1661.23 937.943 1661.22 938.672 1661.21 939.379 1661.2 940.086 1661.19 940.785 1661.19 941.475L1661.19 961.143C1661.19 961.678 1661.21 962.14 1661.25 962.528 1661.28 962.916 1661.34 963.244 1661.41 963.511 1661.49 963.779 1661.6 964.007 1661.72 964.197 1661.85 964.387 1662.01 964.551 1662.18 964.689 1662.38 964.896 1662.66 965.055 1663.01 965.167 1663.35 965.279 1663.79 965.374 1664.33 965.452 1664.86 965.53 1665.5 965.59 1666.25 965.633 1667 965.676 1667.91 965.706 1668.96 965.724L1668.96 967.975 1648.44 967.975 1648.44 965.724C1649.45 965.689 1650.32 965.65 1651.02 965.607 1651.73 965.564 1652.34 965.504 1652.84 965.426 1653.34 965.349 1653.74 965.262 1654.04 965.167 1654.34 965.072 1654.6 964.956 1654.83 964.818 1655.07 964.663 1655.28 964.495 1655.45 964.313 1655.62 964.132 1655.76 963.904 1655.86 963.628 1655.97 963.352 1656.05 963.015 1656.11 962.618 1656.17 962.221 1656.2 961.73 1656.2 961.143L1656.2 942.588C1656.2 941.915 1656.07 941.441 1655.81 941.165 1655.55 940.889 1655.18 940.751 1654.7 940.751 1654.16 940.751 1653.37 941.027 1652.32 941.579 1651.27 942.131 1649.9 942.95 1648.23 944.037 1648 943.64 1647.8 943.244 1647.61 942.847 1647.42 942.45 1647.22 942.045 1647.01 941.63 1649.15 940.457 1651.27 939.288 1653.37 938.124 1655.46 936.959 1657.59 935.799 1659.75 934.643Z" fill-rule="evenodd"/><text fill="#000000" fill-opacity="0" font-family="Arial,Arial_MSFontService,sans-serif" font-size="33.332" x="1647.01" y="963.809">1</text><path d="M1765.37 918.328C1766.11 918.328 1766.76 918.412 1767.31 918.578 1767.87 918.744 1768.37 919 1768.79 919.344 1769.22 919.689 1769.6 920.134 1769.93 920.681 1770.27 921.228 1770.59 921.97 1770.9 922.909 1771.21 923.847 1771.5 925.012 1771.77 926.402 1772.04 927.792 1772.29 929.236 1772.5 930.733L1772.86 930.733C1775.14 927.525 1776.87 925.178 1778.04 923.693 1779.22 922.208 1780.21 921.103 1781.02 920.378 1781.83 919.653 1782.61 919.142 1783.35 918.845 1784.1 918.548 1785.09 918.4 1786.33 918.4 1787.45 918.4 1788.36 918.542 1789.07 918.828L1787.65 925.279 1785.15 925.279C1785.01 924.281 1784.6 923.782 1783.91 923.782 1783.69 923.782 1783.47 923.818 1783.23 923.889 1782.99 923.96 1782.7 924.115 1782.36 924.352 1782.01 924.59 1781.51 925.053 1780.84 925.743 1780.18 926.432 1779.43 927.275 1778.6 928.273 1777.76 929.271 1776.91 930.317 1776.03 931.41L1773.61 934.44C1774.03 936.721 1774.44 938.693 1774.82 940.357 1775.2 942.02 1775.54 943.404 1775.83 944.509 1776.13 945.614 1776.39 946.488 1776.62 947.129 1776.84 947.771 1777.09 948.252 1777.35 948.573 1777.61 948.894 1777.88 949.119 1778.15 949.25 1778.42 949.381 1778.74 949.446 1779.09 949.446 1779.74 949.446 1780.36 949.197 1780.97 948.698 1781.57 948.199 1782.44 947.07 1783.59 945.311L1785.9 946.844C1784.24 949.315 1782.74 951.056 1781.39 952.066 1780.05 953.076 1778.45 953.581 1776.6 953.581 1775.58 953.581 1774.71 953.397 1774 953.028 1773.28 952.66 1772.67 952.072 1772.14 951.264 1771.62 950.456 1771.16 949.197 1770.75 947.486 1770.02 944.444 1769.57 942.115 1769.4 940.499L1769.04 940.499C1766.52 944.04 1764.65 946.583 1763.43 948.127 1762.2 949.672 1761.19 950.813 1760.4 951.549 1759.6 952.286 1758.83 952.803 1758.08 953.1 1757.33 953.397 1756.34 953.545 1755.11 953.545 1753.99 953.545 1753.07 953.403 1752.36 953.118L1753.79 946.666 1756.28 946.666C1756.42 947.664 1756.84 948.163 1757.53 948.163 1757.86 948.163 1758.21 948.074 1758.58 947.896 1758.95 947.717 1759.48 947.29 1760.17 946.612 1760.86 945.935 1761.81 944.872 1763.02 943.422 1764.23 941.973 1765.99 939.798 1768.29 936.899 1767.94 935.022 1767.57 933.216 1767.19 931.481 1766.81 929.747 1766.42 928.131 1766.01 926.634 1765.61 925.137 1765.28 924.156 1765.01 923.693 1764.75 923.23 1764.47 922.909 1764.18 922.731 1763.88 922.552 1763.51 922.463 1763.05 922.463 1762.56 922.463 1762.1 922.576 1761.7 922.802 1761.3 923.028 1760.86 923.42 1760.38 923.978 1759.91 924.537 1759.28 925.41 1758.49 926.598L1756.17 925.065C1757.67 922.808 1759.11 921.121 1760.49 920.004 1761.87 918.887 1763.49 918.328 1765.37 918.328Z" fill-rule="evenodd"/><text fill="#000000" fill-opacity="0" font-family="Arial,Arial_MSFontService,sans-serif" font-size="35.2524" x="1752.36" y="949.174">𝑥</text><path d="M1805.31 934.643 1806.89 934.643C1806.86 935.592 1806.83 936.442 1806.81 937.192 1806.8 937.943 1806.78 938.672 1806.77 939.379 1806.77 940.086 1806.76 940.785 1806.76 941.475L1806.76 961.143C1806.76 961.678 1806.78 962.14 1806.81 962.528 1806.85 962.916 1806.9 963.244 1806.98 963.511 1807.06 963.779 1807.16 964.007 1807.29 964.197 1807.42 964.387 1807.57 964.551 1807.74 964.689 1807.95 964.896 1808.23 965.055 1808.57 965.167 1808.92 965.279 1809.36 965.374 1809.89 965.452 1810.43 965.53 1811.07 965.59 1811.82 965.633 1812.57 965.676 1813.47 965.706 1814.52 965.724L1814.52 967.975 1794 967.975 1794 965.724C1795.02 965.689 1795.88 965.65 1796.59 965.607 1797.3 965.564 1797.9 965.504 1798.4 965.426 1798.9 965.349 1799.3 965.262 1799.61 965.167 1799.91 965.072 1800.17 964.956 1800.39 964.818 1800.64 964.663 1800.84 964.495 1801.02 964.313 1801.19 964.132 1801.33 963.904 1801.43 963.628 1801.53 963.352 1801.62 963.015 1801.68 962.618 1801.74 962.221 1801.77 961.73 1801.77 961.143L1801.77 942.588C1801.77 941.915 1801.64 941.441 1801.38 941.165 1801.12 940.889 1800.75 940.751 1800.27 940.751 1799.73 940.751 1798.94 941.027 1797.88 941.579 1796.83 942.131 1795.47 942.95 1793.8 944.037 1793.57 943.64 1793.36 943.244 1793.17 942.847 1792.98 942.45 1792.79 942.045 1792.58 941.63 1794.72 940.457 1796.84 939.288 1798.93 938.124 1801.03 936.959 1803.16 935.799 1805.31 934.643Z" fill-rule="evenodd"/><text fill="#000000" fill-opacity="0" font-family="Arial,Arial_MSFontService,sans-serif" font-size="33.332" x="1792.58" y="963.809">1</text><path d="M1617.77 1004.92 1643.11 1004.92 1643.79 1006.7 1626.79 1026.23C1623.48 1030.01 1620.62 1033.22 1618.2 1035.86L1618.41 1036.11 1626.47 1036.11C1627.89 1036.11 1628.98 1036.03 1629.74 1035.88 1630.51 1035.72 1631.17 1035.43 1631.74 1035 1632.31 1034.57 1632.9 1033.93 1633.51 1033.06 1634.11 1032.19 1634.87 1030.83 1635.77 1028.98L1638.94 1028.98 1636.77 1038.99 1610.96 1038.99 1610.28 1037.25 1629.78 1014.79C1632.54 1011.63 1634.56 1009.39 1635.84 1008.05L1635.63 1007.81 1627.29 1007.81C1626.05 1007.81 1625.15 1007.89 1624.58 1008.05 1624.01 1008.22 1623.44 1008.51 1622.87 1008.93 1622.29 1009.34 1621.68 1009.96 1621.03 1010.78 1620.38 1011.6 1619.65 1012.77 1618.84 1014.29L1615.67 1014.29Z" fill-rule="evenodd"/><text fill="#000000" fill-opacity="0" font-family="Arial,Arial_MSFontService,sans-serif" font-size="34.0762" x="1610.28" y="1034.73">𝑧</text><path d="M1658.57 1020.45C1660.37 1020.45 1661.9 1020.65 1663.17 1021.05 1664.44 1021.46 1665.47 1022.01 1666.26 1022.7 1667.05 1023.39 1667.63 1024.21 1667.98 1025.18 1668.34 1026.15 1668.51 1027.19 1668.51 1028.31 1668.51 1028.99 1668.46 1029.61 1668.37 1030.19 1668.27 1030.77 1668.11 1031.34 1667.88 1031.9 1667.65 1032.46 1667.34 1033.02 1666.96 1033.59 1666.58 1034.16 1666.11 1034.77 1665.54 1035.4 1665.1 1035.96 1664.54 1036.59 1663.85 1037.32 1663.16 1038.04 1662.41 1038.82 1661.59 1039.65 1660.77 1040.48 1659.91 1041.34 1659.01 1042.24 1658.12 1043.13 1657.25 1044.02 1656.4 1044.9 1655.56 1045.78 1654.78 1046.63 1654.07 1047.46 1653.36 1048.29 1652.79 1049.05 1652.34 1049.74L1661.91 1049.74C1662.72 1049.74 1663.37 1049.71 1663.85 1049.65 1664.34 1049.59 1664.74 1049.46 1665.06 1049.25 1665.38 1049.04 1665.65 1048.73 1665.87 1048.3 1666.1 1047.88 1666.36 1047.3 1666.65 1046.56L1669.06 1046.56C1668.97 1047.78 1668.89 1049.02 1668.81 1050.26 1668.73 1051.5 1668.65 1052.73 1668.56 1053.96L1646.64 1053.96 1646.64 1052.61C1647.06 1051.68 1647.54 1050.76 1648.09 1049.86 1648.65 1048.95 1649.27 1048.03 1649.96 1047.1 1650.65 1046.17 1651.43 1045.21 1652.31 1044.22 1653.19 1043.22 1654.17 1042.19 1655.24 1041.12 1656.86 1039.5 1658.18 1038.12 1659.2 1036.97 1660.21 1035.82 1661.02 1034.8 1661.6 1033.9 1662.19 1033.01 1662.59 1032.18 1662.81 1031.42 1663.02 1030.66 1663.13 1029.85 1663.13 1028.99 1663.13 1028.11 1663 1027.29 1662.75 1026.55 1662.5 1025.81 1662.15 1025.18 1661.68 1024.66 1661.21 1024.15 1660.62 1023.74 1659.91 1023.45 1659.19 1023.15 1658.37 1023.01 1657.44 1023.01 1655.83 1023.01 1654.49 1023.44 1653.4 1024.31 1652.31 1025.19 1651.47 1026.45 1650.86 1028.11L1647.47 1028.11 1647.47 1023.06C1649.68 1022.14 1651.71 1021.48 1653.57 1021.07 1655.42 1020.65 1657.09 1020.45 1658.57 1020.45Z" fill-rule="evenodd"/><text fill="#000000" fill-opacity="0" font-family="Arial,Arial_MSFontService,sans-serif" font-size="33.5132" x="1646.64" y="1049.77">2</text><path d="M1764.52 1004.31C1765.26 1004.31 1765.91 1004.4 1766.47 1004.56 1767.02 1004.73 1767.52 1004.98 1767.95 1005.33 1768.37 1005.67 1768.75 1006.12 1769.09 1006.66 1769.42 1007.21 1769.74 1007.95 1770.05 1008.89 1770.36 1009.83 1770.65 1011 1770.92 1012.39 1771.19 1013.78 1771.44 1015.22 1771.65 1016.72L1772.01 1016.72C1774.29 1013.51 1776.02 1011.16 1777.19 1009.68 1778.37 1008.19 1779.36 1007.09 1780.17 1006.36 1780.98 1005.64 1781.76 1005.13 1782.51 1004.83 1783.25 1004.53 1784.25 1004.38 1785.48 1004.38 1786.6 1004.38 1787.51 1004.53 1788.23 1004.81L1786.8 1011.26 1784.31 1011.26C1784.16 1010.26 1783.75 1009.77 1783.06 1009.77 1782.84 1009.77 1782.62 1009.8 1782.38 1009.87 1782.14 1009.94 1781.85 1010.1 1781.51 1010.34 1781.16 1010.57 1780.66 1011.04 1779.99 1011.73 1779.33 1012.42 1778.58 1013.26 1777.75 1014.26 1776.92 1015.25 1776.06 1016.3 1775.18 1017.39L1772.76 1020.42C1773.18 1022.7 1773.59 1024.68 1773.97 1026.34 1774.35 1028 1774.69 1029.39 1774.98 1030.49 1775.28 1031.6 1775.54 1032.47 1775.77 1033.11 1775.99 1033.75 1776.24 1034.24 1776.5 1034.56 1776.76 1034.88 1777.03 1035.1 1777.3 1035.23 1777.58 1035.36 1777.89 1035.43 1778.25 1035.43 1778.89 1035.43 1779.51 1035.18 1780.12 1034.68 1780.72 1034.18 1781.6 1033.05 1782.74 1031.29L1785.05 1032.83C1783.39 1035.3 1781.89 1037.04 1780.55 1038.05 1779.2 1039.06 1777.6 1039.56 1775.75 1039.56 1774.73 1039.56 1773.86 1039.38 1773.15 1039.01 1772.44 1038.64 1771.82 1038.06 1771.3 1037.25 1770.77 1036.44 1770.31 1035.18 1769.91 1033.47 1769.17 1030.43 1768.72 1028.1 1768.55 1026.48L1768.19 1026.48C1765.68 1030.02 1763.8 1032.57 1762.58 1034.11 1761.36 1035.66 1760.35 1036.8 1759.55 1037.53 1758.75 1038.27 1757.98 1038.79 1757.23 1039.08 1756.49 1039.38 1755.49 1039.53 1754.26 1039.53 1753.14 1039.53 1752.23 1039.39 1751.51 1039.1L1752.94 1032.65 1755.43 1032.65C1755.58 1033.65 1755.99 1034.15 1756.68 1034.15 1757.01 1034.15 1757.36 1034.06 1757.73 1033.88 1758.1 1033.7 1758.63 1033.27 1759.32 1032.6 1760.01 1031.92 1760.96 1030.86 1762.17 1029.41 1763.38 1027.96 1765.14 1025.78 1767.45 1022.88 1767.09 1021.01 1766.72 1019.2 1766.34 1017.46 1765.96 1015.73 1765.57 1014.11 1765.16 1012.62 1764.76 1011.12 1764.43 1010.14 1764.17 1009.68 1763.91 1009.21 1763.63 1008.89 1763.33 1008.71 1763.03 1008.54 1762.66 1008.45 1762.21 1008.45 1761.71 1008.45 1761.26 1008.56 1760.85 1008.79 1760.45 1009.01 1760.01 1009.4 1759.53 1009.96 1759.06 1010.52 1758.43 1011.39 1757.64 1012.58L1755.33 1011.05C1756.82 1008.79 1758.26 1007.1 1759.64 1005.99 1761.02 1004.87 1762.65 1004.31 1764.52 1004.31Z" fill-rule="evenodd"/><text fill="#000000" fill-opacity="0" font-family="Arial,Arial_MSFontService,sans-serif" font-size="35.2524" x="1751.51" y="1035.16">𝑥</text><path d="M1804.14 1020.45C1805.94 1020.45 1807.47 1020.65 1808.73 1021.05 1810 1021.46 1811.03 1022.01 1811.83 1022.7 1812.62 1023.39 1813.19 1024.21 1813.55 1025.18 1813.9 1026.15 1814.08 1027.19 1814.08 1028.31 1814.08 1028.99 1814.03 1029.61 1813.94 1030.19 1813.84 1030.77 1813.68 1031.34 1813.44 1031.9 1813.21 1032.46 1812.91 1033.02 1812.53 1033.59 1812.15 1034.16 1811.67 1034.77 1811.1 1035.4 1810.67 1035.96 1810.11 1036.59 1809.42 1037.32 1808.73 1038.04 1807.98 1038.82 1807.16 1039.65 1806.34 1040.48 1805.48 1041.34 1804.58 1042.24 1803.68 1043.13 1802.81 1044.02 1801.97 1044.9 1801.12 1045.78 1800.35 1046.63 1799.64 1047.46 1798.93 1048.29 1798.35 1049.05 1797.9 1049.74L1807.48 1049.74C1808.29 1049.74 1808.94 1049.71 1809.42 1049.65 1809.9 1049.59 1810.3 1049.46 1810.62 1049.25 1810.94 1049.04 1811.21 1048.73 1811.44 1048.3 1811.66 1047.88 1811.92 1047.3 1812.22 1046.56L1814.62 1046.56C1814.54 1047.78 1814.45 1049.02 1814.38 1050.26 1814.3 1051.5 1814.22 1052.73 1814.13 1053.96L1792.21 1053.96 1792.21 1052.61C1792.63 1051.68 1793.11 1050.76 1793.66 1049.86 1794.21 1048.95 1794.83 1048.03 1795.52 1047.1 1796.21 1046.17 1797 1045.21 1797.88 1044.22 1798.76 1043.22 1799.73 1042.19 1800.8 1041.12 1802.42 1039.5 1803.74 1038.12 1804.76 1036.97 1805.78 1035.82 1806.58 1034.8 1807.17 1033.9 1807.76 1033.01 1808.16 1032.18 1808.37 1031.42 1808.59 1030.66 1808.7 1029.85 1808.7 1028.99 1808.7 1028.11 1808.57 1027.29 1808.32 1026.55 1808.07 1025.81 1807.71 1025.18 1807.25 1024.66 1806.78 1024.15 1806.19 1023.74 1805.47 1023.45 1804.76 1023.15 1803.93 1023.01 1803 1023.01 1801.4 1023.01 1800.05 1023.44 1798.97 1024.31 1797.88 1025.19 1797.03 1026.45 1796.43 1028.11L1793.04 1028.11 1793.04 1023.06C1795.25 1022.14 1797.28 1021.48 1799.13 1021.07 1800.99 1020.65 1802.66 1020.45 1804.14 1020.45Z" fill-rule="evenodd"/><text fill="#000000" fill-opacity="0" font-family="Arial,Arial_MSFontService,sans-serif" font-size="33.5132" x="1792.21" y="1049.77">2</text><path d="M1863.2 998.733 1869.44 998.733C1869.77 1000.4 1869.94 1002.04 1869.94 1003.65 1869.94 1005.32 1869.66 1006.84 1869.08 1008.21 1868.51 1009.59 1867.61 1010.96 1866.36 1012.33 1865.11 1013.7 1863.39 1015.2 1861.21 1016.84L1859.28 1014.67C1860.49 1013.53 1861.37 1012.5 1861.92 1011.58 1862.47 1010.67 1862.86 1009.63 1863.1 1008.46 1863.33 1007.3 1863.45 1005.84 1863.45 1004.08 1863.45 1002.27 1863.37 1000.49 1863.2 998.733Z" fill-rule="evenodd"/><text fill="#000000" fill-opacity="0" font-family="Arial,Arial_MSFontService,sans-serif" font-size="18.1074" x="1859.28" y="1014.58">,</text><path d="M2136.46 926.267 2142.27 926.267 2142.27 1046.03 2136.46 1046.03ZM1894.34 926.267 1900.15 926.267 1900.15 1046.03 1894.34 1046.03Z" fill-rule="evenodd"/><path d="M1924 918.008C1924.74 918.008 1925.38 918.091 1925.94 918.257 1926.5 918.424 1926.99 918.679 1927.42 919.024 1927.85 919.368 1928.23 919.814 1928.56 920.36 1928.9 920.907 1929.22 921.649 1929.53 922.588 1929.83 923.527 1930.13 924.691 1930.4 926.081 1930.67 927.471 1930.92 928.915 1931.13 930.412L1931.49 930.412C1933.77 927.204 1935.5 924.857 1936.67 923.372 1937.85 921.887 1938.84 920.782 1939.65 920.057 1940.46 919.332 1941.23 918.822 1941.98 918.525 1942.73 918.227 1943.72 918.079 1944.96 918.079 1946.08 918.079 1946.99 918.222 1947.7 918.507L1946.28 924.958 1943.78 924.958C1943.64 923.96 1943.22 923.461 1942.54 923.461 1942.32 923.461 1942.1 923.497 1941.86 923.568 1941.62 923.64 1941.33 923.794 1940.98 924.032 1940.64 924.269 1940.14 924.733 1939.47 925.422 1938.8 926.111 1938.06 926.954 1937.22 927.953 1936.39 928.951 1935.54 929.996 1934.66 931.089L1932.23 934.119C1932.66 936.4 1933.07 938.373 1933.45 940.036 1933.83 941.699 1934.17 943.084 1934.46 944.189 1934.76 945.294 1935.02 946.167 1935.25 946.808 1935.47 947.45 1935.72 947.931 1935.98 948.252 1936.24 948.573 1936.51 948.799 1936.78 948.929 1937.05 949.06 1937.37 949.125 1937.72 949.125 1938.37 949.125 1938.99 948.876 1939.59 948.377 1940.2 947.878 1941.07 946.749 1942.21 944.991L1944.53 946.523C1942.87 948.995 1941.37 950.735 1940.02 951.745 1938.68 952.755 1937.08 953.26 1935.23 953.26 1934.21 953.26 1933.34 953.076 1932.63 952.708 1931.91 952.339 1931.3 951.751 1930.77 950.943 1930.25 950.135 1929.79 948.876 1929.38 947.165 1928.65 944.123 1928.19 941.794 1928.03 940.179L1927.67 940.179C1925.15 943.719 1923.28 946.262 1922.06 947.807 1920.83 949.351 1919.82 950.492 1919.03 951.228 1918.23 951.965 1917.46 952.482 1916.71 952.779 1915.96 953.076 1914.97 953.224 1913.73 953.224 1912.62 953.224 1911.7 953.082 1910.99 952.797L1912.42 946.345 1914.91 946.345C1915.05 947.343 1915.47 947.842 1916.16 947.842 1916.49 947.842 1916.84 947.753 1917.21 947.575 1917.58 947.397 1918.11 946.969 1918.8 946.292 1919.49 945.614 1920.44 944.551 1921.65 943.101 1922.86 941.652 1924.62 939.478 1926.92 936.578 1926.57 934.701 1926.2 932.895 1925.82 931.161 1925.44 929.426 1925.05 927.81 1924.64 926.313 1924.24 924.816 1923.91 923.836 1923.64 923.372 1923.38 922.909 1923.1 922.588 1922.81 922.41 1922.51 922.232 1922.14 922.142 1921.68 922.142 1921.18 922.142 1920.73 922.255 1920.33 922.481 1919.93 922.707 1919.49 923.099 1919.01 923.657 1918.53 924.216 1917.91 925.089 1917.12 926.277L1914.8 924.745C1916.3 922.487 1917.74 920.8 1919.12 919.683 1920.5 918.566 1922.12 918.008 1924 918.008Z" fill-rule="evenodd"/><text fill="#000000" fill-opacity="0" font-family="Arial,Arial_MSFontService,sans-serif" font-size="35.2524" x="1910.99" y="948.854">𝑥</text><path d="M1963.94 934.322 1965.52 934.322C1965.49 935.271 1965.46 936.121 1965.44 936.871 1965.42 937.622 1965.41 938.351 1965.4 939.058 1965.39 939.766 1965.39 940.464 1965.39 941.154L1965.39 960.822C1965.39 961.357 1965.41 961.819 1965.44 962.207 1965.48 962.595 1965.53 962.923 1965.61 963.19 1965.69 963.458 1965.79 963.686 1965.92 963.876 1966.05 964.066 1966.2 964.23 1966.37 964.368 1966.58 964.575 1966.86 964.734 1967.2 964.847 1967.55 964.959 1967.99 965.054 1968.52 965.131 1969.06 965.209 1969.7 965.269 1970.45 965.312 1971.2 965.356 1972.1 965.386 1973.15 965.403L1973.15 967.654 1952.63 967.654 1952.63 965.403C1953.65 965.368 1954.51 965.33 1955.22 965.286 1955.93 965.243 1956.53 965.183 1957.03 965.105 1957.53 965.028 1957.93 964.941 1958.23 964.847 1958.54 964.752 1958.8 964.635 1959.02 964.497 1959.27 964.342 1959.47 964.174 1959.65 963.993 1959.82 963.811 1959.96 963.583 1960.06 963.307 1960.16 963.031 1960.24 962.694 1960.31 962.297 1960.37 961.901 1960.4 961.409 1960.4 960.822L1960.4 942.267C1960.4 941.594 1960.27 941.12 1960.01 940.844 1959.75 940.568 1959.38 940.43 1958.89 940.43 1958.36 940.43 1957.57 940.706 1956.51 941.258 1955.46 941.81 1954.1 942.63 1952.42 943.716 1952.2 943.32 1951.99 942.923 1951.8 942.526 1951.61 942.129 1951.42 941.724 1951.21 941.31 1953.35 940.137 1955.47 938.968 1957.56 937.803 1959.66 936.639 1961.78 935.478 1963.94 934.322Z" fill-rule="evenodd"/><text fill="#000000" fill-opacity="0" font-family="Arial,Arial_MSFontService,sans-serif" font-size="33.332" x="1951.21" y="963.488">1</text><path d="M2067.25 918.043C2068.22 918.043 2069.06 918.174 2069.75 918.435 2070.22 918.626 2070.7 918.94 2071.17 919.38 2071.65 919.82 2072.07 920.432 2072.44 921.216 2072.8 922 2073.13 922.879 2073.4 923.853 2073.67 924.828 2073.97 926.23 2074.31 928.059 2074.88 931.125 2075.43 934.351 2075.97 937.737 2076.5 941.123 2076.96 944.266 2077.34 947.165 2079.64 943.838 2081.6 940.583 2083.2 937.398 2084.8 934.214 2085.96 931.446 2086.66 929.093 2087.36 926.741 2087.71 924.828 2087.71 923.354 2087.71 922.237 2087.47 921.477 2087 921.073 2086.52 920.669 2085.71 920.432 2084.57 920.36L2084.93 918.614 2094.3 918.614 2095.27 920.396C2093.46 925.339 2091.01 930.626 2087.92 936.258 2084.88 941.771 2081.4 947.26 2077.48 952.725 2073.73 957.93 2070.6 961.696 2068.11 964.025 2066.37 965.617 2064.7 966.758 2063.08 967.447 2061.8 967.969 2060.43 968.231 2058.98 968.231 2058.48 968.231 2057.91 968.189 2057.25 968.106 2056.6 968.023 2056.09 967.91 2055.74 967.767L2057.27 960.852 2060.09 960.852C2060.09 962.373 2060.61 963.134 2061.65 963.134 2063.03 963.134 2064.64 962.272 2066.47 960.549 2068.3 958.827 2070.45 956.231 2072.92 952.761 2072.23 948.603 2071.29 943.589 2070.1 937.719 2068.84 931.446 2068.01 927.56 2067.61 926.063 2067.11 924.257 2066.58 923.105 2066.04 922.606 2065.71 922.297 2065.29 922.142 2064.79 922.142 2064.03 922.142 2063.32 922.451 2062.65 923.069 2061.99 923.687 2061.17 924.756 2060.19 926.277L2057.88 924.745C2059.52 922.297 2061.05 920.568 2062.47 919.558 2063.9 918.548 2065.49 918.043 2067.25 918.043Z" fill-rule="evenodd"/><text fill="#000000" fill-opacity="0" font-family="Arial,Arial_MSFontService,sans-serif" font-size="50.1875" x="2055.74" y="961.957">𝑦</text><path d="M2110.29 934.322 2111.87 934.322C2111.83 935.271 2111.81 936.121 2111.79 936.871 2111.77 937.622 2111.76 938.351 2111.75 939.058 2111.74 939.766 2111.74 940.464 2111.74 941.154L2111.74 960.822C2111.74 961.357 2111.75 961.819 2111.79 962.207 2111.82 962.595 2111.88 962.923 2111.96 963.19 2112.03 963.458 2112.14 963.686 2112.27 963.876 2112.4 964.066 2112.55 964.23 2112.72 964.368 2112.93 964.575 2113.2 964.734 2113.55 964.847 2113.89 964.959 2114.33 965.054 2114.87 965.131 2115.4 965.209 2116.04 965.269 2116.8 965.312 2117.55 965.356 2118.45 965.386 2119.5 965.403L2119.5 967.654 2098.98 967.654 2098.98 965.403C2100 965.368 2100.86 965.33 2101.57 965.286 2102.27 965.243 2102.88 965.183 2103.38 965.105 2103.88 965.028 2104.28 964.941 2104.58 964.847 2104.88 964.752 2105.15 964.635 2105.37 964.497 2105.61 964.342 2105.82 964.174 2105.99 963.993 2106.16 963.811 2106.3 963.583 2106.41 963.307 2106.51 963.031 2106.59 962.694 2106.65 962.297 2106.71 961.901 2106.74 961.409 2106.74 960.822L2106.74 942.267C2106.74 941.594 2106.61 941.12 2106.35 940.844 2106.09 940.568 2105.72 940.43 2105.24 940.43 2104.71 940.43 2103.91 940.706 2102.86 941.258 2101.81 941.81 2100.44 942.63 2098.77 943.716 2098.55 943.32 2098.34 942.923 2098.15 942.526 2097.96 942.129 2097.76 941.724 2097.55 941.31 2099.69 940.137 2101.81 938.968 2103.91 937.803 2106 936.639 2108.13 935.478 2110.29 934.322Z" fill-rule="evenodd"/><text fill="#000000" fill-opacity="0" font-family="Arial,Arial_MSFontService,sans-serif" font-size="33.332" x="2097.55" y="963.488">1</text><path d="M1923.15 1003.99C1923.89 1003.99 1924.54 1004.07 1925.1 1004.24 1925.65 1004.41 1926.15 1004.66 1926.57 1005.01 1927 1005.35 1927.38 1005.8 1927.71 1006.34 1928.05 1006.89 1928.37 1007.63 1928.68 1008.57 1928.99 1009.51 1929.28 1010.67 1929.55 1012.06 1929.82 1013.45 1930.07 1014.9 1930.28 1016.4L1930.64 1016.4C1932.92 1013.19 1934.65 1010.84 1935.82 1009.36 1937 1007.87 1937.99 1006.77 1938.8 1006.04 1939.61 1005.32 1940.39 1004.8 1941.14 1004.51 1941.88 1004.21 1942.88 1004.06 1944.11 1004.06 1945.23 1004.06 1946.14 1004.2 1946.86 1004.49L1945.43 1010.94 1942.94 1010.94C1942.79 1009.94 1942.38 1009.44 1941.69 1009.44 1941.47 1009.44 1941.25 1009.48 1941.01 1009.55 1940.77 1009.62 1940.48 1009.78 1940.14 1010.01 1939.79 1010.25 1939.29 1010.72 1938.62 1011.41 1937.96 1012.09 1937.21 1012.94 1936.38 1013.94 1935.54 1014.93 1934.69 1015.98 1933.81 1017.07L1931.39 1020.1C1931.81 1022.38 1932.22 1024.36 1932.6 1026.02 1932.98 1027.68 1933.32 1029.07 1933.61 1030.17 1933.91 1031.28 1934.17 1032.15 1934.4 1032.79 1934.62 1033.43 1934.87 1033.91 1935.13 1034.24 1935.39 1034.56 1935.66 1034.78 1935.93 1034.91 1936.2 1035.04 1936.52 1035.11 1936.88 1035.11 1937.52 1035.11 1938.14 1034.86 1938.75 1034.36 1939.35 1033.86 1940.23 1032.73 1941.37 1030.97L1943.68 1032.51C1942.02 1034.98 1940.52 1036.72 1939.17 1037.73 1937.83 1038.74 1936.23 1039.24 1934.38 1039.24 1933.36 1039.24 1932.49 1039.06 1931.78 1038.69 1931.07 1038.32 1930.45 1037.73 1929.92 1036.93 1929.4 1036.12 1928.94 1034.86 1928.53 1033.15 1927.8 1030.11 1927.35 1027.78 1927.18 1026.16L1926.82 1026.16C1924.3 1029.7 1922.43 1032.25 1921.21 1033.79 1919.99 1035.33 1918.98 1036.47 1918.18 1037.21 1917.38 1037.95 1916.61 1038.47 1915.86 1038.76 1915.11 1039.06 1914.12 1039.21 1912.89 1039.21 1911.77 1039.21 1910.86 1039.07 1910.14 1038.78L1911.57 1032.33 1914.06 1032.33C1914.21 1033.33 1914.62 1033.83 1915.31 1033.83 1915.64 1033.83 1915.99 1033.74 1916.36 1033.56 1916.73 1033.38 1917.26 1032.95 1917.95 1032.27 1918.64 1031.6 1919.59 1030.53 1920.8 1029.08 1922.01 1027.64 1923.77 1025.46 1926.08 1022.56 1925.72 1020.68 1925.35 1018.88 1924.97 1017.14 1924.59 1015.41 1924.2 1013.79 1923.79 1012.3 1923.39 1010.8 1923.06 1009.82 1922.8 1009.36 1922.53 1008.89 1922.26 1008.57 1921.96 1008.39 1921.66 1008.21 1921.29 1008.13 1920.84 1008.13 1920.34 1008.13 1919.89 1008.24 1919.48 1008.46 1919.08 1008.69 1918.64 1009.08 1918.16 1009.64 1917.69 1010.2 1917.06 1011.07 1916.27 1012.26L1913.96 1010.73C1915.45 1008.47 1916.89 1006.78 1918.27 1005.67 1919.65 1004.55 1921.28 1003.99 1923.15 1003.99Z" fill-rule="evenodd"/><text fill="#000000" fill-opacity="0" font-family="Arial,Arial_MSFontService,sans-serif" font-size="35.2524" x="1910.14" y="1034.84">𝑥</text><path d="M1962.77 1020.12C1964.56 1020.12 1966.1 1020.33 1967.36 1020.73 1968.63 1021.14 1969.66 1021.69 1970.46 1022.38 1971.25 1023.07 1971.82 1023.89 1972.18 1024.86 1972.53 1025.83 1972.71 1026.87 1972.71 1027.99 1972.71 1028.66 1972.66 1029.29 1972.57 1029.87 1972.47 1030.45 1972.31 1031.02 1972.07 1031.58 1971.84 1032.14 1971.53 1032.7 1971.16 1033.27 1970.78 1033.84 1970.3 1034.44 1969.73 1035.08 1969.3 1035.63 1968.74 1036.27 1968.05 1037 1967.36 1037.72 1966.6 1038.5 1965.79 1039.33 1964.97 1040.15 1964.11 1041.02 1963.21 1041.91 1962.31 1042.81 1961.44 1043.7 1960.6 1044.58 1959.75 1045.46 1958.97 1046.31 1958.27 1047.14 1957.56 1047.97 1956.98 1048.73 1956.53 1049.42L1966.11 1049.42C1966.92 1049.42 1967.57 1049.39 1968.05 1049.33 1968.53 1049.27 1968.93 1049.13 1969.25 1048.93 1969.57 1048.72 1969.84 1048.41 1970.07 1047.98 1970.29 1047.56 1970.55 1046.98 1970.84 1046.24L1973.25 1046.24C1973.17 1047.46 1973.08 1048.69 1973.01 1049.94 1972.93 1051.18 1972.85 1052.41 1972.76 1053.64L1950.84 1053.64 1950.84 1052.29C1951.25 1051.36 1951.74 1050.44 1952.29 1049.54 1952.84 1048.63 1953.46 1047.71 1954.15 1046.78 1954.84 1045.85 1955.63 1044.89 1956.51 1043.89 1957.39 1042.9 1958.36 1041.87 1959.43 1040.8 1961.05 1039.18 1962.37 1037.8 1963.39 1036.65 1964.41 1035.5 1965.21 1034.48 1965.8 1033.58 1966.38 1032.68 1966.79 1031.86 1967 1031.1 1967.22 1030.34 1967.33 1029.53 1967.33 1028.66 1967.33 1027.78 1967.2 1026.97 1966.95 1026.23 1966.7 1025.49 1966.34 1024.86 1965.88 1024.34 1965.41 1023.83 1964.82 1023.42 1964.1 1023.13 1963.39 1022.83 1962.56 1022.69 1961.63 1022.69 1960.03 1022.69 1958.68 1023.12 1957.59 1023.99 1956.51 1024.86 1955.66 1026.13 1955.06 1027.78L1951.67 1027.78 1951.67 1022.74C1953.88 1021.82 1955.91 1021.16 1957.76 1020.75 1959.62 1020.33 1961.29 1020.12 1962.77 1020.12Z" fill-rule="evenodd"/><text fill="#000000" fill-opacity="0" font-family="Arial,Arial_MSFontService,sans-serif" font-size="33.5132" x="1950.84" y="1049.45">2</text><path d="M2066.4 1004.03C2067.38 1004.03 2068.21 1004.16 2068.9 1004.42 2069.37 1004.61 2069.85 1004.92 2070.32 1005.36 2070.8 1005.8 2071.22 1006.41 2071.59 1007.2 2071.96 1007.98 2072.28 1008.86 2072.55 1009.84 2072.82 1010.81 2073.13 1012.21 2073.46 1014.04 2074.03 1017.11 2074.58 1020.33 2075.12 1023.72 2075.65 1027.11 2076.11 1030.25 2076.49 1033.15 2078.79 1029.82 2080.75 1026.57 2082.35 1023.38 2083.96 1020.2 2085.11 1017.43 2085.81 1015.08 2086.51 1012.72 2086.86 1010.81 2086.86 1009.34 2086.86 1008.22 2086.62 1007.46 2086.15 1007.06 2085.67 1006.65 2084.87 1006.41 2083.73 1006.34L2084.08 1004.6 2093.46 1004.6 2094.42 1006.38C2092.61 1011.32 2090.17 1016.61 2087.08 1022.24 2084.03 1027.75 2080.55 1033.24 2076.63 1038.71 2072.88 1043.91 2069.75 1047.68 2067.26 1050.01 2065.52 1051.6 2063.85 1052.74 2062.23 1053.43 2060.95 1053.95 2059.58 1054.21 2058.13 1054.21 2057.63 1054.21 2057.06 1054.17 2056.4 1054.09 2055.75 1054.01 2055.25 1053.89 2054.89 1053.75L2056.42 1046.84 2059.24 1046.84C2059.24 1048.36 2059.76 1049.12 2060.81 1049.12 2062.18 1049.12 2063.79 1048.26 2065.62 1046.53 2067.45 1044.81 2069.6 1042.21 2072.07 1038.74 2071.38 1034.59 2070.44 1029.57 2069.25 1023.7 2067.99 1017.43 2067.16 1013.54 2066.76 1012.05 2066.26 1010.24 2065.74 1009.09 2065.19 1008.59 2064.86 1008.28 2064.44 1008.13 2063.94 1008.13 2063.18 1008.13 2062.47 1008.43 2061.8 1009.05 2061.14 1009.67 2060.32 1010.74 2059.34 1012.26L2057.03 1010.73C2058.67 1008.28 2060.2 1006.55 2061.63 1005.54 2063.05 1004.53 2064.64 1004.03 2066.4 1004.03Z" fill-rule="evenodd"/><text fill="#000000" fill-opacity="0" font-family="Arial,Arial_MSFontService,sans-serif" font-size="50.1875" x="2054.89" y="1047.94">𝑦</text><path d="M2109.12 1020.12C2110.91 1020.12 2112.44 1020.33 2113.71 1020.73 2114.98 1021.14 2116.01 1021.69 2116.8 1022.38 2117.6 1023.07 2118.17 1023.89 2118.52 1024.86 2118.88 1025.83 2119.05 1026.87 2119.05 1027.99 2119.05 1028.66 2119.01 1029.29 2118.91 1029.87 2118.82 1030.45 2118.65 1031.02 2118.42 1031.58 2118.19 1032.14 2117.88 1032.7 2117.5 1033.27 2117.12 1033.84 2116.65 1034.44 2116.08 1035.08 2115.65 1035.63 2115.09 1036.27 2114.4 1037 2113.71 1037.72 2112.95 1038.5 2112.13 1039.33 2111.31 1040.15 2110.45 1041.02 2109.56 1041.91 2108.66 1042.81 2107.79 1043.7 2106.94 1044.58 2106.1 1045.46 2105.32 1046.31 2104.61 1047.14 2103.91 1047.97 2103.33 1048.73 2102.88 1049.42L2112.45 1049.42C2113.27 1049.42 2113.91 1049.39 2114.4 1049.33 2114.88 1049.27 2115.28 1049.13 2115.6 1048.93 2115.92 1048.72 2116.19 1048.41 2116.41 1047.98 2116.64 1047.56 2116.9 1046.98 2117.19 1046.24L2119.6 1046.24C2119.51 1047.46 2119.43 1048.69 2119.35 1049.94 2119.27 1051.18 2119.19 1052.41 2119.11 1053.64L2097.19 1053.64 2097.19 1052.29C2097.6 1051.36 2098.08 1050.44 2098.64 1049.54 2099.19 1048.63 2099.81 1047.71 2100.5 1046.78 2101.19 1045.85 2101.97 1044.89 2102.85 1043.89 2103.73 1042.9 2104.71 1041.87 2105.78 1040.8 2107.4 1039.18 2108.72 1037.8 2109.74 1036.65 2110.76 1035.5 2111.56 1034.48 2112.14 1033.58 2112.73 1032.68 2113.13 1031.86 2113.35 1031.1 2113.56 1030.34 2113.67 1029.53 2113.67 1028.66 2113.67 1027.78 2113.55 1026.97 2113.3 1026.23 2113.05 1025.49 2112.69 1024.86 2112.22 1024.34 2111.76 1023.83 2111.17 1023.42 2110.45 1023.13 2109.73 1022.83 2108.91 1022.69 2107.98 1022.69 2106.37 1022.69 2105.03 1023.12 2103.94 1023.99 2102.85 1024.86 2102.01 1026.13 2101.4 1027.78L2098.01 1027.78 2098.01 1022.74C2100.22 1021.82 2102.25 1021.16 2104.11 1020.75 2105.96 1020.33 2107.63 1020.12 2109.12 1020.12Z" fill-rule="evenodd"/><text fill="#000000" fill-opacity="0" font-family="Arial,Arial_MSFontService,sans-serif" font-size="33.5132" x="2097.19" y="1049.45">2</text><path d="M2153.5 955.496C2160.44 957.326 2165.77 961.276 2169.49 967.348 2173.21 973.419 2175.07 980.744 2175.07 989.323 2175.07 997.925 2173.22 1005.25 2169.51 1011.3 2165.8 1017.35 2160.47 1021.28 2153.5 1023.11L2152.65 1020.37C2158.14 1018.54 2162.22 1014.93 2164.89 1009.53 2167.57 1004.14 2168.9 997.283 2168.9 988.966 2168.9 980.934 2167.57 974.263 2164.91 968.952 2162.25 963.641 2158.13 960.07 2152.54 958.241Z" fill-rule="evenodd"/><text fill="#000000" fill-opacity="0" font-family="Arial,Arial_MSFontService,sans-serif" font-size="67.6177" x="2152.54" y="1014.66">)</text></g></svg>