<svg width="2488" height="216" xmlns="http://www.w3.org/2000/svg" xmlns:xlink="http://www.w3.org/1999/xlink" overflow="hidden"><defs><clipPath id="clip0"><rect x="956" y="857" width="2488" height="216"/></clipPath></defs><g clip-path="url(#clip0)" transform="translate(-956 -857)"><path d="M1613.55 972.32C1615.07 972.32 1616.27 972.831 1617.15 973.853 1618.03 974.875 1618.47 976.253 1618.47 977.988 1618.47 979.865 1618.1 982.206 1617.37 985.01L1615.8 991.176C1615.39 992.745 1615.1 993.968 1614.92 994.848 1614.75 995.727 1614.62 996.487 1614.53 997.129 1614.45 997.77 1614.41 998.305 1614.41 998.733 1614.41 1000.37 1614.68 1001.55 1615.23 1002.28 1615.77 1003 1616.67 1003.37 1617.9 1003.37 1618.9 1003.37 1619.97 1002.97 1621.13 1002.17 1622.28 1001.38 1623.5 1000.18 1624.8 998.572 1626.09 996.968 1627.13 995.412 1627.92 993.903 1628.7 992.394 1629.34 990.535 1629.84 988.325L1633.23 972.891 1639.39 972.891 1634.19 995.489C1633.67 997.77 1633.41 999.529 1633.41 1000.76 1633.41 1001.72 1633.56 1002.4 1633.87 1002.83 1634.18 1003.26 1634.67 1003.47 1635.33 1003.47 1636.04 1003.47 1636.8 1003.18 1637.61 1002.6 1638.42 1002.02 1639.56 1000.91 1641.03 999.267L1643.07 1001.26C1640.9 1003.57 1639.06 1005.2 1637.54 1006.15 1636.02 1007.1 1634.4 1007.57 1632.69 1007.57 1631.22 1007.57 1630.04 1007.09 1629.16 1006.11 1628.29 1005.14 1627.85 1003.84 1627.85 1002.23 1627.85 1000.94 1628.13 999.541 1628.7 998.02L1628.27 997.877C1625.92 1001.18 1623.69 1003.62 1621.59 1005.18 1619.49 1006.75 1617.33 1007.54 1615.12 1007.54 1612.91 1007.54 1611.21 1006.9 1610.02 1005.63 1608.84 1004.36 1608.24 1002.59 1608.24 1000.34 1608.24 998.84 1608.59 996.713 1609.28 993.956L1611.59 984.618C1612.23 982.027 1612.55 980.198 1612.55 979.128 1612.55 978.178 1612.4 977.489 1612.09 977.061 1611.78 976.633 1611.3 976.419 1610.63 976.419 1609.89 976.419 1609.11 976.722 1608.3 977.328 1607.48 977.934 1606.35 979.033 1604.93 980.625L1602.89 978.629C1604.91 976.586 1606.44 975.184 1607.46 974.423 1608.48 973.663 1609.46 973.122 1610.4 972.801 1611.34 972.481 1612.39 972.32 1613.55 972.32Z" fill-rule="evenodd"/><text fill="#000000" fill-opacity="0" font-family="Arial,Arial_MSFontService,sans-serif" font-size="35.2524" x="1602.89" y="1003.17">𝑢</text><path d="M1634.77 949.543 1643.72 957.278 1643.72 959.987 1627.46 959.987 1616.84 959.987 1606.07 959.987 1606.07 956.637 1616.84 956.637 1627.46 956.637 1638.59 956.637 1632.88 951.682Z" fill-rule="evenodd"/><path d="M1672.06 966.617 1688.21 982.728 1704.36 966.617 1707.71 969.932 1691.74 986.186 1707.74 1002.37 1704.18 1005.93 1688.21 989.643 1671.74 1005.79 1668.43 1002.44 1684.72 986.186 1668.5 970.182Z" fill-rule="evenodd"/><text fill="#000000" fill-opacity="0" font-family="Arial,Arial_MSFontService,sans-serif" font-size="39.3159" x="1668.43" y="1001.02">×</text><path d="M1764.2 972.178C1765.91 972.178 1767.14 972.623 1767.9 973.514 1768.66 974.405 1769.04 975.599 1769.04 977.097 1769.04 978.237 1768.84 979.544 1768.44 981.017 1768.03 982.491 1767.46 984.047 1766.73 985.687 1765.99 987.327 1765.11 989.008 1764.09 990.731 1763.07 992.453 1761.94 994.129 1760.7 995.756 1759.47 997.384 1758.15 998.917 1756.75 1000.35 1755.35 1001.79 1753.89 1003.05 1752.38 1004.12 1750.87 1005.18 1749.34 1006.03 1747.78 1006.66 1746.23 1007.29 1744.68 1007.61 1743.13 1007.61 1742.44 1007.61 1741.87 1007.44 1741.4 1007.09 1740.94 1006.75 1740.56 1006.26 1740.28 1005.63 1739.99 1005 1739.79 1004.26 1739.67 1003.4 1739.55 1002.55 1739.5 1001.61 1739.5 1000.59 1739.5 999.232 1739.58 997.782 1739.74 996.238 1739.91 994.693 1740.12 993.137 1740.39 991.568L1741.88 981.695C1741.98 981.124 1742.06 980.584 1742.12 980.073 1742.17 979.562 1742.2 979.188 1742.2 978.95 1742.2 978.213 1742.09 977.607 1741.85 977.132 1741.61 976.657 1741.21 976.419 1740.64 976.419 1740.18 976.419 1739.7 976.556 1739.17 976.829 1738.65 977.102 1738.12 977.453 1737.59 977.881 1737.05 978.308 1736.54 978.766 1736.04 979.253 1735.54 979.74 1735.08 980.198 1734.65 980.625L1732.94 978.629C1733.67 977.869 1734.46 977.114 1735.29 976.366 1736.12 975.617 1737 974.94 1737.93 974.334 1738.85 973.728 1739.83 973.241 1740.85 972.873 1741.87 972.504 1742.92 972.32 1743.99 972.32 1744.89 972.32 1745.63 972.469 1746.2 972.766 1746.77 973.063 1747.21 973.455 1747.53 973.942 1747.85 974.429 1748.07 974.964 1748.19 975.546 1748.31 976.128 1748.37 976.704 1748.37 977.275 1748.37 977.607 1748.36 977.928 1748.34 978.237 1748.31 978.546 1748.28 978.831 1748.23 979.093L1746.23 991.996C1746.02 993.35 1745.84 994.675 1745.7 995.97 1745.55 997.265 1745.48 998.412 1745.48 999.41 1745.48 1000.41 1745.54 1001.22 1745.66 1001.83 1745.78 1002.45 1746.01 1002.76 1746.34 1002.76 1747.12 1002.76 1748.11 1002.45 1749.3 1001.82 1750.49 1001.19 1751.73 1000.32 1753.04 999.214 1754.35 998.109 1755.65 996.802 1756.96 995.293 1758.27 993.784 1759.44 992.15 1760.49 990.392 1761.54 988.633 1762.39 986.78 1763.04 984.831 1763.69 982.883 1764.02 980.922 1764.02 978.95 1764.02 978.095 1763.83 977.435 1763.47 976.972 1763.1 976.508 1762.52 976.277 1761.74 976.277 1760.74 976.277 1759.82 976.663 1758.97 977.435 1758.13 978.207 1757.26 979.223 1756.36 980.483L1754.32 978.665C1754.89 977.809 1755.56 976.99 1756.34 976.205 1757.11 975.421 1757.93 974.732 1758.8 974.138 1759.66 973.544 1760.56 973.069 1761.49 972.712 1762.41 972.356 1763.32 972.178 1764.2 972.178Z" fill-rule="evenodd"/><text fill="#000000" fill-opacity="0" font-family="Arial,Arial_MSFontService,sans-serif" font-size="35.4307" x="1732.94" y="1003.18">𝑣</text><path d="M1760.84 949.497 1769.78 957.232 1769.78 959.941 1742.91 959.941 1742.91 956.591 1764.65 956.591 1758.95 951.636Z" fill-rule="evenodd"/><text fill="#000000" fill-opacity="0" font-family="Arial,Arial_MSFontService,sans-serif" font-size="10.4438" x="1742.91" y="958.636">റ</text><path d="M1798.38 991.176 1842.3 991.176 1842.3 995.917 1798.38 995.917ZM1798.38 976.384 1842.3 976.384 1842.3 981.124 1798.38 981.124Z" fill-rule="evenodd"/><text fill="#000000" fill-opacity="0" font-family="Arial,Arial_MSFontService,sans-serif" font-size="19.5332" x="1798.38" y="993.475">=</text><path d="M1896.43 955.496 1897.39 958.241C1891.83 960.07 1887.71 963.641 1885.04 968.952 1882.36 974.263 1881.03 980.934 1881.03 988.966 1881.03 997.283 1882.36 1004.14 1885.04 1009.53 1887.71 1014.93 1891.79 1018.54 1897.28 1020.37L1896.43 1023.11C1889.46 1021.28 1884.13 1017.35 1880.42 1011.3 1876.72 1005.25 1874.86 997.925 1874.86 989.323 1874.86 980.744 1876.72 973.419 1880.44 967.348 1884.16 961.276 1889.49 957.326 1896.43 955.496Z" fill-rule="evenodd"/><text fill="#000000" fill-opacity="0" font-family="Arial,Arial_MSFontService,sans-serif" font-size="67.6177" x="1874.86" y="1014.66">(</text><path d="M2145.21 926.267 2151.02 926.267 2151.02 1046.03 2145.21 1046.03ZM1907.61 926.267 1913.42 926.267 1913.42 1046.03 1907.61 1046.03Z" fill-rule="evenodd"/><path d="M1934.96 918.02C1935.93 918.02 1936.76 918.151 1937.45 918.412 1937.93 918.603 1938.4 918.917 1938.88 919.357 1939.35 919.797 1939.77 920.409 1940.14 921.193 1940.51 921.977 1940.83 922.856 1941.1 923.83 1941.38 924.805 1941.68 926.207 1942.01 928.036 1942.58 931.102 1943.14 934.328 1943.67 937.714 1944.21 941.1 1944.66 944.243 1945.04 947.142 1947.35 943.815 1949.3 940.56 1950.91 937.375 1952.51 934.191 1953.66 931.423 1954.36 929.07 1955.07 926.718 1955.42 924.805 1955.42 923.331 1955.42 922.215 1955.18 921.454 1954.7 921.05 1954.23 920.646 1953.42 920.409 1952.28 920.337L1952.64 918.591 1962.01 918.591 1962.97 920.373C1961.17 925.316 1958.72 930.603 1955.63 936.235 1952.59 941.748 1949.11 947.237 1945.19 952.703 1941.43 957.907 1938.31 961.673 1935.81 964.002 1934.08 965.594 1932.4 966.735 1930.79 967.424 1929.5 967.946 1928.14 968.208 1926.69 968.208 1926.19 968.208 1925.61 968.166 1924.96 968.083 1924.3 968 1923.8 967.887 1923.44 967.745L1924.98 960.829 1927.79 960.829C1927.79 962.35 1928.31 963.111 1929.36 963.111 1930.74 963.111 1932.34 962.249 1934.17 960.526 1936 958.804 1938.15 956.208 1940.62 952.738 1939.93 948.58 1939 943.566 1937.81 937.696 1936.55 931.423 1935.72 927.537 1935.31 926.04 1934.81 924.234 1934.29 923.082 1933.74 922.583 1933.41 922.274 1933 922.12 1932.5 922.12 1931.74 922.12 1931.02 922.428 1930.36 923.046 1929.69 923.664 1928.87 924.733 1927.9 926.254L1925.58 924.722C1927.22 922.274 1928.75 920.545 1930.18 919.535 1931.61 918.525 1933.2 918.02 1934.96 918.02Z" fill-rule="evenodd"/><text fill="#000000" fill-opacity="0" font-family="Arial,Arial_MSFontService,sans-serif" font-size="50.1875" x="1923.44" y="961.934">𝑦</text><path d="M1977.99 934.299 1979.57 934.299C1979.54 935.248 1979.51 936.098 1979.49 936.849 1979.48 937.599 1979.46 938.328 1979.46 939.035 1979.45 939.743 1979.44 940.441 1979.44 941.131L1979.44 960.799C1979.44 961.334 1979.46 961.796 1979.49 962.184 1979.53 962.572 1979.58 962.9 1979.66 963.167 1979.74 963.435 1979.84 963.663 1979.97 963.853 1980.1 964.043 1980.25 964.207 1980.43 964.345 1980.63 964.552 1980.91 964.711 1981.25 964.824 1981.6 964.936 1982.04 965.031 1982.57 965.108 1983.11 965.186 1983.75 965.246 1984.5 965.289 1985.25 965.333 1986.15 965.363 1987.21 965.38L1987.21 967.631 1966.68 967.631 1966.68 965.38C1967.7 965.346 1968.56 965.307 1969.27 965.264 1969.98 965.22 1970.58 965.16 1971.08 965.082 1971.58 965.005 1971.98 964.919 1972.29 964.824 1972.59 964.729 1972.85 964.612 1973.08 964.474 1973.32 964.319 1973.52 964.151 1973.7 963.97 1973.87 963.788 1974.01 963.56 1974.11 963.284 1974.21 963.008 1974.3 962.671 1974.36 962.275 1974.42 961.878 1974.45 961.386 1974.45 960.799L1974.45 942.244C1974.45 941.571 1974.32 941.097 1974.06 940.821 1973.8 940.545 1973.43 940.407 1972.95 940.407 1972.41 940.407 1971.62 940.683 1970.57 941.235 1969.51 941.787 1968.15 942.607 1966.48 943.693 1966.25 943.297 1966.05 942.9 1965.86 942.503 1965.67 942.106 1965.47 941.701 1965.26 941.287 1967.4 940.114 1969.52 938.945 1971.61 937.78 1973.71 936.616 1975.84 935.455 1977.99 934.299Z" fill-rule="evenodd"/><text fill="#000000" fill-opacity="0" font-family="Arial,Arial_MSFontService,sans-serif" font-size="33.332" x="1965.26" y="963.465">1</text><path d="M2077.92 918.591 2103.26 918.591 2103.94 920.373 2086.93 939.906C2083.63 943.684 2080.77 946.892 2078.34 949.53L2078.56 949.78 2086.61 949.78C2088.04 949.78 2089.13 949.702 2089.89 949.548 2090.65 949.393 2091.32 949.102 2091.89 948.675 2092.46 948.247 2093.05 947.599 2093.65 946.732 2094.26 945.865 2095.01 944.504 2095.92 942.651L2099.09 942.651 2096.91 952.667 2071.11 952.667 2070.43 950.92 2089.93 928.464C2092.68 925.304 2094.7 923.058 2095.99 921.727L2095.77 921.478 2087.43 921.478C2086.2 921.478 2085.29 921.561 2084.72 921.727 2084.15 921.894 2083.58 922.185 2083.01 922.601 2082.44 923.017 2081.83 923.634 2081.18 924.454 2080.52 925.274 2079.79 926.444 2078.99 927.965L2075.81 927.965Z" fill-rule="evenodd"/><text fill="#000000" fill-opacity="0" font-family="Arial,Arial_MSFontService,sans-serif" font-size="34.0762" x="2070.43" y="948.407">𝑧</text><path d="M2119.05 934.299 2120.62 934.299C2120.59 935.248 2120.56 936.098 2120.55 936.849 2120.53 937.599 2120.52 938.328 2120.51 939.035 2120.5 939.743 2120.49 940.441 2120.49 941.131L2120.49 960.799C2120.49 961.334 2120.51 961.796 2120.55 962.184 2120.58 962.572 2120.64 962.9 2120.71 963.167 2120.79 963.435 2120.9 963.663 2121.02 963.853 2121.15 964.043 2121.31 964.207 2121.48 964.345 2121.68 964.552 2121.96 964.711 2122.31 964.824 2122.65 964.936 2123.09 965.031 2123.63 965.108 2124.16 965.186 2124.8 965.246 2125.55 965.289 2126.3 965.333 2127.21 965.363 2128.26 965.38L2128.26 967.631 2107.74 967.631 2107.74 965.38C2108.75 965.346 2109.62 965.307 2110.32 965.264 2111.03 965.22 2111.64 965.16 2112.14 965.082 2112.64 965.005 2113.04 964.919 2113.34 964.824 2113.64 964.729 2113.9 964.612 2114.13 964.474 2114.37 964.319 2114.58 964.151 2114.75 963.97 2114.92 963.788 2115.06 963.56 2115.16 963.284 2115.27 963.008 2115.35 962.671 2115.41 962.275 2115.47 961.878 2115.5 961.386 2115.5 960.799L2115.5 942.244C2115.5 941.571 2115.37 941.097 2115.11 940.821 2114.85 940.545 2114.48 940.407 2114 940.407 2113.46 940.407 2112.67 940.683 2111.62 941.235 2110.57 941.787 2109.2 942.607 2107.53 943.693 2107.3 943.297 2107.1 942.9 2106.91 942.503 2106.72 942.106 2106.52 941.701 2106.31 941.287 2108.45 940.114 2110.57 938.945 2112.67 937.78 2114.76 936.616 2116.89 935.455 2119.05 934.299Z" fill-rule="evenodd"/><text fill="#000000" fill-opacity="0" font-family="Arial,Arial_MSFontService,sans-serif" font-size="33.332" x="2106.31" y="963.465">1</text><path d="M1934.11 1004C1935.08 1004 1935.91 1004.13 1936.6 1004.4 1937.08 1004.59 1937.55 1004.9 1938.03 1005.34 1938.5 1005.78 1938.93 1006.39 1939.29 1007.18 1939.66 1007.96 1939.98 1008.84 1940.26 1009.81 1940.53 1010.79 1940.83 1012.19 1941.17 1014.02 1941.74 1017.09 1942.29 1020.31 1942.82 1023.7 1943.36 1027.08 1943.82 1030.23 1944.2 1033.13 1946.5 1029.8 1948.46 1026.54 1950.06 1023.36 1951.66 1020.17 1952.82 1017.41 1953.52 1015.05 1954.22 1012.7 1954.57 1010.79 1954.57 1009.31 1954.57 1008.2 1954.33 1007.44 1953.86 1007.03 1953.38 1006.63 1952.57 1006.39 1951.43 1006.32L1951.79 1004.57 1961.16 1004.57 1962.12 1006.36C1960.32 1011.3 1957.87 1016.59 1954.78 1022.22 1951.74 1027.73 1948.26 1033.22 1944.34 1038.69 1940.58 1043.89 1937.46 1047.66 1934.96 1049.99 1933.23 1051.58 1931.55 1052.72 1929.94 1053.41 1928.65 1053.93 1927.29 1054.19 1925.84 1054.19 1925.34 1054.19 1924.76 1054.15 1924.11 1054.07 1923.46 1053.98 1922.95 1053.87 1922.6 1053.73L1924.13 1046.81 1926.94 1046.81C1926.94 1048.33 1927.47 1049.09 1928.51 1049.09 1929.89 1049.09 1931.49 1048.23 1933.32 1046.51 1935.15 1044.79 1937.3 1042.19 1939.78 1038.72 1939.09 1034.56 1938.15 1029.55 1936.96 1023.68 1935.7 1017.41 1934.87 1013.52 1934.46 1012.02 1933.97 1010.22 1933.44 1009.07 1932.9 1008.57 1932.56 1008.26 1932.15 1008.1 1931.65 1008.1 1930.89 1008.1 1930.18 1008.41 1929.51 1009.03 1928.84 1009.65 1928.03 1010.72 1927.05 1012.24L1924.73 1010.7C1926.37 1008.26 1927.91 1006.53 1929.33 1005.52 1930.76 1004.51 1932.35 1004 1934.11 1004Z" fill-rule="evenodd"/><text fill="#000000" fill-opacity="0" font-family="Arial,Arial_MSFontService,sans-serif" font-size="50.1875" x="1922.6" y="1047.92">𝑦</text><path d="M1976.82 1020.1C1978.62 1020.1 1980.15 1020.3 1981.42 1020.71 1982.68 1021.12 1983.71 1021.66 1984.51 1022.35 1985.3 1023.04 1985.88 1023.87 1986.23 1024.84 1986.58 1025.8 1986.76 1026.85 1986.76 1027.97 1986.76 1028.64 1986.71 1029.27 1986.62 1029.84 1986.52 1030.42 1986.36 1030.99 1986.13 1031.55 1985.89 1032.11 1985.59 1032.68 1985.21 1033.25 1984.83 1033.82 1984.35 1034.42 1983.78 1035.06 1983.35 1035.61 1982.79 1036.25 1982.1 1036.97 1981.41 1037.7 1980.66 1038.48 1979.84 1039.3 1979.02 1040.13 1978.16 1040.99 1977.26 1041.89 1976.37 1042.79 1975.49 1043.68 1974.65 1044.56 1973.8 1045.44 1973.03 1046.29 1972.32 1047.12 1971.61 1047.95 1971.03 1048.71 1970.59 1049.4L1980.16 1049.4C1980.97 1049.4 1981.62 1049.37 1982.1 1049.31 1982.58 1049.25 1982.99 1049.11 1983.31 1048.9 1983.62 1048.7 1983.9 1048.38 1984.12 1047.96 1984.34 1047.54 1984.6 1046.96 1984.9 1046.21L1987.3 1046.21C1987.22 1047.44 1987.14 1048.67 1987.06 1049.91 1986.98 1051.16 1986.9 1052.39 1986.81 1053.61L1964.89 1053.61 1964.89 1052.27C1965.31 1051.34 1965.79 1050.42 1966.34 1049.51 1966.89 1048.61 1967.51 1047.69 1968.2 1046.76 1968.89 1045.83 1969.68 1044.86 1970.56 1043.87 1971.44 1042.88 1972.41 1041.85 1973.48 1040.78 1975.11 1039.16 1976.43 1037.77 1977.44 1036.63 1978.46 1035.48 1979.26 1034.46 1979.85 1033.56 1980.44 1032.66 1980.84 1031.83 1981.05 1031.07 1981.27 1030.32 1981.38 1029.5 1981.38 1028.64 1981.38 1027.76 1981.25 1026.95 1981 1026.21 1980.75 1025.47 1980.39 1024.84 1979.93 1024.32 1979.46 1023.8 1978.87 1023.4 1978.16 1023.1 1977.44 1022.81 1976.62 1022.66 1975.68 1022.66 1974.08 1022.66 1972.73 1023.1 1971.65 1023.97 1970.56 1024.84 1969.71 1026.11 1969.11 1027.76L1965.72 1027.76 1965.72 1022.72C1967.93 1021.8 1969.96 1021.14 1971.81 1020.72 1973.67 1020.31 1975.34 1020.1 1976.82 1020.1Z" fill-rule="evenodd"/><text fill="#000000" fill-opacity="0" font-family="Arial,Arial_MSFontService,sans-serif" font-size="33.5132" x="1964.89" y="1049.43">2</text><path d="M2077.07 1004.57 2102.41 1004.57 2103.09 1006.36 2086.09 1025.89C2082.78 1029.67 2079.92 1032.88 2077.5 1035.51L2077.71 1035.76 2085.77 1035.76C2087.19 1035.76 2088.28 1035.69 2089.04 1035.53 2089.81 1035.38 2090.47 1035.09 2091.04 1034.66 2091.61 1034.23 2092.2 1033.58 2092.81 1032.72 2093.41 1031.85 2094.17 1030.49 2095.07 1028.63L2098.24 1028.63 2096.07 1038.65 2070.26 1038.65 2069.58 1036.9 2089.08 1014.45C2091.84 1011.29 2093.86 1009.04 2095.14 1007.71L2094.93 1007.46 2086.59 1007.46C2085.35 1007.46 2084.45 1007.54 2083.88 1007.71 2083.31 1007.88 2082.74 1008.17 2082.17 1008.58 2081.59 1009 2080.98 1009.62 2080.33 1010.44 2079.68 1011.26 2078.95 1012.43 2078.14 1013.95L2074.97 1013.95Z" fill-rule="evenodd"/><text fill="#000000" fill-opacity="0" font-family="Arial,Arial_MSFontService,sans-serif" font-size="34.0762" x="2069.58" y="1034.39">𝑧</text><path d="M2117.87 1020.1C2119.67 1020.1 2121.2 1020.3 2122.47 1020.71 2123.74 1021.12 2124.77 1021.66 2125.56 1022.35 2126.35 1023.04 2126.93 1023.87 2127.28 1024.84 2127.64 1025.8 2127.81 1026.85 2127.81 1027.97 2127.81 1028.64 2127.76 1029.27 2127.67 1029.84 2127.57 1030.42 2127.41 1030.99 2127.18 1031.55 2126.95 1032.11 2126.64 1032.68 2126.26 1033.25 2125.88 1033.82 2125.41 1034.42 2124.84 1035.06 2124.4 1035.61 2123.84 1036.25 2123.15 1036.97 2122.46 1037.7 2121.71 1038.48 2120.89 1039.3 2120.07 1040.13 2119.21 1040.99 2118.31 1041.89 2117.42 1042.79 2116.55 1043.68 2115.7 1044.56 2114.86 1045.44 2114.08 1046.29 2113.37 1047.12 2112.66 1047.95 2112.09 1048.71 2111.64 1049.4L2121.21 1049.4C2122.02 1049.4 2122.67 1049.37 2123.15 1049.31 2123.64 1049.25 2124.04 1049.11 2124.36 1048.9 2124.68 1048.7 2124.95 1048.38 2125.17 1047.96 2125.4 1047.54 2125.66 1046.96 2125.95 1046.21L2128.36 1046.21C2128.27 1047.44 2128.19 1048.67 2128.11 1049.91 2128.03 1051.16 2127.95 1052.39 2127.86 1053.61L2105.94 1053.61 2105.94 1052.27C2106.36 1051.34 2106.84 1050.42 2107.39 1049.51 2107.95 1048.61 2108.57 1047.69 2109.26 1046.76 2109.95 1045.83 2110.73 1044.86 2111.61 1043.87 2112.49 1042.88 2113.47 1041.85 2114.54 1040.78 2116.16 1039.16 2117.48 1037.77 2118.5 1036.63 2119.51 1035.48 2120.32 1034.46 2120.9 1033.56 2121.49 1032.66 2121.89 1031.83 2122.11 1031.07 2122.32 1030.32 2122.43 1029.5 2122.43 1028.64 2122.43 1027.76 2122.3 1026.95 2122.05 1026.21 2121.8 1025.47 2121.45 1024.84 2120.98 1024.32 2120.51 1023.8 2119.92 1023.4 2119.21 1023.1 2118.49 1022.81 2117.67 1022.66 2116.74 1022.66 2115.13 1022.66 2113.79 1023.1 2112.7 1023.97 2111.61 1024.84 2110.77 1026.11 2110.16 1027.76L2106.77 1027.76 2106.77 1022.72C2108.98 1021.8 2111.01 1021.14 2112.87 1020.72 2114.72 1020.31 2116.39 1020.1 2117.87 1020.1Z" fill-rule="evenodd"/><text fill="#000000" fill-opacity="0" font-family="Arial,Arial_MSFontService,sans-serif" font-size="33.5132" x="2105.94" y="1049.43">2</text><path d="M2176.94 998.733 2183.17 998.733C2183.51 1000.4 2183.67 1002.04 2183.67 1003.65 2183.67 1005.32 2183.39 1006.84 2182.82 1008.21 2182.25 1009.59 2181.34 1010.96 2180.09 1012.33 2178.84 1013.7 2177.13 1015.2 2174.94 1016.84L2173.02 1014.67C2174.23 1013.53 2175.11 1012.5 2175.65 1011.58 2176.2 1010.67 2176.59 1009.63 2176.83 1008.46 2177.07 1007.3 2177.19 1005.84 2177.19 1004.08 2177.19 1002.27 2177.1 1000.49 2176.94 998.733Z" fill-rule="evenodd"/><text fill="#000000" fill-opacity="0" font-family="Arial,Arial_MSFontService,sans-serif" font-size="18.1074" x="2173.02" y="1014.58">,</text><path d="M2444.9 926.267 2450.71 926.267 2450.71 1046.03 2444.9 1046.03ZM2208.07 926.267 2213.88 926.267 2213.88 1046.03 2208.07 1046.03Z" fill-rule="evenodd"/><path d="M2232.03 918.934 2257.37 918.934 2258.05 920.717 2241.05 940.25C2237.75 944.028 2234.88 947.236 2232.46 949.874L2232.67 950.123 2240.73 950.123C2242.15 950.123 2243.25 950.046 2244.01 949.892 2244.77 949.737 2245.43 949.446 2246 949.018 2246.57 948.591 2247.16 947.943 2247.77 947.076 2248.37 946.208 2249.13 944.848 2250.03 942.995L2253.2 942.995 2251.03 953.011 2225.22 953.011 2224.55 951.264 2244.04 928.808C2246.8 925.648 2248.82 923.402 2250.1 922.071L2249.89 921.822 2241.55 921.822C2240.31 921.822 2239.41 921.905 2238.84 922.071 2238.27 922.237 2237.7 922.529 2237.13 922.944 2236.56 923.36 2235.95 923.978 2235.29 924.798 2234.64 925.618 2233.91 926.788 2233.1 928.309L2229.93 928.309Z" fill-rule="evenodd"/><text fill="#000000" fill-opacity="0" font-family="Arial,Arial_MSFontService,sans-serif" font-size="34.0762" x="2224.55" y="948.751">𝑧</text><path d="M2273.16 934.643 2274.74 934.643C2274.7 935.592 2274.68 936.442 2274.66 937.192 2274.64 937.943 2274.63 938.672 2274.62 939.379 2274.61 940.086 2274.61 940.785 2274.61 941.475L2274.61 961.143C2274.61 961.678 2274.63 962.14 2274.66 962.528 2274.7 962.916 2274.75 963.244 2274.83 963.511 2274.91 963.779 2275.01 964.007 2275.14 964.197 2275.27 964.387 2275.42 964.551 2275.59 964.689 2275.8 964.896 2276.08 965.055 2276.42 965.167 2276.77 965.279 2277.21 965.374 2277.74 965.452 2278.28 965.53 2278.92 965.59 2279.67 965.633 2280.42 965.676 2281.32 965.706 2282.37 965.724L2282.37 967.975 2261.85 967.975 2261.85 965.724C2262.87 965.689 2263.73 965.65 2264.44 965.607 2265.15 965.564 2265.75 965.504 2266.25 965.426 2266.75 965.349 2267.15 965.262 2267.45 965.167 2267.76 965.072 2268.02 964.956 2268.24 964.818 2268.48 964.663 2268.69 964.495 2268.86 964.313 2269.04 964.132 2269.17 963.904 2269.28 963.628 2269.38 963.352 2269.46 963.015 2269.52 962.618 2269.58 962.221 2269.61 961.73 2269.61 961.143L2269.61 942.588C2269.61 941.915 2269.49 941.441 2269.23 941.165 2268.97 940.889 2268.6 940.751 2268.11 940.751 2267.58 940.751 2266.79 941.027 2265.73 941.579 2264.68 942.131 2263.32 942.95 2261.64 944.037 2261.42 943.64 2261.21 943.244 2261.02 942.847 2260.83 942.45 2260.63 942.045 2260.43 941.63 2262.57 940.457 2264.68 939.288 2266.78 938.124 2268.88 936.959 2271 935.799 2273.16 934.643Z" fill-rule="evenodd"/><text fill="#000000" fill-opacity="0" font-family="Arial,Arial_MSFontService,sans-serif" font-size="33.332" x="2260.43" y="963.809">1</text><path d="M2378.79 918.328C2379.52 918.328 2380.17 918.412 2380.73 918.578 2381.29 918.744 2381.78 919 2382.21 919.344 2382.64 919.689 2383.02 920.134 2383.35 920.681 2383.68 921.228 2384 921.97 2384.31 922.909 2384.62 923.847 2384.91 925.012 2385.18 926.402 2385.46 927.792 2385.7 929.236 2385.91 930.733L2386.27 930.733C2388.55 927.525 2390.28 925.178 2391.46 923.693 2392.63 922.208 2393.63 921.103 2394.43 920.378 2395.24 919.653 2396.02 919.142 2396.77 918.845 2397.52 918.548 2398.51 918.4 2399.74 918.4 2400.86 918.4 2401.78 918.542 2402.49 918.828L2401.06 925.279 2398.57 925.279C2398.43 924.281 2398.01 923.782 2397.32 923.782 2397.11 923.782 2396.88 923.818 2396.64 923.889 2396.41 923.96 2396.11 924.115 2395.77 924.352 2395.43 924.59 2394.92 925.053 2394.26 925.743 2393.59 926.432 2392.84 927.275 2392.01 928.273 2391.18 929.271 2390.32 930.317 2389.44 931.41L2387.02 934.44C2387.45 936.721 2387.85 938.693 2388.23 940.357 2388.61 942.02 2388.95 943.404 2389.25 944.509 2389.54 945.614 2389.81 946.488 2390.03 947.129 2390.26 947.771 2390.5 948.252 2390.76 948.573 2391.02 948.894 2391.29 949.119 2391.56 949.25 2391.84 949.381 2392.15 949.446 2392.51 949.446 2393.15 949.446 2393.77 949.197 2394.38 948.698 2394.99 948.199 2395.86 947.07 2397 945.311L2399.32 946.844C2397.65 949.315 2396.15 951.056 2394.81 952.066 2393.47 953.076 2391.87 953.581 2390.01 953.581 2388.99 953.581 2388.12 953.397 2387.41 953.028 2386.7 952.66 2386.08 952.072 2385.56 951.264 2385.04 950.456 2384.57 949.197 2384.17 947.486 2383.43 944.444 2382.98 942.115 2382.81 940.499L2382.46 940.499C2379.94 944.04 2378.07 946.583 2376.84 948.127 2375.62 949.672 2374.61 950.813 2373.81 951.549 2373.02 952.286 2372.24 952.803 2371.5 953.1 2370.75 953.397 2369.76 953.545 2368.52 953.545 2367.4 953.545 2366.49 953.403 2365.78 953.118L2367.2 946.666 2369.7 946.666C2369.84 947.664 2370.25 948.163 2370.94 948.163 2371.28 948.163 2371.63 948.074 2372 947.896 2372.36 947.717 2372.89 947.29 2373.58 946.612 2374.27 945.935 2375.22 944.872 2376.43 943.422 2377.65 941.973 2379.4 939.798 2381.71 936.899 2381.35 935.022 2380.98 933.216 2380.6 931.481 2380.22 929.747 2379.83 928.131 2379.43 926.634 2379.02 925.137 2378.69 924.156 2378.43 923.693 2378.17 923.23 2377.89 922.909 2377.59 922.731 2377.29 922.552 2376.92 922.463 2376.47 922.463 2375.97 922.463 2375.52 922.576 2375.11 922.802 2374.71 923.028 2374.27 923.42 2373.8 923.978 2373.32 924.537 2372.69 925.41 2371.91 926.598L2369.59 925.065C2371.09 922.808 2372.52 921.121 2373.9 920.004 2375.28 918.887 2376.91 918.328 2378.79 918.328Z" fill-rule="evenodd"/><text fill="#000000" fill-opacity="0" font-family="Arial,Arial_MSFontService,sans-serif" font-size="35.2524" x="2365.78" y="949.174">𝑥</text><path d="M2418.73 934.643 2420.31 934.643C2420.27 935.592 2420.24 936.442 2420.23 937.192 2420.21 937.943 2420.2 938.672 2420.19 939.379 2420.18 940.086 2420.18 940.785 2420.18 941.475L2420.18 961.143C2420.18 961.678 2420.19 962.14 2420.23 962.528 2420.26 962.916 2420.32 963.244 2420.4 963.511 2420.47 963.779 2420.58 964.007 2420.71 964.197 2420.84 964.387 2420.99 964.551 2421.16 964.689 2421.37 964.896 2421.64 965.055 2421.99 965.167 2422.33 965.279 2422.77 965.374 2423.31 965.452 2423.84 965.53 2424.48 965.59 2425.24 965.633 2425.99 965.676 2426.89 965.706 2427.94 965.724L2427.94 967.975 2407.42 967.975 2407.42 965.724C2408.44 965.689 2409.3 965.65 2410.01 965.607 2410.71 965.564 2411.32 965.504 2411.82 965.426 2412.32 965.349 2412.72 965.262 2413.02 965.167 2413.32 965.072 2413.59 964.956 2413.81 964.818 2414.05 964.663 2414.26 964.495 2414.43 964.313 2414.6 964.132 2414.74 963.904 2414.84 963.628 2414.95 963.352 2415.03 963.015 2415.09 962.618 2415.15 962.221 2415.18 961.73 2415.18 961.143L2415.18 942.588C2415.18 941.915 2415.05 941.441 2414.79 941.165 2414.53 940.889 2414.16 940.751 2413.68 940.751 2413.15 940.751 2412.35 941.027 2411.3 941.579 2410.25 942.131 2408.88 942.95 2407.21 944.037 2406.99 943.64 2406.78 943.244 2406.59 942.847 2406.4 942.45 2406.2 942.045 2405.99 941.63 2408.13 940.457 2410.25 939.288 2412.35 938.124 2414.44 936.959 2416.57 935.799 2418.73 934.643Z" fill-rule="evenodd"/><text fill="#000000" fill-opacity="0" font-family="Arial,Arial_MSFontService,sans-serif" font-size="33.332" x="2405.99" y="963.809">1</text><path d="M2231.18 1004.92 2256.53 1004.92 2257.2 1006.7 2240.2 1026.23C2236.9 1030.01 2234.03 1033.22 2231.61 1035.86L2231.82 1036.11 2239.88 1036.11C2241.31 1036.11 2242.4 1036.03 2243.16 1035.88 2243.92 1035.72 2244.58 1035.43 2245.16 1035 2245.73 1034.57 2246.31 1033.93 2246.92 1033.06 2247.53 1032.19 2248.28 1030.83 2249.18 1028.98L2252.36 1028.98 2250.18 1038.99 2224.37 1038.99 2223.7 1037.25 2243.19 1014.79C2245.95 1011.63 2247.97 1009.39 2249.25 1008.05L2249.04 1007.81 2240.7 1007.81C2239.46 1007.81 2238.56 1007.89 2237.99 1008.05 2237.42 1008.22 2236.85 1008.51 2236.28 1008.93 2235.71 1009.34 2235.1 1009.96 2234.44 1010.78 2233.79 1011.6 2233.06 1012.77 2232.25 1014.29L2229.08 1014.29Z" fill-rule="evenodd"/><text fill="#000000" fill-opacity="0" font-family="Arial,Arial_MSFontService,sans-serif" font-size="34.0762" x="2223.7" y="1034.73">𝑧</text><path d="M2271.99 1020.45C2273.78 1020.45 2275.31 1020.65 2276.58 1021.05 2277.85 1021.46 2278.88 1022.01 2279.68 1022.7 2280.47 1023.39 2281.04 1024.21 2281.4 1025.18 2281.75 1026.15 2281.93 1027.19 2281.93 1028.31 2281.93 1028.99 2281.88 1029.61 2281.78 1030.19 2281.69 1030.77 2281.53 1031.34 2281.29 1031.9 2281.06 1032.46 2280.75 1033.02 2280.37 1033.59 2279.99 1034.16 2279.52 1034.77 2278.95 1035.4 2278.52 1035.96 2277.96 1036.59 2277.27 1037.32 2276.58 1038.04 2275.82 1038.82 2275 1039.65 2274.18 1040.48 2273.33 1041.34 2272.43 1042.24 2271.53 1043.13 2270.66 1044.02 2269.82 1044.9 2268.97 1045.78 2268.19 1046.63 2267.49 1047.46 2266.78 1048.29 2266.2 1049.05 2265.75 1049.74L2275.33 1049.74C2276.14 1049.74 2276.79 1049.71 2277.27 1049.65 2277.75 1049.59 2278.15 1049.46 2278.47 1049.25 2278.79 1049.04 2279.06 1048.73 2279.29 1048.3 2279.51 1047.88 2279.77 1047.3 2280.06 1046.56L2282.47 1046.56C2282.38 1047.78 2282.3 1049.02 2282.22 1050.26 2282.15 1051.5 2282.06 1052.73 2281.98 1053.96L2260.06 1053.96 2260.06 1052.61C2260.47 1051.68 2260.96 1050.76 2261.51 1049.86 2262.06 1048.95 2262.68 1048.03 2263.37 1047.1 2264.06 1046.17 2264.85 1045.21 2265.73 1044.22 2266.61 1043.22 2267.58 1042.19 2268.65 1041.12 2270.27 1039.5 2271.59 1038.12 2272.61 1036.97 2273.63 1035.82 2274.43 1034.8 2275.02 1033.9 2275.6 1033.01 2276 1032.18 2276.22 1031.42 2276.44 1030.66 2276.54 1029.85 2276.54 1028.99 2276.54 1028.11 2276.42 1027.29 2276.17 1026.55 2275.92 1025.81 2275.56 1025.18 2275.09 1024.66 2274.63 1024.15 2274.04 1023.74 2273.32 1023.45 2272.61 1023.15 2271.78 1023.01 2270.85 1023.01 2269.25 1023.01 2267.9 1023.44 2266.81 1024.31 2265.73 1025.19 2264.88 1026.45 2264.28 1028.11L2260.89 1028.11 2260.89 1023.06C2263.1 1022.14 2265.13 1021.48 2266.98 1021.07 2268.84 1020.65 2270.51 1020.45 2271.99 1020.45Z" fill-rule="evenodd"/><text fill="#000000" fill-opacity="0" font-family="Arial,Arial_MSFontService,sans-serif" font-size="33.5132" x="2260.06" y="1049.77">2</text><path d="M2377.94 1004.31C2378.67 1004.31 2379.32 1004.4 2379.88 1004.56 2380.44 1004.73 2380.93 1004.98 2381.36 1005.33 2381.79 1005.67 2382.17 1006.12 2382.5 1006.66 2382.83 1007.21 2383.15 1007.95 2383.46 1008.89 2383.77 1009.83 2384.06 1011 2384.34 1012.39 2384.61 1013.78 2384.85 1015.22 2385.07 1016.72L2385.42 1016.72C2387.7 1013.51 2389.43 1011.16 2390.61 1009.68 2391.79 1008.19 2392.78 1007.09 2393.59 1006.36 2394.39 1005.64 2395.17 1005.13 2395.92 1004.83 2396.67 1004.53 2397.66 1004.38 2398.9 1004.38 2400.01 1004.38 2400.93 1004.53 2401.64 1004.81L2400.22 1011.26 2397.72 1011.26C2397.58 1010.26 2397.16 1009.77 2396.47 1009.77 2396.26 1009.77 2396.03 1009.8 2395.8 1009.87 2395.56 1009.94 2395.27 1010.1 2394.92 1010.34 2394.58 1010.57 2394.07 1011.04 2393.41 1011.73 2392.74 1012.42 2391.99 1013.26 2391.16 1014.26 2390.33 1015.25 2389.47 1016.3 2388.6 1017.39L2386.17 1020.42C2386.6 1022.7 2387 1024.68 2387.38 1026.34 2387.76 1028 2388.1 1029.39 2388.4 1030.49 2388.7 1031.6 2388.96 1032.47 2389.18 1033.11 2389.41 1033.75 2389.65 1034.24 2389.91 1034.56 2390.18 1034.88 2390.44 1035.1 2390.72 1035.23 2390.99 1035.36 2391.3 1035.43 2391.66 1035.43 2392.3 1035.43 2392.93 1035.18 2393.53 1034.68 2394.14 1034.18 2395.01 1033.05 2396.15 1031.29L2398.47 1032.83C2396.81 1035.3 2395.3 1037.04 2393.96 1038.05 2392.62 1039.06 2391.02 1039.56 2389.17 1039.56 2388.14 1039.56 2387.28 1039.38 2386.56 1039.01 2385.85 1038.64 2385.23 1038.06 2384.71 1037.25 2384.19 1036.44 2383.72 1035.18 2383.32 1033.47 2382.58 1030.43 2382.13 1028.1 2381.97 1026.48L2381.61 1026.48C2379.09 1030.02 2377.22 1032.57 2376 1034.11 2374.77 1035.66 2373.76 1036.8 2372.97 1037.53 2372.17 1038.27 2371.4 1038.79 2370.65 1039.08 2369.9 1039.38 2368.91 1039.53 2367.67 1039.53 2366.56 1039.53 2365.64 1039.39 2364.93 1039.1L2366.35 1032.65 2368.85 1032.65C2368.99 1033.65 2369.41 1034.15 2370.1 1034.15 2370.43 1034.15 2370.78 1034.06 2371.15 1033.88 2371.52 1033.7 2372.04 1033.27 2372.73 1032.6 2373.42 1031.92 2374.37 1030.86 2375.59 1029.41 2376.8 1027.96 2378.56 1025.78 2380.86 1022.88 2380.5 1021.01 2380.14 1019.2 2379.76 1017.46 2379.38 1015.73 2378.98 1014.11 2378.58 1012.62 2378.18 1011.12 2377.84 1010.14 2377.58 1009.68 2377.32 1009.21 2377.04 1008.89 2376.74 1008.71 2376.45 1008.54 2376.07 1008.45 2375.62 1008.45 2375.12 1008.45 2374.67 1008.56 2374.27 1008.79 2373.86 1009.01 2373.42 1009.4 2372.95 1009.96 2372.47 1010.52 2371.84 1011.39 2371.06 1012.58L2368.74 1011.05C2370.24 1008.79 2371.68 1007.1 2373.05 1005.99 2374.43 1004.87 2376.06 1004.31 2377.94 1004.31Z" fill-rule="evenodd"/><text fill="#000000" fill-opacity="0" font-family="Arial,Arial_MSFontService,sans-serif" font-size="35.2524" x="2364.93" y="1035.16">𝑥</text><path d="M2417.56 1020.45C2419.35 1020.45 2420.88 1020.65 2422.15 1021.05 2423.42 1021.46 2424.45 1022.01 2425.24 1022.7 2426.04 1023.39 2426.61 1024.21 2426.96 1025.18 2427.32 1026.15 2427.49 1027.19 2427.49 1028.31 2427.49 1028.99 2427.45 1029.61 2427.35 1030.19 2427.26 1030.77 2427.09 1031.34 2426.86 1031.9 2426.63 1032.46 2426.32 1033.02 2425.94 1033.59 2425.56 1034.16 2425.09 1034.77 2424.52 1035.4 2424.09 1035.96 2423.53 1036.59 2422.84 1037.32 2422.15 1038.04 2421.39 1038.82 2420.57 1039.65 2419.75 1040.48 2418.89 1041.34 2418 1042.24 2417.1 1043.13 2416.23 1044.02 2415.38 1044.9 2414.54 1045.78 2413.76 1046.63 2413.05 1047.46 2412.35 1048.29 2411.77 1049.05 2411.32 1049.74L2420.89 1049.74C2421.71 1049.74 2422.35 1049.71 2422.84 1049.65 2423.32 1049.59 2423.72 1049.46 2424.04 1049.25 2424.36 1049.04 2424.63 1048.73 2424.85 1048.3 2425.08 1047.88 2425.34 1047.3 2425.63 1046.56L2428.04 1046.56C2427.95 1047.78 2427.87 1049.02 2427.79 1050.26 2427.71 1051.5 2427.63 1052.73 2427.55 1053.96L2405.63 1053.96 2405.63 1052.61C2406.04 1051.68 2406.52 1050.76 2407.07 1049.86 2407.63 1048.95 2408.25 1048.03 2408.94 1047.1 2409.63 1046.17 2410.41 1045.21 2411.29 1044.22 2412.17 1043.22 2413.15 1042.19 2414.22 1041.12 2415.84 1039.5 2417.16 1038.12 2418.18 1036.97 2419.19 1035.82 2420 1034.8 2420.58 1033.9 2421.17 1033.01 2421.57 1032.18 2421.79 1031.42 2422 1030.66 2422.11 1029.85 2422.11 1028.99 2422.11 1028.11 2421.99 1027.29 2421.74 1026.55 2421.49 1025.81 2421.13 1025.18 2420.66 1024.66 2420.2 1024.15 2419.6 1023.74 2418.89 1023.45 2418.17 1023.15 2417.35 1023.01 2416.42 1023.01 2414.81 1023.01 2413.47 1023.44 2412.38 1024.31 2411.29 1025.19 2410.45 1026.45 2409.84 1028.11L2406.45 1028.11 2406.45 1023.06C2408.66 1022.14 2410.69 1021.48 2412.55 1021.07 2414.4 1020.65 2416.07 1020.45 2417.56 1020.45Z" fill-rule="evenodd"/><text fill="#000000" fill-opacity="0" font-family="Arial,Arial_MSFontService,sans-serif" font-size="33.5132" x="2405.63" y="1049.77">2</text><path d="M2476.62 998.733 2482.86 998.733C2483.19 1000.4 2483.35 1002.04 2483.35 1003.65 2483.35 1005.32 2483.07 1006.84 2482.5 1008.21 2481.93 1009.59 2481.02 1010.96 2479.77 1012.33 2478.52 1013.7 2476.81 1015.2 2474.62 1016.84L2472.7 1014.67C2473.91 1013.53 2474.79 1012.5 2475.33 1011.58 2475.88 1010.67 2476.27 1009.63 2476.51 1008.46 2476.75 1007.3 2476.87 1005.84 2476.87 1004.08 2476.87 1002.27 2476.78 1000.49 2476.62 998.733Z" fill-rule="evenodd"/><text fill="#000000" fill-opacity="0" font-family="Arial,Arial_MSFontService,sans-serif" font-size="18.1074" x="2472.7" y="1014.58">,</text><path d="M2749.87 926.267 2755.68 926.267 2755.68 1046.03 2749.87 1046.03ZM2507.76 926.267 2513.57 926.267 2513.57 1046.03 2507.76 1046.03Z" fill-rule="evenodd"/><path d="M2537.41 918.008C2538.15 918.008 2538.8 918.091 2539.36 918.257 2539.92 918.424 2540.41 918.679 2540.84 919.024 2541.26 919.368 2541.64 919.814 2541.98 920.36 2542.31 920.907 2542.63 921.649 2542.94 922.588 2543.25 923.527 2543.54 924.691 2543.81 926.081 2544.09 927.471 2544.33 928.915 2544.54 930.412L2544.9 930.412C2547.18 927.204 2548.91 924.857 2550.09 923.372 2551.26 921.887 2552.25 920.782 2553.06 920.057 2553.87 919.332 2554.65 918.822 2555.4 918.525 2556.15 918.227 2557.14 918.079 2558.37 918.079 2559.49 918.079 2560.41 918.222 2561.12 918.507L2559.69 924.958 2557.2 924.958C2557.05 923.96 2556.64 923.461 2555.95 923.461 2555.74 923.461 2555.51 923.497 2555.27 923.568 2555.04 923.64 2554.74 923.794 2554.4 924.032 2554.05 924.269 2553.55 924.733 2552.88 925.422 2552.22 926.111 2551.47 926.954 2550.64 927.953 2549.81 928.951 2548.95 929.996 2548.07 931.089L2545.65 934.119C2546.08 936.4 2546.48 938.373 2546.86 940.036 2547.24 941.699 2547.58 943.084 2547.88 944.189 2548.17 945.294 2548.43 946.167 2548.66 946.808 2548.89 947.45 2549.13 947.931 2549.39 948.252 2549.65 948.573 2549.92 948.799 2550.19 948.929 2550.47 949.06 2550.78 949.125 2551.14 949.125 2551.78 949.125 2552.4 948.876 2553.01 948.377 2553.62 947.878 2554.49 946.749 2555.63 944.991L2557.95 946.523C2556.28 948.995 2554.78 950.735 2553.44 951.745 2552.09 952.755 2550.5 953.26 2548.64 953.26 2547.62 953.26 2546.75 953.076 2546.04 952.708 2545.33 952.339 2544.71 951.751 2544.19 950.943 2543.66 950.135 2543.2 948.876 2542.8 947.165 2542.06 944.123 2541.61 941.794 2541.44 940.179L2541.09 940.179C2538.57 943.719 2536.7 946.262 2535.47 947.807 2534.25 949.351 2533.24 950.492 2532.44 951.228 2531.65 951.965 2530.87 952.482 2530.13 952.779 2529.38 953.076 2528.38 953.224 2527.15 953.224 2526.03 953.224 2525.12 953.082 2524.4 952.797L2525.83 946.345 2528.33 946.345C2528.47 947.343 2528.88 947.842 2529.57 947.842 2529.91 947.842 2530.26 947.753 2530.62 947.575 2530.99 947.397 2531.52 946.969 2532.21 946.292 2532.9 945.614 2533.85 944.551 2535.06 943.101 2536.27 941.652 2538.03 939.478 2540.34 936.578 2539.98 934.701 2539.61 932.895 2539.23 931.161 2538.85 929.426 2538.46 927.81 2538.06 926.313 2537.65 924.816 2537.32 923.836 2537.06 923.372 2536.8 922.909 2536.52 922.588 2536.22 922.41 2535.92 922.232 2535.55 922.142 2535.1 922.142 2534.6 922.142 2534.15 922.255 2533.74 922.481 2533.34 922.707 2532.9 923.099 2532.42 923.657 2531.95 924.216 2531.32 925.089 2530.54 926.277L2528.22 924.745C2529.72 922.487 2531.15 920.8 2532.53 919.683 2533.91 918.566 2535.54 918.008 2537.41 918.008Z" fill-rule="evenodd"/><text fill="#000000" fill-opacity="0" font-family="Arial,Arial_MSFontService,sans-serif" font-size="35.2524" x="2524.4" y="948.854">𝑥</text><path d="M2577.36 934.322 2578.93 934.322C2578.9 935.271 2578.87 936.121 2578.86 936.871 2578.84 937.622 2578.83 938.351 2578.82 939.058 2578.81 939.766 2578.8 940.464 2578.8 941.154L2578.8 960.822C2578.8 961.357 2578.82 961.819 2578.86 962.207 2578.89 962.595 2578.95 962.923 2579.02 963.19 2579.1 963.458 2579.21 963.686 2579.34 963.876 2579.46 964.066 2579.62 964.23 2579.79 964.368 2580 964.575 2580.27 964.734 2580.62 964.847 2580.96 964.959 2581.4 965.054 2581.94 965.131 2582.47 965.209 2583.11 965.269 2583.86 965.312 2584.61 965.356 2585.52 965.386 2586.57 965.403L2586.57 967.654 2566.05 967.654 2566.05 965.403C2567.06 965.368 2567.93 965.33 2568.63 965.286 2569.34 965.243 2569.95 965.183 2570.45 965.105 2570.95 965.028 2571.35 964.941 2571.65 964.847 2571.95 964.752 2572.21 964.635 2572.44 964.497 2572.68 964.342 2572.89 964.174 2573.06 963.993 2573.23 963.811 2573.37 963.583 2573.47 963.307 2573.58 963.031 2573.66 962.694 2573.72 962.297 2573.78 961.901 2573.81 961.409 2573.81 960.822L2573.81 942.267C2573.81 941.594 2573.68 941.12 2573.42 940.844 2573.16 940.568 2572.79 940.43 2572.31 940.43 2571.77 940.43 2570.98 940.706 2569.93 941.258 2568.88 941.81 2567.51 942.63 2565.84 943.716 2565.62 943.32 2565.41 942.923 2565.22 942.526 2565.03 942.129 2564.83 941.724 2564.62 941.31 2566.76 940.137 2568.88 938.968 2570.98 937.803 2573.07 936.639 2575.2 935.478 2577.36 934.322Z" fill-rule="evenodd"/><text fill="#000000" fill-opacity="0" font-family="Arial,Arial_MSFontService,sans-serif" font-size="33.332" x="2564.62" y="963.488">1</text><path d="M2680.66 918.043C2681.64 918.043 2682.47 918.174 2683.16 918.435 2683.64 918.626 2684.11 918.94 2684.59 919.38 2685.06 919.82 2685.48 920.432 2685.85 921.216 2686.22 922 2686.54 922.879 2686.81 923.853 2687.09 924.828 2687.39 926.23 2687.72 928.059 2688.29 931.125 2688.84 934.351 2689.38 937.737 2689.91 941.123 2690.37 944.266 2690.75 947.165 2693.06 943.838 2695.01 940.583 2696.62 937.398 2698.22 934.214 2699.37 931.446 2700.07 929.093 2700.77 926.741 2701.12 924.828 2701.12 923.354 2701.12 922.237 2700.89 921.477 2700.41 921.073 2699.94 920.669 2699.13 920.432 2697.99 920.36L2698.34 918.614 2707.72 918.614 2708.68 920.396C2706.88 925.339 2704.43 930.626 2701.34 936.258 2698.3 941.771 2694.82 947.26 2690.89 952.725 2687.14 957.93 2684.02 961.696 2681.52 964.025 2679.79 965.617 2678.11 966.758 2676.49 967.447 2675.21 967.969 2673.84 968.231 2672.4 968.231 2671.9 968.231 2671.32 968.189 2670.67 968.106 2670.01 968.023 2669.51 967.91 2669.15 967.767L2670.68 960.852 2673.5 960.852C2673.5 962.373 2674.02 963.134 2675.07 963.134 2676.45 963.134 2678.05 962.272 2679.88 960.549 2681.71 958.827 2683.86 956.231 2686.33 952.761 2685.64 948.603 2684.7 943.589 2683.52 937.719 2682.26 931.446 2681.43 927.56 2681.02 926.063 2680.52 924.257 2680 923.105 2679.45 922.606 2679.12 922.297 2678.7 922.142 2678.21 922.142 2677.44 922.142 2676.73 922.451 2676.07 923.069 2675.4 923.687 2674.58 924.756 2673.61 926.277L2671.29 924.745C2672.93 922.297 2674.46 920.568 2675.89 919.558 2677.31 918.548 2678.91 918.043 2680.66 918.043Z" fill-rule="evenodd"/><text fill="#000000" fill-opacity="0" font-family="Arial,Arial_MSFontService,sans-serif" font-size="50.1875" x="2669.15" y="961.957">𝑦</text><path d="M2723.7 934.322 2725.28 934.322C2725.25 935.271 2725.22 936.121 2725.2 936.871 2725.19 937.622 2725.17 938.351 2725.16 939.058 2725.16 939.766 2725.15 940.464 2725.15 941.154L2725.15 960.822C2725.15 961.357 2725.17 961.819 2725.2 962.207 2725.24 962.595 2725.29 962.923 2725.37 963.19 2725.45 963.458 2725.55 963.686 2725.68 963.876 2725.81 964.066 2725.96 964.23 2726.13 964.368 2726.34 964.575 2726.62 964.734 2726.96 964.847 2727.31 964.959 2727.75 965.054 2728.28 965.131 2728.82 965.209 2729.46 965.269 2730.21 965.312 2730.96 965.356 2731.86 965.386 2732.91 965.403L2732.91 967.654 2712.39 967.654 2712.39 965.403C2713.41 965.368 2714.27 965.33 2714.98 965.286 2715.69 965.243 2716.29 965.183 2716.79 965.105 2717.29 965.028 2717.69 964.941 2718 964.847 2718.3 964.752 2718.56 964.635 2718.78 964.497 2719.03 964.342 2719.23 964.174 2719.41 963.993 2719.58 963.811 2719.72 963.583 2719.82 963.307 2719.92 963.031 2720.01 962.694 2720.07 962.297 2720.13 961.901 2720.16 961.409 2720.16 960.822L2720.16 942.267C2720.16 941.594 2720.03 941.12 2719.77 940.844 2719.51 940.568 2719.14 940.43 2718.66 940.43 2718.12 940.43 2717.33 940.706 2716.27 941.258 2715.22 941.81 2713.86 942.63 2712.19 943.716 2711.96 943.32 2711.75 942.923 2711.56 942.526 2711.37 942.129 2711.18 941.724 2710.97 941.31 2713.11 940.137 2715.23 938.968 2717.32 937.803 2719.42 936.639 2721.54 935.478 2723.7 934.322Z" fill-rule="evenodd"/><text fill="#000000" fill-opacity="0" font-family="Arial,Arial_MSFontService,sans-serif" font-size="33.332" x="2710.97" y="963.488">1</text><path d="M2536.57 1003.99C2537.3 1003.99 2537.95 1004.07 2538.51 1004.24 2539.07 1004.41 2539.56 1004.66 2539.99 1005.01 2540.42 1005.35 2540.8 1005.8 2541.13 1006.34 2541.46 1006.89 2541.78 1007.63 2542.09 1008.57 2542.4 1009.51 2542.69 1010.67 2542.97 1012.06 2543.24 1013.45 2543.48 1014.9 2543.7 1016.4L2544.05 1016.4C2546.33 1013.19 2548.06 1010.84 2549.24 1009.36 2550.41 1007.87 2551.41 1006.77 2552.21 1006.04 2553.02 1005.32 2553.8 1004.8 2554.55 1004.51 2555.3 1004.21 2556.29 1004.06 2557.53 1004.06 2558.64 1004.06 2559.56 1004.2 2560.27 1004.49L2558.84 1010.94 2556.35 1010.94C2556.21 1009.94 2555.79 1009.44 2555.1 1009.44 2554.89 1009.44 2554.66 1009.48 2554.42 1009.55 2554.19 1009.62 2553.9 1009.78 2553.55 1010.01 2553.21 1010.25 2552.7 1010.72 2552.04 1011.41 2551.37 1012.09 2550.62 1012.94 2549.79 1013.94 2548.96 1014.93 2548.1 1015.98 2547.22 1017.07L2544.8 1020.1C2545.23 1022.38 2545.63 1024.36 2546.01 1026.02 2546.39 1027.68 2546.73 1029.07 2547.03 1030.17 2547.33 1031.28 2547.59 1032.15 2547.81 1032.79 2548.04 1033.43 2548.28 1033.91 2548.54 1034.24 2548.8 1034.56 2549.07 1034.78 2549.35 1034.91 2549.62 1035.04 2549.93 1035.11 2550.29 1035.11 2550.93 1035.11 2551.56 1034.86 2552.16 1034.36 2552.77 1033.86 2553.64 1032.73 2554.78 1030.97L2557.1 1032.51C2555.43 1034.98 2553.93 1036.72 2552.59 1037.73 2551.25 1038.74 2549.65 1039.24 2547.79 1039.24 2546.77 1039.24 2545.91 1039.06 2545.19 1038.69 2544.48 1038.32 2543.86 1037.73 2543.34 1036.93 2542.82 1036.12 2542.35 1034.86 2541.95 1033.15 2541.21 1030.11 2540.76 1027.78 2540.59 1026.16L2540.24 1026.16C2537.72 1029.7 2535.85 1032.25 2534.62 1033.79 2533.4 1035.33 2532.39 1036.47 2531.59 1037.21 2530.8 1037.95 2530.03 1038.47 2529.28 1038.76 2528.53 1039.06 2527.54 1039.21 2526.3 1039.21 2525.18 1039.21 2524.27 1039.07 2523.56 1038.78L2524.98 1032.33 2527.48 1032.33C2527.62 1033.33 2528.04 1033.83 2528.73 1033.83 2529.06 1033.83 2529.41 1033.74 2529.78 1033.56 2530.15 1033.38 2530.67 1032.95 2531.36 1032.27 2532.05 1031.6 2533 1030.53 2534.21 1029.08 2535.43 1027.64 2537.18 1025.46 2539.49 1022.56 2539.13 1020.68 2538.76 1018.88 2538.38 1017.14 2538 1015.41 2537.61 1013.79 2537.21 1012.3 2536.8 1010.8 2536.47 1009.82 2536.21 1009.36 2535.95 1008.89 2535.67 1008.57 2535.37 1008.39 2535.08 1008.21 2534.7 1008.13 2534.25 1008.13 2533.75 1008.13 2533.3 1008.24 2532.9 1008.46 2532.49 1008.69 2532.05 1009.08 2531.58 1009.64 2531.1 1010.2 2530.47 1011.07 2529.69 1012.26L2527.37 1010.73C2528.87 1008.47 2530.31 1006.78 2531.68 1005.67 2533.06 1004.55 2534.69 1003.99 2536.57 1003.99Z" fill-rule="evenodd"/><text fill="#000000" fill-opacity="0" font-family="Arial,Arial_MSFontService,sans-serif" font-size="35.2524" x="2523.56" y="1034.84">𝑥</text><path d="M2576.19 1020.12C2577.98 1020.12 2579.51 1020.33 2580.78 1020.73 2582.05 1021.14 2583.08 1021.69 2583.87 1022.38 2584.66 1023.07 2585.24 1023.89 2585.59 1024.86 2585.95 1025.83 2586.12 1026.87 2586.12 1027.99 2586.12 1028.66 2586.08 1029.29 2585.98 1029.87 2585.89 1030.45 2585.72 1031.02 2585.49 1031.58 2585.26 1032.14 2584.95 1032.7 2584.57 1033.27 2584.19 1033.84 2583.72 1034.44 2583.15 1035.08 2582.72 1035.63 2582.15 1036.27 2581.46 1037 2580.77 1037.72 2580.02 1038.5 2579.2 1039.33 2578.38 1040.15 2577.52 1041.02 2576.62 1041.91 2575.73 1042.81 2574.86 1043.7 2574.01 1044.58 2573.17 1045.46 2572.39 1046.31 2571.68 1047.14 2570.97 1047.97 2570.4 1048.73 2569.95 1049.42L2579.52 1049.42C2580.33 1049.42 2580.98 1049.39 2581.46 1049.33 2581.95 1049.27 2582.35 1049.13 2582.67 1048.93 2582.99 1048.72 2583.26 1048.41 2583.48 1047.98 2583.71 1047.56 2583.97 1046.98 2584.26 1046.24L2586.67 1046.24C2586.58 1047.46 2586.5 1048.69 2586.42 1049.94 2586.34 1051.18 2586.26 1052.41 2586.17 1053.64L2564.25 1053.64 2564.25 1052.29C2564.67 1051.36 2565.15 1050.44 2565.7 1049.54 2566.26 1048.63 2566.88 1047.71 2567.57 1046.78 2568.26 1045.85 2569.04 1044.89 2569.92 1043.89 2570.8 1042.9 2571.78 1041.87 2572.85 1040.8 2574.47 1039.18 2575.79 1037.8 2576.81 1036.65 2577.82 1035.5 2578.63 1034.48 2579.21 1033.58 2579.8 1032.68 2580.2 1031.86 2580.42 1031.1 2580.63 1030.34 2580.74 1029.53 2580.74 1028.66 2580.74 1027.78 2580.61 1026.97 2580.36 1026.23 2580.11 1025.49 2579.76 1024.86 2579.29 1024.34 2578.82 1023.83 2578.23 1023.42 2577.52 1023.13 2576.8 1022.83 2575.98 1022.69 2575.05 1022.69 2573.44 1022.69 2572.1 1023.12 2571.01 1023.99 2569.92 1024.86 2569.08 1026.13 2568.47 1027.78L2565.08 1027.78 2565.08 1022.74C2567.29 1021.82 2569.32 1021.16 2571.18 1020.75 2573.03 1020.33 2574.7 1020.12 2576.19 1020.12Z" fill-rule="evenodd"/><text fill="#000000" fill-opacity="0" font-family="Arial,Arial_MSFontService,sans-serif" font-size="33.5132" x="2564.25" y="1049.45">2</text><path d="M2679.82 1004.03C2680.79 1004.03 2681.62 1004.16 2682.31 1004.42 2682.79 1004.61 2683.26 1004.92 2683.74 1005.36 2684.21 1005.8 2684.63 1006.41 2685 1007.2 2685.37 1007.98 2685.69 1008.86 2685.97 1009.84 2686.24 1010.81 2686.54 1012.21 2686.87 1014.04 2687.44 1017.11 2688 1020.33 2688.53 1023.72 2689.07 1027.11 2689.52 1030.25 2689.9 1033.15 2692.21 1029.82 2694.16 1026.57 2695.77 1023.38 2697.37 1020.2 2698.52 1017.43 2699.23 1015.08 2699.93 1012.72 2700.28 1010.81 2700.28 1009.34 2700.28 1008.22 2700.04 1007.46 2699.56 1007.06 2699.09 1006.65 2698.28 1006.41 2697.14 1006.34L2697.5 1004.6 2706.87 1004.6 2707.83 1006.38C2706.03 1011.32 2703.58 1016.61 2700.49 1022.24 2697.45 1027.75 2693.97 1033.24 2690.05 1038.71 2686.29 1043.91 2683.17 1047.68 2680.67 1050.01 2678.94 1051.6 2677.26 1052.74 2675.65 1053.43 2674.36 1053.95 2673 1054.21 2671.55 1054.21 2671.05 1054.21 2670.47 1054.17 2669.82 1054.09 2669.16 1054.01 2668.66 1053.89 2668.3 1053.75L2669.84 1046.84 2672.65 1046.84C2672.65 1048.36 2673.17 1049.12 2674.22 1049.12 2675.6 1049.12 2677.2 1048.26 2679.03 1046.53 2680.86 1044.81 2683.01 1042.21 2685.48 1038.74 2684.79 1034.59 2683.86 1029.57 2682.67 1023.7 2681.41 1017.43 2680.58 1013.54 2680.17 1012.05 2679.67 1010.24 2679.15 1009.09 2678.6 1008.59 2678.27 1008.28 2677.86 1008.13 2677.36 1008.13 2676.6 1008.13 2675.88 1008.43 2675.22 1009.05 2674.55 1009.67 2673.73 1010.74 2672.76 1012.26L2670.44 1010.73C2672.08 1008.28 2673.61 1006.55 2675.04 1005.54 2676.47 1004.53 2678.06 1004.03 2679.82 1004.03Z" fill-rule="evenodd"/><text fill="#000000" fill-opacity="0" font-family="Arial,Arial_MSFontService,sans-serif" font-size="50.1875" x="2668.3" y="1047.94">𝑦</text><path d="M2722.53 1020.12C2724.32 1020.12 2725.86 1020.33 2727.12 1020.73 2728.39 1021.14 2729.42 1021.69 2730.22 1022.38 2731.01 1023.07 2731.58 1023.89 2731.94 1024.86 2732.29 1025.83 2732.47 1026.87 2732.47 1027.99 2732.47 1028.66 2732.42 1029.29 2732.33 1029.87 2732.23 1030.45 2732.07 1031.02 2731.83 1031.58 2731.6 1032.14 2731.3 1032.7 2730.92 1033.27 2730.54 1033.84 2730.06 1034.44 2729.49 1035.08 2729.06 1035.63 2728.5 1036.27 2727.81 1037 2727.12 1037.72 2726.37 1038.5 2725.55 1039.33 2724.73 1040.15 2723.87 1041.02 2722.97 1041.91 2722.07 1042.81 2721.2 1043.7 2720.36 1044.58 2719.51 1045.46 2718.74 1046.31 2718.03 1047.14 2717.32 1047.97 2716.74 1048.73 2716.29 1049.42L2725.87 1049.42C2726.68 1049.42 2727.33 1049.39 2727.81 1049.33 2728.29 1049.27 2728.69 1049.13 2729.01 1048.93 2729.33 1048.72 2729.6 1048.41 2729.83 1047.98 2730.05 1047.56 2730.31 1046.98 2730.6 1046.24L2733.01 1046.24C2732.93 1047.46 2732.84 1048.69 2732.77 1049.94 2732.69 1051.18 2732.61 1052.41 2732.52 1053.64L2710.6 1053.64 2710.6 1052.29C2711.01 1051.36 2711.5 1050.44 2712.05 1049.54 2712.6 1048.63 2713.22 1047.71 2713.91 1046.78 2714.6 1045.85 2715.39 1044.89 2716.27 1043.89 2717.15 1042.9 2718.12 1041.87 2719.19 1040.8 2720.81 1039.18 2722.13 1037.8 2723.15 1036.65 2724.17 1035.5 2724.97 1034.48 2725.56 1033.58 2726.15 1032.68 2726.55 1031.86 2726.76 1031.1 2726.98 1030.34 2727.09 1029.53 2727.09 1028.66 2727.09 1027.78 2726.96 1026.97 2726.71 1026.23 2726.46 1025.49 2726.1 1024.86 2725.64 1024.34 2725.17 1023.83 2724.58 1023.42 2723.86 1023.13 2723.15 1022.83 2722.32 1022.69 2721.39 1022.69 2719.79 1022.69 2718.44 1023.12 2717.35 1023.99 2716.27 1024.86 2715.42 1026.13 2714.82 1027.78L2711.43 1027.78 2711.43 1022.74C2713.64 1021.82 2715.67 1021.16 2717.52 1020.75 2719.38 1020.33 2721.05 1020.12 2722.53 1020.12Z" fill-rule="evenodd"/><text fill="#000000" fill-opacity="0" font-family="Arial,Arial_MSFontService,sans-serif" font-size="33.5132" x="2710.6" y="1049.45">2</text><path d="M2766.92 955.496C2773.86 957.326 2779.19 961.276 2782.91 967.348 2786.62 973.419 2788.48 980.744 2788.48 989.323 2788.48 997.925 2786.63 1005.25 2782.92 1011.3 2779.22 1017.35 2773.88 1021.28 2766.92 1023.11L2766.06 1020.37C2771.55 1018.54 2775.63 1014.93 2778.31 1009.53 2780.98 1004.14 2782.32 997.283 2782.32 988.966 2782.32 980.934 2780.99 974.263 2778.33 968.952 2775.66 963.641 2771.54 960.07 2765.96 958.241Z" fill-rule="evenodd"/><text fill="#000000" fill-opacity="0" font-family="Arial,Arial_MSFontService,sans-serif" font-size="67.6177" x="2765.96" y="1014.66">)</text></g></svg>