<svg width="2488" height="216" xmlns="http://www.w3.org/2000/svg" xmlns:xlink="http://www.w3.org/1999/xlink" overflow="hidden"><defs><clipPath id="clip0"><rect x="956" y="857" width="2488" height="216"/></clipPath></defs><g clip-path="url(#clip0)" transform="translate(-956 -857)"><path d="M1109.07 972.32C1110.59 972.32 1111.79 972.831 1112.67 973.853 1113.55 974.875 1113.99 976.253 1113.99 977.988 1113.99 979.865 1113.62 982.206 1112.88 985.01L1111.32 991.176C1110.91 992.745 1110.62 993.968 1110.44 994.848 1110.26 995.727 1110.13 996.487 1110.05 997.129 1109.97 997.77 1109.93 998.305 1109.93 998.733 1109.93 1000.37 1110.2 1001.55 1110.75 1002.28 1111.29 1003 1112.18 1003.37 1113.42 1003.37 1114.42 1003.37 1115.49 1002.97 1116.64 1002.17 1117.8 1001.38 1119.02 1000.18 1120.32 998.572 1121.61 996.968 1122.65 995.412 1123.43 993.903 1124.22 992.394 1124.86 990.535 1125.36 988.325L1128.75 972.891 1134.91 972.891 1129.71 995.489C1129.19 997.77 1128.92 999.529 1128.92 1000.76 1128.92 1001.72 1129.08 1002.4 1129.39 1002.83 1129.7 1003.26 1130.18 1003.47 1130.85 1003.47 1131.56 1003.47 1132.32 1003.18 1133.13 1002.6 1133.94 1002.02 1135.08 1000.91 1136.55 999.267L1138.58 1001.26C1136.42 1003.57 1134.58 1005.2 1133.06 1006.15 1131.54 1007.1 1129.92 1007.57 1128.21 1007.57 1126.74 1007.57 1125.56 1007.09 1124.68 1006.11 1123.8 1005.14 1123.36 1003.84 1123.36 1002.23 1123.36 1000.94 1123.65 999.541 1124.22 998.02L1123.79 997.877C1121.44 1001.18 1119.21 1003.62 1117.11 1005.18 1115.01 1006.75 1112.85 1007.54 1110.64 1007.54 1108.43 1007.54 1106.73 1006.9 1105.54 1005.63 1104.35 1004.36 1103.76 1002.59 1103.76 1000.34 1103.76 998.84 1104.1 996.713 1104.79 993.956L1107.11 984.618C1107.75 982.027 1108.07 980.198 1108.07 979.128 1108.07 978.178 1107.92 977.489 1107.61 977.061 1107.3 976.633 1106.81 976.419 1106.15 976.419 1105.41 976.419 1104.63 976.722 1103.81 977.328 1102.99 977.934 1101.87 979.033 1100.44 980.625L1098.41 978.629C1100.43 976.586 1101.95 975.184 1102.97 974.423 1104 973.663 1104.98 973.122 1105.92 972.801 1106.85 972.481 1107.91 972.32 1109.07 972.32Z" fill-rule="evenodd"/><text fill="#000000" fill-opacity="0" font-family="Arial,Arial_MSFontService,sans-serif" font-size="35.2524" x="1098.41" y="1003.17">𝑢</text><path d="M1130.29 949.543 1139.24 957.278 1139.24 959.987 1122.98 959.987 1112.36 959.987 1101.59 959.987 1101.59 956.637 1112.36 956.637 1122.98 956.637 1134.1 956.637 1128.4 951.682Z" fill-rule="evenodd"/><path d="M1167.58 966.617 1183.73 982.728 1199.88 966.617 1203.23 969.932 1187.26 986.186 1203.26 1002.37 1199.7 1005.93 1183.73 989.643 1167.26 1005.79 1163.95 1002.44 1180.24 986.186 1164.02 970.182Z" fill-rule="evenodd"/><text fill="#000000" fill-opacity="0" font-family="Arial,Arial_MSFontService,sans-serif" font-size="39.3159" x="1163.95" y="1001.02">×</text><path d="M1259.71 972.178C1261.43 972.178 1262.66 972.623 1263.42 973.514 1264.18 974.405 1264.56 975.599 1264.56 977.097 1264.56 978.237 1264.36 979.544 1263.96 981.017 1263.55 982.491 1262.98 984.047 1262.25 985.687 1261.51 987.327 1260.63 989.008 1259.61 990.731 1258.59 992.453 1257.46 994.129 1256.22 995.756 1254.99 997.384 1253.67 998.917 1252.26 1000.35 1250.86 1001.79 1249.41 1003.05 1247.9 1004.12 1246.39 1005.18 1244.86 1006.03 1243.3 1006.66 1241.74 1007.29 1240.19 1007.61 1238.65 1007.61 1237.96 1007.61 1237.38 1007.44 1236.92 1007.09 1236.46 1006.75 1236.08 1006.26 1235.8 1005.63 1235.51 1005 1235.31 1004.26 1235.19 1003.4 1235.07 1002.55 1235.01 1001.61 1235.01 1000.59 1235.01 999.232 1235.1 997.782 1235.26 996.238 1235.43 994.693 1235.64 993.137 1235.9 991.568L1237.4 981.695C1237.5 981.124 1237.57 980.584 1237.63 980.073 1237.69 979.562 1237.72 979.188 1237.72 978.95 1237.72 978.213 1237.6 977.607 1237.37 977.132 1237.13 976.657 1236.72 976.419 1236.15 976.419 1235.7 976.419 1235.21 976.556 1234.69 976.829 1234.17 977.102 1233.64 977.453 1233.11 977.881 1232.57 978.308 1232.05 978.766 1231.56 979.253 1231.06 979.74 1230.59 980.198 1230.17 980.625L1228.45 978.629C1229.19 977.869 1229.98 977.114 1230.81 976.366 1231.64 975.617 1232.52 974.94 1233.44 974.334 1234.37 973.728 1235.35 973.241 1236.37 972.873 1237.39 972.504 1238.43 972.32 1239.5 972.32 1240.41 972.32 1241.14 972.469 1241.71 972.766 1242.28 973.063 1242.73 973.455 1243.05 973.942 1243.37 974.429 1243.59 974.964 1243.71 975.546 1243.83 976.128 1243.89 976.704 1243.89 977.275 1243.89 977.607 1243.88 977.928 1243.85 978.237 1243.83 978.546 1243.79 978.831 1243.75 979.093L1241.75 991.996C1241.54 993.35 1241.36 994.675 1241.21 995.97 1241.07 997.265 1241 998.412 1241 999.41 1241 1000.41 1241.06 1001.22 1241.18 1001.83 1241.3 1002.45 1241.52 1002.76 1241.86 1002.76 1242.64 1002.76 1243.63 1002.45 1244.82 1001.82 1246 1001.19 1247.25 1000.32 1248.56 999.214 1249.86 998.109 1251.17 996.802 1252.48 995.293 1253.79 993.784 1254.96 992.15 1256.01 990.392 1257.05 988.633 1257.9 986.78 1258.56 984.831 1259.21 982.883 1259.54 980.922 1259.54 978.95 1259.54 978.095 1259.35 977.435 1258.98 976.972 1258.62 976.508 1258.04 976.277 1257.26 976.277 1256.26 976.277 1255.34 976.663 1254.49 977.435 1253.65 978.207 1252.78 979.223 1251.87 980.483L1249.84 978.665C1250.41 977.809 1251.08 976.99 1251.85 976.205 1252.63 975.421 1253.45 974.732 1254.31 974.138 1255.18 973.544 1256.08 973.069 1257.01 972.712 1257.93 972.356 1258.84 972.178 1259.71 972.178Z" fill-rule="evenodd"/><text fill="#000000" fill-opacity="0" font-family="Arial,Arial_MSFontService,sans-serif" font-size="35.4307" x="1228.45" y="1003.18">𝑣</text><path d="M1256.35 949.497 1265.3 957.232 1265.3 959.941 1238.43 959.941 1238.43 956.591 1260.17 956.591 1254.47 951.636Z" fill-rule="evenodd"/><text fill="#000000" fill-opacity="0" font-family="Arial,Arial_MSFontService,sans-serif" font-size="10.4438" x="1238.43" y="958.636">റ</text><path d="M1293.9 991.176 1337.82 991.176 1337.82 995.917 1293.9 995.917ZM1293.9 976.384 1337.82 976.384 1337.82 981.124 1293.9 981.124Z" fill-rule="evenodd"/><text fill="#000000" fill-opacity="0" font-family="Arial,Arial_MSFontService,sans-serif" font-size="19.5332" x="1293.9" y="993.475">=</text><path d="M1391.94 955.496 1392.91 958.241C1387.35 960.07 1383.23 963.641 1380.56 968.952 1377.88 974.263 1376.55 980.934 1376.55 988.966 1376.55 997.283 1377.88 1004.14 1380.56 1009.53 1383.23 1014.93 1387.31 1018.54 1392.8 1020.37L1391.94 1023.11C1384.98 1021.28 1379.65 1017.35 1375.94 1011.3 1372.23 1005.25 1370.38 997.925 1370.38 989.323 1370.38 980.744 1372.24 973.419 1375.96 967.348 1379.68 961.276 1385.01 957.326 1391.94 955.496Z" fill-rule="evenodd"/><text fill="#000000" fill-opacity="0" font-family="Arial,Arial_MSFontService,sans-serif" font-size="67.6177" x="1370.38" y="1014.66">(</text><path d="M1640.73 926.267 1646.54 926.267 1646.54 1046.03 1640.73 1046.03ZM1403.13 926.267 1408.94 926.267 1408.94 1046.03 1403.13 1046.03Z" fill-rule="evenodd"/><path d="M1430.47 918.02C1431.45 918.02 1432.28 918.151 1432.97 918.412 1433.44 918.603 1433.92 918.917 1434.39 919.357 1434.87 919.797 1435.29 920.409 1435.66 921.193 1436.03 921.977 1436.35 922.856 1436.62 923.83 1436.9 924.805 1437.2 926.207 1437.53 928.036 1438.1 931.102 1438.65 934.328 1439.19 937.714 1439.72 941.1 1440.18 944.243 1440.56 947.142 1442.87 943.815 1444.82 940.56 1446.42 937.375 1448.03 934.191 1449.18 931.423 1449.88 929.07 1450.58 926.718 1450.93 924.805 1450.93 923.331 1450.93 922.215 1450.7 921.454 1450.22 921.05 1449.75 920.646 1448.94 920.409 1447.8 920.337L1448.15 918.591 1457.53 918.591 1458.49 920.373C1456.68 925.316 1454.24 930.603 1451.15 936.235 1448.11 941.748 1444.62 947.237 1440.7 952.703 1436.95 957.907 1433.82 961.673 1431.33 964.002 1429.59 965.594 1427.92 966.735 1426.3 967.424 1425.02 967.946 1423.65 968.208 1422.2 968.208 1421.71 968.208 1421.13 968.166 1420.48 968.083 1419.82 968 1419.32 967.887 1418.96 967.745L1420.49 960.829 1423.31 960.829C1423.31 962.35 1423.83 963.111 1424.88 963.111 1426.26 963.111 1427.86 962.249 1429.69 960.526 1431.52 958.804 1433.67 956.208 1436.14 952.738 1435.45 948.58 1434.51 943.566 1433.33 937.696 1432.07 931.423 1431.23 927.537 1430.83 926.04 1430.33 924.234 1429.81 923.082 1429.26 922.583 1428.93 922.274 1428.51 922.12 1428.01 922.12 1427.25 922.12 1426.54 922.428 1425.88 923.046 1425.21 923.664 1424.39 924.733 1423.42 926.254L1421.1 924.722C1422.74 922.274 1424.27 920.545 1425.7 919.535 1427.12 918.525 1428.72 918.02 1430.47 918.02Z" fill-rule="evenodd"/><text fill="#000000" fill-opacity="0" font-family="Arial,Arial_MSFontService,sans-serif" font-size="50.1875" x="1418.96" y="961.934">𝑦</text><path d="M1473.51 934.299 1475.09 934.299C1475.05 935.248 1475.03 936.098 1475.01 936.849 1474.99 937.599 1474.98 938.328 1474.97 939.035 1474.96 939.743 1474.96 940.441 1474.96 941.131L1474.96 960.799C1474.96 961.334 1474.98 961.796 1475.01 962.184 1475.05 962.572 1475.1 962.9 1475.18 963.167 1475.26 963.435 1475.36 963.663 1475.49 963.853 1475.62 964.043 1475.77 964.207 1475.94 964.345 1476.15 964.552 1476.43 964.711 1476.77 964.824 1477.12 964.936 1477.56 965.031 1478.09 965.108 1478.63 965.186 1479.27 965.246 1480.02 965.289 1480.77 965.333 1481.67 965.363 1482.72 965.38L1482.72 967.631 1462.2 967.631 1462.2 965.38C1463.22 965.346 1464.08 965.307 1464.79 965.264 1465.5 965.22 1466.1 965.16 1466.6 965.082 1467.1 965.005 1467.5 964.919 1467.8 964.824 1468.11 964.729 1468.37 964.612 1468.59 964.474 1468.84 964.319 1469.04 964.151 1469.21 963.97 1469.39 963.788 1469.53 963.56 1469.63 963.284 1469.73 963.008 1469.81 962.671 1469.87 962.275 1469.94 961.878 1469.97 961.386 1469.97 960.799L1469.97 942.244C1469.97 941.571 1469.84 941.097 1469.58 940.821 1469.32 940.545 1468.95 940.407 1468.46 940.407 1467.93 940.407 1467.14 940.683 1466.08 941.235 1465.03 941.787 1463.67 942.607 1461.99 943.693 1461.77 943.297 1461.56 942.9 1461.37 942.503 1461.18 942.106 1460.99 941.701 1460.78 941.287 1462.92 940.114 1465.04 938.945 1467.13 937.78 1469.23 936.616 1471.35 935.455 1473.51 934.299Z" fill-rule="evenodd"/><text fill="#000000" fill-opacity="0" font-family="Arial,Arial_MSFontService,sans-serif" font-size="33.332" x="1460.78" y="963.465">1</text><path d="M1573.43 918.591 1598.78 918.591 1599.45 920.373 1582.45 939.906C1579.15 943.684 1576.29 946.892 1573.86 949.53L1574.08 949.78 1582.13 949.78C1583.56 949.78 1584.65 949.702 1585.41 949.548 1586.17 949.393 1586.84 949.102 1587.41 948.675 1587.98 948.247 1588.56 947.599 1589.17 946.732 1589.78 945.865 1590.53 944.504 1591.43 942.651L1594.61 942.651 1592.43 952.667 1566.63 952.667 1565.95 950.92 1585.45 928.464C1588.2 925.304 1590.22 923.058 1591.51 921.727L1591.29 921.478 1582.95 921.478C1581.71 921.478 1580.81 921.561 1580.24 921.727 1579.67 921.894 1579.1 922.185 1578.53 922.601 1577.96 923.017 1577.35 923.634 1576.69 924.454 1576.04 925.274 1575.31 926.444 1574.5 927.965L1571.33 927.965Z" fill-rule="evenodd"/><text fill="#000000" fill-opacity="0" font-family="Arial,Arial_MSFontService,sans-serif" font-size="34.0762" x="1565.95" y="948.407">𝑧</text><path d="M1614.56 934.299 1616.14 934.299C1616.11 935.248 1616.08 936.098 1616.06 936.849 1616.05 937.599 1616.03 938.328 1616.02 939.035 1616.02 939.743 1616.01 940.441 1616.01 941.131L1616.01 960.799C1616.01 961.334 1616.03 961.796 1616.06 962.184 1616.1 962.572 1616.15 962.9 1616.23 963.167 1616.31 963.435 1616.41 963.663 1616.54 963.853 1616.67 964.043 1616.82 964.207 1617 964.345 1617.2 964.552 1617.48 964.711 1617.82 964.824 1618.17 964.936 1618.61 965.031 1619.14 965.108 1619.68 965.186 1620.32 965.246 1621.07 965.289 1621.82 965.333 1622.72 965.363 1623.78 965.38L1623.78 967.631 1603.25 967.631 1603.25 965.38C1604.27 965.346 1605.13 965.307 1605.84 965.264 1606.55 965.22 1607.15 965.16 1607.65 965.082 1608.15 965.005 1608.55 964.919 1608.86 964.824 1609.16 964.729 1609.42 964.612 1609.65 964.474 1609.89 964.319 1610.09 964.151 1610.27 963.97 1610.44 963.788 1610.58 963.56 1610.68 963.284 1610.78 963.008 1610.87 962.671 1610.93 962.275 1610.99 961.878 1611.02 961.386 1611.02 960.799L1611.02 942.244C1611.02 941.571 1610.89 941.097 1610.63 940.821 1610.37 940.545 1610 940.407 1609.52 940.407 1608.98 940.407 1608.19 940.683 1607.14 941.235 1606.08 941.787 1604.72 942.607 1603.05 943.693 1602.82 943.297 1602.62 942.9 1602.43 942.503 1602.24 942.106 1602.04 941.701 1601.83 941.287 1603.97 940.114 1606.09 938.945 1608.18 937.78 1610.28 936.616 1612.41 935.455 1614.56 934.299Z" fill-rule="evenodd"/><text fill="#000000" fill-opacity="0" font-family="Arial,Arial_MSFontService,sans-serif" font-size="33.332" x="1601.83" y="963.465">1</text><path d="M1429.63 1004C1430.6 1004 1431.43 1004.13 1432.12 1004.4 1432.6 1004.59 1433.07 1004.9 1433.55 1005.34 1434.02 1005.78 1434.44 1006.39 1434.81 1007.18 1435.18 1007.96 1435.5 1008.84 1435.77 1009.81 1436.05 1010.79 1436.35 1012.19 1436.68 1014.02 1437.25 1017.09 1437.81 1020.31 1438.34 1023.7 1438.88 1027.08 1439.33 1030.23 1439.71 1033.13 1442.02 1029.8 1443.97 1026.54 1445.58 1023.36 1447.18 1020.17 1448.33 1017.41 1449.03 1015.05 1449.74 1012.7 1450.09 1010.79 1450.09 1009.31 1450.09 1008.2 1449.85 1007.44 1449.37 1007.03 1448.9 1006.63 1448.09 1006.39 1446.95 1006.32L1447.31 1004.57 1456.68 1004.57 1457.64 1006.36C1455.84 1011.3 1453.39 1016.59 1450.3 1022.22 1447.26 1027.73 1443.78 1033.22 1439.86 1038.69 1436.1 1043.89 1432.98 1047.66 1430.48 1049.99 1428.75 1051.58 1427.07 1052.72 1425.46 1053.41 1424.17 1053.93 1422.81 1054.19 1421.36 1054.19 1420.86 1054.19 1420.28 1054.15 1419.63 1054.07 1418.97 1053.98 1418.47 1053.87 1418.11 1053.73L1419.65 1046.81 1422.46 1046.81C1422.46 1048.33 1422.98 1049.09 1424.03 1049.09 1425.41 1049.09 1427.01 1048.23 1428.84 1046.51 1430.67 1044.79 1432.82 1042.19 1435.29 1038.72 1434.6 1034.56 1433.67 1029.55 1432.48 1023.68 1431.22 1017.41 1430.39 1013.52 1429.98 1012.02 1429.48 1010.22 1428.96 1009.07 1428.41 1008.57 1428.08 1008.26 1427.67 1008.1 1427.17 1008.1 1426.41 1008.1 1425.69 1008.41 1425.03 1009.03 1424.36 1009.65 1423.54 1010.72 1422.57 1012.24L1420.25 1010.7C1421.89 1008.26 1423.42 1006.53 1424.85 1005.52 1426.28 1004.51 1427.87 1004 1429.63 1004Z" fill-rule="evenodd"/><text fill="#000000" fill-opacity="0" font-family="Arial,Arial_MSFontService,sans-serif" font-size="50.1875" x="1418.11" y="1047.92">𝑦</text><path d="M1472.34 1020.1C1474.13 1020.1 1475.67 1020.3 1476.93 1020.71 1478.2 1021.12 1479.23 1021.66 1480.03 1022.35 1480.82 1023.04 1481.39 1023.87 1481.75 1024.84 1482.1 1025.8 1482.28 1026.85 1482.28 1027.97 1482.28 1028.64 1482.23 1029.27 1482.14 1029.84 1482.04 1030.42 1481.88 1030.99 1481.64 1031.55 1481.41 1032.11 1481.1 1032.68 1480.72 1033.25 1480.35 1033.82 1479.87 1034.42 1479.3 1035.06 1478.87 1035.61 1478.31 1036.25 1477.62 1036.97 1476.93 1037.7 1476.17 1038.48 1475.35 1039.3 1474.54 1040.13 1473.68 1040.99 1472.78 1041.89 1471.88 1042.79 1471.01 1043.68 1470.17 1044.56 1469.32 1045.44 1468.54 1046.29 1467.84 1047.12 1467.13 1047.95 1466.55 1048.71 1466.1 1049.4L1475.68 1049.4C1476.49 1049.4 1477.14 1049.37 1477.62 1049.31 1478.1 1049.25 1478.5 1049.11 1478.82 1048.9 1479.14 1048.7 1479.41 1048.38 1479.64 1047.96 1479.86 1047.54 1480.12 1046.96 1480.41 1046.21L1482.82 1046.21C1482.73 1047.44 1482.65 1048.67 1482.58 1049.91 1482.5 1051.16 1482.42 1052.39 1482.33 1053.61L1460.41 1053.61 1460.41 1052.27C1460.82 1051.34 1461.31 1050.42 1461.86 1049.51 1462.41 1048.61 1463.03 1047.69 1463.72 1046.76 1464.41 1045.83 1465.2 1044.86 1466.08 1043.87 1466.96 1042.88 1467.93 1041.85 1469 1040.78 1470.62 1039.16 1471.94 1037.77 1472.96 1036.63 1473.98 1035.48 1474.78 1034.46 1475.37 1033.56 1475.95 1032.66 1476.36 1031.83 1476.57 1031.07 1476.79 1030.32 1476.89 1029.5 1476.89 1028.64 1476.89 1027.76 1476.77 1026.95 1476.52 1026.21 1476.27 1025.47 1475.91 1024.84 1475.45 1024.32 1474.98 1023.8 1474.39 1023.4 1473.67 1023.1 1472.96 1022.81 1472.13 1022.66 1471.2 1022.66 1469.6 1022.66 1468.25 1023.1 1467.16 1023.97 1466.08 1024.84 1465.23 1026.11 1464.63 1027.76L1461.24 1027.76 1461.24 1022.72C1463.45 1021.8 1465.48 1021.14 1467.33 1020.72 1469.19 1020.31 1470.86 1020.1 1472.34 1020.1Z" fill-rule="evenodd"/><text fill="#000000" fill-opacity="0" font-family="Arial,Arial_MSFontService,sans-serif" font-size="33.5132" x="1460.41" y="1049.43">2</text><path d="M1572.59 1004.57 1597.93 1004.57 1598.61 1006.36 1581.6 1025.89C1578.3 1029.67 1575.44 1032.88 1573.01 1035.51L1573.23 1035.76 1581.28 1035.76C1582.71 1035.76 1583.8 1035.69 1584.56 1035.53 1585.32 1035.38 1585.99 1035.09 1586.56 1034.66 1587.13 1034.23 1587.72 1033.58 1588.32 1032.72 1588.93 1031.85 1589.68 1030.49 1590.59 1028.63L1593.76 1028.63 1591.58 1038.65 1565.78 1038.65 1565.1 1036.9 1584.6 1014.45C1587.35 1011.29 1589.37 1009.04 1590.66 1007.71L1590.44 1007.46 1582.1 1007.46C1580.87 1007.46 1579.96 1007.54 1579.39 1007.71 1578.82 1007.88 1578.25 1008.17 1577.68 1008.58 1577.11 1009 1576.5 1009.62 1575.85 1010.44 1575.19 1011.26 1574.46 1012.43 1573.65 1013.95L1570.48 1013.95Z" fill-rule="evenodd"/><text fill="#000000" fill-opacity="0" font-family="Arial,Arial_MSFontService,sans-serif" font-size="34.0762" x="1565.1" y="1034.39">𝑧</text><path d="M1613.39 1020.1C1615.19 1020.1 1616.72 1020.3 1617.99 1020.71 1619.25 1021.12 1620.28 1021.66 1621.08 1022.35 1621.87 1023.04 1622.45 1023.87 1622.8 1024.84 1623.15 1025.8 1623.33 1026.85 1623.33 1027.97 1623.33 1028.64 1623.28 1029.27 1623.19 1029.84 1623.09 1030.42 1622.93 1030.99 1622.7 1031.55 1622.46 1032.11 1622.16 1032.68 1621.78 1033.25 1621.4 1033.82 1620.92 1034.42 1620.35 1035.06 1619.92 1035.61 1619.36 1036.25 1618.67 1036.97 1617.98 1037.7 1617.23 1038.48 1616.41 1039.3 1615.59 1040.13 1614.73 1040.99 1613.83 1041.89 1612.94 1042.79 1612.06 1043.68 1611.22 1044.56 1610.37 1045.44 1609.6 1046.29 1608.89 1047.12 1608.18 1047.95 1607.6 1048.71 1607.16 1049.4L1616.73 1049.4C1617.54 1049.4 1618.19 1049.37 1618.67 1049.31 1619.15 1049.25 1619.56 1049.11 1619.87 1048.9 1620.19 1048.7 1620.47 1048.38 1620.69 1047.96 1620.91 1047.54 1621.17 1046.96 1621.47 1046.21L1623.87 1046.21C1623.79 1047.44 1623.7 1048.67 1623.63 1049.91 1623.55 1051.16 1623.47 1052.39 1623.38 1053.61L1601.46 1053.61 1601.46 1052.27C1601.88 1051.34 1602.36 1050.42 1602.91 1049.51 1603.46 1048.61 1604.08 1047.69 1604.77 1046.76 1605.46 1045.83 1606.25 1044.86 1607.13 1043.87 1608.01 1042.88 1608.98 1041.85 1610.05 1040.78 1611.68 1039.16 1613 1037.77 1614.01 1036.63 1615.03 1035.48 1615.83 1034.46 1616.42 1033.56 1617.01 1032.66 1617.41 1031.83 1617.62 1031.07 1617.84 1030.32 1617.95 1029.5 1617.95 1028.64 1617.95 1027.76 1617.82 1026.95 1617.57 1026.21 1617.32 1025.47 1616.96 1024.84 1616.5 1024.32 1616.03 1023.8 1615.44 1023.4 1614.72 1023.1 1614.01 1022.81 1613.19 1022.66 1612.25 1022.66 1610.65 1022.66 1609.3 1023.1 1608.22 1023.97 1607.13 1024.84 1606.28 1026.11 1605.68 1027.76L1602.29 1027.76 1602.29 1022.72C1604.5 1021.8 1606.53 1021.14 1608.38 1020.72 1610.24 1020.31 1611.91 1020.1 1613.39 1020.1Z" fill-rule="evenodd"/><text fill="#000000" fill-opacity="0" font-family="Arial,Arial_MSFontService,sans-serif" font-size="33.5132" x="1601.46" y="1049.43">2</text><path d="M1672.45 998.733 1678.69 998.733C1679.02 1000.4 1679.19 1002.04 1679.19 1003.65 1679.19 1005.32 1678.91 1006.84 1678.34 1008.21 1677.77 1009.59 1676.86 1010.96 1675.61 1012.33 1674.36 1013.7 1672.64 1015.2 1670.46 1016.84L1668.53 1014.67C1669.75 1013.53 1670.62 1012.5 1671.17 1011.58 1671.72 1010.67 1672.11 1009.63 1672.35 1008.46 1672.58 1007.3 1672.7 1005.84 1672.7 1004.08 1672.7 1002.27 1672.62 1000.49 1672.45 998.733Z" fill-rule="evenodd"/><text fill="#000000" fill-opacity="0" font-family="Arial,Arial_MSFontService,sans-serif" font-size="18.1074" x="1668.53" y="1014.58">,</text><path d="M1940.41 926.267 1946.22 926.267 1946.22 1046.03 1940.41 1046.03ZM1703.59 926.267 1709.4 926.267 1709.4 1046.03 1703.59 1046.03Z" fill-rule="evenodd"/><path d="M1727.55 918.934 1752.89 918.934 1753.57 920.717 1736.57 940.25C1733.26 944.028 1730.4 947.236 1727.98 949.874L1728.19 950.123 1736.25 950.123C1737.67 950.123 1738.76 950.046 1739.52 949.892 1740.29 949.737 1740.95 949.446 1741.52 949.018 1742.09 948.591 1742.68 947.943 1743.29 947.076 1743.89 946.208 1744.65 944.848 1745.55 942.995L1748.72 942.995 1746.55 953.011 1720.74 953.011 1720.06 951.264 1739.56 928.808C1742.32 925.648 1744.34 923.402 1745.62 922.071L1745.41 921.822 1737.07 921.822C1735.83 921.822 1734.93 921.905 1734.36 922.071 1733.79 922.237 1733.22 922.529 1732.65 922.944 1732.07 923.36 1731.46 923.978 1730.81 924.798 1730.16 925.618 1729.43 926.788 1728.62 928.309L1725.45 928.309Z" fill-rule="evenodd"/><text fill="#000000" fill-opacity="0" font-family="Arial,Arial_MSFontService,sans-serif" font-size="34.0762" x="1720.06" y="948.751">𝑧</text><path d="M1768.68 934.643 1770.26 934.643C1770.22 935.592 1770.2 936.442 1770.18 937.192 1770.16 937.943 1770.15 938.672 1770.14 939.379 1770.13 940.086 1770.13 940.785 1770.13 941.475L1770.13 961.143C1770.13 961.678 1770.14 962.14 1770.18 962.528 1770.21 962.916 1770.27 963.244 1770.35 963.511 1770.42 963.779 1770.53 964.007 1770.66 964.197 1770.79 964.387 1770.94 964.551 1771.11 964.689 1771.32 964.896 1771.59 965.055 1771.94 965.167 1772.28 965.279 1772.72 965.374 1773.26 965.452 1773.79 965.53 1774.44 965.59 1775.19 965.633 1775.94 965.676 1776.84 965.706 1777.89 965.724L1777.89 967.975 1757.37 967.975 1757.37 965.724C1758.39 965.689 1759.25 965.65 1759.96 965.607 1760.66 965.564 1761.27 965.504 1761.77 965.426 1762.27 965.349 1762.67 965.262 1762.97 965.167 1763.27 965.072 1763.54 964.956 1763.76 964.818 1764 964.663 1764.21 964.495 1764.38 964.313 1764.55 964.132 1764.69 963.904 1764.8 963.628 1764.9 963.352 1764.98 963.015 1765.04 962.618 1765.1 962.221 1765.13 961.73 1765.13 961.143L1765.13 942.588C1765.13 941.915 1765 941.441 1764.74 941.165 1764.48 940.889 1764.11 940.751 1763.63 940.751 1763.1 940.751 1762.3 941.027 1761.25 941.579 1760.2 942.131 1758.83 942.95 1757.16 944.037 1756.94 943.64 1756.73 943.244 1756.54 942.847 1756.35 942.45 1756.15 942.045 1755.94 941.63 1758.08 940.457 1760.2 939.288 1762.3 938.124 1764.39 936.959 1766.52 935.799 1768.68 934.643Z" fill-rule="evenodd"/><text fill="#000000" fill-opacity="0" font-family="Arial,Arial_MSFontService,sans-serif" font-size="33.332" x="1755.94" y="963.809">1</text><path d="M1874.3 918.328C1875.04 918.328 1875.69 918.412 1876.25 918.578 1876.8 918.744 1877.3 919 1877.73 919.344 1878.15 919.689 1878.53 920.134 1878.87 920.681 1879.2 921.228 1879.52 921.97 1879.83 922.909 1880.14 923.847 1880.43 925.012 1880.7 926.402 1880.97 927.792 1881.22 929.236 1881.43 930.733L1881.79 930.733C1884.07 927.525 1885.8 925.178 1886.97 923.693 1888.15 922.208 1889.14 921.103 1889.95 920.378 1890.76 919.653 1891.54 919.142 1892.29 918.845 1893.03 918.548 1894.03 918.4 1895.26 918.4 1896.38 918.4 1897.29 918.542 1898.01 918.828L1896.58 925.279 1894.09 925.279C1893.94 924.281 1893.53 923.782 1892.84 923.782 1892.62 923.782 1892.4 923.818 1892.16 923.889 1891.92 923.96 1891.63 924.115 1891.29 924.352 1890.94 924.59 1890.44 925.053 1889.77 925.743 1889.11 926.432 1888.36 927.275 1887.53 928.273 1886.7 929.271 1885.84 930.317 1884.96 931.41L1882.54 934.44C1882.96 936.721 1883.37 938.693 1883.75 940.357 1884.13 942.02 1884.47 943.404 1884.77 944.509 1885.06 945.614 1885.32 946.488 1885.55 947.129 1885.77 947.771 1886.02 948.252 1886.28 948.573 1886.54 948.894 1886.81 949.119 1887.08 949.25 1887.36 949.381 1887.67 949.446 1888.03 949.446 1888.67 949.446 1889.29 949.197 1889.9 948.698 1890.5 948.199 1891.38 947.07 1892.52 945.311L1894.83 946.844C1893.17 949.315 1891.67 951.056 1890.33 952.066 1888.98 953.076 1887.38 953.581 1885.53 953.581 1884.51 953.581 1883.64 953.397 1882.93 953.028 1882.22 952.66 1881.6 952.072 1881.08 951.264 1880.55 950.456 1880.09 949.197 1879.69 947.486 1878.95 944.444 1878.5 942.115 1878.33 940.499L1877.97 940.499C1875.46 944.04 1873.58 946.583 1872.36 948.127 1871.14 949.672 1870.13 950.813 1869.33 951.549 1868.53 952.286 1867.76 952.803 1867.01 953.1 1866.27 953.397 1865.27 953.545 1864.04 953.545 1862.92 953.545 1862.01 953.403 1861.29 953.118L1862.72 946.666 1865.21 946.666C1865.36 947.664 1865.77 948.163 1866.46 948.163 1866.79 948.163 1867.14 948.074 1867.51 947.896 1867.88 947.717 1868.41 947.29 1869.1 946.612 1869.79 945.935 1870.74 944.872 1871.95 943.422 1873.16 941.973 1874.92 939.798 1877.23 936.899 1876.87 935.022 1876.5 933.216 1876.12 931.481 1875.74 929.747 1875.35 928.131 1874.94 926.634 1874.54 925.137 1874.21 924.156 1873.95 923.693 1873.69 923.23 1873.41 922.909 1873.11 922.731 1872.81 922.552 1872.44 922.463 1871.99 922.463 1871.49 922.463 1871.04 922.576 1870.63 922.802 1870.23 923.028 1869.79 923.42 1869.31 923.978 1868.84 924.537 1868.21 925.41 1867.42 926.598L1865.11 925.065C1866.6 922.808 1868.04 921.121 1869.42 920.004 1870.8 918.887 1872.43 918.328 1874.3 918.328Z" fill-rule="evenodd"/><text fill="#000000" fill-opacity="0" font-family="Arial,Arial_MSFontService,sans-serif" font-size="35.2524" x="1861.29" y="949.174">𝑥</text><path d="M1914.24 934.643 1915.82 934.643C1915.79 935.592 1915.76 936.442 1915.74 937.192 1915.73 937.943 1915.71 938.672 1915.71 939.379 1915.7 940.086 1915.69 940.785 1915.69 941.475L1915.69 961.143C1915.69 961.678 1915.71 962.14 1915.74 962.528 1915.78 962.916 1915.84 963.244 1915.91 963.511 1915.99 963.779 1916.09 964.007 1916.22 964.197 1916.35 964.387 1916.5 964.551 1916.68 964.689 1916.88 964.896 1917.16 965.055 1917.5 965.167 1917.85 965.279 1918.29 965.374 1918.82 965.452 1919.36 965.53 1920 965.59 1920.75 965.633 1921.5 965.676 1922.4 965.706 1923.46 965.724L1923.46 967.975 1902.93 967.975 1902.93 965.724C1903.95 965.689 1904.82 965.65 1905.52 965.607 1906.23 965.564 1906.83 965.504 1907.33 965.426 1907.83 965.349 1908.24 965.262 1908.54 965.167 1908.84 965.072 1909.1 964.956 1909.33 964.818 1909.57 964.663 1909.78 964.495 1909.95 964.313 1910.12 964.132 1910.26 963.904 1910.36 963.628 1910.47 963.352 1910.55 963.015 1910.61 962.618 1910.67 962.221 1910.7 961.73 1910.7 961.143L1910.7 942.588C1910.7 941.915 1910.57 941.441 1910.31 941.165 1910.05 940.889 1909.68 940.751 1909.2 940.751 1908.66 940.751 1907.87 941.027 1906.82 941.579 1905.76 942.131 1904.4 942.95 1902.73 944.037 1902.5 943.64 1902.3 943.244 1902.11 942.847 1901.92 942.45 1901.72 942.045 1901.51 941.63 1903.65 940.457 1905.77 939.288 1907.86 938.124 1909.96 936.959 1912.09 935.799 1914.24 934.643Z" fill-rule="evenodd"/><text fill="#000000" fill-opacity="0" font-family="Arial,Arial_MSFontService,sans-serif" font-size="33.332" x="1901.51" y="963.809">1</text><path d="M1726.7 1004.92 1752.04 1004.92 1752.72 1006.7 1735.72 1026.23C1732.42 1030.01 1729.55 1033.22 1727.13 1035.86L1727.34 1036.11 1735.4 1036.11C1736.82 1036.11 1737.92 1036.03 1738.68 1035.88 1739.44 1035.72 1740.1 1035.43 1740.67 1035 1741.24 1034.57 1741.83 1033.93 1742.44 1033.06 1743.04 1032.19 1743.8 1030.83 1744.7 1028.98L1747.87 1028.98 1745.7 1038.99 1719.89 1038.99 1719.21 1037.25 1738.71 1014.79C1741.47 1011.63 1743.49 1009.39 1744.77 1008.05L1744.56 1007.81 1736.22 1007.81C1734.98 1007.81 1734.08 1007.89 1733.51 1008.05 1732.94 1008.22 1732.37 1008.51 1731.8 1008.93 1731.23 1009.34 1730.62 1009.96 1729.96 1010.78 1729.31 1011.6 1728.58 1012.77 1727.77 1014.29L1724.6 1014.29Z" fill-rule="evenodd"/><text fill="#000000" fill-opacity="0" font-family="Arial,Arial_MSFontService,sans-serif" font-size="34.0762" x="1719.21" y="1034.73">𝑧</text><path d="M1767.51 1020.45C1769.3 1020.45 1770.83 1020.65 1772.1 1021.05 1773.37 1021.46 1774.4 1022.01 1775.19 1022.7 1775.99 1023.39 1776.56 1024.21 1776.91 1025.18 1777.27 1026.15 1777.44 1027.19 1777.44 1028.31 1777.44 1028.99 1777.4 1029.61 1777.3 1030.19 1777.21 1030.77 1777.04 1031.34 1776.81 1031.9 1776.58 1032.46 1776.27 1033.02 1775.89 1033.59 1775.51 1034.16 1775.04 1034.77 1774.47 1035.4 1774.04 1035.96 1773.48 1036.59 1772.79 1037.32 1772.1 1038.04 1771.34 1038.82 1770.52 1039.65 1769.7 1040.48 1768.84 1041.34 1767.95 1042.24 1767.05 1043.13 1766.18 1044.02 1765.33 1044.9 1764.49 1045.78 1763.71 1046.63 1763 1047.46 1762.3 1048.29 1761.72 1049.05 1761.27 1049.74L1770.85 1049.74C1771.66 1049.74 1772.3 1049.71 1772.79 1049.65 1773.27 1049.59 1773.67 1049.46 1773.99 1049.25 1774.31 1049.04 1774.58 1048.73 1774.8 1048.3 1775.03 1047.88 1775.29 1047.3 1775.58 1046.56L1777.99 1046.56C1777.9 1047.78 1777.82 1049.02 1777.74 1050.26 1777.66 1051.5 1777.58 1052.73 1777.5 1053.96L1755.58 1053.96 1755.58 1052.61C1755.99 1051.68 1756.47 1050.76 1757.03 1049.86 1757.58 1048.95 1758.2 1048.03 1758.89 1047.1 1759.58 1046.17 1760.36 1045.21 1761.24 1044.22 1762.12 1043.22 1763.1 1042.19 1764.17 1041.12 1765.79 1039.5 1767.11 1038.12 1768.13 1036.97 1769.15 1035.82 1769.95 1034.8 1770.53 1033.9 1771.12 1033.01 1771.52 1032.18 1771.74 1031.42 1771.95 1030.66 1772.06 1029.85 1772.06 1028.99 1772.06 1028.11 1771.94 1027.29 1771.69 1026.55 1771.44 1025.81 1771.08 1025.18 1770.61 1024.66 1770.15 1024.15 1769.56 1023.74 1768.84 1023.45 1768.12 1023.15 1767.3 1023.01 1766.37 1023.01 1764.76 1023.01 1763.42 1023.44 1762.33 1024.31 1761.24 1025.19 1760.4 1026.45 1759.79 1028.11L1756.4 1028.11 1756.4 1023.06C1758.61 1022.14 1760.64 1021.48 1762.5 1021.07 1764.35 1020.65 1766.02 1020.45 1767.51 1020.45Z" fill-rule="evenodd"/><text fill="#000000" fill-opacity="0" font-family="Arial,Arial_MSFontService,sans-serif" font-size="33.5132" x="1755.58" y="1049.77">2</text><path d="M1873.46 1004.31C1874.19 1004.31 1874.84 1004.4 1875.4 1004.56 1875.96 1004.73 1876.45 1004.98 1876.88 1005.33 1877.3 1005.67 1877.69 1006.12 1878.02 1006.66 1878.35 1007.21 1878.67 1007.95 1878.98 1008.89 1879.29 1009.83 1879.58 1011 1879.85 1012.39 1880.13 1013.78 1880.37 1015.22 1880.58 1016.72L1880.94 1016.72C1883.22 1013.51 1884.95 1011.16 1886.13 1009.68 1887.3 1008.19 1888.3 1007.09 1889.1 1006.36 1889.91 1005.64 1890.69 1005.13 1891.44 1004.83 1892.19 1004.53 1893.18 1004.38 1894.41 1004.38 1895.53 1004.38 1896.45 1004.53 1897.16 1004.81L1895.73 1011.26 1893.24 1011.26C1893.1 1010.26 1892.68 1009.77 1891.99 1009.77 1891.78 1009.77 1891.55 1009.8 1891.31 1009.87 1891.08 1009.94 1890.78 1010.1 1890.44 1010.34 1890.1 1010.57 1889.59 1011.04 1888.93 1011.73 1888.26 1012.42 1887.51 1013.26 1886.68 1014.26 1885.85 1015.25 1884.99 1016.3 1884.11 1017.39L1881.69 1020.42C1882.12 1022.7 1882.52 1024.68 1882.9 1026.34 1883.28 1028 1883.62 1029.39 1883.92 1030.49 1884.21 1031.6 1884.48 1032.47 1884.7 1033.11 1884.93 1033.75 1885.17 1034.24 1885.43 1034.56 1885.69 1034.88 1885.96 1035.1 1886.23 1035.23 1886.51 1035.36 1886.82 1035.43 1887.18 1035.43 1887.82 1035.43 1888.44 1035.18 1889.05 1034.68 1889.66 1034.18 1890.53 1033.05 1891.67 1031.29L1893.99 1032.83C1892.32 1035.3 1890.82 1037.04 1889.48 1038.05 1888.13 1039.06 1886.54 1039.56 1884.68 1039.56 1883.66 1039.56 1882.79 1039.38 1882.08 1039.01 1881.37 1038.64 1880.75 1038.06 1880.23 1037.25 1879.7 1036.44 1879.24 1035.18 1878.84 1033.47 1878.1 1030.43 1877.65 1028.1 1877.48 1026.48L1877.13 1026.48C1874.61 1030.02 1872.74 1032.57 1871.51 1034.11 1870.29 1035.66 1869.28 1036.8 1868.48 1037.53 1867.69 1038.27 1866.91 1038.79 1866.17 1039.08 1865.42 1039.38 1864.43 1039.53 1863.19 1039.53 1862.07 1039.53 1861.16 1039.39 1860.45 1039.1L1861.87 1032.65 1864.37 1032.65C1864.51 1033.65 1864.92 1034.15 1865.61 1034.15 1865.95 1034.15 1866.3 1034.06 1866.67 1033.88 1867.03 1033.7 1867.56 1033.27 1868.25 1032.6 1868.94 1031.92 1869.89 1030.86 1871.1 1029.41 1872.31 1027.96 1874.07 1025.78 1876.38 1022.88 1876.02 1021.01 1875.65 1019.2 1875.27 1017.46 1874.89 1015.73 1874.5 1014.11 1874.1 1012.62 1873.69 1011.12 1873.36 1010.14 1873.1 1009.68 1872.84 1009.21 1872.56 1008.89 1872.26 1008.71 1871.96 1008.54 1871.59 1008.45 1871.14 1008.45 1870.64 1008.45 1870.19 1008.56 1869.78 1008.79 1869.38 1009.01 1868.94 1009.4 1868.47 1009.96 1867.99 1010.52 1867.36 1011.39 1866.58 1012.58L1864.26 1011.05C1865.76 1008.79 1867.19 1007.1 1868.57 1005.99 1869.95 1004.87 1871.58 1004.31 1873.46 1004.31Z" fill-rule="evenodd"/><text fill="#000000" fill-opacity="0" font-family="Arial,Arial_MSFontService,sans-serif" font-size="35.2524" x="1860.45" y="1035.16">𝑥</text><path d="M1913.07 1020.45C1914.87 1020.45 1916.4 1020.65 1917.67 1021.05 1918.93 1021.46 1919.97 1022.01 1920.76 1022.7 1921.55 1023.39 1922.13 1024.21 1922.48 1025.18 1922.83 1026.15 1923.01 1027.19 1923.01 1028.31 1923.01 1028.99 1922.96 1029.61 1922.87 1030.19 1922.77 1030.77 1922.61 1031.34 1922.38 1031.9 1922.14 1032.46 1921.84 1033.02 1921.46 1033.59 1921.08 1034.16 1920.6 1034.77 1920.03 1035.4 1919.6 1035.96 1919.04 1036.59 1918.35 1037.32 1917.66 1038.04 1916.91 1038.82 1916.09 1039.65 1915.27 1040.48 1914.41 1041.34 1913.51 1042.24 1912.62 1043.13 1911.74 1044.02 1910.9 1044.9 1910.05 1045.78 1909.28 1046.63 1908.57 1047.46 1907.86 1048.29 1907.29 1049.05 1906.84 1049.74L1916.41 1049.74C1917.22 1049.74 1917.87 1049.71 1918.35 1049.65 1918.84 1049.59 1919.24 1049.46 1919.56 1049.25 1919.88 1049.04 1920.15 1048.73 1920.37 1048.3 1920.6 1047.88 1920.85 1047.3 1921.15 1046.56L1923.55 1046.56C1923.47 1047.78 1923.39 1049.02 1923.31 1050.26 1923.23 1051.5 1923.15 1052.73 1923.06 1053.96L1901.14 1053.96 1901.14 1052.61C1901.56 1051.68 1902.04 1050.76 1902.59 1049.86 1903.14 1048.95 1903.77 1048.03 1904.46 1047.1 1905.15 1046.17 1905.93 1045.21 1906.81 1044.22 1907.69 1043.22 1908.67 1042.19 1909.73 1041.12 1911.36 1039.5 1912.68 1038.12 1913.69 1036.97 1914.71 1035.82 1915.51 1034.8 1916.1 1033.9 1916.69 1033.01 1917.09 1032.18 1917.3 1031.42 1917.52 1030.66 1917.63 1029.85 1917.63 1028.99 1917.63 1028.11 1917.5 1027.29 1917.25 1026.55 1917 1025.81 1916.64 1025.18 1916.18 1024.66 1915.71 1024.15 1915.12 1023.74 1914.41 1023.45 1913.69 1023.15 1912.87 1023.01 1911.93 1023.01 1910.33 1023.01 1908.98 1023.44 1907.9 1024.31 1906.81 1025.19 1905.97 1026.45 1905.36 1028.11L1901.97 1028.11 1901.97 1023.06C1904.18 1022.14 1906.21 1021.48 1908.07 1021.07 1909.92 1020.65 1911.59 1020.45 1913.07 1020.45Z" fill-rule="evenodd"/><text fill="#000000" fill-opacity="0" font-family="Arial,Arial_MSFontService,sans-serif" font-size="33.5132" x="1901.14" y="1049.77">2</text><path d="M1972.14 998.733 1978.37 998.733C1978.71 1000.4 1978.87 1002.04 1978.87 1003.65 1978.87 1005.32 1978.59 1006.84 1978.02 1008.21 1977.45 1009.59 1976.54 1010.96 1975.29 1012.33 1974.04 1013.7 1972.33 1015.2 1970.14 1016.84L1968.21 1014.67C1969.43 1013.53 1970.31 1012.5 1970.85 1011.58 1971.4 1010.67 1971.79 1009.63 1972.03 1008.46 1972.27 1007.3 1972.39 1005.84 1972.39 1004.08 1972.39 1002.27 1972.3 1000.49 1972.14 998.733Z" fill-rule="evenodd"/><text fill="#000000" fill-opacity="0" font-family="Arial,Arial_MSFontService,sans-serif" font-size="18.1074" x="1968.21" y="1014.58">,</text><path d="M2245.39 926.267 2251.2 926.267 2251.2 1046.03 2245.39 1046.03ZM2003.27 926.267 2009.08 926.267 2009.08 1046.03 2003.27 1046.03Z" fill-rule="evenodd"/><path d="M2032.93 918.008C2033.67 918.008 2034.32 918.091 2034.88 918.257 2035.43 918.424 2035.93 918.679 2036.35 919.024 2036.78 919.368 2037.16 919.814 2037.49 920.36 2037.83 920.907 2038.15 921.649 2038.46 922.588 2038.77 923.527 2039.06 924.691 2039.33 926.081 2039.6 927.471 2039.85 928.915 2040.06 930.412L2040.42 930.412C2042.7 927.204 2044.43 924.857 2045.6 923.372 2046.78 921.887 2047.77 920.782 2048.58 920.057 2049.39 919.332 2050.17 918.822 2050.92 918.525 2051.66 918.227 2052.66 918.079 2053.89 918.079 2055.01 918.079 2055.92 918.222 2056.64 918.507L2055.21 924.958 2052.72 924.958C2052.57 923.96 2052.16 923.461 2051.47 923.461 2051.25 923.461 2051.03 923.497 2050.79 923.568 2050.55 923.64 2050.26 923.794 2049.92 924.032 2049.57 924.269 2049.07 924.733 2048.4 925.422 2047.74 926.111 2046.99 926.954 2046.16 927.953 2045.32 928.951 2044.47 929.996 2043.59 931.089L2041.17 934.119C2041.59 936.4 2042 938.373 2042.38 940.036 2042.76 941.699 2043.1 943.084 2043.39 944.189 2043.69 945.294 2043.95 946.167 2044.18 946.808 2044.4 947.45 2044.65 947.931 2044.91 948.252 2045.17 948.573 2045.44 948.799 2045.71 948.929 2045.98 949.06 2046.3 949.125 2046.66 949.125 2047.3 949.125 2047.92 948.876 2048.53 948.377 2049.13 947.878 2050.01 946.749 2051.15 944.991L2053.46 946.523C2051.8 948.995 2050.3 950.735 2048.95 951.745 2047.61 952.755 2046.01 953.26 2044.16 953.26 2043.14 953.26 2042.27 953.076 2041.56 952.708 2040.85 952.339 2040.23 951.751 2039.7 950.943 2039.18 950.135 2038.72 948.876 2038.31 947.165 2037.58 944.123 2037.13 941.794 2036.96 940.179L2036.6 940.179C2034.08 943.719 2032.21 946.262 2030.99 947.807 2029.77 949.351 2028.76 950.492 2027.96 951.228 2027.16 951.965 2026.39 952.482 2025.64 952.779 2024.89 953.076 2023.9 953.224 2022.67 953.224 2021.55 953.224 2020.64 953.082 2019.92 952.797L2021.35 946.345 2023.84 946.345C2023.99 947.343 2024.4 947.842 2025.09 947.842 2025.42 947.842 2025.77 947.753 2026.14 947.575 2026.51 947.397 2027.04 946.969 2027.73 946.292 2028.42 945.614 2029.37 944.551 2030.58 943.101 2031.79 941.652 2033.55 939.478 2035.86 936.578 2035.5 934.701 2035.13 932.895 2034.75 931.161 2034.37 929.426 2033.98 927.81 2033.57 926.313 2033.17 924.816 2032.84 923.836 2032.58 923.372 2032.31 922.909 2032.04 922.588 2031.74 922.41 2031.44 922.232 2031.07 922.142 2030.62 922.142 2030.12 922.142 2029.67 922.255 2029.26 922.481 2028.86 922.707 2028.42 923.099 2027.94 923.657 2027.47 924.216 2026.84 925.089 2026.05 926.277L2023.74 924.745C2025.23 922.487 2026.67 920.8 2028.05 919.683 2029.43 918.566 2031.06 918.008 2032.93 918.008Z" fill-rule="evenodd"/><text fill="#000000" fill-opacity="0" font-family="Arial,Arial_MSFontService,sans-serif" font-size="35.2524" x="2019.92" y="948.854">𝑥</text><path d="M2072.87 934.322 2074.45 934.322C2074.42 935.271 2074.39 936.121 2074.37 936.871 2074.36 937.622 2074.34 938.351 2074.34 939.058 2074.33 939.766 2074.32 940.464 2074.32 941.154L2074.32 960.822C2074.32 961.357 2074.34 961.819 2074.37 962.207 2074.41 962.595 2074.46 962.923 2074.54 963.19 2074.62 963.458 2074.72 963.686 2074.85 963.876 2074.98 964.066 2075.13 964.23 2075.31 964.368 2075.51 964.575 2075.79 964.734 2076.13 964.847 2076.48 964.959 2076.92 965.054 2077.45 965.131 2077.99 965.209 2078.63 965.269 2079.38 965.312 2080.13 965.356 2081.03 965.386 2082.09 965.403L2082.09 967.654 2061.56 967.654 2061.56 965.403C2062.58 965.368 2063.44 965.33 2064.15 965.286 2064.86 965.243 2065.46 965.183 2065.96 965.105 2066.46 965.028 2066.86 964.941 2067.17 964.847 2067.47 964.752 2067.73 964.635 2067.96 964.497 2068.2 964.342 2068.4 964.174 2068.58 963.993 2068.75 963.811 2068.89 963.583 2068.99 963.307 2069.09 963.031 2069.18 962.694 2069.24 962.297 2069.3 961.901 2069.33 961.409 2069.33 960.822L2069.33 942.267C2069.33 941.594 2069.2 941.12 2068.94 940.844 2068.68 940.568 2068.31 940.43 2067.83 940.43 2067.29 940.43 2066.5 940.706 2065.45 941.258 2064.39 941.81 2063.03 942.63 2061.36 943.716 2061.13 943.32 2060.93 942.923 2060.74 942.526 2060.55 942.129 2060.35 941.724 2060.14 941.31 2062.28 940.137 2064.4 938.968 2066.49 937.803 2068.59 936.639 2070.72 935.478 2072.87 934.322Z" fill-rule="evenodd"/><text fill="#000000" fill-opacity="0" font-family="Arial,Arial_MSFontService,sans-serif" font-size="33.332" x="2060.14" y="963.488">1</text><path d="M2176.18 918.043C2177.16 918.043 2177.99 918.174 2178.68 918.435 2179.15 918.626 2179.63 918.94 2180.1 919.38 2180.58 919.82 2181 920.432 2181.37 921.216 2181.74 922 2182.06 922.879 2182.33 923.853 2182.6 924.828 2182.91 926.23 2183.24 928.059 2183.81 931.125 2184.36 934.351 2184.9 937.737 2185.43 941.123 2185.89 944.266 2186.27 947.165 2188.57 943.838 2190.53 940.583 2192.13 937.398 2193.74 934.214 2194.89 931.446 2195.59 929.093 2196.29 926.741 2196.64 924.828 2196.64 923.354 2196.64 922.237 2196.4 921.477 2195.93 921.073 2195.45 920.669 2194.65 920.432 2193.51 920.36L2193.86 918.614 2203.24 918.614 2204.2 920.396C2202.39 925.339 2199.95 930.626 2196.86 936.258 2193.81 941.771 2190.33 947.26 2186.41 952.725 2182.66 957.93 2179.53 961.696 2177.04 964.025 2175.3 965.617 2173.63 966.758 2172.01 967.447 2170.73 967.969 2169.36 968.231 2167.91 968.231 2167.41 968.231 2166.84 968.189 2166.18 968.106 2165.53 968.023 2165.03 967.91 2164.67 967.767L2166.2 960.852 2169.02 960.852C2169.02 962.373 2169.54 963.134 2170.59 963.134 2171.96 963.134 2173.57 962.272 2175.4 960.549 2177.23 958.827 2179.38 956.231 2181.85 952.761 2181.16 948.603 2180.22 943.589 2179.03 937.719 2177.77 931.446 2176.94 927.56 2176.54 926.063 2176.04 924.257 2175.52 923.105 2174.97 922.606 2174.64 922.297 2174.22 922.142 2173.72 922.142 2172.96 922.142 2172.25 922.451 2171.58 923.069 2170.92 923.687 2170.1 924.756 2169.12 926.277L2166.81 924.745C2168.45 922.297 2169.98 920.568 2171.41 919.558 2172.83 918.548 2174.42 918.043 2176.18 918.043Z" fill-rule="evenodd"/><text fill="#000000" fill-opacity="0" font-family="Arial,Arial_MSFontService,sans-serif" font-size="50.1875" x="2164.67" y="961.957">𝑦</text><path d="M2219.22 934.322 2220.8 934.322C2220.76 935.271 2220.74 936.121 2220.72 936.871 2220.7 937.622 2220.69 938.351 2220.68 939.058 2220.67 939.766 2220.67 940.464 2220.67 941.154L2220.67 960.822C2220.67 961.357 2220.69 961.819 2220.72 962.207 2220.75 962.595 2220.81 962.923 2220.89 963.19 2220.97 963.458 2221.07 963.686 2221.2 963.876 2221.33 964.066 2221.48 964.23 2221.65 964.368 2221.86 964.575 2222.13 964.734 2222.48 964.847 2222.82 964.959 2223.26 965.054 2223.8 965.131 2224.33 965.209 2224.98 965.269 2225.73 965.312 2226.48 965.356 2227.38 965.386 2228.43 965.403L2228.43 967.654 2207.91 967.654 2207.91 965.403C2208.93 965.368 2209.79 965.33 2210.5 965.286 2211.21 965.243 2211.81 965.183 2212.31 965.105 2212.81 965.028 2213.21 964.941 2213.51 964.847 2213.81 964.752 2214.08 964.635 2214.3 964.497 2214.54 964.342 2214.75 964.174 2214.92 963.993 2215.1 963.811 2215.23 963.583 2215.34 963.307 2215.44 963.031 2215.52 962.694 2215.58 962.297 2215.64 961.901 2215.67 961.409 2215.67 960.822L2215.67 942.267C2215.67 941.594 2215.54 941.12 2215.29 940.844 2215.03 940.568 2214.66 940.43 2214.17 940.43 2213.64 940.43 2212.84 940.706 2211.79 941.258 2210.74 941.81 2209.38 942.63 2207.7 943.716 2207.48 943.32 2207.27 942.923 2207.08 942.526 2206.89 942.129 2206.69 941.724 2206.49 941.31 2208.63 940.137 2210.74 938.968 2212.84 937.803 2214.94 936.639 2217.06 935.478 2219.22 934.322Z" fill-rule="evenodd"/><text fill="#000000" fill-opacity="0" font-family="Arial,Arial_MSFontService,sans-serif" font-size="33.332" x="2206.49" y="963.488">1</text><path d="M2032.08 1003.99C2032.82 1003.99 2033.47 1004.07 2034.03 1004.24 2034.59 1004.41 2035.08 1004.66 2035.51 1005.01 2035.93 1005.35 2036.31 1005.8 2036.65 1006.34 2036.98 1006.89 2037.3 1007.63 2037.61 1008.57 2037.92 1009.51 2038.21 1010.67 2038.48 1012.06 2038.76 1013.45 2039 1014.9 2039.21 1016.4L2039.57 1016.4C2041.85 1013.19 2043.58 1010.84 2044.76 1009.36 2045.93 1007.87 2046.92 1006.77 2047.73 1006.04 2048.54 1005.32 2049.32 1004.8 2050.07 1004.51 2050.82 1004.21 2051.81 1004.06 2053.04 1004.06 2054.16 1004.06 2055.08 1004.2 2055.79 1004.49L2054.36 1010.94 2051.87 1010.94C2051.72 1009.94 2051.31 1009.44 2050.62 1009.44 2050.41 1009.44 2050.18 1009.48 2049.94 1009.55 2049.7 1009.62 2049.41 1009.78 2049.07 1010.01 2048.72 1010.25 2048.22 1010.72 2047.55 1011.41 2046.89 1012.09 2046.14 1012.94 2045.31 1013.94 2044.48 1014.93 2043.62 1015.98 2042.74 1017.07L2040.32 1020.1C2040.75 1022.38 2041.15 1024.36 2041.53 1026.02 2041.91 1027.68 2042.25 1029.07 2042.55 1030.17 2042.84 1031.28 2043.1 1032.15 2043.33 1032.79 2043.56 1033.43 2043.8 1033.91 2044.06 1034.24 2044.32 1034.56 2044.59 1034.78 2044.86 1034.91 2045.14 1035.04 2045.45 1035.11 2045.81 1035.11 2046.45 1035.11 2047.07 1034.86 2047.68 1034.36 2048.28 1033.86 2049.16 1032.73 2050.3 1030.97L2052.62 1032.51C2050.95 1034.98 2049.45 1036.72 2048.11 1037.73 2046.76 1038.74 2045.17 1039.24 2043.31 1039.24 2042.29 1039.24 2041.42 1039.06 2040.71 1038.69 2040 1038.32 2039.38 1037.73 2038.86 1036.93 2038.33 1036.12 2037.87 1034.86 2037.47 1033.15 2036.73 1030.11 2036.28 1027.78 2036.11 1026.16L2035.76 1026.16C2033.24 1029.7 2031.37 1032.25 2030.14 1033.79 2028.92 1035.33 2027.91 1036.47 2027.11 1037.21 2026.32 1037.95 2025.54 1038.47 2024.8 1038.76 2024.05 1039.06 2023.05 1039.21 2021.82 1039.21 2020.7 1039.21 2019.79 1039.07 2019.07 1038.78L2020.5 1032.33 2023 1032.33C2023.14 1033.33 2023.55 1033.83 2024.24 1033.83 2024.58 1033.83 2024.93 1033.74 2025.29 1033.56 2025.66 1033.38 2026.19 1032.95 2026.88 1032.27 2027.57 1031.6 2028.52 1030.53 2029.73 1029.08 2030.94 1027.64 2032.7 1025.46 2035.01 1022.56 2034.65 1020.68 2034.28 1018.88 2033.9 1017.14 2033.52 1015.41 2033.13 1013.79 2032.73 1012.3 2032.32 1010.8 2031.99 1009.82 2031.73 1009.36 2031.47 1008.89 2031.19 1008.57 2030.89 1008.39 2030.59 1008.21 2030.22 1008.13 2029.77 1008.13 2029.27 1008.13 2028.82 1008.24 2028.41 1008.46 2028.01 1008.69 2027.57 1009.08 2027.09 1009.64 2026.62 1010.2 2025.99 1011.07 2025.21 1012.26L2022.89 1010.73C2024.39 1008.47 2025.82 1006.78 2027.2 1005.67 2028.58 1004.55 2030.21 1003.99 2032.08 1003.99Z" fill-rule="evenodd"/><text fill="#000000" fill-opacity="0" font-family="Arial,Arial_MSFontService,sans-serif" font-size="35.2524" x="2019.07" y="1034.84">𝑥</text><path d="M2071.7 1020.12C2073.5 1020.12 2075.03 1020.33 2076.3 1020.73 2077.56 1021.14 2078.59 1021.69 2079.39 1022.38 2080.18 1023.07 2080.76 1023.89 2081.11 1024.86 2081.46 1025.83 2081.64 1026.87 2081.64 1027.99 2081.64 1028.66 2081.59 1029.29 2081.5 1029.87 2081.4 1030.45 2081.24 1031.02 2081.01 1031.58 2080.77 1032.14 2080.47 1032.7 2080.09 1033.27 2079.71 1033.84 2079.23 1034.44 2078.66 1035.08 2078.23 1035.63 2077.67 1036.27 2076.98 1037 2076.29 1037.72 2075.54 1038.5 2074.72 1039.33 2073.9 1040.15 2073.04 1041.02 2072.14 1041.91 2071.25 1042.81 2070.37 1043.7 2069.53 1044.58 2068.68 1045.46 2067.91 1046.31 2067.2 1047.14 2066.49 1047.97 2065.91 1048.73 2065.47 1049.42L2075.04 1049.42C2075.85 1049.42 2076.5 1049.39 2076.98 1049.33 2077.47 1049.27 2077.87 1049.13 2078.19 1048.93 2078.5 1048.72 2078.78 1048.41 2079 1047.98 2079.22 1047.56 2079.48 1046.98 2079.78 1046.24L2082.18 1046.24C2082.1 1047.46 2082.02 1048.69 2081.94 1049.94 2081.86 1051.18 2081.78 1052.41 2081.69 1053.64L2059.77 1053.64 2059.77 1052.29C2060.19 1051.36 2060.67 1050.44 2061.22 1049.54 2061.77 1048.63 2062.39 1047.71 2063.08 1046.78 2063.78 1045.85 2064.56 1044.89 2065.44 1043.89 2066.32 1042.9 2067.29 1041.87 2068.36 1040.8 2069.99 1039.18 2071.31 1037.8 2072.32 1036.65 2073.34 1035.5 2074.14 1034.48 2074.73 1033.58 2075.32 1032.68 2075.72 1031.86 2075.93 1031.1 2076.15 1030.34 2076.26 1029.53 2076.26 1028.66 2076.26 1027.78 2076.13 1026.97 2075.88 1026.23 2075.63 1025.49 2075.27 1024.86 2074.81 1024.34 2074.34 1023.83 2073.75 1023.42 2073.04 1023.13 2072.32 1022.83 2071.5 1022.69 2070.56 1022.69 2068.96 1022.69 2067.61 1023.12 2066.53 1023.99 2065.44 1024.86 2064.59 1026.13 2063.99 1027.78L2060.6 1027.78 2060.6 1022.74C2062.81 1021.82 2064.84 1021.16 2066.7 1020.75 2068.55 1020.33 2070.22 1020.12 2071.7 1020.12Z" fill-rule="evenodd"/><text fill="#000000" fill-opacity="0" font-family="Arial,Arial_MSFontService,sans-serif" font-size="33.5132" x="2059.77" y="1049.45">2</text><path d="M2175.33 1004.03C2176.31 1004.03 2177.14 1004.16 2177.83 1004.42 2178.3 1004.61 2178.78 1004.92 2179.26 1005.36 2179.73 1005.8 2180.15 1006.41 2180.52 1007.2 2180.89 1007.98 2181.21 1008.86 2181.48 1009.84 2181.76 1010.81 2182.06 1012.21 2182.39 1014.04 2182.96 1017.11 2183.51 1020.33 2184.05 1023.72 2184.58 1027.11 2185.04 1030.25 2185.42 1033.15 2187.73 1029.82 2189.68 1026.57 2191.29 1023.38 2192.89 1020.2 2194.04 1017.43 2194.74 1015.08 2195.44 1012.72 2195.79 1010.81 2195.79 1009.34 2195.79 1008.22 2195.56 1007.46 2195.08 1007.06 2194.61 1006.65 2193.8 1006.41 2192.66 1006.34L2193.01 1004.6 2202.39 1004.6 2203.35 1006.38C2201.54 1011.32 2199.1 1016.61 2196.01 1022.24 2192.97 1027.75 2189.49 1033.24 2185.56 1038.71 2181.81 1043.91 2178.68 1047.68 2176.19 1050.01 2174.46 1051.6 2172.78 1052.74 2171.16 1053.43 2169.88 1053.95 2168.51 1054.21 2167.06 1054.21 2166.57 1054.21 2165.99 1054.17 2165.34 1054.09 2164.68 1054.01 2164.18 1053.89 2163.82 1053.75L2165.35 1046.84 2168.17 1046.84C2168.17 1048.36 2168.69 1049.12 2169.74 1049.12 2171.12 1049.12 2172.72 1048.26 2174.55 1046.53 2176.38 1044.81 2178.53 1042.21 2181 1038.74 2180.31 1034.59 2179.37 1029.57 2178.19 1023.7 2176.93 1017.43 2176.09 1013.54 2175.69 1012.05 2175.19 1010.24 2174.67 1009.09 2174.12 1008.59 2173.79 1008.28 2173.37 1008.13 2172.87 1008.13 2172.11 1008.13 2171.4 1008.43 2170.74 1009.05 2170.07 1009.67 2169.25 1010.74 2168.28 1012.26L2165.96 1010.73C2167.6 1008.28 2169.13 1006.55 2170.56 1005.54 2171.98 1004.53 2173.58 1004.03 2175.33 1004.03Z" fill-rule="evenodd"/><text fill="#000000" fill-opacity="0" font-family="Arial,Arial_MSFontService,sans-serif" font-size="50.1875" x="2163.82" y="1047.94">𝑦</text><path d="M2218.05 1020.12C2219.84 1020.12 2221.37 1020.33 2222.64 1020.73 2223.91 1021.14 2224.94 1021.69 2225.73 1022.38 2226.53 1023.07 2227.1 1023.89 2227.46 1024.86 2227.81 1025.83 2227.99 1026.87 2227.99 1027.99 2227.99 1028.66 2227.94 1029.29 2227.84 1029.87 2227.75 1030.45 2227.58 1031.02 2227.35 1031.58 2227.12 1032.14 2226.81 1032.7 2226.43 1033.27 2226.05 1033.84 2225.58 1034.44 2225.01 1035.08 2224.58 1035.63 2224.02 1036.27 2223.33 1037 2222.64 1037.72 2221.88 1038.5 2221.06 1039.33 2220.24 1040.15 2219.39 1041.02 2218.49 1041.91 2217.59 1042.81 2216.72 1043.7 2215.87 1044.58 2215.03 1045.46 2214.25 1046.31 2213.55 1047.14 2212.84 1047.97 2212.26 1048.73 2211.81 1049.42L2221.39 1049.42C2222.2 1049.42 2222.84 1049.39 2223.33 1049.33 2223.81 1049.27 2224.21 1049.13 2224.53 1048.93 2224.85 1048.72 2225.12 1048.41 2225.35 1047.98 2225.57 1047.56 2225.83 1046.98 2226.12 1046.24L2228.53 1046.24C2228.44 1047.46 2228.36 1048.69 2228.28 1049.94 2228.21 1051.18 2228.12 1052.41 2228.04 1053.64L2206.12 1053.64 2206.12 1052.29C2206.53 1051.36 2207.02 1050.44 2207.57 1049.54 2208.12 1048.63 2208.74 1047.71 2209.43 1046.78 2210.12 1045.85 2210.91 1044.89 2211.79 1043.89 2212.67 1042.9 2213.64 1041.87 2214.71 1040.8 2216.33 1039.18 2217.65 1037.8 2218.67 1036.65 2219.69 1035.5 2220.49 1034.48 2221.08 1033.58 2221.66 1032.68 2222.06 1031.86 2222.28 1031.1 2222.5 1030.34 2222.6 1029.53 2222.6 1028.66 2222.6 1027.78 2222.48 1026.97 2222.23 1026.23 2221.98 1025.49 2221.62 1024.86 2221.15 1024.34 2220.69 1023.83 2220.1 1023.42 2219.38 1023.13 2218.67 1022.83 2217.84 1022.69 2216.91 1022.69 2215.31 1022.69 2213.96 1023.12 2212.87 1023.99 2211.79 1024.86 2210.94 1026.13 2210.34 1027.78L2206.95 1027.78 2206.95 1022.74C2209.15 1021.82 2211.19 1021.16 2213.04 1020.75 2214.9 1020.33 2216.56 1020.12 2218.05 1020.12Z" fill-rule="evenodd"/><text fill="#000000" fill-opacity="0" font-family="Arial,Arial_MSFontService,sans-serif" font-size="33.5132" x="2206.12" y="1049.45">2</text><path d="M2262.44 955.496C2269.38 957.326 2274.7 961.276 2278.42 967.348 2282.14 973.419 2284 980.744 2284 989.323 2284 997.925 2282.15 1005.25 2278.44 1011.3 2274.73 1017.35 2269.4 1021.28 2262.44 1023.11L2261.58 1020.37C2267.07 1018.54 2271.15 1014.93 2273.82 1009.53 2276.5 1004.14 2277.83 997.283 2277.83 988.966 2277.83 980.934 2276.5 974.263 2273.84 968.952 2271.18 963.641 2267.06 960.07 2261.47 958.241Z" fill-rule="evenodd"/><text fill="#000000" fill-opacity="0" font-family="Arial,Arial_MSFontService,sans-serif" font-size="67.6177" x="2261.47" y="1014.66">)</text></g></svg>