<svg width="2488" height="156" xmlns="http://www.w3.org/2000/svg" xmlns:xlink="http://www.w3.org/1999/xlink" overflow="hidden"><defs><clipPath id="clip0"><rect x="956" y="576" width="2488" height="156"/></clipPath></defs><g clip-path="url(#clip0)" transform="translate(-956 -576)"><path d="M1781.76 659.906C1783.28 659.906 1784.48 660.417 1785.36 661.439 1786.24 662.461 1786.68 663.839 1786.68 665.574 1786.68 667.451 1786.31 669.792 1785.57 672.596L1784 678.762C1783.6 680.331 1783.31 681.554 1783.13 682.434 1782.95 683.313 1782.82 684.073 1782.74 684.715 1782.65 685.357 1782.61 685.891 1782.61 686.319 1782.61 687.959 1782.89 689.141 1783.43 689.866 1783.98 690.59 1784.87 690.953 1786.11 690.953 1787.1 690.953 1788.18 690.555 1789.33 689.759 1790.48 688.963 1791.71 687.763 1793 686.159 1794.3 684.555 1795.34 682.998 1796.12 681.489 1796.91 679.98 1797.55 678.121 1798.05 675.911L1801.43 660.477 1807.6 660.477 1802.39 683.075C1801.87 685.357 1801.61 687.115 1801.61 688.351 1801.61 689.301 1801.77 689.99 1802.07 690.418 1802.38 690.846 1802.87 691.06 1803.54 691.06 1804.25 691.06 1805.01 690.769 1805.82 690.186 1806.62 689.604 1807.77 688.493 1809.24 686.854L1811.27 688.85C1809.11 691.155 1807.27 692.782 1805.75 693.733 1804.22 694.683 1802.61 695.159 1800.9 695.159 1799.42 695.159 1798.25 694.672 1797.37 693.697 1796.49 692.723 1796.05 691.428 1796.05 689.812 1796.05 688.529 1796.34 687.127 1796.91 685.606L1796.48 685.463C1794.13 688.766 1791.9 691.202 1789.79 692.771 1787.69 694.339 1785.54 695.123 1783.33 695.123 1781.12 695.123 1779.42 694.487 1778.23 693.216 1777.04 691.945 1776.45 690.18 1776.45 687.923 1776.45 686.426 1776.79 684.299 1777.48 681.543L1779.8 672.204C1780.44 669.614 1780.76 667.784 1780.76 666.714 1780.76 665.764 1780.6 665.075 1780.3 664.647 1779.99 664.219 1779.5 664.005 1778.83 664.005 1778.1 664.005 1777.32 664.308 1776.5 664.914 1775.68 665.52 1774.56 666.619 1773.13 668.211L1771.1 666.215C1773.12 664.172 1774.64 662.77 1775.66 662.009 1776.68 661.249 1777.66 660.708 1778.6 660.388 1779.54 660.067 1780.59 659.906 1781.76 659.906Z" fill-rule="evenodd"/><text fill="#000000" fill-opacity="0" font-family="Arial,Arial_MSFontService,sans-serif" font-size="35.2524" x="1771.1" y="690.752">𝑢</text><path d="M1802.98 637.129 1811.92 644.864 1811.92 647.573 1795.66 647.573 1785.05 647.573 1774.28 647.573 1774.28 644.223 1785.05 644.223 1795.66 644.223 1806.79 644.223 1801.09 639.268Z" fill-rule="evenodd"/><path d="M1840.52 668.604C1841.44 668.604 1842.28 668.823 1843.03 669.263 1843.78 669.703 1844.36 670.315 1844.76 671.099 1845.16 671.883 1845.37 672.762 1845.37 673.736 1845.37 674.734 1845.16 675.626 1844.74 676.41 1844.33 677.194 1843.74 677.8 1842.99 678.228 1842.25 678.655 1841.42 678.869 1840.52 678.869 1839.61 678.869 1838.79 678.655 1838.04 678.228 1837.29 677.8 1836.71 677.194 1836.29 676.41 1835.88 675.626 1835.67 674.734 1835.67 673.736 1835.67 672.762 1835.87 671.883 1836.28 671.099 1836.68 670.315 1837.26 669.703 1838 669.263 1838.75 668.823 1839.59 668.604 1840.52 668.604Z" fill-rule="evenodd"/><text fill="#000000" fill-opacity="0" font-family="Arial,Arial_MSFontService,sans-serif" font-size="10.2656" x="1835.67" y="677.586">∙</text><path d="M1900.89 659.764C1902.6 659.764 1903.84 660.209 1904.6 661.1 1905.36 661.992 1905.74 663.186 1905.74 664.683 1905.74 665.823 1905.54 667.13 1905.13 668.604 1904.73 670.077 1904.16 671.633 1903.42 673.273 1902.68 674.913 1901.81 676.594 1900.78 678.317 1899.76 680.04 1898.63 681.715 1897.4 683.343 1896.16 684.97 1894.84 686.503 1893.44 687.941 1892.04 689.378 1890.58 690.632 1889.07 691.701 1887.57 692.771 1886.03 693.62 1884.48 694.25 1882.92 694.88 1881.37 695.194 1879.82 695.194 1879.14 695.194 1878.56 695.022 1878.1 694.678 1877.63 694.333 1877.26 693.846 1876.97 693.216 1876.69 692.586 1876.49 691.844 1876.37 690.988 1876.25 690.133 1876.19 689.194 1876.19 688.172 1876.19 686.818 1876.27 685.368 1876.44 683.824 1876.6 682.279 1876.82 680.723 1877.08 679.154L1878.58 669.281C1878.67 668.711 1878.75 668.17 1878.81 667.659 1878.87 667.148 1878.9 666.774 1878.9 666.536 1878.9 665.8 1878.78 665.194 1878.54 664.718 1878.3 664.243 1877.9 664.005 1877.33 664.005 1876.88 664.005 1876.39 664.142 1875.87 664.415 1875.35 664.689 1874.82 665.039 1874.28 665.467 1873.75 665.895 1873.23 666.352 1872.73 666.839 1872.23 667.326 1871.77 667.784 1871.34 668.211L1869.63 666.215C1870.37 665.455 1871.15 664.701 1871.98 663.952 1872.81 663.203 1873.69 662.526 1874.62 661.92 1875.55 661.314 1876.52 660.827 1877.54 660.459 1878.57 660.09 1879.61 659.906 1880.68 659.906 1881.58 659.906 1882.32 660.055 1882.89 660.352 1883.46 660.649 1883.91 661.041 1884.23 661.528 1884.55 662.015 1884.77 662.55 1884.89 663.132 1885 663.714 1885.06 664.291 1885.06 664.861 1885.06 665.194 1885.05 665.514 1885.03 665.823 1885 666.132 1884.97 666.417 1884.92 666.679L1882.93 679.582C1882.71 680.937 1882.53 682.261 1882.39 683.556 1882.25 684.852 1882.18 685.998 1882.18 686.996 1882.18 687.994 1882.24 688.802 1882.36 689.42 1882.47 690.038 1882.7 690.347 1883.03 690.347 1883.82 690.347 1884.8 690.032 1885.99 689.402 1887.18 688.772 1888.43 687.905 1889.73 686.8 1891.04 685.695 1892.35 684.388 1893.65 682.879 1894.96 681.37 1896.14 679.737 1897.18 677.978 1898.23 676.22 1899.08 674.366 1899.73 672.418 1900.39 670.469 1900.71 668.509 1900.71 666.536 1900.71 665.681 1900.53 665.021 1900.16 664.558 1899.79 664.095 1899.22 663.863 1898.43 663.863 1897.43 663.863 1896.51 664.249 1895.67 665.021 1894.82 665.794 1893.95 666.809 1893.05 668.069L1891.02 666.251C1891.59 665.396 1892.26 664.576 1893.03 663.792 1893.8 663.007 1894.62 662.318 1895.49 661.724 1896.36 661.13 1897.25 660.655 1898.18 660.298 1899.11 659.942 1900.01 659.764 1900.89 659.764Z" fill-rule="evenodd"/><text fill="#000000" fill-opacity="0" font-family="Arial,Arial_MSFontService,sans-serif" font-size="35.4307" x="1869.63" y="690.766">𝑣</text><path d="M1897.53 637.084 1906.48 644.818 1906.48 647.527 1879.6 647.527 1879.6 644.177 1901.34 644.177 1895.64 639.222Z" fill-rule="evenodd"/><text fill="#000000" fill-opacity="0" font-family="Arial,Arial_MSFontService,sans-serif" font-size="10.4438" x="1879.6" y="646.222">റ</text><path d="M1951.12 678.762 1995.03 678.762 1995.03 683.503 1951.12 683.503ZM1951.12 663.97 1995.03 663.97 1995.03 668.711 1951.12 668.711Z" fill-rule="evenodd"/><text fill="#000000" fill-opacity="0" font-family="Arial,Arial_MSFontService,sans-serif" font-size="19.5332" x="1951.12" y="681.061">=</text><path d="M2035.26 659.906C2036 659.906 2036.64 659.99 2037.2 660.156 2037.76 660.322 2038.25 660.578 2038.68 660.922 2039.11 661.267 2039.49 661.712 2039.82 662.259 2040.16 662.805 2040.48 663.548 2040.79 664.487 2041.09 665.425 2041.39 666.59 2041.66 667.98 2041.93 669.37 2042.18 670.814 2042.39 672.311L2042.75 672.311C2045.03 669.103 2046.76 666.756 2047.93 665.271 2049.11 663.786 2050.1 662.681 2050.91 661.956 2051.72 661.231 2052.49 660.72 2053.24 660.423 2053.99 660.126 2054.98 659.978 2056.22 659.978 2057.34 659.978 2058.25 660.12 2058.96 660.405L2057.54 666.857 2055.04 666.857C2054.9 665.859 2054.48 665.36 2053.8 665.36 2053.58 665.36 2053.36 665.396 2053.12 665.467 2052.88 665.538 2052.59 665.693 2052.25 665.93 2051.9 666.168 2051.4 666.631 2050.73 667.32 2050.06 668.01 2049.32 668.853 2048.48 669.851 2047.65 670.849 2046.8 671.895 2045.92 672.988L2043.49 676.018C2043.92 678.299 2044.33 680.271 2044.71 681.935 2045.09 683.598 2045.43 684.982 2045.72 686.087 2046.02 687.192 2046.28 688.065 2046.51 688.707 2046.73 689.349 2046.98 689.83 2047.24 690.151 2047.5 690.471 2047.77 690.697 2048.04 690.828 2048.31 690.959 2048.63 691.024 2048.98 691.024 2049.63 691.024 2050.25 690.774 2050.85 690.275 2051.46 689.776 2052.33 688.648 2053.47 686.889L2055.79 688.422C2054.13 690.893 2052.63 692.634 2051.28 693.644 2049.94 694.654 2048.34 695.159 2046.49 695.159 2045.47 695.159 2044.6 694.975 2043.89 694.606 2043.17 694.238 2042.56 693.65 2042.03 692.842 2041.51 692.034 2041.05 690.774 2040.64 689.064 2039.91 686.022 2039.45 683.693 2039.29 682.077L2038.93 682.077C2036.41 685.618 2034.54 688.161 2033.32 689.705 2032.09 691.25 2031.08 692.39 2030.29 693.127 2029.49 693.864 2028.72 694.38 2027.97 694.678 2027.22 694.975 2026.23 695.123 2024.99 695.123 2023.88 695.123 2022.96 694.981 2022.25 694.695L2023.68 688.244 2026.17 688.244C2026.31 689.242 2026.73 689.741 2027.42 689.741 2027.75 689.741 2028.1 689.652 2028.47 689.473 2028.84 689.295 2029.37 688.867 2030.06 688.19 2030.75 687.513 2031.7 686.45 2032.91 685 2034.12 683.551 2035.88 681.376 2038.18 678.477 2037.83 676.6 2037.46 674.794 2037.08 673.059 2036.7 671.324 2036.31 669.709 2035.9 668.211 2035.5 666.714 2035.17 665.734 2034.9 665.271 2034.64 664.807 2034.36 664.487 2034.07 664.308 2033.77 664.13 2033.4 664.041 2032.94 664.041 2032.44 664.041 2031.99 664.154 2031.59 664.38 2031.19 664.605 2030.75 664.998 2030.27 665.556 2029.8 666.114 2029.17 666.988 2028.38 668.176L2026.06 666.643C2027.56 664.386 2029 662.698 2030.38 661.582 2031.76 660.465 2033.38 659.906 2035.26 659.906Z" fill-rule="evenodd"/><text fill="#000000" fill-opacity="0" font-family="Arial,Arial_MSFontService,sans-serif" font-size="35.2524" x="2022.25" y="690.752">𝑥</text><path d="M2075.2 676.221 2076.78 676.221C2076.75 677.17 2076.72 678.02 2076.7 678.77 2076.69 679.521 2076.67 680.25 2076.66 680.957 2076.66 681.664 2076.65 682.363 2076.65 683.053L2076.65 702.721C2076.65 703.256 2076.67 703.717 2076.7 704.106 2076.74 704.494 2076.79 704.822 2076.87 705.089 2076.95 705.356 2077.05 705.585 2077.18 705.775 2077.31 705.964 2077.46 706.128 2077.63 706.266 2077.84 706.473 2078.12 706.633 2078.46 706.745 2078.81 706.857 2079.25 706.952 2079.78 707.03 2080.32 707.107 2080.96 707.168 2081.71 707.211 2082.46 707.254 2083.36 707.284 2084.41 707.302L2084.41 709.553 2063.89 709.553 2063.89 707.302C2064.91 707.267 2065.77 707.228 2066.48 707.185 2067.19 707.142 2067.79 707.082 2068.29 707.004 2068.79 706.926 2069.19 706.84 2069.5 706.745 2069.8 706.65 2070.06 706.534 2070.28 706.396 2070.53 706.241 2070.73 706.072 2070.91 705.891 2071.08 705.71 2071.22 705.481 2071.32 705.205 2071.42 704.929 2071.51 704.593 2071.57 704.196 2071.63 703.799 2071.66 703.308 2071.66 702.721L2071.66 684.166C2071.66 683.493 2071.53 683.019 2071.27 682.742 2071.01 682.466 2070.64 682.328 2070.16 682.328 2069.62 682.328 2068.83 682.604 2067.77 683.157 2066.72 683.709 2065.36 684.528 2063.69 685.615 2063.46 685.218 2063.25 684.821 2063.06 684.425 2062.87 684.028 2062.68 683.622 2062.47 683.208 2064.61 682.035 2066.73 680.866 2068.82 679.702 2070.92 678.537 2073.04 677.377 2075.2 676.221Z" fill-rule="evenodd"/><text fill="#000000" fill-opacity="0" font-family="Arial,Arial_MSFontService,sans-serif" font-size="33.332" x="2062.47" y="705.387">1</text><path d="M2105.8 659.906C2106.53 659.906 2107.18 659.99 2107.74 660.156 2108.3 660.322 2108.79 660.578 2109.22 660.922 2109.65 661.267 2110.03 661.712 2110.36 662.259 2110.69 662.805 2111.01 663.548 2111.32 664.487 2111.63 665.425 2111.92 666.59 2112.2 667.98 2112.47 669.37 2112.71 670.814 2112.93 672.311L2113.28 672.311C2115.56 669.103 2117.29 666.756 2118.47 665.271 2119.65 663.786 2120.64 662.681 2121.45 661.956 2122.25 661.231 2123.03 660.72 2123.78 660.423 2124.53 660.126 2125.52 659.978 2126.76 659.978 2127.87 659.978 2128.79 660.12 2129.5 660.405L2128.08 666.857 2125.58 666.857C2125.44 665.859 2125.02 665.36 2124.33 665.36 2124.12 665.36 2123.89 665.396 2123.66 665.467 2123.42 665.538 2123.13 665.693 2122.78 665.93 2122.44 666.168 2121.93 666.631 2121.27 667.32 2120.6 668.01 2119.85 668.853 2119.02 669.851 2118.19 670.849 2117.33 671.895 2116.46 672.988L2114.03 676.018C2114.46 678.299 2114.86 680.271 2115.24 681.935 2115.62 683.598 2115.96 684.982 2116.26 686.087 2116.56 687.192 2116.82 688.065 2117.04 688.707 2117.27 689.349 2117.51 689.83 2117.77 690.151 2118.04 690.471 2118.3 690.697 2118.58 690.828 2118.85 690.959 2119.16 691.024 2119.52 691.024 2120.16 691.024 2120.79 690.774 2121.39 690.275 2122 689.776 2122.87 688.648 2124.01 686.889L2126.33 688.422C2124.67 690.893 2123.16 692.634 2121.82 693.644 2120.48 694.654 2118.88 695.159 2117.03 695.159 2116 695.159 2115.14 694.975 2114.42 694.606 2113.71 694.238 2113.09 693.65 2112.57 692.842 2112.05 692.034 2111.58 690.774 2111.18 689.064 2110.44 686.022 2109.99 683.693 2109.83 682.077L2109.47 682.077C2106.95 685.618 2105.08 688.161 2103.86 689.705 2102.63 691.25 2101.62 692.39 2100.83 693.127 2100.03 693.864 2099.26 694.38 2098.51 694.678 2097.76 694.975 2096.77 695.123 2095.53 695.123 2094.42 695.123 2093.5 694.981 2092.79 694.695L2094.21 688.244 2096.71 688.244C2096.85 689.242 2097.27 689.741 2097.96 689.741 2098.29 689.741 2098.64 689.652 2099.01 689.473 2099.38 689.295 2099.9 688.867 2100.59 688.19 2101.28 687.513 2102.23 686.45 2103.45 685 2104.66 683.551 2106.42 681.376 2108.72 678.477 2108.36 676.6 2108 674.794 2107.62 673.059 2107.24 671.324 2106.84 669.709 2106.44 668.211 2106.04 666.714 2105.7 665.734 2105.44 665.271 2105.18 664.807 2104.9 664.487 2104.6 664.308 2104.31 664.13 2103.93 664.041 2103.48 664.041 2102.98 664.041 2102.53 664.154 2102.13 664.38 2101.72 664.605 2101.28 664.998 2100.81 665.556 2100.33 666.114 2099.7 666.988 2098.92 668.176L2096.6 666.643C2098.1 664.386 2099.54 662.698 2100.91 661.582 2102.29 660.465 2103.92 659.906 2105.8 659.906Z" fill-rule="evenodd"/><text fill="#000000" fill-opacity="0" font-family="Arial,Arial_MSFontService,sans-serif" font-size="35.2524" x="2092.79" y="690.752">𝑥</text><path d="M2145.42 676.04C2147.21 676.04 2148.74 676.243 2150.01 676.648 2151.28 677.053 2152.31 677.601 2153.1 678.291 2153.9 678.981 2154.47 679.81 2154.82 680.776 2155.18 681.742 2155.35 682.786 2155.35 683.907 2155.35 684.58 2155.31 685.205 2155.21 685.783 2155.12 686.361 2154.95 686.931 2154.72 687.491 2154.49 688.052 2154.18 688.617 2153.8 689.186 2153.42 689.756 2152.95 690.359 2152.38 690.998 2151.95 691.55 2151.39 692.188 2150.7 692.913 2150.01 693.638 2149.25 694.414 2148.43 695.242 2147.61 696.07 2146.75 696.933 2145.86 697.83 2144.96 698.727 2144.09 699.616 2143.24 700.495 2142.4 701.375 2141.62 702.229 2140.91 703.057 2140.21 703.886 2139.63 704.645 2139.18 705.335L2148.75 705.335C2149.57 705.335 2150.21 705.305 2150.7 705.244 2151.18 705.184 2151.58 705.05 2151.9 704.843 2152.22 704.636 2152.49 704.321 2152.71 703.898 2152.94 703.476 2153.2 702.894 2153.49 702.152L2155.9 702.152C2155.81 703.377 2155.73 704.61 2155.65 705.852 2155.57 707.095 2155.49 708.328 2155.41 709.553L2133.49 709.553 2133.49 708.207C2133.9 707.276 2134.38 706.357 2134.94 705.451 2135.49 704.545 2136.11 703.627 2136.8 702.695 2137.49 701.763 2138.27 700.802 2139.15 699.81 2140.03 698.818 2141.01 697.787 2142.08 696.717 2143.7 695.095 2145.02 693.711 2146.04 692.564 2147.05 691.416 2147.86 690.394 2148.44 689.497 2149.03 688.6 2149.43 687.772 2149.65 687.013 2149.86 686.253 2149.97 685.443 2149.97 684.58 2149.97 683.7 2149.85 682.889 2149.6 682.147 2149.35 681.405 2148.99 680.776 2148.52 680.258 2148.06 679.741 2147.46 679.335 2146.75 679.042 2146.03 678.749 2145.21 678.602 2144.28 678.602 2142.67 678.602 2141.33 679.037 2140.24 679.909 2139.15 680.78 2138.31 682.044 2137.7 683.7L2134.31 683.7 2134.31 678.654C2136.52 677.739 2138.55 677.075 2140.41 676.661 2142.26 676.247 2143.93 676.04 2145.42 676.04Z" fill-rule="evenodd"/><text fill="#000000" fill-opacity="0" font-family="Arial,Arial_MSFontService,sans-serif" font-size="33.5132" x="2133.49" y="705.364">2</text><path d="M2204.98 650.817 2210.04 650.817 2210.04 671.348 2229.47 671.348 2229.47 676.089 2210.04 676.089 2210.04 696.62 2204.98 696.62 2204.98 676.089 2185.56 676.089 2185.56 671.348 2204.98 671.348Z" fill-rule="evenodd"/><text fill="#000000" fill-opacity="0" font-family="Arial,Arial_MSFontService,sans-serif" font-size="45.8032" x="2185.56" y="690.895">+</text><path d="M2263.3 659.942C2264.28 659.942 2265.11 660.073 2265.8 660.334 2266.27 660.524 2266.75 660.839 2267.22 661.279 2267.7 661.718 2268.12 662.33 2268.49 663.114 2268.86 663.898 2269.18 664.778 2269.45 665.752 2269.72 666.726 2270.03 668.128 2270.36 669.958 2270.93 673.023 2271.48 676.249 2272.02 679.636 2272.55 683.022 2273.01 686.164 2273.39 689.064 2275.69 685.737 2277.65 682.481 2279.25 679.297 2280.86 676.113 2282.01 673.344 2282.71 670.992 2283.41 668.639 2283.76 666.726 2283.76 665.253 2283.76 664.136 2283.52 663.376 2283.05 662.972 2282.57 662.568 2281.77 662.33 2280.63 662.259L2280.98 660.512 2290.36 660.512 2291.32 662.294C2289.51 667.237 2287.06 672.524 2283.98 678.156 2280.93 683.669 2277.45 689.159 2273.53 694.624 2269.78 699.828 2266.65 703.595 2264.16 705.923 2262.42 707.516 2260.75 708.656 2259.13 709.345 2257.85 709.868 2256.48 710.129 2255.03 710.129 2254.53 710.129 2253.96 710.088 2253.3 710.005 2252.65 709.922 2252.15 709.809 2251.79 709.666L2253.32 702.751 2256.14 702.751C2256.14 704.272 2256.66 705.032 2257.71 705.032 2259.08 705.032 2260.69 704.171 2262.52 702.448 2264.35 700.725 2266.5 698.129 2268.97 694.66 2268.28 690.501 2267.34 685.487 2266.15 679.618 2264.89 673.344 2264.06 669.459 2263.66 667.962 2263.16 666.156 2262.64 665.003 2262.09 664.504 2261.76 664.196 2261.34 664.041 2260.84 664.041 2260.08 664.041 2259.37 664.35 2258.7 664.968 2258.04 665.586 2257.22 666.655 2256.24 668.176L2253.93 666.643C2255.57 664.196 2257.1 662.467 2258.53 661.457 2259.95 660.447 2261.54 659.942 2263.3 659.942Z" fill-rule="evenodd"/><text fill="#000000" fill-opacity="0" font-family="Arial,Arial_MSFontService,sans-serif" font-size="50.1875" x="2251.79" y="703.856">𝑦</text><path d="M2306.34 676.221 2307.92 676.221C2307.88 677.17 2307.86 678.02 2307.84 678.77 2307.82 679.521 2307.81 680.25 2307.8 680.957 2307.79 681.664 2307.79 682.363 2307.79 683.053L2307.79 702.721C2307.79 703.256 2307.81 703.717 2307.84 704.106 2307.87 704.494 2307.93 704.822 2308.01 705.089 2308.09 705.356 2308.19 705.585 2308.32 705.775 2308.45 705.964 2308.6 706.128 2308.77 706.266 2308.98 706.473 2309.25 706.633 2309.6 706.745 2309.94 706.857 2310.38 706.952 2310.92 707.03 2311.45 707.107 2312.1 707.168 2312.85 707.211 2313.6 707.254 2314.5 707.284 2315.55 707.302L2315.55 709.553 2295.03 709.553 2295.03 707.302C2296.05 707.267 2296.91 707.228 2297.62 707.185 2298.32 707.142 2298.93 707.082 2299.43 707.004 2299.93 706.926 2300.33 706.84 2300.63 706.745 2300.93 706.65 2301.2 706.534 2301.42 706.396 2301.66 706.241 2301.87 706.072 2302.04 705.891 2302.22 705.71 2302.35 705.481 2302.46 705.205 2302.56 704.929 2302.64 704.593 2302.7 704.196 2302.76 703.799 2302.79 703.308 2302.79 702.721L2302.79 684.166C2302.79 683.493 2302.66 683.019 2302.41 682.742 2302.15 682.466 2301.78 682.328 2301.29 682.328 2300.76 682.328 2299.96 682.604 2298.91 683.157 2297.86 683.709 2296.5 684.528 2294.82 685.615 2294.6 685.218 2294.39 684.821 2294.2 684.425 2294.01 684.028 2293.81 683.622 2293.61 683.208 2295.75 682.035 2297.86 680.866 2299.96 679.702 2302.06 678.537 2304.18 677.377 2306.34 676.221Z" fill-rule="evenodd"/><text fill="#000000" fill-opacity="0" font-family="Arial,Arial_MSFontService,sans-serif" font-size="33.332" x="2293.61" y="705.387">1</text><path d="M2334.62 659.942C2335.59 659.942 2336.42 660.073 2337.11 660.334 2337.59 660.524 2338.06 660.839 2338.54 661.279 2339.01 661.718 2339.44 662.33 2339.8 663.114 2340.17 663.898 2340.49 664.778 2340.77 665.752 2341.04 666.726 2341.34 668.128 2341.68 669.958 2342.25 673.023 2342.8 676.249 2343.33 679.636 2343.87 683.022 2344.33 686.164 2344.71 689.064 2347.01 685.737 2348.97 682.481 2350.57 679.297 2352.17 676.113 2353.33 673.344 2354.03 670.992 2354.73 668.639 2355.08 666.726 2355.08 665.253 2355.08 664.136 2354.84 663.376 2354.37 662.972 2353.89 662.568 2353.08 662.33 2351.94 662.259L2352.3 660.512 2361.67 660.512 2362.64 662.294C2360.83 667.237 2358.38 672.524 2355.29 678.156 2352.25 683.669 2348.77 689.159 2344.85 694.624 2341.09 699.828 2337.97 703.595 2335.47 705.923 2333.74 707.516 2332.06 708.656 2330.45 709.345 2329.17 709.868 2327.8 710.129 2326.35 710.129 2325.85 710.129 2325.27 710.088 2324.62 710.005 2323.97 709.922 2323.46 709.809 2323.11 709.666L2324.64 702.751 2327.45 702.751C2327.45 704.272 2327.98 705.032 2329.02 705.032 2330.4 705.032 2332 704.171 2333.83 702.448 2335.66 700.725 2337.81 698.129 2340.29 694.66 2339.6 690.501 2338.66 685.487 2337.47 679.618 2336.21 673.344 2335.38 669.459 2334.98 667.962 2334.48 666.156 2333.95 665.003 2333.41 664.504 2333.07 664.196 2332.66 664.041 2332.16 664.041 2331.4 664.041 2330.69 664.35 2330.02 664.968 2329.36 665.586 2328.54 666.655 2327.56 668.176L2325.24 666.643C2326.88 664.196 2328.42 662.467 2329.84 661.457 2331.27 660.447 2332.86 659.942 2334.62 659.942Z" fill-rule="evenodd"/><text fill="#000000" fill-opacity="0" font-family="Arial,Arial_MSFontService,sans-serif" font-size="50.1875" x="2323.11" y="703.856">𝑦</text><path d="M2377.33 676.04C2379.13 676.04 2380.66 676.243 2381.93 676.648 2383.19 677.053 2384.23 677.601 2385.02 678.291 2385.81 678.981 2386.39 679.81 2386.74 680.776 2387.09 681.742 2387.27 682.786 2387.27 683.907 2387.27 684.58 2387.22 685.205 2387.13 685.783 2387.03 686.361 2386.87 686.931 2386.64 687.491 2386.4 688.052 2386.1 688.617 2385.72 689.186 2385.34 689.756 2384.86 690.359 2384.29 690.998 2383.86 691.55 2383.3 692.188 2382.61 692.913 2381.92 693.638 2381.17 694.414 2380.35 695.242 2379.53 696.07 2378.67 696.933 2377.77 697.83 2376.88 698.727 2376 699.616 2375.16 700.495 2374.31 701.375 2373.54 702.229 2372.83 703.057 2372.12 703.886 2371.54 704.645 2371.1 705.335L2380.67 705.335C2381.48 705.335 2382.13 705.305 2382.61 705.244 2383.1 705.184 2383.5 705.05 2383.82 704.843 2384.13 704.636 2384.41 704.321 2384.63 703.898 2384.85 703.476 2385.11 702.894 2385.41 702.152L2387.81 702.152C2387.73 703.377 2387.65 704.61 2387.57 705.852 2387.49 707.095 2387.41 708.328 2387.32 709.553L2365.4 709.553 2365.4 708.207C2365.82 707.276 2366.3 706.357 2366.85 705.451 2367.4 704.545 2368.02 703.627 2368.72 702.695 2369.41 701.763 2370.19 700.802 2371.07 699.81 2371.95 698.818 2372.92 697.787 2373.99 696.717 2375.62 695.095 2376.94 693.711 2377.95 692.564 2378.97 691.416 2379.77 690.394 2380.36 689.497 2380.95 688.6 2381.35 687.772 2381.56 687.013 2381.78 686.253 2381.89 685.443 2381.89 684.58 2381.89 683.7 2381.76 682.889 2381.51 682.147 2381.26 681.405 2380.9 680.776 2380.44 680.258 2379.97 679.741 2379.38 679.335 2378.67 679.042 2377.95 678.749 2377.13 678.602 2376.19 678.602 2374.59 678.602 2373.24 679.037 2372.16 679.909 2371.07 680.78 2370.22 682.044 2369.62 683.7L2366.23 683.7 2366.23 678.654C2368.44 677.739 2370.47 677.075 2372.33 676.661 2374.18 676.247 2375.85 676.04 2377.33 676.04Z" fill-rule="evenodd"/><text fill="#000000" fill-opacity="0" font-family="Arial,Arial_MSFontService,sans-serif" font-size="33.5132" x="2365.4" y="705.364">2</text><path d="M2436.9 650.817 2441.96 650.817 2441.96 671.348 2461.39 671.348 2461.39 676.089 2441.96 676.089 2441.96 696.62 2436.9 696.62 2436.9 676.089 2417.47 676.089 2417.47 671.348 2436.9 671.348Z" fill-rule="evenodd"/><text fill="#000000" fill-opacity="0" font-family="Arial,Arial_MSFontService,sans-serif" font-size="45.8032" x="2417.47" y="690.895">+</text><path d="M2491.83 660.512 2517.18 660.512 2517.85 662.294 2500.85 681.828C2497.55 685.606 2494.68 688.814 2492.26 691.452L2492.47 691.701 2500.53 691.701C2501.96 691.701 2503.05 691.624 2503.81 691.47 2504.57 691.315 2505.23 691.024 2505.81 690.596 2506.38 690.169 2506.96 689.521 2507.57 688.654 2508.18 687.786 2508.93 686.426 2509.83 684.572L2513.01 684.572 2510.83 694.588 2485.02 694.588 2484.35 692.842 2503.84 670.386C2506.6 667.225 2508.62 664.98 2509.9 663.649L2509.69 663.399 2501.35 663.399C2500.11 663.399 2499.21 663.483 2498.64 663.649 2498.07 663.815 2497.5 664.106 2496.93 664.522 2496.36 664.938 2495.75 665.556 2495.09 666.376 2494.44 667.196 2493.71 668.366 2492.9 669.887L2489.73 669.887Z" fill-rule="evenodd"/><text fill="#000000" fill-opacity="0" font-family="Arial,Arial_MSFontService,sans-serif" font-size="34.0762" x="2484.35" y="690.329">𝑧</text><path d="M2532.96 676.221 2534.54 676.221C2534.51 677.17 2534.48 678.02 2534.46 678.77 2534.45 679.521 2534.43 680.25 2534.42 680.957 2534.42 681.664 2534.41 682.363 2534.41 683.053L2534.41 702.721C2534.41 703.256 2534.43 703.717 2534.46 704.106 2534.5 704.494 2534.55 704.822 2534.63 705.089 2534.71 705.356 2534.81 705.585 2534.94 705.775 2535.07 705.964 2535.22 706.128 2535.39 706.266 2535.6 706.473 2535.88 706.633 2536.22 706.745 2536.57 706.857 2537.01 706.952 2537.54 707.03 2538.08 707.107 2538.72 707.168 2539.47 707.211 2540.22 707.254 2541.12 707.284 2542.17 707.302L2542.17 709.553 2521.65 709.553 2521.65 707.302C2522.67 707.267 2523.53 707.228 2524.24 707.185 2524.95 707.142 2525.55 707.082 2526.05 707.004 2526.55 706.926 2526.95 706.84 2527.26 706.745 2527.56 706.65 2527.82 706.534 2528.04 706.396 2528.29 706.241 2528.49 706.072 2528.67 705.891 2528.84 705.71 2528.98 705.481 2529.08 705.205 2529.18 704.929 2529.27 704.593 2529.33 704.196 2529.39 703.799 2529.42 703.308 2529.42 702.721L2529.42 684.166C2529.42 683.493 2529.29 683.019 2529.03 682.742 2528.77 682.466 2528.4 682.328 2527.92 682.328 2527.38 682.328 2526.59 682.604 2525.53 683.157 2524.48 683.709 2523.12 684.528 2521.45 685.615 2521.22 685.218 2521.01 684.821 2520.82 684.425 2520.63 684.028 2520.44 683.622 2520.23 683.208 2522.37 682.035 2524.49 680.866 2526.58 679.702 2528.68 678.537 2530.81 677.377 2532.96 676.221Z" fill-rule="evenodd"/><text fill="#000000" fill-opacity="0" font-family="Arial,Arial_MSFontService,sans-serif" font-size="33.332" x="2520.23" y="705.387">1</text><path d="M2557.86 660.512 2583.2 660.512 2583.88 662.294 2566.87 681.828C2563.57 685.606 2560.71 688.814 2558.28 691.452L2558.5 691.701 2566.55 691.701C2567.98 691.701 2569.07 691.624 2569.83 691.47 2570.59 691.315 2571.26 691.024 2571.83 690.596 2572.4 690.169 2572.99 689.521 2573.59 688.654 2574.2 687.786 2574.95 686.426 2575.86 684.572L2579.03 684.572 2576.85 694.588 2551.05 694.588 2550.37 692.842 2569.87 670.386C2572.62 667.225 2574.64 664.98 2575.93 663.649L2575.71 663.399 2567.37 663.399C2566.14 663.399 2565.23 663.483 2564.66 663.649 2564.09 663.815 2563.52 664.106 2562.95 664.522 2562.38 664.938 2561.77 665.556 2561.12 666.376 2560.46 667.196 2559.73 668.366 2558.92 669.887L2555.75 669.887Z" fill-rule="evenodd"/><text fill="#000000" fill-opacity="0" font-family="Arial,Arial_MSFontService,sans-serif" font-size="34.0762" x="2550.37" y="690.329">𝑧</text><path d="M2598.66 676.04C2600.46 676.04 2601.99 676.243 2603.26 676.648 2604.52 677.053 2605.55 677.601 2606.35 678.291 2607.14 678.981 2607.72 679.81 2608.07 680.776 2608.42 681.742 2608.6 682.786 2608.6 683.907 2608.6 684.58 2608.55 685.205 2608.46 685.783 2608.36 686.361 2608.2 686.931 2607.97 687.491 2607.73 688.052 2607.43 688.617 2607.05 689.186 2606.67 689.756 2606.19 690.359 2605.62 690.998 2605.19 691.55 2604.63 692.188 2603.94 692.913 2603.25 693.638 2602.5 694.414 2601.68 695.242 2600.86 696.07 2600 696.933 2599.1 697.83 2598.2 698.727 2597.33 699.616 2596.49 700.495 2595.64 701.375 2594.87 702.229 2594.16 703.057 2593.45 703.886 2592.87 704.645 2592.43 705.335L2602 705.335C2602.81 705.335 2603.46 705.305 2603.94 705.244 2604.42 705.184 2604.83 705.05 2605.14 704.843 2605.46 704.636 2605.74 704.321 2605.96 703.898 2606.18 703.476 2606.44 702.894 2606.74 702.152L2609.14 702.152C2609.06 703.377 2608.97 704.61 2608.9 705.852 2608.82 707.095 2608.74 708.328 2608.65 709.553L2586.73 709.553 2586.73 708.207C2587.15 707.276 2587.63 706.357 2588.18 705.451 2588.73 704.545 2589.35 703.627 2590.04 702.695 2590.73 701.763 2591.52 700.802 2592.4 699.81 2593.28 698.818 2594.25 697.787 2595.32 696.717 2596.95 695.095 2598.27 693.711 2599.28 692.564 2600.3 691.416 2601.1 690.394 2601.69 689.497 2602.28 688.6 2602.68 687.772 2602.89 687.013 2603.11 686.253 2603.22 685.443 2603.22 684.58 2603.22 683.7 2603.09 682.889 2602.84 682.147 2602.59 681.405 2602.23 680.776 2601.77 680.258 2601.3 679.741 2600.71 679.335 2599.99 679.042 2599.28 678.749 2598.45 678.602 2597.52 678.602 2595.92 678.602 2594.57 679.037 2593.49 679.909 2592.4 680.78 2591.55 682.044 2590.95 683.7L2587.56 683.7 2587.56 678.654C2589.77 677.739 2591.8 677.075 2593.65 676.661 2595.51 676.247 2597.18 676.04 2598.66 676.04Z" fill-rule="evenodd"/><text fill="#000000" fill-opacity="0" font-family="Arial,Arial_MSFontService,sans-serif" font-size="33.5132" x="2586.73" y="705.364">2</text></g></svg>