<svg width="2488" height="156" xmlns="http://www.w3.org/2000/svg" xmlns:xlink="http://www.w3.org/1999/xlink" overflow="hidden"><defs><clipPath id="clip0"><rect x="956" y="576" width="2488" height="156"/></clipPath></defs><g clip-path="url(#clip0)" transform="translate(-956 -576)"><path d="M1000.14 659.906C1001.66 659.906 1002.86 660.417 1003.74 661.439 1004.62 662.461 1005.06 663.839 1005.06 665.574 1005.06 667.451 1004.69 669.792 1003.95 672.596L1002.38 678.762C1001.98 680.331 1001.69 681.554 1001.51 682.434 1001.33 683.313 1001.2 684.073 1001.12 684.715 1001.04 685.357 1000.99 685.891 1000.99 686.319 1000.99 687.959 1001.27 689.141 1001.81 689.866 1002.36 690.59 1003.25 690.953 1004.49 690.953 1005.48 690.953 1006.56 690.555 1007.71 689.759 1008.87 688.963 1010.09 687.763 1011.38 686.159 1012.68 684.555 1013.72 682.998 1014.5 681.489 1015.29 679.98 1015.93 678.121 1016.43 675.911L1019.81 660.477 1025.98 660.477 1020.78 683.075C1020.25 685.357 1019.99 687.115 1019.99 688.351 1019.99 689.301 1020.15 689.99 1020.46 690.418 1020.76 690.846 1021.25 691.06 1021.92 691.06 1022.63 691.06 1023.39 690.769 1024.2 690.186 1025.01 689.604 1026.15 688.493 1027.62 686.854L1029.65 688.85C1027.49 691.155 1025.65 692.782 1024.13 693.733 1022.61 694.683 1020.99 695.159 1019.28 695.159 1017.81 695.159 1016.63 694.672 1015.75 693.697 1014.87 692.723 1014.43 691.428 1014.43 689.812 1014.43 688.529 1014.72 687.127 1015.29 685.606L1014.86 685.463C1012.51 688.766 1010.28 691.202 1008.18 692.771 1006.07 694.339 1003.92 695.123 1001.71 695.123 999.497 695.123 997.797 694.487 996.609 693.216 995.421 691.945 994.827 690.18 994.827 687.923 994.827 686.426 995.172 684.299 995.861 681.543L998.178 672.204C998.819 669.614 999.14 667.784 999.14 666.714 999.14 665.764 998.986 665.075 998.677 664.647 998.368 664.219 997.881 664.005 997.215 664.005 996.479 664.005 995.7 664.308 994.881 664.914 994.061 665.52 992.938 666.619 991.512 668.211L989.48 666.215C991.5 664.172 993.021 662.77 994.043 662.009 995.065 661.249 996.045 660.708 996.984 660.388 997.922 660.067 998.974 659.906 1000.14 659.906Z" fill-rule="evenodd"/><text fill="#000000" fill-opacity="0" font-family="Arial,Arial_MSFontService,sans-serif" font-size="35.2524" x="989.48" y="690.752">𝑢</text><path d="M1021.36 637.129 1030.31 644.864 1030.31 647.573 1014.04 647.573 1003.43 647.573 992.658 647.573 992.658 644.223 1003.43 644.223 1014.04 644.223 1025.17 644.223 1019.47 639.268Z" fill-rule="evenodd"/><path d="M1058.9 668.604C1059.83 668.604 1060.66 668.823 1061.41 669.263 1062.16 669.703 1062.74 670.315 1063.14 671.099 1063.54 671.883 1063.75 672.762 1063.75 673.736 1063.75 674.734 1063.54 675.626 1063.12 676.41 1062.71 677.194 1062.12 677.8 1061.38 678.228 1060.63 678.655 1059.8 678.869 1058.9 678.869 1058 678.869 1057.17 678.655 1056.42 678.228 1055.67 677.8 1055.09 677.194 1054.68 676.41 1054.26 675.626 1054.05 674.734 1054.05 673.736 1054.05 672.762 1054.25 671.883 1054.66 671.099 1055.06 670.315 1055.64 669.703 1056.39 669.263 1057.13 668.823 1057.97 668.604 1058.9 668.604Z" fill-rule="evenodd"/><text fill="#000000" fill-opacity="0" font-family="Arial,Arial_MSFontService,sans-serif" font-size="10.2656" x="1054.05" y="677.586">∙</text><path d="M1119.27 659.764C1120.98 659.764 1122.22 660.209 1122.98 661.1 1123.74 661.992 1124.12 663.186 1124.12 664.683 1124.12 665.823 1123.92 667.13 1123.51 668.604 1123.11 670.077 1122.54 671.633 1121.8 673.273 1121.07 674.913 1120.19 676.594 1119.17 678.317 1118.14 680.04 1117.01 681.715 1115.78 683.343 1114.54 684.97 1113.22 686.503 1111.82 687.941 1110.42 689.378 1108.96 690.632 1107.46 691.701 1105.95 692.771 1104.41 693.62 1102.86 694.25 1101.3 694.88 1099.75 695.194 1098.21 695.194 1097.52 695.194 1096.94 695.022 1096.48 694.678 1096.01 694.333 1095.64 693.846 1095.35 693.216 1095.07 692.586 1094.87 691.844 1094.75 690.988 1094.63 690.133 1094.57 689.194 1094.57 688.172 1094.57 686.818 1094.65 685.368 1094.82 683.824 1094.99 682.279 1095.2 680.723 1095.46 679.154L1096.96 669.281C1097.05 668.711 1097.13 668.17 1097.19 667.659 1097.25 667.148 1097.28 666.774 1097.28 666.536 1097.28 665.8 1097.16 665.194 1096.92 664.718 1096.69 664.243 1096.28 664.005 1095.71 664.005 1095.26 664.005 1094.77 664.142 1094.25 664.415 1093.73 664.689 1093.2 665.039 1092.66 665.467 1092.13 665.895 1091.61 666.352 1091.11 666.839 1090.61 667.326 1090.15 667.784 1089.72 668.211L1088.01 666.215C1088.75 665.455 1089.53 664.701 1090.36 663.952 1091.2 663.203 1092.08 662.526 1093 661.92 1093.93 661.314 1094.9 660.827 1095.92 660.459 1096.95 660.09 1097.99 659.906 1099.06 659.906 1099.96 659.906 1100.7 660.055 1101.27 660.352 1101.84 660.649 1102.29 661.041 1102.61 661.528 1102.93 662.015 1103.15 662.55 1103.27 663.132 1103.39 663.714 1103.45 664.291 1103.45 664.861 1103.45 665.194 1103.43 665.514 1103.41 665.823 1103.39 666.132 1103.35 666.417 1103.3 666.679L1101.31 679.582C1101.09 680.937 1100.92 682.261 1100.77 683.556 1100.63 684.852 1100.56 685.998 1100.56 686.996 1100.56 687.994 1100.62 688.802 1100.74 689.42 1100.86 690.038 1101.08 690.347 1101.41 690.347 1102.2 690.347 1103.18 690.032 1104.37 689.402 1105.56 688.772 1106.81 687.905 1108.12 686.8 1109.42 685.695 1110.73 684.388 1112.04 682.879 1113.34 681.37 1114.52 679.737 1115.56 677.978 1116.61 676.22 1117.46 674.366 1118.11 672.418 1118.77 670.469 1119.09 668.509 1119.09 666.536 1119.09 665.681 1118.91 665.021 1118.54 664.558 1118.17 664.095 1117.6 663.863 1116.81 663.863 1115.81 663.863 1114.89 664.249 1114.05 665.021 1113.21 665.794 1112.33 666.809 1111.43 668.069L1109.4 666.251C1109.97 665.396 1110.64 664.576 1111.41 663.792 1112.18 663.007 1113 662.318 1113.87 661.724 1114.74 661.13 1115.64 660.655 1116.56 660.298 1117.49 659.942 1118.39 659.764 1119.27 659.764Z" fill-rule="evenodd"/><text fill="#000000" fill-opacity="0" font-family="Arial,Arial_MSFontService,sans-serif" font-size="35.4307" x="1088.01" y="690.766">𝑣</text><path d="M1115.91 637.084 1124.86 644.818 1124.86 647.527 1097.98 647.527 1097.98 644.177 1119.73 644.177 1114.02 639.222Z" fill-rule="evenodd"/><text fill="#000000" fill-opacity="0" font-family="Arial,Arial_MSFontService,sans-serif" font-size="10.4438" x="1097.98" y="646.222">റ</text><path d="M1153.46 678.762 1197.37 678.762 1197.37 683.503 1153.46 683.503ZM1153.46 663.97 1197.37 663.97 1197.37 668.711 1153.46 668.711Z" fill-rule="evenodd"/><text fill="#000000" fill-opacity="0" font-family="Arial,Arial_MSFontService,sans-serif" font-size="19.5332" x="1153.46" y="681.061">=</text><path d="M1237.6 659.906C1238.34 659.906 1238.98 659.99 1239.54 660.156 1240.1 660.322 1240.59 660.578 1241.02 660.922 1241.45 661.267 1241.83 661.712 1242.16 662.259 1242.5 662.805 1242.82 663.548 1243.13 664.487 1243.43 665.425 1243.73 666.59 1244 667.98 1244.27 669.37 1244.52 670.814 1244.73 672.311L1245.09 672.311C1247.37 669.103 1249.1 666.756 1250.27 665.271 1251.45 663.786 1252.44 662.681 1253.25 661.956 1254.06 661.231 1254.83 660.72 1255.58 660.423 1256.33 660.126 1257.32 659.978 1258.56 659.978 1259.68 659.978 1260.59 660.12 1261.3 660.405L1259.88 666.857 1257.38 666.857C1257.24 665.859 1256.82 665.36 1256.14 665.36 1255.92 665.36 1255.7 665.396 1255.46 665.467 1255.22 665.538 1254.93 665.693 1254.58 665.93 1254.24 666.168 1253.74 666.631 1253.07 667.32 1252.4 668.01 1251.66 668.853 1250.82 669.851 1249.99 670.849 1249.14 671.895 1248.26 672.988L1245.83 676.018C1246.26 678.299 1246.67 680.271 1247.05 681.935 1247.43 683.598 1247.77 684.982 1248.06 686.087 1248.36 687.192 1248.62 688.065 1248.85 688.707 1249.07 689.349 1249.32 689.83 1249.58 690.151 1249.84 690.471 1250.11 690.697 1250.38 690.828 1250.65 690.959 1250.97 691.024 1251.32 691.024 1251.97 691.024 1252.59 690.774 1253.19 690.275 1253.8 689.776 1254.67 688.648 1255.81 686.889L1258.13 688.422C1256.47 690.893 1254.97 692.634 1253.62 693.644 1252.28 694.654 1250.68 695.159 1248.83 695.159 1247.81 695.159 1246.94 694.975 1246.23 694.606 1245.51 694.238 1244.9 693.65 1244.37 692.842 1243.85 692.034 1243.39 690.774 1242.98 689.064 1242.25 686.022 1241.79 683.693 1241.63 682.077L1241.27 682.077C1238.75 685.618 1236.88 688.161 1235.66 689.705 1234.43 691.25 1233.42 692.39 1232.63 693.127 1231.83 693.864 1231.06 694.38 1230.31 694.678 1229.56 694.975 1228.57 695.123 1227.33 695.123 1226.22 695.123 1225.3 694.981 1224.59 694.695L1226.02 688.244 1228.51 688.244C1228.65 689.242 1229.07 689.741 1229.76 689.741 1230.09 689.741 1230.44 689.652 1230.81 689.473 1231.18 689.295 1231.71 688.867 1232.4 688.19 1233.09 687.513 1234.04 686.45 1235.25 685 1236.46 683.551 1238.22 681.376 1240.52 678.477 1240.17 676.6 1239.8 674.794 1239.42 673.059 1239.04 671.324 1238.65 669.709 1238.24 668.211 1237.84 666.714 1237.51 665.734 1237.24 665.271 1236.98 664.807 1236.7 664.487 1236.41 664.308 1236.11 664.13 1235.73 664.041 1235.28 664.041 1234.78 664.041 1234.33 664.154 1233.93 664.38 1233.53 664.605 1233.09 664.998 1232.61 665.556 1232.13 666.114 1231.51 666.988 1230.72 668.176L1228.4 666.643C1229.9 664.386 1231.34 662.698 1232.72 661.582 1234.1 660.465 1235.72 659.906 1237.6 659.906Z" fill-rule="evenodd"/><text fill="#000000" fill-opacity="0" font-family="Arial,Arial_MSFontService,sans-serif" font-size="35.2524" x="1224.59" y="690.752">𝑥</text><path d="M1277.54 676.221 1279.12 676.221C1279.09 677.17 1279.06 678.02 1279.04 678.77 1279.02 679.521 1279.01 680.25 1279 680.957 1278.99 681.664 1278.99 682.363 1278.99 683.053L1278.99 702.721C1278.99 703.256 1279.01 703.717 1279.04 704.106 1279.08 704.494 1279.13 704.822 1279.21 705.089 1279.29 705.356 1279.39 705.585 1279.52 705.775 1279.65 705.964 1279.8 706.128 1279.97 706.266 1280.18 706.473 1280.46 706.633 1280.8 706.745 1281.15 706.857 1281.59 706.952 1282.12 707.03 1282.66 707.107 1283.3 707.168 1284.05 707.211 1284.8 707.254 1285.7 707.284 1286.75 707.302L1286.75 709.553 1266.23 709.553 1266.23 707.302C1267.25 707.267 1268.11 707.228 1268.82 707.185 1269.53 707.142 1270.13 707.082 1270.63 707.004 1271.13 706.926 1271.53 706.84 1271.83 706.745 1272.14 706.65 1272.4 706.534 1272.62 706.396 1272.87 706.241 1273.07 706.072 1273.25 705.891 1273.42 705.71 1273.56 705.481 1273.66 705.205 1273.76 704.929 1273.84 704.593 1273.91 704.196 1273.97 703.799 1274 703.308 1274 702.721L1274 684.166C1274 683.493 1273.87 683.019 1273.61 682.742 1273.35 682.466 1272.98 682.328 1272.49 682.328 1271.96 682.328 1271.17 682.604 1270.11 683.157 1269.06 683.709 1267.7 684.528 1266.03 685.615 1265.8 685.218 1265.59 684.821 1265.4 684.425 1265.21 684.028 1265.02 683.622 1264.81 683.208 1266.95 682.035 1269.07 680.866 1271.16 679.702 1273.26 678.537 1275.38 677.377 1277.54 676.221Z" fill-rule="evenodd"/><text fill="#000000" fill-opacity="0" font-family="Arial,Arial_MSFontService,sans-serif" font-size="33.332" x="1264.81" y="705.387">1</text><path d="M1308.14 659.906C1308.87 659.906 1309.52 659.99 1310.08 660.156 1310.64 660.322 1311.13 660.578 1311.56 660.922 1311.99 661.267 1312.37 661.712 1312.7 662.259 1313.03 662.805 1313.35 663.548 1313.66 664.487 1313.97 665.425 1314.26 666.59 1314.54 667.98 1314.81 669.37 1315.05 670.814 1315.27 672.311L1315.62 672.311C1317.9 669.103 1319.63 666.756 1320.81 665.271 1321.99 663.786 1322.98 662.681 1323.79 661.956 1324.59 661.231 1325.37 660.72 1326.12 660.423 1326.87 660.126 1327.86 659.978 1329.1 659.978 1330.21 659.978 1331.13 660.12 1331.84 660.405L1330.42 666.857 1327.92 666.857C1327.78 665.859 1327.36 665.36 1326.67 665.36 1326.46 665.36 1326.23 665.396 1326 665.467 1325.76 665.538 1325.47 665.693 1325.12 665.93 1324.78 666.168 1324.27 666.631 1323.61 667.32 1322.94 668.01 1322.19 668.853 1321.36 669.851 1320.53 670.849 1319.67 671.895 1318.8 672.988L1316.37 676.018C1316.8 678.299 1317.2 680.271 1317.58 681.935 1317.96 683.598 1318.3 684.982 1318.6 686.087 1318.9 687.192 1319.16 688.065 1319.38 688.707 1319.61 689.349 1319.85 689.83 1320.11 690.151 1320.38 690.471 1320.64 690.697 1320.92 690.828 1321.19 690.959 1321.5 691.024 1321.86 691.024 1322.5 691.024 1323.13 690.774 1323.73 690.275 1324.34 689.776 1325.21 688.648 1326.35 686.889L1328.67 688.422C1327.01 690.893 1325.5 692.634 1324.16 693.644 1322.82 694.654 1321.22 695.159 1319.37 695.159 1318.34 695.159 1317.48 694.975 1316.76 694.606 1316.05 694.238 1315.43 693.65 1314.91 692.842 1314.39 692.034 1313.92 690.774 1313.52 689.064 1312.78 686.022 1312.33 683.693 1312.17 682.077L1311.81 682.077C1309.29 685.618 1307.42 688.161 1306.2 689.705 1304.97 691.25 1303.96 692.39 1303.17 693.127 1302.37 693.864 1301.6 694.38 1300.85 694.678 1300.1 694.975 1299.11 695.123 1297.87 695.123 1296.76 695.123 1295.84 694.981 1295.13 694.695L1296.55 688.244 1299.05 688.244C1299.19 689.242 1299.61 689.741 1300.3 689.741 1300.63 689.741 1300.98 689.652 1301.35 689.473 1301.72 689.295 1302.24 688.867 1302.93 688.19 1303.62 687.513 1304.57 686.45 1305.79 685 1307 683.551 1308.76 681.376 1311.06 678.477 1310.7 676.6 1310.34 674.794 1309.96 673.059 1309.58 671.324 1309.18 669.709 1308.78 668.211 1308.38 666.714 1308.04 665.734 1307.78 665.271 1307.52 664.807 1307.24 664.487 1306.94 664.308 1306.65 664.13 1306.27 664.041 1305.82 664.041 1305.32 664.041 1304.87 664.154 1304.47 664.38 1304.06 664.605 1303.62 664.998 1303.15 665.556 1302.67 666.114 1302.04 666.988 1301.26 668.176L1298.94 666.643C1300.44 664.386 1301.88 662.698 1303.25 661.582 1304.63 660.465 1306.26 659.906 1308.14 659.906Z" fill-rule="evenodd"/><text fill="#000000" fill-opacity="0" font-family="Arial,Arial_MSFontService,sans-serif" font-size="35.2524" x="1295.13" y="690.752">𝑥</text><path d="M1347.76 676.04C1349.55 676.04 1351.08 676.243 1352.35 676.648 1353.62 677.053 1354.65 677.601 1355.44 678.291 1356.24 678.981 1356.81 679.81 1357.16 680.776 1357.52 681.742 1357.69 682.786 1357.69 683.907 1357.69 684.58 1357.65 685.205 1357.55 685.783 1357.46 686.361 1357.29 686.931 1357.06 687.491 1356.83 688.052 1356.52 688.617 1356.14 689.186 1355.76 689.756 1355.29 690.359 1354.72 690.998 1354.29 691.55 1353.73 692.188 1353.04 692.913 1352.35 693.638 1351.59 694.414 1350.77 695.242 1349.95 696.07 1349.09 696.933 1348.2 697.83 1347.3 698.727 1346.43 699.616 1345.58 700.495 1344.74 701.375 1343.96 702.229 1343.25 703.057 1342.55 703.886 1341.97 704.645 1341.52 705.335L1351.09 705.335C1351.91 705.335 1352.55 705.305 1353.04 705.244 1353.52 705.184 1353.92 705.05 1354.24 704.843 1354.56 704.636 1354.83 704.321 1355.05 703.898 1355.28 703.476 1355.54 702.894 1355.83 702.152L1358.24 702.152C1358.15 703.377 1358.07 704.61 1357.99 705.852 1357.91 707.095 1357.83 708.328 1357.75 709.553L1335.83 709.553 1335.83 708.207C1336.24 707.276 1336.72 706.357 1337.27 705.451 1337.83 704.545 1338.45 703.627 1339.14 702.695 1339.83 701.763 1340.61 700.802 1341.49 699.81 1342.37 698.818 1343.35 697.787 1344.42 696.717 1346.04 695.095 1347.36 693.711 1348.38 692.564 1349.39 691.416 1350.2 690.394 1350.78 689.497 1351.37 688.6 1351.77 687.772 1351.99 687.013 1352.2 686.253 1352.31 685.443 1352.31 684.58 1352.31 683.7 1352.19 682.889 1351.94 682.147 1351.69 681.405 1351.33 680.776 1350.86 680.258 1350.4 679.741 1349.8 679.335 1349.09 679.042 1348.37 678.749 1347.55 678.602 1346.62 678.602 1345.01 678.602 1343.67 679.037 1342.58 679.909 1341.49 680.78 1340.65 682.044 1340.04 683.7L1336.65 683.7 1336.65 678.654C1338.86 677.739 1340.89 677.075 1342.75 676.661 1344.6 676.247 1346.27 676.04 1347.76 676.04Z" fill-rule="evenodd"/><text fill="#000000" fill-opacity="0" font-family="Arial,Arial_MSFontService,sans-serif" font-size="33.5132" x="1335.83" y="705.364">2</text><path d="M1407.32 650.817 1412.38 650.817 1412.38 671.348 1431.81 671.348 1431.81 676.089 1412.38 676.089 1412.38 696.62 1407.32 696.62 1407.32 676.089 1387.9 676.089 1387.9 671.348 1407.32 671.348Z" fill-rule="evenodd"/><text fill="#000000" fill-opacity="0" font-family="Arial,Arial_MSFontService,sans-serif" font-size="45.8032" x="1387.9" y="690.895">+</text><path d="M1465.64 659.942C1466.62 659.942 1467.45 660.073 1468.14 660.334 1468.61 660.524 1469.09 660.839 1469.56 661.279 1470.04 661.718 1470.46 662.33 1470.83 663.114 1471.2 663.898 1471.52 664.778 1471.79 665.752 1472.06 666.726 1472.37 668.128 1472.7 669.958 1473.27 673.023 1473.82 676.249 1474.36 679.636 1474.89 683.022 1475.35 686.164 1475.73 689.064 1478.03 685.737 1479.99 682.481 1481.59 679.297 1483.2 676.113 1484.35 673.344 1485.05 670.992 1485.75 668.639 1486.1 666.726 1486.1 665.253 1486.1 664.136 1485.86 663.376 1485.39 662.972 1484.91 662.568 1484.11 662.33 1482.97 662.259L1483.32 660.512 1492.7 660.512 1493.66 662.294C1491.85 667.237 1489.4 672.524 1486.32 678.156 1483.27 683.669 1479.79 689.159 1475.87 694.624 1472.12 699.828 1468.99 703.595 1466.5 705.923 1464.76 707.516 1463.09 708.656 1461.47 709.345 1460.19 709.868 1458.82 710.129 1457.37 710.129 1456.87 710.129 1456.3 710.088 1455.64 710.005 1454.99 709.922 1454.49 709.809 1454.13 709.666L1455.66 702.751 1458.48 702.751C1458.48 704.272 1459 705.032 1460.05 705.032 1461.42 705.032 1463.03 704.171 1464.86 702.448 1466.69 700.725 1468.84 698.129 1471.31 694.66 1470.62 690.501 1469.68 685.487 1468.49 679.618 1467.23 673.344 1466.4 669.459 1466 667.962 1465.5 666.156 1464.98 665.003 1464.43 664.504 1464.1 664.196 1463.68 664.041 1463.18 664.041 1462.42 664.041 1461.71 664.35 1461.04 664.968 1460.38 665.586 1459.56 666.655 1458.58 668.176L1456.27 666.643C1457.91 664.196 1459.44 662.467 1460.87 661.457 1462.29 660.447 1463.88 659.942 1465.64 659.942Z" fill-rule="evenodd"/><text fill="#000000" fill-opacity="0" font-family="Arial,Arial_MSFontService,sans-serif" font-size="50.1875" x="1454.13" y="703.856">𝑦</text><path d="M1508.68 676.221 1510.26 676.221C1510.22 677.17 1510.2 678.02 1510.18 678.77 1510.16 679.521 1510.15 680.25 1510.14 680.957 1510.13 681.664 1510.13 682.363 1510.13 683.053L1510.13 702.721C1510.13 703.256 1510.15 703.717 1510.18 704.106 1510.21 704.494 1510.27 704.822 1510.35 705.089 1510.43 705.356 1510.53 705.585 1510.66 705.775 1510.79 705.964 1510.94 706.128 1511.11 706.266 1511.32 706.473 1511.59 706.633 1511.94 706.745 1512.28 706.857 1512.72 706.952 1513.26 707.03 1513.79 707.107 1514.44 707.168 1515.19 707.211 1515.94 707.254 1516.84 707.284 1517.89 707.302L1517.89 709.553 1497.37 709.553 1497.37 707.302C1498.39 707.267 1499.25 707.228 1499.96 707.185 1500.66 707.142 1501.27 707.082 1501.77 707.004 1502.27 706.926 1502.67 706.84 1502.97 706.745 1503.27 706.65 1503.54 706.534 1503.76 706.396 1504 706.241 1504.21 706.072 1504.38 705.891 1504.56 705.71 1504.69 705.481 1504.8 705.205 1504.9 704.929 1504.98 704.593 1505.04 704.196 1505.1 703.799 1505.13 703.308 1505.13 702.721L1505.13 684.166C1505.13 683.493 1505 683.019 1504.74 682.742 1504.49 682.466 1504.12 682.328 1503.63 682.328 1503.1 682.328 1502.3 682.604 1501.25 683.157 1500.2 683.709 1498.84 684.528 1497.16 685.615 1496.94 685.218 1496.73 684.821 1496.54 684.425 1496.35 684.028 1496.15 683.622 1495.95 683.208 1498.09 682.035 1500.2 680.866 1502.3 679.702 1504.4 678.537 1506.52 677.377 1508.68 676.221Z" fill-rule="evenodd"/><text fill="#000000" fill-opacity="0" font-family="Arial,Arial_MSFontService,sans-serif" font-size="33.332" x="1495.95" y="705.387">1</text><path d="M1536.96 659.942C1537.93 659.942 1538.76 660.073 1539.45 660.334 1539.93 660.524 1540.4 660.839 1540.88 661.279 1541.35 661.718 1541.78 662.33 1542.14 663.114 1542.51 663.898 1542.83 664.778 1543.11 665.752 1543.38 666.726 1543.68 668.128 1544.02 669.958 1544.59 673.023 1545.14 676.249 1545.67 679.636 1546.21 683.022 1546.67 686.164 1547.05 689.064 1549.35 685.737 1551.31 682.481 1552.91 679.297 1554.51 676.113 1555.67 673.344 1556.37 670.992 1557.07 668.639 1557.42 666.726 1557.42 665.253 1557.42 664.136 1557.18 663.376 1556.71 662.972 1556.23 662.568 1555.42 662.33 1554.28 662.259L1554.64 660.512 1564.01 660.512 1564.98 662.294C1563.17 667.237 1560.72 672.524 1557.63 678.156 1554.59 683.669 1551.11 689.159 1547.19 694.624 1543.43 699.828 1540.31 703.595 1537.81 705.923 1536.08 707.516 1534.4 708.656 1532.79 709.345 1531.5 709.868 1530.14 710.129 1528.69 710.129 1528.19 710.129 1527.61 710.088 1526.96 710.005 1526.31 709.922 1525.8 709.809 1525.45 709.666L1526.98 702.751 1529.79 702.751C1529.79 704.272 1530.32 705.032 1531.36 705.032 1532.74 705.032 1534.34 704.171 1536.17 702.448 1538 700.725 1540.15 698.129 1542.63 694.66 1541.94 690.501 1541 685.487 1539.81 679.618 1538.55 673.344 1537.72 669.459 1537.31 667.962 1536.82 666.156 1536.29 665.003 1535.75 664.504 1535.41 664.196 1535 664.041 1534.5 664.041 1533.74 664.041 1533.03 664.35 1532.36 664.968 1531.69 665.586 1530.88 666.655 1529.9 668.176L1527.58 666.643C1529.22 664.196 1530.76 662.467 1532.18 661.457 1533.61 660.447 1535.2 659.942 1536.96 659.942Z" fill-rule="evenodd"/><text fill="#000000" fill-opacity="0" font-family="Arial,Arial_MSFontService,sans-serif" font-size="50.1875" x="1525.45" y="703.856">𝑦</text><path d="M1579.67 676.04C1581.47 676.04 1583 676.243 1584.27 676.648 1585.53 677.053 1586.57 677.601 1587.36 678.291 1588.15 678.981 1588.73 679.81 1589.08 680.776 1589.43 681.742 1589.61 682.786 1589.61 683.907 1589.61 684.58 1589.56 685.205 1589.47 685.783 1589.37 686.361 1589.21 686.931 1588.98 687.491 1588.74 688.052 1588.44 688.617 1588.06 689.186 1587.68 689.756 1587.2 690.359 1586.63 690.998 1586.2 691.55 1585.64 692.188 1584.95 692.913 1584.26 693.638 1583.51 694.414 1582.69 695.242 1581.87 696.07 1581.01 696.933 1580.11 697.83 1579.22 698.727 1578.34 699.616 1577.5 700.495 1576.65 701.375 1575.88 702.229 1575.17 703.057 1574.46 703.886 1573.88 704.645 1573.44 705.335L1583.01 705.335C1583.82 705.335 1584.47 705.305 1584.95 705.244 1585.43 705.184 1585.84 705.05 1586.16 704.843 1586.47 704.636 1586.75 704.321 1586.97 703.898 1587.19 703.476 1587.45 702.894 1587.75 702.152L1590.15 702.152C1590.07 703.377 1589.99 704.61 1589.91 705.852 1589.83 707.095 1589.75 708.328 1589.66 709.553L1567.74 709.553 1567.74 708.207C1568.16 707.276 1568.64 706.357 1569.19 705.451 1569.74 704.545 1570.36 703.627 1571.05 702.695 1571.74 701.763 1572.53 700.802 1573.41 699.81 1574.29 698.818 1575.26 697.787 1576.33 696.717 1577.96 695.095 1579.28 693.711 1580.29 692.564 1581.31 691.416 1582.11 690.394 1582.7 689.497 1583.29 688.6 1583.69 687.772 1583.9 687.013 1584.12 686.253 1584.23 685.443 1584.23 684.58 1584.23 683.7 1584.1 682.889 1583.85 682.147 1583.6 681.405 1583.24 680.776 1582.78 680.258 1582.31 679.741 1581.72 679.335 1581.01 679.042 1580.29 678.749 1579.47 678.602 1578.53 678.602 1576.93 678.602 1575.58 679.037 1574.5 679.909 1573.41 680.78 1572.56 682.044 1571.96 683.7L1568.57 683.7 1568.57 678.654C1570.78 677.739 1572.81 677.075 1574.67 676.661 1576.52 676.247 1578.19 676.04 1579.67 676.04Z" fill-rule="evenodd"/><text fill="#000000" fill-opacity="0" font-family="Arial,Arial_MSFontService,sans-serif" font-size="33.5132" x="1567.74" y="705.364">2</text><path d="M1639.24 650.817 1644.3 650.817 1644.3 671.348 1663.73 671.348 1663.73 676.089 1644.3 676.089 1644.3 696.62 1639.24 696.62 1639.24 676.089 1619.81 676.089 1619.81 671.348 1639.24 671.348Z" fill-rule="evenodd"/><text fill="#000000" fill-opacity="0" font-family="Arial,Arial_MSFontService,sans-serif" font-size="45.8032" x="1619.81" y="690.895">+</text><path d="M1694.17 660.512 1719.52 660.512 1720.19 662.294 1703.19 681.828C1699.89 685.606 1697.02 688.814 1694.6 691.452L1694.81 691.701 1702.87 691.701C1704.3 691.701 1705.39 691.624 1706.15 691.47 1706.91 691.315 1707.57 691.024 1708.14 690.596 1708.72 690.169 1709.3 689.521 1709.91 688.654 1710.52 687.786 1711.27 686.426 1712.17 684.572L1715.35 684.572 1713.17 694.588 1687.36 694.588 1686.69 692.842 1706.18 670.386C1708.94 667.225 1710.96 664.98 1712.24 663.649L1712.03 663.399 1703.69 663.399C1702.45 663.399 1701.55 663.483 1700.98 663.649 1700.41 663.815 1699.84 664.106 1699.27 664.522 1698.7 664.938 1698.09 665.556 1697.43 666.376 1696.78 667.196 1696.05 668.366 1695.24 669.887L1692.07 669.887Z" fill-rule="evenodd"/><text fill="#000000" fill-opacity="0" font-family="Arial,Arial_MSFontService,sans-serif" font-size="34.0762" x="1686.69" y="690.329">𝑧</text><path d="M1735.3 676.221 1736.88 676.221C1736.85 677.17 1736.82 678.02 1736.8 678.77 1736.79 679.521 1736.77 680.25 1736.76 680.957 1736.76 681.664 1736.75 682.363 1736.75 683.053L1736.75 702.721C1736.75 703.256 1736.77 703.717 1736.8 704.106 1736.84 704.494 1736.89 704.822 1736.97 705.089 1737.05 705.356 1737.15 705.585 1737.28 705.775 1737.41 705.964 1737.56 706.128 1737.73 706.266 1737.94 706.473 1738.22 706.633 1738.56 706.745 1738.91 706.857 1739.35 706.952 1739.88 707.03 1740.42 707.107 1741.06 707.168 1741.81 707.211 1742.56 707.254 1743.46 707.284 1744.51 707.302L1744.51 709.553 1723.99 709.553 1723.99 707.302C1725.01 707.267 1725.87 707.228 1726.58 707.185 1727.29 707.142 1727.89 707.082 1728.39 707.004 1728.89 706.926 1729.29 706.84 1729.6 706.745 1729.9 706.65 1730.16 706.534 1730.38 706.396 1730.63 706.241 1730.83 706.072 1731.01 705.891 1731.18 705.71 1731.32 705.481 1731.42 705.205 1731.52 704.929 1731.61 704.593 1731.67 704.196 1731.73 703.799 1731.76 703.308 1731.76 702.721L1731.76 684.166C1731.76 683.493 1731.63 683.019 1731.37 682.742 1731.11 682.466 1730.74 682.328 1730.26 682.328 1729.72 682.328 1728.93 682.604 1727.87 683.157 1726.82 683.709 1725.46 684.528 1723.79 685.615 1723.56 685.218 1723.35 684.821 1723.16 684.425 1722.97 684.028 1722.78 683.622 1722.57 683.208 1724.71 682.035 1726.83 680.866 1728.92 679.702 1731.02 678.537 1733.14 677.377 1735.3 676.221Z" fill-rule="evenodd"/><text fill="#000000" fill-opacity="0" font-family="Arial,Arial_MSFontService,sans-serif" font-size="33.332" x="1722.57" y="705.387">1</text><path d="M1760.2 660.512 1785.54 660.512 1786.22 662.294 1769.21 681.828C1765.91 685.606 1763.05 688.814 1760.62 691.452L1760.84 691.701 1768.89 691.701C1770.32 691.701 1771.41 691.624 1772.17 691.47 1772.93 691.315 1773.6 691.024 1774.17 690.596 1774.74 690.169 1775.33 689.521 1775.93 688.654 1776.54 687.786 1777.29 686.426 1778.2 684.572L1781.37 684.572 1779.19 694.588 1753.39 694.588 1752.71 692.842 1772.21 670.386C1774.96 667.225 1776.98 664.98 1778.27 663.649L1778.05 663.399 1769.71 663.399C1768.48 663.399 1767.57 663.483 1767 663.649 1766.43 663.815 1765.86 664.106 1765.29 664.522 1764.72 664.938 1764.11 665.556 1763.46 666.376 1762.8 667.196 1762.07 668.366 1761.26 669.887L1758.09 669.887Z" fill-rule="evenodd"/><text fill="#000000" fill-opacity="0" font-family="Arial,Arial_MSFontService,sans-serif" font-size="34.0762" x="1752.71" y="690.329">𝑧</text><path d="M1801 676.04C1802.8 676.04 1804.33 676.243 1805.6 676.648 1806.86 677.053 1807.89 677.601 1808.69 678.291 1809.48 678.981 1810.06 679.81 1810.41 680.776 1810.76 681.742 1810.94 682.786 1810.94 683.907 1810.94 684.58 1810.89 685.205 1810.8 685.783 1810.7 686.361 1810.54 686.931 1810.31 687.491 1810.07 688.052 1809.77 688.617 1809.39 689.186 1809.01 689.756 1808.53 690.359 1807.96 690.998 1807.53 691.55 1806.97 692.188 1806.28 692.913 1805.59 693.638 1804.84 694.414 1804.02 695.242 1803.2 696.07 1802.34 696.933 1801.44 697.83 1800.54 698.727 1799.67 699.616 1798.83 700.495 1797.98 701.375 1797.21 702.229 1796.5 703.057 1795.79 703.886 1795.21 704.645 1794.76 705.335L1804.34 705.335C1805.15 705.335 1805.8 705.305 1806.28 705.244 1806.76 705.184 1807.17 705.05 1807.48 704.843 1807.8 704.636 1808.08 704.321 1808.3 703.898 1808.52 703.476 1808.78 702.894 1809.08 702.152L1811.48 702.152C1811.4 703.377 1811.31 704.61 1811.24 705.852 1811.16 707.095 1811.08 708.328 1810.99 709.553L1789.07 709.553 1789.07 708.207C1789.49 707.276 1789.97 706.357 1790.52 705.451 1791.07 704.545 1791.69 703.627 1792.38 702.695 1793.07 701.763 1793.86 700.802 1794.74 699.81 1795.62 698.818 1796.59 697.787 1797.66 696.717 1799.29 695.095 1800.6 693.711 1801.62 692.564 1802.64 691.416 1803.44 690.394 1804.03 689.497 1804.62 688.6 1805.02 687.772 1805.23 687.013 1805.45 686.253 1805.56 685.443 1805.56 684.58 1805.56 683.7 1805.43 682.889 1805.18 682.147 1804.93 681.405 1804.57 680.776 1804.11 680.258 1803.64 679.741 1803.05 679.335 1802.33 679.042 1801.62 678.749 1800.79 678.602 1799.86 678.602 1798.26 678.602 1796.91 679.037 1795.83 679.909 1794.74 680.78 1793.89 682.044 1793.29 683.7L1789.9 683.7 1789.9 678.654C1792.11 677.739 1794.14 677.075 1795.99 676.661 1797.85 676.247 1799.52 676.04 1801 676.04Z" fill-rule="evenodd"/><text fill="#000000" fill-opacity="0" font-family="Arial,Arial_MSFontService,sans-serif" font-size="33.5132" x="1789.07" y="705.364">2</text></g></svg>