<svg width="2488" height="156" xmlns="http://www.w3.org/2000/svg" xmlns:xlink="http://www.w3.org/1999/xlink" overflow="hidden"><defs><clipPath id="clip0"><rect x="956" y="576" width="2488" height="156"/></clipPath></defs><g clip-path="url(#clip0)" transform="translate(-956 -576)"><path d="M1109.07 659.906C1110.59 659.906 1111.79 660.417 1112.67 661.439 1113.55 662.461 1113.99 663.839 1113.99 665.574 1113.99 667.451 1113.62 669.792 1112.88 672.596L1111.32 678.762C1110.91 680.331 1110.62 681.554 1110.44 682.434 1110.26 683.313 1110.13 684.073 1110.05 684.715 1109.97 685.357 1109.93 685.891 1109.93 686.319 1109.93 687.959 1110.2 689.141 1110.75 689.866 1111.29 690.59 1112.18 690.953 1113.42 690.953 1114.42 690.953 1115.49 690.555 1116.64 689.759 1117.8 688.963 1119.02 687.763 1120.32 686.159 1121.61 684.555 1122.65 682.998 1123.43 681.489 1124.22 679.98 1124.86 678.121 1125.36 675.911L1128.75 660.477 1134.91 660.477 1129.71 683.075C1129.19 685.357 1128.92 687.115 1128.92 688.351 1128.92 689.301 1129.08 689.99 1129.39 690.418 1129.7 690.846 1130.18 691.06 1130.85 691.06 1131.56 691.06 1132.32 690.769 1133.13 690.186 1133.94 689.604 1135.08 688.493 1136.55 686.854L1138.58 688.85C1136.42 691.155 1134.58 692.782 1133.06 693.733 1131.54 694.683 1129.92 695.159 1128.21 695.159 1126.74 695.159 1125.56 694.672 1124.68 693.697 1123.8 692.723 1123.36 691.428 1123.36 689.812 1123.36 688.529 1123.65 687.127 1124.22 685.606L1123.79 685.463C1121.44 688.766 1119.21 691.202 1117.11 692.771 1115.01 694.339 1112.85 695.123 1110.64 695.123 1108.43 695.123 1106.73 694.487 1105.54 693.216 1104.35 691.945 1103.76 690.18 1103.76 687.923 1103.76 686.426 1104.1 684.299 1104.79 681.543L1107.11 672.204C1107.75 669.614 1108.07 667.784 1108.07 666.714 1108.07 665.764 1107.92 665.075 1107.61 664.647 1107.3 664.219 1106.81 664.005 1106.15 664.005 1105.41 664.005 1104.63 664.308 1103.81 664.914 1102.99 665.52 1101.87 666.619 1100.44 668.211L1098.41 666.215C1100.43 664.172 1101.95 662.77 1102.97 662.009 1104 661.249 1104.98 660.708 1105.92 660.388 1106.85 660.067 1107.91 659.906 1109.07 659.906Z" fill-rule="evenodd"/><text fill="#000000" fill-opacity="0" font-family="Arial,Arial_MSFontService,sans-serif" font-size="35.2524" x="1098.41" y="690.752">𝑢</text><path d="M1130.29 637.129 1139.24 644.864 1139.24 647.573 1122.98 647.573 1112.36 647.573 1101.59 647.573 1101.59 644.223 1112.36 644.223 1122.98 644.223 1134.1 644.223 1128.4 639.268Z" fill-rule="evenodd"/><path d="M1167.83 668.604C1168.76 668.604 1169.6 668.823 1170.34 669.263 1171.09 669.703 1171.67 670.315 1172.07 671.099 1172.48 671.883 1172.68 672.762 1172.68 673.736 1172.68 674.734 1172.47 675.626 1172.06 676.41 1171.64 677.194 1171.06 677.8 1170.31 678.228 1169.56 678.655 1168.73 678.869 1167.83 678.869 1166.93 678.869 1166.1 678.655 1165.35 678.228 1164.61 677.8 1164.02 677.194 1163.61 676.41 1163.19 675.626 1162.98 674.734 1162.98 673.736 1162.98 672.762 1163.19 671.883 1163.59 671.099 1163.99 670.315 1164.57 669.703 1165.32 669.263 1166.07 668.823 1166.9 668.604 1167.83 668.604Z" fill-rule="evenodd"/><text fill="#000000" fill-opacity="0" font-family="Arial,Arial_MSFontService,sans-serif" font-size="10.2656" x="1162.98" y="677.586">∙</text><path d="M1228.2 659.764C1229.92 659.764 1231.15 660.209 1231.91 661.1 1232.67 661.992 1233.05 663.186 1233.05 664.683 1233.05 665.823 1232.85 667.13 1232.45 668.604 1232.04 670.077 1231.47 671.633 1230.73 673.273 1230 674.913 1229.12 676.594 1228.1 678.317 1227.08 680.04 1225.95 681.715 1224.71 683.343 1223.48 684.97 1222.16 686.503 1220.75 687.941 1219.35 689.378 1217.9 690.632 1216.39 691.701 1214.88 692.771 1213.35 693.62 1211.79 694.25 1210.23 694.88 1208.68 695.194 1207.14 695.194 1206.45 695.194 1205.87 695.022 1205.41 694.678 1204.95 694.333 1204.57 693.846 1204.29 693.216 1204 692.586 1203.8 691.844 1203.68 690.988 1203.56 690.133 1203.5 689.194 1203.5 688.172 1203.5 686.818 1203.59 685.368 1203.75 683.824 1203.92 682.279 1204.13 680.723 1204.39 679.154L1205.89 669.281C1205.99 668.711 1206.06 668.17 1206.12 667.659 1206.18 667.148 1206.21 666.774 1206.21 666.536 1206.21 665.8 1206.09 665.194 1205.85 664.718 1205.62 664.243 1205.21 664.005 1204.64 664.005 1204.19 664.005 1203.7 664.142 1203.18 664.415 1202.66 664.689 1202.13 665.039 1201.6 665.467 1201.06 665.895 1200.54 666.352 1200.04 666.839 1199.55 667.326 1199.08 667.784 1198.65 668.211L1196.94 666.215C1197.68 665.455 1198.46 664.701 1199.3 663.952 1200.13 663.203 1201.01 662.526 1201.93 661.92 1202.86 661.314 1203.84 660.827 1204.86 660.459 1205.88 660.09 1206.92 659.906 1207.99 659.906 1208.9 659.906 1209.63 660.055 1210.2 660.352 1210.77 660.649 1211.22 661.041 1211.54 661.528 1211.86 662.015 1212.08 662.55 1212.2 663.132 1212.32 663.714 1212.38 664.291 1212.38 664.861 1212.38 665.194 1212.37 665.514 1212.34 665.823 1212.32 666.132 1212.28 666.417 1212.24 666.679L1210.24 679.582C1210.03 680.937 1209.85 682.261 1209.7 683.556 1209.56 684.852 1209.49 685.998 1209.49 686.996 1209.49 687.994 1209.55 688.802 1209.67 689.42 1209.79 690.038 1210.01 690.347 1210.35 690.347 1211.13 690.347 1212.12 690.032 1213.3 689.402 1214.49 688.772 1215.74 687.905 1217.05 686.8 1218.35 685.695 1219.66 684.388 1220.97 682.879 1222.28 681.37 1223.45 679.737 1224.5 677.978 1225.54 676.22 1226.39 674.366 1227.05 672.418 1227.7 670.469 1228.03 668.509 1228.03 666.536 1228.03 665.681 1227.84 665.021 1227.47 664.558 1227.11 664.095 1226.53 663.863 1225.74 663.863 1224.75 663.863 1223.83 664.249 1222.98 665.021 1222.14 665.794 1221.27 666.809 1220.36 668.069L1218.33 666.251C1218.9 665.396 1219.57 664.576 1220.34 663.792 1221.12 663.007 1221.94 662.318 1222.8 661.724 1223.67 661.13 1224.57 660.655 1225.5 660.298 1226.42 659.942 1227.32 659.764 1228.2 659.764Z" fill-rule="evenodd"/><text fill="#000000" fill-opacity="0" font-family="Arial,Arial_MSFontService,sans-serif" font-size="35.4307" x="1196.94" y="690.766">𝑣</text><path d="M1224.84 637.084 1233.79 644.818 1233.79 647.527 1206.92 647.527 1206.92 644.177 1228.66 644.177 1222.96 639.222Z" fill-rule="evenodd"/><text fill="#000000" fill-opacity="0" font-family="Arial,Arial_MSFontService,sans-serif" font-size="10.4438" x="1206.92" y="646.222">റ</text><path d="M1262.39 678.762 1306.31 678.762 1306.31 683.503 1262.39 683.503ZM1262.39 663.97 1306.31 663.97 1306.31 668.711 1262.39 668.711Z" fill-rule="evenodd"/><text fill="#000000" fill-opacity="0" font-family="Arial,Arial_MSFontService,sans-serif" font-size="19.5332" x="1262.39" y="681.061">=</text><path d="M1346.53 659.906C1347.27 659.906 1347.92 659.99 1348.48 660.156 1349.03 660.322 1349.53 660.578 1349.95 660.922 1350.38 661.267 1350.76 661.712 1351.09 662.259 1351.43 662.805 1351.75 663.548 1352.06 664.487 1352.37 665.425 1352.66 666.59 1352.93 667.98 1353.2 669.37 1353.45 670.814 1353.66 672.311L1354.02 672.311C1356.3 669.103 1358.03 666.756 1359.2 665.271 1360.38 663.786 1361.37 662.681 1362.18 661.956 1362.99 661.231 1363.77 660.72 1364.52 660.423 1365.26 660.126 1366.26 659.978 1367.49 659.978 1368.61 659.978 1369.52 660.12 1370.24 660.405L1368.81 666.857 1366.32 666.857C1366.17 665.859 1365.76 665.36 1365.07 665.36 1364.85 665.36 1364.63 665.396 1364.39 665.467 1364.15 665.538 1363.86 665.693 1363.52 665.93 1363.17 666.168 1362.67 666.631 1362 667.32 1361.34 668.01 1360.59 668.853 1359.76 669.851 1358.92 670.849 1358.07 671.895 1357.19 672.988L1354.77 676.018C1355.19 678.299 1355.6 680.271 1355.98 681.935 1356.36 683.598 1356.7 684.982 1356.99 686.087 1357.29 687.192 1357.55 688.065 1357.78 688.707 1358 689.349 1358.25 689.83 1358.51 690.151 1358.77 690.471 1359.04 690.697 1359.31 690.828 1359.58 690.959 1359.9 691.024 1360.26 691.024 1360.9 691.024 1361.52 690.774 1362.13 690.275 1362.73 689.776 1363.61 688.648 1364.75 686.889L1367.06 688.422C1365.4 690.893 1363.9 692.634 1362.55 693.644 1361.21 694.654 1359.61 695.159 1357.76 695.159 1356.74 695.159 1355.87 694.975 1355.16 694.606 1354.45 694.238 1353.83 693.65 1353.3 692.842 1352.78 692.034 1352.32 690.774 1351.91 689.064 1351.18 686.022 1350.73 683.693 1350.56 682.077L1350.2 682.077C1347.68 685.618 1345.81 688.161 1344.59 689.705 1343.37 691.25 1342.36 692.39 1341.56 693.127 1340.76 693.864 1339.99 694.38 1339.24 694.678 1338.49 694.975 1337.5 695.123 1336.27 695.123 1335.15 695.123 1334.24 694.981 1333.52 694.695L1334.95 688.244 1337.44 688.244C1337.59 689.242 1338 689.741 1338.69 689.741 1339.02 689.741 1339.37 689.652 1339.74 689.473 1340.11 689.295 1340.64 688.867 1341.33 688.19 1342.02 687.513 1342.97 686.45 1344.18 685 1345.39 683.551 1347.15 681.376 1349.46 678.477 1349.1 676.6 1348.73 674.794 1348.35 673.059 1347.97 671.324 1347.58 669.709 1347.17 668.211 1346.77 666.714 1346.44 665.734 1346.18 665.271 1345.91 664.807 1345.64 664.487 1345.34 664.308 1345.04 664.13 1344.67 664.041 1344.22 664.041 1343.72 664.041 1343.27 664.154 1342.86 664.38 1342.46 664.605 1342.02 664.998 1341.54 665.556 1341.07 666.114 1340.44 666.988 1339.65 668.176L1337.34 666.643C1338.83 664.386 1340.27 662.698 1341.65 661.582 1343.03 660.465 1344.66 659.906 1346.53 659.906Z" fill-rule="evenodd"/><text fill="#000000" fill-opacity="0" font-family="Arial,Arial_MSFontService,sans-serif" font-size="35.2524" x="1333.52" y="690.752">𝑥</text><path d="M1386.47 676.221 1388.05 676.221C1388.02 677.17 1387.99 678.02 1387.97 678.77 1387.96 679.521 1387.94 680.25 1387.94 680.957 1387.93 681.664 1387.92 682.363 1387.92 683.053L1387.92 702.721C1387.92 703.256 1387.94 703.717 1387.97 704.106 1388.01 704.494 1388.06 704.822 1388.14 705.089 1388.22 705.356 1388.32 705.585 1388.45 705.775 1388.58 705.964 1388.73 706.128 1388.91 706.266 1389.11 706.473 1389.39 706.633 1389.73 706.745 1390.08 706.857 1390.52 706.952 1391.05 707.03 1391.59 707.107 1392.23 707.168 1392.98 707.211 1393.73 707.254 1394.63 707.284 1395.69 707.302L1395.69 709.553 1375.16 709.553 1375.16 707.302C1376.18 707.267 1377.04 707.228 1377.75 707.185 1378.46 707.142 1379.06 707.082 1379.56 707.004 1380.06 706.926 1380.47 706.84 1380.77 706.745 1381.07 706.65 1381.33 706.534 1381.56 706.396 1381.8 706.241 1382 706.072 1382.18 705.891 1382.35 705.71 1382.49 705.481 1382.59 705.205 1382.69 704.929 1382.78 704.593 1382.84 704.196 1382.9 703.799 1382.93 703.308 1382.93 702.721L1382.93 684.166C1382.93 683.493 1382.8 683.019 1382.54 682.742 1382.28 682.466 1381.91 682.328 1381.43 682.328 1380.89 682.328 1380.1 682.604 1379.05 683.157 1377.99 683.709 1376.63 684.528 1374.96 685.615 1374.73 685.218 1374.53 684.821 1374.34 684.425 1374.15 684.028 1373.95 683.622 1373.74 683.208 1375.88 682.035 1378 680.866 1380.09 679.702 1382.19 678.537 1384.32 677.377 1386.47 676.221Z" fill-rule="evenodd"/><text fill="#000000" fill-opacity="0" font-family="Arial,Arial_MSFontService,sans-serif" font-size="33.332" x="1373.74" y="705.387">1</text><path d="M1417.07 659.906C1417.81 659.906 1418.45 659.99 1419.01 660.156 1419.57 660.322 1420.06 660.578 1420.49 660.922 1420.92 661.267 1421.3 661.712 1421.63 662.259 1421.97 662.805 1422.29 663.548 1422.59 664.487 1422.9 665.425 1423.19 666.59 1423.47 667.98 1423.74 669.37 1423.98 670.814 1424.2 672.311L1424.56 672.311C1426.84 669.103 1428.57 666.756 1429.74 665.271 1430.92 663.786 1431.91 662.681 1432.72 661.956 1433.53 661.231 1434.3 660.72 1435.05 660.423 1435.8 660.126 1436.79 659.978 1438.03 659.978 1439.15 659.978 1440.06 660.12 1440.77 660.405L1439.35 666.857 1436.85 666.857C1436.71 665.859 1436.29 665.36 1435.61 665.36 1435.39 665.36 1435.17 665.396 1434.93 665.467 1434.69 665.538 1434.4 665.693 1434.05 665.93 1433.71 666.168 1433.21 666.631 1432.54 667.32 1431.87 668.01 1431.13 668.853 1430.29 669.851 1429.46 670.849 1428.61 671.895 1427.73 672.988L1425.3 676.018C1425.73 678.299 1426.14 680.271 1426.52 681.935 1426.9 683.598 1427.23 684.982 1427.53 686.087 1427.83 687.192 1428.09 688.065 1428.32 688.707 1428.54 689.349 1428.79 689.83 1429.05 690.151 1429.31 690.471 1429.58 690.697 1429.85 690.828 1430.12 690.959 1430.44 691.024 1430.79 691.024 1431.43 691.024 1432.06 690.774 1432.66 690.275 1433.27 689.776 1434.14 688.648 1435.28 686.889L1437.6 688.422C1435.94 690.893 1434.43 692.634 1433.09 693.644 1431.75 694.654 1430.15 695.159 1428.3 695.159 1427.28 695.159 1426.41 694.975 1425.7 694.606 1424.98 694.238 1424.37 693.65 1423.84 692.842 1423.32 692.034 1422.86 690.774 1422.45 689.064 1421.72 686.022 1421.26 683.693 1421.1 682.077L1420.74 682.077C1418.22 685.618 1416.35 688.161 1415.13 689.705 1413.9 691.25 1412.89 692.39 1412.1 693.127 1411.3 693.864 1410.53 694.38 1409.78 694.678 1409.03 694.975 1408.04 695.123 1406.8 695.123 1405.69 695.123 1404.77 694.981 1404.06 694.695L1405.49 688.244 1407.98 688.244C1408.12 689.242 1408.54 689.741 1409.23 689.741 1409.56 689.741 1409.91 689.652 1410.28 689.473 1410.65 689.295 1411.18 688.867 1411.87 688.19 1412.55 687.513 1413.51 686.45 1414.72 685 1415.93 683.551 1417.69 681.376 1419.99 678.477 1419.64 676.6 1419.27 674.794 1418.89 673.059 1418.51 671.324 1418.12 669.709 1417.71 668.211 1417.31 666.714 1416.97 665.734 1416.71 665.271 1416.45 664.807 1416.17 664.487 1415.88 664.308 1415.58 664.13 1415.2 664.041 1414.75 664.041 1414.25 664.041 1413.8 664.154 1413.4 664.38 1412.99 664.605 1412.55 664.998 1412.08 665.556 1411.6 666.114 1410.97 666.988 1410.19 668.176L1407.87 666.643C1409.37 664.386 1410.81 662.698 1412.19 661.582 1413.56 660.465 1415.19 659.906 1417.07 659.906Z" fill-rule="evenodd"/><text fill="#000000" fill-opacity="0" font-family="Arial,Arial_MSFontService,sans-serif" font-size="35.2524" x="1404.06" y="690.752">𝑥</text><path d="M1456.69 676.04C1458.48 676.04 1460.01 676.243 1461.28 676.648 1462.55 677.053 1463.58 677.601 1464.37 678.291 1465.17 678.981 1465.74 679.81 1466.09 680.776 1466.45 681.742 1466.63 682.786 1466.63 683.907 1466.63 684.58 1466.58 685.205 1466.48 685.783 1466.39 686.361 1466.22 686.931 1465.99 687.491 1465.76 688.052 1465.45 688.617 1465.07 689.186 1464.69 689.756 1464.22 690.359 1463.65 690.998 1463.22 691.55 1462.66 692.188 1461.97 692.913 1461.28 693.638 1460.52 694.414 1459.7 695.242 1458.88 696.07 1458.03 696.933 1457.13 697.83 1456.23 698.727 1455.36 699.616 1454.51 700.495 1453.67 701.375 1452.89 702.229 1452.19 703.057 1451.48 703.886 1450.9 704.645 1450.45 705.335L1460.03 705.335C1460.84 705.335 1461.48 705.305 1461.97 705.244 1462.45 705.184 1462.85 705.05 1463.17 704.843 1463.49 704.636 1463.76 704.321 1463.99 703.898 1464.21 703.476 1464.47 702.894 1464.76 702.152L1467.17 702.152C1467.08 703.377 1467 704.61 1466.92 705.852 1466.85 707.095 1466.76 708.328 1466.68 709.553L1444.76 709.553 1444.76 708.207C1445.17 707.276 1445.65 706.357 1446.21 705.451 1446.76 704.545 1447.38 703.627 1448.07 702.695 1448.76 701.763 1449.55 700.802 1450.43 699.81 1451.31 698.818 1452.28 697.787 1453.35 696.717 1454.97 695.095 1456.29 693.711 1457.31 692.564 1458.33 691.416 1459.13 690.394 1459.72 689.497 1460.3 688.6 1460.7 687.772 1460.92 687.013 1461.13 686.253 1461.24 685.443 1461.24 684.58 1461.24 683.7 1461.12 682.889 1460.87 682.147 1460.62 681.405 1460.26 680.776 1459.79 680.258 1459.33 679.741 1458.74 679.335 1458.02 679.042 1457.3 678.749 1456.48 678.602 1455.55 678.602 1453.94 678.602 1452.6 679.037 1451.51 679.909 1450.43 680.78 1449.58 682.044 1448.98 683.7L1445.59 683.7 1445.59 678.654C1447.79 677.739 1449.83 677.075 1451.68 676.661 1453.54 676.247 1455.2 676.04 1456.69 676.04Z" fill-rule="evenodd"/><text fill="#000000" fill-opacity="0" font-family="Arial,Arial_MSFontService,sans-serif" font-size="33.5132" x="1444.76" y="705.364">2</text><path d="M1516.25 650.817 1521.32 650.817 1521.32 671.348 1540.74 671.348 1540.74 676.089 1521.32 676.089 1521.32 696.62 1516.25 696.62 1516.25 676.089 1496.83 676.089 1496.83 671.348 1516.25 671.348Z" fill-rule="evenodd"/><text fill="#000000" fill-opacity="0" font-family="Arial,Arial_MSFontService,sans-serif" font-size="45.8032" x="1496.83" y="690.895">+</text><path d="M1574.57 659.942C1575.55 659.942 1576.38 660.073 1577.07 660.334 1577.54 660.524 1578.02 660.839 1578.49 661.279 1578.97 661.718 1579.39 662.33 1579.76 663.114 1580.13 663.898 1580.45 664.778 1580.72 665.752 1581 666.726 1581.3 668.128 1581.63 669.958 1582.2 673.023 1582.75 676.249 1583.29 679.636 1583.82 683.022 1584.28 686.164 1584.66 689.064 1586.97 685.737 1588.92 682.481 1590.52 679.297 1592.13 676.113 1593.28 673.344 1593.98 670.992 1594.68 668.639 1595.03 666.726 1595.03 665.253 1595.03 664.136 1594.8 663.376 1594.32 662.972 1593.85 662.568 1593.04 662.33 1591.9 662.259L1592.25 660.512 1601.63 660.512 1602.59 662.294C1600.78 667.237 1598.34 672.524 1595.25 678.156 1592.21 683.669 1588.72 689.159 1584.8 694.624 1581.05 699.828 1577.92 703.595 1575.43 705.923 1573.69 707.516 1572.02 708.656 1570.4 709.345 1569.12 709.868 1567.75 710.129 1566.3 710.129 1565.81 710.129 1565.23 710.088 1564.58 710.005 1563.92 709.922 1563.42 709.809 1563.06 709.666L1564.59 702.751 1567.41 702.751C1567.41 704.272 1567.93 705.032 1568.98 705.032 1570.36 705.032 1571.96 704.171 1573.79 702.448 1575.62 700.725 1577.77 698.129 1580.24 694.66 1579.55 690.501 1578.61 685.487 1577.43 679.618 1576.17 673.344 1575.33 669.459 1574.93 667.962 1574.43 666.156 1573.91 665.003 1573.36 664.504 1573.03 664.196 1572.61 664.041 1572.11 664.041 1571.35 664.041 1570.64 664.35 1569.98 664.968 1569.31 665.586 1568.49 666.655 1567.52 668.176L1565.2 666.643C1566.84 664.196 1568.37 662.467 1569.8 661.457 1571.22 660.447 1572.82 659.942 1574.57 659.942Z" fill-rule="evenodd"/><text fill="#000000" fill-opacity="0" font-family="Arial,Arial_MSFontService,sans-serif" font-size="50.1875" x="1563.06" y="703.856">𝑦</text><path d="M1617.61 676.221 1619.19 676.221C1619.15 677.17 1619.13 678.02 1619.11 678.77 1619.09 679.521 1619.08 680.25 1619.07 680.957 1619.06 681.664 1619.06 682.363 1619.06 683.053L1619.06 702.721C1619.06 703.256 1619.08 703.717 1619.11 704.106 1619.15 704.494 1619.2 704.822 1619.28 705.089 1619.36 705.356 1619.46 705.585 1619.59 705.775 1619.72 705.964 1619.87 706.128 1620.04 706.266 1620.25 706.473 1620.53 706.633 1620.87 706.745 1621.22 706.857 1621.66 706.952 1622.19 707.03 1622.73 707.107 1623.37 707.168 1624.12 707.211 1624.87 707.254 1625.77 707.284 1626.82 707.302L1626.82 709.553 1606.3 709.553 1606.3 707.302C1607.32 707.267 1608.18 707.228 1608.89 707.185 1609.6 707.142 1610.2 707.082 1610.7 707.004 1611.2 706.926 1611.6 706.84 1611.9 706.745 1612.21 706.65 1612.47 706.534 1612.69 706.396 1612.94 706.241 1613.14 706.072 1613.31 705.891 1613.49 705.71 1613.63 705.481 1613.73 705.205 1613.83 704.929 1613.91 704.593 1613.97 704.196 1614.04 703.799 1614.07 703.308 1614.07 702.721L1614.07 684.166C1614.07 683.493 1613.94 683.019 1613.68 682.742 1613.42 682.466 1613.05 682.328 1612.56 682.328 1612.03 682.328 1611.24 682.604 1610.18 683.157 1609.13 683.709 1607.77 684.528 1606.09 685.615 1605.87 685.218 1605.66 684.821 1605.47 684.425 1605.28 684.028 1605.09 683.622 1604.88 683.208 1607.02 682.035 1609.14 680.866 1611.23 679.702 1613.33 678.537 1615.45 677.377 1617.61 676.221Z" fill-rule="evenodd"/><text fill="#000000" fill-opacity="0" font-family="Arial,Arial_MSFontService,sans-serif" font-size="33.332" x="1604.88" y="705.387">1</text><path d="M1645.89 659.942C1646.86 659.942 1647.7 660.073 1648.39 660.334 1648.86 660.524 1649.34 660.839 1649.81 661.279 1650.29 661.718 1650.71 662.33 1651.08 663.114 1651.45 663.898 1651.77 664.778 1652.04 665.752 1652.31 666.726 1652.62 668.128 1652.95 669.958 1653.52 673.023 1654.07 676.249 1654.61 679.636 1655.14 683.022 1655.6 686.164 1655.98 689.064 1658.28 685.737 1660.24 682.481 1661.84 679.297 1663.45 676.113 1664.6 673.344 1665.3 670.992 1666 668.639 1666.35 666.726 1666.35 665.253 1666.35 664.136 1666.11 663.376 1665.64 662.972 1665.16 662.568 1664.35 662.33 1663.21 662.259L1663.57 660.512 1672.94 660.512 1673.91 662.294C1672.1 667.237 1669.65 672.524 1666.56 678.156 1663.52 683.669 1660.04 689.159 1656.12 694.624 1652.37 699.828 1649.24 703.595 1646.75 705.923 1645.01 707.516 1643.34 708.656 1641.72 709.345 1640.44 709.868 1639.07 710.129 1637.62 710.129 1637.12 710.129 1636.55 710.088 1635.89 710.005 1635.24 709.922 1634.73 709.809 1634.38 709.666L1635.91 702.751 1638.73 702.751C1638.73 704.272 1639.25 705.032 1640.29 705.032 1641.67 705.032 1643.28 704.171 1645.11 702.448 1646.94 700.725 1649.09 698.129 1651.56 694.66 1650.87 690.501 1649.93 685.487 1648.74 679.618 1647.48 673.344 1646.65 669.459 1646.25 667.962 1645.75 666.156 1645.23 665.003 1644.68 664.504 1644.35 664.196 1643.93 664.041 1643.43 664.041 1642.67 664.041 1641.96 664.35 1641.29 664.968 1640.63 665.586 1639.81 666.655 1638.83 668.176L1636.52 666.643C1638.16 664.196 1639.69 662.467 1641.11 661.457 1642.54 660.447 1644.13 659.942 1645.89 659.942Z" fill-rule="evenodd"/><text fill="#000000" fill-opacity="0" font-family="Arial,Arial_MSFontService,sans-serif" font-size="50.1875" x="1634.38" y="703.856">𝑦</text><path d="M1688.6 676.04C1690.4 676.04 1691.93 676.243 1693.2 676.648 1694.47 677.053 1695.5 677.601 1696.29 678.291 1697.08 678.981 1697.66 679.81 1698.01 680.776 1698.37 681.742 1698.54 682.786 1698.54 683.907 1698.54 684.58 1698.49 685.205 1698.4 685.783 1698.3 686.361 1698.14 686.931 1697.91 687.491 1697.68 688.052 1697.37 688.617 1696.99 689.186 1696.61 689.756 1696.14 690.359 1695.57 690.998 1695.13 691.55 1694.57 692.188 1693.88 692.913 1693.19 693.638 1692.44 694.414 1691.62 695.242 1690.8 696.07 1689.94 696.933 1689.04 697.83 1688.15 698.727 1687.28 699.616 1686.43 700.495 1685.59 701.375 1684.81 702.229 1684.1 703.057 1683.39 703.886 1682.82 704.645 1682.37 705.335L1691.94 705.335C1692.75 705.335 1693.4 705.305 1693.88 705.244 1694.37 705.184 1694.77 705.05 1695.09 704.843 1695.41 704.636 1695.68 704.321 1695.9 703.898 1696.13 703.476 1696.39 702.894 1696.68 702.152L1699.09 702.152C1699 703.377 1698.92 704.61 1698.84 705.852 1698.76 707.095 1698.68 708.328 1698.59 709.553L1676.67 709.553 1676.67 708.207C1677.09 707.276 1677.57 706.357 1678.12 705.451 1678.68 704.545 1679.3 703.627 1679.99 702.695 1680.68 701.763 1681.46 700.802 1682.34 699.81 1683.22 698.818 1684.2 697.787 1685.27 696.717 1686.89 695.095 1688.21 693.711 1689.23 692.564 1690.24 691.416 1691.05 690.394 1691.63 689.497 1692.22 688.6 1692.62 687.772 1692.84 687.013 1693.05 686.253 1693.16 685.443 1693.16 684.58 1693.16 683.7 1693.03 682.889 1692.78 682.147 1692.53 681.405 1692.18 680.776 1691.71 680.258 1691.24 679.741 1690.65 679.335 1689.94 679.042 1689.22 678.749 1688.4 678.602 1687.47 678.602 1685.86 678.602 1684.52 679.037 1683.43 679.909 1682.34 680.78 1681.5 682.044 1680.89 683.7L1677.5 683.7 1677.5 678.654C1679.71 677.739 1681.74 677.075 1683.6 676.661 1685.45 676.247 1687.12 676.04 1688.6 676.04Z" fill-rule="evenodd"/><text fill="#000000" fill-opacity="0" font-family="Arial,Arial_MSFontService,sans-serif" font-size="33.5132" x="1676.67" y="705.364">2</text><path d="M1748.17 650.817 1753.23 650.817 1753.23 671.348 1772.66 671.348 1772.66 676.089 1753.23 676.089 1753.23 696.62 1748.17 696.62 1748.17 676.089 1728.75 676.089 1728.75 671.348 1748.17 671.348Z" fill-rule="evenodd"/><text fill="#000000" fill-opacity="0" font-family="Arial,Arial_MSFontService,sans-serif" font-size="45.8032" x="1728.75" y="690.895">+</text><path d="M1803.1 660.512 1828.45 660.512 1829.12 662.294 1812.12 681.828C1808.82 685.606 1805.96 688.814 1803.53 691.452L1803.75 691.701 1811.8 691.701C1813.23 691.701 1814.32 691.624 1815.08 691.47 1815.84 691.315 1816.51 691.024 1817.08 690.596 1817.65 690.169 1818.24 689.521 1818.84 688.654 1819.45 687.786 1820.2 686.426 1821.1 684.572L1824.28 684.572 1822.1 694.588 1796.3 694.588 1795.62 692.842 1815.12 670.386C1817.87 667.225 1819.89 664.98 1821.18 663.649L1820.96 663.399 1812.62 663.399C1811.39 663.399 1810.48 663.483 1809.91 663.649 1809.34 663.815 1808.77 664.106 1808.2 664.522 1807.63 664.938 1807.02 665.556 1806.37 666.376 1805.71 667.196 1804.98 668.366 1804.17 669.887L1801 669.887Z" fill-rule="evenodd"/><text fill="#000000" fill-opacity="0" font-family="Arial,Arial_MSFontService,sans-serif" font-size="34.0762" x="1795.62" y="690.329">𝑧</text><path d="M1844.23 676.221 1845.81 676.221C1845.78 677.17 1845.75 678.02 1845.73 678.77 1845.72 679.521 1845.7 680.25 1845.7 680.957 1845.69 681.664 1845.68 682.363 1845.68 683.053L1845.68 702.721C1845.68 703.256 1845.7 703.717 1845.73 704.106 1845.77 704.494 1845.83 704.822 1845.9 705.089 1845.98 705.356 1846.08 705.585 1846.21 705.775 1846.34 705.964 1846.49 706.128 1846.67 706.266 1846.87 706.473 1847.15 706.633 1847.49 706.745 1847.84 706.857 1848.28 706.952 1848.81 707.03 1849.35 707.107 1849.99 707.168 1850.74 707.211 1851.49 707.254 1852.39 707.284 1853.45 707.302L1853.45 709.553 1832.92 709.553 1832.92 707.302C1833.94 707.267 1834.81 707.228 1835.51 707.185 1836.22 707.142 1836.82 707.082 1837.32 707.004 1837.82 706.926 1838.23 706.84 1838.53 706.745 1838.83 706.65 1839.09 706.534 1839.32 706.396 1839.56 706.241 1839.77 706.072 1839.94 705.891 1840.11 705.71 1840.25 705.481 1840.35 705.205 1840.46 704.929 1840.54 704.593 1840.6 704.196 1840.66 703.799 1840.69 703.308 1840.69 702.721L1840.69 684.166C1840.69 683.493 1840.56 683.019 1840.3 682.742 1840.04 682.466 1839.67 682.328 1839.19 682.328 1838.65 682.328 1837.86 682.604 1836.81 683.157 1835.75 683.709 1834.39 684.528 1832.72 685.615 1832.49 685.218 1832.29 684.821 1832.1 684.425 1831.91 684.028 1831.71 683.622 1831.5 683.208 1833.64 682.035 1835.76 680.866 1837.85 679.702 1839.95 678.537 1842.08 677.377 1844.23 676.221Z" fill-rule="evenodd"/><text fill="#000000" fill-opacity="0" font-family="Arial,Arial_MSFontService,sans-serif" font-size="33.332" x="1831.5" y="705.387">1</text><path d="M1869.13 660.512 1894.47 660.512 1895.15 662.294 1878.15 681.828C1874.84 685.606 1871.98 688.814 1869.55 691.452L1869.77 691.701 1877.82 691.701C1879.25 691.701 1880.34 691.624 1881.1 691.47 1881.86 691.315 1882.53 691.024 1883.1 690.596 1883.67 690.169 1884.26 689.521 1884.86 688.654 1885.47 687.786 1886.22 686.426 1887.13 684.572L1890.3 684.572 1888.13 694.588 1862.32 694.588 1861.64 692.842 1881.14 670.386C1883.9 667.225 1885.92 664.98 1887.2 663.649L1886.99 663.399 1878.64 663.399C1877.41 663.399 1876.51 663.483 1875.94 663.649 1875.36 663.815 1874.79 664.106 1874.22 664.522 1873.65 664.938 1873.04 665.556 1872.39 666.376 1871.74 667.196 1871 668.366 1870.2 669.887L1867.02 669.887Z" fill-rule="evenodd"/><text fill="#000000" fill-opacity="0" font-family="Arial,Arial_MSFontService,sans-serif" font-size="34.0762" x="1861.64" y="690.329">𝑧</text><path d="M1909.93 676.04C1911.73 676.04 1913.26 676.243 1914.53 676.648 1915.8 677.053 1916.83 677.601 1917.62 678.291 1918.41 678.981 1918.99 679.81 1919.34 680.776 1919.69 681.742 1919.87 682.786 1919.87 683.907 1919.87 684.58 1919.82 685.205 1919.73 685.783 1919.63 686.361 1919.47 686.931 1919.24 687.491 1919 688.052 1918.7 688.617 1918.32 689.186 1917.94 689.756 1917.46 690.359 1916.9 690.998 1916.46 691.55 1915.9 692.188 1915.21 692.913 1914.52 693.638 1913.77 694.414 1912.95 695.242 1912.13 696.07 1911.27 696.933 1910.37 697.83 1909.48 698.727 1908.61 699.616 1907.76 700.495 1906.91 701.375 1906.14 702.229 1905.43 703.057 1904.72 703.886 1904.15 704.645 1903.7 705.335L1913.27 705.335C1914.08 705.335 1914.73 705.305 1915.21 705.244 1915.7 705.184 1916.1 705.05 1916.42 704.843 1916.74 704.636 1917.01 704.321 1917.23 703.898 1917.46 703.476 1917.71 702.894 1918.01 702.152L1920.41 702.152C1920.33 703.377 1920.25 704.61 1920.17 705.852 1920.09 707.095 1920.01 708.328 1919.92 709.553L1898 709.553 1898 708.207C1898.42 707.276 1898.9 706.357 1899.45 705.451 1900.01 704.545 1900.63 703.627 1901.32 702.695 1902.01 701.763 1902.79 700.802 1903.67 699.81 1904.55 698.818 1905.53 697.787 1906.6 696.717 1908.22 695.095 1909.54 693.711 1910.55 692.564 1911.57 691.416 1912.38 690.394 1912.96 689.497 1913.55 688.6 1913.95 687.772 1914.17 687.013 1914.38 686.253 1914.49 685.443 1914.49 684.58 1914.49 683.7 1914.36 682.889 1914.11 682.147 1913.86 681.405 1913.51 680.776 1913.04 680.258 1912.57 679.741 1911.98 679.335 1911.27 679.042 1910.55 678.749 1909.73 678.602 1908.8 678.602 1907.19 678.602 1905.84 679.037 1904.76 679.909 1903.67 680.78 1902.83 682.044 1902.22 683.7L1898.83 683.7 1898.83 678.654C1901.04 677.739 1903.07 677.075 1904.93 676.661 1906.78 676.247 1908.45 676.04 1909.93 676.04Z" fill-rule="evenodd"/><text fill="#000000" fill-opacity="0" font-family="Arial,Arial_MSFontService,sans-serif" font-size="33.5132" x="1898" y="705.364">2</text></g></svg>