<svg width="3992" height="2359" xmlns="http://www.w3.org/2000/svg" xmlns:xlink="http://www.w3.org/1999/xlink" overflow="hidden"><defs><clipPath id="clip0"><rect x="191" y="70" width="3992" height="2359"/></clipPath></defs><g clip-path="url(#clip0)" transform="translate(-191 -70)"><path d="M651.938 730.416 651.938 2006.71 645.063 2006.71 645.063 730.416ZM625.583 735 648.5 707.5 671.417 735Z"/><text fill="#FF0000" font-family="Arial,Arial_MSFontService,sans-serif" font-weight="400" font-size="147" transform="matrix(1 0 0 1 610.418 619)">y<tspan fill="#0000CC" font-size="147" x="915.751" y="1073">x</tspan><tspan fill="#7030A0" font-size="147" x="671.587" y="281">z</tspan></text><path d="M1237.26 940.364 434.056 1932.23 428.713 1927.91 1231.91 936.037ZM1213.89 927.341 1249.01 920.392 1249.51 956.185Z"/><path d="M2692.88 282.375 2692.88 1027.53 2679.13 1027.53 2679.12 282.375ZM2651.62 289.25 2686 248 2720.38 289.25Z"/><path d="M2297 631.125 3042.15 631.125 3042.15 644.875 2297 644.875ZM3035.28 603.625 3076.53 638 3035.28 672.375Z"/><text fill="#7030A0" font-family="Arial,Arial_MSFontService,sans-serif" font-weight="400" font-size="110" transform="matrix(1 0 0 1 2755.91 317)">z<tspan fill="#0000CC" font-size="110" x="278.868" y="466">x</tspan><tspan fill="#000000" font-family="Calibri,Calibri_MSFontService,sans-serif" font-size="83" x="-94.6802" y="-122">0</tspan><tspan fill="#000000" font-family="PMingLiU,PMingLiU_MSFontService,sans-serif" font-size="83" x="-52.8572" y="-122">°</tspan><tspan fill="#000000" font-family="Calibri,Calibri_MSFontService,sans-serif" font-size="83" x="-589.991" y="346">90</tspan><tspan fill="#000000" font-family="PMingLiU,PMingLiU_MSFontService,sans-serif" font-size="83" x="-506.345" y="346">°</tspan><tspan fill="#000000" font-family="Calibri,Calibri_MSFontService,sans-serif" font-size="83" x="-143.24" y="822">180</tspan><tspan fill="#000000" font-family="PMingLiU,PMingLiU_MSFontService,sans-serif" font-size="83" x="-17.771" y="822">°</tspan><tspan fill="#000000" font-family="Calibri,Calibri_MSFontService,sans-serif" font-size="83" x="353.318" y="349">270</tspan><tspan fill="#000000" font-family="PMingLiU,PMingLiU_MSFontService,sans-serif" font-size="83" x="478.786" y="349">°</tspan></text><path d="M1470.8 1658.94 194.5 1658.94 194.5 1652.06 1470.8 1652.06ZM1466.21 1632.58 1493.71 1655.5 1466.21 1678.42Z"/><path d="M3654.87 282.375 3654.88 1027.53 3641.12 1027.53 3641.12 282.375ZM3613.62 289.25 3648 248 3682.37 289.25Z"/><path d="M3648 631.125 4003.39 631.125 4003.39 644.875 3648 644.875ZM3996.51 603.625 4037.76 638 3996.51 672.375Z"/><text fill="#FF0000" font-family="Arial,Arial_MSFontService,sans-serif" font-weight="400" font-size="110" transform="matrix(1 0 0 1 3717.67 294)">y<tspan fill="#000000" font-size="110" x="223.915" y="501">xz</tspan><tspan fill="#000000" font-family="Calibri,Calibri_MSFontService,sans-serif" font-size="83" x="-134.851" y="-85">-</tspan><tspan fill="#000000" font-family="Calibri,Calibri_MSFontService,sans-serif" font-size="83" x="-109.643" y="-85">90</tspan><tspan fill="#000000" font-family="PMingLiU,PMingLiU_MSFontService,sans-serif" font-size="83" x="-25.9968" y="-85">°</tspan><tspan fill="#000000" font-family="Calibri,Calibri_MSFontService,sans-serif" font-size="83" x="-116.287" y="845">90</tspan><tspan fill="#000000" font-family="PMingLiU,PMingLiU_MSFontService,sans-serif" font-size="83" x="-32.6416" y="845">°</tspan><tspan fill="#000000" font-family="Calibri,Calibri_MSFontService,sans-serif" font-size="83" x="353.318" y="372">0</tspan><tspan fill="#000000" font-family="PMingLiU,PMingLiU_MSFontService,sans-serif" font-size="83" x="395.14" y="372">°</tspan></text><path d="M2692.88 1501.38 2692.88 2246.53 2679.13 2246.53 2679.12 1501.38ZM2651.62 1508.25 2686 1467 2720.38 1508.25Z"/><path d="M2297 1850.12 3042.15 1850.13 3042.15 1863.88 2297 1863.87ZM3035.28 1822.63 3076.53 1857 3035.28 1891.38Z"/><text fill="#0000CC" font-family="Arial,Arial_MSFontService,sans-serif" font-weight="400" font-size="110" transform="matrix(1 0 0 1 2755.91 1536)">-<tspan font-size="110" x="36.6668" y="0">x</tspan><tspan fill="#7030A0" font-size="110" x="267.39" y="466">z</tspan><tspan fill="#000000" font-family="Calibri,Calibri_MSFontService,sans-serif" font-size="83" x="-110.64" y="-122">90</tspan><tspan fill="#000000" font-family="PMingLiU,PMingLiU_MSFontService,sans-serif" font-size="83" x="-26.9946" y="-122">°</tspan><tspan fill="#000000" font-family="Calibri,Calibri_MSFontService,sans-serif" font-size="83" x="-624.116" y="345">180</tspan><tspan fill="#000000" font-family="PMingLiU,PMingLiU_MSFontService,sans-serif" font-size="83" x="-498.648" y="345">°</tspan><tspan fill="#000000" font-family="Calibri,Calibri_MSFontService,sans-serif" font-size="83" x="-143.239" y="808">270</tspan><tspan fill="#000000" font-family="PMingLiU,PMingLiU_MSFontService,sans-serif" font-size="83" x="-17.7705" y="808">°</tspan><tspan fill="#000000" font-family="Calibri,Calibri_MSFontService,sans-serif" font-size="83" x="353.318" y="349">0</tspan><tspan fill="#000000" font-family="PMingLiU,PMingLiU_MSFontService,sans-serif" font-size="83" x="395.141" y="349">°</tspan></text><path d="M3654.87 1501.38 3654.88 2246.53 3641.12 2246.53 3641.12 1501.38ZM3613.62 1508.25 3648 1467 3682.37 1508.25Z"/><path d="M3648 1850.12 4003.39 1850.13 4003.39 1863.88 3648 1863.87ZM3996.51 1822.63 4037.76 1857 3996.51 1891.38Z"/><text fill="#FF0000" font-family="Arial,Arial_MSFontService,sans-serif" font-weight="400" font-size="110" transform="matrix(1 0 0 1 3717.67 1513)">-<tspan font-size="110" x="36.6665" y="0">y</tspan><tspan fill="#000000" font-size="110" x="223.916" y="501">xz</tspan><tspan fill="#000000" font-family="Calibri,Calibri_MSFontService,sans-serif" font-size="83" x="-111.998" y="-85">90</tspan><tspan fill="#000000" font-family="PMingLiU,PMingLiU_MSFontService,sans-serif" font-size="83" x="-28.3518" y="-85">°</tspan><tspan fill="#000000" font-family="Calibri,Calibri_MSFontService,sans-serif" font-size="83" x="-136.996" y="844">-</tspan><tspan fill="#000000" font-family="Calibri,Calibri_MSFontService,sans-serif" font-size="83" x="-111.787" y="844">90</tspan><tspan fill="#000000" font-family="PMingLiU,PMingLiU_MSFontService,sans-serif" font-size="83" x="-28.1414" y="844">°</tspan><tspan fill="#000000" font-family="Calibri,Calibri_MSFontService,sans-serif" font-size="83" x="353.318" y="372">0</tspan><tspan fill="#000000" font-family="PMingLiU,PMingLiU_MSFontService,sans-serif" font-size="83" x="395.141" y="372">°</tspan></text><rect x="2099.5" y="101.5" width="2068" height="1076" stroke="#000000" stroke-width="4.58333" stroke-miterlimit="8" fill="none"/><path d="M3413 101 3413 1177.53" stroke="#000000" stroke-width="2.29167" stroke-miterlimit="8" fill="none" fill-rule="evenodd"/><rect x="2099.5" y="1313.5" width="2068" height="1076" stroke="#000000" stroke-width="4.58333" stroke-miterlimit="8" fill="none"/><path d="M3413 1313 3413 2389.53" stroke="#000000" stroke-width="2.29167" stroke-miterlimit="8" fill="none" fill-rule="evenodd"/><path d="M3146 1341 3165 1341 3165 1144 3203 1144 3203 1341 3222 1341 3184 1379Z" stroke="#000000" stroke-width="10.3125" stroke-miterlimit="8" fill="#FFFFFF" fill-rule="evenodd"/><text fill="#0000CC" font-family="Arial,Arial_MSFontService,sans-serif" font-weight="400" font-size="110" transform="matrix(1 0 0 1 2143.87 211)">rx<tspan fill="#FF0000" font-size="110" x="1876.68" y="0">ry</tspan><tspan font-size="110" x="0" y="1215">rx</tspan><tspan fill="#FF0000" font-size="110" x="1876.68" y="1215">ry</tspan></text></g></svg>