<svg width="2550" height="597" xmlns="http://www.w3.org/2000/svg" xmlns:xlink="http://www.w3.org/1999/xlink" overflow="hidden"><defs><clipPath id="clip0"><rect x="282" y="279" width="2550" height="597"/></clipPath></defs><g clip-path="url(#clip0)" transform="translate(-282 -279)"><path d="M353.521 756.52 340.832 778.976 354.769 778.976 354.163 767.498C354.091 765.93 354.032 763.97 353.984 761.617 353.937 759.265 353.913 757.566 353.913 756.52ZM353.735 748.999 359.117 748.999 361.684 788.743C361.802 790.62 362.016 792.087 362.325 793.145 362.634 794.202 363.056 794.986 363.591 795.497 364.125 796.008 364.903 796.335 365.925 796.477L365.533 798.224 350.705 798.224 351.097 796.477C352.499 796.359 353.545 795.812 354.234 794.838 354.923 793.864 355.268 792.153 355.268 789.705 355.268 788.778 355.232 787.768 355.161 786.675L354.911 782.077 339.228 782.077 337.267 785.57C336.34 787.21 335.663 788.618 335.235 789.794 334.808 790.97 334.594 792.01 334.594 792.913 334.594 794.909 335.794 796.097 338.194 796.477L337.802 798.224 323.223 798.224 323.615 796.477C324.352 796.382 325.047 796.091 325.7 795.604 326.354 795.117 327.049 794.38 327.786 793.394 328.522 792.408 329.556 790.774 330.887 788.493Z" fill-rule="evenodd"/><text fill="#000000" fill-opacity="0" font-family="Arial,Arial_MSFontService,sans-serif" font-size="49.2251" x="323.223" y="792.071">𝐴</text><path d="M874.121 341.175 869.701 361.599C871.15 361.694 872.933 361.742 875.048 361.742 878.66 361.742 881.374 361.332 883.192 360.512 885.01 359.692 886.573 358.237 887.88 356.146 889.187 354.055 889.84 351.476 889.84 348.411 889.84 346.011 889.05 344.205 887.47 342.993 885.889 341.781 883.531 341.175 880.394 341.175ZM884.672 319.361C882.604 319.361 880.679 319.396 878.897 319.467L874.869 338.038 879.895 338.038C882.699 338.038 884.927 337.813 886.579 337.361 888.23 336.91 889.686 336.102 890.945 334.937 892.204 333.773 893.119 332.496 893.69 331.105 894.26 329.715 894.545 328.105 894.545 326.276 894.545 325.254 894.367 324.297 894.01 323.406 893.654 322.515 893.042 321.755 892.175 321.125 891.307 320.495 890.309 320.044 889.181 319.77 888.052 319.497 886.549 319.361 884.672 319.361ZM868.667 316.224 886.311 316.224C889.876 316.224 892.733 316.598 894.884 317.347 897.034 318.095 898.615 319.194 899.624 320.644 900.634 322.093 901.139 323.911 901.139 326.097 901.139 329.21 900.189 331.925 898.288 334.242 896.387 336.559 893.559 338.335 889.804 339.571L889.733 339.963C891.943 340.842 893.642 342.096 894.83 343.724 896.018 345.351 896.612 347.199 896.612 349.266 896.612 352.427 895.888 355.13 894.438 357.375 892.989 359.621 890.814 361.433 887.915 362.811 885.016 364.189 880.774 364.879 875.19 364.879L859.328 364.879 859.72 363.132C860.623 362.989 861.301 362.758 861.752 362.437 862.204 362.116 862.584 361.671 862.893 361.1 863.202 360.53 863.487 359.835 863.748 359.015 864.01 358.195 864.402 356.609 864.924 354.257L870.984 326.81C871.507 324.434 871.768 322.557 871.768 321.178 871.768 320.014 871.495 319.206 870.948 318.755 870.402 318.303 869.511 318.042 868.275 317.97Z" fill-rule="evenodd"/><text fill="#000000" fill-opacity="0" font-family="Arial,Arial_MSFontService,sans-serif" font-size="48.6548" x="859.328" y="358.797">𝐵</text><path d="M1031.47 744.092C1033.63 744.092 1035.63 744.222 1037.47 744.484 1039.31 744.745 1041.36 745.22 1043.62 745.909L1041.48 755.569 1038.06 755.569C1037.87 752.646 1037.23 750.537 1036.15 749.242 1035.07 747.947 1033.33 747.3 1030.93 747.3 1027.65 747.3 1024.6 748.939 1021.79 752.219 1018.97 755.498 1016.74 759.829 1015.1 765.211 1013.47 770.593 1012.65 775.589 1012.65 780.199 1012.65 783.811 1013.29 786.473 1014.57 788.184 1015.85 789.895 1017.83 790.75 1020.49 790.75 1022.27 790.75 1023.83 790.483 1025.16 789.948 1026.49 789.414 1027.73 788.511 1028.9 787.239 1030.06 785.968 1031.22 784.192 1032.36 781.91L1035.78 781.91 1033.6 792.033C1029.16 793.269 1024.5 793.887 1019.63 793.887 1015.16 793.887 1011.77 792.604 1009.44 790.037 1007.11 787.471 1005.94 783.716 1005.94 778.774 1005.94 775.281 1006.57 771.253 1007.82 766.69 1009.06 762.128 1010.83 758.124 1013.11 754.678 1015.39 751.232 1018.09 748.607 1021.2 746.801 1024.31 744.995 1027.73 744.092 1031.47 744.092Z" fill-rule="evenodd"/><text fill="#000000" fill-opacity="0" font-family="Arial,Arial_MSFontService,sans-serif" font-size="49.7954" x="1005.94" y="787.663">𝐶</text><path d="M399.5 750.5 868.325 395.5 982.5 750.5Z" stroke="#000000" stroke-width="6.875" stroke-miterlimit="8" fill="#D9D9D9" fill-rule="evenodd"/><path d="M588.674 539.473 584.254 559.898C585.703 559.993 587.485 560.04 589.6 560.04 593.212 560.04 595.927 559.63 597.745 558.811 599.563 557.991 601.125 556.535 602.432 554.444 603.739 552.353 604.393 549.775 604.393 546.709 604.393 544.309 603.603 542.503 602.023 541.291 600.442 540.079 598.084 539.473 594.947 539.473ZM555.684 521.473 542.994 543.929 556.931 543.929 556.326 532.451C556.254 530.883 556.195 528.923 556.147 526.57 556.1 524.218 556.076 522.519 556.076 521.473ZM599.224 517.659C597.157 517.659 595.232 517.695 593.45 517.766L589.422 536.337 594.448 536.337C597.252 536.337 599.48 536.111 601.131 535.659 602.783 535.208 604.238 534.4 605.498 533.236 606.757 532.071 607.672 530.794 608.242 529.404 608.813 528.014 609.098 526.404 609.098 524.574 609.098 523.552 608.92 522.596 608.563 521.705 608.207 520.814 607.595 520.053 606.728 519.423 605.86 518.794 604.862 518.342 603.733 518.069 602.605 517.796 601.102 517.659 599.224 517.659ZM583.22 514.522 600.864 514.522C604.429 514.522 607.286 514.897 609.437 515.645 611.587 516.394 613.167 517.493 614.177 518.942 615.187 520.392 615.692 522.21 615.692 524.396 615.692 527.509 614.742 530.224 612.841 532.541 610.94 534.857 608.112 536.634 604.357 537.869L604.286 538.262C606.496 539.141 608.195 540.394 609.383 542.022 610.571 543.65 611.165 545.497 611.165 547.565 611.165 550.725 610.441 553.428 608.991 555.674 607.542 557.919 605.367 559.731 602.468 561.11 599.569 562.488 595.327 563.177 589.743 563.177L573.881 563.177 574.273 561.43C575.176 561.288 575.854 561.056 576.305 560.735 576.756 560.415 577.137 559.969 577.446 559.399 577.755 558.828 578.04 558.133 578.301 557.314 578.562 556.494 578.955 554.908 579.477 552.555L585.537 525.109C586.06 522.732 586.321 520.855 586.321 519.477 586.321 518.312 586.048 517.505 585.501 517.053 584.955 516.602 584.064 516.34 582.828 516.269ZM555.898 513.952 561.28 513.952 563.846 553.696C563.965 555.573 564.179 557.04 564.488 558.098 564.797 559.155 565.219 559.939 565.753 560.45 566.288 560.961 567.066 561.288 568.088 561.43L567.696 563.177 552.868 563.177 553.26 561.43C554.662 561.312 555.708 560.765 556.397 559.791 557.086 558.817 557.43 557.106 557.43 554.658 557.43 553.731 557.395 552.721 557.324 551.628L557.074 547.03 541.39 547.03 539.43 550.523C538.503 552.163 537.826 553.571 537.398 554.747 536.971 555.923 536.757 556.963 536.757 557.866 536.757 559.862 537.957 561.05 540.357 561.43L539.965 563.177 525.386 563.177 525.778 561.43C526.515 561.335 527.21 561.044 527.863 560.557 528.517 560.07 529.212 559.333 529.949 558.347 530.685 557.361 531.719 555.727 533.05 553.446Z" fill-rule="evenodd"/><text fill="#000000" fill-opacity="0" font-family="Arial,Arial_MSFontService,sans-serif" font-size="49.2251" x="525.386" y="557.024">𝐴𝐵</text><path d="M611.268 491.212 620.215 498.947 620.215 501.014 611.268 508.749 609.379 506.61 615.082 501.656 600.38 501.656 593.339 501.656 587.111 501.656 578.993 501.656 573.842 501.656 565.724 501.656 560.551 501.656 552.456 501.656 547.259 501.656 539.164 501.656 525.872 501.656 525.872 498.305 539.164 498.305 547.259 498.305 552.456 498.305 560.551 498.305 565.724 498.305 573.842 498.305 578.993 498.305 587.111 498.305 593.339 498.305 600.38 498.305 615.082 498.305 609.379 493.35Z" fill-rule="evenodd"/><path d="M703.098 798.648 690.409 821.104 704.346 821.104 703.74 809.627C703.669 808.059 703.609 806.098 703.562 803.746 703.514 801.393 703.49 799.694 703.49 798.648ZM749.597 791.127C751.76 791.127 753.762 791.258 755.603 791.519 757.445 791.781 759.495 792.256 761.752 792.945L759.613 802.605 756.192 802.605C756.001 799.682 755.366 797.573 754.285 796.278 753.203 794.983 751.463 794.335 749.063 794.335 745.783 794.335 742.736 795.975 739.92 799.254 737.104 802.534 734.876 806.864 733.237 812.247 731.597 817.629 730.777 822.625 730.777 827.235 730.777 830.847 731.419 833.509 732.702 835.22 733.985 836.931 735.957 837.786 738.619 837.786 740.401 837.786 741.958 837.519 743.288 836.984 744.619 836.449 745.867 835.546 747.031 834.275 748.195 833.004 749.348 831.227 750.488 828.946L753.91 828.946 751.736 839.069C747.292 840.305 742.635 840.923 737.763 840.923 733.296 840.923 729.898 839.64 727.569 837.073 725.24 834.507 724.076 830.752 724.076 825.81 724.076 822.316 724.7 818.289 725.947 813.726 727.195 809.164 728.959 805.159 731.24 801.714 733.522 798.268 736.219 795.642 739.332 793.836 742.445 792.03 745.867 791.127 749.597 791.127ZM703.312 791.127 708.695 791.127 711.261 830.871C711.38 832.748 711.594 834.216 711.903 835.273 712.211 836.331 712.633 837.115 713.168 837.626 713.703 838.137 714.481 838.463 715.503 838.606L715.111 840.352 700.282 840.352 700.674 838.606C702.077 838.487 703.122 837.941 703.811 836.966 704.5 835.992 704.845 834.281 704.845 831.833 704.845 830.907 704.809 829.897 704.738 828.804L704.488 824.206 688.805 824.206 686.844 827.699C685.918 829.338 685.24 830.746 684.813 831.923 684.385 833.099 684.171 834.138 684.171 835.041 684.171 837.038 685.371 838.226 687.771 838.606L687.379 840.352 672.8 840.352 673.193 838.606C673.929 838.511 674.624 838.22 675.278 837.733 675.931 837.245 676.626 836.509 677.363 835.523 678.1 834.536 679.133 832.903 680.464 830.622Z" fill-rule="evenodd"/><text fill="#000000" fill-opacity="0" font-family="Arial,Arial_MSFontService,sans-serif" font-size="49.7954" x="672.8" y="834.698">𝐴𝐶</text><path d="M754.099 768.387 763.046 776.122 763.046 778.19 754.099 785.924 752.21 783.786 757.913 778.831 743.211 778.831 736.17 778.831 731.088 778.831 721.824 778.831 718.965 778.831 709.701 778.831 706.819 778.831 697.578 778.831 694.673 778.831 685.433 778.831 673.287 778.831 673.287 775.481 685.433 775.481 694.673 775.481 697.578 775.481 706.819 775.481 709.701 775.481 718.965 775.481 721.824 775.481 731.088 775.481 736.17 775.481 743.211 775.481 757.913 775.481 752.21 770.526Z" fill-rule="evenodd"/><path d="M461.5 704C480.002 704 495 721.461 495 743 495 744.956 494.874 746.909 494.622 748.842" stroke="#000000" stroke-width="2.29167" stroke-miterlimit="8" fill="none" fill-rule="evenodd"/><path d="M527.812 709.164C526.695 714.32 526.137 718.657 526.137 722.174 526.137 724.836 526.541 726.79 527.349 728.038 528.157 729.285 529.464 729.909 531.27 729.909 533.931 729.909 536.456 728.121 538.844 724.544 541.232 720.968 543.258 715.841 544.922 709.164ZM542.426 685.139C539.646 685.139 537.074 686.898 534.709 690.415 532.345 693.932 530.331 698.97 528.668 705.528L545.741 705.528C546.858 700.514 547.417 696.201 547.417 692.589 547.417 690.094 547.013 688.229 546.205 686.993 545.397 685.757 544.137 685.139 542.426 685.139ZM542.854 682.252C549.745 682.252 553.191 686.625 553.191 695.369 553.191 697.841 552.912 700.793 552.353 704.227 551.795 707.661 550.91 711.16 549.698 714.724 548.486 718.289 546.953 721.443 545.1 724.188 543.246 726.933 541.108 729.054 538.684 730.551 536.26 732.048 533.646 732.796 530.842 732.796 527.301 732.796 524.664 731.715 522.929 729.553 521.194 727.39 520.327 724.146 520.327 719.822 520.327 717.469 520.588 714.57 521.111 711.124 521.634 707.679 522.495 704.156 523.695 700.556 524.895 696.956 526.44 693.76 528.329 690.967 530.218 688.175 532.392 686.025 534.852 684.516 537.311 683.007 539.979 682.252 542.854 682.252Z" fill-rule="evenodd"/><text fill="#000000" fill-opacity="0" font-family="Arial,Arial_MSFontService,sans-serif" font-size="50.5439" x="520.327" y="726.478">𝜃</text><path d="M866.5 395.5 866.5 750.25" stroke="#000000" stroke-width="6.875" stroke-miterlimit="8" fill="none" fill-rule="evenodd"/><rect x="828.5" y="711.5" width="39.0002" height="38.9998" stroke="#000000" stroke-width="4.58333" stroke-miterlimit="8" fill="none"/><path d="M818.19 571.048 820.329 571.048 820.329 593.576 820.471 593.611C822.325 591.734 823.792 590.421 824.873 589.672 825.955 588.924 827.024 588.36 828.081 587.979 829.139 587.599 830.273 587.409 831.485 587.409 832.792 587.409 833.957 587.564 834.979 587.872 836 588.181 836.897 588.651 837.67 589.28 838.442 589.91 839.072 590.682 839.559 591.597 840.046 592.512 840.408 593.605 840.646 594.877 840.884 596.148 841.003 597.758 841.003 599.706L841.003 613.144C841.003 615.212 841.092 616.62 841.27 617.368 841.448 618.117 841.769 618.699 842.232 619.115 842.696 619.531 843.628 619.929 845.03 620.309L845.03 622.056 830.986 622.056 830.986 620.309C831.913 620.024 832.578 619.774 832.982 619.56 833.386 619.347 833.725 619.049 833.998 618.669 834.272 618.289 834.485 617.701 834.64 616.905 834.794 616.109 834.872 614.903 834.872 613.287L834.872 603.948C834.872 600.788 834.711 598.37 834.39 596.694 834.07 595.019 833.44 593.766 832.501 592.934 831.563 592.102 830.25 591.686 828.563 591.686 827.612 591.686 826.757 591.853 825.996 592.185 825.236 592.518 824.357 593.112 823.358 593.968 822.36 594.823 821.606 595.702 821.095 596.605 820.584 597.508 820.329 598.471 820.329 599.493L820.329 613.144C820.329 614.76 820.37 615.913 820.453 616.602 820.537 617.291 820.697 617.867 820.935 618.331 821.172 618.794 821.535 619.174 822.022 619.471 822.509 619.768 823.263 620.048 824.285 620.309L824.285 622.056 810.17 622.056 810.17 620.309C811.216 620.024 811.964 619.751 812.416 619.489 812.867 619.228 813.218 618.895 813.467 618.491 813.717 618.087 813.901 617.505 814.02 616.745 814.138 615.984 814.198 614.784 814.198 613.144L814.198 583.31C814.198 581.029 814.18 579.437 814.144 578.534 814.109 577.631 814.014 576.864 813.859 576.234 813.705 575.605 813.491 575.112 813.218 574.755 812.944 574.399 812.576 574.114 812.113 573.9 811.649 573.686 810.812 573.472 809.6 573.258L809.6 571.405Z" fill-rule="evenodd"/><text fill="#000000" fill-opacity="0" font-family="Arial,Arial_MSFontService,sans-serif" font-size="51.0073" x="809.6" y="615.68">h</text><path d="M1131.99 486.591 1131.99 493.755 1154.09 493.755 1154.09 486.591ZM1128.03 483.026 1157.97 483.026 1157.97 497.284 1128.03 497.284ZM1115.63 474.4 1170.59 474.4 1170.59 499.031C1170.59 500.741 1170.15 502.12 1169.27 503.165 1168.39 504.211 1166.28 504.734 1162.93 504.734 1161.83 504.734 1160.5 504.698 1158.94 504.627L1157.69 500.848C1160.63 500.967 1162.61 501.027 1163.6 501.027 1165.74 501.027 1166.81 500.135 1166.81 498.353L1166.81 478.072 1119.37 478.072 1119.37 504.698 1115.63 504.698ZM1126.5 459.323 1126.5 465.952 1159.43 465.952 1159.43 459.323ZM1122.58 455.651 1163.46 455.651 1163.46 469.517 1122.58 469.517ZM1142.79 440.467C1143.62 442.13 1144.4 444.471 1145.14 447.489L1173.73 447.489 1173.73 450.982 1112.28 450.982 1112.28 447.489 1141.18 447.489C1140.99 446.087 1140.29 444.138 1139.08 441.643Z" fill-rule="evenodd"/><text fill="#000000" fill-opacity="0" font-family="Arial,Arial_MSFontService,sans-serif" font-size="64.2671" x="1112.28" y="496.7">高</text><path d="M1206.53 450.055 1208.67 450.055 1208.67 472.582 1208.82 472.618C1210.67 470.741 1212.14 469.428 1213.22 468.679 1214.3 467.931 1215.37 467.366 1216.43 466.986 1217.48 466.606 1218.62 466.416 1219.83 466.416 1221.14 466.416 1222.3 466.57 1223.32 466.879 1224.35 467.188 1225.24 467.657 1226.01 468.287 1226.79 468.917 1227.42 469.689 1227.9 470.604 1228.39 471.519 1228.75 472.612 1228.99 473.883 1229.23 475.155 1229.35 476.765 1229.35 478.713L1229.35 492.151C1229.35 494.219 1229.44 495.626 1229.61 496.375 1229.79 497.124 1230.11 497.706 1230.58 498.122 1231.04 498.537 1231.97 498.935 1233.38 499.316L1233.38 501.062 1219.33 501.062 1219.33 499.316C1220.26 499.031 1220.92 498.781 1221.33 498.567 1221.73 498.353 1222.07 498.056 1222.34 497.676 1222.62 497.296 1222.83 496.708 1222.98 495.912 1223.14 495.116 1223.22 493.91 1223.22 492.294L1223.22 482.955C1223.22 479.794 1223.06 477.376 1222.74 475.701 1222.41 474.026 1221.78 472.772 1220.85 471.941 1219.91 471.109 1218.59 470.693 1216.91 470.693 1215.96 470.693 1215.1 470.859 1214.34 471.192 1213.58 471.525 1212.7 472.119 1211.7 472.974 1210.71 473.83 1209.95 474.709 1209.44 475.612 1208.93 476.515 1208.67 477.477 1208.67 478.499L1208.67 492.151C1208.67 493.767 1208.71 494.92 1208.8 495.609 1208.88 496.298 1209.04 496.874 1209.28 497.337 1209.52 497.801 1209.88 498.181 1210.37 498.478 1210.85 498.775 1211.61 499.054 1212.63 499.316L1212.63 501.062 1198.51 501.062 1198.51 499.316C1199.56 499.031 1200.31 498.757 1200.76 498.496 1201.21 498.234 1201.56 497.902 1201.81 497.498 1202.06 497.094 1202.25 496.512 1202.36 495.751 1202.48 494.991 1202.54 493.791 1202.54 492.151L1202.54 462.317C1202.54 460.035 1202.52 458.443 1202.49 457.54 1202.45 456.637 1202.36 455.871 1202.2 455.241 1202.05 454.612 1201.84 454.118 1201.56 453.762 1201.29 453.406 1200.92 453.12 1200.46 452.906 1199.99 452.693 1199.16 452.479 1197.94 452.265L1197.94 450.411Z" fill-rule="evenodd"/><text fill="#000000" fill-opacity="0" font-family="Arial,Arial_MSFontService,sans-serif" font-size="51.0073" x="1197.94" y="494.686">h</text><path d="M1262.02 485.236 1305.94 485.236 1305.94 489.977 1262.02 489.977ZM1262.02 470.444 1305.94 470.444 1305.94 475.184 1262.02 475.184Z" fill-rule="evenodd"/><text fill="#000000" fill-opacity="0" font-family="Arial,Arial_MSFontService,sans-serif" font-size="19.5332" x="1262.02" y="487.535">=</text><path d="M1460.61 436.118 1466.1 436.118 1466.1 524.302 1460.61 524.302ZM1340.89 436.118 1346.38 436.118 1346.38 524.302 1340.89 524.302Z" fill-rule="evenodd"/><path d="M1418.12 477.359 1413.7 497.783C1415.15 497.878 1416.94 497.926 1419.05 497.926 1422.66 497.926 1425.38 497.516 1427.2 496.696 1429.01 495.876 1430.58 494.421 1431.88 492.329 1433.19 490.238 1433.84 487.66 1433.84 484.594 1433.84 482.194 1433.05 480.388 1431.47 479.177 1429.89 477.965 1427.54 477.359 1424.4 477.359ZM1385.14 459.358 1372.45 481.814 1386.38 481.814 1385.78 470.337C1385.71 468.768 1385.65 466.808 1385.6 464.455 1385.55 462.103 1385.53 460.404 1385.53 459.358ZM1428.68 455.544C1426.61 455.544 1424.68 455.58 1422.9 455.651L1418.87 474.222 1423.9 474.222C1426.7 474.222 1428.93 473.996 1430.58 473.545 1432.23 473.093 1433.69 472.285 1434.95 471.121 1436.21 469.956 1437.12 468.679 1437.69 467.289 1438.26 465.899 1438.55 464.289 1438.55 462.459 1438.55 461.437 1438.37 460.481 1438.01 459.59 1437.66 458.699 1437.05 457.938 1436.18 457.309 1435.31 456.679 1434.31 456.227 1433.18 455.954 1432.06 455.681 1430.55 455.544 1428.68 455.544ZM1412.67 452.407 1430.32 452.407C1433.88 452.407 1436.74 452.782 1438.89 453.53 1441.04 454.279 1442.62 455.378 1443.63 456.827 1444.64 458.277 1445.14 460.095 1445.14 462.281 1445.14 465.394 1444.19 468.109 1442.29 470.426 1440.39 472.743 1437.56 474.519 1433.81 475.755L1433.74 476.147C1435.95 477.026 1437.65 478.279 1438.83 479.907 1440.02 481.535 1440.62 483.383 1440.62 485.45 1440.62 488.61 1439.89 491.313 1438.44 493.559 1436.99 495.805 1434.82 497.617 1431.92 498.995 1429.02 500.373 1424.78 501.062 1419.19 501.062L1403.33 501.062 1403.72 499.316C1404.63 499.173 1405.3 498.941 1405.76 498.621 1406.21 498.3 1406.59 497.854 1406.9 497.284 1407.21 496.714 1407.49 496.019 1407.75 495.199 1408.01 494.379 1408.41 492.793 1408.93 490.44L1414.99 462.994C1415.51 460.618 1415.77 458.74 1415.77 457.362 1415.77 456.198 1415.5 455.39 1414.95 454.938 1414.41 454.487 1413.51 454.225 1412.28 454.154ZM1385.35 451.837 1390.73 451.837 1393.3 491.581C1393.42 493.458 1393.63 494.925 1393.94 495.983 1394.25 497.04 1394.67 497.825 1395.2 498.335 1395.74 498.846 1396.52 499.173 1397.54 499.316L1397.15 501.062 1382.32 501.062 1382.71 499.316C1384.11 499.197 1385.16 498.65 1385.85 497.676 1386.54 496.702 1386.88 494.991 1386.88 492.543 1386.88 491.616 1386.85 490.607 1386.77 489.513L1386.53 484.915 1370.84 484.915 1368.88 488.408C1367.95 490.048 1367.28 491.456 1366.85 492.632 1366.42 493.809 1366.21 494.848 1366.21 495.751 1366.21 497.747 1367.41 498.935 1369.81 499.316L1369.42 501.062 1354.84 501.062 1355.23 499.316C1355.97 499.221 1356.66 498.93 1357.31 498.442 1357.97 497.955 1358.66 497.219 1359.4 496.232 1360.14 495.246 1361.17 493.613 1362.5 491.331Z" fill-rule="evenodd"/><text fill="#000000" fill-opacity="0" font-family="Arial,Arial_MSFontService,sans-serif" font-size="49.2251" x="1354.84" y="494.909">𝐴𝐵</text><path d="M1440.72 429.097 1449.67 436.832 1449.67 438.899 1440.72 446.634 1438.83 444.495 1444.53 439.541 1429.83 439.541 1422.79 439.541 1416.56 439.541 1408.44 439.541 1403.29 439.541 1395.18 439.541 1390 439.541 1381.91 439.541 1376.71 439.541 1368.62 439.541 1355.32 439.541 1355.32 436.19 1368.62 436.19 1376.71 436.19 1381.91 436.19 1390 436.19 1395.18 436.19 1403.29 436.19 1408.44 436.19 1416.56 436.19 1422.79 436.19 1429.83 436.19 1444.53 436.19 1438.83 431.236Z" fill-rule="evenodd"/><path d="M1530.5 466.665 1532.67 466.665 1532.67 492.151C1532.67 494.195 1532.76 495.615 1532.95 496.411 1533.15 497.207 1533.51 497.813 1534.04 498.229 1534.58 498.644 1535.45 499.007 1536.66 499.316L1536.66 501.062 1522.69 501.062 1522.69 499.316C1523.62 499.031 1524.28 498.781 1524.67 498.567 1525.06 498.353 1525.39 498.056 1525.67 497.676 1525.94 497.296 1526.15 496.714 1526.31 495.929 1526.46 495.145 1526.54 493.921 1526.54 492.258L1526.54 476.717C1526.54 475.196 1526.52 473.972 1526.47 473.046 1526.42 472.119 1526.25 471.376 1525.97 470.818 1525.68 470.259 1525.25 469.844 1524.67 469.57 1524.09 469.297 1523.26 469.065 1522.19 468.875L1522.19 466.986ZM1563.86 466.416C1565.15 466.416 1566.29 466.564 1567.3 466.861 1568.31 467.158 1569.2 467.616 1569.98 468.234 1570.75 468.851 1571.38 469.618 1571.88 470.533 1572.38 471.448 1572.76 472.547 1573.01 473.83 1573.25 475.113 1573.38 476.741 1573.38 478.713L1573.38 492.151C1573.38 493.791 1573.43 494.979 1573.52 495.716 1573.62 496.452 1573.78 497.023 1574.02 497.427 1574.26 497.83 1574.6 498.169 1575.05 498.442 1575.51 498.716 1576.29 499.007 1577.41 499.316L1577.41 501.062 1563.36 501.062 1563.36 499.316C1564.29 499.031 1564.96 498.781 1565.36 498.567 1565.76 498.353 1566.1 498.056 1566.38 497.676 1566.65 497.296 1566.86 496.708 1567.02 495.912 1567.17 495.116 1567.25 493.91 1567.25 492.294L1567.25 482.955C1567.25 481.291 1567.2 479.782 1567.11 478.428 1567.01 477.073 1566.85 475.963 1566.62 475.095 1566.4 474.228 1566.13 473.551 1565.8 473.063 1565.48 472.576 1565.1 472.16 1564.66 471.816 1564.22 471.471 1563.72 471.198 1563.15 470.996 1562.58 470.794 1561.83 470.693 1560.9 470.693 1559.98 470.693 1559.1 470.877 1558.27 471.246 1557.43 471.614 1556.52 472.25 1555.52 473.153 1554.52 474.056 1553.8 474.947 1553.35 475.826 1552.9 476.705 1552.67 477.715 1552.67 478.856L1552.67 492.151C1552.67 494.195 1552.76 495.615 1552.95 496.411 1553.15 497.207 1553.51 497.813 1554.04 498.229 1554.58 498.644 1555.45 499.007 1556.66 499.316L1556.66 501.062 1542.69 501.062 1542.69 499.316C1543.62 499.031 1544.28 498.781 1544.67 498.567 1545.06 498.353 1545.39 498.056 1545.67 497.676 1545.94 497.296 1546.15 496.714 1546.31 495.929 1546.46 495.145 1546.54 493.921 1546.54 492.258L1546.54 476.717C1546.54 475.196 1546.52 473.972 1546.47 473.046 1546.42 472.119 1546.25 471.376 1545.97 470.818 1545.68 470.259 1545.25 469.844 1544.67 469.57 1544.09 469.297 1543.26 469.065 1542.19 468.875L1542.19 466.986 1550.53 466.665 1552.71 466.665 1552.31 472.475 1552.81 472.618C1554.57 470.836 1555.99 469.564 1557.07 468.804 1558.15 468.044 1559.25 467.455 1560.35 467.04 1561.46 466.624 1562.63 466.416 1563.86 466.416ZM1504.52 466.38C1506.09 466.38 1507.6 466.457 1509.06 466.612 1510.53 466.766 1512.36 467.069 1514.57 467.521L1514.57 474.792 1511.15 474.792C1510.63 473.366 1510.01 472.244 1509.3 471.424 1508.58 470.604 1507.77 470.028 1506.87 469.695 1505.97 469.362 1504.86 469.196 1503.56 469.196 1501.66 469.196 1500.14 469.642 1499.01 470.533 1497.88 471.424 1497.32 472.642 1497.32 474.186 1497.32 475.279 1497.54 476.182 1498 476.895 1498.45 477.608 1499.15 478.274 1500.1 478.891 1501.05 479.509 1502.73 480.329 1505.13 481.351 1507.55 482.396 1509.42 483.359 1510.74 484.238 1512.06 485.117 1513.09 486.139 1513.84 487.303 1514.59 488.468 1514.96 489.858 1514.96 491.474 1514.96 493.351 1514.64 494.931 1514 496.215 1513.36 497.498 1512.46 498.543 1511.29 499.351 1510.13 500.159 1508.74 500.741 1507.14 501.098 1505.54 501.454 1503.78 501.633 1501.88 501.633 1499.89 501.633 1497.95 501.484 1496.07 501.187 1494.19 500.89 1492.36 500.504 1490.58 500.029L1490.58 492.579 1494.08 492.579C1494.72 494.765 1495.67 496.351 1496.93 497.337 1498.19 498.324 1499.92 498.817 1502.13 498.817 1502.99 498.817 1503.82 498.728 1504.64 498.549 1505.46 498.371 1506.19 498.074 1506.84 497.658 1507.48 497.242 1507.99 496.678 1508.37 495.965 1508.75 495.252 1508.94 494.361 1508.94 493.292 1508.94 492.08 1508.7 491.094 1508.23 490.333 1507.75 489.573 1507.01 488.878 1506.02 488.248 1505.02 487.618 1503.26 486.769 1500.74 485.699 1498.58 484.796 1496.84 483.917 1495.54 483.062 1494.23 482.206 1493.2 481.196 1492.45 480.032 1491.71 478.868 1491.33 477.489 1491.33 475.897 1491.33 473.949 1491.86 472.256 1492.92 470.818 1493.97 469.38 1495.5 468.281 1497.5 467.521 1499.49 466.76 1501.83 466.38 1504.52 466.38ZM1526.33 453.013 1532.88 453.013 1532.88 459.928 1526.33 459.928Z" fill-rule="evenodd"/><text fill="#000000" fill-opacity="0" font-family="Arial,Arial_MSFontService,sans-serif" font-size="48.6191" x="1490.58" y="495.555">sin</text><path d="M1603.84 478C1602.73 483.157 1602.17 487.494 1602.17 491.01 1602.17 493.672 1602.57 495.626 1603.38 496.874 1604.19 498.122 1605.49 498.745 1607.3 498.745 1609.96 498.745 1612.49 496.957 1614.88 493.381 1617.26 489.805 1619.29 484.678 1620.95 478ZM1618.46 453.976C1615.68 453.976 1613.1 455.734 1610.74 459.251 1608.38 462.768 1606.36 467.806 1604.7 474.365L1621.77 474.365C1622.89 469.35 1623.45 465.038 1623.45 461.426 1623.45 458.93 1623.04 457.065 1622.24 455.829 1621.43 454.594 1620.17 453.976 1618.46 453.976ZM1618.89 451.089C1625.78 451.089 1629.22 455.461 1629.22 464.206 1629.22 466.677 1628.94 469.63 1628.38 473.063 1627.83 476.497 1626.94 479.996 1625.73 483.561 1624.52 487.125 1622.98 490.28 1621.13 493.024 1619.28 495.769 1617.14 497.89 1614.71 499.387 1612.29 500.884 1609.68 501.633 1606.87 501.633 1603.33 501.633 1600.69 500.551 1598.96 498.389 1597.23 496.226 1596.36 492.983 1596.36 488.658 1596.36 486.305 1596.62 483.406 1597.14 479.961 1597.67 476.515 1598.53 472.992 1599.73 469.392 1600.93 465.792 1602.47 462.596 1604.36 459.804 1606.25 457.012 1608.42 454.861 1610.88 453.352 1613.34 451.843 1616.01 451.089 1618.89 451.089Z" fill-rule="evenodd"/><text fill="#000000" fill-opacity="0" font-family="Arial,Arial_MSFontService,sans-serif" font-size="50.5439" x="1596.36" y="495.315">𝜃</text><path d="M1751.29 499.672 1776.63 499.672 1776.63 503.237 1751.29 503.237ZM1772.04 462.531C1766.86 463.172 1761.31 463.635 1755.39 463.921L1755.39 472.297 1772.61 472.297C1772.23 468.4 1772.04 465.144 1772.04 462.531ZM1789.72 455.223 1791.82 458.503C1786.42 460.047 1781.14 461.164 1775.96 461.853 1775.89 466.131 1776.06 469.612 1776.49 472.297L1794.46 472.297 1794.46 475.933 1776.99 475.933C1777.75 482.753 1779.34 488.658 1781.77 493.648 1784.19 498.638 1786.21 501.134 1787.83 501.134 1790.11 501.134 1791.93 496.583 1793.28 487.482L1796.84 489.371C1795.94 494.599 1794.82 498.502 1793.48 501.08 1792.13 503.658 1790.32 504.948 1788.04 504.948 1784.64 504.948 1781.46 501.888 1778.49 495.769 1775.52 489.65 1773.71 483.038 1773.07 475.933L1755.39 475.933 1755.39 491.438C1761.73 490.203 1767.16 488.86 1771.68 487.41L1771.68 491.117C1765.76 493.114 1758.7 494.729 1750.51 495.965L1749.47 492.436C1750.87 491.985 1751.58 491.141 1751.58 489.906L1751.58 460.321C1766.29 459.845 1779 458.146 1789.72 455.223ZM1767.08 440.538C1768.27 442.748 1769.39 445.231 1770.43 447.988L1796.2 447.988 1796.2 451.659 1743.06 451.659 1743.06 471.869C1743.06 485.533 1740.83 496.452 1736.39 504.627L1733.18 502.31C1734.99 498.935 1736.46 494.438 1737.6 488.818 1738.74 483.198 1739.31 475.018 1739.31 464.277L1739.31 447.988 1766.26 447.988C1765.83 446.372 1764.84 444.233 1763.27 441.572Z" fill-rule="evenodd"/><text fill="#000000" fill-opacity="0" font-family="Arial,Arial_MSFontService,sans-serif" font-size="64.4097" x="1733.18" y="496.896">底</text><path d="M1827.1 485.236 1871.02 485.236 1871.02 489.977 1827.1 489.977ZM1827.1 470.444 1871.02 470.444 1871.02 475.184 1827.1 475.184Z" fill-rule="evenodd"/><text fill="#000000" fill-opacity="0" font-family="Arial,Arial_MSFontService,sans-serif" font-size="19.5332" x="1827.1" y="487.535">=</text><path d="M2022.36 436.118 2027.85 436.118 2027.85 524.302 2022.36 524.302ZM1905.97 436.118 1911.46 436.118 1911.46 524.302 1905.97 524.302Z" fill-rule="evenodd"/><path d="M1950.21 459.358 1937.52 481.814 1951.46 481.814 1950.86 470.337C1950.78 468.768 1950.73 466.808 1950.68 464.455 1950.63 462.103 1950.61 460.404 1950.61 459.358ZM1996.71 451.837C1998.88 451.837 2000.88 451.968 2002.72 452.229 2004.56 452.491 2006.61 452.966 2008.87 453.655L2006.73 463.315 2003.31 463.315C2003.12 460.392 2002.48 458.283 2001.4 456.988 2000.32 455.693 1998.58 455.045 1996.18 455.045 1992.9 455.045 1989.85 456.685 1987.04 459.964 1984.22 463.243 1981.99 467.574 1980.35 472.957 1978.71 478.339 1977.89 483.335 1977.89 487.945 1977.89 491.557 1978.53 494.219 1979.82 495.929 1981.1 497.64 1983.07 498.496 1985.73 498.496 1987.52 498.496 1989.07 498.229 1990.4 497.694 1991.73 497.159 1992.98 496.256 1994.15 494.985 1995.31 493.714 1996.46 491.937 1997.6 489.656L2001.03 489.656 1998.85 499.779C1994.41 501.015 1989.75 501.633 1984.88 501.633 1980.41 501.633 1977.01 500.349 1974.68 497.783 1972.36 495.217 1971.19 491.462 1971.19 486.519 1971.19 483.026 1971.82 478.998 1973.06 474.436 1974.31 469.873 1976.08 465.869 1978.36 462.424 1980.64 458.978 1983.33 456.352 1986.45 454.546 1989.56 452.74 1992.98 451.837 1996.71 451.837ZM1950.43 451.837 1955.81 451.837 1958.38 491.581C1958.5 493.458 1958.71 494.925 1959.02 495.983 1959.33 497.04 1959.75 497.825 1960.28 498.335 1960.82 498.846 1961.6 499.173 1962.62 499.316L1962.23 501.062 1947.4 501.062 1947.79 499.316C1949.19 499.197 1950.24 498.65 1950.93 497.676 1951.62 496.702 1951.96 494.991 1951.96 492.543 1951.96 491.616 1951.93 490.607 1951.85 489.513L1951.6 484.915 1935.92 484.915 1933.96 488.408C1933.03 490.048 1932.36 491.456 1931.93 492.632 1931.5 493.809 1931.29 494.848 1931.29 495.751 1931.29 497.747 1932.49 498.935 1934.89 499.316L1934.49 501.062 1919.92 501.062 1920.31 499.316C1921.05 499.221 1921.74 498.93 1922.39 498.442 1923.05 497.955 1923.74 497.219 1924.48 496.232 1925.22 495.246 1926.25 493.613 1927.58 491.331Z" fill-rule="evenodd"/><text fill="#000000" fill-opacity="0" font-family="Arial,Arial_MSFontService,sans-serif" font-size="49.7954" x="1919.92" y="495.408">𝐴𝐶</text><path d="M2001.22 429.097 2010.16 436.832 2010.16 438.899 2001.22 446.634 1999.33 444.495 2005.03 439.541 1990.33 439.541 1983.29 439.541 1978.2 439.541 1968.94 439.541 1966.08 439.541 1956.82 439.541 1953.94 439.541 1944.69 439.541 1941.79 439.541 1932.55 439.541 1920.4 439.541 1920.4 436.19 1932.55 436.19 1941.79 436.19 1944.69 436.19 1953.94 436.19 1956.82 436.19 1966.08 436.19 1968.94 436.19 1978.2 436.19 1983.29 436.19 1990.33 436.19 2005.03 436.19 1999.33 431.236Z" fill-rule="evenodd"/><path d="M1232.29 690.393C1238.87 692.199 1244.01 693.945 1247.69 695.633L1245.87 698.841C1242.02 697.035 1236.98 695.336 1230.76 693.743ZM1215.22 681.054 1215.22 685.723 1240.03 685.723 1240.03 681.054ZM1134.48 679.806 1134.48 690.322 1151.7 690.322 1151.7 679.806ZM1215.22 673.39 1215.22 677.989 1240.03 677.989 1240.03 673.39ZM1134.48 666.44 1134.48 676.242 1151.7 676.242 1151.7 666.44ZM1215.22 665.656 1215.22 670.254 1240.03 670.254 1240.03 665.656ZM1211.62 662.269 1243.66 662.269 1243.66 688.931 1222.28 688.931 1224.02 690.963C1218.15 694.456 1212.46 696.987 1206.95 698.555L1204.92 695.419C1210.83 693.636 1216.01 691.474 1220.46 688.931L1211.62 688.931ZM1155.48 653.679 1155.48 690.322 1165.85 690.322 1165.85 653.679ZM1134.48 653.679 1134.48 662.733 1151.7 662.733 1151.7 653.679ZM1120.15 653.679 1120.15 690.322 1130.53 690.322 1130.53 653.679ZM1111.24 636.748 1174.62 636.748 1174.62 640.384 1145.92 640.384C1144.36 644.162 1142.85 647.322 1141.4 649.865L1169.66 649.865 1169.66 698.555 1165.85 698.555 1165.85 694.171 1120.15 694.171 1120.15 698.555 1116.3 698.555 1116.3 649.865 1136.94 649.865C1139.2 646.419 1140.78 643.259 1141.68 640.384L1111.24 640.384ZM1204.24 635.286 1206.66 638.209C1204.17 639.326 1201.32 640.324 1198.11 641.203L1198.11 653.323 1204.63 653.323 1204.63 656.816 1198.11 656.816 1198.11 660.523C1202.55 664.562 1205.89 668.044 1208.12 670.967L1206.16 674.246C1203.57 670.776 1200.89 667.759 1198.11 665.192L1198.11 698.698 1194.33 698.698 1194.33 666.725C1192.05 672.38 1189.4 677.323 1186.38 681.553L1183.6 678.915C1187.62 673.236 1191.19 665.869 1194.33 656.816L1184.31 656.816 1184.31 653.323 1194.33 653.323 1194.33 642.273C1191.5 643.033 1188.92 643.568 1186.6 643.877L1184.78 640.669C1193.71 638.863 1200.2 637.069 1204.24 635.286ZM1226.02 634.752 1229.65 634.752 1229.65 639.956 1246.16 639.956 1246.16 643.093 1229.65 643.093 1229.65 647.334 1244.34 647.334 1244.34 650.471 1229.65 650.471 1229.65 654.998 1247.83 654.998 1247.83 658.135 1207.63 658.135 1207.63 654.998 1226.02 654.998 1226.02 650.471 1210.9 650.471 1210.9 647.334 1226.02 647.334 1226.02 643.093 1209.16 643.093 1209.16 639.956 1226.02 639.956Z" fill-rule="evenodd"/><text fill="#000000" fill-opacity="0" font-family="Arial,Arial_MSFontService,sans-serif" font-size="64.0889" x="1111.24" y="690.829">面積</text><path d="M1278.64 679.236 1322.55 679.236 1322.55 683.977 1278.64 683.977ZM1278.64 664.444 1322.55 664.444 1322.55 669.184 1278.64 669.184Z" fill-rule="evenodd"/><text fill="#000000" fill-opacity="0" font-family="Arial,Arial_MSFontService,sans-serif" font-size="19.5332" x="1278.64" y="681.535">=</text><path d="M1371.73 590.333 1373.69 590.333C1373.54 592.614 1373.47 595.775 1373.47 599.814L1373.47 630.255C1373.47 631.633 1373.55 632.673 1373.71 633.374 1373.86 634.075 1374.13 634.645 1374.53 635.085 1374.92 635.524 1375.48 635.869 1376.22 636.118 1376.95 636.368 1377.88 636.558 1379 636.689 1380.12 636.819 1381.59 636.908 1383.42 636.956L1383.42 639.558 1357.08 639.558 1357.08 636.956C1359.71 636.837 1361.6 636.677 1362.73 636.475 1363.86 636.273 1364.72 635.97 1365.31 635.566 1365.91 635.162 1366.34 634.592 1366.61 633.855 1366.89 633.118 1367.02 631.918 1367.02 630.255L1367.02 601.347C1367.02 600.397 1366.86 599.702 1366.52 599.262 1366.19 598.822 1365.7 598.602 1365.06 598.602 1364.3 598.602 1363.22 598.995 1361.82 599.779 1360.42 600.563 1358.68 601.644 1356.61 603.022L1355.05 600.278Z" fill-rule="evenodd"/><text fill="#000000" fill-opacity="0" font-family="Arial,Arial_MSFontService,sans-serif" font-size="49.2251" x="1355.05" y="633.405">1</text><path d="M1369.2 694.902C1373.62 694.902 1376.95 695.87 1379.21 697.807 1381.47 699.743 1382.6 702.553 1382.6 706.237 1382.6 707.496 1382.47 708.655 1382.22 709.712 1381.97 710.769 1381.58 711.815 1381.05 712.849 1380.51 713.882 1379.79 714.993 1378.89 716.182 1377.99 717.37 1376.99 718.576 1375.9 719.799 1374.8 721.023 1372.92 723.061 1370.23 725.912 1365.71 730.689 1362.4 734.859 1360.29 738.424L1373.72 738.424C1374.89 738.424 1375.83 738.352 1376.54 738.21 1377.25 738.067 1377.82 737.83 1378.25 737.497 1378.68 737.164 1379.02 736.731 1379.27 736.196 1379.52 735.661 1379.83 734.836 1380.21 733.719L1383.24 733.719 1382.63 744.127 1353.3 744.127 1353.3 742.416C1354.32 739.921 1355.7 737.366 1357.43 734.752 1359.17 732.138 1361.63 729.061 1364.81 725.52 1367.57 722.479 1369.55 720.174 1370.76 718.605 1372.1 716.894 1373.09 715.415 1373.74 714.168 1374.39 712.92 1374.86 711.744 1375.15 710.639 1375.43 709.534 1375.58 708.423 1375.58 707.306 1375.58 705.524 1375.29 703.95 1374.72 702.583 1374.15 701.217 1373.28 700.141 1372.1 699.357 1370.92 698.573 1369.45 698.181 1367.66 698.181 1363.22 698.181 1360.23 700.652 1358.68 705.595L1354.37 705.595 1354.37 698.751C1357.24 697.397 1359.93 696.417 1362.44 695.811 1364.95 695.205 1367.2 694.902 1369.2 694.902Z" fill-rule="evenodd"/><text fill="#000000" fill-opacity="0" font-family="Arial,Arial_MSFontService,sans-serif" font-size="49.2251" x="1353.3" y="737.974">2</text><path d="M1348.29 672.058 1389.29 672.058 1389.29 677.058 1348.29 677.058Z" fill-rule="evenodd"/><path d="M1412.46 644.055 1414.6 644.055 1414.6 666.582 1414.75 666.618C1416.6 664.741 1418.07 663.428 1419.15 662.679 1420.23 661.931 1421.3 661.366 1422.36 660.986 1423.41 660.606 1424.55 660.416 1425.76 660.416 1427.07 660.416 1428.23 660.57 1429.25 660.879 1430.27 661.188 1431.17 661.657 1431.94 662.287 1432.72 662.917 1433.35 663.689 1433.83 664.604 1434.32 665.519 1434.68 666.612 1434.92 667.883 1435.16 669.155 1435.28 670.765 1435.28 672.713L1435.28 686.151C1435.28 688.219 1435.37 689.626 1435.54 690.375 1435.72 691.124 1436.04 691.706 1436.51 692.122 1436.97 692.537 1437.9 692.935 1439.3 693.316L1439.3 695.062 1425.26 695.062 1425.26 693.316C1426.19 693.031 1426.85 692.781 1427.26 692.567 1427.66 692.353 1428 692.056 1428.27 691.676 1428.55 691.296 1428.76 690.708 1428.91 689.912 1429.07 689.116 1429.15 687.91 1429.15 686.294L1429.15 676.955C1429.15 673.794 1428.99 671.376 1428.66 669.701 1428.34 668.026 1427.71 666.772 1426.78 665.941 1425.84 665.109 1424.52 664.693 1422.84 664.693 1421.89 664.693 1421.03 664.859 1420.27 665.192 1419.51 665.525 1418.63 666.119 1417.63 666.974 1416.63 667.83 1415.88 668.709 1415.37 669.612 1414.86 670.515 1414.6 671.477 1414.6 672.499L1414.6 686.151C1414.6 687.767 1414.64 688.919 1414.73 689.609 1414.81 690.298 1414.97 690.874 1415.21 691.337 1415.45 691.801 1415.81 692.181 1416.3 692.478 1416.78 692.775 1417.54 693.054 1418.56 693.316L1418.56 695.062 1404.44 695.062 1404.44 693.316C1405.49 693.031 1406.24 692.757 1406.69 692.496 1407.14 692.234 1407.49 691.902 1407.74 691.498 1407.99 691.094 1408.17 690.512 1408.29 689.751 1408.41 688.991 1408.47 687.791 1408.47 686.151L1408.47 656.317C1408.47 654.035 1408.45 652.443 1408.42 651.54 1408.38 650.637 1408.29 649.871 1408.13 649.241 1407.98 648.612 1407.76 648.118 1407.49 647.762 1407.22 647.406 1406.85 647.12 1406.39 646.906 1405.92 646.693 1405.09 646.479 1403.87 646.265L1403.87 644.411Z" fill-rule="evenodd"/><text fill="#000000" fill-opacity="0" font-family="Arial,Arial_MSFontService,sans-serif" font-size="51.0073" x="1403.87" y="688.686">h</text><path d="M1468.86 669.077C1469.79 669.077 1470.63 669.297 1471.38 669.737 1472.13 670.176 1472.7 670.788 1473.11 671.573 1473.51 672.357 1473.71 673.236 1473.71 674.21 1473.71 675.208 1473.5 676.099 1473.09 676.884 1472.67 677.668 1472.09 678.274 1471.34 678.701 1470.59 679.129 1469.77 679.343 1468.86 679.343 1467.96 679.343 1467.14 679.129 1466.39 678.701 1465.64 678.274 1465.06 677.668 1464.64 676.884 1464.22 676.099 1464.02 675.208 1464.02 674.21 1464.02 673.236 1464.22 672.357 1464.62 671.573 1465.03 670.788 1465.6 670.176 1466.35 669.737 1467.1 669.297 1467.94 669.077 1468.86 669.077Z" fill-rule="evenodd"/><text fill="#000000" fill-opacity="0" font-family="Arial,Arial_MSFontService,sans-serif" font-size="10.2656" x="1464.02" y="678.06">∙</text><path d="M1620.68 630.118 1626.17 630.118 1626.17 718.302 1620.68 718.302ZM1504.29 630.118 1509.78 630.118 1509.78 718.302 1504.29 718.302Z" fill-rule="evenodd"/><path d="M1548.53 653.358 1535.84 675.814 1549.78 675.814 1549.17 664.337C1549.1 662.768 1549.04 660.808 1548.99 658.455 1548.95 656.103 1548.92 654.404 1548.92 653.358ZM1595.03 645.837C1597.19 645.837 1599.19 645.968 1601.04 646.229 1602.88 646.491 1604.93 646.966 1607.18 647.655L1605.05 657.315 1601.62 657.315C1601.43 654.392 1600.8 652.283 1599.72 650.988 1598.64 649.693 1596.9 649.045 1594.5 649.045 1591.22 649.045 1588.17 650.685 1585.35 653.964 1582.54 657.243 1580.31 661.574 1578.67 666.957 1577.03 672.339 1576.21 677.335 1576.21 681.945 1576.21 685.557 1576.85 688.219 1578.13 689.929 1579.42 691.64 1581.39 692.496 1584.05 692.496 1585.83 692.496 1587.39 692.229 1588.72 691.694 1590.05 691.159 1591.3 690.256 1592.46 688.985 1593.63 687.714 1594.78 685.937 1595.92 683.656L1599.34 683.656 1597.17 693.779C1592.72 695.015 1588.07 695.633 1583.2 695.633 1578.73 695.633 1575.33 694.349 1573 691.783 1570.67 689.217 1569.51 685.462 1569.51 680.519 1569.51 677.026 1570.13 672.998 1571.38 668.436 1572.63 663.873 1574.39 659.869 1576.67 656.424 1578.95 652.978 1581.65 650.352 1584.76 648.546 1587.88 646.74 1591.3 645.837 1595.03 645.837ZM1548.74 645.837 1554.13 645.837 1556.69 685.581C1556.81 687.458 1557.03 688.925 1557.34 689.983 1557.64 691.04 1558.07 691.825 1558.6 692.335 1559.14 692.846 1559.91 693.173 1560.94 693.316L1560.54 695.062 1545.71 695.062 1546.11 693.316C1547.51 693.197 1548.55 692.65 1549.24 691.676 1549.93 690.702 1550.28 688.991 1550.28 686.543 1550.28 685.616 1550.24 684.607 1550.17 683.513L1549.92 678.915 1534.24 678.915 1532.28 682.408C1531.35 684.048 1530.67 685.456 1530.25 686.632 1529.82 687.809 1529.6 688.848 1529.6 689.751 1529.6 691.747 1530.8 692.935 1533.2 693.316L1532.81 695.062 1518.23 695.062 1518.63 693.316C1519.36 693.221 1520.06 692.93 1520.71 692.442 1521.36 691.955 1522.06 691.219 1522.8 690.232 1523.53 689.246 1524.57 687.613 1525.9 685.331Z" fill-rule="evenodd"/><text fill="#000000" fill-opacity="0" font-family="Arial,Arial_MSFontService,sans-serif" font-size="49.7954" x="1518.23" y="689.408">𝐴𝐶</text><path d="M1599.53 623.097 1608.48 630.832 1608.48 632.899 1599.53 640.634 1597.64 638.495 1603.35 633.541 1588.64 633.541 1581.6 633.541 1576.52 633.541 1567.26 633.541 1564.4 633.541 1555.13 633.541 1552.25 633.541 1543.01 633.541 1540.11 633.541 1530.87 633.541 1518.72 633.541 1518.72 630.19 1530.87 630.19 1540.11 630.19 1543.01 630.19 1552.25 630.19 1555.13 630.19 1564.4 630.19 1567.26 630.19 1576.52 630.19 1581.6 630.19 1588.64 630.19 1603.35 630.19 1597.64 625.236Z" fill-rule="evenodd"/><path d="M1645.96 644.055 1648.1 644.055 1648.1 666.582 1648.24 666.618C1650.1 664.741 1651.56 663.428 1652.65 662.679 1653.73 661.931 1654.8 661.366 1655.85 660.986 1656.91 660.606 1658.05 660.416 1659.26 660.416 1660.56 660.416 1661.73 660.57 1662.75 660.879 1663.77 661.188 1664.67 661.657 1665.44 662.287 1666.21 662.917 1666.84 663.689 1667.33 664.604 1667.82 665.519 1668.18 666.612 1668.42 667.883 1668.66 669.155 1668.77 670.765 1668.77 672.713L1668.77 686.151C1668.77 688.219 1668.86 689.626 1669.04 690.375 1669.22 691.124 1669.54 691.706 1670 692.122 1670.47 692.537 1671.4 692.935 1672.8 693.316L1672.8 695.062 1658.76 695.062 1658.76 693.316C1659.68 693.031 1660.35 692.781 1660.75 692.567 1661.16 692.353 1661.5 692.056 1661.77 691.676 1662.04 691.296 1662.26 690.708 1662.41 689.912 1662.57 689.116 1662.64 687.91 1662.64 686.294L1662.64 676.955C1662.64 673.794 1662.48 671.376 1662.16 669.701 1661.84 668.026 1661.21 666.772 1660.27 665.941 1659.33 665.109 1658.02 664.693 1656.33 664.693 1655.38 664.693 1654.53 664.859 1653.77 665.192 1653.01 665.525 1652.13 666.119 1651.13 666.974 1650.13 667.83 1649.38 668.709 1648.87 669.612 1648.36 670.515 1648.1 671.477 1648.1 672.499L1648.1 686.151C1648.1 687.767 1648.14 688.919 1648.23 689.609 1648.31 690.298 1648.47 690.874 1648.71 691.337 1648.94 691.801 1649.31 692.181 1649.79 692.478 1650.28 692.775 1651.04 693.054 1652.06 693.316L1652.06 695.062 1637.94 695.062 1637.94 693.316C1638.99 693.031 1639.74 692.757 1640.19 692.496 1640.64 692.234 1640.99 691.902 1641.24 691.498 1641.49 691.094 1641.67 690.512 1641.79 689.751 1641.91 688.991 1641.97 687.791 1641.97 686.151L1641.97 656.317C1641.97 654.035 1641.95 652.443 1641.92 651.54 1641.88 650.637 1641.79 649.871 1641.63 649.241 1641.48 648.612 1641.26 648.118 1640.99 647.762 1640.72 647.406 1640.35 647.12 1639.88 646.906 1639.42 646.693 1638.58 646.479 1637.37 646.265L1637.37 644.411Z" fill-rule="evenodd"/><text fill="#000000" fill-opacity="0" font-family="Arial,Arial_MSFontService,sans-serif" font-size="51.0073" x="1637.37" y="688.686">h</text><path d="M1701.45 679.236 1745.37 679.236 1745.37 683.977 1701.45 683.977ZM1701.45 664.444 1745.37 664.444 1745.37 669.184 1701.45 669.184Z" fill-rule="evenodd"/><text fill="#000000" fill-opacity="0" font-family="Arial,Arial_MSFontService,sans-serif" font-size="19.5332" x="1701.45" y="681.535">=</text><path d="M1794.54 590.333 1796.5 590.333C1796.36 592.614 1796.29 595.775 1796.29 599.814L1796.29 630.255C1796.29 631.633 1796.36 632.673 1796.52 633.374 1796.67 634.075 1796.95 634.645 1797.34 635.085 1797.73 635.524 1798.29 635.869 1799.03 636.118 1799.77 636.368 1800.69 636.558 1801.81 636.689 1802.93 636.819 1804.4 636.908 1806.23 636.956L1806.23 639.558 1779.89 639.558 1779.89 636.956C1782.53 636.837 1784.41 636.677 1785.54 636.475 1786.67 636.273 1787.53 635.97 1788.12 635.566 1788.72 635.162 1789.15 634.592 1789.42 633.855 1789.7 633.118 1789.83 631.918 1789.83 630.255L1789.83 601.347C1789.83 600.397 1789.67 599.702 1789.34 599.262 1789 598.822 1788.52 598.602 1787.87 598.602 1787.11 598.602 1786.03 598.995 1784.63 599.779 1783.23 600.563 1781.49 601.644 1779.43 603.022L1777.86 600.278Z" fill-rule="evenodd"/><text fill="#000000" fill-opacity="0" font-family="Arial,Arial_MSFontService,sans-serif" font-size="49.2251" x="1777.86" y="633.405">1</text><path d="M1792.01 694.902C1796.43 694.902 1799.77 695.87 1802.02 697.807 1804.28 699.743 1805.41 702.553 1805.41 706.237 1805.41 707.496 1805.29 708.655 1805.04 709.712 1804.79 710.769 1804.4 711.815 1803.86 712.849 1803.33 713.882 1802.61 714.993 1801.7 716.182 1800.8 717.37 1799.8 718.576 1798.71 719.799 1797.62 721.023 1795.73 723.061 1793.04 725.912 1788.53 730.689 1785.21 734.859 1783.1 738.424L1796.54 738.424C1797.7 738.424 1798.64 738.352 1799.35 738.21 1800.06 738.067 1800.63 737.83 1801.06 737.497 1801.49 737.164 1801.83 736.731 1802.08 736.196 1802.33 735.661 1802.64 734.836 1803.02 733.719L1806.05 733.719 1805.45 744.127 1776.11 744.127 1776.11 742.416C1777.13 739.921 1778.51 737.366 1780.25 734.752 1781.98 732.138 1784.44 729.061 1787.62 725.52 1790.38 722.479 1792.37 720.174 1793.58 718.605 1794.91 716.894 1795.9 715.415 1796.55 714.168 1797.21 712.92 1797.68 711.744 1797.96 710.639 1798.25 709.534 1798.39 708.423 1798.39 707.306 1798.39 705.524 1798.1 703.95 1797.53 702.583 1796.96 701.217 1796.09 700.141 1794.91 699.357 1793.74 698.573 1792.26 698.181 1790.48 698.181 1786.03 698.181 1783.04 700.652 1781.49 705.595L1777.18 705.595 1777.18 698.751C1780.06 697.397 1782.75 696.417 1785.25 695.811 1787.76 695.205 1790.01 694.902 1792.01 694.902Z" fill-rule="evenodd"/><text fill="#000000" fill-opacity="0" font-family="Arial,Arial_MSFontService,sans-serif" font-size="49.2251" x="1776.11" y="737.974">2</text><path d="M1771.29 672.058 1812.29 672.058 1812.29 677.058 1771.29 677.058Z" fill-rule="evenodd"/><path d="M1952.93 630.118 1958.41 630.118 1958.41 718.302 1952.93 718.302ZM1833.21 630.118 1838.7 630.118 1838.7 718.302 1833.21 718.302Z" fill-rule="evenodd"/><path d="M1910.44 671.359 1906.02 691.783C1907.47 691.878 1909.26 691.926 1911.37 691.926 1914.98 691.926 1917.7 691.516 1919.52 690.696 1921.33 689.876 1922.9 688.42 1924.2 686.329 1925.51 684.238 1926.16 681.66 1926.16 678.594 1926.16 676.194 1925.37 674.388 1923.79 673.177 1922.21 671.965 1919.85 671.359 1916.72 671.359ZM1877.45 653.358 1864.76 675.814 1878.7 675.814 1878.1 664.337C1878.02 662.768 1877.96 660.808 1877.92 658.455 1877.87 656.103 1877.85 654.404 1877.85 653.358ZM1920.99 649.544C1918.93 649.544 1917 649.58 1915.22 649.651L1911.19 668.222 1916.22 668.222C1919.02 668.222 1921.25 667.996 1922.9 667.545 1924.55 667.093 1926.01 666.285 1927.27 665.121 1928.53 663.956 1929.44 662.679 1930.01 661.289 1930.58 659.899 1930.87 658.289 1930.87 656.459 1930.87 655.437 1930.69 654.481 1930.33 653.59 1929.98 652.699 1929.36 651.938 1928.5 651.309 1927.63 650.679 1926.63 650.227 1925.5 649.954 1924.37 649.681 1922.87 649.544 1920.99 649.544ZM1904.99 646.407 1922.63 646.407C1926.2 646.407 1929.06 646.782 1931.21 647.53 1933.36 648.279 1934.94 649.378 1935.95 650.827 1936.96 652.277 1937.46 654.095 1937.46 656.281 1937.46 659.394 1936.51 662.109 1934.61 664.426 1932.71 666.743 1929.88 668.519 1926.13 669.755L1926.06 670.147C1928.27 671.026 1929.96 672.279 1931.15 673.907 1932.34 675.535 1932.94 677.383 1932.94 679.45 1932.94 682.61 1932.21 685.313 1930.76 687.559 1929.31 689.805 1927.14 691.617 1924.24 692.995 1921.34 694.373 1917.1 695.062 1911.51 695.062L1895.65 695.062 1896.04 693.316C1896.95 693.173 1897.62 692.941 1898.07 692.621 1898.53 692.3 1898.91 691.854 1899.22 691.284 1899.52 690.714 1899.81 690.019 1900.07 689.199 1900.33 688.379 1900.72 686.793 1901.25 684.44L1907.31 656.994C1907.83 654.618 1908.09 652.74 1908.09 651.362 1908.09 650.198 1907.82 649.39 1907.27 648.938 1906.72 648.487 1905.83 648.225 1904.6 648.154ZM1877.67 645.837 1883.05 645.837 1885.62 685.581C1885.74 687.458 1885.95 688.925 1886.26 689.983 1886.57 691.04 1886.99 691.825 1887.52 692.335 1888.06 692.846 1888.84 693.173 1889.86 693.316L1889.47 695.062 1874.64 695.062 1875.03 693.316C1876.43 693.197 1877.48 692.65 1878.17 691.676 1878.86 690.702 1879.2 688.991 1879.2 686.543 1879.2 685.616 1879.16 684.607 1879.09 683.513L1878.84 678.915 1863.16 678.915 1861.2 682.408C1860.27 684.048 1859.6 685.456 1859.17 686.632 1858.74 687.809 1858.53 688.848 1858.53 689.751 1858.53 691.747 1859.73 692.935 1862.13 693.316L1861.73 695.062 1847.16 695.062 1847.55 693.316C1848.28 693.221 1848.98 692.93 1849.63 692.442 1850.29 691.955 1850.98 691.219 1851.72 690.232 1852.46 689.246 1853.49 687.613 1854.82 685.331Z" fill-rule="evenodd"/><text fill="#000000" fill-opacity="0" font-family="Arial,Arial_MSFontService,sans-serif" font-size="49.2251" x="1847.16" y="688.909">𝐴𝐵</text><path d="M1933.04 623.097 1941.98 630.832 1941.98 632.899 1933.04 640.634 1931.15 638.495 1936.85 633.541 1922.15 633.541 1915.11 633.541 1908.88 633.541 1900.76 633.541 1895.61 633.541 1887.49 633.541 1882.32 633.541 1874.23 633.541 1869.03 633.541 1860.93 633.541 1847.64 633.541 1847.64 630.19 1860.93 630.19 1869.03 630.19 1874.23 630.19 1882.32 630.19 1887.49 630.19 1895.61 630.19 1900.76 630.19 1908.88 630.19 1915.11 630.19 1922.15 630.19 1936.85 630.19 1931.15 625.236Z" fill-rule="evenodd"/><path d="M2092.53 630.118 2098.02 630.118 2098.02 718.302 2092.53 718.302ZM1976.14 630.118 1981.63 630.118 1981.63 718.302 1976.14 718.302Z" fill-rule="evenodd"/><path d="M2020.39 653.358 2007.7 675.814 2021.63 675.814 2021.03 664.337C2020.96 662.768 2020.9 660.808 2020.85 658.455 2020.8 656.103 2020.78 654.404 2020.78 653.358ZM2066.88 645.837C2069.05 645.837 2071.05 645.968 2072.89 646.229 2074.73 646.491 2076.78 646.966 2079.04 647.655L2076.9 657.315 2073.48 657.315C2073.29 654.392 2072.65 652.283 2071.57 650.988 2070.49 649.693 2068.75 649.045 2066.35 649.045 2063.07 649.045 2060.02 650.685 2057.21 653.964 2054.39 657.243 2052.16 661.574 2050.52 666.957 2048.88 672.339 2048.06 677.335 2048.06 681.945 2048.06 685.557 2048.71 688.219 2049.99 689.929 2051.27 691.64 2053.24 692.496 2055.91 692.496 2057.69 692.496 2059.24 692.229 2060.57 691.694 2061.91 691.159 2063.15 690.256 2064.32 688.985 2065.48 687.714 2066.63 685.937 2067.78 683.656L2071.2 683.656 2069.02 693.779C2064.58 695.015 2059.92 695.633 2055.05 695.633 2050.58 695.633 2047.18 694.349 2044.86 691.783 2042.53 689.217 2041.36 685.462 2041.36 680.519 2041.36 677.026 2041.99 672.998 2043.23 668.436 2044.48 663.873 2046.25 659.869 2048.53 656.424 2050.81 652.978 2053.51 650.352 2056.62 648.546 2059.73 646.74 2063.15 645.837 2066.88 645.837ZM2020.6 645.837 2025.98 645.837 2028.55 685.581C2028.67 687.458 2028.88 688.925 2029.19 689.983 2029.5 691.04 2029.92 691.825 2030.45 692.335 2030.99 692.846 2031.77 693.173 2032.79 693.316L2032.4 695.062 2017.57 695.062 2017.96 693.316C2019.36 693.197 2020.41 692.65 2021.1 691.676 2021.79 690.702 2022.13 688.991 2022.13 686.543 2022.13 685.616 2022.1 684.607 2022.02 683.513L2021.78 678.915 2006.09 678.915 2004.13 682.408C2003.2 684.048 2002.53 685.456 2002.1 686.632 2001.67 687.809 2001.46 688.848 2001.46 689.751 2001.46 691.747 2002.66 692.935 2005.06 693.316L2004.67 695.062 1990.09 695.062 1990.48 693.316C1991.22 693.221 1991.91 692.93 1992.56 692.442 1993.22 691.955 1993.91 691.219 1994.65 690.232 1995.39 689.246 1996.42 687.613 1997.75 685.331Z" fill-rule="evenodd"/><text fill="#000000" fill-opacity="0" font-family="Arial,Arial_MSFontService,sans-serif" font-size="49.7954" x="1990.09" y="689.408">𝐴𝐶</text><path d="M2071.39 623.097 2080.33 630.832 2080.33 632.899 2071.39 640.634 2069.5 638.495 2075.2 633.541 2060.5 633.541 2053.46 633.541 2048.37 633.541 2039.11 633.541 2036.25 633.541 2026.99 633.541 2024.11 633.541 2014.87 633.541 2011.96 633.541 2002.72 633.541 1990.57 633.541 1990.57 630.19 2002.72 630.19 2011.96 630.19 2014.87 630.19 2024.11 630.19 2026.99 630.19 2036.25 630.19 2039.11 630.19 2048.37 630.19 2053.46 630.19 2060.5 630.19 2075.2 630.19 2069.5 625.236Z" fill-rule="evenodd"/><path d="M2162.42 660.665 2164.6 660.665 2164.6 686.151C2164.6 688.195 2164.69 689.615 2164.88 690.411 2165.07 691.207 2165.43 691.813 2165.97 692.229 2166.5 692.644 2167.38 693.007 2168.59 693.316L2168.59 695.062 2154.62 695.062 2154.62 693.316C2155.54 693.031 2156.2 692.781 2156.59 692.567 2156.99 692.353 2157.32 692.056 2157.59 691.676 2157.87 691.296 2158.08 690.714 2158.23 689.929 2158.39 689.145 2158.47 687.921 2158.47 686.258L2158.47 670.717C2158.47 669.196 2158.44 667.972 2158.39 667.046 2158.35 666.119 2158.18 665.376 2157.9 664.818 2157.61 664.259 2157.18 663.844 2156.59 663.57 2156.01 663.297 2155.19 663.065 2154.12 662.875L2154.12 660.986ZM2195.79 660.416C2197.07 660.416 2198.22 660.564 2199.23 660.861 2200.24 661.158 2201.13 661.616 2201.9 662.234 2202.67 662.852 2203.31 663.618 2203.81 664.533 2204.31 665.448 2204.68 666.547 2204.93 667.83 2205.18 669.113 2205.31 670.741 2205.31 672.713L2205.31 686.151C2205.31 687.791 2205.35 688.979 2205.45 689.716 2205.54 690.452 2205.71 691.023 2205.95 691.427 2206.19 691.831 2206.53 692.169 2206.98 692.442 2207.43 692.716 2208.22 693.007 2209.33 693.316L2209.33 695.062 2195.29 695.062 2195.29 693.316C2196.22 693.031 2196.88 692.781 2197.29 692.567 2197.69 692.353 2198.03 692.056 2198.3 691.676 2198.58 691.296 2198.79 690.708 2198.94 689.912 2199.1 689.116 2199.18 687.91 2199.18 686.294L2199.18 676.955C2199.18 675.291 2199.13 673.782 2199.03 672.428 2198.94 671.073 2198.78 669.963 2198.55 669.095 2198.33 668.228 2198.05 667.551 2197.73 667.063 2197.41 666.576 2197.03 666.16 2196.59 665.816 2196.15 665.471 2195.65 665.198 2195.08 664.996 2194.51 664.794 2193.76 664.693 2192.83 664.693 2191.9 664.693 2191.02 664.877 2190.19 665.246 2189.36 665.614 2188.45 666.25 2187.45 667.153 2186.45 668.056 2185.73 668.947 2185.27 669.826 2184.82 670.705 2184.6 671.715 2184.6 672.856L2184.6 686.151C2184.6 688.195 2184.69 689.615 2184.88 690.411 2185.07 691.207 2185.43 691.813 2185.97 692.229 2186.5 692.644 2187.38 693.007 2188.59 693.316L2188.59 695.062 2174.62 695.062 2174.62 693.316C2175.54 693.031 2176.2 692.781 2176.59 692.567 2176.99 692.353 2177.32 692.056 2177.59 691.676 2177.87 691.296 2178.08 690.714 2178.23 689.929 2178.39 689.145 2178.47 687.921 2178.47 686.258L2178.47 670.717C2178.47 669.196 2178.44 667.972 2178.39 667.046 2178.35 666.119 2178.18 665.376 2177.9 664.818 2177.61 664.259 2177.18 663.844 2176.59 663.57 2176.01 663.297 2175.19 663.065 2174.12 662.875L2174.12 660.986 2182.46 660.665 2184.63 660.665 2184.24 666.475 2184.74 666.618C2186.5 664.836 2187.92 663.564 2189 662.804 2190.08 662.044 2191.17 661.455 2192.28 661.04 2193.38 660.624 2194.55 660.416 2195.79 660.416ZM2136.45 660.38C2138.01 660.38 2139.53 660.457 2140.99 660.612 2142.45 660.766 2144.29 661.069 2146.5 661.521L2146.5 668.792 2143.08 668.792C2142.55 667.366 2141.94 666.244 2141.22 665.424 2140.51 664.604 2139.7 664.028 2138.8 663.695 2137.9 663.362 2136.79 663.196 2135.48 663.196 2133.58 663.196 2132.07 663.642 2130.94 664.533 2129.81 665.424 2129.25 666.642 2129.25 668.186 2129.25 669.279 2129.47 670.182 2129.92 670.895 2130.38 671.608 2131.08 672.273 2132.03 672.891 2132.98 673.509 2134.65 674.329 2137.05 675.351 2139.48 676.396 2141.35 677.359 2142.67 678.238 2143.99 679.117 2145.02 680.139 2145.77 681.303 2146.52 682.468 2146.89 683.858 2146.89 685.474 2146.89 687.351 2146.57 688.931 2145.93 690.215 2145.29 691.498 2144.38 692.543 2143.22 693.351 2142.05 694.159 2140.67 694.741 2139.07 695.098 2137.46 695.454 2135.71 695.633 2133.81 695.633 2131.81 695.633 2129.88 695.484 2128 695.187 2126.12 694.89 2124.29 694.504 2122.51 694.029L2122.51 686.579 2126 686.579C2126.64 688.765 2127.59 690.351 2128.85 691.337 2130.11 692.324 2131.85 692.817 2134.06 692.817 2134.91 692.817 2135.75 692.728 2136.57 692.549 2137.39 692.371 2138.12 692.074 2138.76 691.658 2139.41 691.242 2139.92 690.678 2140.3 689.965 2140.68 689.252 2140.87 688.361 2140.87 687.292 2140.87 686.08 2140.63 685.094 2140.15 684.333 2139.68 683.573 2138.94 682.878 2137.94 682.248 2136.95 681.618 2135.19 680.769 2132.67 679.699 2130.51 678.796 2128.77 677.917 2127.46 677.062 2126.16 676.206 2125.13 675.196 2124.38 674.032 2123.63 672.868 2123.26 671.489 2123.26 669.897 2123.26 667.949 2123.79 666.256 2124.84 664.818 2125.9 663.38 2127.43 662.281 2129.42 661.521 2131.42 660.76 2133.76 660.38 2136.45 660.38ZM2158.25 647.013 2164.81 647.013 2164.81 653.928 2158.25 653.928Z" fill-rule="evenodd"/><text fill="#000000" fill-opacity="0" font-family="Arial,Arial_MSFontService,sans-serif" font-size="48.6191" x="2122.51" y="689.555">sin</text><path d="M2235.77 672C2234.65 677.157 2234.1 681.494 2234.1 685.01 2234.1 687.672 2234.5 689.626 2235.31 690.874 2236.11 692.122 2237.42 692.745 2239.23 692.745 2241.89 692.745 2244.41 690.957 2246.8 687.381 2249.19 683.805 2251.22 678.678 2252.88 672ZM2250.38 647.976C2247.6 647.976 2245.03 649.734 2242.67 653.251 2240.3 656.768 2238.29 661.806 2236.63 668.365L2253.7 668.365C2254.82 663.351 2255.38 659.038 2255.38 655.426 2255.38 652.93 2254.97 651.065 2254.16 649.829 2253.36 648.594 2252.1 647.976 2250.38 647.976ZM2250.81 645.089C2257.7 645.089 2261.15 649.461 2261.15 658.206 2261.15 660.677 2260.87 663.63 2260.31 667.063 2259.75 670.497 2258.87 673.996 2257.66 677.561 2256.44 681.125 2254.91 684.28 2253.06 687.024 2251.2 689.769 2249.07 691.89 2246.64 693.387 2244.22 694.884 2241.6 695.633 2238.8 695.633 2235.26 695.633 2232.62 694.551 2230.89 692.389 2229.15 690.227 2228.29 686.983 2228.29 682.658 2228.29 680.305 2228.55 677.406 2229.07 673.961 2229.59 670.515 2230.45 666.992 2231.65 663.392 2232.85 659.792 2234.4 656.596 2236.29 653.804 2238.18 651.012 2240.35 648.861 2242.81 647.352 2245.27 645.843 2247.94 645.089 2250.81 645.089Z" fill-rule="evenodd"/><text fill="#000000" fill-opacity="0" font-family="Arial,Arial_MSFontService,sans-serif" font-size="50.5439" x="2228.29" y="689.315">𝜃</text><path d="M2293.27 679.236 2337.19 679.236 2337.19 683.977 2293.27 683.977ZM2293.27 664.444 2337.19 664.444 2337.19 669.184 2293.27 669.184Z" fill-rule="evenodd"/><text fill="#000000" fill-opacity="0" font-family="Arial,Arial_MSFontService,sans-serif" font-size="19.5332" x="2293.27" y="681.535">=</text><path d="M2386.36 590.333 2388.32 590.333C2388.18 592.614 2388.11 595.775 2388.11 599.814L2388.11 630.255C2388.11 631.633 2388.19 632.673 2388.34 633.374 2388.5 634.075 2388.77 634.645 2389.16 635.085 2389.55 635.524 2390.12 635.869 2390.85 636.118 2391.59 636.368 2392.52 636.558 2393.63 636.689 2394.75 636.819 2396.22 636.908 2398.05 636.956L2398.05 639.558 2371.71 639.558 2371.71 636.956C2374.35 636.837 2376.23 636.677 2377.36 636.475 2378.49 636.273 2379.35 635.97 2379.95 635.566 2380.54 635.162 2380.97 634.592 2381.25 633.855 2381.52 633.118 2381.66 631.918 2381.66 630.255L2381.66 601.347C2381.66 600.397 2381.49 599.702 2381.16 599.262 2380.83 598.822 2380.34 598.602 2379.7 598.602 2378.94 598.602 2377.86 598.995 2376.45 599.779 2375.05 600.563 2373.32 601.644 2371.25 603.022L2369.68 600.278Z" fill-rule="evenodd"/><text fill="#000000" fill-opacity="0" font-family="Arial,Arial_MSFontService,sans-serif" font-size="49.2251" x="2369.68" y="633.405">1</text><path d="M2383.83 694.902C2388.25 694.902 2391.59 695.87 2393.85 697.807 2396.11 699.743 2397.23 702.553 2397.23 706.237 2397.23 707.496 2397.11 708.655 2396.86 709.712 2396.61 710.769 2396.22 711.815 2395.68 712.849 2395.15 713.882 2394.43 714.993 2393.53 716.182 2392.62 717.37 2391.63 718.576 2390.53 719.799 2389.44 721.023 2387.55 723.061 2384.87 725.912 2380.35 730.689 2377.04 734.859 2374.92 738.424L2388.36 738.424C2389.52 738.424 2390.46 738.352 2391.17 738.21 2391.89 738.067 2392.46 737.83 2392.89 737.497 2393.31 737.164 2393.65 736.731 2393.9 736.196 2394.15 735.661 2394.47 734.836 2394.85 733.719L2397.88 733.719 2397.27 744.127 2367.93 744.127 2367.93 742.416C2368.96 739.921 2370.33 737.366 2372.07 734.752 2373.8 732.138 2376.26 729.061 2379.45 725.52 2382.2 722.479 2384.19 720.174 2385.4 718.605 2386.73 716.894 2387.72 715.415 2388.38 714.168 2389.03 712.92 2389.5 711.744 2389.78 710.639 2390.07 709.534 2390.21 708.423 2390.21 707.306 2390.21 705.524 2389.93 703.95 2389.36 702.583 2388.79 701.217 2387.91 700.141 2386.74 699.357 2385.56 698.573 2384.08 698.181 2382.3 698.181 2377.86 698.181 2374.86 700.652 2373.32 705.595L2369 705.595 2369 698.751C2371.88 697.397 2374.57 696.417 2377.08 695.811 2379.58 695.205 2381.84 694.902 2383.83 694.902Z" fill-rule="evenodd"/><text fill="#000000" fill-opacity="0" font-family="Arial,Arial_MSFontService,sans-serif" font-size="49.2251" x="2367.93" y="737.974">2</text><path d="M2363.29 672.058 2404.29 672.058 2404.29 677.058 2363.29 677.058Z" fill-rule="evenodd"/><path d="M2722.65 630.118 2728.14 630.118 2728.14 718.302 2722.65 718.302ZM2425.03 630.118 2430.52 630.118 2430.52 718.302 2425.03 718.302Z" fill-rule="evenodd"/><path d="M2502.27 671.359 2497.85 691.783C2499.3 691.878 2501.08 691.926 2503.19 691.926 2506.81 691.926 2509.52 691.516 2511.34 690.696 2513.16 689.876 2514.72 688.42 2516.03 686.329 2517.33 684.238 2517.99 681.66 2517.99 678.594 2517.99 676.194 2517.2 674.388 2515.62 673.177 2514.03 671.965 2511.68 671.359 2508.54 671.359ZM2469.28 653.358 2456.59 675.814 2470.52 675.814 2469.92 664.337C2469.85 662.768 2469.79 660.808 2469.74 658.455 2469.69 656.103 2469.67 654.404 2469.67 653.358ZM2512.82 649.544C2510.75 649.544 2508.82 649.58 2507.04 649.651L2503.01 668.222 2508.04 668.222C2510.84 668.222 2513.07 667.996 2514.72 667.545 2516.38 667.093 2517.83 666.285 2519.09 665.121 2520.35 663.956 2521.26 662.679 2521.84 661.289 2522.41 659.899 2522.69 658.289 2522.69 656.459 2522.69 655.437 2522.51 654.481 2522.16 653.59 2521.8 652.699 2521.19 651.938 2520.32 651.309 2519.45 650.679 2518.45 650.227 2517.33 649.954 2516.2 649.681 2514.69 649.544 2512.82 649.544ZM2496.81 646.407 2514.46 646.407C2518.02 646.407 2520.88 646.782 2523.03 647.53 2525.18 648.279 2526.76 649.378 2527.77 650.827 2528.78 652.277 2529.28 654.095 2529.28 656.281 2529.28 659.394 2528.33 662.109 2526.43 664.426 2524.53 666.743 2521.7 668.519 2517.95 669.755L2517.88 670.147C2520.09 671.026 2521.79 672.279 2522.98 673.907 2524.16 675.535 2524.76 677.383 2524.76 679.45 2524.76 682.61 2524.03 685.313 2522.58 687.559 2521.13 689.805 2518.96 691.617 2516.06 692.995 2513.16 694.373 2508.92 695.062 2503.34 695.062L2487.47 695.062 2487.87 693.316C2488.77 693.173 2489.45 692.941 2489.9 692.621 2490.35 692.3 2490.73 691.854 2491.04 691.284 2491.35 690.714 2491.63 690.019 2491.89 689.199 2492.16 688.379 2492.55 686.793 2493.07 684.44L2499.13 656.994C2499.65 654.618 2499.91 652.74 2499.91 651.362 2499.91 650.198 2499.64 649.39 2499.09 648.938 2498.55 648.487 2497.66 648.225 2496.42 648.154ZM2469.49 645.837 2474.87 645.837 2477.44 685.581C2477.56 687.458 2477.77 688.925 2478.08 689.983 2478.39 691.04 2478.81 691.825 2479.35 692.335 2479.88 692.846 2480.66 693.173 2481.68 693.316L2481.29 695.062 2466.46 695.062 2466.85 693.316C2468.25 693.197 2469.3 692.65 2469.99 691.676 2470.68 690.702 2471.02 688.991 2471.02 686.543 2471.02 685.616 2470.99 684.607 2470.92 683.513L2470.67 678.915 2454.98 678.915 2453.02 682.408C2452.1 684.048 2451.42 685.456 2450.99 686.632 2450.56 687.809 2450.35 688.848 2450.35 689.751 2450.35 691.747 2451.55 692.935 2453.95 693.316L2453.56 695.062 2438.98 695.062 2439.37 693.316C2440.11 693.221 2440.8 692.93 2441.46 692.442 2442.11 691.955 2442.8 691.219 2443.54 690.232 2444.28 689.246 2445.31 687.613 2446.64 685.331Z" fill-rule="evenodd"/><text fill="#000000" fill-opacity="0" font-family="Arial,Arial_MSFontService,sans-serif" font-size="49.2251" x="2438.98" y="688.909">𝐴𝐵</text><path d="M2524.86 623.097 2533.81 630.832 2533.81 632.899 2524.86 640.634 2522.97 638.495 2528.67 633.541 2513.97 633.541 2506.93 633.541 2500.7 633.541 2492.59 633.541 2487.44 633.541 2479.32 633.541 2474.14 633.541 2466.05 633.541 2460.85 633.541 2452.76 633.541 2439.47 633.541 2439.47 630.19 2452.76 630.19 2460.85 630.19 2466.05 630.19 2474.14 630.19 2479.32 630.19 2487.44 630.19 2492.59 630.19 2500.7 630.19 2506.93 630.19 2513.97 630.19 2528.67 630.19 2522.97 625.236Z" fill-rule="evenodd"/><path d="M2562.29 654.677 2578.44 670.788 2594.58 654.677 2597.93 657.992 2581.97 674.246 2597.97 690.428 2594.41 693.993 2578.44 677.703 2561.97 693.85 2558.65 690.5 2574.94 674.246 2558.73 658.241Z" fill-rule="evenodd"/><text fill="#000000" fill-opacity="0" font-family="Arial,Arial_MSFontService,sans-serif" font-size="39.3159" x="2558.65" y="689.078">×</text><path d="M2650.5 653.358 2637.81 675.814 2651.75 675.814 2651.14 664.337C2651.07 662.768 2651.01 660.808 2650.97 658.455 2650.92 656.103 2650.89 654.404 2650.89 653.358ZM2697 645.837C2699.16 645.837 2701.17 645.968 2703.01 646.229 2704.85 646.491 2706.9 646.966 2709.16 647.655L2707.02 657.315 2703.59 657.315C2703.4 654.392 2702.77 652.283 2701.69 650.988 2700.61 649.693 2698.87 649.045 2696.47 649.045 2693.19 649.045 2690.14 650.685 2687.32 653.964 2684.51 657.243 2682.28 661.574 2680.64 666.957 2679 672.339 2678.18 677.335 2678.18 681.945 2678.18 685.557 2678.82 688.219 2680.11 689.929 2681.39 691.64 2683.36 692.496 2686.02 692.496 2687.8 692.496 2689.36 692.229 2690.69 691.694 2692.02 691.159 2693.27 690.256 2694.43 688.985 2695.6 687.714 2696.75 685.937 2697.89 683.656L2701.31 683.656 2699.14 693.779C2694.7 695.015 2690.04 695.633 2685.17 695.633 2680.7 695.633 2677.3 694.349 2674.97 691.783 2672.64 689.217 2671.48 685.462 2671.48 680.519 2671.48 677.026 2672.1 672.998 2673.35 668.436 2674.6 663.873 2676.36 659.869 2678.64 656.424 2680.93 652.978 2683.62 650.352 2686.74 648.546 2689.85 646.74 2693.27 645.837 2697 645.837ZM2650.72 645.837 2656.1 645.837 2658.66 685.581C2658.78 687.458 2659 688.925 2659.31 689.983 2659.61 691.04 2660.04 691.825 2660.57 692.335 2661.11 692.846 2661.88 693.173 2662.91 693.316L2662.51 695.062 2647.69 695.062 2648.08 693.316C2649.48 693.197 2650.53 692.65 2651.21 691.676 2651.9 690.702 2652.25 688.991 2652.25 686.543 2652.25 685.616 2652.21 684.607 2652.14 683.513L2651.89 678.915 2636.21 678.915 2634.25 682.408C2633.32 684.048 2632.64 685.456 2632.22 686.632 2631.79 687.809 2631.57 688.848 2631.57 689.751 2631.57 691.747 2632.77 692.935 2635.17 693.316L2634.78 695.062 2620.2 695.062 2620.6 693.316C2621.33 693.221 2622.03 692.93 2622.68 692.442 2623.33 691.955 2624.03 691.219 2624.77 690.232 2625.5 689.246 2626.54 687.613 2627.87 685.331Z" fill-rule="evenodd"/><text fill="#000000" fill-opacity="0" font-family="Arial,Arial_MSFontService,sans-serif" font-size="49.7954" x="2620.2" y="689.408">𝐴𝐶</text><path d="M2701.5 623.097 2710.45 630.832 2710.45 632.899 2701.5 640.634 2699.61 638.495 2705.32 633.541 2690.61 633.541 2683.57 633.541 2678.49 633.541 2669.23 633.541 2666.37 633.541 2657.1 633.541 2654.22 633.541 2644.98 633.541 2642.08 633.541 2632.84 633.541 2620.69 633.541 2620.69 630.19 2632.84 630.19 2642.08 630.19 2644.98 630.19 2654.22 630.19 2657.1 630.19 2666.37 630.19 2669.23 630.19 2678.49 630.19 2683.57 630.19 2690.61 630.19 2705.32 630.19 2699.61 625.236Z" fill-rule="evenodd"/></g></svg>