<svg width="2550" height="782" xmlns="http://www.w3.org/2000/svg" xmlns:xlink="http://www.w3.org/1999/xlink" overflow="hidden"><defs><clipPath id="clip0"><rect x="789" y="1129" width="2550" height="782"/></clipPath></defs><g clip-path="url(#clip0)" transform="translate(-789 -1129)"><path d="M1092.74 1629.15C1094.45 1629.15 1095.68 1629.6 1096.44 1630.49 1097.2 1631.38 1097.58 1632.57 1097.58 1634.07 1097.58 1635.21 1097.38 1636.52 1096.98 1637.99 1096.57 1639.46 1096 1641.02 1095.27 1642.66 1094.53 1644.3 1093.65 1645.98 1092.63 1647.7 1091.61 1649.43 1090.48 1651.1 1089.24 1652.73 1088.01 1654.36 1086.69 1655.89 1085.29 1657.33 1083.88 1658.77 1082.43 1660.02 1080.92 1661.09 1079.41 1662.16 1077.88 1663.01 1076.32 1663.64 1074.76 1664.27 1073.21 1664.58 1071.67 1664.58 1070.98 1664.58 1070.4 1664.41 1069.94 1664.07 1069.48 1663.72 1069.1 1663.23 1068.82 1662.6 1068.53 1661.97 1068.33 1661.23 1068.21 1660.38 1068.09 1659.52 1068.03 1658.58 1068.03 1657.56 1068.03 1656.21 1068.12 1654.76 1068.28 1653.21 1068.45 1651.67 1068.66 1650.11 1068.93 1648.54L1070.42 1638.67C1070.52 1638.1 1070.59 1637.56 1070.65 1637.05 1070.71 1636.54 1070.74 1636.16 1070.74 1635.92 1070.74 1635.19 1070.62 1634.58 1070.39 1634.11 1070.15 1633.63 1069.74 1633.39 1069.17 1633.39 1068.72 1633.39 1068.24 1633.53 1067.71 1633.8 1067.19 1634.08 1066.66 1634.43 1066.13 1634.85 1065.59 1635.28 1065.08 1635.74 1064.58 1636.23 1064.08 1636.71 1063.61 1637.17 1063.19 1637.6L1061.48 1635.6C1062.21 1634.84 1063 1634.09 1063.83 1633.34 1064.66 1632.59 1065.54 1631.91 1066.47 1631.31 1067.39 1630.7 1068.37 1630.21 1069.39 1629.85 1070.41 1629.48 1071.46 1629.29 1072.53 1629.29 1073.43 1629.29 1074.16 1629.44 1074.74 1629.74 1075.31 1630.04 1075.75 1630.43 1076.07 1630.92 1076.39 1631.4 1076.61 1631.94 1076.73 1632.52 1076.85 1633.1 1076.91 1633.68 1076.91 1634.25 1076.91 1634.58 1076.9 1634.9 1076.87 1635.21 1076.85 1635.52 1076.81 1635.81 1076.77 1636.07L1074.77 1648.97C1074.56 1650.32 1074.38 1651.65 1074.24 1652.94 1074.09 1654.24 1074.02 1655.39 1074.02 1656.38 1074.02 1657.38 1074.08 1658.19 1074.2 1658.81 1074.32 1659.43 1074.55 1659.73 1074.88 1659.73 1075.66 1659.73 1076.65 1659.42 1077.84 1658.79 1079.02 1658.16 1080.27 1657.29 1081.58 1656.19 1082.89 1655.08 1084.19 1653.78 1085.5 1652.27 1086.81 1650.76 1087.98 1649.12 1089.03 1647.37 1090.07 1645.61 1090.92 1643.75 1091.58 1641.81 1092.23 1639.86 1092.56 1637.9 1092.56 1635.92 1092.56 1635.07 1092.37 1634.41 1092 1633.95 1091.64 1633.48 1091.06 1633.25 1090.28 1633.25 1089.28 1633.25 1088.36 1633.64 1087.51 1634.41 1086.67 1635.18 1085.8 1636.2 1084.89 1637.46L1082.86 1635.64C1083.43 1634.78 1084.1 1633.96 1084.88 1633.18 1085.65 1632.4 1086.47 1631.71 1087.34 1631.11 1088.2 1630.52 1089.1 1630.04 1090.03 1629.69 1090.95 1629.33 1091.86 1629.15 1092.74 1629.15Z" fill="#FF0000" fill-rule="evenodd"/><text fill="#000000" fill-opacity="0" font-family="Arial,Arial_MSFontService,sans-serif" font-size="35.4307" x="1061.48" y="1660.15">­ЮЉБ</text><path d="M1089.38 1606.47 1098.32 1614.21 1098.32 1616.27 1089.38 1624.01 1087.49 1621.87 1093.19 1616.92 1071.45 1616.92 1071.45 1613.56 1093.19 1613.56 1087.49 1608.61Z" fill="#FF0000" fill-rule="evenodd"/><text fill="#000000" fill-opacity="0" font-family="Arial,Arial_MSFontService,sans-serif" font-size="17.5371" x="1071.45" y="1621.82">нд</text><path d="M1184.47 1839.15C1186 1839.15 1187.2 1839.66 1188.07 1840.68 1188.95 1841.7 1189.39 1843.08 1189.39 1844.82 1189.39 1846.69 1189.03 1849.04 1188.29 1851.84L1186.72 1858.01C1186.32 1859.57 1186.02 1860.8 1185.85 1861.68 1185.67 1862.56 1185.54 1863.32 1185.45 1863.96 1185.37 1864.6 1185.33 1865.13 1185.33 1865.56 1185.33 1867.2 1185.6 1868.38 1186.15 1869.11 1186.7 1869.83 1187.59 1870.2 1188.82 1870.2 1189.82 1870.2 1190.9 1869.8 1192.05 1869 1193.2 1868.21 1194.43 1867.01 1195.72 1865.4 1197.02 1863.8 1198.05 1862.24 1198.84 1860.73 1199.62 1859.22 1200.26 1857.36 1200.76 1855.15L1204.15 1839.72 1210.32 1839.72 1205.11 1862.32C1204.59 1864.6 1204.33 1866.36 1204.33 1867.59 1204.33 1868.54 1204.48 1869.23 1204.79 1869.66 1205.1 1870.09 1205.59 1870.3 1206.25 1870.3 1206.97 1870.3 1207.73 1870.01 1208.53 1869.43 1209.34 1868.85 1210.48 1867.74 1211.96 1866.1L1213.99 1868.09C1211.83 1870.4 1209.98 1872.03 1208.46 1872.98 1206.94 1873.93 1205.33 1874.4 1203.62 1874.4 1202.14 1874.4 1200.97 1873.92 1200.09 1872.94 1199.21 1871.97 1198.77 1870.67 1198.77 1869.06 1198.77 1867.77 1199.05 1866.37 1199.62 1864.85L1199.2 1864.71C1196.84 1868.01 1194.62 1870.45 1192.51 1872.01 1190.41 1873.58 1188.25 1874.37 1186.04 1874.37 1183.83 1874.37 1182.13 1873.73 1180.95 1872.46 1179.76 1871.19 1179.16 1869.42 1179.16 1867.17 1179.16 1865.67 1179.51 1863.54 1180.2 1860.79L1182.51 1851.45C1183.16 1848.86 1183.48 1847.03 1183.48 1845.96 1183.48 1845.01 1183.32 1844.32 1183.01 1843.89 1182.7 1843.46 1182.22 1843.25 1181.55 1843.25 1180.81 1843.25 1180.04 1843.55 1179.22 1844.16 1178.4 1844.76 1177.27 1845.86 1175.85 1847.46L1173.82 1845.46C1175.84 1843.42 1177.36 1842.01 1178.38 1841.25 1179.4 1840.49 1180.38 1839.95 1181.32 1839.63 1182.26 1839.31 1183.31 1839.15 1184.47 1839.15Z" fill="#0000CC" fill-rule="evenodd"/><text fill="#000000" fill-opacity="0" font-family="Arial,Arial_MSFontService,sans-serif" font-size="35.2524" x="1173.82" y="1870">­ЮЉб</text><path d="M1205.69 1816.37 1214.64 1824.11 1214.64 1826.18 1205.69 1833.91 1203.81 1831.77 1209.51 1826.82 1198.38 1826.82 1187.77 1826.82 1176.99 1826.82 1176.99 1823.47 1187.77 1823.47 1198.38 1823.47 1209.51 1823.47 1203.81 1818.51Z" fill="#0000CC" fill-rule="evenodd"/><path d="M1939.11 1456.38 1958.2 1456.38 1958.2 1459.07 1939.11 1459.07ZM1954.74 1428.4C1950.83 1428.88 1946.65 1429.23 1942.19 1429.45L1942.19 1435.76 1955.17 1435.76C1954.88 1432.82 1954.74 1430.37 1954.74 1428.4ZM1968.06 1422.9 1969.64 1425.37C1965.58 1426.53 1961.59 1427.37 1957.69 1427.89 1957.64 1431.11 1957.77 1433.74 1958.09 1435.76L1971.63 1435.76 1971.63 1438.5 1958.47 1438.5C1959.04 1443.64 1960.24 1448.09 1962.07 1451.85 1963.89 1455.61 1965.42 1457.49 1966.63 1457.49 1968.35 1457.49 1969.72 1454.06 1970.74 1447.2L1973.43 1448.62C1972.75 1452.56 1971.9 1455.5 1970.89 1457.45 1969.88 1459.39 1968.51 1460.36 1966.79 1460.36 1964.23 1460.36 1961.83 1458.05 1959.6 1453.44 1957.36 1448.83 1956 1443.85 1955.52 1438.5L1942.19 1438.5 1942.19 1450.18C1946.97 1449.25 1951.07 1448.24 1954.47 1447.15L1954.47 1449.94C1950.01 1451.44 1944.69 1452.66 1938.52 1453.59L1937.74 1450.93C1938.79 1450.59 1939.32 1449.96 1939.32 1449.03L1939.32 1426.74C1950.4 1426.38 1959.98 1425.1 1968.06 1422.9ZM1951 1411.83C1951.9 1413.5 1952.74 1415.37 1953.53 1417.44L1972.94 1417.44 1972.94 1420.21 1932.9 1420.21 1932.9 1435.44C1932.9 1445.73 1931.23 1453.96 1927.88 1460.12L1925.46 1458.37C1926.82 1455.83 1927.93 1452.44 1928.79 1448.21 1929.65 1443.97 1930.08 1437.81 1930.08 1429.72L1930.08 1417.44 1950.39 1417.44C1950.06 1416.23 1949.31 1414.62 1948.13 1412.61Z" fill-rule="evenodd"/><text fill="#000000" fill-opacity="0" font-family="Arial,Arial_MSFontService,sans-serif" font-size="48.5278" x="1925.46" y="1454.29">т║Ћ</text><path d="M2071.56 1453.91C2076.52 1455.27 2080.38 1456.59 2083.16 1457.86L2081.79 1460.28C2078.89 1458.92 2075.09 1457.64 2070.4 1456.44ZM2058.69 1446.88 2058.69 1450.4 2077.39 1450.4 2077.39 1446.88ZM1997.87 1445.94 1997.87 1453.86 2010.84 1453.86 2010.84 1445.94ZM2058.69 1441.1 2058.69 1444.57 2077.39 1444.57 2077.39 1441.1ZM1997.87 1435.87 1997.87 1443.25 2010.84 1443.25 2010.84 1435.87ZM2058.69 1435.28 2058.69 1438.74 2077.39 1438.74 2077.39 1435.28ZM2055.98 1432.72 2080.12 1432.72 2080.12 1452.81 2064.01 1452.81 2065.33 1454.34C2060.9 1456.98 2056.62 1458.88 2052.46 1460.06L2050.93 1457.7C2055.39 1456.36 2059.29 1454.73 2062.64 1452.81L2055.98 1452.81ZM2013.68 1426.25 2013.68 1453.86 2021.5 1453.86 2021.5 1426.25ZM1997.87 1426.25 1997.87 1433.07 2010.84 1433.07 2010.84 1426.25ZM1987.07 1426.25 1987.07 1453.86 1994.89 1453.86 1994.89 1426.25ZM1980.36 1413.5 2028.11 1413.5 2028.11 1416.24 2006.49 1416.24C2005.31 1419.08 2004.17 1421.46 2003.08 1423.38L2024.37 1423.38 2024.37 1460.06 2021.5 1460.06 2021.5 1456.76 1987.07 1456.76 1987.07 1460.06 1984.17 1460.06 1984.17 1423.38 1999.72 1423.38C2001.42 1420.78 2002.61 1418.4 2003.29 1416.24L1980.36 1416.24ZM2050.42 1412.4 2052.25 1414.6C2050.37 1415.44 2048.22 1416.19 2045.8 1416.85L2045.8 1425.98 2050.72 1425.98 2050.72 1428.62 2045.8 1428.62 2045.8 1431.41C2049.15 1434.45 2051.67 1437.08 2053.35 1439.28L2051.87 1441.75C2049.92 1439.13 2047.9 1436.86 2045.8 1434.93L2045.8 1460.17 2042.96 1460.17 2042.96 1436.08C2041.24 1440.34 2039.24 1444.07 2036.97 1447.25L2034.87 1445.27C2037.9 1440.99 2040.59 1435.44 2042.96 1428.62L2035.41 1428.62 2035.41 1425.98 2042.96 1425.98 2042.96 1417.66C2040.83 1418.23 2038.88 1418.63 2037.13 1418.87L2035.76 1416.45C2042.49 1415.09 2047.38 1413.74 2050.42 1412.4ZM2066.83 1411.99 2069.57 1411.99 2069.57 1415.91 2082 1415.91 2082 1418.28 2069.57 1418.28 2069.57 1421.47 2080.63 1421.47 2080.63 1423.84 2069.57 1423.84 2069.57 1427.25 2083.27 1427.25 2083.27 1429.61 2052.97 1429.61 2052.97 1427.25 2066.83 1427.25 2066.83 1423.84 2055.44 1423.84 2055.44 1421.47 2066.83 1421.47 2066.83 1418.28 2054.13 1418.28 2054.13 1415.91 2066.83 1415.91Z" fill-rule="evenodd"/><text fill="#000000" fill-opacity="0" font-family="Arial,Arial_MSFontService,sans-serif" font-size="48.2861" x="1980.36" y="1454.24">жЮбуЕЇ</text><path d="M2115.84 1425.61 2109.72 1442.93 2120.94 1442.93ZM2114.79 1420.34 2119.04 1420.34 2128.17 1450.29C2128.6 1451.68 2128.98 1452.75 2129.31 1453.48 2129.64 1454.22 2130.04 1454.79 2130.51 1455.2 2130.97 1455.61 2131.61 1455.92 2132.41 1456.12L2132.41 1457.43 2120.03 1457.43 2120.03 1456.12C2120.93 1455.94 2121.59 1455.74 2122.03 1455.53 2122.47 1455.31 2122.8 1455.01 2123.01 1454.63 2123.23 1454.24 2123.33 1453.73 2123.33 1453.08 2123.33 1452.47 2123.26 1451.81 2123.12 1451.11 2122.98 1450.4 2122.77 1449.61 2122.5 1448.73L2121.51 1445.27 2108.99 1445.27 2108.08 1447.9C2107.62 1449.22 2107.31 1450.23 2107.17 1450.91 2107.02 1451.59 2106.95 1452.2 2106.95 1452.76 2106.95 1453.83 2107.23 1454.62 2107.77 1455.12 2108.32 1455.62 2109.16 1455.95 2110.28 1456.12L2110.28 1457.43 2098.82 1457.43 2098.82 1456.12C2099.82 1455.95 2100.69 1455.37 2101.43 1454.37 2102.18 1453.37 2102.9 1451.94 2103.6 1450.07Z" fill-rule="evenodd"/><text fill="#000000" fill-opacity="0" font-family="Arial,Arial_MSFontService,sans-serif" font-size="37.0874" x="2098.82" y="1452.8">A</text><path d="M2152.32 1445.51 2185.4 1445.51 2185.4 1449.08 2152.32 1449.08ZM2152.32 1434.36 2185.4 1434.36 2185.4 1437.93 2152.32 1437.93Z" fill-rule="evenodd"/><text fill="#000000" fill-opacity="0" font-family="Arial,Arial_MSFontService,sans-serif" font-size="14.7168" x="2152.32" y="1447.24">=</text><path d="M2357.14 1416.73 2361.28 1416.73 2361.28 1466.71 2357.14 1466.71ZM2211.48 1416.73 2215.62 1416.73 2215.62 1466.71 2211.48 1466.71Z" fill-rule="evenodd"/><path d="M2230.92 1431.3C2232.06 1431.3 2232.97 1431.69 2233.63 1432.46 2234.29 1433.23 2234.62 1434.26 2234.62 1435.57 2234.62 1436.99 2234.35 1438.75 2233.79 1440.86L2232.61 1445.51C2232.31 1446.69 2232.09 1447.61 2231.95 1448.27 2231.82 1448.94 2231.72 1449.51 2231.66 1449.99 2231.59 1450.48 2231.56 1450.88 2231.56 1451.2 2231.56 1452.44 2231.77 1453.33 2232.18 1453.87 2232.59 1454.42 2233.26 1454.69 2234.19 1454.69 2234.95 1454.69 2235.76 1454.39 2236.63 1453.79 2237.49 1453.19 2238.42 1452.29 2239.39 1451.08 2240.37 1449.87 2241.15 1448.7 2241.74 1447.56 2242.33 1446.43 2242.82 1445.02 2243.19 1443.36L2245.74 1431.73 2250.39 1431.73 2246.47 1448.76C2246.07 1450.48 2245.88 1451.8 2245.88 1452.73 2245.88 1453.45 2245.99 1453.97 2246.23 1454.29 2246.46 1454.61 2246.83 1454.77 2247.33 1454.77 2247.86 1454.77 2248.44 1454.55 2249.05 1454.12 2249.65 1453.68 2250.51 1452.84 2251.62 1451.6L2253.15 1453.11C2251.53 1454.84 2250.14 1456.07 2248.99 1456.79 2247.85 1457.5 2246.63 1457.86 2245.34 1457.86 2244.23 1457.86 2243.34 1457.49 2242.68 1456.76 2242.02 1456.03 2241.69 1455.05 2241.69 1453.83 2241.69 1452.87 2241.9 1451.81 2242.33 1450.66L2242.01 1450.56C2240.24 1453.05 2238.56 1454.88 2236.97 1456.06 2235.39 1457.24 2233.77 1457.83 2232.1 1457.83 2230.44 1457.83 2229.16 1457.36 2228.26 1456.4 2227.36 1455.44 2226.92 1454.11 2226.92 1452.41 2226.92 1451.28 2227.18 1449.68 2227.7 1447.6L2229.44 1440.57C2229.92 1438.61 2230.17 1437.24 2230.17 1436.43 2230.17 1435.71 2230.05 1435.2 2229.82 1434.87 2229.58 1434.55 2229.22 1434.39 2228.72 1434.39 2228.16 1434.39 2227.57 1434.62 2226.96 1435.07 2226.34 1435.53 2225.49 1436.36 2224.42 1437.56L2222.89 1436.05C2224.41 1434.52 2225.56 1433.46 2226.33 1432.89 2227.1 1432.31 2227.83 1431.91 2228.54 1431.66 2229.25 1431.42 2230.04 1431.3 2230.92 1431.3Z" fill-rule="evenodd"/><text fill="#000000" fill-opacity="0" font-family="Arial,Arial_MSFontService,sans-serif" font-size="26.5601" x="2222.89" y="1454.54">­ЮЉб</text><path d="M2247 1414.14 2253.75 1419.97 2253.75 1421.53 2247 1427.35 2245.58 1425.74 2249.88 1422.01 2241.25 1422.01 2233.5 1422.01 2225.13 1422.01 2225.13 1419.48 2233.5 1419.48 2241.25 1419.48 2249.88 1419.48 2245.58 1415.75Z" fill-rule="evenodd"/><path d="M2274.94 1427 2287.11 1439.14 2299.27 1427 2301.8 1429.5 2289.76 1441.75 2301.82 1453.94 2299.14 1456.63 2287.11 1444.35 2274.7 1456.52 2272.2 1453.99 2284.47 1441.75 2272.25 1429.69Z" fill-rule="evenodd"/><text fill="#000000" fill-opacity="0" font-family="Arial,Arial_MSFontService,sans-serif" font-size="29.6216" x="2272.2" y="1452.92">├Ќ</text><path d="M2344.55 1431.19C2345.83 1431.19 2346.77 1431.53 2347.34 1432.2 2347.91 1432.87 2348.2 1433.77 2348.2 1434.9 2348.2 1435.76 2348.05 1436.74 2347.74 1437.85 2347.44 1438.96 2347.01 1440.14 2346.45 1441.37 2345.9 1442.61 2345.23 1443.87 2344.46 1445.17 2343.69 1446.47 2342.84 1447.73 2341.91 1448.96 2340.98 1450.19 2339.99 1451.34 2338.93 1452.42 2337.88 1453.51 2336.78 1454.45 2335.64 1455.26 2334.51 1456.06 2333.35 1456.7 2332.18 1457.18 2331.01 1457.65 2329.84 1457.89 2328.67 1457.89 2328.15 1457.89 2327.72 1457.76 2327.37 1457.5 2327.02 1457.24 2326.74 1456.87 2326.53 1456.4 2326.31 1455.92 2326.16 1455.36 2326.07 1454.72 2325.98 1454.07 2325.93 1453.37 2325.93 1452.6 2325.93 1451.58 2326 1450.49 2326.12 1449.32 2326.25 1448.16 2326.41 1446.98 2326.61 1445.8L2327.73 1438.36C2327.81 1437.93 2327.86 1437.53 2327.91 1437.14 2327.95 1436.76 2327.98 1436.48 2327.98 1436.3 2327.98 1435.74 2327.89 1435.28 2327.71 1434.93 2327.53 1434.57 2327.22 1434.39 2326.79 1434.39 2326.45 1434.39 2326.09 1434.49 2325.69 1434.7 2325.3 1434.9 2324.9 1435.17 2324.5 1435.49 2324.09 1435.81 2323.71 1436.16 2323.33 1436.52 2322.95 1436.89 2322.6 1437.24 2322.28 1437.56L2320.99 1436.05C2321.55 1435.48 2322.14 1434.91 2322.77 1434.35 2323.39 1433.79 2324.05 1433.28 2324.75 1432.82 2325.45 1432.36 2326.19 1432 2326.95 1431.72 2327.72 1431.44 2328.51 1431.3 2329.32 1431.3 2330 1431.3 2330.55 1431.41 2330.98 1431.64 2331.41 1431.86 2331.75 1432.16 2331.99 1432.52 2332.23 1432.89 2332.4 1433.29 2332.49 1433.73 2332.58 1434.17 2332.62 1434.6 2332.62 1435.03 2332.62 1435.28 2332.61 1435.53 2332.59 1435.76 2332.58 1435.99 2332.55 1436.21 2332.51 1436.4L2331.01 1446.13C2330.85 1447.15 2330.71 1448.14 2330.61 1449.12 2330.5 1450.1 2330.45 1450.96 2330.45 1451.71 2330.45 1452.46 2330.49 1453.07 2330.58 1453.54 2330.67 1454 2330.84 1454.24 2331.09 1454.24 2331.68 1454.24 2332.42 1454 2333.32 1453.52 2334.21 1453.05 2335.15 1452.4 2336.14 1451.56 2337.12 1450.73 2338.11 1449.75 2339.09 1448.61 2340.08 1447.47 2340.96 1446.24 2341.75 1444.92 2342.54 1443.59 2343.18 1442.2 2343.67 1440.73 2344.16 1439.26 2344.41 1437.78 2344.41 1436.3 2344.41 1435.65 2344.27 1435.16 2343.99 1434.81 2343.72 1434.46 2343.28 1434.28 2342.69 1434.28 2341.94 1434.28 2341.25 1434.57 2340.61 1435.16 2339.98 1435.74 2339.32 1436.5 2338.64 1437.45L2337.11 1436.08C2337.54 1435.44 2338.04 1434.82 2338.62 1434.23 2339.21 1433.64 2339.82 1433.12 2340.48 1432.67 2341.13 1432.22 2341.81 1431.87 2342.5 1431.6 2343.2 1431.33 2343.88 1431.19 2344.55 1431.19Z" fill-rule="evenodd"/><text fill="#000000" fill-opacity="0" font-family="Arial,Arial_MSFontService,sans-serif" font-size="26.6943" x="2320.99" y="1454.55">­ЮЉБ</text><path d="M2341.97 1414.12 2348.71 1419.95 2348.71 1421.5 2341.97 1427.33 2340.55 1425.72 2344.84 1421.99 2328.46 1421.99 2328.46 1419.46 2344.84 1419.46 2340.55 1415.73Z" fill-rule="evenodd"/><text fill="#000000" fill-opacity="0" font-family="Arial,Arial_MSFontService,sans-serif" font-size="13.2129" x="2328.46" y="1425.68">нд</text><path d="M2507.58 1446.53 2507.58 1451.93 2524.23 1451.93 2524.23 1446.53ZM2504.6 1443.84 2527.16 1443.84 2527.16 1454.59 2504.6 1454.59ZM2495.25 1437.34 2536.66 1437.34 2536.66 1455.9C2536.66 1457.19 2536.33 1458.23 2535.67 1459.02 2535.01 1459.8 2533.41 1460.2 2530.89 1460.2 2530.06 1460.2 2529.06 1460.17 2527.88 1460.12L2526.94 1457.27C2529.16 1457.36 2530.65 1457.4 2531.4 1457.4 2533.01 1457.4 2533.82 1456.73 2533.82 1455.39L2533.82 1440.11 2498.07 1440.11 2498.07 1460.17 2495.25 1460.17ZM2503.44 1425.98 2503.44 1430.98 2528.26 1430.98 2528.26 1425.98ZM2500.49 1423.22 2531.29 1423.22 2531.29 1433.66 2500.49 1433.66ZM2515.72 1411.78C2516.34 1413.03 2516.93 1414.79 2517.49 1417.07L2539.03 1417.07 2539.03 1419.7 2492.73 1419.7 2492.73 1417.07 2514.51 1417.07C2514.36 1416.01 2513.84 1414.54 2512.92 1412.66Z" fill-rule="evenodd"/><text fill="#000000" fill-opacity="0" font-family="Arial,Arial_MSFontService,sans-serif" font-size="48.4204" x="2492.73" y="1454.15">жФў</text><path d="M2563.44 1419 2565.05 1419 2565.05 1435.97 2565.16 1436C2566.55 1434.59 2567.66 1433.6 2568.47 1433.03 2569.29 1432.47 2570.09 1432.04 2570.89 1431.76 2571.69 1431.47 2572.54 1431.33 2573.45 1431.33 2574.44 1431.33 2575.32 1431.44 2576.09 1431.68 2576.86 1431.91 2577.53 1432.26 2578.11 1432.74 2578.7 1433.21 2579.17 1433.79 2579.54 1434.48 2579.9 1435.17 2580.18 1436 2580.36 1436.95 2580.54 1437.91 2580.62 1439.13 2580.62 1440.59L2580.62 1450.72C2580.62 1452.28 2580.69 1453.34 2580.83 1453.9 2580.96 1454.46 2581.2 1454.9 2581.55 1455.22 2581.9 1455.53 2582.6 1455.83 2583.66 1456.12L2583.66 1457.43 2573.08 1457.43 2573.08 1456.12C2573.78 1455.9 2574.28 1455.71 2574.58 1455.55 2574.89 1455.39 2575.14 1455.17 2575.35 1454.88 2575.55 1454.59 2575.71 1454.15 2575.83 1453.55 2575.95 1452.95 2576.01 1452.04 2576.01 1450.83L2576.01 1443.79C2576.01 1441.41 2575.88 1439.59 2575.64 1438.32 2575.4 1437.06 2574.93 1436.12 2574.22 1435.49 2573.51 1434.86 2572.52 1434.55 2571.25 1434.55 2570.54 1434.55 2569.89 1434.68 2569.32 1434.93 2568.75 1435.18 2568.08 1435.63 2567.33 1436.27 2566.58 1436.91 2566.01 1437.58 2565.63 1438.26 2565.24 1438.94 2565.05 1439.66 2565.05 1440.43L2565.05 1450.72C2565.05 1451.94 2565.08 1452.8 2565.14 1453.32 2565.21 1453.84 2565.33 1454.28 2565.51 1454.63 2565.68 1454.97 2565.96 1455.26 2566.32 1455.48 2566.69 1455.71 2567.26 1455.92 2568.03 1456.12L2568.03 1457.43 2557.39 1457.43 2557.39 1456.12C2558.18 1455.9 2558.75 1455.7 2559.09 1455.5 2559.43 1455.3 2559.69 1455.05 2559.88 1454.75 2560.07 1454.44 2560.21 1454 2560.3 1453.43 2560.38 1452.86 2560.43 1451.95 2560.43 1450.72L2560.43 1428.24C2560.43 1426.52 2560.42 1425.32 2560.39 1424.64 2560.36 1423.96 2560.29 1423.38 2560.17 1422.91 2560.06 1422.43 2559.9 1422.06 2559.69 1421.79 2559.49 1421.53 2559.21 1421.31 2558.86 1421.15 2558.51 1420.99 2557.88 1420.83 2556.97 1420.67L2556.97 1419.27Z" fill-rule="evenodd"/><text fill="#000000" fill-opacity="0" font-family="Arial,Arial_MSFontService,sans-serif" font-size="38.4302" x="2556.97" y="1452.63">h</text><path d="M2604.9 1445.51 2637.98 1445.51 2637.98 1449.08 2604.9 1449.08ZM2604.9 1434.36 2637.98 1434.36 2637.98 1437.93 2604.9 1437.93Z" fill-rule="evenodd"/><text fill="#000000" fill-opacity="0" font-family="Arial,Arial_MSFontService,sans-serif" font-size="14.7168" x="2604.9" y="1447.24">=</text><path d="M2821.32 1372.33 2826.15 1372.33 2826.15 1511.12 2821.32 1511.12ZM2664.06 1372.33 2668.9 1372.33 2668.9 1511.12 2664.06 1511.12Z" fill-rule="evenodd"/><path d="M2677.31 1390.14 2684.34 1390.14 2685.96 1411.33C2688.48 1407.21 2690.3 1404.08 2691.42 1401.93 2692.54 1399.78 2693.37 1397.92 2693.91 1396.36 2694.44 1394.79 2694.85 1393.16 2695.14 1391.46L2695.44 1390.14 2699.3 1390.14 2701.26 1411.36C2704.06 1407.38 2706.18 1403.91 2707.64 1400.95 2709.1 1397.99 2709.83 1395.57 2709.83 1393.71 2709.83 1392.87 2709.65 1392.3 2709.29 1391.99 2708.94 1391.69 2708.33 1391.51 2707.47 1391.46L2707.74 1390.14 2714.66 1390.14 2715.39 1391.48C2714.76 1393.08 2714.26 1394.3 2713.89 1395.16 2713.51 1396.02 2713.02 1397.06 2712.41 1398.27 2711.8 1399.47 2711.16 1400.68 2710.47 1401.88 2709.79 1403.08 2708.99 1404.4 2708.07 1405.84 2707.15 1407.28 2706.12 1408.85 2704.97 1410.54 2703.82 1412.23 2702.47 1414.13 2700.91 1416.24L2697.72 1416.24 2696.62 1405.02C2696.53 1404.14 2696.43 1403 2696.34 1401.58 2696.24 1400.17 2696.17 1399.08 2696.13 1398.31L2695.84 1398.28C2694.87 1400.66 2693.56 1403.31 2691.89 1406.23 2690.23 1409.15 2688.17 1412.48 2685.71 1416.24L2682.12 1416.24 2680.07 1396.02C2679.97 1394.98 2679.83 1394.14 2679.67 1393.5 2679.51 1392.85 2679.24 1392.37 2678.87 1392.05 2678.49 1391.73 2677.87 1391.53 2677.01 1391.46Z" fill-rule="evenodd"/><text fill="#000000" fill-opacity="0" font-family="Arial,Arial_MSFontService,sans-serif" font-size="26.1035" x="2677.01" y="1412.98">­ЮЉц</text><path d="M2709.46 1372.52 2716.2 1378.35 2716.2 1379.91 2709.46 1385.74 2708.04 1384.13 2712.34 1380.39 2701.3 1380.39 2695.95 1380.39 2694.17 1380.39 2685.18 1380.39 2678.06 1380.39 2678.06 1377.87 2685.18 1377.87 2694.17 1377.87 2695.95 1377.87 2701.3 1377.87 2712.34 1377.87 2708.04 1374.14Z" fill-rule="evenodd"/><path d="M2737.6 1385.39 2749.77 1397.53 2761.94 1385.39 2764.46 1387.89 2752.43 1400.13 2764.49 1412.32 2761.8 1415.01 2749.77 1402.74 2737.36 1414.9 2734.87 1412.38 2747.14 1400.13 2734.92 1388.07Z" fill-rule="evenodd"/><text fill="#000000" fill-opacity="0" font-family="Arial,Arial_MSFontService,sans-serif" font-size="29.6216" x="2734.87" y="1411.31">├Ќ</text><path d="M2790.45 1389.68C2791.6 1389.68 2792.5 1390.07 2793.16 1390.84 2793.83 1391.61 2794.16 1392.65 2794.16 1393.95 2794.16 1395.37 2793.88 1397.13 2793.33 1399.25L2792.14 1403.89C2791.84 1405.07 2791.62 1405.99 2791.49 1406.66 2791.35 1407.32 2791.25 1407.89 2791.19 1408.38 2791.13 1408.86 2791.1 1409.26 2791.1 1409.58 2791.1 1410.82 2791.3 1411.71 2791.71 1412.26 2792.13 1412.8 2792.8 1413.08 2793.73 1413.08 2794.48 1413.08 2795.29 1412.78 2796.16 1412.18 2797.03 1411.58 2797.95 1410.67 2798.92 1409.46 2799.9 1408.26 2800.68 1407.08 2801.27 1405.95 2801.87 1404.81 2802.35 1403.41 2802.72 1401.74L2805.28 1390.11 2809.92 1390.11 2806 1407.14C2805.61 1408.86 2805.41 1410.18 2805.41 1411.12 2805.41 1411.83 2805.53 1412.35 2805.76 1412.67 2805.99 1413 2806.36 1413.16 2806.86 1413.16 2807.4 1413.16 2807.97 1412.94 2808.58 1412.5 2809.19 1412.06 2810.05 1411.22 2811.16 1409.99L2812.69 1411.49C2811.06 1413.23 2809.67 1414.45 2808.53 1415.17 2807.38 1415.89 2806.16 1416.24 2804.87 1416.24 2803.76 1416.24 2802.88 1415.88 2802.21 1415.14 2801.55 1414.41 2801.22 1413.43 2801.22 1412.22 2801.22 1411.25 2801.44 1410.19 2801.87 1409.05L2801.54 1408.94C2799.77 1411.43 2798.09 1413.26 2796.51 1414.45 2794.92 1415.63 2793.3 1416.22 2791.63 1416.22 2789.97 1416.22 2788.69 1415.74 2787.79 1414.78 2786.9 1413.82 2786.45 1412.49 2786.45 1410.79 2786.45 1409.67 2786.71 1408.06 2787.23 1405.99L2788.97 1398.95C2789.46 1397 2789.7 1395.62 2789.7 1394.81 2789.7 1394.1 2789.58 1393.58 2789.35 1393.26 2789.12 1392.93 2788.75 1392.77 2788.25 1392.77 2787.69 1392.77 2787.11 1393 2786.49 1393.46 2785.87 1393.91 2785.03 1394.74 2783.95 1395.94L2782.42 1394.44C2783.94 1392.9 2785.09 1391.84 2785.86 1391.27 2786.63 1390.7 2787.37 1390.29 2788.08 1390.05 2788.78 1389.81 2789.57 1389.68 2790.45 1389.68Z" fill-rule="evenodd"/><text fill="#000000" fill-opacity="0" font-family="Arial,Arial_MSFontService,sans-serif" font-size="26.5601" x="2782.42" y="1412.92">­ЮЉб</text><path d="M2806.54 1372.52 2813.28 1378.35 2813.28 1379.91 2806.54 1385.74 2805.11 1384.13 2809.41 1380.39 2800.78 1380.39 2793.03 1380.39 2784.67 1380.39 2784.67 1377.87 2793.03 1377.87 2800.78 1377.87 2809.41 1377.87 2805.11 1374.14Z" fill-rule="evenodd"/><path d="M2768.2 1453.51 2772.33 1453.51 2772.33 1503.49 2768.2 1503.49ZM2717.9 1453.51 2722.03 1453.51 2722.03 1503.49 2717.9 1503.49Z" fill-rule="evenodd"/><path d="M2737.33 1468.08C2738.48 1468.08 2739.38 1468.47 2740.04 1469.24 2740.71 1470.01 2741.04 1471.05 2741.04 1472.35 2741.04 1473.77 2740.76 1475.53 2740.2 1477.64L2739.02 1482.29C2738.72 1483.47 2738.5 1484.39 2738.36 1485.06 2738.23 1485.72 2738.13 1486.29 2738.07 1486.77 2738.01 1487.26 2737.98 1487.66 2737.98 1487.98 2737.98 1489.22 2738.18 1490.11 2738.59 1490.65 2739.01 1491.2 2739.68 1491.47 2740.61 1491.47 2741.36 1491.47 2742.17 1491.17 2743.04 1490.57 2743.91 1489.97 2744.83 1489.07 2745.8 1487.86 2746.78 1486.65 2747.56 1485.48 2748.15 1484.34 2748.74 1483.21 2749.23 1481.81 2749.6 1480.14L2752.16 1468.51 2756.8 1468.51 2752.88 1485.54C2752.49 1487.26 2752.29 1488.58 2752.29 1489.51 2752.29 1490.23 2752.41 1490.75 2752.64 1491.07 2752.87 1491.39 2753.24 1491.55 2753.74 1491.55 2754.28 1491.55 2754.85 1491.33 2755.46 1490.9 2756.07 1490.46 2756.93 1489.62 2758.04 1488.39L2759.57 1489.89C2757.94 1491.63 2756.55 1492.85 2755.4 1493.57 2754.26 1494.28 2753.04 1494.64 2751.75 1494.64 2750.64 1494.64 2749.76 1494.28 2749.09 1493.54 2748.43 1492.81 2748.1 1491.83 2748.1 1490.61 2748.1 1489.65 2748.31 1488.59 2748.74 1487.45L2748.42 1487.34C2746.65 1489.83 2744.97 1491.66 2743.39 1492.84 2741.8 1494.03 2740.18 1494.62 2738.51 1494.62 2736.85 1494.62 2735.57 1494.14 2734.67 1493.18 2733.78 1492.22 2733.33 1490.89 2733.33 1489.19 2733.33 1488.06 2733.59 1486.46 2734.11 1484.38L2735.85 1477.35C2736.34 1475.4 2736.58 1474.02 2736.58 1473.21 2736.58 1472.5 2736.46 1471.98 2736.23 1471.65 2736 1471.33 2735.63 1471.17 2735.13 1471.17 2734.57 1471.17 2733.99 1471.4 2733.37 1471.86 2732.75 1472.31 2731.91 1473.14 2730.83 1474.34L2729.3 1472.84C2730.82 1471.3 2731.97 1470.24 2732.74 1469.67 2733.51 1469.09 2734.25 1468.69 2734.95 1468.45 2735.66 1468.2 2736.45 1468.08 2737.33 1468.08Z" fill-rule="evenodd"/><text fill="#000000" fill-opacity="0" font-family="Arial,Arial_MSFontService,sans-serif" font-size="26.5601" x="2729.3" y="1491.32">­ЮЉб</text><path d="M2753.42 1450.92 2760.16 1456.75 2760.16 1458.31 2753.42 1464.13 2751.99 1462.52 2756.29 1458.79 2747.66 1458.79 2739.91 1458.79 2731.54 1458.79 2731.54 1456.27 2739.91 1456.27 2747.66 1456.27 2756.29 1456.27 2751.99 1452.53Z" fill-rule="evenodd"/><path d="M2675.62 1439.44 2814.62 1439.44 2814.62 1443.44 2675.62 1443.44Z" fill-rule="evenodd"/><path d="M1954.79 1647.78 1956.83 1653.55 1961.45 1653.55C1962.43 1651.44 1963.2 1649.52 1963.76 1647.78ZM1951.92 1641.17 1951.92 1645.31 1967.28 1645.31 1967.28 1641.17ZM1949.12 1638.7 1970.02 1638.7 1970.02 1647.78 1966.77 1647.78C1965.87 1650.11 1965.08 1652.03 1964.4 1653.55L1973.05 1653.55 1973.05 1656.13 1945.5 1656.13 1945.5 1653.55 1953.9 1653.55C1953.58 1651.91 1952.9 1649.98 1951.86 1647.78L1949.12 1647.78ZM1932.07 1633.6 1932.07 1636.74C1933.97 1637.32 1936.17 1638.14 1938.68 1639.21L1937.47 1641.58C1936.29 1641 1934.49 1640.29 1932.07 1639.43 1932 1642.74 1931.84 1645.38 1931.59 1647.35 1934.16 1646.24 1936.84 1644.83 1939.62 1643.11L1939.62 1633.6ZM1946.65 1632.98 1972.73 1632.98 1972.73 1635.51 1946.65 1635.51ZM1929.55 1631.08 1942.19 1631.08 1942.19 1653.34C1942.19 1654.45 1941.89 1655.38 1941.3 1656.15 1940.7 1656.91 1939.63 1657.29 1938.09 1657.29L1935.99 1657.29 1935.21 1654.65 1938.73 1654.65C1938.89 1654.65 1939.08 1654.56 1939.29 1654.36 1939.51 1654.16 1939.62 1653.98 1939.62 1653.82L1939.62 1646.25C1936.41 1648 1933.93 1649.21 1932.18 1649.87L1931.43 1648.51C1930.48 1652.26 1929.28 1655.16 1927.83 1657.18L1925.65 1655.92C1928.25 1651.51 1929.55 1646.88 1929.55 1642.01ZM1964.7 1622.59 1964.7 1626.99 1969.02 1626.99 1969.02 1622.59ZM1957.69 1622.59 1957.69 1626.99 1962.26 1626.99 1962.26 1622.59ZM1950.76 1622.59 1950.76 1626.99 1955.27 1626.99 1955.27 1622.59ZM1937.25 1619.69 1937.25 1624.52 1941.25 1624.52 1941.25 1619.69ZM1964.7 1616.12 1964.7 1620.28 1969.02 1620.28 1969.02 1616.12ZM1957.69 1616.12 1957.69 1620.28 1962.26 1620.28 1962.26 1616.12ZM1950.76 1616.12 1950.76 1620.28 1955.27 1620.28 1955.27 1616.12ZM1931.29 1613.08 1931.29 1624.52 1934.65 1624.52 1934.65 1617.22 1941.31 1617.22 1941.31 1613.08ZM1928.71 1610.5 1943.94 1610.5 1943.94 1624.52 1945.87 1624.52 1945.87 1630.24 1943.24 1630.24 1943.24 1627.1 1928.55 1627.1 1928.55 1630.24 1925.87 1630.24 1925.87 1624.52 1928.71 1624.52ZM1955.27 1609.16 1957.69 1609.16 1957.69 1613.67 1962.26 1613.67 1962.26 1609.16 1964.7 1609.16 1964.7 1613.67 1971.52 1613.67 1971.52 1629.3 1948.34 1629.3 1948.34 1613.67 1955.27 1613.67Z" fill-rule="evenodd"/><text fill="#000000" fill-opacity="0" font-family="Arial,Arial_MSFontService,sans-serif" font-size="48.125" x="1925.65" y="1651.27">жФћ</text><path d="M2016.56 1650.92C2021.52 1652.28 2025.38 1653.6 2028.16 1654.87L2026.79 1657.29C2023.89 1655.93 2020.09 1654.65 2015.4 1653.45ZM2003.69 1643.89 2003.69 1647.4 2022.39 1647.4 2022.39 1643.89ZM2003.69 1638.11 2003.69 1641.58 2022.39 1641.58 2022.39 1638.11ZM2003.69 1632.28 2003.69 1635.75 2022.39 1635.75 2022.39 1632.28ZM2000.98 1629.73 2025.12 1629.73 2025.12 1649.82 2009.01 1649.82 2010.33 1651.35C2005.9 1653.98 2001.62 1655.89 1997.46 1657.07L1995.93 1654.71C2000.39 1653.37 2004.29 1651.74 2007.64 1649.82L2000.98 1649.82ZM1995.42 1609.4 1997.25 1611.61C1995.37 1612.45 1993.22 1613.2 1990.8 1613.86L1990.8 1622.99 1995.72 1622.99 1995.72 1625.62 1990.8 1625.62 1990.8 1628.42C1994.15 1631.46 1996.67 1634.08 1998.35 1636.29L1996.87 1638.76C1994.92 1636.14 1992.9 1633.87 1990.8 1631.94L1990.8 1657.18 1987.96 1657.18 1987.96 1633.09C1986.24 1637.35 1984.24 1641.07 1981.97 1644.26L1979.87 1642.27C1982.9 1638 1985.59 1632.45 1987.96 1625.62L1980.41 1625.62 1980.41 1622.99 1987.96 1622.99 1987.96 1614.67C1985.83 1615.24 1983.88 1615.64 1982.13 1615.88L1980.76 1613.46C1987.49 1612.1 1992.38 1610.75 1995.42 1609.4ZM2011.83 1609 2014.57 1609 2014.57 1612.92 2027 1612.92 2027 1615.28 2014.57 1615.28 2014.57 1618.48 2025.63 1618.48 2025.63 1620.84 2014.57 1620.84 2014.57 1624.25 2028.27 1624.25 2028.27 1626.62 1997.97 1626.62 1997.97 1624.25 2011.83 1624.25 2011.83 1620.84 2000.44 1620.84 2000.44 1618.48 2011.83 1618.48 2011.83 1615.28 1999.13 1615.28 1999.13 1612.92 2011.83 1612.92Z" fill-rule="evenodd"/><text fill="#000000" fill-opacity="0" font-family="Arial,Arial_MSFontService,sans-serif" font-size="48.2861" x="1979.87" y="1651.25">уЕЇ</text><path d="M2050.91 1642.52 2084 1642.52 2084 1646.09 2050.91 1646.09ZM2050.91 1631.37 2084 1631.37 2084 1634.94 2050.91 1634.94Z" fill-rule="evenodd"/><text fill="#000000" fill-opacity="0" font-family="Arial,Arial_MSFontService,sans-serif" font-size="14.7168" x="2050.91" y="1644.25">=</text><path d="M2120.63 1622.62 2114.51 1639.94 2125.73 1639.94ZM2119.58 1617.35 2123.83 1617.35 2132.96 1647.3C2133.39 1648.69 2133.77 1649.76 2134.1 1650.49 2134.43 1651.23 2134.83 1651.8 2135.29 1652.21 2135.76 1652.62 2136.4 1652.93 2137.2 1653.12L2137.2 1654.44 2124.82 1654.44 2124.82 1653.12C2125.72 1652.95 2126.38 1652.75 2126.82 1652.53 2127.26 1652.32 2127.59 1652.02 2127.8 1651.63 2128.02 1651.25 2128.12 1650.73 2128.12 1650.09 2128.12 1649.48 2128.05 1648.82 2127.91 1648.12 2127.77 1647.41 2127.56 1646.62 2127.29 1645.74L2126.3 1642.27 2113.78 1642.27 2112.87 1644.91C2112.4 1646.23 2112.1 1647.23 2111.96 1647.91 2111.81 1648.59 2111.74 1649.21 2111.74 1649.77 2111.74 1650.84 2112.02 1651.63 2112.56 1652.13 2113.11 1652.63 2113.94 1652.96 2115.07 1653.12L2115.07 1654.44 2103.61 1654.44 2103.61 1653.12C2104.61 1652.96 2105.48 1652.38 2106.22 1651.38 2106.97 1650.38 2107.69 1648.94 2108.39 1647.08Z" fill-rule="evenodd"/><text fill="#000000" fill-opacity="0" font-family="Arial,Arial_MSFontService,sans-serif" font-size="37.0874" x="2103.61" y="1649.8">A</text><path d="M2157.79 1634.86C2158.49 1634.86 2159.12 1635.03 2159.69 1635.36 2160.25 1635.69 2160.69 1636.15 2160.99 1636.74 2161.3 1637.33 2161.45 1638 2161.45 1638.73 2161.45 1639.48 2161.29 1640.15 2160.98 1640.74 2160.66 1641.33 2160.23 1641.79 2159.66 1642.11 2159.1 1642.44 2158.48 1642.6 2157.79 1642.6 2157.11 1642.6 2156.49 1642.44 2155.93 1642.11 2155.36 1641.79 2154.93 1641.33 2154.61 1640.74 2154.3 1640.15 2154.14 1639.48 2154.14 1638.73 2154.14 1638 2154.29 1637.33 2154.6 1636.74 2154.9 1636.15 2155.34 1635.69 2155.9 1635.36 2156.47 1635.03 2157.1 1634.86 2157.79 1634.86Z" fill-rule="evenodd"/><text fill="#000000" fill-opacity="0" font-family="Arial,Arial_MSFontService,sans-serif" font-size="7.73438" x="2154.14" y="1641.63">РѕЎ</text><path d="M2185.91 1616.01 2187.52 1616.01 2187.52 1632.98 2187.63 1633.01C2189.02 1631.59 2190.13 1630.61 2190.94 1630.04 2191.76 1629.48 2192.56 1629.05 2193.36 1628.77 2194.16 1628.48 2195.01 1628.34 2195.93 1628.34 2196.91 1628.34 2197.79 1628.45 2198.56 1628.69 2199.33 1628.92 2200 1629.27 2200.58 1629.75 2201.17 1630.22 2201.64 1630.8 2202.01 1631.49 2202.37 1632.18 2202.65 1633 2202.83 1633.96 2203.01 1634.92 2203.1 1636.13 2203.1 1637.6L2203.1 1647.73C2203.1 1649.28 2203.16 1650.34 2203.3 1650.91 2203.43 1651.47 2203.67 1651.91 2204.02 1652.22 2204.37 1652.54 2205.07 1652.84 2206.13 1653.12L2206.13 1654.44 2195.55 1654.44 2195.55 1653.12C2196.25 1652.91 2196.75 1652.72 2197.05 1652.56 2197.36 1652.4 2197.61 1652.18 2197.82 1651.89 2198.02 1651.6 2198.19 1651.16 2198.3 1650.56 2198.42 1649.96 2198.48 1649.05 2198.48 1647.83L2198.48 1640.8C2198.48 1638.42 2198.36 1636.59 2198.11 1635.33 2197.87 1634.07 2197.4 1633.13 2196.69 1632.5 2195.98 1631.87 2194.99 1631.56 2193.72 1631.56 2193.01 1631.56 2192.36 1631.68 2191.79 1631.94 2191.22 1632.19 2190.55 1632.63 2189.8 1633.28 2189.05 1633.92 2188.48 1634.58 2188.1 1635.27 2187.71 1635.95 2187.52 1636.67 2187.52 1637.44L2187.52 1647.73C2187.52 1648.94 2187.55 1649.81 2187.61 1650.33 2187.68 1650.85 2187.8 1651.28 2187.98 1651.63 2188.15 1651.98 2188.43 1652.27 2188.79 1652.49 2189.16 1652.72 2189.73 1652.93 2190.5 1653.12L2190.5 1654.44 2179.87 1654.44 2179.87 1653.12C2180.65 1652.91 2181.22 1652.7 2181.56 1652.51 2181.9 1652.31 2182.16 1652.06 2182.35 1651.75 2182.54 1651.45 2182.68 1651.01 2182.77 1650.44 2182.86 1649.87 2182.9 1648.96 2182.9 1647.73L2182.9 1625.25C2182.9 1623.53 2182.89 1622.33 2182.86 1621.65 2182.83 1620.97 2182.76 1620.39 2182.65 1619.92 2182.53 1619.44 2182.37 1619.07 2182.16 1618.8 2181.96 1618.53 2181.68 1618.32 2181.33 1618.16 2180.98 1618 2180.35 1617.84 2179.44 1617.67L2179.44 1616.28Z" fill-rule="evenodd"/><text fill="#000000" fill-opacity="0" font-family="Arial,Arial_MSFontService,sans-serif" font-size="38.4302" x="2179.44" y="1649.64">h</text><path d="M2227.37 1642.52 2260.45 1642.52 2260.45 1646.09 2227.37 1646.09ZM2227.37 1631.37 2260.45 1631.37 2260.45 1634.94 2227.37 1634.94Z" fill-rule="evenodd"/><text fill="#000000" fill-opacity="0" font-family="Arial,Arial_MSFontService,sans-serif" font-size="14.7168" x="2227.37" y="1644.25">=</text><path d="M2432.19 1613.74 2436.33 1613.74 2436.33 1663.72 2432.19 1663.72ZM2286.54 1613.74 2290.67 1613.74 2290.67 1663.72 2286.54 1663.72Z" fill-rule="evenodd"/><path d="M2305.97 1628.31C2307.12 1628.31 2308.02 1628.69 2308.68 1629.46 2309.35 1630.23 2309.68 1631.27 2309.68 1632.58 2309.68 1633.99 2309.4 1635.76 2308.84 1637.87L2307.66 1642.52C2307.36 1643.7 2307.14 1644.62 2307 1645.28 2306.87 1645.94 2306.77 1646.52 2306.71 1647 2306.65 1647.48 2306.62 1647.89 2306.62 1648.21 2306.62 1649.44 2306.82 1650.34 2307.23 1650.88 2307.64 1651.43 2308.32 1651.7 2309.25 1651.7 2310 1651.7 2310.81 1651.4 2311.68 1650.8 2312.55 1650.2 2313.47 1649.3 2314.44 1648.09 2315.42 1646.88 2316.2 1645.71 2316.79 1644.57 2317.38 1643.43 2317.87 1642.03 2318.24 1640.37L2320.79 1628.74 2325.44 1628.74 2321.52 1645.77C2321.13 1647.48 2320.93 1648.81 2320.93 1649.74 2320.93 1650.46 2321.05 1650.98 2321.28 1651.3 2321.51 1651.62 2321.88 1651.78 2322.38 1651.78 2322.92 1651.78 2323.49 1651.56 2324.1 1651.12 2324.71 1650.68 2325.57 1649.85 2326.68 1648.61L2328.21 1650.12C2326.58 1651.85 2325.19 1653.08 2324.04 1653.8 2322.9 1654.51 2321.68 1654.87 2320.39 1654.87 2319.28 1654.87 2318.4 1654.5 2317.73 1653.77 2317.07 1653.03 2316.74 1652.06 2316.74 1650.84 2316.74 1649.87 2316.95 1648.82 2317.38 1647.67L2317.06 1647.57C2315.29 1650.05 2313.61 1651.89 2312.03 1653.07 2310.44 1654.25 2308.82 1654.84 2307.15 1654.84 2305.49 1654.84 2304.21 1654.36 2303.31 1653.41 2302.42 1652.45 2301.97 1651.12 2301.97 1649.42 2301.97 1648.29 2302.23 1646.69 2302.75 1644.61L2304.49 1637.57C2304.98 1635.62 2305.22 1634.24 2305.22 1633.44 2305.22 1632.72 2305.1 1632.2 2304.87 1631.88 2304.64 1631.56 2304.27 1631.4 2303.77 1631.4 2303.21 1631.4 2302.63 1631.63 2302.01 1632.08 2301.39 1632.54 2300.55 1633.37 2299.47 1634.57L2297.94 1633.06C2299.46 1631.52 2300.61 1630.47 2301.38 1629.89 2302.15 1629.32 2302.89 1628.91 2303.59 1628.67 2304.3 1628.43 2305.09 1628.31 2305.97 1628.31Z" fill-rule="evenodd"/><text fill="#000000" fill-opacity="0" font-family="Arial,Arial_MSFontService,sans-serif" font-size="26.5601" x="2297.94" y="1651.55">­ЮЉб</text><path d="M2322.06 1611.15 2328.8 1616.98 2328.8 1618.53 2322.06 1624.36 2320.63 1622.75 2324.93 1619.02 2316.3 1619.02 2308.55 1619.02 2300.18 1619.02 2300.18 1616.49 2308.55 1616.49 2316.3 1616.49 2324.93 1616.49 2320.63 1612.76Z" fill-rule="evenodd"/><path d="M2349.99 1624.01 2362.16 1636.15 2374.32 1624.01 2376.85 1626.51 2364.82 1638.76 2376.87 1650.95 2374.19 1653.63 2362.16 1641.36 2349.75 1653.53 2347.25 1651 2359.53 1638.76 2347.31 1626.7Z" fill-rule="evenodd"/><text fill="#000000" fill-opacity="0" font-family="Arial,Arial_MSFontService,sans-serif" font-size="29.6216" x="2347.25" y="1649.93">├Ќ</text><path d="M2419.6 1628.2C2420.89 1628.2 2421.82 1628.54 2422.39 1629.21 2422.96 1629.88 2423.25 1630.78 2423.25 1631.91 2423.25 1632.77 2423.1 1633.75 2422.79 1634.86 2422.49 1635.97 2422.06 1637.15 2421.5 1638.38 2420.95 1639.62 2420.29 1640.88 2419.52 1642.18 2418.75 1643.48 2417.9 1644.74 2416.97 1645.97 2416.03 1647.19 2415.04 1648.35 2413.98 1649.43 2412.93 1650.51 2411.83 1651.46 2410.69 1652.26 2409.56 1653.07 2408.4 1653.71 2407.23 1654.18 2406.06 1654.66 2404.89 1654.9 2403.73 1654.9 2403.21 1654.9 2402.77 1654.77 2402.42 1654.51 2402.07 1654.25 2401.79 1653.88 2401.58 1653.41 2401.36 1652.93 2401.21 1652.37 2401.12 1651.73 2401.03 1651.08 2400.99 1650.38 2400.99 1649.61 2400.99 1648.59 2401.05 1647.49 2401.17 1646.33 2401.3 1645.17 2401.46 1643.99 2401.66 1642.81L2402.79 1635.37C2402.86 1634.94 2402.92 1634.54 2402.96 1634.15 2403 1633.77 2403.03 1633.48 2403.03 1633.3 2403.03 1632.75 2402.94 1632.29 2402.76 1631.94 2402.58 1631.58 2402.28 1631.4 2401.85 1631.4 2401.51 1631.4 2401.14 1631.5 2400.74 1631.71 2400.35 1631.91 2399.95 1632.18 2399.55 1632.5 2399.15 1632.82 2398.76 1633.17 2398.38 1633.53 2398.01 1633.9 2397.66 1634.24 2397.33 1634.57L2396.04 1633.06C2396.6 1632.49 2397.19 1631.92 2397.82 1631.36 2398.44 1630.79 2399.11 1630.28 2399.8 1629.83 2400.5 1629.37 2401.24 1629 2402.01 1628.73 2402.78 1628.45 2403.56 1628.31 2404.37 1628.31 2405.05 1628.31 2405.61 1628.42 2406.04 1628.65 2406.46 1628.87 2406.8 1629.16 2407.04 1629.53 2407.28 1629.9 2407.45 1630.3 2407.54 1630.74 2407.63 1631.18 2407.67 1631.61 2407.67 1632.04 2407.67 1632.29 2407.66 1632.53 2407.65 1632.77 2407.63 1633 2407.6 1633.22 2407.57 1633.41L2406.06 1643.13C2405.9 1644.15 2405.77 1645.15 2405.66 1646.13 2405.55 1647.1 2405.5 1647.97 2405.5 1648.72 2405.5 1649.47 2405.54 1650.08 2405.63 1650.55 2405.72 1651.01 2405.89 1651.24 2406.14 1651.24 2406.73 1651.24 2407.48 1651.01 2408.37 1650.53 2409.27 1650.06 2410.21 1649.4 2411.19 1648.57 2412.18 1647.74 2413.16 1646.75 2414.15 1645.62 2415.13 1644.48 2416.02 1643.25 2416.8 1641.93 2417.59 1640.6 2418.23 1639.2 2418.72 1637.74 2419.22 1636.27 2419.46 1634.79 2419.46 1633.3 2419.46 1632.66 2419.32 1632.16 2419.05 1631.81 2418.77 1631.47 2418.33 1631.29 2417.74 1631.29 2416.99 1631.29 2416.3 1631.58 2415.66 1632.16 2415.03 1632.75 2414.37 1633.51 2413.69 1634.46L2412.16 1633.09C2412.59 1632.45 2413.09 1631.83 2413.68 1631.24 2414.26 1630.65 2414.88 1630.13 2415.53 1629.68 2416.18 1629.23 2416.86 1628.87 2417.56 1628.61 2418.25 1628.34 2418.93 1628.2 2419.6 1628.2Z" fill-rule="evenodd"/><text fill="#000000" fill-opacity="0" font-family="Arial,Arial_MSFontService,sans-serif" font-size="26.6943" x="2396.04" y="1651.56">­ЮЉБ</text><path d="M2417.02 1611.13 2423.76 1616.95 2423.76 1618.51 2417.02 1624.34 2415.6 1622.73 2419.9 1618.99 2403.52 1618.99 2403.52 1616.47 2419.9 1616.47 2415.6 1612.74Z" fill-rule="evenodd"/><text fill="#000000" fill-opacity="0" font-family="Arial,Arial_MSFontService,sans-serif" font-size="13.2129" x="2403.52" y="1622.69">нд</text><path d="M2616.01 1569.34 2620.84 1569.34 2620.84 1708.12 2616.01 1708.12ZM2458.75 1569.34 2463.59 1569.34 2463.59 1708.12 2458.75 1708.12Z" fill-rule="evenodd"/><path d="M2472 1587.15 2479.03 1587.15 2480.65 1608.34C2483.17 1604.22 2484.99 1601.09 2486.11 1598.94 2487.23 1596.79 2488.06 1594.93 2488.59 1593.37 2489.13 1591.8 2489.54 1590.17 2489.83 1588.47L2490.13 1587.15 2493.99 1587.15 2495.95 1608.37C2498.75 1604.39 2500.87 1600.92 2502.33 1597.96 2503.79 1595 2504.52 1592.58 2504.52 1590.72 2504.52 1589.88 2504.34 1589.31 2503.98 1589 2503.62 1588.7 2503.02 1588.52 2502.16 1588.47L2502.43 1587.15 2509.35 1587.15 2510.08 1588.49C2509.45 1590.09 2508.95 1591.31 2508.57 1592.17 2508.2 1593.03 2507.71 1594.06 2507.1 1595.27 2506.49 1596.48 2505.84 1597.69 2505.16 1598.89 2504.48 1600.08 2503.68 1601.41 2502.76 1602.85 2501.84 1604.29 2500.8 1605.85 2499.66 1607.55 2498.51 1609.24 2497.16 1611.14 2495.6 1613.25L2492.41 1613.25 2491.31 1602.03C2491.22 1601.15 2491.12 1600 2491.02 1598.59 2490.93 1597.18 2490.86 1596.08 2490.82 1595.31L2490.53 1595.29C2489.56 1597.67 2488.25 1600.32 2486.58 1603.24 2484.92 1606.15 2482.86 1609.49 2480.4 1613.25L2476.8 1613.25 2474.76 1593.03C2474.66 1591.99 2474.52 1591.15 2474.36 1590.51 2474.2 1589.86 2473.93 1589.38 2473.56 1589.06 2473.18 1588.73 2472.56 1588.54 2471.7 1588.47Z" fill-rule="evenodd"/><text fill="#000000" fill-opacity="0" font-family="Arial,Arial_MSFontService,sans-serif" font-size="26.1035" x="2471.7" y="1609.99">­ЮЉц</text><path d="M2504.15 1569.53 2510.89 1575.36 2510.89 1576.92 2504.15 1582.75 2502.73 1581.13 2507.03 1577.4 2495.99 1577.4 2490.64 1577.4 2488.86 1577.4 2479.87 1577.4 2472.75 1577.4 2472.75 1574.88 2479.87 1574.88 2488.86 1574.88 2490.64 1574.88 2495.99 1574.88 2507.03 1574.88 2502.73 1571.14Z" fill-rule="evenodd"/><path d="M2532.29 1582.4 2544.46 1594.53 2556.63 1582.4 2559.15 1584.89 2547.12 1597.14 2559.18 1609.33 2556.49 1612.02 2544.46 1599.74 2532.05 1611.91 2529.56 1609.39 2541.83 1597.14 2529.61 1585.08Z" fill-rule="evenodd"/><text fill="#000000" fill-opacity="0" font-family="Arial,Arial_MSFontService,sans-serif" font-size="29.6216" x="2529.56" y="1608.31">├Ќ</text><path d="M2585.14 1586.69C2586.29 1586.69 2587.19 1587.08 2587.85 1587.85 2588.52 1588.62 2588.85 1589.66 2588.85 1590.96 2588.85 1592.38 2588.57 1594.14 2588.01 1596.25L2586.83 1600.9C2586.53 1602.08 2586.31 1603 2586.18 1603.67 2586.04 1604.33 2585.94 1604.9 2585.88 1605.38 2585.82 1605.87 2585.79 1606.27 2585.79 1606.59 2585.79 1607.83 2585.99 1608.72 2586.4 1609.27 2586.82 1609.81 2587.49 1610.08 2588.42 1610.08 2589.17 1610.08 2589.98 1609.78 2590.85 1609.18 2591.72 1608.58 2592.64 1607.68 2593.61 1606.47 2594.59 1605.26 2595.37 1604.09 2595.96 1602.95 2596.55 1601.82 2597.04 1600.42 2597.41 1598.75L2599.97 1587.12 2604.61 1587.12 2600.69 1604.15C2600.3 1605.87 2600.1 1607.19 2600.1 1608.12 2600.1 1608.84 2600.22 1609.36 2600.45 1609.68 2600.68 1610 2601.05 1610.16 2601.55 1610.16 2602.09 1610.16 2602.66 1609.95 2603.27 1609.51 2603.88 1609.07 2604.74 1608.23 2605.85 1607L2607.38 1608.5C2605.75 1610.24 2604.36 1611.46 2603.22 1612.18 2602.07 1612.9 2600.85 1613.25 2599.56 1613.25 2598.45 1613.25 2597.57 1612.89 2596.9 1612.15 2596.24 1611.42 2595.91 1610.44 2595.91 1609.22 2595.91 1608.26 2596.13 1607.2 2596.55 1606.06L2596.23 1605.95C2594.46 1608.44 2592.78 1610.27 2591.2 1611.45 2589.61 1612.64 2587.99 1613.23 2586.32 1613.23 2584.66 1613.23 2583.38 1612.75 2582.48 1611.79 2581.59 1610.83 2581.14 1609.5 2581.14 1607.8 2581.14 1606.67 2581.4 1605.07 2581.92 1602.99L2583.66 1595.96C2584.15 1594.01 2584.39 1592.63 2584.39 1591.82 2584.39 1591.11 2584.27 1590.59 2584.04 1590.26 2583.81 1589.94 2583.44 1589.78 2582.94 1589.78 2582.38 1589.78 2581.8 1590.01 2581.18 1590.47 2580.56 1590.92 2579.72 1591.75 2578.64 1592.95L2577.11 1591.45C2578.63 1589.91 2579.78 1588.85 2580.55 1588.28 2581.32 1587.7 2582.06 1587.3 2582.76 1587.06 2583.47 1586.81 2584.26 1586.69 2585.14 1586.69Z" fill-rule="evenodd"/><text fill="#000000" fill-opacity="0" font-family="Arial,Arial_MSFontService,sans-serif" font-size="26.5601" x="2577.11" y="1609.93">­ЮЉб</text><path d="M2601.23 1569.53 2607.97 1575.36 2607.97 1576.92 2601.23 1582.75 2599.8 1581.13 2604.1 1577.4 2595.47 1577.4 2587.72 1577.4 2579.35 1577.4 2579.35 1574.88 2587.72 1574.88 2595.47 1574.88 2604.1 1574.88 2599.8 1571.14Z" fill-rule="evenodd"/><path d="M2562.89 1650.52 2567.02 1650.52 2567.02 1700.5 2562.89 1700.5ZM2512.59 1650.52 2516.72 1650.52 2516.72 1700.5 2512.59 1700.5Z" fill-rule="evenodd"/><path d="M2532.02 1665.09C2533.17 1665.09 2534.07 1665.48 2534.73 1666.25 2535.4 1667.02 2535.73 1668.05 2535.73 1669.36 2535.73 1670.78 2535.45 1672.54 2534.89 1674.65L2533.71 1679.3C2533.41 1680.48 2533.19 1681.4 2533.05 1682.06 2532.92 1682.73 2532.82 1683.3 2532.76 1683.78 2532.7 1684.27 2532.67 1684.67 2532.67 1684.99 2532.67 1686.23 2532.87 1687.12 2533.28 1687.66 2533.69 1688.21 2534.37 1688.48 2535.3 1688.48 2536.05 1688.48 2536.86 1688.18 2537.73 1687.58 2538.6 1686.98 2539.52 1686.08 2540.49 1684.87 2541.47 1683.66 2542.25 1682.49 2542.84 1681.35 2543.43 1680.22 2543.92 1678.81 2544.29 1677.15L2546.84 1665.52 2551.49 1665.52 2547.57 1682.55C2547.18 1684.27 2546.98 1685.59 2546.98 1686.52 2546.98 1687.24 2547.1 1687.76 2547.33 1688.08 2547.56 1688.4 2547.93 1688.56 2548.43 1688.56 2548.97 1688.56 2549.54 1688.34 2550.15 1687.9 2550.76 1687.47 2551.62 1686.63 2552.73 1685.39L2554.26 1686.9C2552.63 1688.63 2551.24 1689.86 2550.09 1690.58 2548.95 1691.29 2547.73 1691.65 2546.44 1691.65 2545.33 1691.65 2544.45 1691.28 2543.78 1690.55 2543.12 1689.82 2542.79 1688.84 2542.79 1687.62 2542.79 1686.66 2543 1685.6 2543.43 1684.45L2543.11 1684.35C2541.34 1686.83 2539.66 1688.67 2538.08 1689.85 2536.49 1691.03 2534.87 1691.62 2533.2 1691.62 2531.54 1691.62 2530.26 1691.15 2529.36 1690.19 2528.47 1689.23 2528.02 1687.9 2528.02 1686.2 2528.02 1685.07 2528.28 1683.47 2528.8 1681.39L2530.54 1674.36C2531.03 1672.4 2531.27 1671.03 2531.27 1670.22 2531.27 1669.5 2531.15 1668.98 2530.92 1668.66 2530.69 1668.34 2530.32 1668.18 2529.82 1668.18 2529.26 1668.18 2528.68 1668.41 2528.06 1668.86 2527.44 1669.32 2526.6 1670.15 2525.52 1671.35L2523.99 1669.84C2525.51 1668.3 2526.66 1667.25 2527.43 1666.68 2528.2 1666.1 2528.94 1665.7 2529.64 1665.45 2530.35 1665.21 2531.14 1665.09 2532.02 1665.09Z" fill-rule="evenodd"/><text fill="#000000" fill-opacity="0" font-family="Arial,Arial_MSFontService,sans-serif" font-size="26.5601" x="2523.99" y="1688.33">­ЮЉб</text><path d="M2548.11 1647.93 2554.85 1653.76 2554.85 1655.32 2548.11 1661.14 2546.68 1659.53 2550.98 1655.8 2542.35 1655.8 2534.6 1655.8 2526.23 1655.8 2526.23 1653.27 2534.6 1653.27 2542.35 1653.27 2550.98 1653.27 2546.68 1649.54Z" fill-rule="evenodd"/><path d="M2470.62 1637.44 2609.62 1637.44 2609.62 1641.44 2470.62 1641.44Z" fill-rule="evenodd"/><path d="M1220.5 1582.5 1747.48 1582.5" stroke="#000000" stroke-width="3.4375" stroke-miterlimit="8" fill="none" fill-rule="evenodd"/><path d="M0 0 289.984 210.294" stroke="#000000" stroke-width="3.4375" stroke-miterlimit="8" fill="none" fill-rule="evenodd" transform="matrix(-1 0 0 1 1746.48 1582.5)"/><path d="M1314.5 1186.5 1841.48 1186.5" stroke="#000000" stroke-width="3.4375" stroke-miterlimit="8" fill="none" fill-rule="evenodd"/><path d="M0 0 289.984 210.294" stroke="#000000" stroke-width="3.4375" stroke-miterlimit="8" fill="none" fill-rule="evenodd" transform="matrix(-1 0 0 1 1840.48 1186.5)"/><path d="M1022.5 1394.5 1549.48 1394.5" stroke="#000000" stroke-width="3.4375" stroke-miterlimit="8" fill="none" fill-rule="evenodd"/><path d="M0 0 289.984 210.294" stroke="#000000" stroke-width="3.4375" stroke-miterlimit="8" fill="none" fill-rule="evenodd" transform="matrix(-1 0 0 1 1316.48 1185.5)"/><path d="M895.779 1555.41 905.118 1555.41 907.257 1583.53C910.607 1578.07 913.025 1573.91 914.51 1571.06 915.995 1568.21 917.095 1565.74 917.807 1563.66 918.52 1561.58 919.067 1559.41 919.447 1557.16L919.839 1555.41 924.972 1555.41 927.574 1583.57C931.281 1578.29 934.103 1573.69 936.04 1569.76 937.976 1565.82 938.945 1562.62 938.945 1560.15 938.945 1559.03 938.707 1558.27 938.232 1557.87 937.756 1557.47 936.949 1557.23 935.808 1557.16L936.164 1555.41 945.361 1555.41 946.323 1557.19C945.491 1559.31 944.826 1560.93 944.327 1562.08 943.828 1563.22 943.174 1564.59 942.367 1566.19 941.559 1567.8 940.703 1569.39 939.8 1570.99 938.897 1572.58 937.834 1574.33 936.61 1576.24 935.386 1578.16 934.014 1580.24 932.493 1582.48 930.972 1584.73 929.178 1587.25 927.111 1590.06L922.869 1590.06 921.408 1575.16C921.289 1573.99 921.164 1572.47 921.033 1570.59 920.903 1568.72 920.813 1567.27 920.766 1566.25L920.374 1566.21C919.091 1569.37 917.344 1572.89 915.134 1576.76 912.924 1580.63 910.191 1585.07 906.936 1590.06L902.159 1590.06 899.451 1563.22C899.308 1561.84 899.13 1560.72 898.916 1559.87 898.702 1559.01 898.346 1558.37 897.846 1557.94 897.347 1557.51 896.528 1557.25 895.387 1557.16Z" fill="#7030A0" fill-rule="evenodd"/><text fill="#000000" fill-opacity="0" font-family="Arial,Arial_MSFontService,sans-serif" font-size="34.6465" x="895.387" y="1585.73">­ЮЉц</text><path d="M938.764 1532.03 947.711 1539.76 947.711 1541.83 938.764 1549.56 936.875 1547.43 942.578 1542.47 927.876 1542.47 920.835 1542.47 917.976 1542.47 906.489 1542.47 896.589 1542.47 896.589 1539.12 906.489 1539.12 917.976 1539.12 920.835 1539.12 927.876 1539.12 942.578 1539.12 936.875 1534.17Z" fill="#7030A0" fill-rule="evenodd"/><path d="M0 0 96.1024 397.502" stroke="#000000" stroke-width="3.4375" stroke-miterlimit="8" fill="none" fill-rule="evenodd" transform="matrix(-1 0 0 1 1315.6 1186.5)"/><path d="M0 0 96.1024 397.502" stroke="#000000" stroke-width="3.4375" stroke-miterlimit="8" fill="none" fill-rule="evenodd" transform="matrix(-1 0 0 1 1840.6 1186.5)"/><path d="M0 0 96.1024 397.502" stroke="#000000" stroke-width="3.4375" stroke-miterlimit="8" fill="none" fill-rule="evenodd" transform="matrix(-1 0 0 1 1553.6 1394.5)"/><path d="M0 0 0.000360892 396.747" stroke="#000000" stroke-width="3.4375" stroke-miterlimit="8" stroke-dasharray="27.5 10.3125" fill="none" fill-rule="evenodd" transform="matrix(-1 0 0 1 1026.5 1395.5)"/><path d="M1024.5 1762.5 1058.23 1762.67" stroke="#000000" stroke-width="3.4375" stroke-miterlimit="8" fill="none" fill-rule="evenodd"/><path d="M1061.5 1760.5 1061.5 1794.28" stroke="#000000" stroke-width="3.4375" stroke-miterlimit="8" fill="none" fill-rule="evenodd"/><text font-family="Cambria Math,Cambria Math_MSFontService,sans-serif" font-weight="400" font-size="46" transform="translate(827.723 1738)">Рёј</text><path d="M851.646 1693.85C869.729 1660.17 936.43 1638.97 1012.02 1642.89" stroke="#000000" stroke-width="2.29167" stroke-miterlimit="8" fill="none" fill-rule="evenodd"/><path d="M0 0 289.984 210.294" stroke="#FF0000" stroke-width="6.875" stroke-miterlimit="8" fill="none" fill-rule="evenodd" transform="matrix(-1 0 0 1 1220.48 1582.5)"/><path d="M929.5 1792.5 1456.48 1792.5" stroke="#0000CC" stroke-width="6.875" stroke-miterlimit="8" fill="none" fill-rule="evenodd"/><path d="M0 0 96.1024 397.502" stroke="#7030A0" stroke-width="6.875" stroke-miterlimit="8" fill="none" fill-rule="evenodd" transform="matrix(-1 0 0 1 1026.6 1395.5)"/></g></svg>